<svg width="482" height="482" viewBox="0 0 482 482" fill="none" xmlns="http://www.w3.org/2000/svg">
<g clip-path="url(#clip0_1045_1978)">
<path d="M242.308 35.268C136.243 34.062 45.7029 106.208 32.1905 195.389C18.6781 284.571 38.9462 412.262 150.423 441.989C261.9 471.716 418.644 450.096 440.939 369.698C463.234 289.299 465.261 189.308 413.238 117.693C361.216 46.0773 301.763 35.9428 242.308 35.268Z" fill="#E7DDCE"/>
<path d="M425.342 101.155C429.548 100.797 432.856 96.9427 433.678 92.8023C434.499 88.6619 433.287 84.3683 431.501 80.5441C426.719 70.3083 417.587 62.1934 406.859 58.6468C401.793 56.9724 395.542 56.5482 391.767 60.3194C390.026 62.0594 389.087 64.4675 388.666 66.8929C387.062 76.1184 393.054 84.6237 400.797 88.9714C407.548 92.7638 417.485 101.826 425.342 101.155Z" fill="#E7DDCE"/>
<path d="M60.7344 98.596C58.8777 97.7612 57.8964 95.7021 57.4288 93.7211C56.0455 87.8503 58.093 81.298 62.5727 77.2598C65.3838 74.7254 68.9458 73.2129 72.446 71.7737C73.8091 71.2136 75.2378 70.6468 76.7069 70.7711C84.7785 71.4556 81.5443 82.7584 78.3187 86.5846C75.1944 90.2911 66.0133 100.97 60.7344 98.596Z" fill="#E7DDCE"/>
<path d="M33.9883 303.307C46.181 365.665 80.2024 423.264 150.424 441.989C261.901 471.716 418.645 450.096 440.94 369.698C446.784 348.626 451.231 326.207 453.681 303.307H33.9883Z" fill="#9DC9DD"/>
<path d="M34.2061 304.433H453.559C454.346 297.266 454.94 290.051 455.319 282.813H30.7637C31.638 290.051 32.7746 297.274 34.2061 304.433Z" fill="#74A7CB"/>
<path d="M252.365 430.161C343.375 430.161 417.152 403.01 417.152 369.518C417.152 336.025 343.375 308.874 252.365 308.874C161.356 308.874 87.5781 336.025 87.5781 369.518C87.5781 403.01 161.356 430.161 252.365 430.161Z" fill="#74A7CB"/>
<path d="M252.365 424.756C341.171 424.756 413.163 397.605 413.163 364.112C413.163 330.62 341.171 303.469 252.365 303.469C163.56 303.469 91.5684 330.62 91.5684 364.112C91.5684 397.605 163.56 424.756 252.365 424.756Z" fill="#FFCE5E"/>
<path d="M247.861 381.387C305.375 381.387 351.999 364.255 351.999 343.121C351.999 321.988 305.375 304.855 247.861 304.855C190.347 304.855 143.723 321.988 143.723 343.121C143.723 364.255 190.347 381.387 247.861 381.387Z" fill="#FF8F3D"/>
<path d="M107.756 342.588C107.594 342.495 107.42 342.447 107.233 342.447C107.046 342.447 106.872 342.494 106.711 342.588C106.451 342.699 106.195 342.813 105.995 343.02C105.801 343.222 105.642 343.494 105.48 343.726C105.367 343.888 105.297 344.063 105.219 344.244C105.179 344.337 105.139 344.429 105.099 344.522C105.049 344.638 104.973 344.779 104.944 344.885C104.888 345.091 104.899 345.282 104.946 345.469C104.944 345.499 104.941 345.527 104.939 345.557C104.911 345.869 105.132 346.193 105.39 346.343C105.663 346.503 105.973 346.492 106.252 346.365C106.546 346.323 106.798 346.169 107.014 345.946C107.083 345.875 107.151 345.804 107.22 345.734C107.423 345.523 107.611 345.313 107.769 345.063C107.872 344.9 107.984 344.74 108.075 344.57C108.204 344.327 108.24 344.15 108.254 343.876C108.257 343.828 108.258 343.781 108.26 343.733C108.264 343.65 108.268 343.567 108.268 343.483C108.27 343.118 108.069 342.772 107.756 342.588Z" fill="#FF8F3D"/>
<path d="M113.292 341.039C113.087 340.835 112.807 340.776 112.53 340.838C112.462 340.853 112.393 340.868 112.325 340.884C112.094 340.935 111.92 341.078 111.752 341.234C111.631 341.347 111.509 341.46 111.387 341.573C111.328 341.628 111.268 341.683 111.209 341.738C111.096 341.843 111 341.965 110.924 342.099C110.843 342.243 110.762 342.387 110.681 342.53C110.654 342.596 110.626 342.661 110.598 342.726C110.565 342.835 110.559 342.944 110.584 343.053C110.584 343.127 110.603 343.196 110.64 343.259C110.673 343.361 110.729 343.449 110.809 343.523C110.914 343.62 111.036 343.69 111.171 343.734C111.37 343.799 111.623 343.753 111.802 343.652C111.942 343.572 112.082 343.493 112.222 343.414C112.357 343.338 112.48 343.246 112.586 343.132C112.644 343.069 112.702 343.007 112.761 342.945C112.87 342.826 112.98 342.708 113.09 342.59C113.245 342.422 113.395 342.248 113.447 342.018L113.495 341.802C113.555 341.524 113.497 341.243 113.292 341.039Z" fill="#FF8F3D"/>
<path d="M115.366 335.737C115.362 335.721 115.357 335.705 115.353 335.689C115.335 335.625 115.318 335.562 115.3 335.498C115.272 335.433 115.245 335.368 115.217 335.302C115.166 335.207 115.095 335.131 115.005 335.073C114.87 334.968 114.686 334.886 114.509 334.897C114.448 334.9 114.388 334.904 114.326 334.908C114.31 334.909 114.295 334.91 114.281 334.911C114.174 334.918 114.067 334.931 113.961 334.952C113.871 334.991 113.779 335.03 113.689 335.068C113.566 335.133 113.455 335.246 113.346 335.337C113.184 335.473 113.022 335.609 112.86 335.745C112.693 335.913 112.578 336.11 112.515 336.338C112.451 336.576 112.451 336.814 112.515 337.052C112.622 337.386 112.824 337.675 113.132 337.855C113.287 337.953 113.453 338.006 113.632 338.014C113.81 338.055 113.989 338.046 114.168 337.99C114.395 337.926 114.593 337.811 114.761 337.645C114.927 337.477 115.042 337.28 115.106 337.052C115.177 336.868 115.247 336.683 115.319 336.499C115.336 336.452 115.356 336.407 115.371 336.36C115.384 336.259 115.398 336.157 115.411 336.055C115.41 335.947 115.395 335.841 115.366 335.737Z" fill="#FF8F3D"/>
<path d="M392.273 339.882C392.21 339.577 392.088 339.296 391.929 339.03C391.865 338.924 391.802 338.817 391.738 338.711C391.634 338.538 391.501 338.389 391.365 338.241C391.199 338.061 391.031 337.887 390.859 337.713C390.773 337.628 390.687 337.541 390.601 337.454C390.472 337.324 390.326 337.242 390.167 337.189C390.114 337.154 390.06 337.119 390.007 337.084C389.83 336.968 389.58 337.002 389.421 337.125C389.244 337.261 389.191 337.466 389.232 337.681C389.235 337.704 389.24 337.726 389.244 337.748C389.235 337.795 389.222 337.841 389.223 337.895C389.226 338.032 389.252 338.1 389.299 338.213L389.447 338.565C389.564 338.848 389.684 339.129 389.812 339.408C389.865 339.523 389.912 339.634 389.987 339.736C390.062 339.836 390.136 339.936 390.21 340.037C390.321 340.186 390.425 340.362 390.563 340.484C390.708 340.61 390.868 340.737 391.025 340.844C391.305 341.034 391.718 340.973 391.969 340.778C392.25 340.56 392.343 340.226 392.273 339.882Z" fill="#FF8F3D"/>
<path d="M392.952 343.917C392.952 343.807 392.924 343.704 392.869 343.609C392.82 343.458 392.736 343.327 392.617 343.217C392.446 343.079 392.276 342.94 392.106 342.801C391.986 342.704 391.866 342.606 391.744 342.513C391.595 342.397 391.612 342.407 391.438 342.334C391.367 342.304 391.297 342.274 391.226 342.246C391.173 342.226 391.121 342.205 391.07 342.185C390.86 342.128 390.651 342.128 390.441 342.185C390.333 342.215 390.235 342.261 390.142 342.317C389.977 342.345 389.837 342.4 389.727 342.543C389.617 342.687 389.597 342.841 389.616 343.01C389.588 343.112 389.572 343.218 389.572 343.327C389.573 343.541 389.627 343.739 389.734 343.924C389.853 344.079 389.963 344.248 390.098 344.386C390.233 344.525 390.437 344.642 390.6 344.755C390.78 344.881 390.96 345.006 391.141 345.132C391.238 345.173 391.334 345.214 391.432 345.255C391.594 345.306 391.756 345.312 391.919 345.277C392.029 345.277 392.132 345.249 392.226 345.194C392.246 345.187 392.26 345.168 392.279 345.159C392.347 345.131 392.414 345.102 392.482 345.073C392.59 345.016 392.676 344.936 392.742 344.834C392.822 344.73 392.882 344.59 392.913 344.45C392.919 344.434 392.926 344.419 392.932 344.403C392.981 344.241 392.988 344.079 392.952 343.917Z" fill="#FF8F3D"/>
<path d="M397.418 342.796C397.407 342.736 397.39 342.678 397.367 342.621C397.313 342.486 397.259 342.333 397.174 342.21C397.088 342.086 396.996 341.956 396.885 341.852C396.865 341.833 396.842 341.814 396.82 341.797C396.648 341.66 396.488 341.512 396.259 341.476C396.111 341.452 395.94 341.415 395.783 341.429C395.633 341.441 395.468 341.454 395.321 341.507C395.186 341.538 395.069 341.601 394.968 341.693C394.856 341.766 394.766 341.863 394.701 341.984C394.667 342.067 394.631 342.15 394.596 342.232C394.553 342.369 394.547 342.507 394.578 342.645C394.578 342.739 394.602 342.826 394.648 342.907C394.69 343.036 394.762 343.147 394.863 343.241C394.934 343.295 395.003 343.349 395.074 343.404C395.162 343.455 395.255 343.49 395.351 343.513C395.364 343.515 395.374 343.52 395.386 343.522C395.389 343.524 395.392 343.525 395.394 343.527C395.463 343.576 395.539 343.606 395.617 343.632C395.661 343.691 395.705 343.749 395.751 343.806C395.819 343.858 395.886 343.91 395.954 343.962C396.163 344.097 396.126 344.051 396.189 344.063C396.252 344.091 396.315 344.123 396.386 344.126C396.451 344.143 396.518 344.143 396.584 344.126C396.683 344.121 396.776 344.092 396.862 344.037C396.959 343.991 397.043 343.915 397.123 343.846C397.136 343.835 397.149 343.822 397.162 343.81C397.348 343.611 397.457 343.374 397.458 343.099C397.457 342.997 397.435 342.896 397.418 342.796Z" fill="#FF8F3D"/>
<path d="M398.714 347.082C398.675 346.965 398.611 346.864 398.518 346.778C398.432 346.685 398.331 346.621 398.213 346.582C398.101 346.523 397.979 346.495 397.849 346.5C397.765 346.512 397.681 346.522 397.597 346.534C397.437 346.578 397.298 346.66 397.18 346.777C397.131 346.84 397.082 346.905 397.032 346.969C396.946 347.116 396.902 347.276 396.902 347.447C396.909 347.506 396.915 347.564 396.922 347.623C396.925 347.651 396.927 347.679 396.93 347.707C396.932 347.722 396.933 347.736 396.935 347.751C396.936 347.758 396.937 347.766 396.938 347.774C396.949 347.855 396.959 347.935 396.971 348.016C397.001 348.091 397.032 348.166 397.066 348.24C397.147 348.376 397.255 348.485 397.392 348.566C397.534 348.648 397.686 348.689 397.85 348.69C398.014 348.689 398.166 348.648 398.308 348.566C398.444 348.485 398.553 348.377 398.634 348.24C398.651 348.202 398.667 348.163 398.683 348.125C398.724 348.053 398.745 347.977 398.746 347.895C398.752 347.849 398.759 347.803 398.764 347.756C398.766 347.742 398.767 347.727 398.769 347.712C398.772 347.683 398.775 347.653 398.778 347.623C398.785 347.564 398.791 347.506 398.798 347.447C398.8 347.318 398.773 347.195 398.714 347.082Z" fill="#FF8F3D"/>
<path d="M178.658 412.416C178.577 412.253 178.497 412.09 178.416 411.928C178.377 411.849 178.34 411.769 178.299 411.692C178.211 411.524 178.075 411.398 177.939 411.273C177.868 411.21 177.799 411.146 177.728 411.082C177.592 410.959 177.456 410.82 177.298 410.726C177.183 410.655 177.042 410.611 176.914 410.565C176.867 410.547 176.819 410.531 176.772 410.514L176.505 410.417C176.412 410.405 176.318 410.392 176.225 410.38C176.131 410.392 176.037 410.405 175.944 410.417C175.722 410.479 175.534 410.616 175.395 410.796C175.33 410.862 175.285 410.94 175.26 411.028C175.212 411.111 175.188 411.2 175.187 411.295C175.158 411.509 175.179 411.787 175.313 411.968C175.365 412.04 175.418 412.11 175.47 412.181C175.579 412.329 175.682 412.498 175.809 412.626C176.006 412.824 176.284 412.961 176.522 413.107C176.676 413.2 176.834 413.303 177.011 413.341C177.098 413.36 177.187 413.372 177.274 413.387C177.461 413.42 177.647 413.453 177.834 413.486C177.963 413.508 178.094 413.521 178.222 413.486C178.375 413.443 178.504 413.349 178.601 413.225C178.788 412.982 178.791 412.684 178.658 412.416Z" fill="#FF8F3D"/>
<path d="M183.44 410.594C183.42 410.376 183.406 410.177 183.283 409.987C183.226 409.914 183.17 409.84 183.113 409.767L183.087 409.744C183.076 409.735 183.065 409.725 183.055 409.715C183.006 409.672 182.957 409.629 182.907 409.585C182.841 409.534 182.775 409.483 182.709 409.432C182.631 409.399 182.553 409.366 182.474 409.333C182.387 409.321 182.299 409.31 182.212 409.298C182.077 409.293 181.951 409.321 181.833 409.383C181.751 409.406 181.678 409.448 181.617 409.509C181.542 409.553 181.484 409.611 181.44 409.686C181.379 409.747 181.337 409.82 181.314 409.902C181.252 410.02 181.224 410.145 181.229 410.281C181.234 410.343 181.239 410.405 181.244 410.466C181.245 410.483 181.247 410.499 181.248 410.515C181.249 410.523 181.249 410.531 181.25 410.539L181.289 410.829C181.333 411.025 181.472 411.226 181.618 411.358C181.664 411.4 181.71 411.443 181.756 411.484C181.865 411.583 181.974 411.658 182.1 411.727C182.38 411.883 182.72 411.891 183 411.727C183.134 411.648 183.241 411.541 183.32 411.407C183.401 411.267 183.441 411.118 183.441 410.957C183.449 410.899 183.463 410.838 183.457 410.78C183.453 410.717 183.447 410.655 183.44 410.594Z" fill="#FF8F3D"/>
<path d="M185.718 413.194C185.675 413.154 185.634 413.113 185.592 413.073C185.47 412.954 185.318 412.859 185.149 412.823C185.112 412.816 185.077 412.808 185.04 412.8C184.815 412.753 184.583 412.693 184.355 412.767C184.279 412.792 184.205 412.822 184.13 412.85C184.064 412.878 183.997 412.906 183.93 412.935C183.832 412.988 183.754 413.059 183.694 413.151C183.642 413.203 183.607 413.265 183.586 413.336C183.534 413.435 183.51 413.543 183.514 413.659C183.524 413.733 183.534 413.808 183.544 413.882C183.572 413.948 183.6 414.015 183.629 414.081C183.682 414.179 183.753 414.257 183.845 414.317C183.926 414.391 184.02 414.44 184.129 414.466C184.203 414.494 184.278 414.525 184.354 414.549C184.581 414.623 184.814 414.563 185.039 414.515C185.076 414.507 185.111 414.5 185.148 414.492C185.317 414.456 185.468 414.361 185.591 414.242C185.633 414.202 185.675 414.161 185.717 414.121C185.78 414.062 185.826 413.991 185.853 413.91C185.894 413.832 185.913 413.747 185.91 413.657C185.902 413.487 185.845 413.317 185.718 413.194Z" fill="#FF8F3D"/>
<path d="M317.934 411.679C317.89 411.526 317.832 411.382 317.716 411.267C317.598 411.149 317.453 411.093 317.299 411.045C317.199 411.013 317.132 410.998 316.999 410.998C316.796 410.998 316.631 411.063 316.456 411.156C316.338 411.217 316.223 411.283 316.107 411.346C316.076 411.363 316.044 411.379 316.013 411.397C315.815 411.509 315.683 411.649 315.56 411.838C315.474 411.972 315.423 412.105 315.36 412.258C315.312 412.375 315.264 412.492 315.216 412.609C315.173 412.771 315.173 412.933 315.216 413.095C315.26 413.249 315.338 413.384 315.451 413.498C315.565 413.611 315.7 413.69 315.854 413.733C316.016 413.777 316.178 413.777 316.34 413.733C316.461 413.688 316.58 413.645 316.701 413.599C316.848 413.543 316.992 413.486 317.125 413.403C317.346 413.267 317.493 413.079 317.621 412.86C317.688 412.746 317.756 412.634 317.821 412.52C317.971 412.252 318.018 411.977 317.934 411.679Z" fill="#FF8F3D"/>
<path d="M321.886 412.126C321.885 412.122 321.885 412.118 321.884 412.113C321.846 412.021 321.807 411.929 321.768 411.837C321.765 411.829 321.761 411.822 321.758 411.815C321.752 411.802 321.746 411.788 321.74 411.775C321.685 411.703 321.63 411.632 321.575 411.561C321.479 411.457 321.366 411.385 321.235 411.343C321.153 411.294 321.063 411.27 320.969 411.27C320.828 411.239 320.688 411.245 320.547 411.29C320.53 411.293 320.512 411.297 320.494 411.301C320.486 411.303 320.479 411.305 320.471 411.307C320.42 411.318 320.373 411.338 320.327 411.366C320.274 411.382 320.224 411.404 320.176 411.431C320.002 411.534 319.862 411.674 319.759 411.849C319.654 412.031 319.601 412.226 319.6 412.437C319.609 412.598 319.62 412.758 319.629 412.919C319.629 413.08 319.671 413.23 319.751 413.369C319.83 413.503 319.937 413.61 320.071 413.689C320.335 413.844 320.709 413.862 320.972 413.689L321.35 413.44C321.428 413.38 321.507 413.319 321.585 413.258C321.699 413.153 321.779 413.028 321.826 412.884C321.879 412.793 321.905 412.695 321.905 412.59C321.941 412.436 321.934 412.281 321.886 412.126Z" fill="#FF8F3D"/>
<path d="M221.951 323.05C221.951 323.05 196.278 326.653 189.973 329.355C183.667 332.058 169.253 353.903 166.551 358.632C163.849 363.361 169.253 365.163 172.181 364.487C172.181 364.487 173.307 366.289 177.136 365.839C177.136 365.839 177.136 367.415 180.739 366.739C180.739 366.739 181.19 366.965 185.019 366.064C188.847 365.162 195.829 349.173 198.531 347.822C201.233 346.47 226.006 347.596 226.006 347.596L221.951 323.05Z" fill="#EBBA9D"/>
<path d="M291.656 289.194C300.964 287.093 332.078 286.041 334.556 314.643C337.033 343.244 292.453 347.898 275.112 351.501C257.77 355.105 204.172 352.402 204.172 352.402C204.172 352.402 201.909 335.811 203.26 326.578C203.26 326.578 244.923 321.173 255.282 317.795C265.641 314.417 266.093 293.248 266.093 293.248L291.656 289.194Z" fill="#697BAE"/>
<path d="M268.91 325.452C268.91 325.452 294.583 329.056 300.889 331.758C307.194 334.46 321.608 356.305 324.31 361.034C327.012 365.764 321.608 367.565 318.68 366.89C318.68 366.89 317.554 368.691 313.725 368.241C313.725 368.241 313.725 369.817 310.122 369.142C310.122 369.142 309.672 369.367 305.843 368.466C302.015 367.565 295.033 351.576 292.33 350.224C289.628 348.873 264.855 349.998 264.855 349.998L268.91 325.452Z" fill="#EBBA9D"/>
<path d="M273.926 349.685C277.48 349.593 281.511 349.529 284.914 349.576C284.677 341.873 282.954 334.226 279.903 327.148C279.554 327.09 279.212 327.034 278.872 326.979L273.926 349.685Z" fill="#EB977D"/>
<path d="M273.789 284.54H212.232V324.477H273.789V284.54Z" fill="#697BAE"/>
<path d="M197.669 289.495C188.511 286.417 150 284.391 147.523 312.992C145.045 341.592 189.861 348.799 207.202 352.403C224.542 356.006 278.338 351.427 278.338 351.427C278.338 351.427 280.169 334.161 278.817 324.928C278.817 324.928 237.154 319.523 226.795 316.145C216.436 312.767 215.985 291.597 215.985 291.597L197.669 289.495Z" fill="#697BAE"/>
<path d="M220.3 172.447C220.3 172.447 201.096 168.202 198.936 144.852C196.776 121.502 211.659 103.341 227.981 102.161C227.981 102.161 243.105 88.2456 249.346 90.8397C255.587 93.4338 254.146 100.982 254.146 100.982C254.146 100.982 263.268 96.0289 268.789 100.511C274.31 104.992 269.27 111.124 269.27 111.124C269.27 111.124 277.431 110.417 280.792 116.077C284.153 121.738 273.351 130.229 273.351 130.229C273.351 130.229 281.032 158.06 262.069 169.617C243.105 181.174 220.3 172.447 220.3 172.447Z" fill="#222859"/>
<path d="M223.043 183.348C223.043 183.348 206.377 186.801 195.568 194.609C184.757 202.416 172.017 235.305 167.643 247.457C160.886 266.224 173.648 278.236 181.155 279.136C188.662 280.037 199.171 266.074 199.171 266.074L197.67 289.495C197.67 289.495 247.816 318.322 291.656 289.195L291.206 268.327C291.206 268.327 306.671 279.137 313.876 275.533C323.972 270.486 327.089 256.166 323.785 244.755C320.483 233.344 297.061 196.41 289.554 191.306C282.046 186.202 257.724 181.397 257.724 181.397L236.105 179.595L223.043 183.348Z" fill="#222859"/>
<path d="M214.934 277.333L216.586 278.835L277.091 225.086L275.439 223.584L214.934 277.333Z" fill="white"/>
<path d="M260.576 277.333H214.934L229.798 223.584H275.439L260.576 277.333Z" fill="white"/>
<path d="M262.304 276.132H216.662L231.525 222.383H277.167L262.304 276.132Z" fill="white"/>
<path d="M262.227 278.835H216.586L231.449 225.086H277.091L262.227 278.835Z" fill="#D5F2F9"/>
<path d="M240.191 215.903L208.125 189.99C208.125 189.99 207.887 188.903 208.589 188.058C209.293 187.214 210.387 187.191 210.387 187.191L242.454 213.103L244.811 217.654L240.191 215.903Z" fill="#697BAE"/>
<path d="M224.694 168.635L223.043 183.348C223.043 183.348 242.26 191.155 257.725 181.396L254.272 168.635H224.694Z" fill="#EBBA9D"/>
<path d="M174.398 248.207C174.398 248.207 195.568 225.085 200.222 219.23C204.876 213.375 207.879 208.42 211.182 204.667C214.484 200.913 223.793 199.712 226.946 199.562C230.099 199.412 235.654 203.466 236.705 204.817C237.755 206.169 237.605 207.219 235.204 207.519C235.204 207.519 237.305 209.621 234.453 211.123C234.453 211.123 235.354 212.774 232.351 213.375C229.348 213.975 227.631 212.962 224.778 214.463C221.926 215.965 197.519 260.368 194.817 264.271C194.817 264.271 176.35 265.172 174.398 248.207Z" fill="#EBBA9D"/>
<path d="M320.896 252.508C315.095 250.266 274.517 245.329 267.516 242.755C262.356 240.858 254.578 233.169 251.949 233.455C247.613 233.925 254.816 241.602 254.816 241.602C254.816 241.602 246.036 236.949 243.041 235.241C240.046 233.533 238.458 236.54 240.37 238.223C242.282 239.906 249.323 244.753 249.323 244.753C249.323 244.753 242.26 240.842 238.393 239.348C234.525 237.853 234.855 242.309 237.211 243.534C237.211 243.534 235.429 245.6 237.34 247.283C237.34 247.283 236.658 250.515 238.753 251.764C240.849 253.014 253.532 259.21 257.872 259.233C270.878 259.302 297.516 272.488 307.388 273.966C320.35 275.907 320.896 252.508 320.896 252.508Z" fill="#EBBA9D"/>
<path d="M254.269 168.635H224.693L223.223 181.735C224.332 182.317 225.539 182.733 226.765 182.972C229.5 183.506 232.324 183.291 235.089 182.951C239.386 182.422 243.647 181.593 247.829 180.472C250.103 179.863 252.705 179.033 254.656 177.552C255.214 177.127 255.748 176.65 256.339 176.281L254.269 168.635Z" fill="#EB977D"/>
<path d="M266.464 142.087C267.296 150.573 268.732 177.568 243.134 180.16C217.536 182.752 213.324 157.154 213.324 157.154C213.324 157.154 206.681 158.288 206.519 151.646C206.357 145.003 212.661 145.125 212.661 145.125C212.661 145.125 224.016 137.875 229.687 126.534C229.687 126.534 232.766 131.07 237.626 131.88C242.486 132.69 243.134 128.153 243.134 128.153C243.134 128.153 246.536 132.528 250.587 132.852C254.638 133.176 254.476 129.45 254.476 129.45C254.476 129.45 265.654 133.824 266.464 142.087Z" fill="#EBBA9D"/>
<path d="M209.697 150.126C209.703 150.131 209.708 150.135 209.714 150.14C209.71 150.136 209.705 150.133 209.701 150.129L209.697 150.126Z" fill="#EB977D"/>
<path d="M213.071 151.576C212.808 150.771 212.335 150.01 211.721 149.428C211.389 149.114 211.012 148.832 210.607 148.619C210.394 148.507 210.165 148.39 209.928 148.341C209.625 148.28 209.23 148.223 208.957 148.411C208.731 148.568 208.565 148.857 208.66 149.14C208.753 149.416 208.95 149.591 209.176 149.755C209.174 149.753 209.171 149.751 209.169 149.75C209.173 149.753 209.176 149.755 209.18 149.757C209.188 149.763 209.194 149.771 209.202 149.777C209.214 149.784 209.216 149.786 209.221 149.79C209.275 149.833 209.327 149.878 209.383 149.917C209.454 149.966 209.529 150.008 209.599 150.056C209.632 150.078 209.664 150.102 209.696 150.125C209.687 150.118 209.678 150.11 209.673 150.104C209.68 150.113 209.691 150.12 209.7 150.128C209.705 150.131 209.71 150.135 209.716 150.139C209.783 150.186 209.749 150.166 209.712 150.138C209.762 150.184 209.818 150.226 209.867 150.27C209.995 150.385 210.114 150.508 210.226 150.639C210.236 150.65 210.259 150.677 210.282 150.706C210.295 150.723 210.314 150.748 210.327 150.767C210.288 150.801 210.247 150.833 210.21 150.87C209.819 151.262 209.605 151.947 209.621 152.497C209.647 153.324 210.104 154.032 210.922 154.257C211.673 154.465 212.488 154.052 212.9 153.427C213.253 152.895 213.263 152.166 213.071 151.576Z" fill="#EB977D"/>
<path d="M254.476 129.45C254.476 129.45 254.638 133.177 250.588 132.853C246.537 132.529 243.135 128.154 243.135 128.154C243.135 128.154 242.487 132.691 237.627 131.881C232.766 131.071 229.688 126.535 229.688 126.535C225.2 135.51 217.156 141.92 213.994 144.205C217.153 142.74 225.527 138.403 230.746 131.476C230.746 131.476 234.349 134.404 237.84 134.517C241.33 134.629 243.245 132.265 243.245 132.265C243.245 132.265 247.861 135.192 251.015 134.967C254.168 134.741 255.857 132.602 255.857 132.602C255.857 132.602 261.011 134.304 265.314 138.324C262.27 132.504 254.476 129.45 254.476 129.45Z" fill="#EB977D"/>
<path d="M242.454 213.103C242.454 213.103 240.105 213.438 240.192 215.902L244.811 217.653L242.454 213.103Z" fill="#EB977D"/>
<path d="M244.812 217.654L243.95 215.987C243.615 216.198 243.272 216.513 243.008 216.969L244.812 217.654Z" fill="#697BAE"/>
<path d="M174.724 247.849C174.518 248.075 174.396 248.208 174.396 248.208C176.349 265.173 194.815 264.273 194.815 264.273C195.358 263.489 196.772 261.162 198.708 257.933C195.11 257.942 191.528 257.714 188.042 256.862C182.695 255.554 177.521 252.553 174.724 247.849Z" fill="#EB977D"/>
<path d="M320.896 252.508C320.588 252.389 320.175 252.261 319.68 252.127C319.051 254.147 318.396 256.162 317.493 258.072C315.562 262.165 312.544 265.677 309.106 268.62C307.243 270.213 305.252 271.64 303.197 272.98C304.796 273.445 306.214 273.791 307.389 273.967C320.351 275.907 320.896 252.508 320.896 252.508Z" fill="#EB977D"/>
<path d="M255.507 241.448C254.45 240.634 253.505 239.645 252.744 238.548C252.313 237.928 251.933 237.271 251.611 236.587C251.292 235.907 251.108 235.168 250.775 234.498C250.655 234.258 250.253 234.371 250.268 234.636C250.304 235.286 250.563 235.941 250.807 236.538C251.052 237.138 251.334 237.722 251.661 238.283C252.325 239.426 253.157 240.492 254.128 241.391C254.361 241.607 254.602 241.815 254.851 242.014C255.088 242.204 255.405 242.543 255.739 242.467C255.915 242.427 256.017 242.314 256.036 242.14C256.072 241.8 255.741 241.628 255.507 241.448Z" fill="#EB977D"/>
<path d="M250.346 244.785C250.102 244.306 249.488 244.064 249.046 243.793C248.519 243.47 247.994 243.141 247.474 242.808C246.433 242.142 245.393 241.47 244.369 240.779C243.391 240.121 242.4 239.475 241.453 238.773C240.994 238.434 240.539 238.042 240.246 237.546C239.915 236.984 239.935 236.472 240.036 235.854C240.085 235.553 239.739 235.413 239.556 235.652C238.902 236.509 239.474 237.794 240.08 238.504C240.892 239.455 242.052 240.178 243.049 240.915C244.174 241.747 245.331 242.544 246.508 243.3C247.11 243.688 247.717 244.067 248.328 244.442C248.833 244.751 249.451 245.291 250.068 245.272C250.32 245.265 250.459 245.005 250.346 244.785Z" fill="#EB977D"/>
<path d="M249.004 247.683C247.72 247.169 246.35 246.814 245.041 246.36C243.692 245.892 242.357 245.388 241.04 244.838C239.815 244.326 238.508 243.846 237.379 243.138C236.825 242.79 236.314 242.348 236.01 241.759C235.66 241.08 235.746 240.459 235.851 239.737C235.869 239.608 235.727 239.497 235.62 239.602C234.788 240.422 235.317 241.927 235.948 242.709C236.248 243.079 236.619 243.382 237.014 243.66C236.281 244.273 236.158 245.549 236.44 246.398C236.567 246.782 236.771 247.094 237.021 247.36C236.879 247.651 236.846 248.048 236.82 248.323C236.77 248.86 236.828 249.409 236.981 249.926C237.308 251.032 238.038 251.945 239.042 252.511C240.308 253.225 241.766 253.667 243.115 254.199C243.837 254.483 244.557 254.774 245.282 255.05C245.909 255.289 246.672 255.754 247.357 255.614C247.502 255.585 247.592 255.379 247.503 255.256C247.147 254.768 246.498 254.624 245.958 254.41C245.356 254.172 244.753 253.94 244.149 253.708C242.866 253.217 241.575 252.743 240.299 252.235C239.21 251.802 238.284 251.19 237.813 250.076C237.615 249.61 237.512 249.103 237.505 248.598C237.502 248.352 237.522 248.107 237.571 247.866C237.574 247.853 237.577 247.842 237.58 247.829C237.942 248.074 238.349 248.27 238.766 248.44C241.537 249.571 244.29 250.748 247.065 251.869C247.257 251.947 247.452 251.812 247.559 251.669C247.608 251.602 247.609 251.527 247.619 251.448C247.644 251.244 247.462 251.093 247.297 251.027C244.971 250.087 242.623 249.199 240.291 248.275C239.338 247.897 238.001 247.557 237.399 246.654C237.146 246.273 237.046 245.809 237.072 245.355C237.103 244.835 237.347 244.486 237.601 244.056C238.23 244.423 238.905 244.726 239.534 245.023C240.993 245.708 242.476 246.343 243.977 246.925C245.518 247.522 247.156 248.183 248.783 248.491C249.318 248.592 249.5 247.883 249.004 247.683Z" fill="#EB977D"/>
<path d="M237.399 206.785C237.467 206.52 237.181 206.305 236.944 206.435C236.471 206.696 236.103 206.993 235.534 207.009C234.875 207.029 234.252 206.732 233.685 206.427C232.482 205.779 231.317 205.065 230.065 204.512C228.92 204.006 227.729 203.636 226.475 203.535C225.386 203.447 223.934 203.499 223.096 204.301C222.993 204.4 223.069 204.601 223.218 204.593C223.872 204.554 224.502 204.344 225.158 204.304C225.869 204.262 226.579 204.317 227.275 204.465C228.709 204.773 230.038 205.425 231.315 206.128C232.448 206.754 233.621 207.622 234.923 207.841C235.028 207.859 235.141 207.871 235.257 207.878C235.261 207.895 235.258 207.913 235.265 207.929C235.487 208.442 235.687 208.91 235.417 209.464C235.163 209.984 234.568 210.28 234.021 210.373C232.697 210.596 231.245 209.91 230.058 209.408C228.91 208.923 227.772 208.418 226.544 208.174C225.67 208 224.195 207.741 223.471 208.411C223.419 208.459 223.446 208.552 223.513 208.569C223.85 208.656 224.19 208.596 224.535 208.589C224.949 208.582 225.357 208.613 225.765 208.686C226.546 208.828 227.3 209.095 228.025 209.411C229.448 210.03 230.855 210.799 232.38 211.137C232.86 211.244 233.372 211.292 233.869 211.254C233.876 213.218 231.499 213.635 229.993 213.601C228.057 213.558 226.015 213.378 224.118 213.88C223.835 213.955 223.896 214.385 224.187 214.388C225.39 214.4 226.587 214.258 227.792 214.279C228.918 214.298 230.058 214.457 231.183 214.352C232.837 214.197 234.759 213.119 234.592 211.203C234.589 211.174 234.578 211.153 234.57 211.127C235.082 210.982 235.553 210.719 235.918 210.279C236.434 209.656 236.609 208.434 235.987 207.838C236.63 207.735 237.235 207.425 237.399 206.785Z" fill="#EB977D"/>
<path d="M236.561 142.417C236.187 142.045 235.708 141.714 235.242 141.465C234.267 140.945 233.133 140.669 232.028 140.683C230.955 140.697 229.909 140.975 228.981 141.513C228.082 142.033 227.051 142.976 227.037 144.077C227.029 144.674 227.597 145.027 228.14 144.917C228.547 144.834 228.853 144.635 229.196 144.414C229.506 144.214 229.837 144.066 230.169 143.909C230.189 143.899 230.206 143.892 230.22 143.886C230.303 143.855 230.385 143.824 230.469 143.796C230.643 143.739 230.82 143.692 230.997 143.648C231.076 143.628 231.155 143.608 231.235 143.592C231.255 143.588 231.351 143.571 231.414 143.56C231.459 143.555 231.514 143.549 231.527 143.548C231.631 143.541 231.736 143.536 231.84 143.534C232.008 143.532 232.174 143.542 232.342 143.552C232.363 143.553 232.372 143.554 232.388 143.554C232.392 143.555 232.392 143.555 232.396 143.556C232.477 143.574 232.561 143.586 232.642 143.604C232.826 143.645 233.008 143.694 233.187 143.753C233.185 143.752 233.277 143.784 233.346 143.808C233.389 143.826 233.462 143.856 233.478 143.864C233.813 144.024 234.124 144.211 234.429 144.419C234.446 144.433 234.467 144.451 234.5 144.478C234.583 144.546 234.673 144.61 234.762 144.674C234.766 144.682 234.769 144.691 234.79 144.718C234.935 144.909 235.209 144.998 235.425 145.081C235.854 145.246 236.365 145.042 236.679 144.749C237.366 144.112 237.17 143.024 236.561 142.417Z" fill="#222859"/>
<path d="M257.13 142.116C256.757 141.745 256.278 141.413 255.811 141.164C254.837 140.644 253.702 140.368 252.597 140.382C251.524 140.396 250.478 140.675 249.549 141.212C248.651 141.731 247.619 142.674 247.606 143.775C247.598 144.372 248.167 144.725 248.708 144.615C249.115 144.533 249.422 144.333 249.764 144.112C250.074 143.913 250.405 143.764 250.738 143.607C250.758 143.597 250.774 143.591 250.789 143.584C250.872 143.553 250.953 143.522 251.038 143.494C251.212 143.437 251.389 143.39 251.567 143.346C251.646 143.327 251.725 143.306 251.805 143.29C251.824 143.286 251.919 143.27 251.983 143.258C252.028 143.253 252.082 143.248 252.096 143.247C252.2 143.239 252.304 143.234 252.409 143.232C252.577 143.23 252.744 143.24 252.911 143.25C252.933 143.252 252.941 143.252 252.958 143.252C252.962 143.253 252.961 143.253 252.965 143.254C253.046 143.273 253.13 143.284 253.211 143.302C253.395 143.343 253.578 143.392 253.756 143.451C253.754 143.45 253.847 143.483 253.915 143.506C253.958 143.524 254.032 143.554 254.047 143.562C254.382 143.722 254.693 143.908 254.998 144.117C255.016 144.131 255.036 144.149 255.069 144.176C255.153 144.244 255.242 144.308 255.331 144.373C255.335 144.38 255.339 144.388 255.359 144.416C255.505 144.608 255.779 144.696 255.994 144.779C256.424 144.945 256.934 144.74 257.249 144.448C257.937 143.812 257.74 142.723 257.13 142.116Z" fill="#222859"/>
<path d="M234.518 150.306C234.196 149.645 233.625 149.1 232.929 148.857C232.103 148.568 231.225 148.856 230.578 149.396C230.019 149.862 229.679 150.577 229.554 151.285C229.445 151.915 229.375 152.583 229.443 153.221C229.567 154.401 230.004 155.994 231.02 156.703C234.458 159.101 235.482 152.287 234.518 150.306Z" fill="#222859"/>
<path d="M254.788 149.556C254.466 148.895 253.895 148.35 253.199 148.107C252.373 147.819 251.495 148.106 250.848 148.646C250.289 149.112 249.948 149.827 249.824 150.535C249.714 151.165 249.645 151.833 249.712 152.471C249.837 153.651 250.273 155.243 251.289 155.953C254.768 158.379 255.751 151.534 254.788 149.556Z" fill="#222859"/>
<path d="M243.712 157.283C243.361 157.287 243.109 157.421 242.805 157.571C242.784 157.581 242.764 157.591 242.742 157.601C242.68 157.628 242.699 157.621 242.802 157.577C242.777 157.602 242.705 157.616 242.672 157.628C242.574 157.664 242.475 157.699 242.376 157.735C242.168 157.812 241.954 157.871 241.736 157.914C241.727 157.916 241.693 157.922 241.662 157.927C241.636 157.931 241.601 157.936 241.591 157.937C241.474 157.949 241.356 157.954 241.239 157.955C241.134 157.956 241.029 157.953 240.924 157.947C240.877 157.944 240.831 157.939 240.784 157.935C240.771 157.934 240.775 157.935 240.765 157.934C240.763 157.933 240.766 157.934 240.763 157.933C240.545 157.888 240.323 157.865 240.105 157.816C239.903 157.77 239.712 157.698 239.515 157.634C239.412 157.601 239.305 157.557 239.2 157.529C239.059 157.492 238.923 157.531 238.784 157.551C238.62 157.575 238.492 157.774 238.496 157.931C238.503 158.257 238.658 158.494 238.885 158.72C239.068 158.902 239.305 159.058 239.527 159.19C240.055 159.503 240.632 159.63 241.239 159.683C241.781 159.73 242.346 159.673 242.873 159.535C243.161 159.459 243.443 159.324 243.703 159.177C244.074 158.965 244.345 158.71 244.483 158.296C244.647 157.802 244.211 157.277 243.712 157.283Z" fill="#EB977D"/>
<path d="M246.882 164.346C246.097 164.223 245.281 164.797 244.585 165.103C243.905 165.403 243.136 165.625 242.392 165.666C241.607 165.71 240.833 165.6 240.078 165.393C239.685 165.285 239.314 165.142 238.933 165.003C238.606 164.884 238.183 164.708 237.838 164.823C237.694 164.871 237.632 164.975 237.613 165.117C237.557 165.53 237.937 165.967 238.215 166.234C238.56 166.564 239.021 166.857 239.451 167.062C240.374 167.504 241.368 167.727 242.392 167.715C243.433 167.702 244.433 167.469 245.368 167.016C245.824 166.795 246.292 166.51 246.62 166.118C246.93 165.748 247.305 165.342 247.245 164.823C247.222 164.625 247.109 164.381 246.882 164.346Z" fill="#EB977D"/>
<path d="M235.323 149.56C235.261 149.335 235.147 149.141 234.983 148.977C234.894 148.907 234.805 148.839 234.716 148.77C234.51 148.651 234.287 148.591 234.049 148.59C233.867 148.583 233.697 148.621 233.54 148.704C233.376 148.757 233.234 148.848 233.115 148.978C232.986 149.097 232.895 149.239 232.841 149.403C232.758 149.56 232.721 149.729 232.727 149.912C232.743 150.028 232.759 150.146 232.775 150.263C232.837 150.487 232.951 150.682 233.115 150.847C233.204 150.915 233.293 150.985 233.382 151.053C233.588 151.173 233.811 151.232 234.049 151.233C234.231 151.24 234.401 151.202 234.558 151.12C234.722 151.067 234.864 150.975 234.983 150.847C235.112 150.727 235.203 150.585 235.256 150.422C235.339 150.264 235.376 150.095 235.37 149.913C235.355 149.794 235.34 149.676 235.323 149.56Z" fill="white"/>
<path d="M255.591 148.809C255.528 148.585 255.415 148.39 255.251 148.226C255.162 148.157 255.072 148.088 254.984 148.019C254.777 147.9 254.555 147.839 254.317 147.838C254.134 147.831 253.965 147.869 253.808 147.952C253.644 148.005 253.502 148.096 253.382 148.225C253.253 148.344 253.163 148.486 253.109 148.65C253.026 148.807 252.988 148.978 252.995 149.159C253.01 149.275 253.027 149.393 253.042 149.511C253.105 149.734 253.219 149.929 253.382 150.094C253.471 150.162 253.561 150.232 253.649 150.3C253.856 150.42 254.078 150.48 254.317 150.48C254.499 150.487 254.668 150.45 254.826 150.367C254.989 150.314 255.131 150.222 255.251 150.094C255.38 149.974 255.47 149.833 255.524 149.669C255.607 149.512 255.645 149.342 255.638 149.16C255.622 149.043 255.606 148.926 255.591 148.809Z" fill="white"/>
<path d="M262.986 182.528C262.284 182.369 261.634 182.224 261.047 182.096C260.683 182.523 260.308 182.943 259.913 183.345C257.554 185.751 254.718 187.685 251.676 189.121C244.794 192.37 236.387 192.967 229.253 190.189C227.383 189.461 225.599 188.479 223.982 187.289C222.655 186.311 221.56 185.1 220.374 183.984C220.002 184.08 219.595 184.187 219.16 184.304C220.775 187.198 224.196 189.38 227.027 190.764C230.868 192.641 235.136 193.468 239.396 193.454C246.966 193.428 254.605 190.687 260.203 185.539C261.21 184.612 262.138 183.601 262.986 182.528Z" fill="#697BAE"/>
<path d="M293.368 240.691C293.029 239.027 292.674 237.366 292.283 235.712C291.503 232.404 290.65 229.114 289.721 225.845C288.792 222.572 287.786 219.323 286.711 216.096C286.413 215.202 286.096 214.315 285.775 213.43C285.808 213.421 285.84 213.423 285.874 213.405C286.249 213.211 286.444 212.753 286.612 212.386C286.779 212.021 286.879 211.819 287.068 211.464C287.252 211.12 287.477 210.788 287.637 210.432C287.718 210.253 287.824 210.066 287.827 209.867C287.831 209.649 287.701 209.393 287.466 209.364C287.254 209.337 287.072 209.396 286.921 209.548C286.78 209.687 286.633 209.856 286.527 210.025C286.338 210.322 286.164 210.629 285.995 210.938C285.817 211.264 285.648 211.597 285.485 211.932C285.438 212.031 285.389 212.142 285.344 212.255C285.282 212.089 285.222 211.922 285.16 211.755C284.591 210.225 284.128 208.635 283.133 207.324C283.052 207.218 282.849 207.283 282.854 207.42C282.909 208.995 283.485 210.453 283.932 211.954C284.416 213.577 284.88 215.206 285.357 216.832C286.29 220.018 287.164 223.222 287.975 226.441C288.788 229.661 289.544 232.898 290.235 236.146C290.572 237.735 290.912 239.325 291.233 240.917C291.543 242.455 291.678 244.193 292.613 245.495C292.904 245.9 293.638 245.733 293.761 245.266C294.157 243.774 293.669 242.164 293.368 240.691Z" fill="#697BAE"/>
<path d="M321.89 253.096C321.555 250.249 318.938 247.943 316.131 247.556C315.68 247.494 315.191 248.038 315.628 248.42C316.566 249.24 317.729 249.733 318.69 250.52C319.971 251.567 320.3 252.814 320.286 254.423C320.258 257.58 319.891 260.802 318.94 263.82C318.068 266.59 316.648 269.214 314.625 271.315C313.696 272.279 312.644 273.113 311.49 273.792C310.835 274.179 310.159 274.505 309.455 274.796C308.943 275.008 308.62 275.039 308.397 275.532C308.338 275.663 308.366 275.788 308.486 275.872C309.405 276.512 311.275 275.364 312.133 274.893C313.402 274.198 314.567 273.3 315.609 272.299C318.02 269.982 319.674 267.044 320.673 263.87C321.733 260.513 322.305 256.611 321.89 253.096Z" fill="#697BAE"/>
<path d="M200.647 261.503C200.706 260.792 200.756 260.073 200.773 259.359C200.792 258.595 200.603 257.94 200.457 257.204C200.448 257.157 200.388 257.169 200.373 257.204C200.089 257.882 199.777 258.47 199.64 259.206C199.504 259.937 199.406 260.684 199.316 261.421C199.238 262.061 199.155 262.701 199.082 263.342C198.099 263.42 197.014 263.838 196.149 263.967C194.605 264.198 193.016 264.254 191.461 264.117C188.308 263.839 185.178 262.776 182.557 260.994C180.159 259.365 178.242 257.066 176.974 254.467C176.345 253.178 175.882 251.789 175.594 250.384C175.286 248.887 175.377 247.419 175.269 245.911C175.229 245.361 174.47 245.23 174.296 245.779C173.404 248.602 174.28 252.143 175.443 254.757C176.754 257.704 178.859 260.272 181.473 262.159C184.238 264.153 187.525 265.267 190.898 265.625C192.656 265.812 194.425 265.807 196.179 265.589C196.976 265.489 198.05 265.403 198.965 265.095C198.993 265.32 199.05 265.53 199.165 265.699C199.338 265.95 199.673 266.015 199.905 265.794C200.292 265.423 200.377 264.739 200.427 264.145C200.432 264.138 200.44 264.133 200.446 264.125C200.542 263.991 200.531 263.837 200.465 263.707C200.467 263.689 200.468 263.665 200.47 263.646C200.544 262.935 200.587 262.218 200.647 261.503Z" fill="#697BAE"/>
<path d="M307.353 300.943C305.786 301.199 304.268 302.209 302.842 303.094C302.506 302.984 302.166 302.88 301.831 302.774C301.386 302.633 300.948 302.508 300.49 302.41C299.989 302.302 299.435 302.177 299.003 302.525C298.912 302.6 298.891 302.744 298.918 302.851C299.043 303.354 299.584 303.584 300.013 303.779C300.331 303.924 300.657 304.041 300.983 304.16C299.313 305.074 297.638 305.974 295.922 306.797C291.985 308.684 287.877 310.224 283.721 311.557C274.887 314.389 265.698 316.124 256.496 317.209C251.324 317.819 246.105 318.083 240.949 318.791C230.5 316.137 220.297 312.454 210.634 307.675C207.139 305.948 203.731 304.068 200.343 302.151C200.454 302.139 200.568 302.138 200.675 302.118C201.112 302.036 201.811 301.771 201.934 301.277C202.096 300.634 201.116 300.423 200.724 300.383C200.251 300.336 199.764 300.361 199.289 300.369C198.811 300.377 198.333 300.362 197.857 300.325C197.635 300.307 197.414 300.303 197.193 300.297C197.152 300.296 197.111 300.294 197.069 300.291C195.785 299.556 194.502 298.82 193.215 298.089C192.746 297.822 192.159 298.509 192.616 298.867C193.74 299.748 194.891 300.596 196.061 301.418C196.103 301.465 196.152 301.506 196.209 301.541C196.223 301.549 196.236 301.558 196.249 301.565C196.324 301.627 196.407 301.675 196.495 301.716C204.935 307.572 214.484 312 224.009 315.66C235.218 319.966 246.944 322.932 258.848 324.5C265.271 325.345 271.644 325.608 278.101 325.691C278.217 329.788 278.244 333.896 278.141 337.991C278.036 342.133 277.599 346.226 277.178 350.341C269.481 350.15 261.946 352.357 254.261 352.573C246.161 352.802 238.003 352.717 229.902 352.565C214.037 352.268 198.051 350.954 182.841 346.159C178.629 344.831 174.465 343.261 170.455 341.406C168.576 340.538 166.718 339.62 164.918 338.596C163.068 337.544 161.34 336.3 159.491 335.25C159.248 335.112 159.023 335.426 159.2 335.628C161.591 338.353 165.038 340.291 168.196 342.001C171.568 343.827 175.094 345.401 178.691 346.727C186.022 349.428 193.635 351.255 201.347 352.457C217.659 355.001 234.27 354.914 250.731 354.585C255.269 354.495 259.705 354.059 264.18 353.31C268.584 352.572 273.006 351.825 277.485 351.968C277.978 352.256 278.76 352.147 278.862 351.48C279.524 347.099 279.799 342.64 280.06 338.219C280.326 333.705 280.343 329.208 280.099 324.694C280.071 324.153 279.66 323.676 279.089 323.683C273.169 323.755 267.143 323.247 261.268 322.559C256.291 321.977 251.346 321.141 246.449 320.082C249.438 319.929 252.429 319.632 255.386 319.326C260.157 318.832 264.917 318.188 269.634 317.316C278.542 315.669 287.227 313.022 295.467 309.255C297.705 308.232 299.925 307.135 302.056 305.902C302.638 305.565 303.221 305.219 303.795 304.857C303.804 304.855 303.814 304.857 303.823 304.855C303.903 304.844 303.976 304.818 304.045 304.777C304.176 304.673 304.209 304.648 304.144 304.703C304.228 304.655 304.279 304.585 304.314 304.507C304.663 304.278 305.017 304.054 305.352 303.809C306.258 303.146 307.23 302.502 307.804 301.521C307.984 301.199 307.677 300.89 307.353 300.943Z" fill="#222859"/>
<path d="M260.886 418.219L303.524 397.799L261.598 362.931L217.346 379.033L260.886 418.219Z" fill="#FF8F3D"/>
<path d="M246.753 419.044L289.392 398.626L247.466 363.757L203.213 379.859L246.753 419.044Z" fill="#FF8F3D"/>
<path d="M248.423 418.895L291.062 398.475L249.136 363.606L204.883 379.708L248.423 418.895Z" fill="white"/>
<path d="M260.996 417.036L303.636 396.618L261.709 361.748L217.457 377.85L260.996 417.036Z" fill="white"/>
<path d="M260.809 409.166C260.678 409.166 260.553 409.093 260.493 408.966C260.41 408.791 260.484 408.583 260.66 408.501L289.261 394.989C289.436 394.907 289.643 394.981 289.725 395.155C289.808 395.33 289.734 395.538 289.558 395.62L260.958 409.131C260.91 409.155 260.859 409.166 260.809 409.166Z" fill="#9DC9DD"/>
<path d="M254.28 403.535C254.147 403.535 254.019 403.459 253.961 403.329C253.881 403.154 253.96 402.947 254.136 402.867L287.241 388.003C287.415 387.925 287.623 388.001 287.702 388.179C287.782 388.354 287.703 388.561 287.527 388.641L254.422 403.504C254.376 403.526 254.328 403.535 254.28 403.535Z" fill="#9DC9DD"/>
<path d="M248.649 398.581C248.516 398.581 248.388 398.505 248.33 398.375C248.251 398.2 248.329 397.993 248.505 397.913L281.61 383.049C281.783 382.971 281.992 383.047 282.072 383.225C282.151 383.4 282.073 383.607 281.896 383.687L248.791 398.55C248.745 398.571 248.697 398.581 248.649 398.581Z" fill="#9DC9DD"/>
<path d="M243.018 393.626C242.885 393.626 242.757 393.55 242.699 393.42C242.62 393.245 242.699 393.037 242.874 392.958L275.98 378.094C276.153 378.015 276.362 378.092 276.442 378.27C276.521 378.445 276.443 378.653 276.266 378.732L243.162 393.595C243.115 393.617 243.066 393.626 243.018 393.626Z" fill="#9DC9DD"/>
<path d="M237.387 388.672C237.254 388.672 237.127 388.596 237.068 388.466C236.989 388.291 237.068 388.083 237.243 388.004L270.349 373.14C270.522 373.062 270.732 373.138 270.811 373.316C270.89 373.491 270.812 373.699 270.635 373.778L237.531 388.642C237.483 388.662 237.435 388.672 237.387 388.672Z" fill="#9DC9DD"/>
<path d="M252.251 374.259C252.115 374.259 251.986 374.18 251.93 374.047C251.855 373.869 251.937 373.664 252.114 373.588L264.725 368.183C264.901 368.108 265.109 368.188 265.184 368.367C265.259 368.544 265.178 368.748 265 368.826L252.388 374.231C252.344 374.25 252.298 374.259 252.251 374.259Z" fill="#9DC9DD"/>
<path d="M257.978 414.319L217.458 377.85L251.409 365.497L214.811 377.456L257.978 414.319Z" fill="#D5F2F9"/>
<path d="M353.694 383.875L328.836 362.755L372.019 345.504L398.755 364.303L353.694 383.875Z" fill="#FF8F3D"/>
<path d="M353.749 382.805L328.893 361.686L372.075 344.435L398.811 363.233L353.749 382.805Z" fill="white"/>
<path d="M340.239 361.46C340.198 361.373 340.209 361.265 340.275 361.187C340.367 361.077 340.53 361.062 340.64 361.155L358.557 376.192C358.665 376.285 358.681 376.447 358.588 376.557C358.497 376.667 358.333 376.681 358.224 376.589L340.307 361.551C340.278 361.525 340.255 361.493 340.239 361.46Z" fill="#9DC9DD"/>
<path d="M345.703 358.751C345.663 358.663 345.674 358.555 345.74 358.477C345.832 358.367 345.995 358.353 346.105 358.445L364.021 373.483C364.13 373.575 364.146 373.737 364.053 373.847C363.962 373.957 363.799 373.971 363.69 373.879L345.773 358.841C345.742 358.815 345.719 358.784 345.703 358.751Z" fill="#9DC9DD"/>
<path d="M351.5 356.453C351.46 356.365 351.47 356.257 351.537 356.179C351.629 356.069 351.791 356.054 351.901 356.147L369.818 371.184C369.927 371.277 369.943 371.439 369.85 371.549C369.759 371.659 369.595 371.673 369.486 371.581L351.569 356.543C351.539 356.517 351.516 356.486 351.5 356.453Z" fill="#9DC9DD"/>
<path d="M357.705 354.092C357.665 354.004 357.676 353.896 357.742 353.818C357.834 353.708 357.997 353.694 358.105 353.786L376.022 368.824C376.131 368.916 376.147 369.078 376.054 369.188C375.963 369.298 375.8 369.312 375.69 369.22L357.773 354.182C357.744 354.156 357.721 354.125 357.705 354.092Z" fill="#9DC9DD"/>
<path d="M362.616 352.053C362.575 351.965 362.586 351.858 362.652 351.779C362.744 351.669 362.907 351.655 363.017 351.747L380.933 366.785C381.042 366.877 381.058 367.039 380.965 367.149C380.874 367.259 380.711 367.273 380.601 367.181L362.684 352.143C362.654 352.117 362.631 352.087 362.616 352.053Z" fill="#9DC9DD"/>
<path d="M366.922 349.668C366.882 349.58 366.892 349.472 366.959 349.394C367.05 349.284 367.213 349.27 367.323 349.362L385.24 364.4C385.349 364.492 385.364 364.654 385.272 364.764C385.18 364.874 385.017 364.888 384.908 364.796L366.991 349.758C366.961 349.732 366.938 349.701 366.922 349.668Z" fill="#9DC9DD"/>
<path d="M140.135 394.908L163.56 376.226L124.404 359.156L99.3203 375.653L140.135 394.908Z" fill="#FF8F3D"/>
<path d="M139.797 393.67L163.222 374.988L124.067 357.917L98.9824 374.414L139.797 393.67Z" fill="white"/>
<path d="M152.811 374.457C152.85 374.377 152.843 374.279 152.785 374.205C152.704 374.101 152.554 374.083 152.451 374.165L135.571 387.461C135.468 387.543 135.45 387.691 135.532 387.794C135.613 387.897 135.762 387.916 135.865 387.834L152.745 374.538C152.773 374.515 152.795 374.487 152.811 374.457Z" fill="#9DC9DD"/>
<path d="M147.873 371.813C147.913 371.733 147.906 371.635 147.847 371.56C147.766 371.457 147.617 371.44 147.513 371.521L130.634 384.816C130.531 384.898 130.512 385.047 130.594 385.15C130.675 385.253 130.825 385.271 130.928 385.189L147.807 371.894C147.835 371.872 147.858 371.844 147.873 371.813Z" fill="#9DC9DD"/>
<path d="M142.615 369.538C142.655 369.458 142.648 369.36 142.589 369.285C142.508 369.182 142.359 369.164 142.256 369.246L125.376 382.541C125.273 382.623 125.255 382.772 125.336 382.875C125.417 382.978 125.567 382.996 125.67 382.914L142.55 369.619C142.579 369.596 142.601 369.569 142.615 369.538Z" fill="#9DC9DD"/>
<path d="M136.984 367.193C137.024 367.113 137.017 367.015 136.958 366.941C136.877 366.838 136.728 366.819 136.625 366.901L119.745 380.197C119.642 380.279 119.624 380.427 119.706 380.53C119.787 380.633 119.936 380.652 120.039 380.57L136.919 367.274C136.948 367.251 136.97 367.224 136.984 367.193Z" fill="#9DC9DD"/>
<path d="M132.535 365.182C132.575 365.102 132.568 365.003 132.509 364.929C132.428 364.826 132.279 364.808 132.176 364.889L115.296 378.185C115.193 378.267 115.174 378.415 115.256 378.518C115.337 378.622 115.487 378.639 115.59 378.558L132.47 365.263C132.498 365.239 132.52 365.212 132.535 365.182Z" fill="#9DC9DD"/>
<path d="M128.65 362.868C128.69 362.788 128.683 362.69 128.624 362.615C128.543 362.512 128.394 362.494 128.291 362.576L111.411 375.871C111.308 375.953 111.29 376.102 111.372 376.205C111.453 376.308 111.602 376.326 111.705 376.244L128.585 362.949C128.613 362.927 128.635 362.899 128.65 362.868Z" fill="#9DC9DD"/>
<path d="M94.1851 324.672C107.78 324.672 118.802 321.436 118.802 317.443C118.802 313.451 107.78 310.214 94.1851 310.214C80.5896 310.214 69.5684 313.451 69.5684 317.443C69.5684 321.436 80.5896 324.672 94.1851 324.672Z" fill="#74A7CB"/>
<path d="M118.862 155.65C115.42 155.106 112.456 157.988 110.199 160.177C107.639 162.662 105.419 165.473 103.444 168.439C99.3217 174.629 96.2687 181.537 93.7517 188.514C91.0602 195.978 89.0763 203.694 87.8481 211.533C86.3482 221.108 85.9481 230.853 86.6807 240.517C87.0847 245.857 87.6891 251.268 88.8816 256.492C90.4452 263.34 94.3542 266.198 97.5296 258.089C99.0865 254.113 100.519 250.089 101.881 246.042C104.667 237.766 107.05 229.369 109.465 220.979C111.922 212.443 114.379 203.905 116.837 195.368C119.24 187.017 122.183 178.608 123.74 170.048C124.564 165.515 125.234 156.659 118.862 155.65Z" fill="#4D867E"/>
<path d="M110.732 173.314C106.833 179.45 104.133 186.253 101.823 193.122C99.4789 200.096 97.6376 207.223 96.236 214.445C93.4221 228.94 92.1804 243.719 91.9009 258.472C91.8238 262.547 91.8112 266.625 91.8479 270.701C91.8845 274.788 91.7341 278.974 92.3087 283.027C92.4002 283.671 93.3064 283.434 93.3633 282.884C93.7373 279.25 93.5175 275.544 93.5474 271.892C93.5782 268.214 93.6476 264.535 93.7672 260.858C94.0034 253.599 94.4227 246.349 95.0937 239.117C96.4288 224.719 98.9419 210.379 103.261 196.561C105.686 188.799 108.907 181.355 111.906 173.809C112.183 173.108 111.105 172.726 110.732 173.314Z" fill="#83BAA8"/>
<path d="M41.0266 188.265C43.6757 187.067 46.6969 188.732 48.996 189.997C51.6046 191.43 54.0117 193.203 56.2559 195.153C60.939 199.224 64.9203 204.108 68.4852 209.168C72.2988 214.58 75.5976 220.35 78.3161 226.387C81.6371 233.76 84.1088 241.513 85.6531 249.451C86.5062 253.836 87.2148 258.323 87.4085 262.79C87.6621 268.646 85.147 271.809 80.8022 265.984C78.6718 263.129 76.631 260.206 74.6423 257.251C70.5742 251.207 66.803 244.977 63.0078 238.759C59.1469 232.432 55.2852 226.105 51.4234 219.779C47.6464 213.59 43.4222 207.472 40.2795 200.928C38.6157 197.462 36.1218 190.483 41.0266 188.265Z" fill="#4D867E"/>
<path d="M51.4686 200.684C55.9599 204.76 59.6346 209.639 63.0086 214.656C66.4337 219.75 69.4887 225.08 72.211 230.58C77.6749 241.623 81.9358 253.241 85.4168 265.049C86.3789 268.312 87.2889 271.59 88.1594 274.878C89.0318 278.175 90.0778 281.51 90.5087 284.898C90.5771 285.437 89.7953 285.446 89.6285 285.015C88.5257 282.173 87.8847 279.144 87.0547 276.211C86.2179 273.258 85.3503 270.313 84.4422 267.382C82.6502 261.593 80.7125 255.851 78.5763 250.18C74.3241 238.889 69.1368 227.905 62.6115 217.74C58.9473 212.03 54.7125 206.751 50.6338 201.341C50.2549 200.839 51.0377 200.293 51.4686 200.684Z" fill="#83BAA8"/>
<path d="M143.124 190.66C140.548 189.615 137.726 191.319 135.576 192.612C133.138 194.079 130.905 195.863 128.835 197.81C124.514 201.874 120.894 206.689 117.678 211.656C114.239 216.969 111.304 222.605 108.933 228.473C106.037 235.64 103.967 243.139 102.79 250.78C102.139 255.001 101.631 259.314 101.613 263.589C101.591 269.191 104.112 272.119 108.043 266.392C109.971 263.585 111.812 260.716 113.601 257.819C117.261 251.892 120.629 245.8 124.021 239.718C127.472 233.529 130.923 227.341 134.375 221.152C137.751 215.098 141.557 209.097 144.313 202.727C145.772 199.354 147.893 192.595 143.124 190.66Z" fill="#4D867E"/>
<path d="M133.617 202.914C129.48 206.977 126.152 211.775 123.117 216.694C120.036 221.688 117.317 226.894 114.924 232.25C110.118 243.004 106.484 254.261 103.602 265.672C102.805 268.825 102.059 271.99 101.351 275.163C100.641 278.345 99.7668 281.57 99.4824 284.823C99.4371 285.34 100.184 285.32 100.328 284.902C101.275 282.146 101.774 279.227 102.456 276.396C103.145 273.544 103.863 270.699 104.621 267.864C106.116 262.267 107.752 256.71 109.579 251.213C113.218 240.267 117.761 229.58 123.613 219.625C126.9 214.034 130.747 208.832 134.44 203.511C134.782 203.016 134.013 202.525 133.617 202.914Z" fill="#83BAA8"/>
<path d="M110.749 317.993H77.1143C75.6451 317.993 74.4199 316.87 74.2917 315.406L70.8781 276.397C70.7335 274.741 72.0388 273.317 73.7007 273.317H114.163C115.825 273.317 117.13 274.742 116.985 276.397L113.572 315.406C113.444 316.87 112.218 317.993 110.749 317.993Z" fill="#ED6C6B"/>
<path d="M71.9668 288.855L72.1336 290.759C75.1866 290.76 78.2386 290.757 81.2916 290.754C91.3471 290.745 101.401 290.712 111.456 290.654C112.883 290.646 114.31 290.649 115.737 290.65L115.885 288.963C101.245 288.924 86.6061 288.809 71.9668 288.855Z" fill="#FFCE5E"/>
<path d="M86.2655 284.346C95.6953 284.413 105.124 284.442 114.554 284.46C115.129 284.461 115.704 284.461 116.279 284.462L116.54 281.476C102.384 281.504 88.2272 281.562 74.0718 281.662C73.1618 281.668 72.2508 281.675 71.3398 281.682L71.5712 284.32C76.4741 284.367 81.3818 284.313 86.2655 284.346Z" fill="#FFCE5E"/>
<path d="M322.069 154.864C341.118 154.864 356.56 143.679 356.56 129.882C356.56 116.085 341.118 104.9 322.069 104.9C303.02 104.9 287.578 116.085 287.578 129.882C287.578 143.679 303.02 154.864 322.069 154.864Z" fill="white"/>
<path d="M291.865 137.592L287.212 146.487C286.609 147.641 287.66 148.963 288.92 148.635L299.735 145.826L291.865 137.592Z" fill="white"/>
<path d="M302.07 138.87C303.963 138.87 305.499 137.335 305.499 135.441C305.499 133.547 303.963 132.012 302.07 132.012C300.176 132.012 298.641 133.547 298.641 135.441C298.641 137.335 300.176 138.87 302.07 138.87Z" fill="#74A7CB"/>
<path d="M321.835 138.87C323.729 138.87 325.264 137.335 325.264 135.441C325.264 133.547 323.729 132.012 321.835 132.012C319.941 132.012 318.406 133.547 318.406 135.441C318.406 137.335 319.941 138.87 321.835 138.87Z" fill="#74A7CB"/>
<path d="M341.599 138.87C343.493 138.87 345.028 137.335 345.028 135.441C345.028 133.547 343.493 132.012 341.599 132.012C339.705 132.012 338.17 133.547 338.17 135.441C338.17 137.335 339.705 138.87 341.599 138.87Z" fill="#74A7CB"/>
<path d="M397.251 322.45C413.007 322.45 425.78 318.737 425.78 314.156C425.78 309.575 413.007 305.862 397.251 305.862C381.495 305.862 368.723 309.575 368.723 314.156C368.723 318.737 381.495 322.45 397.251 322.45Z" fill="#74A7CB"/>
<path d="M358.337 201.862C360.47 194.32 356.085 186.478 348.543 184.345C341.002 182.213 333.16 186.598 331.027 194.139C328.895 201.681 333.28 209.523 340.821 211.656C348.363 213.788 356.205 209.403 358.337 201.862Z" fill="white"/>
<path d="M375.174 163.114L325.223 173.582L355.258 225.203L387.39 180.965L395.249 178.384L381.621 154.811L375.174 163.114Z" fill="#ED6C6B"/>
<path d="M423.064 312.778C423.064 310.645 421.5 307.25 420.649 306.252L374.112 306.31C372.814 308.731 371.734 311.025 371.734 312.778H371.762C371.747 312.873 371.734 312.969 371.734 313.066C371.734 316.797 383.225 319.821 397.399 319.821C411.574 319.821 423.064 316.796 423.064 313.066C423.064 312.969 423.051 312.873 423.036 312.778H423.064Z" fill="#FF8F3D"/>
<path d="M397.398 314.117C410.416 314.117 420.97 311.092 420.97 307.361C420.97 303.629 410.416 300.604 397.398 300.604C384.38 300.604 373.826 303.629 373.826 307.361C373.826 311.092 384.38 314.117 397.398 314.117Z" fill="#FFCE5E"/>
<path d="M397.248 308.847C402.072 308.847 405.981 307.711 405.981 306.31C405.981 304.909 402.072 303.773 397.248 303.773C392.425 303.773 388.516 304.909 388.516 306.31C388.516 307.711 392.425 308.847 397.248 308.847Z" fill="#FF8F3D"/>
<path d="M397.401 306.838C397.313 306.838 397.226 306.833 397.138 306.824C395.858 306.68 394.939 305.526 395.082 304.248L405.202 214.367L372.897 162.204C372.218 161.11 372.557 159.674 373.651 158.997C374.747 158.321 376.181 158.658 376.859 159.751L409.589 212.6C409.864 213.044 409.982 213.568 409.923 214.087L399.713 304.769C399.579 305.959 398.571 306.838 397.401 306.838Z" fill="#222859"/>
<path d="M407.158 218.33C409.645 218.33 411.662 216.313 411.662 213.826C411.662 211.338 409.645 209.322 407.158 209.322C404.671 209.322 402.654 211.338 402.654 213.826C402.654 216.313 404.671 218.33 407.158 218.33Z" fill="#FFCE5E"/>
<path d="M409.414 213.826C409.414 215.071 408.404 216.082 407.158 216.082C405.913 216.082 404.902 215.071 404.902 213.826C404.902 212.58 405.913 211.57 407.158 211.57C408.404 211.57 409.414 212.579 409.414 213.826Z" fill="#FF8F3D"/>
<path d="M361.746 216.27C359.91 213.169 358.064 210.075 356.251 206.961C350.405 196.924 344.63 186.843 338.96 176.706C337.955 174.91 336.926 173.129 335.905 171.343L333.309 171.888C333.955 173.168 334.61 174.444 335.284 175.711C338.085 180.973 340.918 186.218 343.781 191.447C348.902 200.796 354.201 210.05 359.577 219.256L361.746 216.27Z" fill="#FFCE5E"/>
<path d="M326.355 188.157C326.116 187.037 324.826 186.642 323.84 186.519C323.641 186.493 323.442 186.474 323.244 186.45C323.145 186.438 323.045 186.425 322.946 186.412C323.023 186.423 323.101 186.434 323.178 186.443C322.813 186.419 322.441 186.333 322.08 186.27C321.604 186.186 321.126 186.128 320.647 186.07C320.514 186.054 319.956 186.038 320.526 186.057C320.356 186.051 320.177 186.006 320.008 185.98C319.016 185.823 317.85 185.501 316.945 186.121C316.177 186.648 315.89 187.567 316.344 188.416C316.868 189.395 318.002 189.683 319.003 189.901C319.887 190.093 320.778 190.26 321.682 190.316C322.473 190.364 323.31 190.444 324.096 190.339C324.687 190.26 325.365 190.119 325.802 189.69C326.227 189.273 326.484 188.76 326.355 188.157Z" fill="white"/>
<path d="M325.574 200.59C325.448 200.132 325.036 199.644 324.545 199.561C324.219 199.505 323.894 199.427 323.562 199.448C323.201 199.471 322.844 199.503 322.487 199.571C322.014 199.661 321.542 199.742 321.067 199.821C320.597 199.899 320.131 200.011 319.661 200.088C318.93 200.208 318.131 200.586 317.731 201.213C317.361 201.792 317.529 202.548 317.965 203.029C318.261 203.356 318.655 203.516 319.079 203.58C319.434 203.634 319.788 203.713 320.147 203.679C320.768 203.621 321.403 203.566 322.012 203.44C322.479 203.343 322.942 203.207 323.398 203.071C324.087 202.867 324.681 202.519 325.195 202.025C325.572 201.662 325.712 201.089 325.574 200.59Z" fill="white"/>
<path d="M329.451 210.885C329.14 210.573 328.727 210.497 328.308 210.582C328.103 210.623 327.892 210.651 327.689 210.701C327.374 210.778 327.083 210.972 326.797 211.124C326.393 211.338 325.971 211.52 325.571 211.74C325.168 211.96 324.766 212.179 324.354 212.382C323.593 212.757 322.815 213.199 322.634 214.121C322.544 214.576 322.552 215.09 322.814 215.496C322.906 215.617 323 215.737 323.093 215.858C323.315 216.08 323.577 216.232 323.88 216.317C324.732 216.673 325.645 216.182 326.341 215.696C326.835 215.352 327.318 214.989 327.788 214.613C328.138 214.333 328.449 213.99 328.759 213.666C328.99 213.424 329.255 213.175 329.405 212.874C329.539 212.604 329.644 212.309 329.754 212.028C329.901 211.648 329.724 211.157 329.451 210.885Z" fill="white"/>
<path d="M340.915 217.249C340.569 216.89 340.091 216.906 339.672 217.088C339.031 217.367 338.603 218.262 338.362 218.877C338.146 219.43 337.974 219.983 337.829 220.558C337.518 221.795 337.075 223.078 337.116 224.367C337.14 225.12 337.647 225.902 338.418 226.078C339.135 226.241 340.088 225.989 340.423 225.263C340.722 224.611 340.921 223.975 341.031 223.269C341.125 222.663 341.221 222.055 341.315 221.449C341.423 220.758 341.517 220.073 341.53 219.373C341.542 218.703 341.399 217.75 340.915 217.249Z" fill="white"/>
<path d="M187.121 156.991L188.566 161.427C188.624 161.606 188.764 161.747 188.943 161.805L193.379 163.249C193.922 163.425 193.922 164.193 193.379 164.37L188.943 165.816C188.764 165.875 188.623 166.014 188.566 166.194L187.121 170.629C186.944 171.172 186.177 171.172 186 170.629L184.556 166.194C184.497 166.014 184.358 165.874 184.178 165.816L179.743 164.372C179.2 164.195 179.2 163.427 179.743 163.251L184.178 161.806C184.358 161.748 184.498 161.608 184.556 161.429L186 156.993C186.176 156.449 186.944 156.449 187.121 156.991Z" fill="white"/>
<path d="M376.295 247.524L377.739 251.96C377.798 252.139 377.938 252.28 378.117 252.338L382.553 253.782C383.095 253.958 383.095 254.726 382.553 254.903L378.117 256.347C377.938 256.406 377.797 256.545 377.739 256.725L376.295 261.16C376.119 261.703 375.351 261.703 375.174 261.16L373.73 256.725C373.672 256.545 373.531 256.405 373.352 256.347L368.917 254.903C368.374 254.726 368.374 253.958 368.917 253.782L373.352 252.338C373.531 252.279 373.672 252.139 373.73 251.96L375.174 247.524C375.351 246.982 376.119 246.982 376.295 247.524Z" fill="white"/>
<path d="M277.203 71.1133L278.648 75.5487C278.705 75.728 278.846 75.8688 279.025 75.9266L283.461 77.3707C284.004 77.5471 284.004 78.3154 283.461 78.4928L279.025 79.9368C278.846 79.9956 278.705 80.1354 278.648 80.3147L277.203 84.7501C277.027 85.2928 276.259 85.2928 276.082 84.7501L274.638 80.3147C274.58 80.1354 274.44 79.9947 274.26 79.9368L269.825 78.4928C269.282 78.3164 269.282 77.5481 269.825 77.3707L274.26 75.9266C274.44 75.8678 274.58 75.728 274.638 75.5487L276.082 71.1133C276.259 70.5706 277.027 70.5706 277.203 71.1133Z" fill="white"/>
<path d="M172.905 145.446L173.734 147.991C173.768 148.095 173.848 148.175 173.951 148.208L176.496 149.037C176.807 149.139 176.807 149.579 176.496 149.681L173.951 150.51C173.848 150.544 173.768 150.624 173.734 150.727L172.905 153.272C172.804 153.584 172.363 153.584 172.262 153.272L171.433 150.727C171.399 150.624 171.319 150.544 171.216 150.51L168.671 149.681C168.36 149.58 168.36 149.139 168.671 149.037L171.216 148.208C171.319 148.175 171.399 148.095 171.433 147.991L172.262 145.446C172.363 145.135 172.804 145.135 172.905 145.446Z" fill="white"/>
<path d="M398.241 146.269L399.07 148.814C399.104 148.917 399.184 148.997 399.287 149.031L401.832 149.86C402.143 149.961 402.143 150.401 401.832 150.504L399.287 151.333C399.184 151.366 399.104 151.446 399.07 151.549L398.241 154.094C398.14 154.406 397.699 154.406 397.598 154.094L396.769 151.549C396.735 151.446 396.655 151.366 396.552 151.333L394.007 150.504C393.696 150.402 393.696 149.962 394.007 149.86L396.552 149.031C396.655 148.997 396.735 148.917 396.769 148.814L397.598 146.269C397.699 145.957 398.14 145.957 398.241 146.269Z" fill="white"/>
<path d="M54.9801 253.211L55.8091 255.756C55.8429 255.859 55.9229 255.939 56.026 255.973L58.571 256.802C58.8824 256.903 58.8824 257.344 58.571 257.446L56.026 258.275C55.9229 258.309 55.8429 258.389 55.8091 258.492L54.9801 261.037C54.8789 261.348 54.4383 261.348 54.3362 261.037L53.5071 258.492C53.4734 258.389 53.3934 258.309 53.2902 258.275L50.7452 257.446C50.4339 257.345 50.4339 256.904 50.7452 256.802L53.2902 255.973C53.3934 255.939 53.4734 255.859 53.5071 255.756L54.3362 253.211C54.4383 252.9 54.8789 252.9 54.9801 253.211Z" fill="white"/>
<path d="M301.464 171.528L302.294 174.073C302.327 174.177 302.407 174.257 302.51 174.29L305.055 175.119C305.367 175.221 305.367 175.661 305.055 175.763L302.51 176.592C302.407 176.626 302.327 176.706 302.294 176.809L301.464 179.354C301.363 179.666 300.923 179.666 300.821 179.354L299.992 176.809C299.958 176.706 299.878 176.626 299.775 176.592L297.23 175.763C296.918 175.662 296.918 175.222 297.23 175.119L299.775 174.29C299.878 174.257 299.958 174.177 299.992 174.073L300.821 171.528C300.922 171.217 301.362 171.217 301.464 171.528Z" fill="white"/>
</g>
<defs>
<clipPath id="clip0_1045_1978">
<rect width="482" height="482" fill="white"/>
</clipPath>
</defs>
</svg>
