<svg width="375" height="375" viewBox="0 0 375 375" fill="none" xmlns="http://www.w3.org/2000/svg">
<g clip-path="url(#clip0_1045_1724)">
<path d="M375.002 0.00320435H0.00195312V375.003H375.002V0.00320435Z" fill="#E7DDCE"/>
<path opacity="0.1" d="M250.217 325.751C257.025 325.751 270.496 322.517 270.496 319.643C270.496 316.768 248.624 316.289 245.292 318.565C241.961 320.84 226.752 317.128 221.102 320.362C215.453 323.596 239.208 325.751 250.217 325.751Z" fill="#1F142A"/>
<path opacity="0.1" d="M351.689 311.476C356.572 310.502 365.602 305.405 365.04 302.586C364.478 299.767 348.697 302.423 346.752 305.132C344.807 307.84 333.172 306.372 329.753 310.351C326.333 314.33 343.793 313.049 351.689 311.476Z" fill="#1F142A"/>
<path d="M296.66 56.4352C296.66 56.4352 274.642 55.2847 276.91 79.332C278.117 92.1255 280.752 108.804 278.928 125.103C277.105 141.402 274.826 153.826 300.837 147.587C326.848 141.347 344.481 130.669 341.834 120.882C339.186 111.094 326.197 84.942 320.988 82.0012C315.78 79.0605 329.626 82.2945 333.554 90.2482C337.482 98.202 338.589 85.3545 325.275 78.6915C311.96 72.0285 315.606 48.9697 296.66 56.4352Z" fill="#34404C"/>
<path d="M294.66 101.095C289.459 101.467 280.915 102.21 277.572 114.469C274.228 126.729 273.3 137.873 273.3 137.873L262.898 131.372C262.898 131.372 256.768 131.743 256.582 141.774C256.582 141.774 266.055 152.362 275.714 152.733C285.372 153.104 289.644 137.502 290.759 122.456C291.874 107.411 294.66 101.095 294.66 101.095Z" fill="#E5C645"/>
<path d="M286.287 158.666C286.497 138.923 289.83 111.405 299.025 98.7742C299.025 98.7742 292.033 98.8807 290.251 99.975C287.889 101.425 285.054 104.232 284.631 109.454C283.887 118.618 283.145 131.743 278.934 138.678C274.724 145.612 272 172.36 271.752 175.332C271.505 178.304 270.762 186.477 270.762 186.477C270.762 186.477 277.696 183.505 286.612 183.505C286.612 183.505 286.137 172.828 286.287 158.666Z" fill="#F9DB55"/>
<path d="M321.78 84.0689C329.202 82.1039 338.125 85.1834 338.249 94.2232C338.373 103.263 330.447 107.721 326.361 108.835C322.275 109.95 319.303 94.5952 301.224 106.854C301.224 106.854 300.729 89.6414 321.78 84.0689Z" fill="#E5C645"/>
<path d="M308.225 101.11C314.3 97.4632 310.607 95.8185 322.337 91.6222C325.865 90.36 323.996 86.5447 319.097 88.9297" stroke="#7A251E" stroke-miterlimit="10" stroke-linecap="round" stroke-linejoin="round"/>
<path d="M353.976 279.844C353.07 279.029 351.365 278.948 349.014 279.979C349.597 280.454 350.122 280.784 350.509 280.835C352.367 281.083 346.092 287.877 341.841 287.026C341.801 287.018 341.743 286.98 341.673 286.921C340.151 290.483 336.587 297.976 332.678 301.885C327.972 306.591 328.839 312.287 336.145 309.811C343.451 307.334 360.416 290.617 360.292 288.388C360.167 286.16 355.214 280.959 353.976 279.844Z" fill="white"/>
<path d="M350.509 280.835C350.122 280.783 349.597 280.454 349.014 279.979C346.799 278.175 343.699 274.149 343.699 274.149L337.012 280.464C337.012 280.464 340.685 286.082 341.673 286.921C341.743 286.981 341.8 287.019 341.841 287.027C346.092 287.877 352.366 281.083 350.509 280.835Z" fill="#B56C55"/>
<path d="M334.287 306.468C334.287 306.468 346.547 303.001 356.7 286.903" stroke="#1F142A" stroke-miterlimit="10" stroke-linecap="round" stroke-linejoin="round"/>
<path d="M276.457 179.666C276.457 179.666 278.129 183.753 278.315 185.61C278.501 187.468 278.686 216.258 293.175 238.362C307.663 260.466 334.41 286.284 334.41 286.284C334.41 286.284 344.069 283.684 346.113 272.539C346.113 272.539 314.35 232.417 310.078 223.873C305.806 215.329 303.02 180.223 303.02 180.223L276.457 179.666Z" fill="#C1CCD3"/>
<path d="M270.328 308.944C270.32 307.726 269.231 306.411 266.885 305.368C266.927 306.119 267.037 306.73 267.26 307.05C268.328 308.59 259.08 308.531 256.844 304.816C256.822 304.781 256.811 304.712 256.808 304.621C253.151 305.897 245.211 308.312 239.689 308.058C233.042 307.751 229.416 312.23 236.169 315.96C242.922 319.69 266.705 320.962 268.268 319.368C269.833 317.775 270.339 310.61 270.328 308.944Z" fill="white"/>
<path d="M267.26 307.05C267.037 306.729 266.927 306.119 266.885 305.368C266.726 302.516 267.612 297.512 267.612 297.512L258.44 296.827C258.44 296.827 256.764 303.327 256.81 304.622C256.813 304.714 256.823 304.782 256.845 304.817C259.081 308.531 268.329 308.59 267.26 307.05Z" fill="#B56C55"/>
<path d="M237.389 312.334C237.389 312.334 248.211 319.057 266.948 315.713" stroke="#1F142A" stroke-miterlimit="10" stroke-linecap="round" stroke-linejoin="round"/>
<path d="M286.488 190.996C286.488 190.996 270.7 225.545 266.613 237.247C262.526 248.949 253.982 299.471 253.982 299.471C253.982 299.471 259.184 304.3 270.885 303.001C270.885 303.001 284.63 243.934 286.673 241.519C288.716 239.104 317.135 202.512 319.922 192.296C322.708 182.08 319.922 179.294 319.922 179.294L289.46 180.037L286.488 190.996Z" fill="#CDDBE6"/>
<path d="M319.086 101.095C325.401 106.668 319.922 179.294 319.922 179.294C290.574 184.495 276.457 179.665 276.457 179.665C276.457 179.665 279.677 142.393 285.621 127.78C291.564 113.168 287.973 104.067 297.818 100.073C297.818 100.073 312.77 95.523 319.086 101.095Z" fill="white"/>
<path d="M263.178 106.668C263.178 106.668 267.821 103.138 269.121 103.138" stroke="black" stroke-miterlimit="10" stroke-linecap="round" stroke-linejoin="round"/>
<path d="M267.356 138.616C267.356 138.616 267.17 143.26 263.27 144.746" stroke="#7A251E" stroke-miterlimit="10" stroke-linecap="round" stroke-linejoin="round"/>
<path d="M312.121 155.519C312.121 155.519 312.121 164.063 322.709 168.707" stroke="#7A251E" stroke-miterlimit="10" stroke-linecap="round" stroke-linejoin="round"/>
<path d="M311.377 177.808C311.377 177.808 322.15 178.18 326.794 174.836" stroke="#7A251E" stroke-miterlimit="10" stroke-linecap="round" stroke-linejoin="round"/>
<path d="M251.195 136.387C251.369 136.402 251.533 136.383 251.689 136.344L251.195 136.387Z" stroke="black" stroke-miterlimit="10" stroke-linecap="round" stroke-linejoin="round"/>
<path d="M277.943 103.696C253.982 97.9372 241.908 106.296 241.908 106.296C251.567 127.285 251.195 136.387 251.195 136.387L251.689 136.343L278.685 133.972L277.943 103.696Z" fill="#CDDBE6"/>
<path d="M246.738 131.991C246.491 125.304 237.327 106.234 237.327 106.234C237.327 106.234 239.433 96.3277 221.973 96.4522L236.709 127.781L247.3 134.371C246.59 133.211 246.738 131.991 246.738 131.991Z" fill="#CDDBE6"/>
<path d="M241.91 106.297L237.328 106.234C237.328 106.234 246.492 125.304 246.739 131.991C246.739 131.991 246.59 133.211 247.3 134.371C247.87 135.301 248.992 136.194 251.196 136.387C251.196 136.387 251.568 127.286 241.91 106.297Z" fill="#C1CCD3"/>
<path d="M237.327 106.234L241.909 106.297C241.909 106.297 253.983 97.938 277.944 103.696L273.238 100.91C251.196 94.347 240.671 104.13 240.671 104.13C240.671 104.13 243.271 98.805 235.346 95.0902C227.421 91.3755 223.582 96.4522 223.582 96.4522L223.6 96.4717C239.297 96.9577 237.327 106.234 237.327 106.234Z" fill="white"/>
<path d="M266.056 96.3285C264.467 93.4395 265.436 90.5085 261.845 85.6792C258.254 80.85 247.729 71.6865 242.156 76.8877C242.156 76.8877 240.671 78.126 246.243 79.2405C251.816 80.355 252.93 81.717 252.93 81.717C252.93 81.717 246.986 82.8315 246.863 85.4317C246.739 88.032 247.11 91.2517 249.463 91.7467C251.816 92.2417 251.692 90.6322 251.692 90.6322C251.692 90.6322 254.045 94.2232 256.15 94.8427C258.255 95.4622 259.865 99.5482 259.865 99.5482C259.865 99.5482 267.418 98.805 266.056 96.3285Z" fill="#B56C55"/>
<path d="M250.176 88.7437C250.176 88.7437 251.584 88.62 251.693 90.6322L250.176 88.7437Z" fill="#B56C55"/>
<path d="M262.805 137.13C262.248 133.693 262.062 133.972 262.062 133.972C260.761 131.65 258.44 133.972 255.561 134.808C252.681 135.644 251.475 135.736 251.846 133.6C252.217 131.464 251.567 128.725 249.524 129.375C249.344 129.432 249.206 129.5 249.085 129.574C247.831 130.337 249.492 132.058 249.153 136.294C249.09 137.077 249.16 137.75 249.318 138.334C250.098 141.211 253.214 141.755 255.375 140.752C257.976 139.544 258.348 139.544 258.348 139.544L259.926 141.68C259.926 141.68 263.362 140.566 262.805 137.13Z" fill="#B56C55"/>
<path d="M249.154 136.294C249.493 132.059 247.832 130.338 249.086 129.574C248.687 129.158 247.961 128.561 247.049 128.423C246.845 128.392 246.635 128.377 246.413 128.401C244.649 128.587 248.039 133.183 246.599 136.294C246.513 136.48 246.458 136.651 246.417 136.814C245.963 138.596 248.019 139.011 249.32 138.335C249.161 137.751 249.091 137.078 249.154 136.294Z" fill="#9B5D4C"/>
<path d="M243.485 127.212C243.282 127.009 243.052 126.816 242.787 126.638C242.079 126.163 241.095 125.287 239.45 125.953C237.805 126.618 242.331 130.102 241.805 133.489C241.523 135.307 242.807 135.694 243.955 135.31C243.988 135.089 244.06 134.845 244.185 134.575C245.355 132.048 243.336 128.538 243.485 127.212Z" fill="#75443B"/>
<path d="M246.414 128.4C246.635 128.377 246.845 128.392 247.049 128.422C247.03 128.323 247.018 128.26 247.018 128.26C247.018 128.26 245.764 126.496 243.999 126.682C243.668 126.716 243.519 126.906 243.484 127.212C243.335 128.538 245.355 132.047 244.185 134.576C244.06 134.846 243.988 135.089 243.955 135.311C243.745 136.714 245.211 137.16 246.418 136.814C246.459 136.651 246.514 136.481 246.6 136.294C248.039 133.183 244.649 128.586 246.414 128.4Z" fill="#874F42"/>
<path d="M308.005 89.0275C307.197 93.301 302.047 98.7595 295.578 100.085C295.578 100.085 297.202 104.075 297.317 106.118C297.317 106.118 304.256 110.427 310.511 102.086C311.441 100.848 308.005 89.0275 308.005 89.0275Z" fill="#B56C55"/>
<path d="M295.578 100.085C295.578 100.085 295.967 101.041 296.377 102.254C296.409 102.25 296.442 102.25 296.474 102.245C296.771 102.205 297.063 102.145 297.356 102.088C302.797 101.026 307.315 97.026 309.146 93.2325C308.55 90.9007 308.006 89.0265 308.006 89.0265C307.197 93.3007 302.048 98.7592 295.578 100.085Z" fill="#9B5E4E"/>
<path d="M312.864 99.5475C302.029 102.349 298.748 106.234 298.252 124.561C297.757 142.888 300.729 176.57 307.663 188.705C307.663 188.705 327.228 185.733 330.2 181.276C330.2 181.276 331.686 175.827 329.705 172.112C327.723 168.397 329.705 167.159 328.962 159.234C328.218 151.309 329.209 135.211 328.962 123.571C328.715 111.931 327.229 95.8327 312.864 99.5475Z" fill="#F9DB55"/>
<path d="M305.619 109.639C295.961 112.797 284.072 119.484 280.915 116.14C277.757 112.797 270.884 95.1509 267.913 94.2224C264.941 93.2939 256.954 97.9372 257.14 100.352C257.326 102.767 270.514 130.814 277.757 133.229C285.002 135.644 314.349 128.771 314.349 128.771" fill="#F9DB55"/>
<path d="M312.716 80.3287C311.351 75.0622 305.412 80.6557 305.412 80.6557C305.412 80.6557 299.601 73.0425 297.286 69.48C294.475 65.1532 293.175 64.3177 293.175 64.3177C293.175 64.3177 278.78 68.8687 279.843 79.5142C280.441 85.497 280.418 97.9642 289.5 100.088C290.823 100.398 292.13 100.497 293.403 100.43C293.79 100.41 294.175 100.377 294.555 100.327C294.852 100.287 295.143 100.227 295.436 100.17C301.97 98.8942 307.185 93.3832 307.999 89.0797C307.999 89.0782 314.081 85.596 312.716 80.3287Z" fill="#B56C55"/>
<path d="M292.747 83.3535C293.041 84.1072 293.891 84.4792 294.645 84.1852C295.398 83.8905 295.77 83.0415 295.476 82.2877C295.182 81.534 294.333 81.162 293.579 81.456C292.825 81.75 292.453 82.5997 292.747 83.3535Z" fill="#2D0C0A"/>
<path d="M284.273 84.8377C284.567 85.5915 285.416 85.9635 286.17 85.6695C286.924 85.3747 287.296 84.5257 287.002 83.772C286.708 83.0182 285.858 82.6462 285.104 82.9402C284.351 83.235 283.979 84.0847 284.273 84.8377Z" fill="#2D0C0A"/>
<path d="M288.151 80.877C288.271 80.8432 288.381 80.7727 288.464 80.6692C288.674 80.4045 288.634 80.0212 288.373 79.8075C288.269 79.7235 285.784 77.772 282.192 80.2695C281.913 80.4637 281.844 80.8485 282.038 81.1275C282.233 81.408 282.617 81.477 282.897 81.2812C285.697 79.3342 287.523 80.709 287.599 80.7682C287.761 80.8957 287.967 80.9295 288.151 80.877Z" fill="#34404C"/>
<path d="M296.347 79.1722C296.466 79.1385 296.576 79.068 296.659 78.9645C296.869 78.6997 296.83 78.3165 296.568 78.1027C296.464 78.0187 293.979 76.0672 290.387 78.5647C290.108 78.759 290.039 79.1437 290.233 79.4227C290.428 79.7032 290.812 79.7722 291.092 79.5772C293.892 77.6302 295.718 79.005 295.795 79.0642C295.956 79.191 296.162 79.2247 296.347 79.1722Z" fill="#34404C"/>
<path d="M291.284 91.914C291.287 91.9147 291.29 91.9155 291.294 91.9162C292.244 92.082 293.059 91.9305 293.717 91.4647C294.75 90.7342 294.969 89.493 294.978 89.4405C295.034 89.1045 294.773 88.8105 294.472 88.7302C294.137 88.674 293.82 88.899 293.762 89.2335C293.707 89.5365 293.34 91.0222 291.506 90.7012C291.17 90.6435 290.85 90.867 290.792 91.203C290.735 91.5345 290.954 91.851 291.284 91.914Z" fill="#7A251E"/>
<path d="M292.067 88.6897C292.098 88.6807 292.118 88.6747 292.123 88.6725C292.445 88.566 292.622 88.2172 292.516 87.894C292.409 87.5722 292.041 87.4072 291.74 87.5002C291.707 87.5205 290.951 87.7305 290.496 87.372C290.051 87.0195 290.011 86.199 290.054 85.572C290.315 81.9315 289.255 80.7697 289.133 80.649C288.89 80.4082 288.5 80.412 288.26 80.6542C288.021 80.8965 288.023 81.2872 288.265 81.5265C288.265 81.5265 289.04 82.4595 288.824 85.4842C288.728 86.835 289.037 87.7987 289.742 88.3477C290.629 89.0392 291.794 88.767 292.067 88.6897Z" fill="#7A251E"/>
<path d="M297.444 86.2837C297.444 86.2837 295.935 85.2809 295.474 86.3047C294.918 87.5369 298.692 88.2209 298.692 88.2209C298.692 88.2209 299.813 84.7274 298.417 84.6097C297.02 84.4919 297.444 86.2837 297.444 86.2837Z" fill="#FF7694"/>
<path d="M286.014 88.6732C286.014 88.6732 287.226 87.327 287.927 88.203C288.772 89.2582 285.287 90.8602 285.287 90.8602C285.287 90.8602 283.332 87.756 284.655 87.294C285.978 86.832 286.014 88.6732 286.014 88.6732Z" fill="#FF7694"/>
<path d="M310.371 82.9784C310.447 82.9649 310.523 82.9394 310.595 82.8997C310.946 82.7077 311.073 82.2682 310.881 81.9179C310.11 80.5124 308.832 80.5004 308.277 80.6812C307.897 80.8079 307.692 81.2167 307.818 81.5954C307.941 81.9689 308.345 82.1699 308.717 82.0589C308.838 82.0244 309.264 81.9772 309.615 82.6132C309.767 82.8914 310.074 83.0294 310.371 82.9784Z" fill="#BA6349"/>
<path d="M306.541 84.9802C306.661 85.0297 306.795 85.0477 306.933 85.026C309.29 84.645 310.253 81.8715 310.292 81.7537C310.419 81.3757 310.247 80.9745 309.839 80.8387C309.462 80.7105 309.052 80.9122 308.922 81.2887C308.915 81.3097 308.195 83.3572 306.701 83.5995C306.308 83.6632 306.04 84.0345 306.103 84.4282C306.145 84.684 306.317 84.888 306.541 84.9802Z" fill="#BA6349"/>
<path opacity="0.1" d="M76.7463 307.754C64.9961 307.754 41.7461 314.504 41.7461 320.504C41.7461 326.504 79.4958 327.503 85.2461 322.754C90.9963 318.004 117.246 325.754 126.996 319.004C136.746 312.254 95.7461 307.754 76.7463 307.754Z" fill="#1F142A"/>
<path d="M71.8101 165.777C72.3958 157.413 57.8938 124.345 57.8938 124.345L63.4603 109.547L56.1358 110.448L58.4586 100.502C57.5781 101.015 56.6938 101.457 55.8433 101.762C51.0096 103.499 45.0036 108.518 45.0036 108.518C45.0036 108.518 44.6376 146.926 43.7586 155.611C42.8796 164.297 38.7051 190.546 38.7051 190.546C38.7051 190.546 57.8211 197.108 65.5116 194.599C69.9801 193.141 71.3323 179.824 71.8108 167.066C71.7771 166.712 71.7748 166.287 71.8101 165.777Z" fill="#F79E40"/>
<path d="M68.5882 107.167C66.3907 100.411 66.6105 94.0425 66.6105 94.0425C66.6105 94.0425 62.5822 98.1007 58.4595 100.502L56.1367 110.448L63.4612 109.547L57.8947 124.345C57.8947 124.345 72.3967 157.414 71.811 165.777C71.775 166.287 71.778 166.711 71.8117 167.066C72.1567 157.867 72.0472 148.959 72.324 144.997C72.9832 135.539 70.7857 113.922 68.5882 107.167Z" fill="#E5852E"/>
<path d="M72.4346 142.096C72.5651 132.598 70.9166 116.473 69.1113 109.059C77.1626 111.442 80.7963 109.388 82.2948 107.823C82.2948 107.823 82.4208 108.115 82.6458 108.65C83.0208 109.611 83.3328 110.659 83.5293 111.799C84.6281 118.168 88.1433 161.788 88.1433 161.788C88.1433 161.788 88.2056 163.853 88.3413 166.92C88.3443 166.984 88.3473 167.048 88.3503 167.113C88.3586 167.296 88.3668 167.483 88.3758 167.674C88.3803 167.764 88.3841 167.855 88.3886 167.947C88.3968 168.129 88.4058 168.312 88.4141 168.499C88.4193 168.609 88.4246 168.723 88.4306 168.835C88.4388 169.004 88.4471 169.171 88.4553 169.343C81.9836 171.877 75.5133 171.146 71.6711 170.279C71.7251 169.209 71.7716 168.136 71.8121 167.066C71.8286 166.634 71.8428 166.204 71.8571 165.773C71.9928 161.695 72.0468 157.719 72.0918 154.253C72.1038 154.261 72.4346 142.096 72.4346 142.096Z" fill="white"/>
<path d="M48.4824 167.482C48.4824 167.482 55.2939 169.508 61.7762 169.219" stroke="#7A251E" stroke-miterlimit="10" stroke-linecap="round" stroke-linejoin="round"/>
<path d="M95.3945 132.065C95.3945 132.065 99.7888 148.857 106.381 148.664C112.972 148.472 135.604 124.346 135.604 124.346L124.618 114.695L110.995 127.048C110.995 127.048 100.229 108.712 97.592 105.817C97.592 105.817 98.6908 121.258 97.3723 124.538C96.0538 127.819 95.3945 132.065 95.3945 132.065Z" fill="#E5852E"/>
<path d="M95.3927 132.065L98.689 122.994L97.5902 105.816C97.5902 105.816 89.8682 102.718 83.7617 99.852L88.1425 105.816L84.6265 106.974L92.5367 120.292L88.1425 161.788C88.1425 161.788 89.0215 191.125 91.4387 193.249C93.856 195.372 105.062 191.898 105.062 191.898L95.3927 132.065Z" fill="#F79E40"/>
<path d="M110.995 127.047C110.995 127.047 106.271 131.968 106.381 136.794" stroke="black" stroke-miterlimit="10" stroke-linecap="round" stroke-linejoin="round"/>
<path d="M77.1719 98.7495L77.8146 101.763C77.8146 101.763 82.4286 105.43 83.5274 111.8C84.6261 118.169 88.1414 161.789 88.1414 161.789L92.5356 120.292L84.6254 106.974L88.1414 105.816L83.7606 99.852C83.3046 99.6383 82.8591 99.4253 82.4249 99.2153C81.7176 99.3233 81.0074 99.3825 80.3039 99.3825C79.4369 99.3825 78.3621 99.1553 77.1719 98.7495Z" fill="#E5852E"/>
<path d="M93.6362 73.6477C93.6362 73.6477 95.101 65.4127 78.5485 64.383C61.996 63.354 59.6522 76.9927 60.9707 84.0697C62.0717 89.9805 71.1407 96.6952 77.173 98.7487C78.3632 99.1537 79.4372 99.3817 80.3065 99.3817C81.0092 99.3817 81.7195 99.3225 82.4275 99.2145C87.0272 98.511 91.4882 95.556 92.758 90.7605C94.222 85.2285 93.6362 73.6477 93.6362 73.6477Z" fill="#F7986A"/>
<path d="M94.3691 167.321C94.3691 167.321 99.6424 167.449 100.961 166.42" stroke="#7A251E" stroke-miterlimit="10" stroke-linecap="round" stroke-linejoin="round"/>
<path d="M66.2424 89.9895C66.2424 89.9895 59.6507 86.3865 63.6054 83.427C65.3859 82.095 66.7509 83.4217 67.7132 85.284L68.8787 85.3567C68.8787 85.3567 69.7577 78.2797 73.4199 77.7652C73.4199 77.7652 72.9804 70.9455 78.4007 70.9455C83.8209 70.9455 92.9027 67.2142 93.6347 76.9935C93.6347 76.9935 101.545 71.2035 100.08 67.4715C98.6154 63.7402 92.6094 64.383 92.6094 64.383C92.6094 64.383 96.2717 62.5815 94.6599 61.2945C93.0489 60.0082 87.7749 62.4525 83.8202 60.1365C79.8654 57.8205 62.1407 56.019 60.5289 68.6287C60.5289 68.6287 53.9372 73.0035 56.4272 79.437C58.9187 85.872 59.3582 94.4925 66.2424 89.9895Z" fill="#7A251E"/>
<path d="M58.6996 309.247C53.8659 311.755 50.5696 308.281 50.5696 308.281L50.5464 306.055C49.1551 306.387 47.7129 307.328 47.7129 309.826C47.7129 314.651 48.4816 318.994 48.4816 318.994C48.4816 318.994 72.4321 321.599 76.8264 320.538C81.2206 319.477 85.9449 316.099 83.1984 313.783C81.1449 312.051 73.3194 307.085 63.5326 305.776V306.738C63.5326 306.738 63.5334 306.737 58.6996 309.247Z" fill="#1F142A"/>
<path d="M50.3945 291.335L50.5468 306.055L50.57 308.281C50.57 308.281 53.8663 311.755 58.7 309.246C63.5338 306.737 63.5338 306.737 63.5338 306.737V305.776V291.416C59.0405 292.538 53.6435 291.916 50.3945 291.335Z" fill="#F7986A"/>
<path d="M97.1508 306.927C92.3171 309.436 89.0208 305.962 89.0208 305.962L88.9976 303.736C87.6063 304.067 86.1641 305.008 86.1641 307.506C86.1641 312.331 86.9328 316.674 86.9328 316.674C86.9328 316.674 110.883 319.279 115.278 318.218C119.672 317.157 124.396 313.779 121.65 311.463C119.596 309.731 111.771 304.765 101.984 303.457V304.418C101.985 304.418 101.985 304.418 97.1508 306.927Z" fill="#1F142A"/>
<path d="M88.8633 290.73L88.9975 303.736L89.0208 305.962C89.0208 305.962 92.3163 309.436 97.1508 306.927C101.985 304.418 101.985 304.418 101.985 304.418V303.457V289.984C97.165 291.85 91.651 291.241 88.8633 290.73Z" fill="#F7986A"/>
<path d="M98.6369 193.467C95.6812 194.005 92.5807 194.251 91.4392 193.249C89.8192 191.826 88.8914 178.188 88.4549 169.344C81.9832 171.877 75.5129 171.146 71.6707 170.28C71.0834 181.975 69.6059 193.264 65.5117 194.6C60.8174 196.132 51.8699 194.284 45.6074 192.61C45.9044 202.246 46.2599 212.659 46.6154 220.463C47.4944 239.764 47.9339 285.314 47.4944 290.718C47.4944 290.718 48.6277 291.02 50.3954 291.336C53.6444 291.916 59.0414 292.539 63.5347 291.417C63.9074 291.324 64.2749 291.222 64.6334 291.104L76.9379 204.637L87.0457 290.332C87.0457 290.332 87.7319 290.523 88.8659 290.731C91.6537 291.241 97.1669 291.851 101.987 289.985C102.586 289.754 103.174 289.488 103.745 289.175L98.6369 193.467Z" fill="#1F142A"/>
<path d="M126.01 117.268C126.01 117.268 128.5 114.695 128.5 112.764C128.5 110.834 129.233 109.161 132.894 106.588C136.556 104.015 140.804 99.897 140.951 99.3825C141.097 98.868 143.001 100.283 141.83 102.213C140.657 104.143 150.033 100.669 149.74 103.114C149.447 105.559 147.542 105.559 147.542 105.559C147.542 105.559 148.861 108.776 146.517 109.162C144.173 109.548 146.444 109.226 146.444 109.226C146.444 109.226 146.261 111.446 144.759 111.864C143.782 112.136 144.026 114.566 142.269 114.695C140.511 114.824 130.257 122.416 130.257 122.416L126.01 117.268Z" fill="#F7986A"/>
<path d="M141.646 102.438C140.658 103.885 138.735 107.311 136.428 108.614" stroke="#BA6349" stroke-miterlimit="10" stroke-linecap="round" stroke-linejoin="round"/>
<path d="M77.8154 101.763C73.0904 101.811 68.6534 98.4307 66.6719 96.678C66.8166 99.1582 67.2599 103.087 68.5866 107.167C68.7614 107.704 68.9361 108.346 69.1101 109.059C77.1614 111.442 80.7951 109.388 82.2936 107.823C80.5334 103.933 77.8154 101.763 77.8154 101.763Z" fill="#F7986A"/>
<path d="M77.1718 98.7495C73.8418 97.6155 69.5886 95.064 66.2578 92.0078L66.6088 94.0425C66.6088 94.0425 66.5766 95.052 66.6711 96.678C68.6518 98.4308 73.0896 101.81 77.8146 101.763L77.1718 98.7495Z" fill="#BA6349"/>
<path d="M54.6716 121.9C54.5014 123.953 52.6211 138.884 52.6211 138.884L61.9961 144.289C64.9256 149.179 59.3591 156.384 56.1364 156.384C52.9136 156.384 37.6796 150.465 36.2149 148.663C34.7501 146.862 36.8006 141.457 38.2654 130.906C39.7301 120.355 40.3159 111.863 45.0034 108.517C45.0034 108.517 55.8431 107.746 54.6716 121.9Z" fill="#E5852E"/>
<path d="M52.6196 138.885C52.6196 138.885 47.1634 137.952 44.3066 142.777" stroke="#7A251E" stroke-miterlimit="10" stroke-linecap="round" stroke-linejoin="round"/>
<path d="M67.0488 150.208C67.0488 150.208 73.6406 133.995 76.4973 124.345L117.147 126.853C117.147 126.853 101.106 147.698 97.1516 149.05C93.1961 150.401 67.0488 150.208 67.0488 150.208Z" fill="#E0DEDF"/>
<path d="M69.5585 155.009C72.3575 155.15 72.6882 153.232 72.6882 153.232C72.6882 153.232 75.1782 152.396 75.7647 150.337C76.3505 148.278 70.4915 145.833 70.4915 145.833C72.9087 145.447 74.813 147.313 77.4492 148.085C80.0862 148.856 82.43 147.184 80.0127 145.125C77.5955 143.066 71.297 140.879 68.2205 142.68C65.1447 144.482 59.651 144.932 57.3807 144.803C57.3807 144.803 53.5355 148.664 56.282 153.006C56.282 153.006 59.9075 153.103 62.105 154.454C64.3025 155.804 66.2795 154.454 66.2795 154.454L64.3017 155.804C64.3017 155.804 65.51 157.155 67.598 156.287C69.6852 155.418 71.5527 152.909 68.3667 151.751C68.3667 151.751 70.3542 152.324 70.1427 153.649C69.9965 154.567 69.5585 155.009 69.5585 155.009Z" fill="#F7986A"/>
<path d="M72.6877 153.232C72.6877 153.232 74.2987 149.918 69.3555 148.31" stroke="#BA6349" stroke-miterlimit="10"/>
<path d="M69.4278 155.033C69.4278 155.033 71.3688 153.232 68.9883 151.978" stroke="#BA6349" stroke-miterlimit="10"/>
<path d="M85.249 65.6377C82.3563 68.2755 82.3563 68.6295 79.3848 70.9095C84.8523 70.5547 92.9455 67.7835 93.6348 76.9927C93.6348 76.9927 100.227 72.6825 100.236 68.1097C100.247 63.1177 92.956 58.611 85.249 65.6377Z" fill="#7A251E"/>
<path d="M56.849 81.0502C56.849 81.0502 60.6028 75.234 65.4073 74.4405C65.4073 74.4405 68.7103 76.8202 76.8185 72.4575C84.926 68.0955 83.1245 64.923 86.8783 66.2445C90.632 67.566 93.0343 69.417 93.635 72.1927C93.635 72.1927 103.995 67.8307 101.743 63.6007C99.4903 59.3707 90.0313 59.6347 88.3798 60.4282C88.3798 60.4282 79.5215 47.4735 63.3058 58.974C47.09 70.4752 56.849 81.0502 56.849 81.0502Z" fill="#E5852E"/>
<path d="M88.7468 59.88C88.7468 59.88 76.743 62.742 68.5605 71.136" stroke="white" stroke-miterlimit="10" stroke-linecap="round" stroke-linejoin="round"/>
<path d="M83.039 67.689C84.2203 66.3615 85.5455 65.1488 87.0605 64.173C87.815 63.6825 88.6378 63.2708 89.5363 63.0315C90.4258 62.7908 91.4353 62.7488 92.3645 63.129C92.5565 63.2078 92.648 63.4268 92.57 63.6188C92.4913 63.8108 92.2723 63.9023 92.0803 63.8243C92.0728 63.8213 92.0653 63.8183 92.0585 63.8145L92.0525 63.8115C91.34 63.4628 90.4903 63.4238 89.6645 63.588C88.835 63.7485 88.0205 64.0845 87.2585 64.5105C85.7255 65.3565 84.3238 66.4703 83.0608 67.7108C83.0555 67.7168 83.0458 67.7175 83.0398 67.7115C83.0338 67.7048 83.0338 67.695 83.039 67.689Z" fill="white"/>
<path d="M117.513 316.063C110.115 317.735 87.7031 314.39 87.7031 314.39C87.7031 314.39 110.115 317.735 117.513 316.063Z" stroke="white" stroke-miterlimit="10" stroke-linecap="round" stroke-linejoin="round"/>
<path d="M79.0615 318.382C71.6642 320.055 49.252 316.71 49.252 316.71" stroke="white" stroke-miterlimit="10" stroke-linecap="round" stroke-linejoin="round"/>
<path d="M55.9535 172.694C55.9535 173.44 55.265 174.044 54.4152 174.044C53.5655 174.044 52.877 173.439 52.877 172.694C52.877 171.947 53.5655 171.343 54.4152 171.343C55.265 171.343 55.9535 171.947 55.9535 172.694Z" stroke="#7A251E" stroke-miterlimit="10" stroke-linecap="round" stroke-linejoin="round"/>
<path d="M101.272 169.637C101.272 170.246 100.71 170.739 100.018 170.739C99.3254 170.739 98.7637 170.246 98.7637 169.637C98.7637 169.029 99.3254 168.536 100.018 168.536C100.71 168.536 101.272 169.029 101.272 169.637Z" stroke="#7A251E" stroke-miterlimit="10" stroke-linecap="round" stroke-linejoin="round"/>
<path d="M81.0258 83.7697C80.8765 84.5985 80.041 85.1572 79.159 85.017C78.277 84.8767 77.6823 84.0915 77.8315 83.2627C77.98 82.434 78.8163 81.8752 79.6983 82.0155C80.5803 82.155 81.175 82.941 81.0258 83.7697Z" fill="#2D0C0A"/>
<path d="M90.5355 83.487C90.3863 84.3157 89.5508 84.8745 88.6688 84.7342C87.7868 84.594 87.192 83.8087 87.3413 82.98C87.4905 82.1512 88.326 81.5925 89.208 81.7327C90.09 81.873 90.6848 82.6582 90.5355 83.487Z" fill="#2D0C0A"/>
<path d="M85.4451 80.2785C85.3078 80.2695 85.1728 80.2215 85.0596 80.133C84.7723 79.908 84.7288 79.5097 84.9643 79.2367C85.0581 79.1295 87.3096 76.6185 91.7601 78.399C92.1058 78.5377 92.2671 78.9142 92.1193 79.2397C91.9716 79.566 91.5718 79.7175 91.2238 79.578C87.7543 78.1897 86.0871 79.974 86.0173 80.0512C85.8718 80.2147 85.6566 80.292 85.4451 80.2785Z" fill="#7A251E"/>
<path d="M76.1891 80.2777C76.0519 80.2687 75.9169 80.2207 75.8036 80.1322C75.5164 79.9072 75.4729 79.509 75.7091 79.236C75.8029 79.1287 78.0544 76.6177 82.5049 78.3982C82.8506 78.537 83.0119 78.9135 82.8641 79.2382C82.7164 79.5645 82.3166 79.716 81.9686 79.5765C78.4991 78.1882 76.8319 79.9725 76.7621 80.0497C76.6159 80.214 76.4006 80.292 76.1891 80.2777Z" fill="#7A251E"/>
<path d="M84.5379 92.1697C84.5341 92.1712 84.5304 92.1727 84.5266 92.1742C83.5359 92.544 82.6194 92.562 81.8026 92.2275C80.5194 91.7032 80.0026 90.486 79.9809 90.435C79.8451 90.105 80.0611 89.751 80.3686 89.6047C80.7188 89.4772 81.1126 89.6385 81.2506 89.9662C81.3781 90.2632 82.1093 91.6972 84.0233 90.9825C84.3728 90.8527 84.7703 91.0125 84.9083 91.3417C85.0463 91.6672 84.8806 92.0355 84.5379 92.1697Z" fill="#BA6349"/>
<path d="M82.9652 89.055C82.9292 89.0527 82.9067 89.0505 82.9 89.0498C82.5265 89.01 82.2572 88.692 82.2992 88.341C82.3435 87.9915 82.7042 87.7448 83.0515 87.7763C83.092 87.7898 83.9575 87.8438 84.3685 87.3833C84.7712 86.9303 84.6302 86.0865 84.4412 85.4588C83.3387 81.81 84.226 80.4038 84.3302 80.2553C84.5387 79.959 84.9625 79.8802 85.276 80.076C85.5895 80.2717 85.6757 80.6693 85.468 80.964C85.4695 80.964 84.8387 82.077 85.753 85.1085C86.1617 86.4622 86.0447 87.5078 85.4042 88.2158C84.6002 89.106 83.2772 89.076 82.9652 89.055Z" fill="#BA6349"/>
<path d="M76.5999 87.7447C76.5999 87.7447 78.0077 86.4052 78.7374 87.3487C79.6164 88.485 75.6849 89.979 75.6849 89.979C75.6849 89.979 73.6847 86.6617 75.1697 86.247C76.6554 85.8322 76.5999 87.7447 76.5999 87.7447Z" fill="#FF7694"/>
<path d="M89.5159 87.7568C89.5159 87.7568 87.9004 86.643 87.3387 87.6833C86.6614 88.9358 90.7947 89.8283 90.7947 89.8283C90.7947 89.8283 92.2129 86.2567 90.6762 86.0662C89.1402 85.8765 89.5159 87.7568 89.5159 87.7568Z" fill="#FF7694"/>
<path d="M63.9125 85.9267C63.857 85.9095 63.8038 85.8832 63.7558 85.8487C63.5195 85.6822 63.482 85.3793 63.6718 85.1723C64.433 84.3413 65.387 84.4822 65.7785 84.6652C66.0448 84.792 66.143 85.0838 65.9998 85.3178C65.8588 85.548 65.531 85.6328 65.2685 85.5173C65.1823 85.4805 64.871 85.4002 64.5253 85.776C64.3738 85.9395 64.1263 85.995 63.9125 85.9267Z" fill="#BA6349"/>
<path d="M66.5037 87.6833C66.4077 87.702 66.305 87.6983 66.2052 87.6675C64.4982 87.144 64.1472 85.215 64.1337 85.1333C64.0887 84.8708 64.2702 84.6278 64.5927 84.5865C64.8905 84.5468 65.1695 84.726 65.2167 84.9878C65.219 85.002 65.4852 86.4278 66.5675 86.7593C66.8525 86.8463 67.0032 87.1208 66.9035 87.372C66.8375 87.5355 66.6822 87.6488 66.5037 87.6833Z" fill="#BA6349"/>
<path fill-rule="evenodd" clip-rule="evenodd" d="M134.861 124.721L135.878 124.956L145.869 91.1505L144.851 90.9165L134.861 124.721Z" fill="#E3C851"/>
<path fill-rule="evenodd" clip-rule="evenodd" d="M135.879 124.956L137.587 125.348L147.577 91.5435L145.87 91.1505L135.879 124.956Z" fill="#CB933B"/>
<path fill-rule="evenodd" clip-rule="evenodd" d="M137.586 125.348L138.603 125.583L148.593 91.7775L147.576 91.5435L137.586 125.348Z" fill="#BA6834"/>
<path d="M145.235 89.631C145.431 88.9702 146.2 88.5742 146.952 88.7467L147.973 88.9822C148.725 89.1555 149.175 89.8312 148.977 90.4912L148.774 91.1737C148.578 91.8345 147.975 91.6672 147.224 91.494L146.204 91.2592C145.452 91.0867 144.834 90.9727 145.031 90.3127L145.235 89.631Z" fill="#B26FA4"/>
<path d="M144.675 90.6637C144.713 90.537 144.861 90.4605 145.005 90.4942L148.765 91.3598C148.909 91.3928 148.995 91.5225 148.959 91.6492C148.92 91.776 148.773 91.8518 148.628 91.8188L144.867 90.9533C144.723 90.9203 144.636 90.7897 144.675 90.6637Z" fill="white" stroke="white" stroke-miterlimit="10"/>
<path d="M136.166 127.225L136.368 127.272L138.604 125.583L137.587 125.348L136.166 127.225Z" fill="#CBC985"/>
<path d="M136.069 127.203L135.721 127.123L134.861 124.721L135.878 124.956L136.069 127.203Z" fill="#F3F09F"/>
<path d="M135.918 127.168L136.174 127.226L137.593 125.35L135.879 124.956L135.918 127.168Z" fill="#DEDB91"/>
<path d="M135.888 127.769L135.553 126.653L136.802 126.94L135.888 127.769Z" fill="black"/>
<path d="M147.541 105.559C147.541 105.559 141.92 106.685 141.206 105.719C140.492 104.754 140.932 103.09 146.397 102.848" fill="#F7986A"/>
<path d="M147.541 105.559C147.541 105.559 141.92 106.685 141.206 105.719C140.492 104.754 140.932 103.09 146.397 102.848" stroke="#BA6349" stroke-miterlimit="10" stroke-linecap="round" stroke-linejoin="round"/>
<path d="M145.477 109.339C143.17 109.58 139.284 110.714 138.789 109.097C138.302 107.502 139.201 106.082 145.079 105.985" fill="#F7986A"/>
<path d="M145.477 109.339C143.17 109.58 139.284 110.714 138.789 109.097C138.302 107.502 139.201 106.082 145.079 105.985" stroke="#BA6349" stroke-miterlimit="10" stroke-linecap="round" stroke-linejoin="round"/>
<path d="M144.173 111.872C144.173 111.872 139.174 113.343 138.46 112.089C137.613 110.601 139.531 110.111 143.267 109.676" fill="#F7986A"/>
<path d="M144.173 111.872C144.173 111.872 139.174 113.343 138.46 112.089C137.613 110.601 139.531 110.111 143.267 109.676" stroke="#BA6349" stroke-miterlimit="10" stroke-linecap="round" stroke-linejoin="round"/>
<path d="M142.525 114.405C141.17 114.727 138.872 115.684 138.982 114.212C139.105 112.575 142.846 112.283 143.322 112.283" fill="#F7986A"/>
<path d="M142.525 114.405C141.17 114.727 138.872 115.684 138.982 114.212C139.105 112.575 142.846 112.283 143.322 112.283" stroke="#BA6349" stroke-miterlimit="10" stroke-linecap="round" stroke-linejoin="round"/>
<path opacity="0.1" d="M191.382 309.946C181.782 309.946 135.318 311.477 135.318 316.379C135.318 321.281 193.731 328.532 198.428 324.651C203.125 320.771 207.618 325.264 215.584 319.749C223.549 314.235 206.904 309.946 191.382 309.946Z" fill="#1F142A"/>
<path d="M200.601 250.898C205.908 249.837 214.694 260.395 214.694 260.395L204.789 270.607C204.789 270.607 190.389 252.94 200.601 250.898Z" fill="#CCDEE2"/>
<path d="M153.492 259.17C154.718 245.69 170.649 244.465 170.649 244.465L177.829 244.145V244.056L178.834 244.101L179.839 244.056V244.145L187.02 244.465C187.02 244.465 202.95 245.69 204.176 259.17C205.401 272.65 199.683 289.601 199.683 289.601H179.839H177.829H157.986C157.986 289.601 152.268 272.65 153.492 259.17Z" fill="#DBEFF6"/>
<path d="M142.055 311.224C144.46 305.181 152.349 308.491 152.937 305.321C153.526 302.151 156.892 301.615 156.892 301.615L156.982 301.652C157.799 305.196 160.557 306.898 160.557 306.898L159.376 312.727C159.376 312.727 159.261 312.75 159.126 312.809C158.521 312.976 156.62 313.338 151.568 313.297C145.032 313.245 139.65 317.268 142.055 311.224Z" fill="white"/>
<path d="M156.982 301.652C156.803 300.877 156.713 300.016 156.77 299.063L156.727 293.294L205.333 292.925L214.113 299.293C214.113 299.293 219.66 303.54 216.202 312.144C212.743 320.749 198.33 318.866 198.33 318.866C198.33 318.866 196.921 326.962 175.589 319.728C162.996 315.457 158.312 313.168 159.126 312.81C159.304 312.761 159.376 312.728 159.376 312.728L160.557 306.898C160.557 306.898 157.798 305.196 156.982 301.652Z" fill="#1F142A"/>
<path d="M159.127 312.809C159.262 312.75 159.377 312.727 159.377 312.727C159.377 312.727 159.306 312.761 159.127 312.809Z" stroke="black" stroke-miterlimit="10" stroke-linecap="round" stroke-linejoin="round"/>
<path d="M185.827 316.357C185.827 316.357 183.895 314.15 174.616 312.535C165.336 310.921 162.562 308.797 162.562 308.797" stroke="white" stroke-miterlimit="10" stroke-linecap="round" stroke-linejoin="round"/>
<path d="M198.33 318.866C198.33 318.866 203.573 313.312 199.766 306.295" stroke="white" stroke-miterlimit="10" stroke-linecap="round" stroke-linejoin="round"/>
<path d="M203.701 259.016C203.701 259.016 157.604 239.959 125.917 245.916L126.55 247.75L122.029 249.418L123.701 252.469L123.092 253.699C123.092 253.699 144.324 281.725 147.341 299.063C147.341 299.063 182.998 300.225 196.851 306.452C196.851 306.452 217.137 291.595 222.475 289.103C222.475 289.103 235.546 246.931 243.898 234.205L241.615 232.18L244.077 230.732C244.077 230.732 242.014 230.339 241.189 230.345L244.048 226.852C244.048 226.852 227.333 223.709 203.701 259.016Z" fill="#E0DEDF"/>
<path d="M203.983 262.384C203.983 262.384 197.248 291.08 197.331 301.955" stroke="#1F142A" stroke-miterlimit="10" stroke-linecap="round" stroke-linejoin="round"/>
<path d="M126.549 247.75C126.549 247.75 167.082 246.577 190.024 255.749" stroke="#1F142A" stroke-miterlimit="10" stroke-linecap="round" stroke-linejoin="round"/>
<path d="M126.318 251.173C126.936 251.168 177.009 251.251 203.355 260.857" stroke="#1F142A" stroke-miterlimit="10" stroke-linecap="round" stroke-linejoin="round"/>
<path d="M241.945 234.832C241.945 234.832 218.489 239.298 205.203 260.23" stroke="#1F142A" stroke-miterlimit="10" stroke-linecap="round" stroke-linejoin="round"/>
<path d="M239.289 231.176C239.289 231.176 229.862 231.247 214.994 247.29" stroke="#1F142A" stroke-miterlimit="10" stroke-linecap="round" stroke-linejoin="round"/>
<path d="M171.49 257.267C171.49 257.267 152.617 254.805 133.92 255.098" stroke="#1F142A" stroke-miterlimit="10" stroke-linecap="round" stroke-linejoin="round"/>
<path d="M177.058 264.527C177.058 264.527 147.144 259.85 137.168 262.171" stroke="#1F142A" stroke-miterlimit="10" stroke-linecap="round" stroke-linejoin="round"/>
<path d="M177.442 260.95C177.442 260.95 161.342 257.292 142.189 258.661" stroke="#1F142A" stroke-miterlimit="10" stroke-linecap="round" stroke-linejoin="round"/>
<path d="M151.072 267.924C147.313 267.847 143.813 267.898 141.129 268.167" stroke="#1F142A" stroke-miterlimit="10" stroke-linecap="round" stroke-linejoin="round"/>
<path d="M162.566 268.449C159.735 268.264 156.731 268.102 153.799 268" stroke="#1F142A" stroke-miterlimit="10" stroke-linecap="round" stroke-linejoin="round"/>
<path d="M176.892 269.634C176.892 269.634 173.391 269.27 168.438 268.875" stroke="#1F142A" stroke-miterlimit="10" stroke-linecap="round" stroke-linejoin="round"/>
<path d="M196.213 263.362C196.213 263.362 186.299 260.27 181.141 259.39L181.658 273.172C181.658 273.172 191.669 275.446 194.974 276.544L196.213 263.362Z" stroke="#1F142A" stroke-miterlimit="10" stroke-linecap="round" stroke-linejoin="round"/>
<path d="M152.626 276.391C150.072 276.197 147.487 276.031 144.898 275.9" stroke="#1F142A" stroke-miterlimit="10" stroke-linecap="round" stroke-linejoin="round"/>
<path d="M161.304 277.157C159.546 276.982 157.756 276.814 155.943 276.659" stroke="#1F142A" stroke-miterlimit="10" stroke-linecap="round" stroke-linejoin="round"/>
<path d="M193.88 281.659C193.88 281.659 184.407 279.903 171.301 278.279" stroke="#1F142A" stroke-miterlimit="10" stroke-linecap="round" stroke-linejoin="round"/>
<path d="M155.291 283.425C153.226 283.247 151.083 283.076 148.865 282.916" stroke="#1F142A" stroke-miterlimit="10" stroke-linecap="round" stroke-linejoin="round"/>
<path d="M169.528 284.887C167.143 284.601 164.587 284.316 161.867 284.041" stroke="#1F142A" stroke-miterlimit="10" stroke-linecap="round" stroke-linejoin="round"/>
<path d="M193.005 288.61C193.005 288.61 188.678 287.62 180.566 286.384" stroke="#1F142A" stroke-miterlimit="10" stroke-linecap="round" stroke-linejoin="round"/>
<path d="M191.296 294.137C191.296 294.137 163.96 289.645 150.662 288.724" stroke="#1F142A" stroke-miterlimit="10" stroke-linecap="round" stroke-linejoin="round"/>
<path d="M196.213 263.362L181.658 273.172" stroke="#1F142A" stroke-miterlimit="10" stroke-linecap="round" stroke-linejoin="round"/>
<path d="M181.141 259.391L194.974 276.545" stroke="#1F142A" stroke-miterlimit="10" stroke-linecap="round" stroke-linejoin="round"/>
<path d="M192.249 297.5L192.182 302.3C192.182 302.3 166.179 297.083 151.133 296.584C151.133 296.584 148.208 291.295 148.826 291.291C149.444 291.286 180.882 293.092 192.249 297.5Z" stroke="#1F142A" stroke-miterlimit="10" stroke-linecap="round" stroke-linejoin="round"/>
<path d="M230.261 242.733C230.264 243.193 219.172 288.158 219.172 288.158" stroke="#1F142A" stroke-miterlimit="10" stroke-linecap="round" stroke-linejoin="round"/>
<path d="M223.66 255.394C223.66 255.394 215.659 259.948 213.002 262.827" stroke="#1F142A" stroke-miterlimit="10" stroke-linecap="round" stroke-linejoin="round"/>
<path d="M221.344 262.458C221.344 262.458 214.978 265.263 213.342 266.909" stroke="#1F142A" stroke-miterlimit="10" stroke-linecap="round" stroke-linejoin="round"/>
<path d="M220.456 267.469C220.456 267.469 215.732 269.547 213.578 270.788" stroke="#1F142A" stroke-miterlimit="10" stroke-linecap="round" stroke-linejoin="round"/>
<path d="M238.471 238.637C238.471 238.637 234.056 240.61 232.622 241.744L230.93 249.416L233.604 248.885L238.471 238.637Z" stroke="#1F142A" stroke-miterlimit="10" stroke-linecap="round" stroke-linejoin="round"/>
<path d="M226.976 244.34L225.278 251.399L214.721 258.423L215.806 252.185C215.806 252.185 222.043 246.011 226.976 244.34Z" stroke="#1F142A" stroke-miterlimit="10" stroke-linecap="round" stroke-linejoin="round"/>
<path d="M221.213 272.263C221.213 272.263 211.875 277.132 207.474 281.046L205.734 296.071C205.734 296.071 212.703 291.219 215.782 289.663L221.213 272.263Z" stroke="#1F142A" stroke-miterlimit="10" stroke-linecap="round" stroke-linejoin="round"/>
<path d="M213.057 256.393L209.686 273.677L204.258 277.905L206.512 262.774L213.057 256.393Z" stroke="#1F142A" stroke-miterlimit="10" stroke-linecap="round" stroke-linejoin="round"/>
<path d="M233.353 253.203C233.353 253.203 230.038 254.224 229.189 254.46" stroke="#1F142A" stroke-miterlimit="10" stroke-linecap="round" stroke-linejoin="round"/>
<path d="M232.385 256.668C232.385 256.668 229.78 257.297 229.117 257.434" stroke="#1F142A" stroke-miterlimit="10" stroke-linecap="round" stroke-linejoin="round"/>
<path d="M231.483 260.045C231.483 260.045 228.878 260.674 228.215 260.811" stroke="#1F142A" stroke-miterlimit="10" stroke-linecap="round" stroke-linejoin="round"/>
<path d="M230.269 262.964C230.269 262.964 227.664 263.594 227.002 263.73" stroke="#1F142A" stroke-miterlimit="10" stroke-linecap="round" stroke-linejoin="round"/>
<path d="M227.102 273.098C227.102 273.098 224.497 273.728 223.834 273.864" stroke="#1F142A" stroke-miterlimit="10" stroke-linecap="round" stroke-linejoin="round"/>
<path d="M226.195 275.965C226.195 275.965 223.591 276.594 222.928 276.73" stroke="#1F142A" stroke-miterlimit="10" stroke-linecap="round" stroke-linejoin="round"/>
<path d="M225.395 278.983C225.395 278.983 222.79 279.613 222.127 279.749" stroke="#1F142A" stroke-miterlimit="10" stroke-linecap="round" stroke-linejoin="round"/>
<path d="M205.149 283.515L201.836 284.842" stroke="#1F142A" stroke-miterlimit="10" stroke-linecap="round" stroke-linejoin="round"/>
<path d="M205.177 287.267L201.865 288.595" stroke="#1F142A" stroke-miterlimit="10" stroke-linecap="round" stroke-linejoin="round"/>
<path d="M205.203 290.484L201.891 291.811" stroke="#1F142A" stroke-miterlimit="10" stroke-linecap="round" stroke-linejoin="round"/>
<path d="M205.233 294.466L201.92 295.794" stroke="#1F142A" stroke-miterlimit="10" stroke-linecap="round" stroke-linejoin="round"/>
<path d="M205.734 296.071L221.212 272.263" stroke="#1F142A" stroke-miterlimit="10" stroke-linecap="round" stroke-linejoin="round"/>
<path d="M207.475 281.047L215.783 289.664" stroke="#1F142A" stroke-miterlimit="10" stroke-linecap="round" stroke-linejoin="round"/>
<path d="M137.951 274.335C138.411 277.092 143.619 276.02 144.078 278.47C144.203 279.14 143.954 279.597 143.467 279.883C142.178 280.641 139.167 280.159 136.615 278.949C136.601 278.942 136.587 278.936 136.573 278.929C133.05 277.245 137.951 274.335 137.951 274.335Z" fill="#F7986A"/>
<path d="M136.616 278.949C139.168 280.159 142.179 280.64 143.468 279.883C144.171 280.181 144.711 280.592 144.845 281.305C144.999 282.13 144.59 282.637 143.855 282.889C142.407 283.387 139.675 282.882 137.34 281.764C137.282 281.737 137.231 281.707 137.178 281.679C135.672 280.879 135.924 279.833 136.616 278.949Z" fill="#E58B67"/>
<path d="M144.664 285.657C145.21 285.943 145.612 286.331 145.725 286.933C146.185 289.384 141.743 289.078 138.219 287.393C136.56 286.6 136.769 285.535 137.455 284.63C137.528 284.671 137.6 284.712 137.683 284.751C140.3 286.002 143.417 286.489 144.664 285.657Z" fill="#C1765F"/>
<path d="M137.176 281.679C137.23 281.707 137.28 281.736 137.338 281.764C139.674 282.882 142.407 283.387 143.853 282.889C144.535 283.186 145.057 283.594 145.188 284.292C145.307 284.923 145.096 285.368 144.663 285.658C143.417 286.491 140.298 286.003 137.682 284.752C137.6 284.713 137.528 284.671 137.454 284.631C135.879 283.756 136.347 282.598 137.176 281.679Z" fill="#D38063"/>
<path d="M233.788 257.179C233.328 259.936 228.12 258.864 227.661 261.314C227.536 261.983 227.785 262.441 228.272 262.727C229.562 263.485 232.572 263.003 235.124 261.793C235.139 261.786 235.153 261.78 235.167 261.774C238.689 260.089 233.788 257.179 233.788 257.179Z" fill="#F7986A"/>
<path d="M235.123 261.793C232.57 263.003 229.56 263.485 228.271 262.728C227.568 263.026 227.027 263.437 226.894 264.149C226.739 264.975 227.149 265.481 227.884 265.734C229.331 266.231 232.063 265.726 234.4 264.609C234.457 264.581 234.508 264.552 234.562 264.523C236.067 263.724 235.815 262.678 235.123 261.793Z" fill="#E58B67"/>
<path d="M227.075 268.501C226.529 268.786 226.127 269.175 226.013 269.777C225.554 272.228 229.996 271.921 233.519 270.237C235.178 269.443 234.969 268.378 234.284 267.474C234.21 267.514 234.138 267.556 234.056 267.595C231.44 268.846 228.322 269.334 227.075 268.501Z" fill="#C1765F"/>
<path d="M234.563 264.523C234.509 264.551 234.459 264.58 234.401 264.608C232.065 265.726 229.333 266.23 227.885 265.733C227.203 266.029 226.681 266.437 226.55 267.136C226.432 267.767 226.642 268.212 227.075 268.501C228.322 269.335 231.44 268.846 234.056 267.595C234.139 267.556 234.211 267.515 234.284 267.475C235.86 266.6 235.393 265.442 234.563 264.523Z" fill="#D38063"/>
<path d="M185.892 244.752L185.591 250.669C177.932 249.75 172.877 246.073 172.877 246.073L173.853 237.562C176.869 240.538 180.567 242.997 183.497 244.123C184.38 244.462 185.189 244.676 185.892 244.752Z" fill="#F7986A"/>
<path d="M184.779 207.985C200.204 209.068 198.839 217.727 198.839 217.727C198.839 217.727 199.385 229.904 198.02 235.723C196.838 240.765 192.68 243.872 188.394 244.612C187.735 244.726 187.073 244.788 186.418 244.788C186.252 244.788 186.074 244.771 185.893 244.752C185.189 244.676 184.38 244.462 183.497 244.123C180.567 242.997 176.87 240.538 173.854 237.562C171.084 234.83 168.89 231.662 168.399 228.687C167.17 221.245 169.354 206.903 184.779 207.985Z" fill="#F7986A"/>
<path d="M173.312 234.91C173.312 234.91 167.169 231.122 170.855 228.01C172.514 226.609 173.786 228.004 174.683 229.963L175.769 230.039C175.769 230.039 176.588 222.598 180 222.056C180 222.056 179.591 214.885 184.641 214.885C189.692 214.885 198.156 210.961 198.838 221.245C198.838 221.245 206.209 215.156 204.844 211.232C203.479 207.308 197.883 207.985 197.883 207.985C197.883 207.985 201.295 206.09 199.794 204.737C198.292 203.384 193.378 205.955 189.693 203.519C186.007 201.084 169.49 199.189 167.988 212.449C167.988 212.449 161.846 217.05 164.166 223.815C166.487 230.581 166.896 239.647 173.312 234.91Z" fill="#1F142A"/>
<path d="M187.061 228.37C186.912 229.242 186.079 229.829 185.2 229.682C184.32 229.535 183.728 228.709 183.876 227.837C184.025 226.966 184.858 226.378 185.737 226.525C186.617 226.673 187.209 227.499 187.061 228.37Z" fill="#2D0C0A"/>
<path d="M196.541 228.073C196.393 228.945 195.56 229.532 194.681 229.385C193.801 229.238 193.208 228.412 193.357 227.54C193.505 226.669 194.339 226.081 195.218 226.228C196.097 226.376 196.69 227.202 196.541 228.073Z" fill="#2D0C0A"/>
<path d="M191.467 224.699C191.33 224.689 191.195 224.639 191.082 224.546C190.796 224.31 190.753 223.891 190.988 223.604C191.081 223.492 193.325 220.851 197.762 222.723C198.107 222.868 198.268 223.264 198.121 223.606C197.974 223.95 197.575 224.109 197.228 223.963C193.769 222.502 192.107 224.38 192.038 224.461C191.892 224.632 191.677 224.714 191.467 224.699Z" fill="#1F142A"/>
<path d="M182.238 224.699C182.102 224.689 181.967 224.639 181.854 224.546C181.567 224.31 181.524 223.891 181.759 223.604C181.853 223.491 184.097 220.851 188.534 222.723C188.879 222.868 189.039 223.264 188.892 223.606C188.745 223.95 188.346 224.109 188 223.962C184.541 222.502 182.879 224.379 182.809 224.46C182.664 224.632 182.449 224.713 182.238 224.699Z" fill="#1F142A"/>
<path d="M190.563 237.203C190.559 237.205 190.555 237.206 190.551 237.208C189.564 237.596 188.65 237.616 187.836 237.264C186.556 236.713 186.041 235.433 186.02 235.379C185.884 235.033 186.1 234.659 186.407 234.506C186.756 234.372 187.149 234.542 187.287 234.886C187.413 235.198 188.142 236.707 190.05 235.954C190.399 235.818 190.795 235.987 190.933 236.332C191.07 236.675 190.905 237.062 190.563 237.203Z" fill="#BA6349"/>
<path d="M188.994 233.928C188.958 233.926 188.937 233.923 188.929 233.922C188.557 233.88 188.288 233.546 188.331 233.176C188.374 232.809 188.734 232.55 189.08 232.583C189.12 232.597 189.983 232.654 190.393 232.169C190.795 231.693 190.654 230.806 190.466 230.146C189.367 226.309 190.251 224.83 190.356 224.674C190.563 224.362 190.986 224.279 191.298 224.485C191.611 224.69 191.697 225.109 191.49 225.418C191.491 225.418 190.862 226.588 191.774 229.777C192.181 231.2 192.065 232.3 191.427 233.044C190.624 233.982 189.306 233.95 188.994 233.928Z" fill="#BA6349"/>
<path d="M182.65 232.551C182.65 232.551 184.054 231.143 184.781 232.135C185.658 233.33 181.738 234.901 181.738 234.901C181.738 234.901 179.744 231.413 181.225 230.976C182.704 230.539 182.65 232.551 182.65 232.551Z" fill="#FF7694"/>
<path d="M195.525 232.564C195.525 232.564 193.914 231.393 193.354 232.486C192.679 233.803 196.799 234.742 196.799 234.742C196.799 234.742 198.213 230.986 196.681 230.786C195.15 230.586 195.525 232.564 195.525 232.564Z" fill="#FF7694"/>
<path d="M171.514 230.658C171.474 230.648 171.435 230.632 171.398 230.608C171.22 230.494 171.169 230.258 171.283 230.081C171.742 229.369 172.415 229.411 172.701 229.526C172.896 229.607 172.989 229.83 172.909 230.025C172.83 230.217 172.61 230.308 172.418 230.236C172.355 230.213 172.132 230.173 171.925 230.494C171.835 230.634 171.668 230.695 171.514 230.658Z" fill="#BA6349"/>
<path d="M173.457 231.853C173.391 231.875 173.32 231.88 173.248 231.862C172.02 231.574 171.616 230.078 171.6 230.014C171.546 229.811 171.652 229.606 171.872 229.549C172.075 229.496 172.284 229.617 172.338 229.82C172.341 229.831 172.644 230.937 173.422 231.119C173.627 231.167 173.754 231.373 173.706 231.578C173.676 231.712 173.578 231.814 173.457 231.853Z" fill="#BA6349"/>
<path d="M183.497 244.123C184.379 244.462 185.189 244.676 185.893 244.752L185.753 247.488C185.082 247.4 184.324 247.197 183.497 246.88C180.567 245.754 176.87 243.295 173.854 240.319C173.758 240.225 173.665 240.129 173.57 240.033L173.854 237.562C176.869 240.538 180.567 242.997 183.497 244.123Z" fill="#BA6349"/>
</g>
<defs>
<clipPath id="clip0_1045_1724">
<rect width="375" height="375" rx="50" fill="white"/>
</clipPath>
</defs>
</svg>
