<svg width="376" height="376" viewBox="0 0 376 376" fill="none" xmlns="http://www.w3.org/2000/svg">
<g clip-path="url(#clip0_1041_809)">
<path d="M65.0953 348.686C20.2362 348.686 4.48331 270.399 27.5494 176.314C50.6155 82.2279 95.0046 30 194.608 30C294.212 30 317.491 83.0213 340.556 163.021C363.621 243.02 361.061 348.066 288.537 348.066C216.013 348.066 65.0953 348.686 65.0953 348.686Z" fill="#DDD0BC"/>
<path d="M323.315 90.9481C325.104 93.077 327.278 95.0954 329.998 95.6819C333.896 96.5219 337.985 94.0245 339.879 90.5157C341.773 87.0069 341.805 82.7536 340.977 78.8529C339.494 71.8699 335.328 65.4914 329.531 61.3268C328.21 60.3778 326.759 59.522 325.149 59.2972C321.422 58.7753 317.964 61.8946 316.774 65.4658C313.776 74.4628 317.543 84.0786 323.315 90.9481Z" fill="#DDD0BC"/>
<path d="M40.2652 112.287C33.1889 116.685 32.3557 104.368 32.4843 100.277C32.8798 87.7047 40.4111 78.043 49.8104 70.4328C59.818 62.3307 59.3991 74.8982 57.2409 81.2458C54.0238 90.7052 50.2225 102.957 42.9424 110.11C41.9745 111.061 41.0857 111.776 40.2652 112.287Z" fill="#DDD0BC"/>
<path d="M34.5547 320.875C42.7064 338.27 55.0873 348.43 71.2463 348.43C71.2463 348.43 222.165 347.81 294.689 347.81C317.41 347.81 333.263 337.496 343.614 320.875H34.5547Z" fill="#D6C6AE"/>
<path d="M291.367 255.105C292.084 254.654 292.963 255.164 293.779 257.38C295.924 263.203 298.07 269.026 300.215 274.848C297.757 268.177 296.102 260.083 297.556 252.886C298.067 250.36 300.628 240.602 304.592 244.091C307.61 246.749 306.112 253.579 305.749 256.971C305.229 261.825 305.743 267.901 303.85 272.389C306.512 266.077 307.697 259.254 309.762 252.722C310.982 248.859 313.092 238.101 317.962 237.167C324.95 235.825 318.697 251.711 317.665 254.73C315.441 261.241 313.048 267.694 310.49 274.081C315.301 266.344 322 259.79 329.84 255.149C333.744 252.838 334.907 256.703 333.014 259.854C328.545 267.29 323.028 274.096 316.677 280.008C322.16 275.443 328.029 270.699 335.087 269.66C342.262 268.605 335.419 275.096 333.617 276.585C328.729 280.623 323.389 284.114 317.726 286.968C322.499 284.926 327.913 284.412 332.985 285.519C333.162 288.181 330.263 289.916 327.717 290.715C318.067 293.741 306.786 293.696 300.123 285.54C295.999 280.491 293.036 274.503 291.483 268.165C290.765 265.236 289.71 262.046 289.897 258.996C290.007 257.204 290.592 255.593 291.367 255.105Z" fill="#4D867E"/>
<path d="M205.904 213.826C206.62 213.612 207.245 214.253 207.415 216.328C207.862 221.78 208.308 227.233 208.755 232.684C208.243 226.437 208.75 219.172 211.685 213.403C212.715 211.378 217.197 203.696 219.739 207.596C221.674 210.566 218.789 216.013 217.679 218.808C216.09 222.807 215.091 228.089 212.424 231.453C216.176 226.721 218.795 221.207 222.091 216.147C224.04 213.156 228.373 204.518 232.729 204.874C238.981 205.386 229.917 217.4 228.328 219.721C224.9 224.725 221.343 229.64 217.662 234.46C223.575 229.025 230.813 225.041 238.568 222.953C242.43 221.913 242.504 225.47 240.153 227.698C234.6 232.958 228.307 237.435 221.517 240.954C227.252 238.373 233.357 235.73 239.596 236.516C245.939 237.315 238.595 241.211 236.712 242.05C231.607 244.325 226.247 246.027 220.763 247.114C225.299 246.507 230.018 247.349 234.065 249.488C233.586 251.791 230.714 252.58 228.364 252.656C219.453 252.946 209.883 250.243 206.152 241.742C203.842 236.48 202.741 230.695 202.919 224.946C203.002 222.288 202.859 219.331 203.739 216.784C204.254 215.287 205.131 214.057 205.904 213.826Z" fill="#4D867E"/>
<path d="M106.17 235.929C106.14 234.871 107.248 234.249 110.154 234.779C117.788 236.172 125.423 237.565 133.056 238.958C124.309 237.362 114.541 233.996 107.717 227.854C105.321 225.697 96.442 216.733 102.721 214.683C107.503 213.124 113.904 219.081 117.326 221.629C122.222 225.276 129.091 228.587 132.719 233.479C127.616 226.599 121.023 220.983 115.302 214.607C111.92 210.836 101.677 201.723 103.768 195.885C106.769 187.507 119.897 204.342 122.492 207.374C128.088 213.91 133.514 220.59 138.765 227.406C133.493 217.306 130.696 205.925 130.685 194.531C130.68 188.858 135.581 190.063 137.769 194.105C142.934 203.647 146.755 213.915 149.081 224.513C147.652 215.707 146.276 206.37 149.647 198.11C153.073 189.713 155.711 201.209 156.168 204.097C157.408 211.928 157.77 219.898 157.242 227.811C158.078 221.372 160.967 215.216 165.385 210.459C168.365 211.961 168.39 216.187 167.63 219.436C164.751 231.751 157.529 243.869 144.509 245.857C136.449 247.087 128.118 246.469 120.306 244.11C116.695 243.02 112.59 242.128 109.424 239.987C107.565 238.728 106.202 237.074 106.17 235.929Z" fill="#4D867E"/>
<path d="M319.752 321.219H63.8136C58.9264 321.219 54.9648 325.211 54.9648 330.136C54.9648 335.061 58.9264 339.053 63.8136 339.053H319.752C324.639 339.053 328.6 335.061 328.6 330.136C328.6 325.211 324.638 321.219 319.752 321.219Z" fill="#D27648"/>
<path d="M91.1054 238.037C78.735 238.037 68.707 248.064 68.707 260.435C68.707 272.805 78.735 282.833 91.1054 282.833H300.479V238.037H91.1054Z" fill="#8382A8"/>
<path d="M91.1054 238.037C78.735 238.037 68.707 248.064 68.707 260.435C68.707 272.805 78.735 282.833 91.1054 282.833H300.479V238.037H91.1054Z" fill="#FF8F3D"/>
<path d="M250.976 238.037C238.606 238.037 228.578 248.064 228.578 260.435C228.578 272.805 238.606 282.833 250.976 282.833H300.48V238.037H250.976Z" fill="#FFCE5E"/>
<path d="M300.48 240.873H252.415C241.91 240.873 233.395 249.389 233.395 259.893C233.395 270.398 241.91 278.914 252.415 278.914H300.48V240.873Z" fill="white"/>
<path d="M278.197 271.576C266.615 271.591 255.037 271.651 243.456 271.797C241.53 271.821 239.605 271.867 237.68 271.919C237.954 272.256 238.243 272.58 238.539 272.897C239.375 272.916 240.212 272.939 241.048 272.95C246.895 273.023 252.742 273.114 258.59 273.143C270.17 273.2 281.75 273.198 293.33 273.226C295.713 273.232 298.096 273.238 300.479 273.244V271.533C298.899 271.537 297.319 271.541 295.738 271.545C289.892 271.559 284.044 271.568 278.197 271.576Z" fill="#D5F2F9"/>
<path d="M241.048 247.21C246.896 247.284 252.743 247.374 258.59 247.403C270.17 247.461 281.75 247.458 293.33 247.486C295.713 247.492 298.097 247.498 300.48 247.504V245.793C298.899 245.797 297.319 245.802 295.738 245.805C289.891 245.82 284.043 245.828 278.196 245.836C266.614 245.851 255.036 245.912 243.455 246.057C242.064 246.074 240.673 246.106 239.283 246.139C238.942 246.466 238.61 246.801 238.293 247.152C239.212 247.173 240.13 247.198 241.048 247.21Z" fill="#D5F2F9"/>
<path d="M278.196 256.735C266.615 256.75 255.036 256.81 243.456 256.956C240.165 256.997 236.876 257.095 233.587 257.199C233.553 257.437 233.521 257.675 233.496 257.915C236.013 258 238.53 258.077 241.048 258.109C246.895 258.183 252.742 258.273 258.59 258.302C270.17 258.359 281.75 258.357 293.33 258.385C295.713 258.391 298.096 258.397 300.479 258.403V256.692C298.898 256.696 297.318 256.7 295.738 256.704C289.892 256.719 284.044 256.727 278.196 256.735Z" fill="#D5F2F9"/>
<path d="M278.197 262.301C266.615 262.316 255.037 262.376 243.456 262.522C240.173 262.563 236.891 262.66 233.609 262.764C233.646 263.007 233.691 263.248 233.737 263.489C236.174 263.57 238.61 263.644 241.048 263.675C246.896 263.749 252.743 263.839 258.59 263.869C270.17 263.926 281.75 263.923 293.33 263.951C295.713 263.957 298.096 263.963 300.479 263.969V262.258C298.899 262.262 297.319 262.267 295.738 262.271C289.892 262.284 284.045 262.292 278.197 262.301Z" fill="#D5F2F9"/>
<path d="M100.947 270.282H93.6443C89.5534 270.282 86.2363 266.965 86.2363 262.874V255.615C86.2363 251.524 89.5526 248.207 93.6443 248.207H100.947C103.341 248.207 105.281 250.148 105.281 252.541V265.948C105.281 268.341 103.341 270.282 100.947 270.282Z" fill="#FFCE5E"/>
<path d="M200.711 270.282H193.408C189.317 270.282 186 266.965 186 262.874V255.615C186 251.524 189.316 248.207 193.408 248.207H200.711C203.104 248.207 205.044 250.148 205.044 252.541V265.948C205.044 268.341 203.103 270.282 200.711 270.282Z" fill="#FFCE5E"/>
<path d="M175.179 254.899H114.369C113.511 254.899 113.509 256.232 114.369 256.232H175.179C176.037 256.232 176.039 254.899 175.179 254.899Z" fill="#FFCE5E"/>
<path d="M175.179 262.04H114.369C113.511 262.04 113.509 263.374 114.369 263.374H175.179C176.037 263.373 176.039 262.04 175.179 262.04Z" fill="#FFCE5E"/>
<path d="M303.992 283.017C318.251 283.017 329.81 294.576 329.81 308.835C329.81 323.094 318.251 334.653 303.992 334.653H62.6543V283.017H303.992Z" fill="#8382A8"/>
<path d="M303.992 283.017C318.251 283.017 329.81 294.576 329.81 308.835C329.81 323.094 318.251 334.653 303.992 334.653H62.6543V283.017H303.992Z" fill="#ED6C6B"/>
<path d="M288.685 283.017H269.791C281.542 283.017 291.068 294.576 291.068 308.835C291.068 323.094 281.542 334.653 269.791 334.653H288.685C300.436 334.653 309.962 323.094 309.962 308.835C309.962 294.576 300.436 283.017 288.685 283.017Z" fill="#FFCE5E"/>
<path d="M162.808 283.017H143.914C155.665 283.017 165.191 294.576 165.191 308.835C165.191 323.094 155.665 334.653 143.914 334.653H162.808C174.559 334.653 184.085 323.094 184.085 308.835C184.085 294.576 174.559 283.017 162.808 283.017Z" fill="#FFCE5E"/>
<path d="M119.715 283.017C133.973 283.017 145.532 294.576 145.532 308.835C145.532 323.094 133.973 334.653 119.715 334.653H62.6543V283.017H119.715Z" fill="#FFCE5E"/>
<path d="M62.6523 286.287H118.056C130.165 286.287 139.98 296.103 139.98 308.211C139.98 320.32 130.165 330.136 118.056 330.136H62.6523V286.287Z" fill="white"/>
<path d="M88.3377 321.677C101.687 321.694 115.034 321.764 128.382 321.931C130.602 321.959 132.821 322.012 135.04 322.073C134.723 322.461 134.391 322.834 134.049 323.2C133.085 323.222 132.121 323.249 131.157 323.261C124.417 323.346 117.678 323.45 110.937 323.483C97.5888 323.55 84.2408 323.546 70.8928 323.579C68.1457 323.586 65.3986 323.592 62.6523 323.599V321.627C64.4737 321.633 66.2958 321.637 68.1171 321.642C74.8573 321.658 81.5975 321.669 88.3377 321.677Z" fill="#D5F2F9"/>
<path d="M131.159 293.591C124.419 293.676 117.68 293.781 110.939 293.814C97.5907 293.88 84.2427 293.877 70.8947 293.909C68.1477 293.916 65.4006 293.923 62.6543 293.93V291.958C64.4756 291.963 66.2977 291.968 68.1191 291.972C74.8593 291.989 81.5994 291.999 88.3396 292.008C101.689 292.025 115.036 292.094 128.384 292.262C129.987 292.282 131.589 292.318 133.192 292.357C133.585 292.733 133.969 293.121 134.333 293.524C133.275 293.549 132.217 293.579 131.159 293.591Z" fill="#D5F2F9"/>
<path d="M88.3384 304.571C101.688 304.588 115.034 304.657 128.382 304.825C132.175 304.872 135.967 304.985 139.758 305.104C139.797 305.378 139.834 305.653 139.862 305.93C136.961 306.028 134.06 306.117 131.157 306.154C124.417 306.239 117.678 306.344 110.937 306.377C97.5888 306.443 84.2408 306.44 70.8928 306.472C68.1457 306.479 65.3986 306.486 62.6523 306.493V304.521C64.4737 304.525 66.2958 304.531 68.1171 304.535C74.8581 304.552 81.5982 304.562 88.3384 304.571Z" fill="#D5F2F9"/>
<path d="M88.3384 310.986C101.688 311.003 115.034 311.072 128.382 311.24C132.167 311.287 135.95 311.399 139.732 311.519C139.689 311.8 139.637 312.077 139.584 312.354C136.775 312.448 133.968 312.534 131.157 312.57C124.417 312.655 117.678 312.758 110.937 312.792C97.5888 312.858 84.2408 312.855 70.8928 312.888C68.1457 312.894 65.3986 312.901 62.6523 312.908V310.936C64.4737 310.941 66.2958 310.946 68.1171 310.95C74.8581 310.967 81.5982 310.977 88.3384 310.986Z" fill="#D5F2F9"/>
<path d="M206.195 283.451C204.825 285.248 204.484 290.91 205.962 293.186C207.44 295.462 219.879 298.721 225.022 297.939C230.165 297.157 230.939 293.166 227.875 289.571C224.812 285.976 216.611 283.906 216.611 283.906L206.195 283.451Z" fill="#222859"/>
<path d="M205.24 276.336L206.277 284.901C206.277 284.901 211.33 287.566 216.713 284.721L218.054 273.46L205.24 276.336Z" fill="#C18F71"/>
<path d="M165.516 217.735C164.668 227.639 171.348 234.59 180.68 235.517C190.012 236.445 195.328 237.729 197.15 239.62C198.97 241.51 201.995 275.195 202.144 279.054C202.144 279.054 218.429 278.945 222.506 278.024C222.506 278.024 222.903 236.139 218.287 224.698C213.67 213.258 202.884 209.346 202.884 209.346L171.391 203.895L165.516 217.735Z" fill="#697BAE"/>
<path d="M206.277 284.901C206.055 287.858 210.556 291.038 216.438 291.392C222.32 291.747 222.939 289.84 222.601 288.333C222.263 286.826 216.713 284.72 216.713 284.72L206.277 284.901Z" fill="#C18F71"/>
<path d="M176.916 287.59C175.186 289.044 173.614 294.494 174.557 297.038C175.5 299.583 186.924 305.487 192.113 305.85C197.302 306.214 198.931 302.489 196.729 298.31C194.527 294.131 186.98 290.316 186.98 290.316L176.916 287.59Z" fill="#222859"/>
<path d="M177.544 280.44L176.68 289.024C176.68 289.024 181.027 292.73 186.902 291.133L190.676 280.44H177.544Z" fill="#C18F71"/>
<path d="M148.467 213.705C145.47 223.183 149.284 236.648 158.187 239.596C167.09 242.545 175.993 240.651 177.356 242.894C178.718 245.138 174.626 278.615 173.927 282.412C173.927 282.412 189.841 285.872 194.021 285.868C194.021 285.868 205.246 245.501 203.247 233.328C201.248 221.154 179.991 206.074 179.991 206.074L159.278 207.346L148.467 213.705Z" fill="#697BAE"/>
<path d="M192.811 128.701C194.526 127.031 194.963 124.378 193.736 122.392C195.378 120.655 196.061 117.402 196.015 115.47C195.942 112.459 194.156 109.669 191.403 108.741C192.667 105.618 192.28 101.754 190.148 99.1159C188.976 97.6652 187.426 96.6252 185.649 96.0725C185.066 95.8913 184.42 95.7454 183.762 95.6747C183.756 95.6333 183.756 95.595 183.75 95.5529C183.589 94.4677 183.013 93.4909 182.194 92.769C180.976 91.6936 179.251 91.2041 177.662 91.5071C177.024 88.5397 174.609 86.0589 171.659 85.2828C169.918 84.8248 167.979 84.9775 166.302 85.6152C165.417 85.9521 164.555 86.4153 163.794 86.9823C160.771 85.7325 157.272 85.6348 154.275 87.0974C150.833 88.7774 148.375 92.3306 148.33 96.1643C144.216 96.2485 141.155 100.38 142.548 104.373C139.665 106.175 137.617 109.229 137.233 112.641C136.865 115.916 137.978 119.239 140.107 121.716C136.342 123.595 135.54 128.943 138.51 131.998C136.776 134.673 137.802 138.131 140.492 139.672C139.256 141.78 138.784 144.375 139.792 146.686C140.676 148.709 142.572 150.201 144.731 150.462C144.121 153.404 145.854 156.495 148.448 158C150.44 159.156 152.797 159.27 155.024 158.728C157.061 159.897 159.4 160.464 161.79 160.416C164.88 160.353 167.547 159.139 169.971 157.364C172.574 159.306 176.509 159.625 179.452 158.496C182.338 157.388 184.534 154.974 185.519 152.084C188.231 152.303 191.046 151.132 192.635 148.877C194.229 146.615 194.502 143.681 193.453 141.175C195.415 139.528 196.599 136.963 196.362 134.383C196.148 132.043 194.764 129.948 192.811 128.701Z" fill="#222859"/>
<path d="M158.006 143.209C148.558 145.571 144.561 152.475 141.472 159.198C138.384 165.92 136.567 186.361 138.384 192.174C140.201 197.989 144.652 199.897 149.649 196.807L147.378 215.067C147.378 215.067 162.185 209.408 177.811 208.254C186.959 207.579 196.374 209.408 202.884 209.345L196.707 171.371L211.517 179.308C211.517 179.308 204.306 156.263 198.871 148.918C193.435 141.574 189.542 141.796 186.289 141.15C183.037 140.503 178.088 144.152 178.088 144.152L158.006 143.209Z" fill="#D27648"/>
<path d="M177.355 159.561L179.627 156.745L200.34 164.285L215.057 157.199L216.964 159.38L199.522 170.008L177.355 159.561Z" fill="white"/>
<path d="M176.356 158.198L200.339 167.283L217.962 157.835L207.788 191.72L191.89 197.535L168.361 188.722L176.356 158.198Z" fill="#697BAE"/>
<path d="M164.121 132.913C164.121 132.913 164.606 138.121 163.394 140.544C162.183 142.967 158.004 143.209 158.004 143.209C158.004 143.209 164.579 154.158 174.416 152.9C184.833 151.567 186.287 141.15 186.287 141.15C186.287 141.15 183.137 141.029 181.199 140.302C179.261 139.576 178.777 132.308 178.777 132.308L164.121 132.913Z" fill="#C18F71"/>
<path d="M147.195 180.819C147.195 180.819 169.997 176.822 172.268 175.823C174.539 174.823 179.445 169.554 180.716 168.646C181.988 167.737 182.624 168.646 182.442 169.736C182.26 170.827 180.352 173.552 180.352 173.552C180.352 173.552 182.624 171.917 183.805 170.645C184.986 169.373 185.895 167.919 186.53 167.646C187.166 167.374 188.801 167.828 188.62 168.827C188.62 168.827 191.254 168.01 191.073 170.462C191.073 170.462 192.254 171.37 191.346 173.096C191.346 173.096 191.528 174.277 190.892 175.64C190.256 177.003 187.349 179.183 184.805 181C182.261 182.816 179.173 183.089 178.536 183.544C177.9 183.998 152.464 194.354 149.83 194.991C149.83 194.991 141.744 188.904 147.195 180.819Z" fill="#C18F71"/>
<path d="M213.097 176.677C212.028 174.752 210.555 173.429 210.19 173.77C209.281 174.617 210.614 177.04 210.614 177.04C210.614 177.04 208.434 175.042 207.526 173.649C206.617 172.256 205.224 172.377 205.285 173.346C205.285 173.346 203.831 172.861 203.771 174.557C203.771 174.557 203.044 174.86 203.165 176.071C203.165 176.071 202.62 176.737 203.044 178.312C203.468 179.887 205.709 183.823 208.374 185.458C211.039 187.093 213.703 184.792 214.248 182.067C214.793 179.342 214.005 178.313 213.097 176.677Z" fill="#C18F71"/>
<path d="M176.68 289.024C175.815 291.859 179.511 295.947 185.172 297.583C190.833 299.219 191.855 297.492 191.855 295.948C191.855 294.404 186.902 291.133 186.902 291.133L176.68 289.024Z" fill="#C18F71"/>
<path d="M178.821 132.822L178.568 132.316L164.121 132.913C164.121 132.913 164.606 138.121 163.394 140.544C163.16 141.011 162.815 141.396 162.412 141.715C163.345 142.117 164.345 142.394 165.34 142.558C170.495 143.406 175.987 141.643 179.754 138.039C179.179 136.219 178.914 133.845 178.821 132.822Z" fill="#A36856"/>
<path d="M183.858 110.614C186.386 116.854 188.957 135.741 174.79 138.832C159.689 142.126 154.81 128.642 154.81 128.642C154.81 128.642 150.679 129.591 149.401 125.892C148.122 122.193 152.576 121.716 152.576 121.716C152.576 121.716 156.921 118.542 156.519 113.69C156.519 113.69 163.392 113.917 164.909 108.933C164.909 108.933 171.362 109.862 172.831 106.434C172.831 106.434 176.039 109.515 178.829 107.813C178.829 107.813 182.077 111.76 183.858 110.614Z" fill="#C18F71"/>
<path d="M153.492 125.573C153.48 125.54 153.468 125.507 153.454 125.474C153.477 125.531 153.295 125.085 153.418 125.391C153.375 125.285 153.332 125.176 153.274 125.077C153.075 124.741 152.762 124.473 152.428 124.279C152.259 124.182 152.073 124.11 151.891 124.042C151.676 123.96 151.431 123.869 151.2 123.942C150.885 124.04 150.736 124.391 150.898 124.685C150.952 124.782 151.024 124.838 151.107 124.902C151.145 124.931 151.209 124.976 151.236 124.99C151.318 125.031 151.398 125.073 151.477 125.118C151.622 125.2 151.761 125.291 151.897 125.386C151.902 125.39 151.899 125.388 151.905 125.393C151.915 125.402 151.924 125.411 151.935 125.42C151.788 125.569 151.676 125.758 151.633 125.977C151.542 126.428 151.641 126.937 152.011 127.243C152.165 127.37 152.344 127.478 152.555 127.468C152.771 127.458 152.929 127.376 153.098 127.243C153.427 126.983 153.58 126.527 153.578 126.118C153.577 125.937 153.549 125.746 153.492 125.573Z" fill="#A36856"/>
<path d="M151.131 124.923C151.122 124.916 151.115 124.91 151.107 124.903C151.066 124.873 151.053 124.862 151.131 124.923Z" fill="#A36856"/>
<path d="M184.12 111.309C184.033 111.064 183.946 110.83 183.858 110.614C182.077 111.76 178.828 107.813 178.828 107.813C176.038 109.515 172.831 106.434 172.831 106.434C171.361 109.862 164.909 108.933 164.909 108.933C163.393 113.917 156.519 113.69 156.519 113.69C156.921 118.542 152.576 121.715 152.576 121.715C156.797 121.066 157.853 117.887 158.006 115.07C158.006 115.07 164.246 115.706 166.063 110.437C166.063 110.437 170.878 111.346 173.149 108.711C173.149 108.711 176.057 110.891 178.328 109.529C178.328 109.529 180.977 112.846 184.12 111.309Z" fill="#A36856"/>
<path d="M149.115 189.36C147.546 186.813 146.764 183.679 147.411 180.781C147.276 180.804 147.195 180.818 147.195 180.818C141.744 188.904 149.829 194.991 149.829 194.991C150.289 194.879 151.454 194.468 153.051 193.869C151.537 192.544 150.168 191.068 149.115 189.36Z" fill="#A36856"/>
<path d="M214.25 182.067C214.323 181.701 214.369 181.37 214.396 181.06C213.791 182.547 212.579 183.826 211.152 184.612C210.353 185.052 209.502 185.364 208.621 185.588C211.202 186.941 213.721 184.709 214.25 182.067Z" fill="#A36856"/>
<path d="M182.526 169.33C182.511 169.296 182.472 169.28 182.442 169.308C182.164 169.562 182.111 170.032 181.984 170.372C181.834 170.775 181.653 171.166 181.445 171.542C181.247 171.903 181.024 172.249 180.78 172.579C180.647 172.757 180.507 172.929 180.362 173.097C180.225 173.257 180.064 173.404 179.952 173.583C179.84 173.762 180.067 174.005 180.249 173.881C180.597 173.644 180.866 173.235 181.109 172.897C181.369 172.534 181.602 172.151 181.807 171.754C182.002 171.373 182.172 170.979 182.315 170.576C182.442 170.214 182.68 169.711 182.526 169.33Z" fill="#A36856"/>
<path d="M188.35 168.031C188.311 167.993 188.251 168.032 188.261 168.083C188.344 168.497 188.395 168.92 188.268 169.331C188.131 169.774 187.849 170.16 187.57 170.523C187.067 171.178 186.522 171.803 185.95 172.4C185.4 172.972 184.818 173.509 184.223 174.034C183.909 174.311 183.588 174.578 183.259 174.837C182.971 175.064 182.571 175.275 182.397 175.61C182.318 175.763 182.448 175.899 182.602 175.878C183.031 175.82 183.426 175.416 183.758 175.16C184.091 174.902 184.417 174.637 184.736 174.362C185.452 173.744 186.11 173.053 186.728 172.339C187.31 171.667 187.938 170.948 188.348 170.156C188.674 169.527 188.923 168.589 188.35 168.031Z" fill="#A36856"/>
<path d="M191.013 170.211C190.987 170.141 190.868 170.1 190.83 170.187C190.698 170.495 190.665 170.818 190.567 171.137C190.457 171.497 190.274 171.845 190.091 172.172C189.698 172.871 189.168 173.454 188.585 173.999C188.005 174.541 187.374 175.025 186.75 175.515C186.088 176.035 185.344 176.518 184.849 177.21C184.819 177.251 184.868 177.314 184.915 177.297C185.772 176.976 186.488 176.321 187.214 175.778C187.878 175.283 188.554 174.792 189.158 174.223C189.731 173.683 190.265 173.055 190.622 172.349C190.92 171.759 191.255 170.862 191.013 170.211Z" fill="#A36856"/>
<path d="M191.554 172.665C191.551 172.655 191.538 172.649 191.527 172.655C191.292 172.796 191.191 173.136 191.069 173.368C190.911 173.669 190.752 173.97 190.573 174.26C190.215 174.842 189.802 175.384 189.335 175.883C188.872 176.379 188.364 176.832 187.816 177.233C187.554 177.425 187.282 177.606 187.003 177.774C186.763 177.918 186.334 178.065 186.211 178.33C186.172 178.414 186.197 178.538 186.304 178.559C186.603 178.617 186.918 178.373 187.162 178.221C187.464 178.033 187.755 177.828 188.038 177.611C188.605 177.175 189.128 176.684 189.599 176.146C190.057 175.623 190.472 175.058 190.83 174.463C191.013 174.159 191.188 173.846 191.331 173.521C191.442 173.273 191.635 172.943 191.554 172.665Z" fill="#A36856"/>
<path d="M208.301 179.074C207.694 178.078 207.024 177.126 206.503 176.079C206.249 175.57 206.006 175.042 205.843 174.496C205.764 174.232 205.698 173.962 205.645 173.692C205.594 173.435 205.581 173.171 205.479 172.929C205.454 172.871 205.372 172.897 205.356 172.945C205.189 173.422 205.348 174.066 205.454 174.546C205.578 175.114 205.746 175.66 205.979 176.194C206.465 177.31 207.131 178.358 207.849 179.338C208.044 179.602 208.48 179.368 208.301 179.074Z" fill="#A36856"/>
<path d="M207.191 180.17C207.115 179.917 206.944 179.735 206.771 179.542C206.585 179.335 206.406 179.122 206.233 178.905C205.857 178.43 205.501 177.943 205.184 177.427C204.885 176.939 204.617 176.43 204.381 175.91C204.247 175.618 204.127 175.316 204.052 175.002C203.975 174.682 204.029 174.351 203.945 174.038C203.926 173.969 203.843 173.97 203.805 174.02C203.46 174.48 203.745 175.319 203.918 175.8C204.132 176.395 204.407 176.969 204.714 177.521C205.019 178.066 205.36 178.592 205.74 179.088C205.933 179.339 206.139 179.58 206.353 179.814C206.55 180.03 206.743 180.244 207.031 180.33C207.125 180.357 207.219 180.263 207.191 180.17Z" fill="#A36856"/>
<path d="M205.87 181.109C205.201 180.18 204.447 179.343 203.929 178.31C203.673 177.8 203.483 177.249 203.398 176.683C203.353 176.388 203.35 176.098 203.359 175.801C203.363 175.629 203.418 175.424 203.304 175.284C203.301 175.279 203.295 175.28 203.29 175.281C203.122 175.368 203.104 175.609 203.083 175.781C203.046 176.075 203.055 176.379 203.086 176.672C203.147 177.237 203.301 177.785 203.523 178.307C203.992 179.412 204.772 180.451 205.593 181.321C205.727 181.464 205.988 181.274 205.87 181.109Z" fill="#A36856"/>
<path d="M210.818 176.994C210.756 176.87 210.692 176.746 210.631 176.621C210.493 176.342 210.374 176.053 210.273 175.757C210.182 175.49 210.101 175.214 210.079 174.931C210.068 174.796 210.056 174.658 210.059 174.523C210.06 174.384 210.109 174.248 210.104 174.111C210.103 174.071 210.054 174.032 210.016 174.06C209.821 174.208 209.733 174.559 209.725 174.793C209.716 175.111 209.798 175.44 209.891 175.742C209.989 176.06 210.11 176.371 210.247 176.674C210.317 176.828 210.389 176.981 210.476 177.126C210.559 177.265 210.637 177.415 210.793 177.48C210.865 177.51 210.937 177.476 210.944 177.394C210.954 177.243 210.883 177.125 210.818 176.994Z" fill="#A36856"/>
<path d="M186.43 148.321C187.706 146.231 188.274 143.923 188.747 141.581C188.549 141.542 188.354 141.506 188.162 141.472C187.773 143.284 187.312 145.071 186.5 146.741C185.162 149.493 182.931 151.766 180.295 153.3C177.631 154.85 174.519 155.62 171.438 155.371C167.915 155.088 164.555 153.47 161.848 151.244C159.385 149.217 157.393 146.649 155.719 143.921C155.6 143.964 155.483 144.008 155.365 144.053C156.747 146.607 158.459 148.955 160.622 150.943C163.302 153.405 166.635 155.265 170.253 155.854C176.501 156.87 183.143 153.704 186.43 148.321Z" fill="#222859"/>
<path d="M155.738 161.02C155.662 161.03 155.594 161.04 155.522 161.066C155.445 161.095 155.374 161.127 155.306 161.173C155.179 161.26 155.058 161.358 154.948 161.466C154.924 161.49 154.905 161.519 154.882 161.545C154.895 161.463 154.912 161.384 154.925 161.302C154.989 160.913 155.12 160.499 155.086 160.104C155.082 160.048 155.015 160.029 154.982 160.076C154.773 160.378 154.691 160.764 154.569 161.11C154.429 161.512 154.296 161.914 154.177 162.323C153.941 163.137 153.741 163.965 153.553 164.793C153.17 166.479 152.847 168.18 152.553 169.883C152.271 171.528 152.019 173.18 151.817 174.836C151.715 175.679 151.622 176.524 151.539 177.369C151.455 178.218 151.282 179.147 151.366 179.998C151.395 180.3 151.84 180.406 151.925 180.074C152.126 179.297 152.121 178.438 152.201 177.64C152.286 176.795 152.382 175.951 152.487 175.107C152.701 173.392 152.943 171.68 153.23 169.975C153.513 168.298 153.843 166.632 154.193 164.968C154.369 164.137 154.551 163.306 154.716 162.472C154.749 162.455 154.785 162.439 154.8 162.404C154.854 162.279 154.923 162.163 154.992 162.045C155.027 161.987 155.064 161.93 155.103 161.875C155.113 161.86 155.124 161.845 155.135 161.83C155.14 161.824 155.14 161.823 155.142 161.821C155.144 161.818 155.144 161.818 155.149 161.812C155.17 161.785 155.192 161.758 155.215 161.733C155.303 161.63 155.401 161.535 155.506 161.448C155.612 161.361 155.706 161.267 155.797 161.166C155.843 161.117 155.817 161.011 155.738 161.02Z" fill="#222859"/>
<path d="M150.667 195.057C150.221 194.616 149.586 194.362 149.094 193.963C148.629 193.587 148.207 193.156 147.83 192.692C147.028 191.702 146.434 190.526 146.122 189.291C145.337 186.193 146.54 183.086 147.65 180.23C147.714 180.064 147.577 179.821 147.402 179.793C145.466 179.481 143.337 179.189 141.388 179.527C141.123 179.573 141.227 179.925 141.446 179.954C142.386 180.079 143.347 180.081 144.293 180.146C145.139 180.206 145.982 180.306 146.821 180.425C145.729 183.338 144.69 186.491 145.519 189.601C145.855 190.862 146.465 192.031 147.28 193.047C147.713 193.585 148.207 194.074 148.745 194.506C149.127 194.811 149.575 195.183 150.053 195.375C149.83 195.563 149.627 195.787 149.415 195.986C149.194 196.193 148.963 196.392 148.723 196.577C148.481 196.763 148.226 196.929 147.971 197.098C147.701 197.275 147.445 197.471 147.182 197.657C147.082 197.728 147.141 197.882 147.265 197.856C147.593 197.788 147.906 197.701 148.211 197.562C148.511 197.426 148.8 197.256 149.08 197.081C149.643 196.729 150.26 196.313 150.663 195.777C150.743 195.671 150.724 195.518 150.655 195.406C150.75 195.315 150.788 195.176 150.667 195.057Z" fill="#222859"/>
<path d="M202.386 206.288C200.273 205.876 198.16 205.455 196.034 205.11C191.831 204.424 187.587 204.048 183.326 204.121C174.888 204.264 166.545 205.843 158.458 208.193C156.162 208.86 153.883 209.585 151.618 210.352C150.487 210.734 149.363 211.138 148.241 211.547C148.094 211.6 147.944 211.654 147.794 211.708L147.707 212.408C147.801 212.377 147.895 212.344 147.99 212.314C148.982 211.995 149.968 211.65 150.956 211.317C152.967 210.639 154.987 209.992 157.021 209.388C161.077 208.184 165.184 207.137 169.341 206.35C177.639 204.779 186.103 204.299 194.47 205.624C196.893 206.007 199.3 206.486 201.706 206.963C201.978 207.017 202.251 207.076 202.524 207.133L202.386 206.288Z" fill="#222859"/>
<path d="M204.026 226.301C201.959 221.587 197.657 218.305 193.075 216.2C192.868 216.105 192.712 216.371 192.897 216.505C194.765 217.848 196.794 218.951 198.574 220.42C200.29 221.836 201.75 223.522 202.752 225.518C204.694 229.388 205.03 233.914 204.74 238.17C204.391 243.289 203.126 248.285 201.8 253.223C200.439 258.286 198.974 263.319 197.682 268.401C196.215 274.171 194.882 279.974 193.758 285.819C193.67 286.279 194.365 286.48 194.466 286.014C196.747 275.482 199.283 265.021 202.27 254.666C203.73 249.606 205.057 244.47 205.574 239.216C205.999 234.897 205.791 230.326 204.026 226.301Z" fill="#222859"/>
<path d="M194.049 281.307C193.537 281.237 193.024 281.173 192.512 281.104C191.596 280.979 190.68 280.849 189.765 280.714C187.842 280.43 185.925 280.122 184.01 279.796C182.124 279.476 180.243 279.133 178.366 278.769C177.428 278.587 176.492 278.392 175.554 278.209C175.243 278.148 174.905 278.063 174.561 277.989C174.534 278.192 174.508 278.39 174.482 278.582C174.843 278.676 175.205 278.767 175.569 278.851C176.469 279.057 177.375 279.247 178.279 279.436C180.178 279.834 182.082 280.207 183.991 280.558C185.869 280.902 187.752 281.219 189.639 281.514C190.582 281.662 191.526 281.804 192.472 281.941C192.959 282.011 193.447 282.083 193.935 282.147C194.312 282.197 194.672 282.278 195.022 282.137C195.065 281.975 195.108 281.807 195.153 281.637C194.843 281.365 194.449 281.361 194.049 281.307Z" fill="#222859"/>
<path d="M222.512 274.021C222.039 274.042 221.566 274.063 221.094 274.083C219.374 274.152 217.655 274.221 215.935 274.29C212.432 274.43 208.931 274.632 205.429 274.807C204.252 274.867 203.045 274.894 201.854 274.998C201.869 275.191 201.885 275.38 201.899 275.563C202.858 275.563 203.82 275.516 204.772 275.496C206.492 275.458 208.212 275.397 209.932 275.346C213.434 275.242 216.936 275.119 220.437 274.981C221.128 274.954 221.821 274.932 222.513 274.908C222.514 274.627 222.513 274.333 222.512 274.021Z" fill="#222859"/>
<path d="M180.172 237.276C178.736 235.165 175.859 234.565 173.513 234.094C168.543 233.094 163.165 233.137 158.699 230.434C156.332 229.001 154.695 226.845 153.845 224.221C153 221.61 153.006 218.885 152.554 216.206C152.531 216.074 152.344 216.119 152.334 216.236C152.141 218.604 152.377 221.08 152.935 223.391C153.482 225.653 154.51 227.794 156.202 229.424C159.787 232.88 164.955 233.573 169.661 234.257C171.022 234.455 172.384 234.663 173.728 234.956C175.036 235.241 176.394 235.574 177.604 236.161C178.701 236.693 179.516 237.522 179.971 238.656C180.39 239.701 180.521 240.846 180.563 241.963C180.665 244.649 180.468 247.364 180.328 250.045C180.177 252.929 179.861 255.81 179.484 258.673C179.063 261.864 178.536 265.04 177.892 268.193C177.24 271.383 176.425 274.53 175.688 277.699C175.617 278.005 176.059 278.125 176.158 277.828C177.075 275.095 177.758 272.262 178.369 269.447C178.981 266.622 179.502 263.778 179.93 260.92C180.782 255.235 181.285 249.475 181.396 243.728C181.437 241.57 181.437 239.134 180.172 237.276Z" fill="#222859"/>
<path d="M200.34 164.285L213.62 156.587L214.893 158.132L200.34 164.285Z" fill="white"/>
<path d="M200.34 164.285L180.826 156.269L179.645 157.678L200.34 164.285Z" fill="white"/>
<path d="M200.015 168.159C199.675 169.059 199.472 170.011 199.226 170.94C198.979 171.872 198.731 172.803 198.482 173.734C197.977 175.626 197.477 177.519 196.971 179.411C195.974 183.134 195.014 186.867 193.986 190.582C193.397 192.708 192.803 194.834 192.203 196.959C192.103 197.312 192.654 197.463 192.753 197.11C194.838 189.657 196.94 182.206 198.874 174.712C199.146 173.659 199.417 172.605 199.686 171.551C199.962 170.471 200.3 169.386 200.461 168.283C200.505 167.989 200.122 167.875 200.015 168.159Z" fill="#222859"/>
<path d="M165.974 115.175C165.878 114.518 165.216 114.14 164.599 114.107C164.091 114.08 163.559 114.15 163.092 114.36C162.612 114.577 162.2 114.902 161.835 115.276C161.659 115.456 161.532 115.671 161.407 115.888C161.251 116.157 161.146 116.437 161.287 116.739C161.373 116.922 161.535 117.003 161.727 117.003C161.778 116.998 161.877 116.99 161.897 116.986C161.985 116.965 162.06 116.924 162.136 116.875C162.171 116.852 162.345 116.683 162.276 116.75C162.233 116.792 162.348 116.683 162.345 116.686C162.481 116.562 162.631 116.458 162.776 116.346C162.846 116.293 162.917 116.241 162.99 116.192C163.023 116.17 163.068 116.137 163.109 116.114C163.116 116.111 163.11 116.116 163.124 116.108C163.293 116.022 163.464 115.943 163.645 115.884C163.678 115.873 163.712 115.864 163.745 115.854C163.827 115.837 163.907 115.818 163.99 115.806C164.071 115.794 164.153 115.79 164.235 115.784C164.265 115.785 164.294 115.787 164.324 115.79C164.496 115.806 164.665 115.842 164.834 115.876C164.932 115.896 165.032 115.904 165.133 115.904C165.159 115.904 165.28 115.918 165.319 115.899L165.216 115.898C165.289 115.907 165.361 115.906 165.433 115.892C165.768 115.838 166.025 115.521 165.974 115.175Z" fill="#222859"/>
<path d="M161.755 117.005C161.745 117.006 161.737 117.003 161.727 117.003C161.686 117.007 161.674 117.009 161.755 117.005Z" fill="#222859"/>
<path d="M177.493 112.065C177.012 111.907 176.523 111.826 176.014 111.882C175.508 111.937 175.045 112.104 174.608 112.361C174.156 112.626 173.719 113.029 173.661 113.573C173.605 114.105 174.066 114.487 174.578 114.326C174.779 114.263 174.959 114.166 175.13 114.042C175.194 113.995 175.256 113.947 175.323 113.903C175.346 113.888 175.37 113.874 175.394 113.86C175.475 113.826 175.551 113.787 175.633 113.758C175.689 113.738 175.754 113.723 175.812 113.703C175.849 113.698 175.886 113.691 175.924 113.686C176.001 113.676 176.079 113.675 176.156 113.671C176.182 113.674 176.209 113.676 176.235 113.679C176.311 113.689 176.387 113.702 176.462 113.719C176.484 113.724 176.506 113.729 176.528 113.735C176.6 113.766 176.675 113.792 176.746 113.826C176.88 113.89 177.016 113.991 177.157 114.038C177.121 114.014 177.085 113.992 177.048 113.969C177.123 114.02 177.2 114.068 177.28 114.112C177.313 114.13 177.346 114.146 177.38 114.163C177.569 114.256 177.753 114.281 177.962 114.279C178.432 114.275 178.786 113.764 178.742 113.329C178.681 112.706 178.049 112.246 177.493 112.065Z" fill="#222859"/>
<path d="M166.84 121.533C166.603 120.662 166.106 119.918 165.441 119.761C164.48 119.535 163.81 120.396 163.659 121.246C163.537 121.932 163.603 122.744 163.802 123.409C164.078 124.331 164.898 125.084 165.915 124.734C166.977 124.369 167.189 122.814 166.84 121.533Z" fill="#222859"/>
<path d="M178.651 119.897C178.414 119.027 177.917 118.282 177.252 118.126C176.291 117.899 175.621 118.76 175.47 119.61C175.348 120.296 175.413 121.109 175.612 121.774C175.889 122.696 176.708 123.448 177.726 123.099C178.787 122.734 179 121.178 178.651 119.897Z" fill="#222859"/>
<path d="M173.521 124.236C173.384 124.315 173.296 124.415 173.206 124.544C173.197 124.557 173.197 124.558 173.194 124.564C173.191 124.566 173.193 124.564 173.188 124.568C173.159 124.6 173.132 124.633 173.103 124.665C173.049 124.722 172.993 124.775 172.935 124.827C172.903 124.857 172.871 124.886 172.839 124.915C172.833 124.92 172.797 124.949 172.777 124.966C172.753 124.982 172.714 125.01 172.714 125.01C172.686 125.03 172.657 125.048 172.627 125.066C172.553 125.111 172.476 125.151 172.398 125.188C172.386 125.194 172.387 125.194 172.38 125.197C172.376 125.198 172.381 125.196 172.372 125.198C172.331 125.21 172.29 125.228 172.25 125.24C172.166 125.267 172.08 125.286 171.993 125.303C171.978 125.307 171.972 125.307 171.963 125.308C171.923 125.312 171.882 125.316 171.841 125.317C171.748 125.322 171.654 125.319 171.56 125.319C171.514 125.319 171.467 125.318 171.42 125.315C171.412 125.314 171.352 125.309 171.327 125.307C171.304 125.303 171.229 125.291 171.23 125.291C171.193 125.283 171.157 125.274 171.12 125.266C171.075 125.256 170.949 125.236 170.943 125.235C170.979 125.241 170.858 125.22 170.844 125.217C170.738 125.195 170.637 125.171 170.529 125.158C170.386 125.142 170.162 125.145 170.114 125.322C169.989 125.78 170.606 126.158 170.953 126.297C171.41 126.481 171.878 126.507 172.36 126.423C172.765 126.353 173.165 126.176 173.495 125.934C173.674 125.803 173.831 125.667 173.97 125.494C174.155 125.261 174.346 125.021 174.343 124.707C174.337 124.293 173.883 124.029 173.521 124.236Z" fill="#A36856"/>
<path d="M174.728 129.224C174.368 129.461 173.994 129.685 173.624 129.908C173.285 130.112 172.892 130.263 172.473 130.326C172.081 130.386 171.598 130.337 171.193 130.22C171.011 130.167 170.12 129.78 170.052 130.137C169.957 130.632 170.64 131.058 171.012 131.231C171.544 131.478 172.122 131.601 172.709 131.568C173.282 131.536 173.814 131.37 174.306 131.074C174.831 130.759 175.192 130.292 175.349 129.701C175.441 129.361 175.044 129.016 174.728 129.224Z" fill="#A36856"/>
<path d="M165.42 127.111C165.606 128.087 164.37 129.143 162.66 129.467C160.95 129.792 159.413 129.263 159.227 128.286C159.042 127.309 160.278 126.253 161.988 125.929C163.699 125.604 165.235 126.134 165.42 127.111Z" fill="#ED6C6B"/>
<path d="M185.317 123.114C185.502 124.091 184.266 125.146 182.556 125.47C180.846 125.795 179.31 125.266 179.124 124.289C178.939 123.312 180.174 122.256 181.884 121.932C183.594 121.607 185.131 122.137 185.317 123.114Z" fill="#ED6C6B"/>
<path d="M166.578 119.993C166.557 119.943 166.536 119.894 166.516 119.844C166.477 119.771 166.423 119.713 166.355 119.669C166.295 119.614 166.224 119.576 166.143 119.557C166.135 119.554 166.128 119.551 166.12 119.548C166.038 119.518 165.86 119.515 165.777 119.547C165.773 119.548 165.769 119.55 165.765 119.551C165.75 119.557 165.735 119.563 165.719 119.57C165.67 119.59 165.622 119.61 165.573 119.631C165.501 119.67 165.444 119.722 165.401 119.789C165.364 119.827 165.338 119.872 165.322 119.924C165.284 119.997 165.267 120.075 165.27 120.159C165.277 120.213 165.284 120.267 165.292 120.322C165.312 120.37 165.333 120.419 165.353 120.467C165.392 120.539 165.444 120.596 165.51 120.639C165.57 120.693 165.639 120.729 165.718 120.749C165.734 120.755 165.749 120.761 165.765 120.767C165.768 120.768 165.772 120.77 165.776 120.771C165.858 120.801 166.036 120.801 166.118 120.77C166.126 120.767 166.134 120.764 166.142 120.761C166.192 120.74 166.241 120.719 166.291 120.699C166.364 120.66 166.422 120.607 166.466 120.539C166.505 120.5 166.532 120.454 166.547 120.401C166.586 120.327 166.604 120.247 166.6 120.161C166.593 120.103 166.585 120.048 166.578 119.993Z" fill="white"/>
<path d="M178.479 118.085C178.458 118.035 178.437 117.986 178.416 117.936C178.377 117.863 178.324 117.805 178.255 117.761C178.195 117.706 178.125 117.668 178.043 117.65C178.036 117.647 178.028 117.644 178.021 117.641C177.938 117.61 177.761 117.608 177.677 117.639C177.673 117.641 177.67 117.642 177.666 117.644C177.65 117.65 177.635 117.656 177.619 117.662C177.57 117.682 177.522 117.703 177.473 117.723C177.402 117.762 177.345 117.814 177.302 117.881C177.264 117.919 177.238 117.964 177.223 118.016C177.185 118.089 177.167 118.167 177.17 118.251C177.178 118.305 177.185 118.36 177.192 118.414C177.212 118.463 177.233 118.511 177.254 118.56C177.292 118.631 177.345 118.688 177.411 118.731C177.47 118.785 177.539 118.821 177.618 118.841C177.634 118.847 177.649 118.853 177.665 118.859C177.669 118.86 177.673 118.862 177.676 118.863C177.758 118.894 177.937 118.893 178.019 118.863C178.027 118.86 178.034 118.857 178.043 118.854C178.092 118.833 178.142 118.811 178.191 118.79C178.264 118.751 178.322 118.698 178.367 118.63C178.405 118.591 178.432 118.545 178.447 118.493C178.486 118.418 178.504 118.338 178.501 118.253C178.495 118.196 178.487 118.141 178.479 118.085Z" fill="white"/>
<path d="M92.3948 148.115C106.54 148.115 118.006 136.649 118.006 122.504C118.006 108.359 106.54 96.8922 92.3948 96.8922C78.2499 96.8922 66.7832 108.359 66.7832 122.504C66.7832 136.649 78.2499 148.115 92.3948 148.115Z" fill="#D27648"/>
<path d="M112.679 125.826C114.513 114.628 106.921 104.063 95.7232 102.23C84.5249 100.396 73.9604 107.987 72.1268 119.186C70.2931 130.384 77.8846 140.948 89.0829 142.782C100.281 144.616 110.846 137.024 112.679 125.826Z" fill="#D5F2F9"/>
<path d="M111.009 125.541C112.691 115.26 105.719 105.563 95.4385 103.882C85.1575 102.2 75.4601 109.171 73.7788 119.452C72.0974 129.733 79.0687 139.431 89.3497 141.112C99.6307 142.794 109.328 135.822 111.009 125.541Z" fill="white"/>
<path d="M103.894 110.958C102.848 111.828 101.804 112.657 100.818 113.601C99.8439 114.533 98.8926 115.488 97.9211 116.424C96.9765 117.334 96.0298 118.244 95.0537 119.121C94.3212 119.779 93.461 120.412 92.745 121.134C92.6322 121.106 92.5164 121.086 92.3946 121.086C92.2841 121.086 92.178 121.101 92.075 121.125C91.9336 120.937 91.7878 120.753 91.6479 120.567C91.0726 119.803 90.462 119.066 89.8619 118.321C89.2783 117.596 88.691 116.877 88.0909 116.164C87.8112 115.833 87.5465 115.466 87.2156 115.184C86.9802 114.983 86.7178 114.724 86.3876 114.779C86.3538 114.785 86.3147 114.822 86.3102 114.856C86.2666 115.17 86.4922 115.452 86.6471 115.709C86.8727 116.085 87.1472 116.437 87.3998 116.795C87.936 117.556 88.4857 118.305 89.0392 119.053C89.5769 119.78 90.104 120.516 90.6658 121.225C90.8267 121.429 90.9869 121.635 91.1493 121.838C91.0425 122.037 90.9763 122.261 90.9763 122.503C90.9763 123.286 91.611 123.921 92.3939 123.921C93.1767 123.921 93.8114 123.286 93.8114 122.503C93.8114 122.321 93.7738 122.148 93.7114 121.989C93.9355 121.783 94.1528 121.568 94.3634 121.367C94.8371 120.914 95.3056 120.455 95.7734 119.996C96.7615 119.026 97.7616 118.069 98.743 117.092C99.6988 116.141 100.653 115.188 101.565 114.194C102.477 113.199 103.234 112.147 104.028 111.063C104.093 110.979 103.964 110.9 103.894 110.958Z" fill="#74A7CB"/>
<path d="M93.1451 106.304C93.1459 106.11 93.1466 105.916 93.1474 105.722C93.1466 105.632 93.1165 105.547 93.0737 105.466C92.994 105.272 92.806 105.119 92.5864 105.13C92.3691 105.139 92.1735 105.272 92.0953 105.467C92.054 105.544 92.0254 105.627 92.0254 105.722C92.0261 105.916 92.0269 106.11 92.0276 106.304C92.0284 106.431 92.0261 106.561 92.0329 106.69C92.0344 106.821 92.0344 106.951 92.0359 107.082C92.0314 107.37 92.2916 107.645 92.5856 107.631C92.8872 107.618 93.1308 107.39 93.1353 107.082C93.1376 106.951 93.1368 106.821 93.1383 106.69C93.1466 106.561 93.1444 106.431 93.1451 106.304Z" fill="#74A7CB"/>
<path d="M93.1451 139.197C93.1459 139.003 93.1466 138.809 93.1474 138.615C93.1466 138.525 93.1165 138.439 93.0737 138.36C92.994 138.165 92.806 138.012 92.5864 138.022C92.3691 138.032 92.1735 138.165 92.0953 138.36C92.054 138.436 92.0254 138.52 92.0254 138.615C92.0261 138.809 92.0269 139.003 92.0276 139.197C92.0284 139.323 92.0261 139.454 92.0329 139.582C92.0344 139.713 92.0344 139.843 92.0359 139.974C92.0314 140.262 92.2916 140.538 92.5856 140.524C92.8872 140.51 93.1308 140.283 93.1353 139.974C93.1376 139.843 93.1368 139.713 93.1383 139.582C93.1466 139.455 93.1444 139.324 93.1451 139.197Z" fill="#74A7CB"/>
<path d="M109.109 123.386C109.303 123.387 109.497 123.387 109.691 123.388C109.781 123.387 109.867 123.357 109.947 123.314C110.142 123.235 110.294 123.047 110.284 122.827C110.274 122.61 110.141 122.414 109.946 122.336C109.869 122.295 109.786 122.266 109.691 122.266C109.497 122.267 109.303 122.268 109.109 122.268C108.983 122.269 108.852 122.267 108.723 122.274C108.592 122.275 108.462 122.275 108.331 122.277C108.043 122.272 107.768 122.532 107.782 122.826C107.795 123.128 108.023 123.372 108.331 123.376C108.462 123.378 108.592 123.378 108.723 123.379C108.852 123.387 108.983 123.385 109.109 123.386Z" fill="#74A7CB"/>
<path d="M76.2164 123.386C76.4104 123.387 76.6045 123.387 76.7985 123.388C76.8887 123.387 76.9744 123.357 77.0542 123.314C77.2489 123.235 77.4016 123.047 77.3911 122.827C77.3813 122.61 77.2482 122.414 77.0534 122.336C76.9775 122.295 76.894 122.266 76.7985 122.266C76.6045 122.267 76.4104 122.268 76.2164 122.268C76.0901 122.269 75.96 122.267 75.8307 122.274C75.6998 122.275 75.5697 122.275 75.4389 122.277C75.1508 122.272 74.8756 122.532 74.8892 122.826C74.9027 123.128 75.1305 123.372 75.4389 123.376C75.5697 123.378 75.6998 123.378 75.8307 123.379C75.96 123.387 76.0901 123.385 76.2164 123.386Z" fill="#74A7CB"/>
<path d="M100.913 108.647C101.003 108.475 101.093 108.304 101.182 108.132C101.224 108.051 101.236 107.962 101.234 107.871C101.253 107.661 101.156 107.439 100.957 107.347C100.759 107.256 100.524 107.285 100.365 107.422C100.294 107.471 100.229 107.531 100.186 107.616C100.099 107.788 100.01 107.961 99.921 108.134C99.8631 108.247 99.8015 108.361 99.7488 108.479C99.6902 108.596 99.63 108.711 99.5714 108.829C99.4353 109.082 99.5398 109.446 99.8067 109.569C100.08 109.696 100.402 109.606 100.547 109.334C100.609 109.219 100.669 109.103 100.73 108.987C100.797 108.876 100.855 108.76 100.913 108.647Z" fill="#74A7CB"/>
<path d="M85.7997 137.863C85.8891 137.69 85.9794 137.519 86.0689 137.347C86.1102 137.266 86.1223 137.177 86.1208 137.086C86.1396 136.876 86.0425 136.654 85.8433 136.562C85.6455 136.471 85.4109 136.499 85.2522 136.637C85.1808 136.686 85.1161 136.747 85.0732 136.831C84.9852 137.003 84.8965 137.176 84.8078 137.349C84.7499 137.462 84.6882 137.576 84.6356 137.694C84.5769 137.811 84.5167 137.927 84.4581 138.044C84.322 138.297 84.4265 138.661 84.6935 138.785C84.9672 138.911 85.2883 138.821 85.4342 138.549C85.4958 138.434 85.5553 138.318 85.6169 138.203C85.6831 138.092 85.741 137.975 85.7997 137.863Z" fill="#74A7CB"/>
<path d="M107.244 131.154C107.416 131.244 107.587 131.334 107.76 131.423C107.84 131.465 107.93 131.477 108.021 131.475C108.23 131.494 108.452 131.397 108.544 131.198C108.636 131 108.606 130.765 108.47 130.607C108.421 130.535 108.36 130.47 108.275 130.428C108.103 130.34 107.93 130.251 107.757 130.162C107.645 130.104 107.53 130.043 107.412 129.99C107.296 129.931 107.18 129.871 107.063 129.812C106.809 129.676 106.445 129.781 106.322 130.048C106.195 130.322 106.286 130.643 106.558 130.789C106.673 130.85 106.789 130.91 106.905 130.971C107.014 131.038 107.132 131.095 107.244 131.154Z" fill="#74A7CB"/>
<path d="M78.0289 116.04C78.2011 116.13 78.3726 116.22 78.5448 116.31C78.6252 116.351 78.7147 116.363 78.8057 116.361C79.0155 116.38 79.2366 116.283 79.3291 116.084C79.4209 115.886 79.3923 115.652 79.2547 115.493C79.2058 115.421 79.1449 115.357 79.0607 115.314C78.8885 115.226 78.7155 115.137 78.5425 115.048C78.4297 114.991 78.3154 114.929 78.1974 114.876C78.0808 114.818 77.965 114.757 77.8477 114.699C77.5943 114.563 77.2303 114.667 77.107 114.934C76.9806 115.208 77.0709 115.53 77.3423 115.675C77.4574 115.737 77.574 115.796 77.689 115.858C77.8003 115.924 77.9169 115.982 78.0289 116.04Z" fill="#74A7CB"/>
<path d="M106.494 113.887C106.654 113.778 106.814 113.668 106.973 113.558C107.047 113.506 107.101 113.432 107.142 113.352C107.257 113.175 107.275 112.935 107.142 112.759C107.01 112.586 106.79 112.501 106.585 112.548C106.498 112.558 106.413 112.581 106.335 112.635C106.176 112.746 106.017 112.857 105.857 112.968C105.754 113.041 105.645 113.113 105.543 113.193C105.436 113.268 105.329 113.342 105.223 113.418C104.984 113.578 104.905 113.949 105.084 114.183C105.266 114.423 105.593 114.494 105.848 114.322C105.957 114.249 106.064 114.175 106.173 114.102C106.283 114.036 106.389 113.959 106.494 113.887Z" fill="#74A7CB"/>
<path d="M79.4402 132.6C79.6004 132.49 79.7606 132.381 79.92 132.271C79.9937 132.219 80.0471 132.145 80.0884 132.065C80.2035 131.888 80.2215 131.647 80.0884 131.472C79.9568 131.299 79.7365 131.214 79.5312 131.261C79.4447 131.271 79.3597 131.294 79.2815 131.348C79.1229 131.459 78.9634 131.57 78.8048 131.681C78.701 131.753 78.5927 131.826 78.4904 131.905C78.3836 131.981 78.2761 132.055 78.1701 132.131C77.9309 132.291 77.8527 132.662 78.031 132.896C78.2137 133.136 78.5401 133.207 78.7957 133.035C78.904 132.962 79.0116 132.887 79.1198 132.814C79.2304 132.748 79.3364 132.672 79.4402 132.6Z" fill="#74A7CB"/>
<path d="M101.527 136.735C101.637 136.895 101.747 137.055 101.857 137.214C101.909 137.288 101.982 137.342 102.063 137.383C102.239 137.498 102.48 137.516 102.655 137.383C102.828 137.251 102.913 137.031 102.867 136.826C102.857 136.739 102.834 136.654 102.779 136.576C102.669 136.417 102.558 136.258 102.446 136.098C102.374 135.995 102.302 135.886 102.222 135.784C102.146 135.677 102.072 135.57 101.997 135.464C101.836 135.225 101.466 135.146 101.232 135.325C100.992 135.507 100.921 135.834 101.093 136.089C101.166 136.198 101.24 136.305 101.313 136.414C101.38 136.524 101.456 136.63 101.527 136.735Z" fill="#74A7CB"/>
<path d="M82.8144 109.683C82.9242 109.843 83.034 110.003 83.1438 110.163C83.1957 110.236 83.2694 110.29 83.3498 110.331C83.5258 110.446 83.7672 110.464 83.9424 110.331C84.1154 110.2 84.2003 109.979 84.1537 109.774C84.1439 109.687 84.1206 109.602 84.0665 109.524C83.9559 109.366 83.8446 109.206 83.7333 109.047C83.6611 108.943 83.589 108.835 83.5092 108.732C83.4333 108.626 83.3596 108.518 83.2836 108.412C83.1235 108.173 82.7527 108.095 82.5189 108.273C82.279 108.456 82.2083 108.782 82.3797 109.038C82.4527 109.146 82.5271 109.254 82.6001 109.362C82.667 109.472 82.743 109.578 82.8144 109.683Z" fill="#74A7CB"/>
<path d="M308.819 137.622H227.974C226.39 137.622 225.105 138.906 225.105 140.492V143.694C225.105 145.279 226.39 146.563 227.974 146.563H308.819C310.403 146.563 311.688 145.279 311.688 143.694V140.492C311.688 138.906 310.403 137.622 308.819 137.622Z" fill="white"/>
<path d="M277.709 119.963C277.709 119.963 269.728 93.3623 286.851 93.3623C303.974 93.3623 296.486 119.963 296.486 119.963H277.709Z" fill="#4D867E"/>
<path d="M276.929 117.331H296.776C297.479 117.331 298.011 117.969 297.885 118.661L294.596 136.697C294.498 137.233 294.031 137.622 293.486 137.622H280.218C279.674 137.622 279.207 137.232 279.109 136.697L275.82 118.661C275.693 117.968 276.225 117.331 276.929 117.331Z" fill="#ED6C6B"/>
<path d="M277.976 113.168C277.886 112.956 277.635 112.739 277.384 112.771C277.236 112.789 277.063 112.786 276.923 112.829C276.825 112.859 276.729 112.906 276.632 112.942C276.377 113.036 276.124 113.13 275.873 113.236C275.937 113.209 276.001 113.182 276.065 113.155C275.934 113.209 275.804 113.259 275.672 113.311C275.436 113.402 275.252 113.511 275.053 113.665C275.101 113.627 275.15 113.59 275.198 113.553C275.141 113.597 275.074 113.637 275.023 113.687C274.939 113.772 274.878 113.885 274.843 113.997C274.812 114.093 274.803 114.198 274.816 114.297C274.835 114.439 274.902 114.557 275 114.661C275.143 114.812 275.322 114.866 275.519 114.887C275.807 114.917 276.101 114.833 276.371 114.743C276.644 114.652 276.905 114.542 277.158 114.403C277.262 114.346 277.366 114.288 277.466 114.225C277.619 114.13 277.727 114.009 277.841 113.875C278.014 113.673 278.084 113.424 277.976 113.168Z" fill="#83BAA8"/>
<path d="M278.305 107.711C278.179 107.413 277.691 107.295 277.406 107.28C277.115 107.265 276.817 107.254 276.526 107.268C275.862 107.298 275.165 107.295 274.597 107.686C274.334 107.866 274.246 108.346 274.597 108.505C274.765 108.581 274.922 108.651 275.104 108.678C275.31 108.709 275.507 108.722 275.715 108.718C276.03 108.712 276.35 108.647 276.662 108.606C276.855 108.581 277.043 108.541 277.234 108.502C277.415 108.465 277.599 108.442 277.766 108.363C277.979 108.264 278.432 108.009 278.305 107.711Z" fill="#83BAA8"/>
<path d="M276.398 100.049C276.383 100.043 276.391 100.046 276.385 100.044C276.438 100.066 276.456 100.075 276.398 100.049Z" fill="#83BAA8"/>
<path d="M278.333 101.236C278.135 101.066 277.964 100.883 277.734 100.751C277.522 100.628 277.321 100.487 277.099 100.384C276.99 100.334 276.884 100.282 276.777 100.229C276.72 100.2 276.664 100.17 276.607 100.142C276.572 100.125 276.334 100.023 276.384 100.044C276.357 100.033 276.335 100.023 276.276 99.9979C276.208 99.9716 276.135 99.9588 276.061 99.9596C276.007 99.9558 275.952 99.9566 275.898 99.9543C275.79 99.9506 275.683 99.9438 275.576 99.9363C275.283 99.9152 275.136 100.261 275.258 100.491C275.31 100.591 275.365 100.69 275.42 100.788C275.447 100.836 275.474 100.885 275.504 100.932C275.588 101.062 275.687 101.133 275.81 101.224C275.999 101.366 276.216 101.475 276.424 101.585C276.672 101.717 276.942 101.796 277.21 101.873C277.367 101.918 277.52 101.953 277.685 101.95C277.803 101.948 277.922 101.943 278.041 101.94C278.375 101.931 278.615 101.481 278.333 101.236Z" fill="#83BAA8"/>
<path d="M280.849 96.4839C280.851 96.4981 280.85 96.5109 280.852 96.5252C280.854 96.4756 280.849 96.4508 280.846 96.4485C280.846 96.4515 280.846 96.4545 280.846 96.4575C280.846 96.4636 280.846 96.4688 280.849 96.4839Z" fill="#83BAA8"/>
<path d="M280.852 96.5252C280.851 96.5523 280.847 96.5846 280.839 96.6222C280.851 96.5658 280.85 96.5124 280.847 96.4575C280.847 96.4515 280.846 96.4478 280.848 96.4485C280.847 96.4357 280.851 96.4229 280.849 96.4102C280.836 96.3064 280.788 96.2161 280.744 96.1221C280.682 95.9928 280.627 95.9011 280.533 95.7852C280.469 95.7063 280.404 95.6273 280.339 95.5484C280.218 95.401 280.102 95.2521 279.966 95.1182C279.798 94.9535 279.634 94.7595 279.431 94.6384C279.173 94.485 278.847 94.3429 278.558 94.4971C278.215 94.6798 278.31 95.1257 278.447 95.4085C278.554 95.6288 278.713 95.798 278.878 95.9755C279.009 96.1161 279.14 96.2477 279.285 96.3733C279.48 96.5425 279.671 96.744 279.901 96.8606C279.947 96.8839 279.993 96.9087 280.041 96.9321C280.086 96.9539 280.138 96.9817 280.186 96.9945C280.233 97.0005 280.281 97.0073 280.327 97.0133C280.338 97.0125 280.343 97.0118 280.352 97.0103C280.395 97.0193 280.442 97.0245 280.483 97.0268C280.542 97.0298 280.599 97.0163 280.656 97.0035C280.767 97.0306 280.857 96.9411 280.841 96.8313C280.863 96.7283 280.867 96.6305 280.852 96.5252Z" fill="#83BAA8"/>
<path d="M282.576 105.573C282.487 105.433 282.351 105.324 282.211 105.233C282.098 105.16 281.954 105.121 281.826 105.073C281.651 105.008 281.48 104.945 281.299 104.9C281.12 104.856 280.942 104.802 280.761 104.769C280.649 104.748 280.536 104.751 280.423 104.749C280.308 104.747 280.184 104.729 280.083 104.796C279.985 104.862 279.956 104.954 279.973 105.066C279.991 105.178 280.089 105.257 280.162 105.335C280.244 105.423 280.321 105.511 280.418 105.582C280.568 105.692 280.725 105.792 280.88 105.896C281.035 106 281.197 106.086 281.363 106.172C281.479 106.232 281.598 106.303 281.723 106.341C281.772 106.356 281.828 106.361 281.879 106.37C282.015 106.394 282.113 106.394 282.25 106.373C282.594 106.316 282.751 105.845 282.576 105.573Z" fill="#83BAA8"/>
<path d="M285.737 100.998C285.722 100.921 285.699 100.847 285.65 100.781C285.629 100.752 285.607 100.724 285.586 100.695C285.534 100.63 285.474 100.582 285.405 100.535C285.336 100.488 285.266 100.442 285.199 100.39C285.237 100.42 285.275 100.449 285.313 100.478C285.208 100.398 285.112 100.308 285 100.238C284.939 100.199 284.88 100.157 284.822 100.115C284.796 100.093 284.768 100.072 284.743 100.049C284.721 100.03 284.7 100.01 284.678 99.9904C284.596 99.9182 284.523 99.8859 284.424 99.8445C284.461 99.8603 284.497 99.8754 284.534 99.8912C284.449 99.8551 284.366 99.8152 284.284 99.7708C284.084 99.6618 283.806 99.7964 283.815 100.04C283.821 100.23 283.83 100.442 283.931 100.607C284.026 100.762 284.137 100.908 284.254 101.046C284.373 101.188 284.52 101.294 284.677 101.39C284.757 101.438 284.838 101.482 284.925 101.518C285.108 101.596 285.365 101.609 285.534 101.488C285.498 101.503 285.464 101.518 285.428 101.532C285.44 101.531 285.45 101.528 285.462 101.527C285.586 101.507 285.686 101.394 285.732 101.285C285.772 101.194 285.768 101.093 285.737 100.998Z" fill="#83BAA8"/>
<path d="M284.748 111.592C284.737 111.572 284.72 111.555 284.705 111.537C284.644 111.449 284.586 111.362 284.519 111.278C284.553 111.322 284.587 111.367 284.622 111.411C284.508 111.261 284.411 111.087 284.28 110.951C284.185 110.852 284.081 110.758 283.982 110.663C283.882 110.567 283.775 110.479 283.667 110.391C283.522 110.275 283.357 110.195 283.18 110.138C283 110.079 282.822 110.236 282.819 110.413C282.817 110.503 282.828 110.588 282.839 110.676C282.85 110.762 282.861 110.834 282.89 110.912C282.908 110.96 282.925 111.008 282.943 111.055C283.028 111.284 283.137 111.51 283.245 111.728C283.29 111.819 283.359 111.9 283.417 111.982C283.528 112.137 283.629 112.277 283.792 112.38C284.016 112.52 284.297 112.575 284.535 112.429C284.696 112.328 284.795 112.171 284.82 111.985C284.839 111.849 284.818 111.711 284.748 111.592Z" fill="#83BAA8"/>
<path d="M287.996 106.803C287.967 106.695 287.915 106.588 287.875 106.483C287.787 106.251 287.669 106.037 287.553 105.818C287.452 105.63 287.358 105.434 287.25 105.249C287.193 105.153 287.122 105.065 287.056 104.975C286.982 104.875 286.922 104.826 286.804 104.782C286.741 104.759 286.669 104.798 286.636 104.85C286.57 104.954 286.56 105.034 286.563 105.154C286.567 105.28 286.569 105.403 286.589 105.527C286.624 105.735 286.661 105.943 286.698 106.152C286.734 106.359 286.759 106.571 286.821 106.773C286.906 107.049 286.976 107.316 287.204 107.513C287.333 107.625 287.491 107.682 287.662 107.635C287.812 107.593 287.96 107.463 287.992 107.306C288.026 107.142 288.041 106.967 287.996 106.803Z" fill="#83BAA8"/>
<path d="M291.827 109.092C291.812 109.037 291.752 108.998 291.739 108.951C291.735 108.938 291.71 108.918 291.752 108.908C291.87 108.878 291.673 108.742 291.695 108.875C291.703 108.921 291.647 108.896 291.629 108.891C291.497 108.86 291.4 108.914 291.297 108.988C291.215 109.048 291.13 109.105 291.063 109.182C291.008 109.246 290.955 109.312 290.903 109.378C290.773 109.542 290.646 109.708 290.523 109.876C290.416 110.022 290.335 110.185 290.254 110.346C290.11 110.631 290.011 111.004 290.226 111.282C290.359 111.453 290.568 111.524 290.778 111.471C290.934 111.432 291.045 111.325 291.143 111.205C291.305 111.005 291.372 110.747 291.468 110.511C291.533 110.352 291.572 110.184 291.624 110.021C291.691 109.813 291.779 109.611 291.809 109.394C291.809 109.396 291.808 109.4 291.808 109.402C291.809 109.399 291.809 109.396 291.809 109.394C291.809 109.39 291.809 109.393 291.809 109.391C291.813 109.363 291.818 109.334 291.821 109.305C291.831 109.235 291.846 109.163 291.827 109.092Z" fill="#83BAA8"/>
<path d="M295.551 113.364C295.55 113.352 295.532 113.241 295.543 113.312C295.528 113.208 295.485 113.149 295.439 113.061C295.412 113.011 295.346 112.986 295.292 113.001C295.279 113.005 295.223 113.026 295.21 113.02C295.273 113.012 295.259 113.014 295.168 113.026C295.132 113.035 295.101 113.05 295.075 113.072C295 113.12 294.924 113.174 294.859 113.233C294.798 113.289 294.734 113.346 294.677 113.405C294.601 113.487 294.546 113.585 294.488 113.68C294.4 113.823 294.309 113.961 294.242 114.116C294.195 114.224 294.135 114.335 294.101 114.446C294.051 114.606 294.07 114.769 294.101 114.932C294.165 115.26 294.599 115.414 294.87 115.245C294.996 115.165 295.144 115.05 295.21 114.915C295.244 114.845 295.272 114.77 295.303 114.698C295.355 114.578 295.405 114.459 295.439 114.332C295.459 114.257 295.48 114.182 295.5 114.107C295.552 113.914 295.574 113.727 295.568 113.527C295.569 113.473 295.559 113.418 295.551 113.364Z" fill="#83BAA8"/>
<path d="M299.492 108.949C299.363 108.994 299.26 109.039 299.122 109.03C298.988 109.021 298.853 109.076 298.724 109.11C298.768 109.099 298.7 109.114 298.689 109.116C298.634 109.122 298.573 109.123 298.521 109.138C298.433 109.162 298.345 109.213 298.262 109.252C298.14 109.31 298.02 109.37 297.901 109.434C297.635 109.575 297.397 109.78 297.166 109.972C297.062 110.058 296.972 110.163 296.881 110.262C296.812 110.339 296.734 110.417 296.687 110.51C296.607 110.669 296.606 110.815 296.634 110.986C296.672 111.216 296.909 111.328 297.112 111.35C297.354 111.376 297.534 111.231 297.699 111.079C297.793 110.993 297.894 110.912 297.985 110.822C298.171 110.638 298.37 110.464 298.546 110.27C298.632 110.177 298.719 110.085 298.808 109.995C298.852 109.951 298.901 109.909 298.942 109.861C298.998 109.797 299.028 109.727 299.074 109.656C299.122 109.58 299.237 109.484 299.293 109.39C299.322 109.339 299.334 109.279 299.374 109.236C299.423 109.182 299.497 109.141 299.556 109.097C299.62 109.045 299.586 108.917 299.492 108.949Z" fill="#83BAA8"/>
<path d="M299.178 101.758C299.032 101.873 298.884 101.974 298.729 102.076C298.564 102.186 298.417 102.313 298.269 102.443C297.965 102.716 297.692 103.028 297.501 103.389C297.436 103.513 297.366 103.636 297.347 103.775C297.328 103.92 297.346 104.096 297.416 104.223C297.624 104.594 298.119 104.402 298.321 104.139C298.578 103.806 298.768 103.414 298.917 103.022C298.953 102.931 298.989 102.839 299.026 102.749C299.066 102.651 299.095 102.593 299.131 102.477C299.193 102.274 299.262 102.086 299.36 101.897C299.423 101.776 299.279 101.678 299.178 101.758Z" fill="#83BAA8"/>
<path d="M294.258 103.214C294.248 103.109 294.248 102.99 294.223 102.888C294.212 102.845 294.189 102.809 294.172 102.77C294.154 102.726 294.148 102.693 294.141 102.643C294.13 102.565 294.026 102.517 293.979 102.6C293.927 102.692 293.848 102.745 293.79 102.831C293.737 102.912 293.697 103.007 293.652 103.092C293.554 103.279 293.475 103.468 293.399 103.665C293.329 103.848 293.264 104.025 293.22 104.217C293.157 104.486 293.147 104.725 293.202 104.997C293.235 105.163 293.405 105.286 293.562 105.307C293.739 105.331 293.896 105.248 293.994 105.1C294.251 104.71 294.275 104.238 294.282 103.784C294.286 103.592 294.278 103.406 294.258 103.214Z" fill="#83BAA8"/>
<path d="M290.341 99.7069C290.316 99.6197 290.275 99.5355 290.241 99.452C290.194 99.3399 290.156 99.2136 290.091 99.1106C289.989 98.9504 289.862 98.788 289.736 98.6458C289.699 98.6037 289.647 98.5609 289.591 98.5443C289.559 98.527 289.558 98.5293 289.586 98.5511C289.57 98.5383 289.553 98.5248 289.536 98.512C289.466 98.4579 289.395 98.4037 289.324 98.3511C289.212 98.2676 289.085 98.3842 289.073 98.4947C289.064 98.5782 289.057 98.6624 289.046 98.7459C289.045 98.7534 289.046 98.7519 289.045 98.7564C289.043 98.7579 289.04 98.7594 289.034 98.7714C289.002 98.8316 288.998 98.9008 289.001 98.9677C289.006 99.1407 289.013 99.3211 289.035 99.4926C289.049 99.5971 289.078 99.6987 289.102 99.8009C289.12 99.8776 289.133 99.9581 289.157 100.033C289.181 100.108 289.213 100.184 289.242 100.257C289.332 100.489 289.478 100.634 289.721 100.7C289.889 100.746 290.071 100.699 290.195 100.575C290.374 100.395 290.432 100.191 290.387 99.9423C290.374 99.8641 290.362 99.7829 290.341 99.7069Z" fill="#83BAA8"/>
<path d="M295.436 95.5739C295.332 95.401 295.09 95.3265 294.913 95.4371C294.794 95.5123 294.719 95.6356 294.637 95.7476C294.597 95.8018 294.645 95.7386 294.658 95.7198C294.622 95.7695 294.584 95.8116 294.558 95.8672C294.537 95.9108 294.516 95.9537 294.495 95.9966C294.413 96.1628 294.349 96.335 294.28 96.5064C294.215 96.6583 294.125 96.8095 294.081 96.9674C294.055 97.0599 294.021 97.1622 294.021 97.2584C294.021 97.3351 294.046 97.4306 294.066 97.5081C294.128 97.757 294.361 97.857 294.595 97.7796C294.71 97.7412 294.822 97.7021 294.908 97.6096C294.964 97.5509 295.013 97.4855 295.063 97.4224C295.149 97.3103 295.204 97.1712 295.262 97.0418C295.328 96.8907 295.406 96.7335 295.453 96.5748C295.472 96.5132 295.48 96.4463 295.491 96.3823C295.507 96.2891 295.537 96.1748 295.535 96.0838C295.533 95.9274 295.513 95.7018 295.436 95.5739Z" fill="#83BAA8"/>
<path d="M290.781 92.9901C290.774 92.8833 290.755 92.8269 290.713 92.7314C290.682 92.6614 290.635 92.605 290.582 92.5494C290.532 92.496 290.445 92.4734 290.376 92.4953C290.302 92.5178 290.232 92.5434 290.17 92.5893C290.056 92.6742 289.989 92.7705 289.913 92.8893C289.801 93.0645 289.736 93.2518 289.667 93.4465C289.608 93.6097 289.539 93.7729 289.495 93.9406C289.463 94.0617 289.418 94.2053 289.418 94.3286C289.418 94.4843 289.485 94.6174 289.577 94.7377C289.731 94.94 289.924 94.9904 290.159 94.8904C290.296 94.8332 290.419 94.7528 290.496 94.6204C290.557 94.5151 290.59 94.3692 290.622 94.2512C290.666 94.0835 290.689 93.9075 290.72 93.7368C290.757 93.533 290.796 93.3345 290.787 93.1262C290.785 93.0803 290.784 93.0352 290.781 92.9901Z" fill="#83BAA8"/>
<path d="M285.543 94.4738C285.526 94.2737 285.499 94.0797 285.452 93.8842C285.415 93.7353 285.379 93.5856 285.343 93.4367C285.3 93.26 285.209 93.0901 285.136 92.9231C285.065 92.7615 284.823 92.6787 284.662 92.7306C284.472 92.7915 284.375 92.9427 284.354 93.1344C284.338 93.2871 284.312 93.4398 284.323 93.5932C284.333 93.7518 284.345 93.9105 284.355 94.0684C284.369 94.2632 284.399 94.4504 284.441 94.6407C284.466 94.7558 284.49 94.852 284.539 94.9618C284.572 95.0325 284.606 95.1024 284.639 95.1731C284.724 95.3551 284.991 95.4529 285.177 95.3919C285.255 95.3664 285.327 95.325 285.388 95.2694C285.487 95.1784 285.51 95.0581 285.527 94.9317C285.538 94.8513 285.558 94.7655 285.561 94.6851C285.562 94.6151 285.549 94.5437 285.543 94.4738Z" fill="#83BAA8"/>
<path d="M288.122 114.642C288.094 114.504 288.061 114.357 288.011 114.225C287.96 114.09 287.922 113.953 287.879 113.816C287.846 113.711 287.792 113.616 287.731 113.525C287.664 113.424 287.58 113.368 287.48 113.311C287.382 113.254 287.249 113.249 287.151 113.311C287.06 113.369 286.972 113.432 286.914 113.525C286.866 113.602 286.818 113.723 286.799 113.816C286.762 114.007 286.772 114.212 286.785 114.405C286.8 114.631 286.866 114.839 286.954 115.047C286.978 115.103 287.002 115.156 287.034 115.207C287.124 115.349 287.248 115.446 287.408 115.497C287.455 115.512 287.503 115.523 287.551 115.534C287.724 115.572 287.9 115.508 287.992 115.354C288.017 115.313 288.043 115.275 288.068 115.234C288.183 115.051 288.164 114.844 288.122 114.642Z" fill="#83BAA8"/>
<path d="M281.676 113.871C281.674 113.862 281.672 113.852 281.669 113.843C281.667 113.822 281.67 113.801 281.666 113.781C281.652 113.715 281.619 113.654 281.591 113.593C281.548 113.498 281.47 113.427 281.394 113.358C281.26 113.235 281.125 113.108 280.96 113.025C280.832 112.96 280.701 112.899 280.568 112.842C280.478 112.803 280.396 112.78 280.301 112.761C280.255 112.751 280.209 112.742 280.162 112.736C280.101 112.728 280.044 112.743 279.991 112.768C279.989 112.768 279.987 112.767 279.987 112.767C279.824 112.737 279.731 112.901 279.819 113.029C279.819 113.14 279.887 113.231 279.953 113.325C280.022 113.423 280.098 113.508 280.181 113.595C280.247 113.664 280.311 113.735 280.374 113.805C280.461 113.905 280.567 113.978 280.671 114.058C280.637 114.032 280.603 114.005 280.568 113.979C280.669 114.057 280.767 114.154 280.875 114.221C281 114.299 281.187 114.355 281.342 114.322C281.429 114.318 281.513 114.296 281.581 114.228C281.677 114.133 281.707 114 281.676 113.871Z" fill="#83BAA8"/>
<path d="M295.703 123.516C293.234 124.962 290.387 122.29 287.753 122.832C286.527 123.084 285.946 124.065 284.878 124.565C283.313 125.297 281.771 123.93 280.313 123.515C279.243 123.211 278.177 123.352 277.219 123.912C277.091 123.986 276.958 124.072 276.824 124.162L276.995 125.1C277.342 124.806 277.714 124.542 278.173 124.398C279.607 123.951 280.823 124.823 282.085 125.361C283 125.752 284.019 126.018 284.999 125.699C286.09 125.344 286.754 124.258 287.888 124.001C290.295 123.454 292.47 125.562 294.908 125.248C295.451 125.178 295.941 125.007 296.419 124.742C296.549 124.67 296.685 124.576 296.824 124.479L297.156 122.66C296.66 122.877 296.203 123.223 295.703 123.516Z" fill="#FFCE5E"/>
<path d="M288.701 120.085C286.1 120.134 283.498 120.154 280.896 120.181C279.519 120.195 278.142 120.207 276.764 120.221C276.545 120.223 276.325 120.222 276.105 120.222L276.3 121.292C277.773 121.311 279.268 121.218 280.667 121.232C283.346 121.26 286.024 121.28 288.701 121.33C291.303 121.379 293.905 121.424 296.506 121.48C296.785 121.486 297.076 121.501 297.365 121.516L297.662 119.892C297.351 119.907 297.035 119.925 296.737 119.931C294.058 119.988 291.379 120.035 288.701 120.085Z" fill="#FFCE5E"/>
<path d="M247.535 96.4869H239.179C238.258 96.4869 237.512 97.2336 237.512 98.1541V135.954C237.512 136.875 238.258 137.621 239.179 137.621H247.535C248.456 137.621 249.202 136.875 249.202 135.954V98.1541C249.203 97.2336 248.456 96.4869 247.535 96.4869Z" fill="#74A7CB"/>
<path d="M256.31 103.942H250.218C249.658 103.942 249.203 104.396 249.203 104.957V136.607C249.203 137.167 249.657 137.622 250.218 137.622H256.31C256.871 137.622 257.325 137.168 257.325 136.607V104.957C257.325 104.397 256.871 103.942 256.31 103.942Z" fill="#697BAE"/>
<path d="M269.077 99.5197H258.339C257.779 99.5197 257.324 99.9739 257.324 100.535V136.607C257.324 137.167 257.778 137.622 258.339 137.622H269.077C269.637 137.622 270.092 137.168 270.092 136.607V100.535C270.092 99.9746 269.637 99.5197 269.077 99.5197Z" fill="#FFCE5E"/>
<path d="M246.471 106.214C246.471 107.933 245.077 109.327 243.357 109.327C241.638 109.327 240.244 107.933 240.244 106.214C240.244 104.495 241.638 103.101 243.357 103.101C245.077 103.101 246.471 104.494 246.471 106.214Z" fill="#697BAE"/>
<path d="M247.292 111.278C246.117 111.253 244.943 111.23 243.767 111.238C243.192 111.242 242.616 111.27 242.04 111.289C242.039 111.289 242.038 111.289 242.037 111.289C241.349 111.276 240.661 111.27 239.971 111.277C239.341 111.27 239.34 112.25 239.971 112.256C240.661 112.264 241.349 112.257 242.037 112.244C242.612 112.274 243.192 112.291 243.767 112.295C244.943 112.303 246.117 112.28 247.292 112.255C247.921 112.268 247.921 111.291 247.292 111.278Z" fill="#697BAE"/>
<path d="M268.684 106.506C267.171 106.474 265.661 106.446 264.147 106.455C263.406 106.461 262.666 106.496 261.926 106.519C261.924 106.519 261.923 106.519 261.92 106.519C261.035 106.504 260.149 106.494 259.263 106.504C258.451 106.495 258.451 107.725 259.263 107.733C260.151 107.742 261.037 107.734 261.922 107.717C262.661 107.756 263.407 107.777 264.147 107.782C265.66 107.792 267.171 107.763 268.684 107.732C269.493 107.749 269.493 106.522 268.684 106.506Z" fill="#FF8F3D"/>
<path d="M268.684 132.063C267.171 132.032 265.661 132.003 264.147 132.013C263.406 132.018 262.666 132.053 261.926 132.077C261.924 132.077 261.923 132.077 261.92 132.077C261.035 132.061 260.149 132.052 259.263 132.061C258.451 132.053 258.451 133.282 259.263 133.29C260.151 133.3 261.037 133.291 261.922 133.275C262.661 133.313 263.407 133.334 264.147 133.339C265.66 133.35 267.171 133.321 268.684 133.289C269.493 133.306 269.493 132.08 268.684 132.063Z" fill="#FF8F3D"/>
<path d="M252.477 111.99V128.383C252.477 129.564 254.312 129.566 254.312 128.383V111.99C254.313 110.809 252.477 110.806 252.477 111.99Z" fill="#74A7CB"/>
<path d="M157.452 70.5376C157.368 70.2391 157.217 69.9796 156.998 69.7593C156.879 69.6675 156.76 69.5758 156.642 69.484C156.366 69.3246 156.07 69.2442 155.752 69.2434C155.509 69.2344 155.283 69.2848 155.073 69.3953C154.854 69.4668 154.665 69.5878 154.506 69.76C154.334 69.9195 154.213 70.109 154.141 70.327C154.031 70.5368 153.98 70.7632 153.989 71.0061C154.01 71.1625 154.031 71.3182 154.052 71.4746C154.136 71.7731 154.287 72.0326 154.506 72.2522C154.625 72.3439 154.744 72.4356 154.862 72.5281C155.138 72.6876 155.434 72.768 155.752 72.7688C155.995 72.7778 156.221 72.7274 156.431 72.6169C156.65 72.5454 156.839 72.4244 156.998 72.2522C157.17 72.0927 157.291 71.9032 157.363 71.6851C157.473 71.4753 157.524 71.249 157.515 71.0061C157.493 70.8497 157.472 70.6933 157.452 70.5376Z" fill="white"/>
<path d="M138.309 88.2457C136.646 88.2457 136.643 90.8311 138.309 90.8311C139.972 90.8311 139.975 88.2457 138.309 88.2457Z" fill="white"/>
<path d="M208.844 127.483C208.806 127.348 208.738 127.232 208.64 127.132C208.587 127.091 208.533 127.05 208.479 127.008C208.355 126.936 208.222 126.9 208.079 126.9C207.97 126.896 207.868 126.919 207.774 126.968C207.675 127 207.59 127.055 207.518 127.132C207.44 127.204 207.386 127.29 207.354 127.388C207.304 127.483 207.282 127.584 207.286 127.693C207.295 127.764 207.304 127.834 207.314 127.904C207.352 128.039 207.42 128.155 207.518 128.254C207.571 128.295 207.625 128.336 207.679 128.378C207.802 128.449 207.936 128.485 208.079 128.486C208.188 128.49 208.29 128.467 208.384 128.418C208.483 128.386 208.568 128.331 208.64 128.254C208.717 128.182 208.772 128.097 208.804 127.999C208.853 127.905 208.876 127.802 208.872 127.693C208.863 127.623 208.853 127.553 208.844 127.483Z" fill="white"/>
<path d="M116.869 180.236C114.808 180.236 114.805 183.438 116.869 183.438C118.929 183.438 118.932 180.236 116.869 180.236Z" fill="white"/>
<path d="M97.9725 204.154C96.7625 204.154 96.761 206.034 97.9725 206.034C99.1825 206.034 99.1847 204.154 97.9725 204.154Z" fill="white"/>
<path d="M93.5175 210.025C93.4536 209.828 93.3438 209.658 93.1889 209.515C93.0821 209.432 92.9746 209.349 92.8678 209.267C92.6204 209.123 92.3534 209.051 92.0669 209.05C92.0413 209.052 92.0158 209.054 91.9902 209.056L91.5495 209.115C91.4172 209.171 91.2856 209.227 91.1532 209.282C90.9599 209.387 90.805 209.529 90.6877 209.709C90.5847 209.813 90.514 209.935 90.4749 210.075C90.3997 210.204 90.3621 210.343 90.3614 210.493C90.3223 210.64 90.3223 210.787 90.3614 210.934C90.3621 211.083 90.3997 211.223 90.4749 211.352C90.5418 211.557 90.6561 211.735 90.8178 211.886C90.9299 211.972 91.0419 212.059 91.1532 212.145C91.2856 212.201 91.4172 212.257 91.5495 212.312C91.6962 212.332 91.8436 212.351 91.9902 212.372C92.1368 212.352 92.2842 212.332 92.4309 212.312C92.5632 212.257 92.6948 212.201 92.8272 212.145C93.0204 212.041 93.1753 211.899 93.2927 211.718C93.3957 211.614 93.4664 211.492 93.5055 211.352C93.6092 211.154 93.6566 210.941 93.6483 210.713C93.6506 210.688 93.6529 210.662 93.6544 210.637C93.6619 210.418 93.6168 210.214 93.5175 210.025Z" fill="white"/>
<path d="M99.4259 232.354C98.4994 232.354 98.4979 233.794 99.4259 233.794C100.352 233.794 100.354 232.354 99.4259 232.354Z" fill="white"/>
<path d="M60.5448 266.74C58.9761 266.74 58.9731 269.178 60.5448 269.178C62.1135 269.178 62.1157 266.74 60.5448 266.74Z" fill="white"/>
<path d="M56.4447 276.113C56.4086 275.984 56.3432 275.871 56.2484 275.776C56.2101 275.731 56.1717 275.686 56.1334 275.642C56.0687 275.592 56.0048 275.543 55.9401 275.493L55.7123 275.397C55.5852 275.357 55.4581 275.351 55.3318 275.379C55.246 275.379 55.1656 275.401 55.0911 275.445C55.0099 275.467 54.94 275.509 54.8805 275.567C54.8091 275.61 54.752 275.667 54.7091 275.739C54.6497 275.798 54.6091 275.869 54.5865 275.949C54.5264 276.063 54.4993 276.186 54.5045 276.317C54.5158 276.401 54.5271 276.486 54.5384 276.571L54.6346 276.798C54.6843 276.863 54.7339 276.927 54.7843 276.992C54.849 277.041 54.9129 277.091 54.9776 277.141C55.0535 277.173 55.1295 277.204 55.2054 277.237C55.3325 277.277 55.4596 277.283 55.5859 277.254C55.6724 277.254 55.7521 277.232 55.8266 277.189C55.9446 277.15 56.0477 277.084 56.1341 276.992C56.1725 276.947 56.2108 276.902 56.2492 276.857C56.3236 276.788 56.3763 276.706 56.4071 276.611C56.4552 276.52 56.477 276.422 56.4733 276.316C56.4628 276.249 56.4537 276.181 56.4447 276.113Z" fill="white"/>
<path d="M233.269 193.032C233.192 192.756 233.052 192.517 232.85 192.313C232.741 192.228 232.63 192.144 232.52 192.059C232.266 191.911 231.992 191.837 231.698 191.836C231.474 191.828 231.264 191.874 231.07 191.977C230.867 192.042 230.693 192.155 230.545 192.313C230.386 192.461 230.273 192.636 230.208 192.838C230.106 193.032 230.059 193.242 230.067 193.466C230.087 193.611 230.106 193.755 230.125 193.899C230.203 194.175 230.343 194.415 230.544 194.619C230.654 194.704 230.764 194.789 230.874 194.874C231.128 195.021 231.403 195.096 231.697 195.097C231.922 195.105 232.131 195.058 232.325 194.956C232.527 194.891 232.702 194.778 232.85 194.619C233.008 194.472 233.121 194.297 233.187 194.094C233.289 193.9 233.336 193.69 233.327 193.466C233.308 193.321 233.289 193.177 233.269 193.032Z" fill="white"/>
<path d="M238.291 196.522C238.253 196.385 238.184 196.266 238.084 196.165C238.029 196.123 237.975 196.081 237.921 196.039C237.794 195.966 237.659 195.929 237.513 195.928C237.402 195.924 237.298 195.947 237.202 195.998C237.102 196.03 237.014 196.085 236.941 196.164C236.841 196.265 236.772 196.384 236.734 196.521C236.695 196.664 236.695 196.807 236.734 196.95C236.762 197.023 236.79 197.096 236.818 197.169C236.842 197.226 236.866 197.283 236.89 197.341C236.935 197.426 236.997 197.492 237.076 197.544C237.121 197.588 237.174 197.619 237.235 197.636C237.32 197.681 237.413 197.702 237.512 197.698C237.576 197.689 237.64 197.68 237.704 197.672C237.761 197.648 237.818 197.624 237.876 197.6C237.96 197.555 238.027 197.492 238.078 197.414C238.142 197.344 238.185 197.263 238.207 197.169C238.236 197.096 238.263 197.023 238.292 196.95C238.33 196.807 238.33 196.665 238.291 196.522Z" fill="white"/>
<path d="M331.992 237.794C329.648 237.794 329.644 241.437 331.992 241.437C334.335 241.436 334.34 237.794 331.992 237.794Z" fill="white"/>
<path d="M333.809 245.668C332.713 245.668 332.711 247.372 333.809 247.372C334.905 247.371 334.907 245.668 333.809 245.668Z" fill="white"/>
<path d="M333.809 300.579C332.297 300.579 332.294 302.929 333.809 302.929C335.32 302.929 335.323 300.579 333.809 300.579Z" fill="white"/>
<path d="M250.094 230.334C250.076 230.271 250.044 230.215 249.997 230.168C249.964 230.112 249.919 230.067 249.862 230.034C249.816 229.987 249.76 229.955 249.697 229.938C249.607 229.89 249.511 229.869 249.407 229.873C249.262 229.889 249.118 229.905 248.973 229.924C248.928 229.923 248.885 229.93 248.843 229.944C248.729 229.971 248.629 230.023 248.544 230.101C248.484 230.147 248.466 230.156 248.43 230.202C248.412 230.223 248.396 230.245 248.379 230.266L248.268 230.405C248.229 230.456 248.19 230.506 248.151 230.557C248.126 230.617 248.1 230.676 248.076 230.736C248.067 230.802 248.058 230.869 248.049 230.935C248.045 231.038 248.067 231.135 248.114 231.224C248.132 231.287 248.164 231.343 248.21 231.39C248.243 231.446 248.288 231.49 248.345 231.524C248.391 231.571 248.446 231.602 248.51 231.621C248.6 231.668 248.695 231.689 248.799 231.685C248.854 231.683 248.909 231.681 248.964 231.678C248.989 231.678 249.015 231.676 249.04 231.675C249.052 231.675 249.065 231.675 249.078 231.674C249.237 231.673 249.385 231.633 249.522 231.554C249.556 231.528 249.589 231.502 249.622 231.476C249.674 231.436 249.698 231.421 249.734 231.383C249.744 231.371 249.756 231.36 249.766 231.348C249.784 231.327 249.803 231.308 249.821 231.287C249.861 231.244 249.9 231.2 249.94 231.157C249.979 231.107 250.018 231.056 250.057 231.005C250.083 230.946 250.107 230.886 250.133 230.826C250.142 230.759 250.151 230.693 250.16 230.626C250.162 230.52 250.141 230.423 250.094 230.334Z" fill="white"/>
<path d="M208.903 327.184L220.656 300.815H226.683L238.474 327.184H232.07L222.427 303.904H224.837L215.156 327.184H208.903ZM214.78 321.533L216.399 316.9H229.961L231.618 321.533H214.78ZM239.159 318.934V314.226H249.82V318.934H239.159ZM210.674 373.184V369.229L226.985 349.565L227.738 351.788H210.975V346.815H233.162V350.77L216.889 370.434L216.136 368.211H233.727V373.184H210.674Z" fill="#FFCE5E"/>
</g>
<defs>
<clipPath id="clip0_1041_809">
<rect width="376" height="376" fill="white"/>
</clipPath>
</defs>
</svg>
