<svg width="346" height="229" viewBox="0 0 346 229" fill="none" xmlns="http://www.w3.org/2000/svg">
<path d="M223.434 127.091C221.503 130.123 216.463 133.658 212.885 133.607C200.702 133.381 196.695 125.071 195.379 122.043C195.627 121.982 196.043 121.933 196.338 121.896C198.584 121.573 200.874 119.35 201.545 116.84C202.41 113.58 203.469 107.203 203.344 103.147L218.751 111.689C218.727 112.859 218.65 114.14 218.538 115.432C218.458 116.219 218.381 116.989 218.29 117.74C218.205 118.457 218.109 119.139 218.021 119.771C217.737 121.886 218.681 123.984 220.459 125.148L223.434 127.091Z" fill="#FE8E68"/>
<path d="M224.763 93.8713C223.932 96.0565 224.283 98.5384 225.128 100.718C225.725 102.26 227.051 100.899 228.702 100.927C231.256 100.97 233.254 98.307 234.801 91.2439C235.782 86.0622 236.031 83.4323 235.835 82.9346C235.13 81.1438 232.804 80.181 230.886 80.0125" fill="#3D302A"/>
<path d="M228.652 78.3424C232.679 83.204 234.146 96.8864 230.743 106.414C228.323 113.188 225.516 117.563 222.231 117.422C217.251 117.21 207.596 113.113 204.449 109.684C198.788 103.515 200.435 91.4275 201.605 83.8123C202.667 76.894 205.897 67.9168 214.578 69.6255C220.285 70.7495 225.037 73.9779 228.652 78.3424Z" fill="#FE8E68"/>
<path d="M205.773 82.719C206.668 83.7893 208.241 84.0261 209.538 84.2363C211.279 84.5183 212.145 85.1145 213.045 86.6994C213.621 87.7135 214.192 88.8242 215.219 89.3751C215.703 89.6342 216.436 89.6704 216.675 89.1764C216.215 88.8714 216.061 88.239 216.176 87.699C216.292 87.159 216.625 86.6933 216.975 86.2657C217.27 86.6674 217.302 87.1983 217.464 87.67C217.679 88.2951 218.145 88.8297 218.735 89.1275C218.828 89.1746 218.931 89.2174 219.035 89.203C219.176 89.1836 219.281 89.0664 219.372 88.9571C220.008 88.1973 220.628 86.7453 221.509 86.2826C221.684 87.1125 222.001 87.766 222.512 88.4516C222.957 89.0483 223.491 89.6632 224.22 89.8057C224.456 89.8516 224.749 89.8172 224.86 89.604C224.996 89.3449 224.784 89.0821 224.816 88.8194C224.847 88.5712 224.963 88.4624 225.091 88.2523C225.415 87.7147 225.709 87.194 226.133 86.7241C226.995 87.7056 227.936 88.6171 228.945 89.447C229.167 89.63 229.495 89.8118 229.718 89.6288C229.836 89.5315 229.868 89.366 229.893 89.2144C230.016 88.4473 230.14 87.6803 230.264 86.9126C230.333 86.4819 230.586 85.9202 231.008 86.0295C231.212 86.0827 231.336 86.2838 231.447 86.4638C231.589 86.6945 234.061 89.3105 234.114 89.1075C234.499 87.6229 235.291 86.2687 235.676 84.7835C238.155 75.2143 227.081 67.5242 218.618 67.4837C216.735 67.4747 214.973 67.8703 213.149 68.275C211.203 68.7074 209.188 69.0287 207.418 70.0006C204.942 71.3602 203.061 73.8281 203.545 76.7775" fill="#3D302A"/>
<path d="M209.85 80.1858C211.077 81.5805 211.406 83.5417 211.519 85.3971C211.689 88.1912 211.46 91.0977 210.168 93.5801C209.801 94.2862 209.531 97.784 208.963 97.5907C208.783 97.5297 208.813 94.8195 208.338 93.3573C207.603 91.0917 204.211 90.2316 202.687 91.6588C200.252 93.9389 201.681 96.7046 202.486 98.4248C202.971 99.4625 203.736 100.63 203.865 101.731C204.031 103.14 204.076 108.263 203.159 109.465C202.393 110.469 201.578 105.621 200.888 104.667C195.755 97.5581 190.832 79.4538 199.599 75.5326C200.932 74.9371 205.048 74.626 206.293 75.3865" fill="#3D302A"/>
<path d="M242.293 224.084C242.802 224.171 243.314 224.24 243.84 224.257C246.661 224.35 249.385 223.727 252.145 223.252C254.571 222.834 255.229 222.603 255.176 219.674C254.757 196.473 251.347 173.338 245.221 150.959C244.285 147.541 243.269 144.1 241.477 141.044C238.422 135.833 231.398 131.33 226.016 128.804C225.255 128.447 222.106 130.452 221.341 130.105C220.668 129.801 220.078 129.334 219.402 129.038C217.425 128.171 216.1 129.983 214.445 130.735C213.592 131.122 212.636 131.366 211.694 131.327C210.928 131.295 210.234 130.833 209.532 131.196C206.384 132.825 198.565 120.72 198.565 120.72L195.181 124.263L185.275 134.656L160.511 168.824C160.511 168.824 156.018 196.827 152.929 215.18C152.394 218.348 150.267 225.188 149.848 227.588C149.938 227.072 170.983 226.928 172.12 226.928C186.754 226.928 200.383 226.928 215.017 226.928C217.423 226.928 223.893 227.951 225.584 226.18C227.663 224.003 230.072 214.026 230.196 211.23C230.611 201.827 229.968 192.495 229.842 183.033C229.893 186.879 230.998 190.359 231.47 194.128C232.077 198.978 232.947 203.825 233.729 208.65C234.357 212.53 234.959 216.415 235.441 220.317C235.658 222.072 235.379 223.118 236.864 223.805C238.113 224.383 240.835 223.835 242.293 224.084Z" fill="#D27648"/>
<path d="M234.344 216.05C233.197 215.576 226.124 213.819 222.934 213.158C221.261 212.812 213.69 210.845 211.935 210.845C210.181 210.845 207.793 213.356 207.793 213.356L208.426 221.998C210.113 221.829 212.374 222.708 213.589 222.877C214.804 223.046 218.922 223.067 221.452 221.796C221.597 221.723 221.727 221.642 221.864 221.565C222.883 222.469 224.163 223.352 225.576 223.423C225.576 223.423 226.683 223.311 226.578 222.862C226.526 222.644 225.795 221.52 225.058 220.424C226.142 221.53 227.916 223.321 229.961 223.423C229.961 223.423 231.068 223.311 230.963 222.862C230.9 222.598 229.843 221.008 228.983 219.744C228.995 219.753 229.01 219.764 229.021 219.773C229.917 220.565 232.052 223.297 234.583 223.423C234.583 223.423 235.69 223.311 235.585 222.862C235.547 222.699 235.128 222.031 234.614 221.248C235.259 221.74 236.051 222.268 237.01 222.743C239.743 224.094 241.296 223.068 241.296 222.743C241.296 222.416 235.492 216.523 234.344 216.05Z" fill="#FE8E68"/>
<path d="M209.745 206.013C209.745 206.013 214.15 208.514 213.759 213.829C213.368 219.143 211.773 225.307 205.126 224.661C198.479 224.015 209.745 206.013 209.745 206.013Z" fill="#874C2E"/>
<path d="M203.695 224.133C187.764 229.672 166.443 224.381 152.928 215.18C144.461 209.429 139.061 202.13 139.968 194.996C142.327 176.465 156.867 133.994 169.45 127.794C178 123.577 188.377 121.829 194.155 121.133C196.867 120.802 198.565 120.72 198.565 120.72L196.466 126.649L185.958 156.316C185.569 173.926 172.987 184.378 175.487 188.476C177.986 192.563 197.751 196.98 208.128 203.983C211.007 205.933 214.65 219.999 203.695 224.133Z" fill="#D27648"/>
<path d="M139.969 195.453L139.936 196.688C139.938 196.893 139.909 197.098 139.935 197.303L140.006 197.914C140.065 198.32 140.064 198.734 140.168 199.13L140.461 200.322C140.946 201.88 141.615 203.385 142.527 204.74C144.278 207.495 146.595 209.86 149.149 211.89C154.269 215.96 160.164 219.003 166.315 221.217C172.453 223.481 178.892 224.973 185.418 225.515C188.68 225.796 191.966 225.828 195.232 225.548C198.5 225.297 201.747 224.695 204.893 223.715C201.811 224.89 198.556 225.587 195.277 225.99C191.991 226.363 188.67 226.409 185.367 226.21C182.062 226.022 178.777 225.525 175.544 224.817C172.31 224.109 169.121 223.193 166.005 222.067C162.9 220.915 159.863 219.569 156.956 217.975C154.054 216.376 151.247 214.574 148.71 212.426C146.168 210.296 143.861 207.832 142.152 204.97C141.279 203.552 140.657 201.985 140.23 200.384C139.808 198.77 139.776 197.087 139.969 195.453Z" fill="#874C2E"/>
<path d="M185.961 156.321C185.974 159.66 185.509 163.006 184.643 166.246C183.767 169.485 182.491 172.608 181.006 175.611C180.267 177.115 179.473 178.59 178.66 180.046C177.856 181.506 177.031 182.956 176.356 184.446C176.024 185.189 175.737 185.954 175.621 186.708C175.589 187.079 175.559 187.456 175.665 187.779C175.688 187.953 175.791 188.088 175.852 188.243C175.966 188.382 176.045 188.534 176.188 188.664C177.264 189.745 178.81 190.479 180.279 191.181C186.298 193.926 192.688 195.962 198.782 198.708C201.828 200.079 204.845 201.558 207.646 203.407L208.167 203.761C208.34 203.881 208.505 204.039 208.672 204.177C208.983 204.482 209.258 204.821 209.476 205.19C209.923 205.922 210.225 206.72 210.458 207.528C210.902 209.153 211.091 210.827 211.105 212.496C210.993 210.833 210.722 209.177 210.229 207.598C209.713 206.035 208.91 204.514 207.406 203.782C204.592 202.031 201.567 200.635 198.506 199.349C195.436 198.079 192.333 196.88 189.212 195.715C186.095 194.533 182.958 193.4 179.896 192.003C178.389 191.255 176.84 190.55 175.552 189.251C175.388 189.097 175.259 188.879 175.118 188.691C175.015 188.464 174.879 188.244 174.84 188C174.697 187.518 174.74 187.042 174.786 186.588C174.933 185.691 175.255 184.884 175.606 184.11C176.321 182.566 177.161 181.12 177.977 179.666C178.793 178.211 179.615 176.767 180.387 175.298C183.492 169.443 185.649 163.011 185.961 156.321Z" fill="#874C2E"/>
<path d="M227.252 129.382C225.731 130.894 218.966 135.719 212.515 135.719C211.442 135.719 210.31 135.625 209.107 135.4C203.694 134.408 199.13 130.794 196.465 126.649C195.97 125.869 195.534 125.066 195.18 124.263C194.696 123.223 194.355 122.16 194.154 121.133C196.867 120.802 199.461 120.117 199.885 119.633C200.345 122.798 204.249 128.515 210.156 129.589C210.899 129.731 211.595 129.79 212.267 129.802H212.279C215.05 129.849 217.185 128.964 218.636 128.066C218.648 128.066 221.466 125.842 221.478 125.83L227.252 129.382Z" fill="#D27648"/>
<path d="M218.096 100.094C218.7 100.094 219.19 99.1258 219.19 97.932C219.19 96.7381 218.7 95.7702 218.096 95.7702C217.492 95.7702 217.002 96.7381 217.002 97.932C217.002 99.1258 217.492 100.094 218.096 100.094Z" fill="#56211A"/>
<path d="M218.562 99.4462C218.824 99.4462 219.036 99.1503 219.036 98.7854C219.036 98.4205 218.824 98.1246 218.562 98.1246C218.3 98.1246 218.088 98.4205 218.088 98.7854C218.088 99.1503 218.3 99.4462 218.562 99.4462Z" fill="white"/>
<path d="M229.865 101.085C230.47 101.085 230.959 100.117 230.959 98.9231C230.959 97.7292 230.47 96.7614 229.865 96.7614C229.261 96.7614 228.771 97.7292 228.771 98.9231C228.771 100.117 229.261 101.085 229.865 101.085Z" fill="#56211A"/>
<path d="M226.118 108.212C226.104 108.668 224.199 111.445 222.347 111.224C220.793 111.039 219.431 108.122 220.249 106.793C220.687 106.329 226.131 107.756 226.118 108.212Z" fill="white"/>
<path d="M214.842 92.6216C216.197 91.4251 219.456 91.8895 220.841 92.7768C221.113 92.9508 221.407 92.5582 221.182 92.3347C220.244 91.4009 218.679 91.3453 217.433 91.3913C216.488 91.4257 214.937 91.3846 214.613 92.4887C214.573 92.6264 214.744 92.7086 214.842 92.6216Z" fill="#3D302A"/>
<path d="M228.078 93.4322C228.906 93.3687 229.675 93.2165 230.502 93.4225C231.33 93.6291 231.939 94.1352 232.674 94.523C232.834 94.6069 232.976 94.442 232.907 94.2898C232.184 92.6904 229.377 92.1052 227.979 93.0667C227.834 93.167 227.868 93.4479 228.078 93.4322Z" fill="#3D302A"/>
<path d="M224.754 97.9887C224.699 99.2324 224.747 100.507 224.951 101.737C225.025 102.18 225.593 103.359 225.501 103.738C225.401 104.152 224.679 104.664 224.434 105.072C224.31 105.278 224.552 105.491 224.75 105.388C225.485 105.006 226.329 104.441 226.176 103.552C226.034 102.727 225.657 101.934 225.53 101.084C225.376 100.055 225.365 99.0228 225.273 97.9887C225.245 97.6589 224.769 97.6499 224.754 97.9887Z" fill="#CC6144"/>
<path d="M230.195 100.48C230.457 100.48 230.669 100.165 230.669 99.7772C230.669 99.3892 230.457 99.0747 230.195 99.0747C229.933 99.0747 229.721 99.3892 229.721 99.7772C229.721 100.165 229.933 100.48 230.195 100.48Z" fill="white"/>
<path d="M211.762 113.419C213.46 115.417 216.369 116.762 218.982 116.835C219.242 116.843 219.31 116.42 219.044 116.371C216.279 115.857 214.232 114.906 212.021 113.16C211.838 113.015 211.607 113.236 211.762 113.419Z" fill="#CC6144"/>
<path d="M198.557 119.733C194.635 117.872 192.537 123.773 192.141 126.665C191.379 132.225 193.844 137.406 196.083 142.327C198.435 147.494 201.125 152.489 203.53 157.63C204.774 160.291 205.873 163.018 206.703 165.838C207.571 168.787 207.67 172.075 208.735 174.917C208.881 175.304 209.38 175.219 209.43 174.822C209.949 170.703 208.128 165.637 206.709 161.783C205.351 158.093 203.597 154.566 201.846 151.052C199.561 146.466 197.244 141.837 195.366 137.065C194.424 134.672 193.648 132.17 193.481 129.588C193.348 127.524 194.105 119.122 198.115 120.781C198.711 121.028 199.142 120.011 198.557 119.733Z" fill="#874C2E"/>
<path d="M221.466 126.084C226.399 127.963 224.675 136.993 224 140.908C223.179 145.673 221.642 150.293 219.715 154.719C215.956 163.351 210.892 171.357 206.358 179.586C205.984 180.264 207.012 180.868 207.396 180.194C213.033 170.285 219.458 160.667 223.181 149.809C224.908 144.771 226.01 139.47 226.086 134.131C226.137 130.582 225.615 126.261 221.775 124.964C221.059 124.722 220.78 125.822 221.466 126.084Z" fill="#874C2E"/>
<path d="M214.883 175.388C211.072 175.275 207.262 175.161 203.451 175.048C202.836 175.03 202.475 175.547 202.406 176.094C201.688 181.826 201.439 187.669 200.579 193.375C200.478 194.047 200.845 194.684 201.586 194.699C205.345 194.778 209.104 194.89 212.863 194.931C213.06 194.934 213.225 194.887 213.364 194.811C213.37 194.808 213.376 194.804 213.382 194.801C213.419 194.78 213.457 194.76 213.489 194.734C213.662 194.614 213.802 194.429 213.87 194.164C215.321 188.527 215.323 182.217 215.927 176.434C215.987 175.859 215.4 175.403 214.883 175.388Z" fill="#874C2E"/>
<path d="M230.007 198.637C230.173 195.528 229.865 192.38 229.843 189.264C229.82 186.036 229.916 182.812 230.088 179.589C230.253 176.465 230.506 173.346 230.862 170.237C231.229 167.036 231.898 163.865 232.236 160.665C232.282 160.235 231.597 160.157 231.493 160.564C230.743 163.508 230.453 166.638 230.098 169.655C229.71 172.955 229.426 176.27 229.267 179.589C229.112 182.81 229.093 186.04 229.165 189.263C229.235 192.378 229.237 195.598 229.875 198.654C229.892 198.732 230.003 198.709 230.007 198.637Z" fill="#874C2E"/>
<path d="M198.31 125.537C199.329 129.722 204.007 133.272 208.123 133.89C208.471 133.942 208.623 133.462 208.271 133.351C206.148 132.677 204.143 131.798 202.431 130.344C200.775 128.938 199.762 127.206 198.595 125.417C198.499 125.27 198.267 125.361 198.31 125.537Z" fill="#874C2E"/>
<path d="M212.017 133.91C212.734 133.748 213.445 133.578 214.153 133.377C214.785 133.198 215.449 133.074 216.001 132.705C216.166 132.595 216.105 132.334 215.899 132.329C214.6 132.295 213.096 133.01 211.887 133.439C211.593 133.544 211.708 133.98 212.017 133.91Z" fill="#874C2E"/>
<path d="M205.025 94.6909C205.422 94.079 206.035 95.9762 206.061 96.1357C206.176 96.8725 206.025 97.5309 205.836 98.2358C205.766 98.5009 206.583 98.2919 206.68 98.1041C207.211 97.0755 207.251 95.287 206.328 94.4433C205.751 93.916 204.63 94.0609 204.208 94.7217C204.02 95.0158 204.892 94.8944 205.025 94.6909Z" fill="#CC6144"/>
<path d="M206.326 96.1429C206.321 96.0632 206.329 95.9853 206.35 95.908C206.358 95.8844 206.353 95.8645 206.334 95.8482C206.006 95.4477 205.497 95.2617 205.003 95.4507C204.973 95.4622 204.869 95.5099 204.913 95.557C205.031 95.6827 205.262 95.6778 205.413 95.7527C205.538 95.8149 205.633 95.9001 205.736 95.9913C205.844 96.0879 205.974 96.1278 206.088 96.2208C206.137 96.2607 206.326 96.2184 206.326 96.1429Z" fill="#CC6144"/>
<path d="M220.12 111.651C220.576 112.287 221.564 112.619 222.272 112.191C222.325 112.159 222.321 112.119 222.253 112.122C221.621 112.153 221.044 111.972 220.663 111.44C220.571 111.312 220.01 111.498 220.12 111.651Z" fill="#CC6144"/>
<path d="M215.645 98.9992C215.575 99.4891 215.589 99.8829 215.867 100.311C216.106 100.676 216.411 100.945 216.845 101.029C216.894 101.038 217.147 100.986 217.086 100.901C216.852 100.575 216.496 100.39 216.291 100.024C216.108 99.6975 215.941 99.3157 215.917 98.9418C215.913 98.8718 215.654 98.9334 215.645 98.9992Z" fill="#CC6144"/>
<path d="M230.11 101.987C230.156 101.987 230.266 101.919 230.17 101.919C230.124 101.919 230.014 101.987 230.11 101.987Z" fill="#CC6144"/>
<path d="M230.779 101.859C231.175 101.655 231.74 101.054 231.363 100.602C231.334 100.567 231.221 100.609 231.205 100.645C231.017 101.072 230.979 101.531 230.515 101.77C230.252 101.905 230.657 101.923 230.779 101.859Z" fill="#CC6144"/>
<path d="M230.181 174.485C230.352 171.92 231.524 169.913 233.094 167.927C234.313 166.387 235.832 165.39 237.23 164.063C237.382 163.919 237.225 163.645 237.023 163.708C234.986 164.345 233.335 166.421 232.115 168.078C230.837 169.813 229.063 172.259 229.847 174.53C229.911 174.712 230.168 174.679 230.181 174.485Z" fill="#874C2E"/>
<path d="M229.877 176.01C230.524 175.222 230.932 174.257 231.5 173.41C232.172 172.405 232.954 171.472 233.816 170.626C233.983 170.463 235.582 168.828 235.737 170.14C235.835 170.969 234.18 171.281 233.693 171.576C233.146 171.909 232.777 172.171 232.776 172.845C232.775 173.064 233.1 173.171 233.204 172.961C233.854 171.651 236.2 171.695 236.447 169.94C236.547 169.235 235.98 168.785 235.293 168.857C234.058 168.987 232.771 170.791 232.079 171.655C231.111 172.864 229.971 174.365 229.741 175.93C229.731 176.001 229.819 176.081 229.877 176.01Z" fill="#874C2E"/>
<path d="M205.938 207.861C205.942 209.95 205.906 211.971 205.175 213.96C204.447 215.94 203.127 217.45 201.903 219.124C201.81 219.251 201.986 219.394 202.106 219.327C205.677 217.346 207.484 211.605 206.264 207.816C206.208 207.642 205.937 207.667 205.938 207.861Z" fill="#874C2E"/>
<path d="M221.84 188.638C221.328 191.859 220.733 194.79 219.073 197.655C217.423 200.501 215.068 202.972 212.309 204.76C212.089 204.903 212.285 205.246 212.516 205.114C218.045 201.958 222.7 195.32 222.319 188.703C222.304 188.446 221.885 188.351 221.84 188.638Z" fill="#874C2E"/>
<path d="M239.95 106.69C240.645 106.405 241.537 106.135 241.978 105.488C242.046 105.388 241.955 105.262 241.847 105.259C241.089 105.237 240.351 105.794 239.735 106.178C239.48 106.338 239.645 106.815 239.95 106.69Z" fill="#874C2E"/>
<path d="M240.049 108.496C240.468 108.785 241.154 109.05 241.634 108.756C241.773 108.67 241.779 108.46 241.634 108.376C241.437 108.262 241.2 108.233 240.98 108.179C240.741 108.121 240.506 108.046 240.278 107.952C239.949 107.817 239.79 108.317 240.049 108.496Z" fill="#874C2E"/>
<path d="M239.411 111.927C239.819 112.171 240.365 112.561 240.864 112.528C240.984 112.52 241.077 112.392 241.007 112.278C240.744 111.848 240.131 111.636 239.693 111.443C239.372 111.302 239.094 111.738 239.411 111.927Z" fill="#874C2E"/>
<path d="M22.8047 227.256H39.1481H66.6423H78.0948H106.988H319.374H329.952H338.919" stroke="black" stroke-width="2.1886" stroke-miterlimit="10" stroke-linecap="round"/>
<path d="M18.8085 227.258H1.09375" stroke="black" stroke-width="2.1886" stroke-miterlimit="10" stroke-linecap="round"/>
<path d="M344.446 227.258H341.477" stroke="black" stroke-width="2.1886" stroke-miterlimit="10" stroke-linecap="round"/>
<path d="M303.388 223.606H203.28C202.312 223.606 201.525 224.394 201.525 225.363V225.491C201.525 226.46 202.312 227.248 203.28 227.248H303.388C304.355 227.248 305.142 226.46 305.142 225.491V225.363C305.142 224.394 304.355 223.606 303.388 223.606Z" fill="#2D2442"/>
<path d="M322.933 178.941C302.102 178.73 281.272 178.519 260.441 178.309C257.483 178.278 254.525 178.249 251.567 178.219C251.107 178.214 250.515 178.487 250.321 178.934C244.598 192.169 238.874 205.403 233.151 218.638C232.334 220.527 231.517 222.416 230.7 224.304C230.673 224.367 230.659 224.429 230.64 224.492C230.64 224.493 230.639 224.495 230.639 224.495C230.621 224.556 230.603 224.617 230.593 224.677C230.429 225.443 230.818 226.343 231.759 226.458C231.978 226.522 232.203 226.536 232.414 226.482C253.824 226.649 275.233 226.817 296.643 226.984C299.699 227.009 302.756 227.032 305.812 227.056C306.495 227.062 306.976 226.595 307.203 225.996C312.91 210.92 318.616 195.845 324.323 180.77C324.665 179.869 323.796 178.95 322.933 178.941Z" fill="#2D2442"/>
<path d="M322.933 177.95C303.705 177.755 284.477 177.56 265.249 177.366C262.907 177.342 260.565 177.319 258.223 177.295C256.104 177.273 253.656 176.901 251.567 177.227C248.464 177.711 247.667 182.596 246.605 185.051C242.79 193.874 238.974 202.698 235.158 211.52C233.524 215.3 231.885 219.077 230.255 222.859C229.64 224.286 229.039 226.012 230.659 227.095C231.476 227.642 232.717 227.471 233.605 227.483C235.983 227.515 238.362 227.52 240.742 227.538C245.499 227.576 250.257 227.613 255.015 227.65C264.53 227.724 274.045 227.799 283.561 227.874C288.304 227.91 293.047 227.948 297.79 227.985C299.7 228 301.611 228.014 303.521 228.029C304.995 228.041 306.454 228.323 307.594 227.239C308.83 226.063 309.247 223.385 309.829 221.846C310.664 219.64 311.499 217.434 312.334 215.228C314.283 210.08 316.231 204.932 318.18 199.784C319.989 195.004 321.799 190.224 323.608 185.445C324.514 183.051 327.036 178.977 323.195 177.984C321.961 177.665 321.434 179.577 322.669 179.897C323.932 180.223 319.623 190.4 319.193 191.537C317.802 195.214 316.41 198.891 315.018 202.568C313.626 206.245 312.234 209.921 310.842 213.599C310.215 215.253 309.589 216.908 308.963 218.562C308.28 220.366 307.787 223.036 306.666 224.629C305.223 226.681 302.216 226.037 300.081 226.02C298.142 226.005 296.203 225.99 294.264 225.975C290.299 225.944 286.335 225.912 282.37 225.882C274.44 225.819 266.51 225.758 258.581 225.695C250.652 225.633 242.722 225.572 234.793 225.509C233.973 225.503 232.584 225.855 232.004 225.125C231.264 224.194 231.682 225.538 231.963 223.861C232.198 222.464 233.24 220.909 233.801 219.611C235.459 215.777 237.116 211.944 238.774 208.11C241.954 200.758 245.134 193.405 248.313 186.053C249.019 184.421 249.588 181.864 250.698 180.538C252.182 178.764 254.532 179.241 256.557 179.261C260.656 179.303 264.754 179.344 268.852 179.386C286.879 179.568 304.905 179.75 322.931 179.933C324.208 179.945 324.209 177.963 322.933 177.95Z" fill="#2D2442"/>
<path d="M274.971 207.65C277.638 207.65 279.8 206.072 279.8 204.125C279.8 202.178 277.638 200.6 274.971 200.6C272.305 200.6 270.143 202.178 270.143 204.125C270.143 206.072 272.305 207.65 274.971 207.65Z" fill="#5A4F72"/>
<path d="M284.255 206.322C285.647 206.322 286.774 205.499 286.774 204.483C286.774 203.467 285.647 202.644 284.255 202.644C282.864 202.644 281.736 203.467 281.736 204.483C281.736 205.499 282.864 206.322 284.255 206.322Z" fill="#5A4F72"/>
<path d="M166.193 214.357C169.275 213.986 174.732 213.158 174.869 211.257C172.875 209.967 170.675 208.661 168.304 208.545C166.412 208.452 164.576 209.151 162.845 209.921C161.372 210.577 159.927 211.293 158.513 212.068C157.933 212.386 156.415 213.522 156.391 214.314C156.361 215.298 158.165 214.717 158.881 214.767C161.324 214.941 163.771 214.648 166.193 214.357Z" fill="#C1ADA4"/>
<path d="M158.91 212.746C158.91 212.746 163.009 226.187 165.178 226.508C167.348 226.83 188.562 226.991 189.125 226.75C189.688 226.508 189.768 226.106 189.768 226.106C189.768 226.106 203.268 226.992 203.509 226.67C203.75 226.348 203.509 224.738 202.866 224.497C202.223 224.255 181.812 219.668 180.044 219.024C178.277 218.38 172.731 218.541 172.731 218.541L171.607 210.734L158.91 212.746Z" fill="#FE8E68"/>
<path d="M163.862 44.1065C165.192 45.5325 165.913 47.5094 165.815 49.4579C165.756 50.6194 165.421 51.7477 165.073 52.8573C164.402 54.993 163.606 57.2054 161.947 58.707C161.678 58.9504 161.34 59.1854 160.984 59.1207C160.319 57.0695 159.654 55.0178 158.989 52.9666C158.669 51.9808 158.349 50.9909 158.169 49.9701C157.864 48.2445 157.975 46.4379 158.557 44.786C158.822 44.0358 159.203 43.2941 159.835 42.8121C161.375 41.6373 162.816 42.9837 163.862 44.1065Z" fill="#433735"/>
<path d="M124.553 157.803C124.337 159.904 124.661 162.124 124.778 164.225C124.844 165.419 124.91 166.617 124.907 167.813C124.906 168.507 124.7 169.351 124.938 170.004C124.963 170.073 125.063 170.121 125.119 170.052C126.046 168.921 125.521 166.221 125.478 164.858C125.404 162.507 125.293 160.154 125.202 157.803C125.186 157.378 124.595 157.393 124.553 157.803Z" fill="#9B8580"/>
<path d="M130.533 153.657C128.302 158.732 127.063 163.896 124.005 168.639C123.832 168.908 124.261 169.158 124.433 168.889C127.136 164.635 130.078 158.798 130.788 153.765C130.807 153.625 130.603 153.498 130.533 153.657Z" fill="#9B8580"/>
<path d="M81.4893 227.258L82.8619 180.826L92.9393 227.258H121.838C119.918 211.811 111.398 147.25 102.495 141.777L67.5184 119.965C67.5184 119.965 47.278 125.253 47.72 154.553C49.3369 182.775 52.7817 215.988 53.9963 227.257H81.4893V227.258Z" fill="#2D2442"/>
<path d="M174.791 211.305C174.04 212.444 170.221 211.588 169.091 211.698C168.081 211.796 167.123 212.179 166.141 212.435C163.015 213.252 159.523 212.823 156.712 214.419C156.625 214.468 156.525 214.521 156.429 214.492C156.323 214.46 156.271 214.343 156.233 214.238C154.439 209.259 153.035 204.064 151.464 198.99C149.102 191.366 146.74 183.742 144.378 176.117C143.158 172.179 141.938 168.241 140.718 164.303L132.139 124.48L135.953 96.4093L136.857 89.7864L136.923 89.2839C136.923 89.2839 137.107 89.3497 137.451 89.4687C138.645 89.8915 141.714 91.0415 145.113 92.7007C150.557 95.3644 156.853 99.3568 157.711 103.878C157.713 103.893 157.715 103.909 157.718 103.925C158.171 107.093 158.68 110.255 159.177 113.417C160.059 119.026 160.952 124.634 161.847 130.241C162.961 137.218 164.081 144.194 165.202 151.17C166.37 158.439 167.54 165.708 168.713 172.977C169.759 179.462 170.806 185.948 171.854 192.433C172.602 197.06 173.351 201.686 174.1 206.313C174.307 207.593 174.514 208.873 174.721 210.153C174.758 210.378 174.949 210.902 174.878 211.121C174.857 211.187 174.828 211.248 174.791 211.305Z" fill="#EED9CE"/>
<path d="M136.924 89.2845L136.858 89.787L135.954 96.4099L132.14 124.481L113.47 136.001C112.495 136.602 111.656 140.739 111.259 141.775C109.97 145.14 108.845 148.635 107.371 151.923C107.069 152.597 106.799 154.432 106.129 154.842C104.783 155.667 99.3107 154.536 97.6209 154.427C91.364 154.024 85.0401 153.104 79.3175 150.403C74.7932 148.268 70.7864 145.247 66.528 142.655C63.9258 141.07 61.0244 140.081 58.2701 138.808C56.4307 137.957 52.4552 136.326 51.7466 134.159C51.5422 133.534 51.8588 132.869 52.1603 132.284C53.475 129.734 54.3495 126.661 55.9024 124.293C57.3341 122.109 59.0975 120.14 60.4937 117.904C63.3034 113.403 65.7832 108.649 69.2926 104.634C75.266 97.7985 80.2854 89.9882 86.4392 83.172C89.1712 80.1448 97.6848 77.2631 101.756 77.0976C105.458 76.9454 109.049 77.5536 112.19 78.4324C114.718 79.1464 116.962 80.0318 118.73 80.8315C121.324 82.0081 122.901 83.0059 122.901 83.0059L136.924 89.2845Z" fill="#EED9CE"/>
<path d="M143.824 126.628C145.79 125.417 154.976 119.545 155.799 117.423C156.181 116.439 158.265 113.406 160.065 110.562C161.131 108.879 163.829 105.576 164.511 104.868C165.679 103.655 167.367 100.649 168.385 101.638C169.655 102.87 167.672 105.952 166.555 107.842C166.145 108.536 165.704 109.233 165.527 110.019C165.349 110.805 165.389 111.391 165.849 112.052C166.1 112.412 167.817 112.584 168.393 112.559C172.732 112.368 174.614 112.624 177.85 111.417C181.086 110.21 184.109 108.506 187.161 106.889C187.685 106.612 188.002 106.044 189.183 105.934C189.772 105.88 191.019 105.96 190.953 106.549C190.901 107.008 187.256 109.859 186.88 110.126C184.86 111.564 185.087 111.402 183.067 112.84C182.753 113.063 182.415 113.322 182.338 113.7C182.273 114.017 182.411 114.338 182.418 114.662C182.429 115.241 182.029 115.738 181.635 116.163C180.945 116.907 180.209 117.602 179.442 118.261C178.368 119.183 179.245 119.968 178.075 120.777C176.785 121.669 173.441 122.575 172.119 123.413C171.061 124.084 169.997 124.758 168.835 125.224C167.443 125.781 165.951 126.025 164.482 126.328C160.458 127.16 153.416 134.462 150.012 136.874" fill="#FE8E68"/>
<path d="M166.93 125.793C166.93 125.793 171.987 125.152 176.01 123.279C180.035 121.405 189.977 115.26 189.977 115.26C189.977 115.26 190.115 114.91 190.009 114.667C189.904 114.424 188.393 114.086 187.176 114.616C185.959 115.145 178.168 118.533 178.168 118.533" fill="#FE8E68"/>
<path d="M165.926 124.093C165.926 124.093 172.334 122.755 176.358 120.88C180.382 119.007 190.325 112.862 190.325 112.862C190.325 112.862 190.463 112.512 190.357 112.268C190.251 112.024 188.741 111.687 187.524 112.217C186.306 112.746 178.516 116.133 178.516 116.133" fill="#FE8E68"/>
<path d="M167.951 120.401C167.951 120.401 174.359 119.062 178.383 117.189C182.407 115.315 188.655 112.113 192.195 109.693C192.428 109.534 192.489 108.82 192.383 108.577C192.277 108.333 190.767 107.996 189.55 108.526C188.333 109.055 180.542 112.442 180.542 112.442" fill="#FE8E68"/>
<path d="M144.181 81.9592C144.181 81.9592 159.69 91.4329 163.319 72.265C164.199 64.3339 165.299 51.4451 158.699 46.4053C152.1 41.3655 136.921 40.7875 136.591 55.7414C137.168 60.0376 137.004 60.368 137.004 60.368C137.004 60.368 131.312 58.7982 132.549 65.9036C133.209 69.126 134.062 70.2826 134.062 70.2826C134.062 70.2826 122.415 79.4163 122.403 79.426C121.332 80.2668 120.434 81.6668 118.948 80.9916C118.785 80.9179 118.628 80.8243 118.452 80.7953C118.276 80.7663 118.07 80.82 117.984 80.9765C117.93 81.0755 117.934 81.1951 117.931 81.3081C117.915 81.8789 117.691 82.42 117.538 82.9697C116.951 85.08 117.56 87.0551 118.669 88.8744C119.612 90.4218 120.946 91.7349 122.529 92.6198C124.042 93.466 125.742 93.9262 127.447 94.2355C129.592 94.6245 131.87 94.7742 133.993 94.1829C135.295 93.8205 136.18 93.4146 137.089 92.357C137.259 92.1589 137.42 91.9505 137.536 91.7162C137.796 91.1871 137.805 90.5728 137.8 89.9827C137.8 89.9006 137.796 89.8112 137.742 89.7496C137.685 89.6849 137.592 89.6717 137.508 89.6578C136.562 89.4977 137.186 89.0018 137.582 88.5869C137.975 88.1762 138.371 87.7684 138.768 87.3626C139.602 86.5097 140.444 85.6641 141.288 84.8209C142.249 83.8624 143.212 82.9075 144.181 81.9592Z" fill="#FE8E68"/>
<path d="M155.731 66.1374C156.335 66.1374 156.825 65.1696 156.825 63.9757C156.825 62.7818 156.335 61.814 155.731 61.814C155.127 61.814 154.637 62.7818 154.637 63.9757C154.637 65.1696 155.127 66.1374 155.731 66.1374Z" fill="#56211A"/>
<path d="M158.097 56.5368C155.731 55.6658 151.653 56.6008 150.156 58.7136C150.054 58.858 150.226 59.0917 150.394 59.0247C151.583 58.553 152.579 57.7937 153.839 57.4356C155.249 57.0345 156.593 57.1475 158.024 57.0792C158.343 57.0641 158.388 56.6437 158.097 56.5368Z" fill="#433735"/>
<path d="M163.898 61.9994C163.542 63.1482 163.901 64.4583 164.366 65.5672C164.831 66.6762 165.545 67.6595 166.254 68.6313C166.572 69.0686 166.891 69.5059 167.21 69.9432C166.212 70.2754 165.239 70.6855 164.305 71.1687C163.744 71.4592 163.139 71.8531 163.027 72.4764" fill="#FE8E68"/>
<path d="M156.757 73.6361C157.425 73.865 158.144 73.9441 158.845 73.8571C158.915 73.8487 158.997 73.8426 159.045 73.8952C159.075 73.929 159.081 73.9773 159.084 74.0226C159.13 74.7154 158.834 75.3798 158.544 76.0104C158.349 76.4338 158.15 76.8638 157.843 77.2154C157.2 77.9523 155.757 78.4197 154.84 77.9704C154.428 77.7686 154.125 77.3948 153.888 77.0009C153.245 75.9307 152.791 74.1199 153.338 72.9125C153.703 72.1055 153.798 72.4039 154.507 72.7301C155.162 73.0315 155.844 73.2718 156.509 73.5424C156.591 73.5763 156.673 73.6071 156.757 73.6361Z" fill="#FFFBF9"/>
<path d="M144.731 123.269C133.416 128.531 115.804 138.03 115.804 138.03L113.274 119.744L86.6562 119.964C86.6562 119.964 94.3557 162.485 100.295 166.451C100.295 166.451 107.334 171.738 118.773 163.807C126.322 158.574 143.885 144.81 152.513 137.287L144.731 123.269Z" fill="#EED9CE"/>
<path d="M94.7244 154.089C94.5519 151.166 93.1691 147.996 92.4261 145.171C91.3713 141.158 90.3135 137.148 89.3281 133.118C87.5472 125.837 86.0292 118.513 84.4401 111.191C84.3937 110.978 84.0373 111.021 84.0554 111.243C84.647 118.542 86.5732 125.848 88.3263 132.934C89.2937 136.842 90.2875 140.747 91.3803 144.622C92.224 147.614 92.8211 151.489 94.4355 154.167C94.5121 154.293 94.734 154.248 94.7244 154.089Z" fill="#DBC4BD"/>
<path d="M151.87 136.325C146.343 139.976 141.42 144.764 136.889 149.567C136.493 149.987 137.125 150.622 137.524 150.202C142.132 145.337 147.222 141.225 152.338 136.933C152.674 136.652 152.235 136.084 151.87 136.325Z" fill="#DBC4BD"/>
<path d="M133.399 129.144C135.224 128.869 137.057 127.931 138.706 127.121C140.143 126.415 142.035 125.744 142.981 124.41C143.151 124.172 142.872 123.936 142.644 123.97C141.081 124.207 139.57 125.479 138.16 126.185C136.523 127.005 134.708 127.608 133.165 128.587C132.858 128.782 133.069 129.193 133.399 129.144Z" fill="#DBC4BD"/>
<path d="M118.253 80.5313C116.208 78.4264 114.205 82.1766 113.592 83.8853C111.949 88.46 112.93 93.9105 114.259 98.4254C115.877 103.921 118.584 108.951 120.029 114.518C121.676 120.859 122.889 127.21 122.641 133.788C122.626 134.194 123.241 134.188 123.267 133.788C123.831 125.213 121.77 115.623 118.575 107.69C116.962 103.683 115.153 99.8321 114.199 95.5915C113.663 93.2081 113.323 90.7178 113.435 88.2698C113.478 87.3112 115.119 78.1793 117.826 80.9584C118.098 81.2374 118.524 80.8104 118.253 80.5313Z" fill="#9B8580"/>
<path d="M138.625 88.4274C139.141 89.2899 139.657 90.1518 140.174 91.0144C140.277 91.5912 140.38 92.1674 140.482 92.7442C140.535 93.3766 140.508 94.0241 140.466 94.6559C140.352 96.3785 139.927 98.0697 139.648 99.7693C139.111 103.049 138.694 106.347 138.135 109.624C137.059 115.944 135.617 122.182 133.578 128.263C133.466 128.599 133.99 128.738 134.105 128.409C136.952 120.278 138.503 111.832 139.772 103.331C140.36 99.3949 143.713 90.0027 138.418 87.9593C138.205 87.8772 138.001 88.1206 138.058 88.3199C138.075 88.3791 138.092 88.4383 138.108 88.4975C138.191 88.788 138.612 88.7222 138.625 88.4274Z" fill="#9B8580"/>
<path d="M131.283 166.203C131.288 165.665 130.801 165.119 130.239 165.157C126.435 165.412 122.632 165.668 118.828 165.923C118.252 165.962 117.8 166.371 117.784 166.969C117.618 172.836 117.93 178.77 117.618 184.627C117.59 185.162 118.121 185.714 118.663 185.673C122.412 185.389 126.164 185.137 129.91 184.815C129.94 184.813 129.966 184.803 129.995 184.799C130.422 184.826 130.829 184.606 130.917 184.047C131.819 178.286 131.239 172.027 131.283 166.203Z" fill="#D6CED7"/>
<path d="M132.006 63.4979C130.297 63.7299 128.998 64.1394 127.755 62.5696C127.257 61.9408 126.855 61.2812 126.08 60.9889C125.981 60.9515 125.902 61.097 125.977 61.1659C126.942 62.0489 127.637 63.5656 128.907 64.0518C129.913 64.4365 131.158 64.1593 132.089 63.696C132.21 63.6362 132.117 63.4828 132.006 63.4979Z" fill="#594C4A"/>
<path d="M155.455 69.4558C158.371 69.4558 160.734 67.0885 160.734 64.1684C160.734 61.2482 158.371 58.8809 155.455 58.8809C152.539 58.8809 150.176 61.2482 150.176 64.1684C150.176 67.0885 152.539 69.4558 155.455 69.4558Z" stroke="#F9F9F9" stroke-width="1.0943" stroke-miterlimit="10"/>
<path d="M160.896 62.7804C161.091 62.6668 161.174 62.485 161.346 62.3394C161.598 62.1256 161.929 62.0054 162.25 61.9468C162.548 61.8919 162.863 61.8913 163.148 62.0024C163.415 62.1069 163.477 62.3564 163.72 62.4627C163.787 62.4923 163.849 62.4778 163.893 62.4174C163.912 62.3908 163.931 62.3642 163.951 62.3376C164.002 62.267 163.985 62.1721 163.951 62.0997C163.641 61.4365 162.759 61.3779 162.131 61.5114C161.595 61.6249 160.631 62.0362 160.73 62.7121C160.741 62.787 160.839 62.8136 160.896 62.7804Z" fill="#F9F9F9"/>
<path d="M131.934 54.6934C134.629 56.6383 151.487 54.2525 156.928 51.755C167.989 46.6777 169.072 37.7301 166.488 36.0497C166.176 35.8468 165.83 35.6849 165.461 35.6402C164.593 35.5351 163.794 36.0745 163.087 36.5879C163.365 35.5762 164.37 31.1676 161.685 29.419C158.081 27.0713 153.543 31.0414 152.804 31.5361C147.661 34.9831 144.883 35.572 144.883 35.572C144.883 35.572 145.789 26.8798 138.682 33.5576C136.443 35.6608 132.288 37.622 130.058 39.7341C127.719 41.9484 126.388 45.5688 127.737 48.6613" fill="#433735"/>
<path d="M139.836 49.4265C141.377 50.6835 142.068 52.6966 142.513 54.6366C143.183 57.5576 143.451 60.667 142.522 63.516C142.258 64.326 142.586 68.0678 141.953 67.9639C141.752 67.9313 141.309 65.0641 140.551 63.603C139.377 61.3398 135.645 61.0276 134.285 62.8039C132.601 65.0043 133.683 66.553 134.431 68.7467C134.987 70.3763 134.439 72.4244 132.449 72.9898C130.594 73.5159 131.127 72.1092 130.387 70.79C128.798 67.9542 127.131 65.4718 126.062 62.3123C124.377 57.3299 122.99 49.7684 128.196 46.3165C129.498 45.4528 133.792 44.4 135.24 44.9847" fill="#433735"/>
<path d="M156.115 65.5594C156.376 65.5594 156.589 65.2819 156.589 64.9397C156.589 64.5974 156.376 64.32 156.115 64.32C155.853 64.32 155.641 64.5974 155.641 64.9397C155.641 65.2819 155.853 65.5594 156.115 65.5594Z" fill="white"/>
<path d="M138.567 60.5431C139.343 62.0761 141.148 62.3787 142.68 62.7635C144.889 63.3179 147.249 63.7558 149.534 63.7474C149.933 63.7462 149.908 63.1905 149.534 63.1434C147.575 62.8969 145.629 62.7248 143.693 62.3032C142.104 61.9571 139.939 61.6515 138.857 60.3179C138.719 60.1469 138.476 60.365 138.567 60.5431Z" fill="#F9F9F9"/>
<path d="M141.014 78.154C141.834 79.7262 143.124 81.2736 144.728 82.0848C144.801 82.1217 144.879 82.0305 144.818 81.9682C143.551 80.6817 142.293 79.4997 141.215 78.0362C141.128 77.9166 140.943 78.0175 141.014 78.154Z" fill="#CC6144"/>
<path d="M172.636 59.5109C173.39 59.0174 174.199 58.553 174.798 57.868C174.841 57.8191 174.801 57.7188 174.728 57.7472C173.885 58.074 173.175 58.6665 172.457 59.2035C172.277 59.337 172.44 59.639 172.636 59.5109Z" fill="#433735"/>
<path d="M173.729 61.6116C174.293 61.4908 175.01 61.3592 175.489 61.0251C175.615 60.937 175.569 60.7455 175.411 60.7364C174.827 60.7032 174.148 60.966 173.604 61.1586C173.32 61.2595 173.431 61.6757 173.729 61.6116Z" fill="#433735"/>
<path d="M173.934 64.2028C174.286 64.108 174.636 64.0264 174.999 63.9859C175.294 63.9527 175.597 63.9551 175.887 63.8887C175.972 63.8694 175.994 63.7347 175.912 63.6954C175.286 63.3922 174.44 63.5396 173.82 63.7896C173.571 63.8899 173.66 64.2765 173.934 64.2028Z" fill="#433735"/>
<path d="M62.3737 141.527C60.8371 141.478 60.8992 143.881 60.7581 144.91C60.5663 146.304 60.1755 148.104 61.3726 149.159C61.5795 149.341 61.8569 149.207 61.8846 148.946C61.8919 148.881 61.8985 148.816 61.9057 148.751C61.9214 148.602 61.7471 148.551 61.6398 148.598C61.571 148.627 61.5023 148.657 61.4335 148.687C61.5704 148.723 61.7073 148.759 61.8442 148.795C61.1404 147.721 61.217 146.679 61.3702 145.466C61.524 144.245 61.4365 142.624 62.4829 141.789C62.5926 141.701 62.4943 141.53 62.3737 141.527Z" fill="black"/>
<path d="M64.1277 142.701C63.1701 144.285 62.9391 147.223 63.7195 148.91C63.8117 149.109 64.1006 148.995 64.1084 148.804C64.1501 147.788 63.904 146.793 63.9643 145.766C64.024 144.752 64.3195 143.783 64.4082 142.777C64.422 142.622 64.2001 142.581 64.1277 142.701Z" fill="black"/>
<path d="M93.8256 155.48C93.6224 156.109 93.4294 156.743 93.1514 157.344C92.8963 157.895 92.5109 158.377 92.2697 158.93C92.1563 159.19 92.444 159.446 92.6719 159.241C93.6109 158.398 94.1284 156.759 94.2194 155.534C94.2369 155.299 93.8926 155.273 93.8256 155.48Z" fill="black"/>
<path d="M95.1657 157.634C94.9746 158.327 94.6586 158.902 94.3395 159.538C94.2038 159.809 94.5771 160.155 94.7876 159.884C95.2671 159.267 95.4902 158.456 95.5445 157.685C95.5602 157.465 95.2224 157.428 95.1657 157.634Z" fill="black"/>
<path d="M49.489 141.442C51.3917 142.589 53.3861 143.559 55.2792 144.752C56.9322 145.794 58.6679 146.77 60.6321 147.031C60.9209 147.07 60.9837 146.584 60.7008 146.522C58.4194 146.023 56.5535 144.924 54.6073 143.676C53.1135 142.717 51.3646 141.402 49.5342 141.274C49.4426 141.268 49.4166 141.398 49.489 141.442Z" fill="black"/>
<path d="M63.8993 147.418C68.7125 149.916 73.2555 153.007 78.1862 155.263C80.4448 156.296 82.8142 157.016 85.2453 157.514C87.5484 157.985 90.2749 158.626 92.6179 158.374C92.8561 158.348 92.9453 157.994 92.6782 157.927C90.1676 157.294 87.4465 157.349 84.8924 156.791C82.3288 156.231 79.8742 155.4 77.5168 154.244C72.9594 152.009 68.812 148.858 64.064 147.026C63.8378 146.939 63.6859 147.307 63.8993 147.418Z" fill="black"/>
<path d="M85.7184 181.767C86.4831 180.882 87.2647 180.003 88.15 179.236C88.6506 178.802 91.2107 176.523 91.9953 177.285C92.07 177.358 92.2106 177.286 92.1762 177.18C91.7842 175.969 90.0708 177.219 89.5003 177.596C87.91 178.646 86.5115 179.981 85.5315 181.623C85.4639 181.736 85.6286 181.872 85.7184 181.767Z" fill="black"/>
<path d="M79.9864 181.062C77.6368 178.733 74.5056 177.107 71.1627 176.971C71.068 176.967 71.0469 177.116 71.1404 177.137C74.3723 177.875 77.2291 179.09 79.7246 181.324C79.9013 181.482 80.157 181.231 79.9864 181.062Z" fill="black"/>
<path d="M85.485 183.31C88.3611 184.326 90.619 186.121 91.2788 189.242C91.4229 189.131 91.567 189.02 91.7118 188.909C90.967 188.43 90.3265 187.839 89.7807 187.143C89.393 186.649 89.1155 185.987 88.665 185.549C88.1729 185.07 87.3926 184.91 86.8076 185.29C86.7744 185.311 86.7949 185.372 86.8359 185.357C88.141 184.874 88.8821 186.898 89.4949 187.656C90.0527 188.345 90.7071 188.894 91.4145 189.419C91.64 189.587 91.8927 189.311 91.8475 189.086C91.2522 186.12 88.6976 183.169 85.5296 182.983C85.3318 182.971 85.3168 183.25 85.485 183.31Z" fill="black"/>
<path d="M49.1452 161.065C52.0894 159.242 54.7755 157.003 56.3869 153.878C56.5865 153.492 56.0034 153.148 55.8031 153.536C54.2418 156.564 51.6558 158.714 48.8038 160.48C48.4347 160.709 48.7737 161.295 49.1452 161.065Z" fill="black"/>
<path d="M84.3384 157.636C84.5416 160.686 84.9921 163.665 84.9288 166.735C84.8624 169.955 84.4541 173.152 83.7528 176.294C83.6858 176.592 84.1436 176.72 84.2111 176.421C84.9065 173.327 85.325 170.193 85.4052 167.021C85.483 163.932 85.4251 160.599 84.5922 157.602C84.5542 157.465 84.3281 157.486 84.3384 157.636Z" fill="black"/>
<path d="M83.7849 177.616C83.4978 178.1 83.4471 178.732 83.3422 179.279C83.2493 179.763 83.0594 180.315 83.2162 180.795C83.2463 180.887 83.3609 180.898 83.414 180.821C83.7101 180.392 83.6962 179.782 83.7885 179.277C83.8832 178.759 84.081 178.213 84.0406 177.686C84.0309 177.554 83.8585 177.493 83.7849 177.616Z" fill="black"/>
<path d="M88.6247 157.967C88.5421 160.376 88.635 162.799 88.6579 165.209C88.6796 167.46 88.8894 169.795 88.6627 172.037C88.2894 175.731 84.6987 177.611 83.3556 180.856C83.2658 181.073 83.6397 181.233 83.7368 181.018C85.1498 177.89 88.6163 176.137 89.1777 172.571C89.5227 170.379 89.2525 168.023 89.2157 165.814C89.1723 163.203 89.2055 160.575 89.0469 157.968C89.0306 157.696 88.6338 157.692 88.6247 157.967Z" fill="black"/>
<path d="M115.924 88.4268C115.874 92.9327 120.612 95.7757 124.659 96.1731C124.981 96.2045 124.996 95.7407 124.731 95.6422C122.832 94.9397 120.906 94.581 119.227 93.3579C117.621 92.1879 116.437 90.4309 116.212 88.4268C116.193 88.2462 115.927 88.236 115.924 88.4268Z" fill="#C1ADA4"/>
<path d="M127.189 96.1435C127.824 96.2843 128.464 96.2752 129.112 96.2849C129.769 96.2945 130.396 96.3193 131.023 96.0994C131.171 96.0475 131.171 95.8506 131.023 95.7986C130.396 95.5788 129.769 95.6029 129.112 95.6132C128.464 95.6229 127.824 95.6138 127.189 95.7545C126.997 95.7968 126.997 96.1012 127.189 96.1435Z" fill="#C1ADA4"/>
<path d="M84.0565 112.47C83.9455 111.347 83.6018 110.379 82.8503 109.524C82.2738 108.867 81.067 107.892 80.1347 108.131C79.9725 108.172 79.8947 108.408 80.031 108.525C80.3488 108.796 80.7227 108.844 81.0984 109.022C81.5549 109.238 81.9668 109.535 82.3353 109.88C83.0723 110.569 83.6416 111.505 83.811 112.504C83.8334 112.642 84.0704 112.611 84.0565 112.47Z" fill="#C1ADA4"/>
<path d="M139.483 67.6981C139.975 66.0794 138.333 62.8124 136.354 63.504C135.774 63.7063 136.145 63.9884 136.598 63.8645C137.08 63.7329 138.015 65.3407 138.16 65.618C138.528 66.3198 138.59 67.1195 138.942 67.8129C139.016 67.9573 139.443 67.8304 139.483 67.6981Z" fill="#CC6144"/>
<path d="M138.313 65.3601C138.298 64.8207 137.813 64.5422 137.312 64.5954C137.047 64.6238 136.757 64.7132 136.543 64.8781C136.415 64.9771 136.241 65.1927 136.379 65.3353C136.455 65.4138 136.662 65.3268 136.73 65.2785C136.927 65.1414 137.032 64.9119 137.26 65.0109C137.475 65.104 137.629 65.3057 137.699 65.5243C137.754 65.6989 138.319 65.5376 138.313 65.3601Z" fill="#CC6144"/>
<path d="M154.229 65.3727C154.315 65.9798 154.731 66.3772 155.356 66.3566C155.381 66.356 155.561 66.3089 155.508 66.2624C155.354 66.1271 155.164 66.0444 155.008 65.9055C154.824 65.7424 154.631 65.5177 154.536 65.2906C154.502 65.2072 154.216 65.2833 154.229 65.3727Z" fill="#CC6144"/>
<path d="M112.094 106.417C112.316 112.779 113.093 119.111 113.906 125.421C114.323 128.657 114.5 132.367 115.396 135.411C115.492 135.735 115.931 135.591 115.887 135.275C115.887 135.271 115.886 135.268 115.885 135.263C115.841 134.94 115.351 135.077 115.395 135.399C115.395 135.403 115.396 135.407 115.396 135.411C115.56 135.365 115.724 135.32 115.887 135.275C115.931 135.423 115.899 134.741 115.885 134.582C115.831 133.933 115.705 133.284 115.613 132.639C115.261 130.171 114.926 127.7 114.607 125.227C113.8 118.971 113.082 112.698 112.497 106.416C112.473 106.163 112.085 106.154 112.094 106.417Z" fill="#C1ADA4"/>
<path d="M123.021 134.189C120.54 134.732 118.242 135.864 115.943 136.948C113.567 138.067 111.113 139.125 108.948 140.626C108.793 140.733 108.882 141.006 109.082 140.946C113.991 139.465 118.466 136.518 123.141 134.474C123.31 134.4 123.185 134.153 123.021 134.189Z" fill="#C1ADA4"/>
<path d="M165.718 160.898C165.06 163.255 164.914 165.569 163.93 167.865C162.892 170.289 161.36 172.168 159.738 174.21C159.54 174.459 159.839 174.764 160.087 174.56C162.071 172.928 163.536 170.455 164.538 168.122C165.449 165.999 166.382 163.239 166.011 160.898C165.987 160.743 165.756 160.763 165.718 160.898Z" fill="#C1ADA4"/>
<path d="M60.5239 139.424C59.966 137.519 59.5252 135.541 59.4866 133.549C59.4474 131.502 59.9769 129.629 60.2881 127.635C60.3267 127.387 59.9883 127.19 59.8508 127.45C57.9801 130.971 58.4813 136.107 60.1488 139.583C60.2507 139.795 60.5884 139.645 60.5239 139.424Z" fill="#C1ADA4"/>
<path d="M65.9343 142.057C65.4693 140.85 64.9477 139.655 64.6033 138.405C64.4743 137.936 63.9297 136.444 64.2119 136.089C65.321 135.575 65.9235 135.823 66.0193 136.832C66.0923 137.263 66.1219 137.697 66.108 138.134C66.1086 138.335 66.4198 138.387 66.4662 138.182C66.7111 137.098 65.76 133.462 64.0551 134.809C63.3139 135.394 63.6981 136.867 63.8585 137.617C64.1999 139.214 64.9603 140.707 65.6008 142.197C65.6822 142.386 66.0091 142.25 65.9343 142.057Z" fill="#C1ADA4"/>
<path d="M77.4499 149.21C76.1648 147.135 75.587 145.054 74.9297 142.741C74.8905 142.603 74.689 142.633 74.6836 142.774C74.5847 145.154 75.7456 147.587 77.2117 149.394C77.3209 149.529 77.5398 149.355 77.4499 149.21Z" fill="#C1ADA4"/>
<path d="M87.7614 153.237C89.5561 153.075 91.9383 151.733 92.2314 149.757C92.2567 149.587 92.0486 149.404 91.9075 149.568C91.3473 150.219 90.954 150.961 90.2846 151.528C89.5519 152.148 88.631 152.593 87.7089 152.848C87.5014 152.906 87.5334 153.258 87.7614 153.237Z" fill="#C1ADA4"/>
<path d="M87.8058 151.222C88.9764 150.82 90.4214 149.779 90.6306 148.458C90.656 148.3 90.4563 148.125 90.3261 148.281C89.9341 148.748 89.6524 149.281 89.2128 149.714C88.7557 150.165 88.2027 150.516 87.6189 150.777C87.368 150.889 87.5459 151.312 87.8058 151.222Z" fill="#C1ADA4"/>
<path d="M153.829 80.7016C154.37 80.477 154.747 80.8351 155.248 80.9741C155.302 80.9892 155.452 80.971 155.47 80.9022C155.578 80.4963 155.027 80.3574 154.716 80.3278C154.322 80.2897 153.893 80.3658 153.578 80.6159C153.401 80.7566 153.76 80.7306 153.829 80.7016Z" fill="#CC6144"/>
<path d="M328.483 53.6237H264.256C258.797 53.6237 254.134 57.5666 253.219 62.9567L247.671 95.6416C246.509 102.487 251.775 108.733 258.708 108.733H259.034L256.532 122.131L268.885 108.733H322.936C328.395 108.733 333.058 104.79 333.973 99.3997L339.52 66.7148C340.682 59.8697 335.416 53.6237 328.483 53.6237Z" fill="#EED9CE"/>
<g opacity="0.16">
<path d="M291.627 65.9459C298.471 66.315 305.334 66.4026 312.185 66.5542C315.562 66.6291 318.938 66.7034 322.315 66.7782C325.747 66.8544 329.324 67.2198 332.743 66.9027C333.096 66.8701 333.25 66.2811 332.834 66.2238C329.587 65.7762 326.186 65.9556 322.911 65.8807C319.435 65.8016 315.959 65.7218 312.483 65.6427C305.535 65.4845 298.577 65.258 291.627 65.3202C291.223 65.3238 291.228 65.9242 291.627 65.9459Z" fill="black"/>
</g>
<g opacity="0.16">
<path d="M289.777 74.2836C296.462 74.6701 303.158 74.8579 309.854 74.8284C313.155 74.8139 316.455 74.748 319.754 74.6302C322.969 74.5161 326.281 74.5439 329.462 74.048C329.914 73.9773 329.785 73.2833 329.357 73.2725C326.071 73.1861 322.74 73.5702 319.454 73.6826C316.155 73.7955 312.854 73.8571 309.554 73.8674C302.957 73.8879 296.362 73.6965 289.777 73.3129C289.154 73.2761 289.156 74.2473 289.777 74.2836Z" fill="black"/>
</g>
<g opacity="0.16">
<path d="M289.825 80.9354C295.867 81.4832 301.944 82.0812 308.009 82.3137C314.063 82.5457 320.165 82.1814 326.214 81.9725C327.013 81.9447 327.016 80.695 326.214 80.7258C320.158 80.9608 314.072 81.4156 308.009 81.2138C301.941 81.0121 295.895 80.3616 289.825 80.1405C289.308 80.1212 289.324 80.8901 289.825 80.9354Z" fill="black"/>
</g>
<g opacity="0.16">
<path d="M259.048 87.1095C276.271 88.5422 293.647 88.634 310.92 88.7838C315.032 88.8194 319.173 88.9034 323.282 88.724C323.957 88.6944 323.962 87.6869 323.282 87.6706C315.307 87.4852 307.313 87.6519 299.335 87.574C290.019 87.4828 280.703 87.3227 271.391 87.0116C267.275 86.8739 263.16 86.7713 259.048 86.529C258.673 86.5067 258.68 87.0787 259.048 87.1095Z" fill="black"/>
</g>
<g opacity="0.16">
<path d="M258.315 92.9798C275.346 94.4004 292.51 94.6522 309.591 94.8685C313.657 94.9198 317.753 95.0171 321.817 94.8389C322.491 94.8093 322.497 93.8018 321.817 93.7855C313.843 93.5958 305.854 93.7227 297.877 93.6037C288.757 93.4672 279.636 93.2534 270.522 92.9109C266.451 92.7581 262.381 92.6391 258.315 92.3993C257.941 92.377 257.948 92.949 258.315 92.9798Z" fill="black"/>
</g>
<g opacity="0.16">
<path d="M261.547 62.6282C260.742 65.5636 260.674 68.5945 260.662 71.6199C260.656 73.1553 260.658 74.6937 260.543 76.226C260.423 77.8345 259.85 79.3801 259.768 80.965C259.739 81.5273 260.527 81.697 260.797 81.244C261.435 80.1713 261.521 78.7894 261.666 77.5621C261.857 75.9512 261.883 74.3276 261.885 72.7077C261.891 69.4195 261.813 66.1465 262.746 62.9591C262.972 62.1884 261.759 61.8544 261.547 62.6282Z" fill="black"/>
</g>
<g opacity="0.16">
<path d="M262.755 63.0419C270.502 63.1941 278.209 63.4436 285.917 64.3073C285.681 63.9974 285.446 63.6876 285.21 63.3777C284.382 69.3024 283.854 75.2119 283.866 81.1981C283.869 82.3723 285.696 82.3741 285.688 81.1981C285.648 75.3176 285.897 69.4075 286.65 63.5734C286.704 63.1524 286.268 62.8746 285.917 62.839C278.243 62.0622 270.461 61.6485 262.755 62.1123C262.162 62.148 262.152 63.0304 262.755 63.0419Z" fill="black"/>
</g>
<g opacity="0.16">
<path d="M261.106 82.0836C264.921 81.6499 268.758 81.4935 272.595 81.6596C274.419 81.7387 276.239 81.8861 278.052 82.1035C279.108 82.2304 280.161 82.3892 281.214 82.5463C282.115 82.681 282.79 82.9129 283.647 82.5807C284.089 82.4098 284.369 81.8094 283.949 81.4367C282.713 80.3423 280.501 80.4286 278.91 80.2638C276.908 80.056 274.896 79.9346 272.883 79.8959C268.875 79.8186 264.881 80.0952 260.913 80.6533C260.11 80.7663 260.29 82.1766 261.106 82.0836Z" fill="black"/>
</g>
<g opacity="0.16">
<path d="M264.686 66.3035C264.393 69.4201 264.165 72.5483 264.036 75.6764C264.004 76.4422 265.241 76.4471 265.227 75.6764C265.168 72.5428 265.238 69.4292 265.474 66.3035C265.513 65.7943 264.732 65.8034 264.686 66.3035Z" fill="black"/>
</g>
<g opacity="0.16">
<path d="M264.763 76.2755C270.863 76.6597 277.033 76.9786 283.145 76.9889C283.929 76.9901 283.917 75.8237 283.145 75.7784C277.047 75.4203 270.871 75.3653 264.763 75.381C264.184 75.3822 264.193 76.2399 264.763 76.2755Z" fill="black"/>
</g>
<g opacity="0.16">
<path d="M267.504 73.6681C267.748 72.9354 267.993 72.2034 268.237 71.4707C268.442 70.8565 268.621 69.6261 269.067 69.155C270.309 67.8461 272.071 71.8585 272.449 72.4226C273.171 73.4989 274.463 74.3125 275.42 72.965C276.056 72.0681 276.086 70.8438 276.565 69.8725C276.599 69.3615 276.875 69.0529 277.396 68.946C277.618 69.2275 277.84 69.5083 278.062 69.7898C278.427 70.2518 278.772 70.8136 279.248 71.1729C279.721 71.5305 280.259 71.664 280.823 71.4254C281.764 71.0274 281.784 69.7034 282.658 69.306C284.564 68.4398 281.049 66.4146 281.26 68.5033C281.332 69.2087 280.638 70.4542 279.847 70.0435C279.359 69.7898 278.904 68.9683 278.534 68.5619C278.072 68.0551 277.474 67.2784 276.672 67.5936C276.093 67.8207 275.969 68.5256 275.777 69.0366C275.497 69.7844 275.195 70.5255 274.897 71.2666C274.856 71.9292 274.511 72.2632 273.861 72.268C273.618 71.9732 273.397 71.6634 273.199 71.3378C272.398 70.1667 271.331 67.5417 269.477 67.8552C268.72 67.9832 268.37 68.5365 268.068 69.1888C267.454 70.517 267.106 72.0409 266.642 73.4295C266.46 73.9773 267.323 74.2123 267.504 73.6681Z" fill="black"/>
</g>
<path d="M234.529 3.8147e-06H192.223C188.628 3.8147e-06 185.556 2.5972 184.954 6.14752L181.3 27.6765C180.534 32.1853 184.003 36.2992 188.569 36.2992H188.783L184.547 42.4703L195.273 36.2992H230.875C234.47 36.2992 237.542 33.702 238.144 30.1517L241.799 8.62271C242.564 4.11385 239.095 3.8147e-06 234.529 3.8147e-06Z" fill="#D6CED7"/>
<g opacity="0.16">
<path d="M191.138 7.52343C198.83 7.91905 206.538 8.07246 214.237 8.28145C218.037 8.38473 221.836 8.48741 225.636 8.5907C229.502 8.69579 233.475 9.07027 237.335 8.81599C237.724 8.79062 237.709 8.26635 237.335 8.22165C233.589 7.77047 229.706 7.91905 225.936 7.81516C222.036 7.70765 218.136 7.59953 214.237 7.49202C206.54 7.27941 198.838 7.01124 191.138 6.98587C190.791 6.98466 190.794 7.50591 191.138 7.52343Z" fill="black"/>
</g>
<g opacity="0.16">
<path d="M189.189 13.0253C196.591 13.3816 204 13.6099 211.411 13.6993C215.016 13.7428 218.622 13.7543 222.227 13.7338C226.016 13.712 229.867 13.8237 233.643 13.4915C234.073 13.4535 234.085 12.8302 233.643 12.812C229.951 12.6623 226.224 12.8863 222.528 12.9075C218.823 12.9292 215.117 12.9171 211.411 12.8712C204 12.7794 196.592 12.5487 189.189 12.1899C188.653 12.164 188.654 12.9999 189.189 13.0253Z" fill="black"/>
</g>
<g opacity="0.16">
<path d="M188.015 17.9895C202.391 19.1057 216.885 19.2199 231.291 18.7125C231.817 18.6938 231.82 17.8718 231.291 17.8917C216.849 18.4232 202.446 18.1526 188.015 17.4659C187.677 17.4496 187.683 17.9636 188.015 17.9895Z" fill="black"/>
</g>
<g opacity="0.16">
<path d="M186.863 23.3452C196.747 24.2162 206.812 24.7719 216.735 24.4155C217.179 24.3998 217.182 23.7294 216.735 23.7221C206.764 23.5572 196.827 23.4998 186.863 22.9629C186.615 22.9496 186.621 23.3241 186.863 23.3452Z" fill="black"/>
</g>
<path d="M83.9852 12.0486H26.0766C21.1548 12.0486 16.9508 15.6037 16.1258 20.4635L11.1239 49.9327C10.0763 56.1044 14.8243 61.736 21.0746 61.736H70.0222L78.5599 72.512L78.9055 61.736H78.9833C83.905 61.736 88.109 58.1809 88.9341 53.3211L93.936 23.852C94.9835 17.6803 90.2355 12.0486 83.9852 12.0486Z" fill="#D6CED7"/>
<g opacity="0.29">
<path d="M46.6264 22.9327C53.4882 23.2317 60.3597 23.3519 67.2257 23.5125C70.609 23.5916 73.9928 23.6714 77.3761 23.7505C80.8408 23.8314 84.3634 24.0984 87.825 23.9281C88.1097 23.9142 88.1024 23.5167 87.825 23.4902C84.4713 23.1664 81.0428 23.2606 77.6746 23.1803C74.1919 23.097 70.7085 23.0142 67.2257 22.9309C60.3609 22.7672 53.4931 22.5624 46.6264 22.5365C46.3707 22.5358 46.3731 22.9218 46.6264 22.9327Z" fill="black"/>
</g>
<g opacity="0.29">
<path d="M44.8017 30.3981C51.4011 30.7647 58.0091 30.9574 64.6188 30.9598C71.1833 30.9623 77.9287 31.0909 84.4582 30.3595C84.77 30.3244 84.7881 29.86 84.4582 29.8587C77.8503 29.84 71.2345 30.354 64.6188 30.3498C58.0091 30.3456 51.4011 30.1511 44.8017 29.7826C44.4067 29.7609 44.4079 30.3764 44.8017 30.3981Z" fill="black"/>
</g>
<g opacity="0.29">
<path d="M20.3155 36.5535C40.0053 37.9868 59.8267 38.1891 79.5521 37.4758C80.0322 37.4583 80.0346 36.7093 79.5521 36.7268C59.7899 37.442 40.0596 37.1182 20.3155 36.0757C20.0073 36.0594 20.0115 36.5311 20.3155 36.5535Z" fill="black"/>
</g>
<g opacity="0.29">
<path d="M18.7396 43.9162C32.2823 45.0355 46.0367 45.7554 59.6282 45.3103C60.0341 45.297 60.0365 44.6827 59.6282 44.6773C45.9752 44.5003 32.3776 44.3831 18.7396 43.5671C18.5147 43.5544 18.5183 43.8981 18.7396 43.9162Z" fill="black"/>
</g>
<g opacity="0.29">
<path d="M22.3654 19.9248C21.9554 22.7666 21.3529 25.6899 21.1611 28.5529C21.0459 30.2695 21.8619 31.0939 23.5246 31.376C26.394 31.8628 29.3834 31.9625 32.2806 32.2228C34.0169 32.3786 37.1812 33.0907 38.622 31.6568C39.324 30.958 39.1455 29.8859 39.0978 28.9908C39.0297 27.7176 38.8861 26.4473 38.8837 25.1711C38.8813 23.5699 39.3475 22.258 39.7039 20.7389C39.8673 20.0425 39.9005 19.3479 39.4307 18.753C38.2963 17.3149 35.4576 17.8397 33.8933 17.8452C30.7175 17.8567 27.5386 17.9424 24.3634 18.0016C23.3738 18.0203 23.4178 19.624 24.3634 19.5134C28.4831 19.0314 32.7227 18.7294 36.8737 18.9276C37.7867 18.971 38.7209 18.9131 38.7022 20.4623C38.698 20.8193 38.4332 21.2505 38.3337 21.5894C38.0943 22.4042 37.9809 23.2462 37.9429 24.093C37.9025 24.9965 37.9682 25.9038 38.0448 26.8037C38.1244 27.7387 38.4296 28.8772 38.3036 29.8068C38.0804 31.4593 36.7518 31.6424 35.3473 31.6031C34.3232 31.5747 33.2998 31.4448 32.2794 31.3597C30.1946 31.1851 28.1079 31.0269 26.0219 30.8602C25.1722 30.7925 23.5511 30.978 22.793 30.5401C22.2358 30.2181 21.7726 29.1551 21.7376 28.5523C21.7033 27.9616 21.9415 27.0683 22.0259 26.4564C22.3184 24.3309 22.6796 22.2181 22.986 20.0957C23.0469 19.6892 22.4251 19.5134 22.3654 19.9248Z" fill="black"/>
</g>
<g opacity="0.29">
<path d="M28.3838 26.6588C28.6407 25.2689 28.7607 23.8556 28.929 22.4531C28.8554 22.5811 28.7824 22.7092 28.7089 22.8372C28.9603 22.6699 31.4197 25.6271 31.6971 25.9424C31.7707 25.664 31.8437 25.3861 31.9172 25.1077C30.8504 25.542 29.7769 25.9605 28.7143 26.4051C28.1209 26.6533 28.3705 27.636 28.9857 27.3902C30.0561 26.9626 31.1163 26.509 32.1826 26.0705C32.5342 25.9261 32.6711 25.5389 32.4027 25.2357C31.7236 24.4705 31.0307 23.7197 30.304 22.9997C29.8969 22.5962 29.2703 21.7537 28.5846 21.9023C27.9176 22.0466 28.0105 22.7756 27.958 23.309C27.8519 24.3931 27.7234 25.4749 27.6897 26.5639C27.6764 26.9559 28.3102 27.0574 28.3838 26.6588Z" fill="black"/>
</g>
<path d="M277.352 141.002C278.129 141.002 278.759 140.371 278.759 139.593C278.759 138.815 278.129 138.184 277.352 138.184C276.575 138.184 275.945 138.815 275.945 139.593C275.945 140.371 276.575 141.002 277.352 141.002Z" fill="#2D2442"/>
<path d="M281.8 141.002C282.577 141.002 283.207 140.371 283.207 139.593C283.207 138.815 282.577 138.184 281.8 138.184C281.023 138.184 280.393 138.815 280.393 139.593C280.393 140.371 281.023 141.002 281.8 141.002Z" fill="#2D2442"/>
<path d="M286.247 141.002C287.024 141.002 287.654 140.371 287.654 139.593C287.654 138.815 287.024 138.184 286.247 138.184C285.47 138.184 284.84 138.815 284.84 139.593C284.84 140.371 285.47 141.002 286.247 141.002Z" fill="#2D2442"/>
<path d="M282.78 35.1009C283.557 35.1009 284.187 34.47 284.187 33.6917C284.187 32.9135 283.557 32.2826 282.78 32.2826C282.003 32.2826 281.373 32.9135 281.373 33.6917C281.373 34.47 282.003 35.1009 282.78 35.1009Z" fill="#2D2442"/>
<path d="M287.227 35.1009C288.004 35.1009 288.634 34.47 288.634 33.6917C288.634 32.9135 288.004 32.2826 287.227 32.2826C286.45 32.2826 285.82 32.9135 285.82 33.6917C285.82 34.47 286.45 35.1009 287.227 35.1009Z" fill="#2D2442"/>
<path d="M291.675 35.1009C292.452 35.1009 293.082 34.47 293.082 33.6917C293.082 32.9135 292.452 32.2826 291.675 32.2826C290.898 32.2826 290.268 32.9135 290.268 33.6917C290.268 34.47 290.898 35.1009 291.675 35.1009Z" fill="#2D2442"/>
<path d="M30.3171 89.058C31.0942 89.058 31.7241 88.4271 31.7241 87.6489C31.7241 86.8706 31.0942 86.2397 30.3171 86.2397C29.5401 86.2397 28.9102 86.8706 28.9102 87.6489C28.9102 88.4271 29.5401 89.058 30.3171 89.058Z" fill="#2D2442"/>
<path d="M34.7644 89.058C35.5415 89.058 36.1714 88.4271 36.1714 87.6489C36.1714 86.8706 35.5415 86.2397 34.7644 86.2397C33.9873 86.2397 33.3574 86.8706 33.3574 87.6489C33.3574 88.4271 33.9873 89.058 34.7644 89.058Z" fill="#2D2442"/>
<path d="M39.2117 89.058C39.9887 89.058 40.6186 88.4271 40.6186 87.6489C40.6186 86.8706 39.9887 86.2397 39.2117 86.2397C38.4346 86.2397 37.8047 86.8706 37.8047 87.6489C37.8047 88.4271 38.4346 89.058 39.2117 89.058Z" fill="#2D2442"/>
</svg>
