<svg width="338" height="344" viewBox="0 0 338 344" fill="none" xmlns="http://www.w3.org/2000/svg">
<path d="M264.189 339.75C299.513 339.75 328.149 335.509 328.149 330.279C328.149 325.048 299.513 320.808 264.189 320.808C228.864 320.808 200.229 325.048 200.229 330.279C200.229 335.509 228.864 339.75 264.189 339.75Z" fill="#F2ECE3"/>
<path d="M304.993 307.396C304.993 307.396 287.964 227.491 284.526 218.977C281.087 210.462 249.158 201.742 256.526 230.438C263.894 259.136 283.61 307.396 283.61 307.396H304.993Z" fill="#527DB1"/>
<path d="M269.66 233.265C271.569 239.411 273.425 245.566 275.205 251.741L280.517 270.269L285.737 288.819C287.494 294.998 289.201 301.192 290.912 307.397C288.58 301.398 286.449 295.323 284.478 289.199C282.498 283.078 280.668 276.911 278.896 270.728C277.164 264.534 275.486 258.325 273.941 252.082C272.373 245.844 270.938 239.572 269.66 233.265Z" fill="#406488"/>
<path d="M304.992 307.396L307.612 318.695H289.437L283.609 307.396H304.992Z" fill="#724648"/>
<path d="M311.215 331.793L307.613 318.694H289.437C289.437 318.694 275.847 323.933 270.607 332.612L311.215 331.793Z" fill="#EAD463"/>
<path d="M299.917 323.115C296.733 323.438 293.549 323.514 290.365 323.527C287.18 323.515 283.997 323.441 280.812 323.115C283.997 322.79 287.18 322.715 290.365 322.704C293.549 322.718 296.733 322.792 299.917 323.115Z" fill="#D39859"/>
<path d="M294.513 325.654C291.619 325.977 288.725 326.052 285.831 326.065C282.938 326.054 280.044 325.979 277.15 325.654C280.044 325.328 282.938 325.254 285.831 325.242C288.725 325.255 291.619 325.33 294.513 325.654Z" fill="#D39859"/>
<path d="M278.956 180.59C278.956 180.59 298.29 196.299 297.251 211.375C296.586 221.023 299.753 225.69 267.496 224.216C235.239 222.742 233.929 215.865 237.04 205.877C240.151 195.889 247.955 174.782 247.955 174.782L278.956 180.59Z" fill="#6595D5"/>
<path d="M238.351 258.111L239.988 268.263L222.796 272.847L219.029 263.35L238.351 258.111Z" fill="#724648"/>
<path d="M241.626 276.613L239.988 268.262L222.795 272.846C222.795 272.846 217.556 281.688 215.427 288.238C213.298 294.787 213.953 300.19 219.03 296.752C224.105 293.315 241.626 276.613 241.626 276.613Z" fill="#EAD463"/>
<path d="M230.655 278.087C228.914 278.261 227.195 278.185 225.481 278.049C223.77 277.888 222.063 277.667 220.379 277.193C222.12 277.016 223.839 277.093 225.552 277.23C227.264 277.393 228.97 277.615 230.655 278.087Z" fill="#D39859"/>
<path d="M227.955 282.344C226.308 282.507 224.685 282.42 223.068 282.274C221.454 282.103 219.846 281.871 218.262 281.386C219.909 281.221 221.533 281.308 223.149 281.455C224.764 281.629 226.371 281.861 227.955 282.344Z" fill="#D39859"/>
<path d="M297.251 211.375C295.85 202.479 293.696 203.913 257.837 201.784C221.977 199.655 211.17 198.672 206.421 199.491C201.673 200.31 196.27 210.134 204.457 230.438C212.644 250.742 219.029 263.35 219.029 263.35L238.351 258.111L234.093 228.801C234.093 228.801 257.236 233.878 274.428 233.222C291.621 232.567 299.115 223.201 297.251 211.375Z" fill="#6595D5"/>
<path d="M235.91 200.448C238.9 200.274 241.88 200.266 244.856 200.315C247.834 200.355 250.805 200.493 253.775 200.65C256.743 200.839 259.711 201.048 262.672 201.356C265.634 201.654 268.592 202.011 271.541 202.534C268.552 202.711 265.572 202.72 262.595 202.669C259.618 202.629 256.647 202.491 253.677 202.332C250.709 202.142 247.741 201.932 244.78 201.624C241.818 201.326 238.859 200.97 235.91 200.448Z" fill="#527DB1"/>
<path d="M286.755 188.268C285.78 189.218 284.529 189.855 283.196 190.232C281.862 190.616 280.392 190.671 278.992 190.335C277.601 189.999 276.264 189.303 275.302 188.275C274.759 187.826 274.409 187.205 274.006 186.66C273.664 186.068 273.398 185.434 273.17 184.808C273.715 185.234 274.147 185.716 274.639 186.128L275.381 186.72C275.613 186.929 275.871 187.1 276.135 187.258C277.137 187.967 278.242 188.416 279.379 188.696C280.521 188.975 281.725 189.034 282.959 188.943C284.194 188.833 285.45 188.602 286.755 188.268Z" fill="#527DB1"/>
<path d="M244.609 183.959C245.704 184.857 246.914 185.551 248.177 186.119C248.788 186.435 249.451 186.654 250.08 186.923C250.743 187.123 251.379 187.38 252.041 187.564C254.68 188.333 257.407 188.783 260.158 188.975C262.905 189.256 265.681 189.179 268.467 189.146C269.855 189.041 271.254 188.994 272.655 188.909C274.051 188.787 275.452 188.66 276.875 188.606C275.524 189.027 274.151 189.375 272.774 189.728C271.385 190.007 269.982 190.236 268.574 190.456C267.867 190.532 267.157 190.594 266.447 190.645C265.735 190.685 265.026 190.789 264.31 190.776C262.881 190.77 261.449 190.801 260.019 190.652C258.588 190.557 257.169 190.299 255.754 190.049L253.662 189.505C252.969 189.311 252.295 189.042 251.617 188.803C250.946 188.54 250.291 188.229 249.639 187.93C249.015 187.561 248.364 187.255 247.774 186.837C246.579 186.045 245.44 185.119 244.609 183.959Z" fill="#527DB1"/>
<path d="M283.609 189.475C285.465 191.879 286.875 194.609 287.998 197.44C289.099 200.282 289.858 203.267 290.227 206.31C290.31 207.072 290.409 207.834 290.415 208.602C290.428 209.369 290.505 210.136 290.451 210.904C290.411 211.673 290.424 212.434 290.338 213.212C290.269 213.992 290.123 214.765 289.929 215.53C289.528 217.055 288.828 218.52 287.858 219.784C286.891 221.053 285.67 222.112 284.333 222.951C281.645 224.642 278.565 225.487 275.507 225.9C272.439 226.326 269.344 226.337 266.284 226.133C260.161 225.736 254.127 224.352 248.309 222.69C242.475 221.089 236.626 219.508 230.73 218.323C229.258 218.029 227.78 217.768 226.307 217.593C225.571 217.501 224.836 217.442 224.113 217.42C223.393 217.401 222.666 217.422 222.047 217.569C221.727 217.629 221.474 217.758 221.312 217.877C221.158 218.008 221.118 218.087 221.104 218.306C221.164 219.025 221.169 219.725 221.298 220.473C221.478 221.946 221.764 223.429 222.038 224.909C223.217 230.827 224.654 236.717 226.128 242.59C227.554 248.479 229.095 254.339 230.588 260.215C226.941 248.649 223.491 237.029 220.768 225.171C220.452 223.679 220.124 222.194 219.898 220.663C219.749 219.917 219.727 219.098 219.656 218.307C219.628 217.766 219.926 217.089 220.375 216.753C220.807 216.409 221.271 216.229 221.691 216.134C222.547 215.924 223.349 215.906 224.141 215.913C224.932 215.926 225.71 215.98 226.478 216.065C228.017 216.228 229.529 216.475 231.032 216.754C237.03 217.913 242.896 219.485 248.755 221.066C254.565 222.778 260.407 224.163 266.394 224.604C269.373 224.829 272.374 224.841 275.314 224.457C278.242 224.069 281.156 223.332 283.66 221.85C284.905 221.112 286.032 220.18 286.932 219.059C287.836 217.942 288.503 216.637 288.909 215.242C289.336 213.851 289.429 212.374 289.508 210.874C289.57 209.382 289.545 207.883 289.41 206.392C288.93 200.426 286.945 194.532 283.609 189.475Z" fill="#527DB1"/>
<path d="M251.29 113.721C206.98 102.859 180.415 46.9576 178.271 38.0513C176.127 29.1451 173.162 12.051 170.329 12.1613C168.534 12.231 168.763 31.8559 167.542 36.8901C165.981 43.3237 167.968 48.3724 171.135 50.5609C174.302 52.7493 178.33 73.2375 187.482 88.7644C217.271 139.304 238.95 135.237 238.95 135.237L251.29 113.721Z" fill="#724648"/>
<path d="M183.673 43.2287C181.847 45.971 180.212 48.0062 177.572 50.0055C174.819 52.0913 172.223 53.0902 168.83 53.6578C167.683 53.8501 167.535 55.7643 168.736 55.9964C172.532 56.7325 176.125 54.3855 179.001 52.1618C181.603 50.1495 185.185 47.2762 185.019 43.6416C184.992 43.015 184.044 42.6718 183.673 43.2287Z" fill="#EAD463"/>
<path d="M185.323 48.9668C181.376 54.2316 176.36 57.8946 170.112 59.9819C169.475 60.1949 169.615 60.9946 170.173 61.1838C173.16 62.1941 177.08 59.7651 179.52 58.2316C182.786 56.1787 185.626 53.4035 186.269 49.4663C186.35 48.9737 185.682 48.4873 185.323 48.9668Z" fill="white"/>
<path d="M282.014 168.397C282.014 168.397 279.666 180.514 278.957 182.315C278.248 184.116 266.623 187.228 257.535 185.017C248.447 182.806 246.728 181.66 245.337 177.894C243.945 174.128 239.769 163.485 238.951 159.555C238.951 159.555 275.874 164.14 282.014 168.397Z" fill="#724648"/>
<path d="M239.425 162.025C239.425 162.025 236.4 154.486 237.054 151.621C237.054 151.621 230.272 147.765 230.599 139.087C230.926 130.409 245.372 116.109 250.033 113.151C254.692 110.194 261.056 110.924 273.827 113.708C279.574 114.96 292.821 120.749 296.75 126.152C300.361 131.116 283.807 159.555 282.014 168.397C282.014 168.397 264.958 174.782 239.425 162.025Z" fill="#C8BBFA"/>
<path d="M243.536 153.988C242.725 153.887 241.945 153.667 241.184 153.4C240.421 153.134 239.683 152.803 238.967 152.424C238.26 152.028 237.566 151.599 236.94 151.074C236.314 150.552 235.732 149.957 235.316 149.254C236.639 150.19 237.971 150.954 239.358 151.7C240.736 152.453 242.144 153.151 243.536 153.988Z" fill="#8A7DE5"/>
<path d="M278.956 155.298C278.665 156.284 278.026 157.164 277.24 157.855C276.433 158.514 275.505 159.084 274.487 159.362C272.466 160.016 270.322 159.959 268.265 159.707L266.742 159.391C266.233 159.29 265.724 159.188 265.237 159.017C264.26 158.686 263.249 158.447 262.315 158.01C261.372 157.599 260.402 157.253 259.501 156.76C258.597 156.27 257.685 155.806 256.799 155.297C257.767 155.639 258.709 156.028 259.661 156.39C260.129 156.591 260.609 156.758 261.094 156.912L262.533 157.406C264.453 158.056 266.412 158.545 268.388 158.893C270.366 159.15 272.388 159.236 274.305 158.748C274.542 158.682 274.787 158.634 275.019 158.553L275.701 158.268C275.937 158.187 276.151 158.067 276.36 157.935C276.567 157.802 276.799 157.7 276.99 157.541C277.818 156.987 278.495 156.209 278.956 155.298Z" fill="#8A7DE5"/>
<path d="M322.863 138.016C322.863 138.016 320.175 132.158 322.863 130.653C325.55 129.148 329.474 133.341 329.474 133.341C329.474 133.341 326.948 138.175 322.863 138.016Z" fill="#613B3F"/>
<path d="M292.984 125.988C296.918 122.903 306.479 132.285 306.287 166.651L318.691 147.274C318.691 147.274 314.434 145.965 316.727 141.543C319.019 137.123 321.311 137.123 321.311 137.123C321.311 137.123 322.785 133.193 327.042 133.357C327.042 133.357 328.024 129.264 333.101 131.228C333.101 131.228 345.178 134.177 327.042 162.526C318.354 176.105 310.062 192.795 301.114 189.52C292.166 186.246 291.579 173.66 288.904 162.035C286.23 150.408 284.634 132.537 292.984 125.988Z" fill="#724648"/>
<path d="M328.845 141.543C327.676 140.546 326.56 139.594 325.343 138.794C324.736 138.397 324.1 138.06 323.44 137.761C322.77 137.48 322.073 137.288 321.312 137.122C322.062 136.943 322.874 136.961 323.641 137.151C324.407 137.347 325.129 137.688 325.792 138.105C326.44 138.546 327.038 139.051 327.553 139.63C328.069 140.205 328.528 140.835 328.845 141.543Z" fill="#462232"/>
<path d="M334.084 137.118C333.574 136.629 333.051 136.207 332.51 135.817C331.964 135.436 331.411 135.077 330.821 134.786C330.233 134.492 329.633 134.214 328.999 133.999C328.37 133.762 327.717 133.589 327.043 133.356C327.741 133.247 328.461 133.246 329.162 133.378C329.873 133.478 330.55 133.745 331.199 134.055C331.837 134.389 332.428 134.817 332.929 135.333C333.428 135.844 333.858 136.44 334.084 137.118Z" fill="#462232"/>
<path d="M301.008 174.782C301.776 173.429 302.589 172.104 303.378 170.764L305.82 166.792C307.455 164.149 309.152 161.547 310.816 158.922C312.535 156.333 314.224 153.725 315.971 151.154L318.605 147.307C319.508 146.042 320.388 144.76 321.312 143.508C320.545 144.862 319.732 146.187 318.944 147.527L316.502 151.499C314.865 154.141 313.17 156.745 311.505 159.369C309.784 161.956 308.097 164.566 306.348 167.135L303.714 170.982C302.811 172.248 301.932 173.53 301.008 174.782Z" fill="#462232"/>
<path d="M328.37 156.466C328.219 157.593 329.009 158.629 330.136 158.781C331.263 158.932 332.299 158.142 332.451 157.015C332.602 155.888 331.812 154.852 330.685 154.7C329.558 154.548 328.522 155.339 328.37 156.466Z" fill="#D192C6"/>
<path d="M324.761 155.056C324.609 156.183 325.4 157.219 326.526 157.371C327.653 157.523 328.69 156.732 328.841 155.606C328.993 154.479 328.202 153.442 327.076 153.291C325.949 153.139 324.912 153.93 324.761 155.056Z" fill="#D192C6"/>
<path d="M321.149 153.647C320.998 154.774 321.788 155.81 322.915 155.962C324.042 156.113 325.078 155.323 325.23 154.197C325.382 153.07 324.591 152.034 323.464 151.882C322.338 151.73 321.301 152.52 321.149 153.647Z" fill="#D192C6"/>
<path d="M317.538 152.237C317.387 153.364 318.177 154.401 319.304 154.552C320.431 154.704 321.467 153.913 321.619 152.787C321.77 151.66 320.98 150.623 319.853 150.472C318.726 150.321 317.69 151.111 317.538 152.237Z" fill="#D192C6"/>
<path d="M313.929 150.828C313.777 151.955 314.568 152.991 315.694 153.143C316.821 153.294 317.858 152.504 318.009 151.377C318.161 150.25 317.37 149.214 316.244 149.062C315.117 148.911 314.08 149.702 313.929 150.828Z" fill="#D192C6"/>
<path d="M277.778 108.411C277.778 108.411 284.683 114.183 294.845 110.473C305.007 106.762 302.651 92.7996 302.651 92.7996C302.651 92.7996 310.407 92.6817 311.161 86.3354C311.899 80.1116 307.56 76.4946 307.56 76.4946C307.56 76.4946 317.886 70.7228 315.969 59.3254C313.91 47.0809 301.866 48.4375 301.866 48.4375C301.866 48.4375 306.775 40.8564 301.934 34.1363C296.065 25.9861 284.805 31.1573 284.805 31.1573C284.805 31.1573 286.202 19.6757 271.429 19.5716C260.483 19.495 259.352 28.8823 259.352 28.8823C259.352 28.8823 254.069 23.0278 248.36 27.0048C242.651 30.9811 245.066 37.2769 245.066 37.2769C245.066 37.2769 239.434 35.165 236.639 36.982C231.958 40.0253 234.997 45.3766 234.997 45.3766C234.997 45.3766 227.835 43.4623 221.943 52.7892C217.166 60.3526 220.372 70.6584 226.951 75.5317C226.951 75.5317 219.072 95.6515 234.997 98.1869L277.778 108.411Z" fill="#462232"/>
<path d="M276.949 116.085C276.949 109.057 276.949 68.5887 276.949 63.6909C276.949 58.7931 270.56 47.0809 256.506 47.0809C242.451 47.0809 234.998 56.4506 234.998 66.6722C234.998 76.8937 234.998 93.7165 234.998 98.1885C234.998 102.66 240.748 110.016 254.802 109.377C254.802 109.377 255.232 114.315 255.232 117.19C255.232 117.19 255.469 121.417 256.208 121.977C261.363 125.879 276.949 121.587 276.949 116.085Z" fill="#724648"/>
<path opacity="0.3" d="M256.506 47.0809C270.56 47.0809 276.949 58.7931 276.949 63.6909C276.949 65.3355 276.949 71.3815 276.949 78.9419C274.384 79.8198 266.693 81.3165 266.258 67.9108C266.258 67.9108 257.791 72.7151 254.693 62.3113C254.693 62.3113 248.356 69.9728 242.465 62.9034C242.465 62.9034 240.524 69.2068 234.998 68.6178C234.998 67.9483 234.998 67.2972 234.998 66.6729C234.999 56.4506 242.451 47.0809 256.506 47.0809Z" fill="#724648"/>
<path opacity="0.3" d="M254.795 109.376C254.798 109.376 254.8 109.377 254.803 109.377C254.803 109.377 254.889 111.05 254.984 113.152C262.284 111.626 267.359 105.747 267.359 105.747C259.799 109.473 254.795 109.376 254.795 109.376Z" fill="#724648"/>
<g opacity="0.3">
<path opacity="0.4" d="M261.68 87.4537C264.209 87.4537 266.258 86.4886 266.258 85.2982C266.258 84.1077 264.209 83.1426 261.68 83.1426C259.151 83.1426 257.102 84.1077 257.102 85.2982C257.102 86.4886 259.151 87.4537 261.68 87.4537Z" fill="#724648"/>
<path opacity="0.4" d="M234.998 83.1649C237.305 83.2759 239.112 84.1829 239.112 85.2982C239.112 86.4135 237.305 87.3204 234.998 87.4315C234.998 86.0603 234.998 84.6287 234.998 83.1649Z" fill="#724648"/>
</g>
<path d="M236.641 75.5324C236.641 75.5324 239.71 73.6159 241.849 74.8936C243.987 76.1713 244.2 72.2318 241.113 72.2318C238.025 72.2318 236.641 75.5324 236.641 75.5324Z" fill="#462232"/>
<path d="M258.096 75.5324C258.096 75.5324 255.026 73.6159 252.888 74.8936C250.749 76.1713 250.536 72.2318 253.624 72.2318C256.712 72.2318 258.096 75.5324 258.096 75.5324Z" fill="#462232"/>
<path d="M246.252 80.1116C246.252 80.1116 246.252 85.9676 243.169 83.3732C242.821 83.0806 242.232 83.3793 241.847 83.6206C241.622 83.7608 241.451 83.9737 241.323 84.2051C240.6 85.4996 241.288 87.2744 242.57 88.0182C243.853 88.762 245.513 88.6057 246.834 87.9332" fill="#724648"/>
<path d="M246.035 80.1116C245.966 81.0178 245.708 82.0994 245.247 82.8876C244.653 83.9048 244.173 83.3334 243.329 82.9887C242.643 82.7083 241.972 82.8975 241.389 83.374C240.104 84.4242 240.313 86.379 241.253 87.5855C242.614 89.3342 245.22 89.4208 247.03 88.3744C247.567 88.0642 247.233 87.286 246.639 87.4905C245.129 88.0106 243.27 88.3308 242.151 86.8807C241.187 85.6322 241.483 83.3564 243.445 84.1254C244.186 84.4158 244.775 84.7643 245.521 84.2181C246.713 83.3472 246.556 81.3985 246.469 80.1108C246.45 79.8312 246.057 79.8335 246.035 80.1116Z" fill="#462232"/>
<path d="M247.979 93.8345C250.33 93.8345 253.38 90.4886 255.834 93.1872C258.287 95.8851 255.269 100.958 248.519 100.958C240.94 100.958 238.425 95.2914 241.049 93.1911C243.039 91.6001 245.042 93.8345 247.979 93.8345Z" fill="#462232"/>
<path d="M247.978 93.8345C250.329 93.8345 253.38 90.4886 255.833 93.1872C255.992 93.3619 256.126 93.5457 256.24 93.738C256.24 93.738 253.373 95.9295 249.278 96.5469C245.468 97.1214 240.999 95.1168 241.049 93.1918C243.038 91.6001 245.041 93.8345 247.978 93.8345Z" fill="white"/>
<path d="M255.723 97.9579C254.459 99.6216 251.982 100.958 248.52 100.958C247.47 100.958 246.52 100.846 245.664 100.653C246.401 97.6193 253.182 97.7855 255.723 97.9579Z" fill="#7D3058"/>
<path d="M250.033 81.1365C250.033 81.1365 251.665 77.678 254.544 77.8703C257.424 78.0625 258.095 80.0779 258.095 80.0779L256.56 80.7497C256.56 80.7497 254.424 77.6918 250.033 81.1365Z" fill="#462232"/>
<path d="M244.074 81.1993C244.074 81.1993 242.442 77.7416 239.563 77.9331C236.684 78.1254 236.012 80.1407 236.012 80.1407L237.548 80.8125C237.548 80.8125 239.682 77.7546 244.074 81.1993Z" fill="#462232"/>
<path d="M276.949 77.783C276.949 77.783 282.63 73.7416 285.68 79.9745C288.946 86.6471 282.06 92.3347 276.949 89.7793V77.783Z" fill="#724648"/>
<path d="M276.359 90.8846C276.359 92.4664 277.642 93.7495 279.223 93.7495C280.805 93.7495 282.088 92.4672 282.088 90.8846C282.088 89.3029 280.806 88.0206 279.223 88.0206C277.642 88.0206 276.359 89.3029 276.359 90.8846Z" fill="white"/>
<path d="M284.805 81.1955C281.717 75.907 277.777 80.3797 277.777 80.3797C277.777 80.3797 280.368 79.4214 282.32 81.6091" stroke="#462232" stroke-width="0.7954" stroke-miterlimit="10" stroke-linecap="round" stroke-linejoin="round"/>
<path d="M276.949 77.783C276.949 77.783 266.433 78.6562 268.494 65.2543C268.494 65.2543 259.503 69.7246 254.812 59.1209C254.812 59.1209 248.643 68.6959 241.048 58.4851C241.048 58.4851 240.042 67.9108 232.842 65.9958C223.66 63.5537 244.437 34.4794 267.358 42.1379C290.279 49.7956 276.949 77.783 276.949 77.783Z" fill="#462232"/>
<g opacity="0.3">
<path d="M294.727 93.7479C295.963 97.1773 296.503 103.184 291.591 103.744C290.793 103.835 290.763 105.13 291.528 105.304C293.979 105.859 296.069 104.252 296.836 101.947C297.798 99.0609 297.065 95.8881 295.47 93.3956C295.22 93.0072 294.566 93.3021 294.727 93.7479Z" fill="#462232"/>
<path d="M287.69 97.5374C285.44 97.5504 284.018 98.9843 282.77 100.702C281.545 102.39 280.473 104.405 282.275 106.11C282.794 106.601 283.408 105.853 283.246 105.331C282.842 104.025 283.748 102.665 284.402 101.602C285.212 100.283 286.102 99.1 287.759 98.9529C288.561 98.8817 288.502 97.5328 287.69 97.5374Z" fill="#462232"/>
<path d="M290.528 86.5276C294.538 84.8662 294.964 77.701 291.87 74.984C291.342 74.5206 290.482 75.2874 290.821 75.8779C292.385 78.6011 293.59 83.7279 290.202 85.8229C289.836 86.0489 290.112 86.7 290.528 86.5276Z" fill="#462232"/>
<path d="M306.086 80.68C304.925 79.3533 303.033 79.8305 301.994 81.0576C300.535 82.7834 299.735 85.1718 299.841 87.4162C299.864 87.9018 300.645 88.0681 300.809 87.5801C301.354 85.9509 302.956 79.2537 305.707 81.1955C306.025 81.4207 306.309 80.9358 306.086 80.68Z" fill="#462232"/>
<path d="M297.389 76.0005C300.685 69.8687 293.965 62.9501 287.678 64.6208C286.888 64.8307 287.024 65.9766 287.868 65.8977C290.446 65.6549 293.2 66.3473 294.972 68.3328C296.847 70.4324 297.069 73.1808 296.783 75.848C296.748 76.1813 297.246 76.267 297.389 76.0005Z" fill="#462232"/>
<path d="M282.905 71.4527C279.187 73.6634 273.286 69.7361 273.094 65.6802C273.069 65.1394 272.198 65.0804 272.135 65.6327C271.536 70.9472 279.024 75.403 283.389 72.1812C283.844 71.8465 283.389 71.164 282.905 71.4527Z" fill="#462232"/>
<path d="M267.82 59.5284C264.184 61.5353 260.415 59.9367 258.547 56.4774C258.292 56.0063 257.58 56.4077 257.729 56.8857C259.137 61.3867 264.461 62.5878 268.09 59.8969C268.302 59.7398 268.042 59.4058 267.82 59.5284Z" fill="#462232"/>
<path d="M251.888 55.8562C250.816 57.7552 246.719 57.497 245.375 56.5227C244.064 55.5721 243.375 54.1703 242.336 52.9776C241.891 52.4667 241.081 52.9209 241.306 53.5697C242.255 56.3005 244.572 59.0076 247.708 58.8521C249.382 58.7693 251.917 57.8632 252.395 56.0677C252.475 55.7659 252.044 55.5789 251.888 55.8562Z" fill="#462232"/>
<path d="M236.526 56.0722C237.085 57.6525 237.331 59.7169 235.856 60.8973C234.539 61.9513 232.789 61.8448 231.206 62.0325C230.737 62.0876 230.627 62.8276 231.146 62.8988C233.198 63.1822 235.76 62.9647 237.073 61.1202C238.2 59.5361 237.816 57.4939 237.075 55.844C236.937 55.5376 236.414 55.7543 236.526 56.0722Z" fill="#462232"/>
<path d="M226.42 69.0712C230.173 69.6511 232.146 72.8009 230.718 76.3237C230.491 76.8852 231.206 77.4429 231.682 77.0407C233.437 75.5608 233.478 73.056 232.406 71.1371C231.215 69.0084 228.801 68.1383 226.475 68.1582C225.951 68.1635 225.905 68.9916 226.42 69.0712Z" fill="#462232"/>
<path d="M228.747 80.6355C226.559 83.3004 227.877 87.4751 230.614 89.1121C231.16 89.4392 231.564 88.5966 231.158 88.2128C229.061 86.2281 228.787 83.6536 229.507 81.0078C229.623 80.5819 229.016 80.3077 228.747 80.6355Z" fill="#462232"/>
<path d="M305.583 71.3409C312.14 70.8583 314.845 62.7219 309.779 58.4468C309.222 57.9765 308.426 58.826 308.898 59.3737C312.445 63.4894 310.889 69.4221 305.537 70.8859C305.297 70.951 305.311 71.3608 305.583 71.3409Z" fill="#462232"/>
<path d="M304.402 51.3706C298.447 52.3863 299.202 61.6288 303.761 63.9843C304.167 64.1942 304.684 63.6357 304.362 63.2688C303.055 61.7813 301.871 60.4637 301.52 58.4254C301.103 56.0064 301.873 52.8704 304.549 52.1795C304.996 52.0638 304.868 51.2909 304.402 51.3706Z" fill="#462232"/>
<path d="M290.374 56.5771C287.877 56.2484 285.071 56.001 282.951 57.6602C280.988 59.1968 280.103 62.4822 281.593 64.604C281.908 65.0521 282.777 64.8767 282.885 64.3359C283.24 62.5496 282.496 60.679 283.787 59.1286C285.341 57.2626 288.083 57.314 290.305 57.3507C290.744 57.3576 290.817 56.6353 290.374 56.5771Z" fill="#462232"/>
<path d="M294.186 34.6817C299.79 36.5507 298.942 42.583 296.903 46.8151C296.681 47.2747 297.349 47.7381 297.67 47.3115C300.946 42.9614 300.317 35.6736 294.332 34.1485C293.984 34.0597 293.85 34.5691 294.186 34.6817Z" fill="#462232"/>
<path d="M289.835 40.7009C285.003 42.9078 287.5 50.878 291.268 52.9501C291.664 53.1676 291.961 52.5831 291.595 52.3411C288.713 50.4353 286.767 43.4478 290.11 41.1812C290.406 40.9805 290.159 40.5531 289.835 40.7009Z" fill="#462232"/>
<path d="M279.709 47.5306C279.435 49.3422 279.102 51.3246 277.472 52.4253C275.876 53.5031 273.515 53.6134 271.655 53.4556C271 53.4004 270.857 54.2829 271.486 54.4552C273.786 55.0849 276.543 55.0052 278.449 53.3598C280.09 51.9427 280.25 49.624 280.299 47.6064C280.307 47.2747 279.76 47.1882 279.709 47.5306Z" fill="#462232"/>
<path d="M270.633 46.3257C266.021 45.5122 262.112 49.5612 263.554 54.1174C263.728 54.6666 264.597 54.4682 264.536 53.8991C264.142 50.2223 266.758 46.95 270.561 47.0526C270.977 47.0649 271.046 46.3984 270.633 46.3257Z" fill="#462232"/>
<path d="M224.694 61.4334C224.192 58.3411 226.007 55.6984 229.006 54.9761C229.523 54.8512 229.302 54.1411 228.843 54.1235C224.885 53.9665 222.261 58.0201 223.885 61.5805C224.06 61.9643 224.776 61.9413 224.694 61.4334Z" fill="#462232"/>
<path d="M239.586 42.3463C242.099 45.9695 238.6 49.5475 234.89 49.6333C234.482 49.6424 234.394 50.2989 234.818 50.361C239.476 51.0435 243.256 45.9679 240.021 42.0131C239.826 41.7733 239.408 42.0897 239.586 42.3463Z" fill="#462232"/>
<path d="M256.346 31.6567C254.207 30.6127 251.568 29.7149 249.721 31.7824C247.832 33.8958 247.02 37.3841 247.213 40.1379C247.254 40.7147 248.123 40.7453 248.218 40.1777C248.582 38.0306 248.951 35.9494 249.814 33.9341C250.446 32.458 251.279 31.479 253.04 31.3419C254.063 31.2622 255.207 31.8007 256.136 32.1631C256.425 32.2764 256.627 31.7946 256.346 31.6567Z" fill="#462232"/>
<path d="M253.361 39.1973C254.183 40.5171 254.982 42.2046 254.77 43.8109C254.443 46.2851 251.524 46.8695 249.594 47.3758C248.947 47.5459 249.247 48.5463 249.875 48.4835C252.167 48.2544 254.752 47.6485 255.796 45.323C256.794 43.0993 255.246 40.4788 253.862 38.7982C253.628 38.5148 253.172 38.8939 253.361 39.1973Z" fill="#462232"/>
<path d="M282.029 32.9383C281.185 29.7379 280.462 25.9661 276.932 24.7873C273.562 23.662 269.968 24.6693 267.471 27.0975C266.998 27.5571 267.744 28.1929 268.236 27.8834C270.047 26.7429 272.47 25.7233 274.67 25.9393C278.625 26.3285 280.194 29.5878 281.322 33.1489C281.466 33.6024 282.15 33.3963 282.029 32.9383Z" fill="#462232"/>
<path d="M271.047 34.4128C270.532 38.1915 263.526 36.2482 261.212 35.6392C260.405 35.427 260.008 36.4611 260.75 36.8449C263.386 38.2076 273.488 40.1655 272.067 34.311C271.939 33.7809 271.114 33.9203 271.047 34.4128Z" fill="#462232"/>
<path d="M282.647 41.1498C281.15 38.3462 276.585 37.0877 274.786 40.3562C274.424 41.0135 275.11 41.7029 275.755 41.2593C277.717 39.9089 280.044 39.604 281.552 41.8093C281.958 42.4045 282.991 41.7925 282.647 41.1498Z" fill="#462232"/>
</g>
<path d="M69.8952 343.61C108.497 343.61 139.79 339.37 139.79 334.139C139.79 328.909 108.497 324.669 69.8952 324.669C31.2931 324.669 0 328.909 0 334.139C0 339.37 31.2931 343.61 69.8952 343.61Z" fill="#F2ECE3"/>
<path d="M77.6387 44.5975C77.6387 44.5975 76.1442 33.7594 67.8967 40.2398C67.8967 40.2398 64.0675 29.3411 57.9893 39.0617C57.9893 39.0617 48.3093 32.8762 49.7823 45.2471C49.7823 45.2471 40.3567 45.9832 47.7203 53.3468C47.7203 53.3468 40.1307 61.4656 53.3167 60.8819C66.5026 60.2982 77.6387 44.5975 77.6387 44.5975Z" fill="#C5674F"/>
<path opacity="0.5" d="M68.4859 49.4195C70.3664 43.3252 74.548 42.5309 77.1792 42.691C77.5224 43.7603 77.6388 44.5975 77.6388 44.5975C77.6388 44.5975 66.5027 60.299 53.3168 60.8819C52.2528 60.9287 51.3374 60.9141 50.5293 60.8567C58.6359 44.9353 68.4859 49.4195 68.4859 49.4195Z" fill="#C5674F"/>
<g opacity="0.5">
<path d="M71.619 40.3899C68.4738 39.9005 66.3673 44.2598 67.2551 46.8512C67.3631 47.166 67.838 47.0626 67.8725 46.7585C68.0019 45.5941 68.0954 44.4536 68.568 43.3674C69.0774 42.1977 70.1038 40.6328 71.5815 40.6841C71.7477 40.691 71.789 40.4168 71.619 40.3899Z" fill="#C5674F"/>
<path d="M61.7669 37.928C63.3847 40.6979 63.4084 43.5083 61.9155 46.3348C61.7585 46.6321 62.2104 46.8649 62.4096 46.6213C64.4732 44.102 64.2633 40.072 61.9837 37.761C61.8757 37.6507 61.688 37.7924 61.7669 37.928Z" fill="#C5674F"/>
<path d="M53.175 40.0958C54.2398 40.8648 55.5221 41.2363 56.5332 42.118C57.6102 43.0564 58.2 44.2322 58.5171 45.6064C58.6052 45.9886 59.1475 45.9756 59.2019 45.5796C59.6186 42.5738 56.0016 40.085 53.3604 39.7158C53.1635 39.6883 52.9843 39.9586 53.175 40.0958Z" fill="#C5674F"/>
<path d="M52.2559 42.7776C52.2635 45.2012 52.8579 49.634 55.7718 50.2966C56.1311 50.3786 56.1962 49.8707 55.9227 49.7221C53.6906 48.508 52.9805 45.0174 52.8281 42.7102C52.8036 42.3325 52.2551 42.416 52.2559 42.7776Z" fill="#C5674F"/>
<path d="M46.6372 48.9569C47.702 49.1108 48.6181 49.0878 49.6277 49.5697C50.6166 50.0423 51.3903 50.8481 51.9877 51.7558C52.2482 52.1526 53.0103 51.9236 52.8135 51.4211C51.9663 49.2564 48.8517 47.2977 46.5583 48.5601C46.3936 48.6512 46.4565 48.9308 46.6372 48.9569Z" fill="#C5674F"/>
<path d="M48.5451 56.8053C49.4957 55.3522 50.981 54.7616 52.5704 54.2767C53.0017 54.145 53.0477 53.4027 52.5436 53.3407C50.4701 53.0849 48.6133 54.5617 47.7638 56.3603C47.5179 56.8811 48.2257 57.2925 48.5451 56.8053Z" fill="#C5674F"/>
</g>
<path d="M104.935 91.4415C104.935 91.4415 107.228 110.294 104.935 115.626C102.162 122.075 102.753 128.358 105.698 132.089C108.643 135.82 110.992 143.179 107.755 146.863C104.519 150.548 46.1989 149.453 36.3804 144.796C26.5625 140.14 31.8947 125.898 39.2429 120.255C46.5911 114.613 34.2509 102.68 39.2429 93.8207C44.2349 84.9619 47.7693 85.8129 46.7872 73.704C45.8052 61.5943 60.193 49.4632 69.2839 50.3088C78.3748 51.1545 104.935 91.4415 104.935 91.4415Z" fill="#C5674F"/>
<g opacity="0.5">
<path d="M61.4094 62.7977C54.1378 61.4365 50.1638 68.2462 50.1033 74.7419C50.0558 79.8243 54.4702 84.7865 52.651 89.803C51.4124 93.2186 46.4495 93.2899 44.6187 96.2742C43.174 98.6304 44.2104 101.281 45.5272 103.412C48.8662 108.817 51.3296 114.173 46.1247 119.516C42.0419 123.708 32.8124 128.092 40.1851 134.069C40.6263 134.426 41.1533 133.906 40.8109 133.457C38.575 130.517 38.6324 127.917 41.4444 125.429C42.6869 124.33 44.0733 123.406 45.3503 122.349C47.5793 120.504 49.6705 118.367 50.5667 115.546C51.4583 112.739 50.8172 109.826 49.6391 107.194C48.2618 104.117 43.3257 99.9969 46.0711 96.3584C47.6 94.3316 50.6694 93.9042 52.4197 92.0711C53.8375 90.5866 54.3278 88.6372 54.1792 86.6241C53.8866 82.6662 51.2278 79.3578 51.0861 75.3371C50.8723 69.2673 54.1386 62.263 61.3711 63.0451C61.5144 63.062 61.5512 62.8245 61.4094 62.7977Z" fill="#C5674F"/>
<path d="M63.0375 92.3584C60.2608 92.1393 57.3875 93.5472 56.2301 96.1723C54.4905 100.117 57.4894 103.868 59.4312 107.027C61.9452 111.118 62.8231 115.298 57.9965 117.971C56.6384 118.723 55.1041 119.561 54.3442 120.991C52.6353 124.212 55.9306 128.251 57.7376 130.691C58.0057 131.052 58.5197 130.645 58.3634 130.271C57.651 128.559 56.4277 127.041 55.7896 125.324C54.5127 121.887 56.7533 120.074 59.4029 118.533C61.5025 117.313 62.7296 115.822 62.8407 113.298C62.9433 110.951 61.8908 108.847 60.6905 106.908C59.5944 105.137 57.6939 103.11 57.3063 101.017C57.5652 99.0295 57.8241 97.0425 58.0838 95.0547C58.6024 94.4725 59.2045 94.0137 59.89 93.6782C60.8575 93.1474 62.0073 92.9015 63.0705 92.6295C63.2283 92.5905 63.19 92.3706 63.0375 92.3584Z" fill="#C5674F"/>
<path d="M90.2249 102.702C93.7026 104.643 96.1484 108.431 93.6107 112.349C92.8048 113.595 91.4789 114.269 90.6102 115.427C89.7171 116.618 89.2383 118.045 89.3915 119.544C89.8167 123.696 94.5551 125.68 95.8834 129.448C95.9968 129.769 96.51 129.63 96.4579 129.296C96.0879 126.911 94.5168 125.581 92.9289 123.888C90.8875 121.712 89.3486 119.522 91.2039 116.442C92.0641 115.014 93.4613 114.185 94.343 112.785C96.8294 108.837 94.8623 103.554 90.336 102.426C90.1729 102.385 90.074 102.617 90.2249 102.702Z" fill="#C5674F"/>
<path d="M98.7095 102.323C100.611 104.812 101.692 107.716 101.307 110.901C100.957 113.8 98.9423 115.523 98.2499 118.17C97.4571 121.204 99.6762 123.807 101.973 125.499C102.274 125.721 102.674 125.303 102.425 125.015C101.529 123.98 100.179 122.893 99.6019 121.627C98.1097 118.35 99.6792 117.283 100.801 115.109C101.476 113.804 101.921 112.415 102.059 110.948C102.373 107.623 101.252 104.511 98.9898 102.09C98.8504 101.94 98.5823 102.157 98.7095 102.323Z" fill="#C5674F"/>
</g>
<path d="M113.753 322.241L115.126 306.282H91.6152L95.2185 322.241H113.753Z" fill="#EFC1AB"/>
<path d="M127.654 334.139L113.753 322.241H95.2189L93.5605 332.424L127.654 334.139Z" fill="#A7548D"/>
<path d="M107.977 328.191C110.222 327.946 112.458 327.963 114.69 328.044C116.921 328.15 119.149 328.322 121.367 328.758C119.121 329.004 116.886 328.987 114.654 328.905C112.422 328.796 110.193 328.624 107.977 328.191Z" fill="#D192C6"/>
<path d="M103.912 324.932C106.158 324.688 108.393 324.705 110.625 324.785C112.857 324.892 115.085 325.064 117.302 325.499C115.056 325.746 112.821 325.729 110.589 325.646C108.358 325.538 106.13 325.366 103.912 324.932Z" fill="#D192C6"/>
<path d="M28.6348 322.241L29.8803 304.556L52.9828 306.281L47.1689 322.241H28.6348Z" fill="#EFC1AB"/>
<path d="M14.7344 334.139L28.635 322.241H47.1691L48.8275 332.424L14.7344 334.139Z" fill="#A7548D"/>
<path d="M34.4131 328.191C32.1956 328.624 29.9673 328.796 27.7367 328.904C25.5045 328.987 23.2693 329.004 21.0234 328.757C23.241 328.322 25.4693 328.15 27.6999 328.044C29.932 327.962 32.1672 327.946 34.4131 328.191Z" fill="#D192C6"/>
<path d="M38.4756 324.932C36.2581 325.366 34.0298 325.538 31.7992 325.646C29.567 325.729 27.3318 325.745 25.0859 325.499C27.3035 325.064 29.5318 324.891 31.7624 324.785C33.9945 324.705 36.2297 324.688 38.4756 324.932Z" fill="#D192C6"/>
<path d="M29.8983 305.519C29.8983 305.519 39.4465 313.332 52.9825 306.282L77.8874 230.773L91.6164 306.282C91.6164 306.282 97.9658 311.258 115.127 306.282C115.127 306.282 118.774 257.792 118.461 226.374C118.181 198.426 113.755 193.018 113.755 193.018L39.4472 194.048C39.4472 194.048 34.2446 207.661 31.7819 231.277C28.9178 258.727 29.8983 305.519 29.8983 305.519Z" fill="#2E3D49"/>
<g opacity="0.6">
<path d="M85.6107 221.975C85.1059 222.387 84.5812 222.763 84.0565 223.139C83.5287 223.511 82.9902 223.862 82.4487 224.209C81.3633 224.898 80.2503 225.54 79.1242 226.157L79.3249 225.881C78.945 227.533 78.4946 229.169 77.8887 230.774C77.9691 229.06 78.2058 227.38 78.5122 225.713L78.5444 225.537L78.7129 225.436C79.8175 224.78 80.9351 224.147 82.081 223.564C82.6547 223.273 83.2315 222.988 83.819 222.722C84.4089 222.461 84.9994 222.2 85.6107 221.975Z" fill="#2E3D49"/>
<path d="M36.8457 205.086C36.8457 205.086 47.2258 209.353 52.9823 200.37" stroke="#2E3D49" stroke-width="1.1261" stroke-miterlimit="10"/>
<path d="M105.643 198.369C105.643 198.369 108.201 205.476 116.798 203.235" stroke="#2E3D49" stroke-width="1.1261" stroke-miterlimit="10"/>
<path d="M49.6836 203.906C49.6836 203.906 79.4335 221.581 107.357 201.02" stroke="#2E3D49" stroke-width="1.1261" stroke-miterlimit="10"/>
<path d="M86.9592 204.425C86.9592 204.425 87.8845 212.654 86.3586 215.19C84.8327 217.725 81.748 217.472 81.748 217.472" stroke="#2E3D49" stroke-width="1.1261" stroke-miterlimit="10"/>
<path d="M41.9903 206.099C41.9903 206.099 34.187 238.669 34.413 307.925" stroke="#2E3D49" stroke-width="1.1261" stroke-miterlimit="10"/>
<path d="M81.748 224.179C81.748 224.179 89.0258 279.484 95.8018 307.925" stroke="#2E3D49" stroke-width="1.1261" stroke-miterlimit="10"/>
</g>
<path d="M86.3594 118.147C127.837 105.04 159.836 46.9576 161.98 38.0513C164.124 29.145 166.258 12.0502 169.091 12.1605C170.887 12.2302 168.568 25.3962 167.702 36.4098C167.702 36.4098 168.288 24.7796 171.09 25.4023C173.891 26.0251 171.488 31.8559 172.71 36.8893C174.271 43.3229 172.284 48.3716 169.116 50.5601C165.949 52.7485 161.921 73.2368 152.769 88.7636C122.98 139.303 103.07 138.018 103.07 138.018L86.3594 118.147Z" fill="#EFC1AB"/>
<path d="M121.209 130.075L107.061 105.747C107.061 105.747 93.8856 115.626 81.6763 117.263C66.8488 119.251 88.7457 144.95 101.442 140.973C114.14 136.998 121.209 130.075 121.209 130.075Z" fill="#D192C6"/>
<path d="M172.657 35.2301C172.657 35.2301 170.263 36.0429 167.826 34.7169" stroke="#462232" stroke-width="2.2003" stroke-miterlimit="10" stroke-linecap="round" stroke-linejoin="round"/>
<path d="M86.9814 115.953C89.3836 117.269 105.517 124.89 110.322 135.701C115.127 146.512 113.24 154.064 107.061 158.011C107.061 158.011 113.925 181.35 113.755 193.019C113.755 193.019 84.6581 219.471 39.4473 194.049C39.4473 194.049 39.7606 144.683 44.9088 130.439C50.0571 116.196 57.9025 114.707 66.1791 114.821C74.455 114.935 86.9814 115.953 86.9814 115.953Z" fill="#A7548D"/>
<path d="M104.141 176.288C99.0143 176.559 94.0507 177.211 88.9024 176.586C82.8824 175.856 77.2431 173.835 71.7356 171.364C71.0776 171.069 70.5743 172.12 71.181 172.494C80.3033 178.121 93.9963 180.811 104.329 177.132C104.803 176.963 104.629 176.261 104.141 176.288Z" fill="#8A3B75"/>
<path d="M104.966 180.036C99.8952 183.722 94.6098 185.973 88.3937 186.853C87.6208 186.962 87.725 188.263 88.5148 188.225C94.9055 187.911 101.07 185.237 105.557 180.667C105.906 180.313 105.358 179.752 104.966 180.036Z" fill="#8A3B75"/>
<path d="M99.1321 162.3C106.703 160.665 113.315 154.775 113.616 146.651C114.028 135.506 105.336 125.533 96.0398 120.716C95.3121 120.339 94.7728 121.488 95.4975 121.863C104.133 126.337 111.132 134.505 112.264 144.467C113.209 152.788 106.736 159.369 99.0211 161.034C98.2336 161.205 98.3347 162.472 99.1321 162.3Z" fill="#8A3B75"/>
<path d="M84.802 162.694C79.1106 167.526 71.1281 166.274 65.2261 162.638C64.5298 162.209 63.9951 163.362 64.683 163.786C70.9466 167.644 79.5082 168.847 85.5358 163.73C86.154 163.206 85.427 162.164 84.802 162.694Z" fill="#8A3B75"/>
<path d="M65.8047 116.084C65.8047 109.057 65.8047 68.5886 65.8047 63.6908C65.8047 58.793 72.1931 47.0809 86.2477 47.0809C100.302 47.0809 107.755 56.4506 107.755 66.6721C107.755 76.8936 107.755 93.7165 107.755 98.1884C107.755 102.66 102.006 110.016 87.9513 109.377C87.9513 109.377 87.5216 114.315 87.5216 117.19C87.5216 117.19 87.2849 121.417 86.5457 121.977C81.3913 125.879 65.8047 121.587 65.8047 116.084Z" fill="#EFC1AB"/>
<path opacity="0.5" d="M86.2477 47.0809C100.302 47.0809 107.755 56.4506 107.755 66.6721C107.755 67.0191 107.755 67.3914 107.755 67.7529C106.685 67.4772 105.423 66.9869 104.037 66.0853C104.037 66.0853 105.82 73.3018 92.6384 65.4227C92.6384 65.4227 95.0682 74.1988 78.9424 68.4117C78.9424 68.4117 78.0431 78.9855 65.8047 79.1656C65.8047 71.5982 65.8047 65.4204 65.8047 63.6901C65.8047 58.793 72.1931 47.0809 86.2477 47.0809Z" fill="#EFC1AB"/>
<path opacity="0.5" d="M87.9597 109.376C87.9566 109.376 87.9543 109.377 87.952 109.377C87.952 109.377 87.8654 111.05 87.7704 113.151C80.4697 111.626 75.3965 105.747 75.3965 105.747C82.9554 109.473 87.9597 109.376 87.9597 109.376Z" fill="#EFC1AB"/>
<path opacity="0.4" d="M81.0745 87.4537C83.6031 87.4537 85.6529 86.4886 85.6529 85.2982C85.6529 84.1077 83.6031 83.1426 81.0745 83.1426C78.5459 83.1426 76.4961 84.1077 76.4961 85.2982C76.4961 86.4886 78.5459 87.4537 81.0745 87.4537Z" fill="#EFC1AB"/>
<path opacity="0.4" d="M107.756 83.1649C105.448 83.2759 103.641 84.1829 103.641 85.2982C103.641 86.4135 105.448 87.3204 107.756 87.4315C107.756 86.0603 107.756 84.6287 107.756 83.1649Z" fill="#EFC1AB"/>
<path d="M102.6 94.6311C102.6 94.6311 97.3171 100.817 88.9355 94.6311" stroke="#C67F65" stroke-width="1.1002" stroke-miterlimit="10" stroke-linecap="round" stroke-linejoin="round"/>
<path d="M89.5647 92.913C89.5647 92.913 89.6367 95.2202 87.1816 94.6311" stroke="#C67F65" stroke-width="1.1002" stroke-miterlimit="10" stroke-linecap="round" stroke-linejoin="round"/>
<path d="M90.7507 79.3632C90.7507 81.0553 89.9066 82.4264 88.8656 82.4264C87.8246 82.4264 86.9805 81.0553 86.9805 79.3632C86.9805 77.6711 87.8246 76.2999 88.8656 76.2999C89.9066 76.2999 90.7507 77.6718 90.7507 79.3632Z" fill="#2A2A2A"/>
<path d="M105.923 79.3632C105.923 81.0553 105.078 82.4264 104.037 82.4264C102.996 82.4264 102.152 81.0553 102.152 79.3632C102.152 77.6711 102.996 76.2999 104.037 76.2999C105.078 76.2999 105.923 77.6718 105.923 79.3632Z" fill="#2A2A2A"/>
<path d="M109.977 75.3402C109.977 75.3402 105.524 72.673 102.092 74.7021C99.9506 75.9683 98.941 72.0441 104.303 72.0441C107.385 72.0448 109.977 75.3402 109.977 75.3402Z" fill="#C5674F"/>
<path d="M94.6228 78.6615C94.6228 84.3223 90.3899 88.9106 85.1688 88.9106C79.9478 88.9106 75.7148 84.3215 75.7148 78.6615C75.7148 73.0008 79.9478 68.4117 85.1688 68.4117C90.3906 68.4124 94.6228 73.0008 94.6228 78.6615Z" stroke="#2E3D49" stroke-width="1.4125" stroke-miterlimit="10"/>
<path d="M113.936 78.6615C113.936 84.3223 110.431 88.9106 106.107 88.9106C101.783 88.9106 98.2773 84.3215 98.2773 78.6615C98.2773 73.0008 101.783 68.4117 106.107 68.4117C110.431 68.4124 113.936 73.0008 113.936 78.6615Z" stroke="#2E3D49" stroke-width="1.2854" stroke-miterlimit="10"/>
<path d="M66.0469 77.5562H75.7146" stroke="#2E3D49" stroke-width="1.2854" stroke-miterlimit="10"/>
<path d="M94.6133 78.2586H98.2778" stroke="#2E3D49" stroke-width="1.2854" stroke-miterlimit="10"/>
<path d="M96.5013 80.1116C96.5013 80.1116 102.602 84.3108 100.183 88.0182C99.3738 89.2599 97.2405 88.6057 95.9199 87.9332" fill="#EFC1AB"/>
<path d="M96.3504 80.2663C97.3523 81.1058 98.2347 82.2388 99.0804 83.2315C99.8372 84.1208 100.331 85.2376 100.173 86.4288C99.8625 88.7773 97.6687 88.0244 96.0876 87.4805C95.5867 87.3081 95.1631 88.0236 95.6403 88.3277C96.8176 89.0784 98.7502 89.7456 100.052 88.906C101.202 88.1638 101.471 86.5199 101.161 85.2851C100.552 82.8615 98.6851 81.1135 96.6077 79.9224C96.4009 79.8036 96.1581 80.1047 96.3504 80.2663Z" fill="#C67F65"/>
<path d="M82.377 75.3402C82.377 75.3402 86.8312 72.673 90.2629 74.7021C92.4039 75.9683 93.4135 72.0441 88.0515 72.0441C84.9683 72.0448 82.377 75.3402 82.377 75.3402Z" fill="#C5674F"/>
<path d="M65.7763 78.2586C65.7763 78.2586 75.9825 78.6271 77.1253 65.2267C77.1253 65.2267 91.5093 71.5592 91.1654 62.2814C91.1654 62.2814 104.96 70.9211 102.554 62.2324C102.554 62.2324 112.49 68.2217 113.757 64.9815C115.024 61.7414 109.722 46.4443 93.5216 43.7105C77.3214 40.9766 71.3328 48.1901 68.6327 50.9913C64.6564 55.1139 60.6127 63.1217 65.7763 78.2586Z" fill="#C5674F"/>
<g opacity="0.5">
<path d="M109.493 59.4625C108.158 60.97 103.652 58.4644 102.376 57.7872C100.702 56.8995 99.1805 55.7979 97.6792 54.6482C97.3115 54.3663 96.8121 54.976 97.1614 55.287C99.3345 57.2181 101.896 58.6973 104.622 59.7038C106.119 60.2561 108.738 61.4978 109.731 59.641C109.809 59.4954 109.61 59.3315 109.493 59.4625Z" fill="#C5674F"/>
<path d="M98.9795 60.2055C96.6609 63.5897 87.822 56.2889 85.8013 54.8933C85.3654 54.5923 84.9809 55.261 85.3754 55.5781C87.6534 57.4104 96.7252 64.7149 99.2622 60.361C99.3687 60.1787 99.0952 60.037 98.9795 60.2055Z" fill="#C5674F"/>
<path d="M86.7198 61.7222C85.0071 65.7804 76.5826 60.4299 74.6998 59.1538C74.3957 58.9477 74.0548 59.3782 74.3489 59.6111C76.3015 61.1546 86.1752 67.2634 86.9236 61.7566C86.9397 61.631 86.762 61.6226 86.7198 61.7222Z" fill="#C5674F"/>
<path d="M71.2981 60.8543C71.7194 63.8877 71.7217 67.2535 69.9109 69.8794C68.2594 72.2739 65.8067 72.8629 63.1111 73.2566C62.7021 73.3164 62.732 73.9859 63.154 73.9866C70.6738 74.0004 73.1365 67.278 71.6145 60.8099C71.5739 60.6353 71.2721 60.6705 71.2981 60.8543Z" fill="#C5674F"/>
</g>
<path d="M65.7768 77.8373C65.7768 77.8373 60.1452 73.8311 57.1218 80.0097C53.8854 86.6241 60.7105 92.2618 65.7768 89.7287V77.8373Z" fill="#EFC1AB"/>
<path d="M59.6225 89.3051C56.8381 90.3476 55.1797 93.7701 55.1797 96.2841C55.1797 100.306 58.4405 103.566 62.462 103.566C66.4843 103.566 69.7444 100.306 69.7444 96.2841C69.7444 92.2619 66.4835 89.0018 62.462 89.0018" stroke="white" stroke-width="1.1002" stroke-miterlimit="10" stroke-linecap="round" stroke-linejoin="round"/>
<path d="M57.9902 81.2207C61.0512 75.979 64.9562 80.4126 64.9562 80.4126C64.9562 80.4126 62.3878 79.4628 60.4529 81.6313" stroke="#C67F65" stroke-width="0.7954" stroke-miterlimit="10" stroke-linecap="round" stroke-linejoin="round"/>
<path d="M30.179 144.796C34.7865 145.563 47.4822 151.644 47.4822 151.644C47.4822 151.644 43.0241 171.029 45.0961 172.986C45.0961 172.986 52.6535 177.452 73.4243 175.538C73.4243 175.538 77.4918 168.924 79.0491 167.442C80.6063 165.959 82.5972 167.828 80.8109 170.889C79.0245 173.951 78.8805 175.831 79.2896 176.087C79.6986 176.342 83.2613 178.001 89.8949 176.15C93.1887 175.231 95.5778 173.235 97.6054 173.235C98.6571 173.235 100.251 174.785 97.7954 176.594C95.3396 178.402 91.2461 179.869 91.2461 179.869C91.2461 179.869 92.4288 182.404 90.3797 183.629C90.3797 183.629 92.8516 185.594 89.0293 187.178C89.0293 187.178 91.2369 188.916 88.192 190.041C82.6094 192.104 67.1883 192.326 55.1169 191.064C32.7742 188.729 24.9702 183.537 24.2808 176.56C23.593 169.582 30.179 144.796 30.179 144.796Z" fill="#EFC1AB"/>
<path d="M48.2399 154.696C48.2399 154.696 34.3738 149.006 28.1309 148.497C28.1309 148.497 33.6644 119.093 56.6958 115.997C68.1 114.464 57.6579 141.622 48.2399 154.696Z" fill="#D192C6"/>
<path d="M86.9691 183.542C87.3338 183.382 87.647 183.251 87.9511 183.186C88.2545 183.101 88.5479 183.07 88.842 183.031C89.4395 182.995 90.017 182.984 90.7892 183.227L90.8137 183.296C90.2017 183.528 89.5605 183.686 88.9071 183.758C88.2514 183.801 87.5896 183.774 86.9492 183.614L86.9691 183.542Z" fill="#C67F65"/>
<path d="M85.1759 187.496C85.9633 187.127 86.6206 187.025 87.2878 186.942C87.6225 186.923 87.9465 186.882 88.2935 186.892C88.6374 186.884 88.9975 186.907 89.4349 186.954L89.4701 187.018C88.8221 187.375 88.0982 187.579 87.3651 187.667C86.6282 187.73 85.8883 187.699 85.1621 187.567L85.1759 187.496Z" fill="#C67F65"/>
<path d="M68.2113 175.243C67.8636 181.889 67.7793 188.442 72.5025 193.685C72.9697 194.203 73.833 193.602 73.3918 193.027C69.2408 187.623 69.4484 181.664 68.8571 175.237C68.8188 174.824 68.2335 174.825 68.2113 175.243Z" fill="#2E3D49"/>
<path d="M64.9371 175.397C64.037 180.652 64.1918 191.25 69.71 194.115C70.0624 194.298 70.4952 193.852 70.2432 193.517C66.4193 188.437 66.4622 181.513 65.7115 175.466C65.6594 175.051 65.0167 174.93 64.9371 175.397Z" fill="#8B7DE6"/>
<path d="M71.1812 174.746C70.2812 180.001 70.4359 190.599 75.9542 193.464C76.3058 193.646 76.7393 193.201 76.4873 192.866C72.6634 187.785 72.7063 180.862 71.9556 174.815C71.9036 174.401 71.2609 174.279 71.1812 174.746Z" fill="#8B7DE6"/>
<path d="M160.317 20.2472C158.811 18.7926 157.126 17.4582 155.092 16.8684C154.675 16.7474 154.284 17.3027 154.698 17.58C156.384 18.7114 158.222 19.5984 159.909 20.7374C160.245 20.9657 160.615 20.5368 160.317 20.2472Z" fill="#527DB1"/>
<path d="M162.719 13.858C161.762 11.5952 160.725 9.45963 159.535 7.311C159.256 6.80544 158.48 7.14324 158.71 7.68633C159.685 9.98587 160.826 12.028 162.282 14.0549C162.43 14.2617 162.831 14.1238 162.719 13.858Z" fill="#527DB1"/>
<path d="M170.252 7.81194C170.89 5.47258 171 2.86282 171.387 0.462173C171.463 -0.0073845 170.717 -0.19582 170.571 0.264546C169.846 2.55029 169.19 5.37453 169.623 7.78054C169.687 8.13749 170.154 8.16813 170.252 7.81194Z" fill="#527DB1"/>
<path d="M179.726 11.1134C181.88 9.37231 183.938 7.55612 186.264 6.03331C186.785 5.69244 186.414 4.83989 185.824 5.13786C183.301 6.41325 180.732 8.07547 178.923 10.293C178.458 10.8637 179.145 11.5838 179.726 11.1134Z" fill="#527DB1"/>
<path d="M182.285 19.917C184.671 18.3843 187.523 17.8128 190.234 17.1242C190.773 16.9871 190.665 16.1828 190.097 16.2586C187.069 16.6623 184.202 17.3142 181.781 19.2759C181.366 19.6122 181.85 20.1966 182.285 19.917Z" fill="#527DB1"/>
</svg>
