<svg width="344" height="344" viewBox="0 0 344 344" fill="none" xmlns="http://www.w3.org/2000/svg">
<path opacity="0.5" d="M198.168 262.771C198.168 262.771 11.6488 278.471 14.0225 163.237C16.3961 48.0028 115.978 85.5473 142.764 53.4038C197.393 -12.1498 295.618 -28.6526 331.842 69.0072C368.065 166.667 286.239 256.718 198.168 262.771Z" fill="#F2ECE3" fill-opacity="0.6"/>
<path d="M64.6133 306.421L65.1568 343.4H76.0346L76.5789 338.685L115.739 340.174L109.756 308.903L64.6133 306.421Z" fill="#211C23"/>
<path d="M80.001 297.983C80.001 297.983 69.0807 333.721 111.769 335.21L110.775 343.4H187.216C187.216 343.4 188.208 307.91 161.901 303.443C135.593 298.976 80.001 297.983 80.001 297.983Z" fill="#597D9B"/>
<path d="M281.526 306.422L280.982 343.401H270.104L269.561 338.686L230.4 340.175L236.383 308.904L281.526 306.422Z" fill="#211C23"/>
<path d="M250.441 269.007C250.441 269.007 288.411 319.262 253.232 343.4H139.564C139.564 343.4 141.211 324.521 151.974 308.407C156.069 302.275 188.266 283.859 195.654 279.617C220.751 265.21 238.347 268.122 250.441 269.007Z" fill="#EA4949"/>
<path d="M31.8527 278.872H19.4434V343.4H31.8527V278.872Z" fill="#211C23"/>
<path d="M16.9641 307.414H4.55469V343.4H16.9641V307.414Z" fill="#352C38"/>
<path d="M16.9641 307.414H4.55469V321.808H16.9641V307.414Z" fill="#211C23"/>
<path d="M318.753 278.872H306.344V343.4H318.753V278.872Z" fill="#211C23"/>
<path d="M333.644 307.414H321.234V343.4H333.644V307.414Z" fill="#352C38"/>
<path d="M333.644 307.414H321.234V321.808H333.644V307.414Z" fill="#211C23"/>
<path d="M343.915 296.932H0L18.1014 269.926L327.021 266.069L343.915 296.932Z" fill="#FFA65B"/>
<path d="M343.245 296.932H0V313.607H343.245V296.932Z" fill="#E57848"/>
<path opacity="0.7" d="M280.122 277.435C280.122 284.407 232.618 290.061 174.018 290.061C115.417 290.061 66.9414 290.235 66.9414 283.262C66.9414 276.29 115.417 264.809 174.018 264.809C232.618 264.809 280.122 270.461 280.122 277.435Z" fill="#E57848"/>
<path d="M210.744 138.024C210.744 138.024 191.261 142.52 187.764 129.281C184.267 116.043 196.506 116.043 196.506 116.043C196.506 116.043 185.515 121.288 182.518 118.041C179.52 114.794 192.01 112.296 192.01 112.296C192.01 112.296 180.02 114.294 177.772 106.801C175.524 99.3068 180.77 92.8121 190.511 92.3133C200.253 91.8137 182.269 94.8112 180.02 89.5659C177.772 84.3206 188.263 87.5675 188.263 87.5675C188.263 87.5675 176.523 86.3182 178.771 71.0818C181.018 55.8447 198.005 64.3377 198.005 64.3377C198.005 64.3377 188.512 60.341 191.01 56.0948C193.508 51.8487 204.249 59.3418 204.249 59.3418C204.249 59.3418 194.257 50.0997 201.502 45.1038C208.745 40.1079 213.741 53.5969 213.741 53.5969C213.741 53.5969 209.745 39.1095 220.985 35.6124C232.225 32.1152 236.971 49.6001 236.971 49.6001C236.971 49.6001 235.223 37.8601 237.721 37.8601C240.219 37.8601 242.717 48.1014 242.717 48.1014C242.717 48.1014 244.965 37.1104 247.213 37.1104C249.461 37.1104 246.963 49.35 246.963 49.35C246.963 49.35 248.462 31.1153 261.701 35.6116C274.939 40.1079 265.198 55.8447 265.198 55.8447C265.198 55.8447 268.944 48.3508 273.191 48.8504C277.437 49.35 274.19 60.5904 274.19 60.5904C274.19 60.5904 283.432 48.6002 294.673 53.8463C305.913 59.0916 289.677 73.5797 289.677 73.5797C289.677 73.5797 297.171 66.8356 300.418 71.8315C303.665 76.8275 293.674 82.3229 293.674 82.3229C293.674 82.3229 306.163 78.3262 307.412 88.5675C308.661 98.8087 292.424 101.307 292.424 101.307C292.424 101.307 302.666 100.057 302.916 103.305C303.165 106.552 291.176 104.554 291.176 104.554C291.176 104.554 303.915 105.554 302.416 110.299C300.917 115.045 290.676 108.8 290.676 108.8C290.676 108.8 304.415 114.046 296.172 125.286C287.929 136.527 279.686 127.534 279.686 127.534C279.686 127.534 292.675 133.279 285.431 138.774C278.187 144.27 273.191 134.029 273.191 134.029C273.191 134.029 281.185 147.017 275.939 146.019C270.693 145.02 265.947 138.525 265.947 138.525C265.947 138.525 271.192 150.765 262.45 151.264C253.707 151.764 250.21 142.272 250.21 142.272L210.744 138.024Z" fill="#352C38"/>
<path d="M229.477 141.938C229.477 141.938 228.991 160.876 222.678 160.876C216.365 160.876 202.768 151.65 200.826 162.819C198.883 173.988 216.851 185.157 237.246 183.7C257.642 182.243 268.325 177.387 268.811 168.646C269.296 159.905 248.901 169.617 250.358 156.506C251.815 143.394 257.156 126.399 257.156 126.399L229.477 141.938Z" fill="#965450"/>
<path d="M237.728 151.626C245.87 146.44 250.181 138.554 251.595 129.52L229.475 141.939C229.475 141.939 229.249 150.65 227.135 156.256C230.878 155.194 234.466 153.704 237.728 151.626Z" fill="#76413B"/>
<path d="M236.273 76.3812C236.273 76.3812 210.051 72.9816 204.224 114.744C198.396 156.506 249.385 157.477 262.496 117.172C275.607 76.8667 236.273 76.3812 236.273 76.3812Z" fill="#965450"/>
<path d="M257.156 120.573C257.156 120.573 266.868 105.52 273.181 116.688C279.494 127.857 247.444 141.454 257.156 120.573Z" fill="#965450"/>
<path d="M226.563 74.1963C226.563 74.1963 222.678 90.4639 228.263 92.1637C233.848 93.8635 235.061 89.493 235.061 89.493C235.061 89.493 234.819 100.419 241.617 100.419C248.416 100.419 248.173 92.4064 248.173 92.4064C248.173 92.4064 244.531 105.032 259.585 105.032C259.585 105.032 250.844 121.785 254.486 123.485C258.128 125.185 263.47 107.703 270.511 113.531C277.552 119.358 291.877 93.1353 271.725 73.7108C251.573 54.2864 231.42 61.0856 226.563 74.1963Z" fill="#352C38"/>
<path d="M260.312 128.342C260.981 128.118 261.637 127.867 262.256 127.567C262.566 127.421 262.866 127.26 263.136 127.074C263.27 126.981 263.396 126.883 263.504 126.778C263.613 126.676 263.711 126.568 263.763 126.463C263.882 126.246 263.833 126.129 263.711 125.935C263.572 125.747 263.323 125.558 263.069 125.386C262.535 125.048 261.91 124.788 261.283 124.541L260.765 124.337L260.936 123.779C261.197 122.931 261.493 122.132 261.828 121.326C262.175 120.53 262.566 119.749 263.019 118.99C263.468 118.229 263.998 117.499 264.67 116.846C265.007 116.522 265.375 116.211 265.818 115.966C266.253 115.718 266.771 115.547 267.315 115.52C267.45 115.507 267.585 115.515 267.721 115.529L267.923 115.547L267.998 115.561L268.007 115.564L268.027 115.569L268.065 115.579L268.141 115.599C268.359 115.669 268.522 115.674 268.783 115.795C269.31 116.007 269.727 116.298 270.067 116.654C270.752 117.371 271.152 118.27 271.296 119.177C271.373 119.63 271.394 120.089 271.356 120.541C271.32 120.992 271.226 121.44 271.062 121.86C270.988 122.073 270.9 122.279 270.773 122.469C270.671 122.669 270.525 122.843 270.376 123.01C270.09 123.355 269.686 123.573 269.295 123.727C269.46 123.587 269.642 123.481 269.776 123.323C269.9 123.154 270.053 123.022 270.138 122.832C270.24 122.657 270.334 122.483 270.387 122.286C270.46 122.101 270.512 121.909 270.543 121.711C270.626 121.324 270.633 120.921 270.607 120.53C270.589 120.138 270.518 119.748 270.403 119.379C270.29 119.011 270.138 118.657 269.946 118.339C269.759 118.018 269.521 117.736 269.254 117.508C268.984 117.279 268.675 117.114 268.416 117.013C268.365 116.975 268.256 116.955 268.15 116.935L267.839 116.872L267.762 116.856L267.723 116.848L267.704 116.844L267.694 116.842L267.689 116.841C267.673 116.838 267.807 116.863 267.748 116.852L267.634 116.852C267.558 116.848 267.483 116.846 267.408 116.861C266.811 116.93 266.196 117.319 265.668 117.862C265.134 118.398 264.679 119.06 264.246 119.739C263.816 120.423 263.441 121.154 263.089 121.897C262.73 122.633 262.395 123.406 262.115 124.16L261.769 123.399C262.423 123.715 263.068 124.064 263.681 124.534C263.982 124.783 264.29 125.045 264.513 125.461C264.615 125.674 264.711 125.923 264.687 126.201C264.679 126.475 264.56 126.726 264.42 126.907C264.281 127.097 264.117 127.228 263.953 127.345C263.787 127.459 263.618 127.549 263.447 127.629C263.106 127.787 262.76 127.902 262.414 128C261.72 128.185 261.018 128.296 260.312 128.342Z" fill="#512520"/>
<path d="M223.406 107.217C223.358 107.865 223.257 108.515 223.094 109.145C222.949 109.783 222.742 110.402 222.523 111.021C222.417 111.332 222.272 111.626 222.148 111.931C222.026 112.237 221.867 112.525 221.727 112.824C221.582 113.121 221.413 113.404 221.243 113.688C221.074 113.972 220.912 114.261 220.719 114.532C220.53 114.805 220.337 115.074 220.136 115.34L219.498 116.109C219.294 116.374 219.043 116.598 218.807 116.834C218.567 117.068 218.335 117.308 218.067 117.513L217.29 118.15C217.012 118.338 216.725 118.514 216.443 118.695L216.02 118.964L215.57 119.189L214.664 119.618L214.89 118.812C215.295 119.526 215.674 120.257 216.049 120.99C216.413 121.73 216.777 122.471 217.092 123.243C216.516 122.64 215.99 122.004 215.464 121.368C214.949 120.725 214.438 120.08 213.952 119.418L213.623 118.968L214.178 118.612L214.954 118.114L215.346 117.878L215.711 117.6L216.438 117.045L217.129 116.446C217.367 116.255 217.573 116.028 217.787 115.809C217.991 115.582 218.229 115.388 218.422 115.149L219.029 114.457L219.595 113.727C219.795 113.491 219.967 113.234 220.147 112.981C220.328 112.73 220.506 112.476 220.667 112.209C220.835 111.947 221.023 111.696 221.176 111.423L221.655 110.615C221.972 110.071 222.269 109.513 222.563 108.949C222.853 108.382 223.138 107.809 223.406 107.217Z" fill="#512520"/>
<path d="M212.479 125.915L238.215 130.042C238.215 130.042 221.462 137.326 212.479 125.915Z" fill="white"/>
<path d="M235.465 114.373C235.178 116.439 235.707 118.219 236.646 118.349C237.585 118.48 238.578 116.911 238.865 114.845C239.152 112.779 238.623 110.999 237.683 110.869C236.745 110.739 235.751 112.308 235.465 114.373Z" fill="#211C23"/>
<path d="M209.808 109.654C209.522 111.72 210.05 113.5 210.989 113.63C211.928 113.76 212.922 112.191 213.208 110.125C213.495 108.059 212.966 106.28 212.027 106.149C211.089 106.02 210.095 107.589 209.808 109.654Z" fill="#211C23"/>
<path d="M231.904 103.577C231.904 103.577 232.083 103.202 232.504 102.619C232.927 102.039 233.59 101.24 234.549 100.433C235.505 99.6263 236.769 98.8102 238.322 98.2675C239.1 98.0128 239.939 97.7895 240.825 97.7306C241.706 97.654 242.625 97.689 243.518 97.8684C244.414 98.0329 245.271 98.3509 246.066 98.7328C246.848 99.1356 247.564 99.6143 248.185 100.14C248.814 100.66 249.336 101.234 249.81 101.784C250.248 102.363 250.659 102.903 250.962 103.448C251.115 103.719 251.275 103.968 251.401 104.22C251.519 104.475 251.631 104.718 251.737 104.946C251.959 105.391 252.106 105.802 252.216 106.144C252.447 106.822 252.544 107.218 252.544 107.218C252.544 107.218 252.225 106.947 251.727 106.455C251.487 106.204 251.172 105.917 250.825 105.589C250.483 105.256 250.091 104.892 249.656 104.518C249.243 104.121 248.751 103.752 248.266 103.342C247.754 102.964 247.226 102.57 246.658 102.224C246.382 102.033 246.076 101.9 245.787 101.727C245.493 101.564 245.177 101.452 244.879 101.297C244.253 101.065 243.623 100.829 242.965 100.727C242.315 100.579 241.647 100.549 240.983 100.548C240.317 100.545 239.654 100.646 239.004 100.751C237.707 101 236.481 101.424 235.433 101.861C234.377 102.289 233.506 102.738 232.883 103.053C232.26 103.387 231.904 103.577 231.904 103.577Z" fill="#211C23"/>
<path d="M222.435 102.363C222.435 102.363 222.218 102.157 221.84 101.795C221.466 101.443 220.942 100.952 220.33 100.41C219.709 99.8764 219 99.2816 218.219 98.7909C217.832 98.537 217.424 98.3226 217.015 98.132C216.604 97.9369 216.18 97.8066 215.756 97.6979C215.33 97.5974 214.896 97.5401 214.456 97.5259C214.238 97.5088 214.015 97.5415 213.793 97.5319C213.567 97.5542 213.344 97.5765 213.125 97.5981C212.903 97.6383 212.684 97.683 212.461 97.7143C212.241 97.7671 212.027 97.8252 211.81 97.8699C211.388 97.998 210.965 98.0985 210.584 98.2444C210.193 98.3672 209.832 98.4968 209.51 98.6234C209.184 98.7395 208.886 98.8371 208.651 98.9361C208.172 99.1207 207.867 99.2064 207.867 99.2064C207.867 99.2064 208 98.9316 208.288 98.4841C208.429 98.2571 208.611 97.9905 208.851 97.7098C208.972 97.5683 209.1 97.4172 209.235 97.2586C209.385 97.1127 209.544 96.96 209.708 96.8C210.038 96.4746 210.452 96.1813 210.9 95.873C211.134 95.7308 211.382 95.5968 211.635 95.4538C211.899 95.3258 212.181 95.2193 212.466 95.0994C213.054 94.9021 213.694 94.7368 214.374 94.7004C215.051 94.6408 215.754 94.7182 216.435 94.8649C217.103 95.0481 217.764 95.2826 218.331 95.6348C218.907 95.9683 219.42 96.3652 219.849 96.7948C220.727 97.6428 221.3 98.5899 221.69 99.4208C222.457 101.105 222.435 102.363 222.435 102.363Z" fill="#211C23"/>
<path d="M180.308 186.492L166.833 221.82L131.141 247.314L144.616 261.154C144.616 261.154 184.315 245.857 187.592 240.031C190.87 234.203 203.253 200.697 203.253 200.697L180.308 186.492Z" fill="#6B3B37"/>
<path d="M214.906 158.935C214.906 158.935 203.494 151.287 191.476 161.484C179.457 171.682 169.623 193.898 169.623 193.898C169.623 193.898 185.648 205.552 200.217 204.096C214.784 202.639 214.906 158.935 214.906 158.935Z" fill="#FC6A5A"/>
<path d="M178.931 176.769C173.314 185.569 169.623 193.899 169.623 193.899C169.623 193.899 185.648 205.553 200.217 204.097C203.684 203.75 206.331 201.008 208.355 197.033C196.965 192.96 186.745 186.121 178.931 176.769Z" fill="#EA4949"/>
<path d="M214.905 158.935C214.905 158.935 215.391 175.931 232.873 176.902C250.355 177.873 259.096 164.276 259.096 164.276C259.096 164.276 283.619 163.426 287.989 176.052C292.36 188.678 258.61 267.71 258.61 267.71L195.482 257.998C195.482 257.998 185.77 206.524 190.14 191.47C194.511 176.416 194.025 160.391 194.025 160.391C194.025 160.391 204.708 152.136 214.905 158.935Z" fill="#FC6A5A"/>
<path d="M287.989 176.053C286.438 171.573 282.347 168.795 277.718 167.069C268.159 191.94 255.489 217.169 235.242 234.762C224.784 243.85 212.288 249.204 198.74 251.768C197.33 252.035 195.917 252.276 194.502 252.503C195.09 255.929 195.48 257.999 195.48 257.999L258.609 267.711C258.609 267.711 292.359 188.679 287.989 176.053Z" fill="#EA4949"/>
<path d="M294.545 206.281C294.545 206.281 307.292 252.535 305.835 260.911C304.378 269.288 233.723 279.486 227.531 274.751L226.803 264.189L276.335 249.621C276.335 249.621 258.853 208.83 259.217 202.275C259.581 195.719 294.545 206.281 294.545 206.281Z" fill="#965450"/>
<path d="M244.242 259.061L226.803 264.19L227.531 274.752C228.456 275.46 230.827 275.831 234.183 275.928C237.597 270.333 241.316 264.904 244.242 259.061Z" fill="#76413B"/>
<path d="M296.549 213.773C295.358 209.231 294.545 206.281 294.545 206.281C294.545 206.281 259.581 195.719 259.217 202.275C259.033 205.585 263.399 217.625 267.768 228.733C278.509 225.826 288.679 221.449 296.549 213.773Z" fill="#76413B"/>
<path d="M258.491 220.485C258.491 220.485 287.263 220.121 301.103 207.01C301.103 207.01 294.546 166.306 272.695 166.583C243.922 166.947 258.491 220.485 258.491 220.485Z" fill="#FC6A5A"/>
<path d="M85.2733 184.346C85.2733 184.346 96.2904 208.934 91.5163 208.386C86.7415 207.838 68.3073 205.256 73.8251 225.457C79.3437 245.658 121.985 241.858 121.985 241.858C121.985 241.858 145.16 208.179 132.816 205.001C120.471 201.823 114.643 209.334 112.118 205.419C109.593 201.506 107.457 189.924 107.457 189.924L85.2733 184.346Z" fill="#965450"/>
<path d="M102.236 198.512C104.723 199.341 107.357 200.031 110.044 200.49C108.526 195.714 107.456 189.925 107.456 189.925L85.2734 184.346C85.2734 184.346 85.6628 185.215 86.2637 186.623C89.6201 192.626 96.1691 196.492 102.236 198.512Z" fill="#76413B"/>
<path d="M106.302 132.993C106.302 132.993 81.1405 115.449 97.1721 95.2517C113.204 75.0544 127.524 102.143 115.731 107.252C103.937 112.361 119.491 86.3372 130.198 95.3827C140.904 104.428 131.895 117.704 123.286 117.232C114.678 116.76 137.702 108.725 137.317 116.541C136.932 124.357 123.252 121.88 123.252 121.88C123.252 121.88 138.567 121.171 134.116 128.056C129.664 134.94 112.008 137.956 106.302 132.993Z" fill="#352C38"/>
<path d="M110.612 118.784C105.14 115.466 98.5757 112.419 92.0215 111.93C93.7176 124.214 106.303 132.993 106.303 132.993C109.46 135.739 116.276 136.038 122.49 134.595C120.481 128.132 116.637 122.436 110.612 118.784Z" fill="#211C23"/>
<path d="M97.5693 126L97.3027 126.33L116.823 135.947C111.721 120.965 101.541 123.511 97.9855 124.944C97.9639 125.313 97.8187 125.692 97.5693 126Z" fill="#FFA65B"/>
<path d="M67.8569 150.813C67.8569 150.813 63.5631 120.441 38.3036 125.627C13.0441 130.812 30.7494 155.82 40.6326 147.604C50.5157 139.388 20.2722 141.518 23.5094 155.154C26.7467 168.79 42.6607 166.746 46.1258 158.851C49.591 150.956 32.0263 167.872 39.1747 171.058C46.3231 174.243 50.2879 160.919 50.2879 160.919C50.2879 160.919 42.7404 174.265 50.8939 173.4C59.0467 172.538 69.7094 158.145 67.8569 150.813Z" fill="#352C38"/>
<path d="M66.1334 141.317C66.1334 141.317 50.3579 154.818 64.9928 164.379L66.1334 141.317Z" fill="#FFA65B"/>
<path d="M136.78 151.753L126.707 154.792" stroke="#FFA65B" stroke-width="1.4363" stroke-miterlimit="10"/>
<path d="M78.3955 149.52C78.3955 149.52 81.7341 133.143 104.259 133.306C126.784 133.468 144.212 169.331 131.095 186.052C117.977 202.773 91.4221 199.025 81.44 180.335C73.7525 165.942 78.3955 149.52 78.3955 149.52Z" fill="#965450"/>
<path d="M80.4085 171.169C80.4085 171.169 70.9036 166.031 69.442 174.146C67.9805 182.261 77.1458 192.997 84.9435 185.206C92.7404 177.415 80.4085 171.169 80.4085 171.169Z" fill="#965450"/>
<path d="M74.0542 182.237C73.466 181.555 72.9373 180.815 72.4839 180.025C72.0238 179.238 71.6359 178.399 71.379 177.481C71.2569 177.02 71.1795 176.536 71.1817 176.025C71.1884 175.519 71.2748 174.964 71.5607 174.464C71.8592 173.957 72.259 173.581 72.816 173.301C72.9321 173.254 72.9865 173.209 73.1533 173.161C73.3104 173.118 73.489 173.062 73.635 173.051C73.9313 173.016 74.2232 173.027 74.5024 173.074C75.0593 173.176 75.5343 173.405 75.9647 173.66C76.395 173.916 76.7852 174.209 77.1433 174.522C77.8685 175.145 78.4678 175.857 79.0478 176.571C79.6234 177.288 80.1319 178.049 80.6158 178.818C81.1065 179.587 81.5391 180.375 81.9531 181.2L82.1429 181.578L81.8496 181.831C81.4944 182.138 81.1266 182.482 80.8035 182.836C80.4848 183.188 80.1833 183.588 80.0627 183.959C80.0187 184.143 80.0105 184.277 80.1341 184.395C80.2562 184.517 80.4789 184.608 80.7097 184.663C81.1817 184.764 81.6984 184.78 82.2099 184.779C81.7141 184.908 81.2085 185.024 80.6672 185.015C80.3977 185.003 80.1051 184.976 79.8199 184.787C79.6792 184.694 79.5526 184.539 79.4931 184.364C79.4231 184.187 79.429 184.013 79.4387 183.852C79.5243 183.217 79.8371 182.759 80.1297 182.309C80.4372 181.863 80.7633 181.459 81.1482 181.067L81.0447 181.698C80.5838 180.964 80.0716 180.235 79.5698 179.518C79.0627 178.801 78.5185 178.116 77.9749 177.44C77.4225 176.775 76.8335 176.141 76.2104 175.589C75.5976 175.039 74.9022 174.556 74.2448 174.416C74.0839 174.385 73.9283 174.366 73.7787 174.374C73.7012 174.374 73.6662 174.394 73.6044 174.393C73.5523 174.389 73.4101 174.461 73.3178 174.492C73.0721 174.598 72.7653 174.826 72.603 175.087C72.23 175.622 72.1906 176.468 72.3164 177.287C72.4281 178.12 72.7006 178.956 72.9976 179.784C73.3104 180.607 73.6573 181.43 74.0542 182.237Z" fill="#512520"/>
<path d="M70.4295 171.689C70.4295 171.689 77.8147 166.964 80.6551 173.473C80.6551 173.473 83.0287 178.957 84.4277 178.629C87.8988 177.817 89.6299 173.597 84.3451 167.705C84.3451 167.705 90.5271 163.466 86.135 152.461C86.135 152.461 93.3415 132.52 120.466 139.861C111.651 127.711 85.9146 117.098 68.5577 137.117C54.1842 153.695 70.4295 171.689 70.4295 171.689Z" fill="#352C38"/>
<path d="M105.137 181.272C105.137 181.272 106.743 181.352 109.106 181.304C110.288 181.272 111.66 181.202 113.114 181.054C113.84 180.978 114.587 180.869 115.339 180.747C116.094 180.634 116.849 180.466 117.597 180.281C118.346 180.098 119.087 179.889 119.798 179.632C120.505 179.368 121.209 179.12 121.85 178.796C122.179 178.651 122.486 178.477 122.792 178.315C123.104 178.162 123.391 177.983 123.672 177.809C123.96 177.644 124.219 177.454 124.475 177.276C124.738 177.107 124.982 176.928 125.205 176.743C125.67 176.392 126.058 176.025 126.419 175.71C126.757 175.37 127.052 175.073 127.295 174.828C127.749 174.306 128.024 174.007 128.024 174.007C128.024 174.007 127.853 174.366 127.524 174.995C127.341 175.295 127.115 175.664 126.829 176.069C126.525 176.458 126.193 176.916 125.755 177.348C125.549 177.577 125.321 177.802 125.071 178.021C124.827 178.247 124.566 178.472 124.281 178.681C123.725 179.118 123.107 179.546 122.426 179.911C122.091 180.106 121.741 180.282 121.381 180.45C121.026 180.633 120.651 180.776 120.273 180.923C119.517 181.214 118.732 181.456 117.939 181.662C117.14 181.843 116.338 182.003 115.543 182.106C114.749 182.228 113.96 182.261 113.2 182.302C111.679 182.353 110.263 182.269 109.063 182.117C106.659 181.824 105.137 181.272 105.137 181.272Z" fill="#512520"/>
<path d="M126.084 157.805C126.678 159.758 127.88 161.122 128.768 160.851C129.655 160.581 129.893 158.779 129.298 156.826C128.703 154.874 127.501 153.51 126.614 153.78C125.726 154.051 125.489 155.853 126.084 157.805Z" fill="#211C23"/>
<path d="M102.385 165.873C102.979 167.825 104.181 169.189 105.069 168.919C105.956 168.649 106.194 166.846 105.599 164.894C105.004 162.942 103.802 161.578 102.915 161.848C102.026 162.118 101.79 163.92 102.385 165.873Z" fill="#211C23"/>
<path d="M116.487 158.367C118.601 164.943 124.053 169.071 128.667 167.589C133.279 166.106 135.306 159.574 133.192 152.998C131.078 146.422 125.626 142.294 121.013 143.776C116.4 145.259 114.374 151.791 116.487 158.367Z" stroke="#FFA65B" stroke-width="1.4363" stroke-miterlimit="10"/>
<path d="M114.928 160.341C114.928 160.341 117.208 164.939 119.093 165.814C119.093 165.814 130.667 161.72 119.984 172.531" fill="#965450"/>
<path d="M114.928 160.341C115.63 161.284 116.325 162.213 117.044 163.097C117.224 163.318 117.415 163.529 117.599 163.739C117.785 163.949 117.973 164.156 118.169 164.343C118.362 164.54 118.569 164.704 118.768 164.87L119.07 165.083L119.362 165.235L118.88 165.212C119.464 164.991 120.026 164.801 120.624 164.661C121.218 164.519 121.825 164.401 122.471 164.353C122.798 164.34 123.128 164.339 123.492 164.4C123.842 164.457 124.252 164.554 124.641 164.888C125.042 165.22 125.216 165.79 125.185 166.213C125.145 166.625 125.033 166.974 124.895 167.278C124.76 167.589 124.597 167.862 124.433 168.131C124.264 168.394 124.075 168.638 123.889 168.88C123.509 169.355 123.112 169.803 122.688 170.224C122.268 170.646 121.833 171.05 121.38 171.431C120.937 171.823 120.458 172.176 119.983 172.53C120.656 171.551 121.364 170.618 122.029 169.672C122.352 169.192 122.681 168.723 122.975 168.242C123.12 168.002 123.25 167.755 123.382 167.516C123.504 167.275 123.623 167.036 123.703 166.801C123.792 166.566 123.827 166.345 123.834 166.173C123.809 166.014 123.795 165.981 123.738 165.934C123.684 165.879 123.503 165.809 123.28 165.787C123.065 165.753 122.807 165.762 122.551 165.774C122.029 165.798 121.48 165.887 120.935 166.004C120.393 166.128 119.829 166.258 119.306 166.414L119.009 166.502L118.824 166.391C118.669 166.298 118.51 166.205 118.365 166.105L117.979 165.785C117.752 165.557 117.537 165.322 117.349 165.08C116.969 164.596 116.631 164.098 116.345 163.576C115.755 162.546 115.281 161.465 114.928 160.341Z" fill="#512520"/>
<path d="M93.06 167.3C95.1738 173.876 100.626 178.005 105.239 176.522C109.852 175.04 111.878 168.507 109.765 161.931C107.651 155.356 102.199 151.227 97.5854 152.71C92.9722 154.192 90.9463 160.725 93.06 167.3Z" stroke="#FFA65B" stroke-width="1.4363" stroke-miterlimit="10"/>
<path d="M110.145 164.253C110.145 164.253 113.005 159.111 118.166 162.148" stroke="#FFA65B" stroke-width="1.4363" stroke-miterlimit="10"/>
<path d="M93.5241 169.778L80.6523 173.473" stroke="#FFA65B" stroke-width="1.4363" stroke-miterlimit="10"/>
<path d="M156.877 233.233L163.069 256.178C163.069 256.178 189.292 267.104 193.662 276.937C198.033 286.77 143.038 269.653 143.038 269.653L141.945 238.332L156.877 233.233Z" fill="#76413B"/>
<path d="M122.642 203.733C122.642 203.733 136.781 198.325 148.136 211.745C156.149 221.215 160.519 235.418 160.519 235.418C160.519 235.418 158.334 242.338 138.302 245.252C118.271 248.165 122.642 203.733 122.642 203.733Z" fill="#6F96BD"/>
<path d="M151.251 215.902C148.187 221.214 142.989 225.764 138.499 229.07C134.354 232.124 129.938 234.205 125.373 235.862C127.698 241.969 131.656 246.219 138.303 245.251C158.334 242.338 160.519 235.418 160.519 235.418C160.519 235.418 157.272 224.877 151.251 215.902Z" fill="#597D9B"/>
<path d="M88.0403 208.104C88.0403 208.104 98.2383 224.493 110.985 221.943C123.732 219.394 122.639 203.733 122.639 203.733C122.639 203.733 133.93 200.091 140.121 211.381C146.313 222.671 148.862 266.74 148.862 266.74L90.5896 274.753C90.5896 274.753 66.916 232.141 71.2864 219.03C75.6569 205.918 88.0403 208.104 88.0403 208.104Z" fill="#6F96BD"/>
<path d="M111.657 244.017C97.5198 237.547 82.6058 227.521 73.8291 213.959C72.8388 215.324 71.9655 216.992 71.2864 219.03C66.916 232.141 90.5896 274.753 90.5896 274.753L148.862 266.74C148.862 266.74 148.573 261.75 147.955 254.702C135.517 252.72 123.347 249.368 111.657 244.017Z" fill="#597D9B"/>
<path d="M66.1895 232.869C66.1895 232.869 66.9176 281.308 75.2945 285.314C83.6714 289.32 140.123 275.116 140.123 275.116C140.123 275.116 165.617 293.69 147.407 275.48C147.407 275.48 171.445 291.505 151.049 273.295C151.049 273.295 176.179 290.777 153.235 271.109C153.235 271.109 179.457 284.221 151.777 267.832C151.777 267.832 136.117 255.449 94.9618 262.369C94.9618 262.369 94.2336 229.59 90.2272 226.313C86.2208 223.036 66.1895 232.869 66.1895 232.869Z" fill="#965450"/>
<path d="M76.5915 252.91C83.017 253.191 88.8885 252.089 94.3989 249.825C93.7869 240.194 92.5658 228.227 90.2272 226.313C86.2208 223.035 66.1895 232.869 66.1895 232.869C66.1895 232.869 66.3242 241.804 67.141 252.314C70.5093 252.866 74.1427 252.803 76.5915 252.91Z" fill="#76413B"/>
<path d="M63.276 244.887C63.276 244.887 60.7266 204.096 88.0419 208.103L96.0547 246.344C96.0547 246.344 78.2079 255.813 63.276 244.887Z" fill="#6F96BD"/>
<path d="M160.519 279.123C160.519 279.123 178.729 220.122 180.914 220.122C183.099 220.122 249.749 223.4 250.841 224.856C251.933 226.313 228.261 285.314 226.075 285.314C223.89 285.314 108.438 284.586 108.438 284.586L108.802 280.216L160.519 279.123Z" fill="#CEC2C3"/>
<path d="M184.594 220.269C182.509 220.174 181.191 220.121 180.914 220.121C178.729 220.121 160.519 279.122 160.519 279.122L108.802 280.214L108.438 284.585C108.438 284.585 135.259 284.754 163.291 284.929C168.776 266.492 180.947 230.882 184.594 220.269Z" fill="#9CA0AF"/>
<path opacity="0.7" d="M320.427 284.719C320.427 287.669 311.731 290.061 301.003 290.061C290.275 290.061 281.578 287.669 281.578 284.719C281.578 281.769 290.274 279.378 301.003 279.378C311.731 279.378 320.427 281.769 320.427 284.719Z" fill="#E57848"/>
<path d="M309.794 277.866L309.307 275.361C312.14 274.81 314.351 273.422 315.535 271.452C316.518 269.815 316.709 267.876 316.088 265.843C314.875 261.871 309.957 262.599 309.75 262.633L309.35 260.113C311.874 259.712 317.045 260.239 318.529 265.097C319.366 267.84 319.088 270.492 317.722 272.766C316.16 275.363 313.345 277.175 309.794 277.866Z" fill="#6F96BD"/>
<path d="M312.479 274.252C311.545 274.752 310.484 275.133 309.307 275.361L309.794 277.867C310.824 277.666 311.782 277.362 312.675 276.981C312.598 276.073 312.535 275.163 312.479 274.252Z" fill="#5F83A0"/>
<path d="M312.178 262.67C312.177 261.814 312.174 260.957 312.175 260.1C311.109 259.96 310.108 259.993 309.35 260.114L309.75 262.635C309.844 262.618 310.922 262.463 312.178 262.67Z" fill="#5F83A0"/>
<path d="M284.918 281.742C284.918 283.939 290.79 285.719 298.034 285.719C305.278 285.719 311.15 283.938 311.15 281.742C311.15 281.12 311.525 255.986 311.145 255.556C308.947 253.07 305.158 257.213 298.034 257.213C291.414 257.213 294.191 255.059 285.045 255.666C284.961 257.701 284.918 279.231 284.918 281.742Z" fill="#6F96BD"/>
<path d="M298.035 259.006C290.304 259.006 285.557 257.062 285.557 255.667C285.557 254.273 290.304 252.328 298.035 252.328C305.765 252.328 310.512 254.273 310.512 255.667C310.512 257.062 305.765 259.006 298.035 259.006Z" fill="#53718C"/>
<path d="M298.034 252.966C305.513 252.966 309.723 254.863 309.874 255.661C309.723 256.47 305.513 258.367 298.034 258.367C290.555 258.367 286.345 256.47 286.194 255.672C286.345 254.863 290.555 252.966 298.034 252.966ZM298.034 251.689C290.79 251.689 284.918 253.47 284.918 255.666C284.918 257.863 290.79 259.644 298.034 259.644C305.278 259.644 311.15 257.863 311.15 255.666C311.15 253.47 305.278 251.689 298.034 251.689Z" fill="#80B0D8"/>
<path opacity="0.7" d="M54.9234 283.718C54.9234 285.712 47.7347 287.33 38.8679 287.33C30.0011 287.33 22.8125 285.712 22.8125 283.718C22.8125 281.723 30.0004 280.106 38.8679 280.106C47.7347 280.106 54.9234 281.723 54.9234 283.718Z" fill="#E57848"/>
<path d="M19.0502 253.79C19.0502 253.79 17.4733 285.871 36.9246 285.871C56.3759 285.871 54.7989 253.79 54.7989 253.79H19.0502Z" fill="#FC6A5A"/>
<path d="M36.8948 257.583C46.3011 257.583 53.9263 255.911 53.9263 253.849C53.9263 251.788 46.3011 250.116 36.8948 250.116C27.4886 250.116 19.8633 251.788 19.8633 253.849C19.8633 255.911 27.4886 257.583 36.8948 257.583Z" fill="#C9544B" stroke="#FC6A5A" stroke-width="2.8202" stroke-miterlimit="10"/>
<path d="M23.9651 245.748C23.9651 245.748 8.66833 229.359 0.65625 250.24C0.65625 250.24 15.4668 251.332 23.9651 245.748Z" fill="#5D8584"/>
<path d="M28.5791 255.582C27.7013 245.327 15.4453 238.09 7.32227 246.152" stroke="#4E7B7C" stroke-width="0.9783" stroke-miterlimit="10"/>
<path d="M32.4632 243.927C32.4632 243.927 32.7059 222.682 10.0039 230.937C10.0039 230.937 17.5305 242.591 32.4632 243.927Z" fill="#5D8584"/>
<path d="M34.1627 256.308C34.1627 256.308 35.1336 232.514 17.6523 232.028" stroke="#4E7B7C" stroke-width="0.9783" stroke-miterlimit="10"/>
<path d="M37.6827 244.655C37.6827 244.655 25.6642 220.739 48.1235 216.247C48.1235 216.247 54.193 233.487 37.6827 244.655Z" fill="#5D8584"/>
<path d="M44.1189 220.74C44.1189 220.74 34.8924 234.579 38.5347 256.432" stroke="#4E7B7C" stroke-width="0.9783" stroke-miterlimit="10"/>
<path d="M46.6688 245.87C46.6688 245.87 40.5985 230.452 62.451 233.244C62.451 233.244 56.2593 246.113 46.6688 245.87Z" fill="#5D8584"/>
<path d="M46.5478 255.825C46.5478 255.825 43.3917 236.887 56.7459 235.187" stroke="#4E7B7C" stroke-width="0.9783" stroke-miterlimit="10"/>
</svg>
