<svg width="446" height="287" viewBox="0 0 446 287" fill="none" xmlns="http://www.w3.org/2000/svg">
<path d="M15.0243 278.764C-11.0626 249.443 1.81614 218.09 16.2001 185.625C21.418 173.849 8.51315 161.881 5.21155 149.431C-4.28867 113.606 24.466 74.4273 50.0553 68.0687C80.3819 60.5326 99.7324 56.8057 112.593 47.847C128.429 36.815 141.985 3.55541 202.31 0.347938C284.593 -4.02683 274.004 34.2547 316.848 36.5517C427.207 42.469 388.462 101.959 406.557 139.208C417.935 175.594 439.686 155.734 444.207 192.402C447.969 222.911 439.068 254.124 437.139 284.364L15.0243 278.764Z" fill="#F2ECE3" fill-opacity="0.6"/>
<path d="M103.633 127.283L95.3184 186.563L234.051 259.928L270.469 150.332L160.413 98.6021L103.633 127.283Z" fill="white"/>
<path d="M105.394 273.075H35.1992V273.075C35.1992 266.131 40.8261 260.502 47.7674 260.502H92.8254C99.7666 260.502 105.394 266.131 105.394 273.075L105.394 273.075Z" fill="#768FDB"/>
<path d="M55.5184 156.022L50.541 156.707L65.1047 262.682L70.0821 261.998L55.5184 156.022Z" fill="#768FDB"/>
<path d="M111.574 85.7696L107.666 82.6117L40.4826 165.824L44.3909 168.982L111.574 85.7696Z" fill="#768FDB"/>
<path d="M59.0587 157.087C58.5808 160.497 55.4309 162.873 52.023 162.395C48.6149 161.917 46.2395 158.766 46.7174 155.356C47.1953 151.947 50.3454 149.571 53.7533 150.049C57.1612 150.527 59.5366 153.678 59.0587 157.087Z" fill="#4364CC"/>
<path d="M126.313 82.3029C125.047 88.7743 118.777 92.9942 112.308 91.7284C105.839 90.4622 101.621 84.1898 102.886 77.7184C104.152 71.2468 110.422 67.0268 116.891 68.2927C123.36 69.5588 127.578 75.8311 126.313 82.3029Z" fill="#4364CC"/>
<path d="M160.413 98.6016L103.632 127.282C102.896 125.823 102.251 124.345 101.694 122.858C95.2232 105.568 100.755 86.891 115.192 79.5976C129.442 72.3984 147.466 78.7716 157.61 93.8193C158.627 95.3272 159.566 96.9234 160.413 98.6016Z" fill="#768FDB"/>
<path d="M160.412 98.602L103.632 127.283C102.895 125.823 102.25 124.346 101.693 122.859L157.609 93.8197C158.626 95.3276 159.565 96.9238 160.412 98.602Z" fill="#4364CC"/>
<path d="M226.132 191.581C209.076 188.896 182.98 169.229 194.929 143.082C206.878 116.935 215.501 125.421 204.236 98.6229C192.972 71.8243 208.598 46.0302 228.595 47.9478C248.591 49.8653 256.369 64.2577 278.823 55.9136C301.277 47.5695 324.737 65.5652 319.624 86.0695C314.511 106.574 312.524 116.356 322.694 125.204C332.864 134.052 371.817 138.193 361.272 166.109C350.727 194.025 348.428 203.245 356.882 214.549C388.671 257.058 338.093 274.492 316.379 276.608C294.665 278.725 229.889 273.811 217.483 251.491C205.077 229.17 226.132 191.581 226.132 191.581Z" fill="#062440"/>
<path d="M190.73 202.556C193.11 208.506 181.018 226.701 175.635 225.948C150.871 213.013 128.449 174.401 128.449 174.401L135.783 164.151C135.783 164.151 161.217 182.917 190.73 202.556Z" fill="#F37A50"/>
<path d="M252.217 188.572C237.584 200.964 182.402 227.458 175.635 225.949L179.86 200.256C179.86 200.256 230.757 165.372 239.921 159.814C255.767 150.154 276.146 168.386 252.217 188.572Z" fill="#F37A50"/>
<path d="M122.15 148.122C120.675 146.721 111.512 144.075 109.17 144.611C106.444 145.22 98.8546 149.965 97.2448 150.964C95.6348 151.964 96.8409 153.474 99.4591 153.619C102.853 153.584 106.162 152.548 108.969 150.64C112.914 151.816 115.757 152.844 116.116 153.078C118.491 154.105 119.584 156.862 118.558 159.237C117.888 160.787 116.436 161.857 114.758 162.037L114.36 162.033C116.055 165.709 117.227 169.605 117.841 173.606C121.598 174.727 124.588 176.769 128.828 174.109L136.078 164.447C134.828 161.484 124.548 150.371 122.15 148.122Z" fill="#F37A50"/>
<path d="M87.2035 155.724L85.8724 155.493C85.4831 155.425 85.2062 155.076 85.2277 154.682C85.2493 154.286 85.5646 153.969 85.9601 153.946L87.2994 153.868C87.7549 153.841 88.1359 154.21 88.1241 154.666L88.1159 154.976C88.1034 155.452 87.6721 155.805 87.2035 155.724Z" fill="#2C2858"/>
<path d="M155.548 159.261L150.314 159.27C150.09 159.27 149.908 159.088 149.908 158.865L149.904 156.636C149.904 156.412 150.085 156.23 150.309 156.229L155.543 156.221C155.767 156.221 155.949 156.402 155.949 156.626L155.953 158.855C155.953 159.079 155.772 159.26 155.548 159.261Z" fill="#2C2858"/>
<path d="M152.83 155.837L152.767 157.889L152.686 159.902C152.663 160.262 152.352 160.536 151.992 160.513L103.976 158.293C102.532 158.218 86.8261 156.666 86.9559 155.765L87.0202 154.702L87.0606 153.813C87.086 153.12 102.78 152.839 104.236 152.885L152.13 155.154C152.478 155.116 152.791 155.367 152.829 155.715C152.833 155.755 152.834 155.796 152.83 155.837Z" fill="#2C2858"/>
<path d="M107.969 156.366C106.434 155.531 104.011 154.809 102.306 155.19C96.7561 156.696 102.659 159.808 104.32 161.794C106.023 163.831 109.434 173.809 125.148 175.385C125.838 176.102 120.115 160.985 116.563 161.487C113.07 161.979 109.453 157.218 107.969 156.366Z" fill="#F37A50"/>
<path d="M284.625 134.324L283.529 164.902C283.529 164.902 267.613 176.276 255.307 168.7C257.2 159.229 259.778 143.65 259.778 143.65L284.625 134.324Z" fill="#DE623C"/>
<path d="M255.106 154.654C255.106 154.654 234.329 156.315 203.51 181.84C206.508 183.916 222.382 207.3 222.382 207.3L244.458 200.723L255.106 154.654Z" fill="#C4204A"/>
<path d="M225.521 115.551C229.773 139.046 247.382 155.526 264.853 152.362C282.324 149.198 293.04 127.587 288.788 104.093C284.536 80.5986 266.926 64.1177 249.456 67.2819C231.985 70.4463 221.269 92.0572 225.521 115.551Z" fill="#F37A50"/>
<path d="M290.89 103.712C273.023 104.641 255.025 97.8473 243.578 86.9286C240.315 102.705 225.52 115.551 225.52 115.551C225.52 115.551 208.007 89.6771 227.855 70.4135C246.79 52.0365 300.006 52.6119 290.89 103.712Z" fill="#062440"/>
<path d="M264.567 118.179C266.423 117.843 267.656 116.065 267.32 114.207C266.984 112.35 265.206 111.117 263.35 111.453C261.493 111.789 260.26 113.568 260.596 115.425C260.932 117.282 262.71 118.516 264.567 118.179Z" fill="black"/>
<path d="M239.887 122.334C241.744 121.997 242.976 120.219 242.64 118.362C242.304 116.504 240.526 115.271 238.67 115.607C236.813 115.944 235.58 117.722 235.917 119.579C236.253 121.437 238.03 122.67 239.887 122.334Z" fill="black"/>
<path d="M250.501 119.394C248.192 125.448 247.4 128.035 246.092 129.56C248.398 132.972 254.889 132.986 256.431 132.023C251.683 131.289 250.24 128.724 250.24 128.724L250.501 119.394Z" fill="#DE623C"/>
<path d="M284.655 108.232C281.861 113.481 282.749 119.415 286.637 121.487C290.526 123.558 295.944 120.982 298.738 115.733C301.531 110.484 300.644 104.549 296.755 102.477C292.866 100.406 287.449 102.982 284.655 108.232Z" fill="#F37A50"/>
<path d="M289.631 117.578C289.771 117.553 289.908 117.5 290.034 117.417C290.54 117.087 290.682 116.408 290.352 115.903C289.254 114.221 288.972 112.76 289.512 111.559C290.347 109.704 292.931 108.71 294.886 108.424C295.483 108.337 295.897 107.78 295.809 107.182C295.721 106.584 295.165 106.17 294.567 106.258C291.944 106.643 288.714 108.002 287.517 110.66C286.921 111.984 286.611 114.176 288.52 117.1C288.768 117.479 289.212 117.654 289.631 117.578Z" fill="#DE623C"/>
<path d="M230.068 113.298C230.137 113.187 230.218 113.083 230.313 112.987C234.459 108.791 238.536 108.067 238.708 108.038C239.655 107.879 240.552 108.518 240.711 109.466C240.869 110.409 240.236 111.303 239.295 111.467C239.21 111.484 236.065 112.115 232.786 115.433C232.111 116.117 231.01 116.123 230.327 115.448C229.74 114.867 229.653 113.972 230.068 113.298Z" fill="#062440"/>
<path d="M260.584 103.983C260.706 103.942 260.835 103.914 260.97 103.9C266.839 103.319 270.44 105.364 270.59 105.451C271.421 105.934 271.703 106.998 271.221 107.829C270.741 108.657 269.683 108.94 268.854 108.466C268.778 108.425 265.954 106.903 261.313 107.363C260.357 107.457 259.506 106.759 259.411 105.803C259.33 104.981 259.834 104.237 260.584 103.983Z" fill="#062440"/>
<path d="M248.946 139.986C248.375 139.415 248.628 138.386 249.355 138.327C251.204 138.179 254.245 137.862 257.076 137.235C259.907 136.608 262.798 135.611 264.537 134.964C265.221 134.71 265.884 135.537 265.608 136.295C264.759 138.627 262.755 142.324 258.416 143.285C254.076 144.246 250.7 141.741 248.946 139.986Z" fill="white"/>
<path d="M98.1743 217.919L91.4727 184.71L147.138 211.363L107.343 221.286L98.1743 217.919Z" fill="#F57191"/>
<path d="M100.22 215.206L94.002 185.875L96.9313 183.709L145.62 207.527L100.22 215.206Z" fill="#F3DAD1"/>
<path d="M99.3203 216.375C101.476 212.951 109.04 208.281 118.921 209.227C128.802 210.173 162.756 203.547 165.015 202.2C168.165 204.916 225.54 253.714 225.54 253.714L223.156 258.041L99.3203 216.375Z" fill="white"/>
<path d="M226.457 258.922L225.004 261.512L164.752 267.163L98.1738 217.919L99.6271 215.329L161.332 207.089L226.457 258.922Z" fill="#F57191"/>
<path d="M223.804 260.718L162.1 268.958L96.9746 217.125L158.679 208.885L223.804 260.718Z" fill="#F5A3B7"/>
<path d="M138.725 221.515C137.943 214.149 147.603 216.28 149.984 222.746C152.038 228.326 151.673 232.529 151.318 235.495C124.222 231.958 128.278 215.917 138.725 221.515Z" fill="#F57191"/>
<path d="M175.847 231.935C175.541 229.057 179.314 229.89 180.244 232.416C181.047 234.595 180.904 236.236 180.765 237.395C170.183 236.013 171.766 229.748 175.847 231.935Z" fill="#F57191"/>
<path d="M148.732 243.734C148.426 240.857 152.199 241.689 153.129 244.215C153.931 246.395 153.789 248.036 153.65 249.194C143.067 247.813 144.651 241.547 148.732 243.734Z" fill="#F57191"/>
<path d="M132.499 237.884C132.194 235.007 135.967 235.839 136.897 238.365C137.699 240.545 137.556 242.186 137.418 243.345C126.835 241.963 128.419 235.698 132.499 237.884Z" fill="#F57191"/>
<path d="M160.683 228.298C160.377 225.421 164.15 226.253 165.08 228.779C165.883 230.958 165.74 232.6 165.601 233.758C155.018 232.377 156.602 226.112 160.683 228.298Z" fill="#F57191"/>
<path d="M177.527 245.614C177.221 242.737 180.994 243.569 181.924 246.095C182.726 248.275 182.584 249.916 182.445 251.075C171.862 249.693 173.446 243.428 177.527 245.614Z" fill="#F57191"/>
<path d="M189.72 243.734C189.415 240.857 193.187 241.689 194.117 244.215C194.92 246.395 194.777 248.036 194.639 249.194C184.055 247.813 185.639 241.547 189.72 243.734Z" fill="#F57191"/>
<path d="M189.72 255.558C189.415 252.681 193.187 253.513 194.117 256.039C194.92 258.219 194.777 259.86 194.639 261.019C184.055 259.637 185.639 253.371 189.72 255.558Z" fill="#F57191"/>
<path d="M202.812 255.558C202.506 252.681 206.279 253.513 207.209 256.039C208.012 258.219 207.869 259.86 207.73 261.019C197.147 259.637 198.731 253.371 202.812 255.558Z" fill="#F57191"/>
<path d="M302.685 263.712C301.669 257.314 300.221 245.995 302.237 235.043C307.102 212.494 318.92 179.358 312.52 160.551C308.24 154.971 289.857 149.121 284.441 149.445C281.861 161.143 259.571 179.55 258.003 153.912C243.057 156.679 231.415 181.101 228.788 197.447C227.94 209.821 231.797 222.844 232.738 235.343C235.073 253.826 229.477 262.972 225.275 281.555L311.808 281.262C306.767 269.712 303.107 265.078 302.685 263.712Z" fill="#E62552"/>
<path d="M260.78 243.551C267.512 246.221 270.432 267.958 268.437 269.519C238.576 279.798 194.423 267.152 194.423 267.152L193.039 254.019C201.777 253.537 221.729 252.518 260.78 243.551Z" fill="#F37A50"/>
<path d="M318.94 194.131C311.468 213.909 275.766 267.351 268.437 269.519L253.625 246.661C253.625 246.661 285.846 183.264 291.704 173.002C301.807 155.207 331.201 161.865 318.94 194.131Z" fill="#F37A50"/>
<path d="M306.576 154.567C309.796 154.727 325.909 154.353 324.897 184.294C325.311 196.567 313.486 218.484 313.486 218.484C313.486 218.484 290.682 211.806 274.621 198.955C274.98 192.625 290.758 156.074 306.576 154.567Z" fill="#C4204A"/>
<path d="M166.205 263.849C170.851 264.484 184.492 265.22 194.424 267.15L193.04 254.017C185.721 254.405 175.407 241.133 160.918 238.971C155.976 238.234 153.721 237.478 153.284 238.112C152.846 238.747 151.299 243.076 158.436 244.482C167.392 246.246 160.85 253.024 143.031 244.767C138.569 242.7 129.762 244.287 132.635 247.878C135.801 251.835 145.065 260.959 166.205 263.849Z" fill="#F37A50"/>
<path d="M9.24802 287H436.733C440.568 287 443.677 283.89 443.677 280.054V279.824C443.677 275.988 440.568 272.879 436.733 272.879H9.24802C5.41329 272.879 2.30469 275.988 2.30469 279.824V280.054C2.30469 283.89 5.41329 287 9.24802 287Z" fill="#494C7F"/>
<path d="M402.345 257.649H333.341C332.131 257.649 331.15 258.494 331.15 259.536V271.004C331.15 272.047 332.131 272.891 333.341 272.891H402.345V257.649Z" fill="#A11A3D"/>
<path d="M404.716 260.62V269.883C404.716 270.22 405.005 270.496 405.357 270.496H429.826C430.514 270.496 431.072 271.031 431.072 271.69C431.072 272.349 430.514 272.884 429.826 272.884H402.74C401.999 272.884 401.398 272.283 401.398 271.542V258.961C401.398 258.22 401.999 257.62 402.74 257.62H429.826C430.514 257.62 431.072 258.154 431.072 258.813V258.819C431.072 259.479 430.514 260.013 429.826 260.013H405.35C405.002 260.013 404.716 260.286 404.716 260.62Z" fill="#C4204A"/>
<path d="M428.694 270.497H405.38C404.71 270.497 404.166 269.953 404.166 269.283V261.225C404.166 260.555 404.71 260.011 405.38 260.011H428.694V270.497Z" fill="white"/>
<path d="M424.471 261.802H406.344V262.745H424.471V261.802Z" fill="#E3EAFF"/>
<path d="M427.654 264.179H416.332V265.122H427.654V264.179Z" fill="#E3EAFF"/>
<path d="M419.75 268.69H405.109V269.634H419.75V268.69Z" fill="#E3EAFF"/>
<path d="M415.215 266.534H408.352V267.477H415.215V266.534Z" fill="#E3EAFF"/>
<path d="M391.814 269.605H339.455C338.48 269.605 337.689 268.815 337.689 267.839V262.7C337.689 261.725 338.48 260.934 339.455 260.934H391.814C392.788 260.934 393.579 261.725 393.579 262.7V267.839C393.579 268.815 392.788 269.605 391.814 269.605Z" fill="#C4204A"/>
<path d="M363.508 229.217H434.494C435.649 229.217 436.585 230.153 436.585 231.308V242.007C436.585 243.162 435.648 244.098 434.494 244.098H363.508V229.217Z" fill="#F5A3B7"/>
<path d="M361.191 232.118V241.161C361.191 241.491 360.91 241.76 360.566 241.76H336.678C336.006 241.76 335.461 242.282 335.461 242.925C335.461 243.569 336.006 244.09 336.678 244.09H363.121C363.844 244.09 364.43 243.504 364.43 242.781V230.498C364.43 229.775 363.844 229.189 363.121 229.189H336.678C336.006 229.189 335.461 229.711 335.461 230.354V230.36C335.461 231.003 336.006 231.525 336.678 231.525H360.572C360.913 231.525 361.191 231.792 361.191 232.118Z" fill="#F57191"/>
<path d="M337.783 241.761H360.944C361.603 241.761 362.139 241.226 362.139 240.566V232.72C362.139 232.059 361.603 231.524 360.944 231.524H337.783V241.761Z" fill="white"/>
<path d="M380.57 229.217C380.57 229.217 383.411 235.612 380.618 244.098C381.891 244.098 384.314 244.09 384.314 244.09C384.314 244.09 387.332 237.532 384.314 229.217C382.877 229.217 380.57 229.217 380.57 229.217Z" fill="#F57191"/>
<path d="M374.268 229.217C374.268 229.217 377.108 235.612 374.315 244.098C375.588 244.098 378.012 244.09 378.012 244.09C378.012 244.09 381.03 237.532 378.012 229.217C376.574 229.217 374.268 229.217 374.268 229.217Z" fill="#F57191"/>
<path d="M359.667 232.992H346.889V233.933H359.667V232.992Z" fill="#E3EAFF"/>
<path d="M357.078 239.417H344.299V240.358H357.078V239.417Z" fill="#E3EAFF"/>
<path d="M361.677 237.463H348.898V238.404H361.677V237.463Z" fill="#E3EAFF"/>
<path d="M396.473 213.984H325.96C324.75 213.984 323.77 214.829 323.77 215.871V227.339C323.77 228.382 324.75 229.227 325.96 229.227H396.473V213.984Z" fill="#3F964F"/>
<path d="M398.845 216.955V226.218C398.845 226.555 399.133 226.831 399.486 226.831H423.954C424.643 226.831 425.201 227.366 425.201 228.025C425.201 228.684 424.643 229.218 423.954 229.218H396.868C396.128 229.218 395.527 228.617 395.527 227.876V215.296C395.527 214.555 396.128 213.954 396.868 213.954H423.954C424.643 213.954 425.201 214.489 425.201 215.148V215.153C425.201 215.813 424.643 216.347 423.954 216.347H399.479C399.131 216.348 398.845 216.621 398.845 216.955Z" fill="#0E6A41"/>
<path d="M422.823 226.832H399.508C398.838 226.832 398.295 226.288 398.295 225.617V217.56C398.295 216.889 398.838 216.346 399.508 216.346H422.823V226.832Z" fill="white"/>
<path d="M338.468 213.984C338.468 213.984 335.627 220.534 338.421 229.227C337.147 229.227 334.724 229.218 334.724 229.218C334.724 229.218 331.706 222.501 334.724 213.984C336.161 213.984 338.468 213.984 338.468 213.984Z" fill="#0E6A41"/>
<path d="M382.087 213.984C382.087 213.984 379.247 220.534 382.04 229.227C380.766 229.227 378.343 229.218 378.343 229.218C378.343 229.218 375.326 222.501 378.343 213.984C379.78 213.984 382.087 213.984 382.087 213.984Z" fill="#0E6A41"/>
<path d="M418.6 218.137H400.473V219.08H418.6V218.137Z" fill="#E3EAFF"/>
<path d="M421.781 220.514H410.459V221.457H421.781V220.514Z" fill="#E3EAFF"/>
<path d="M413.879 225.025H399.238V225.968H413.879V225.025Z" fill="#E3EAFF"/>
<path d="M409.344 222.869H402.48V223.811H409.344V222.869Z" fill="#E3EAFF"/>
<path d="M409.31 231.31L405.343 229.47L401.756 231.31V221.605H409.31V231.31Z" fill="#E62552"/>
<path d="M325.264 257.546L372.983 257.885L373.054 243.878L325.336 243.539C324.25 243.533 323.366 244.41 323.36 245.496L323.309 255.57C323.303 256.656 324.179 257.541 325.264 257.546Z" fill="#4364CC"/>
<path d="M371.83 255.382L423.882 255.328L423.863 246.637L372.437 246.158C372.182 246.157 371.364 246.879 371.363 247.071L371.387 254.996C371.386 255.188 371.576 255.38 371.83 255.382Z" fill="white"/>
<path d="M425.146 258.019C425.91 258.088 426.549 257.579 426.681 256.813C426.748 256.046 426.242 255.405 425.478 255.273C425.351 255.273 425.287 255.272 425.16 255.271L373.554 255.327C372.98 255.324 372.407 255.321 371.834 255.254C371.646 254.678 371.522 254.038 371.589 253.4L371.55 248.543C371.553 247.968 371.555 247.392 371.686 246.818C372.324 246.629 372.962 246.569 373.598 246.636L425.204 246.58C425.968 246.648 426.608 246.141 426.739 245.374C426.807 244.607 426.301 243.966 425.537 243.834C425.409 243.834 425.345 243.833 425.218 243.833L369.726 243.804C368.898 243.8 368.194 244.499 368.189 245.33L368.197 256.386C368.192 257.217 368.889 257.923 369.718 257.927L425.146 258.019Z" fill="#768FDB"/>
<path d="M402.396 251.861H374.527V252.709H402.396V251.861Z" fill="#E3EAFF"/>
<path d="M407.224 249.465H379.355V250.313H407.224V249.465Z" fill="#E3EAFF"/>
<path d="M387.733 247.68H375.77V248.528H387.733V247.68Z" fill="#E3EAFF"/>
<path d="M421.158 253.421H393.289V254.269H421.158V253.421Z" fill="#E3EAFF"/>
<path d="M50.0559 225.26C50.0559 223.665 41.8472 222.372 31.7213 222.372C21.5954 222.372 13.3867 223.665 13.3867 225.26C13.3867 226.855 21.5954 228.148 31.7213 228.148C41.8472 228.148 50.0559 226.855 50.0559 225.26Z" fill="#F57191"/>
<path d="M26.7246 264.61L36.4936 189.187L43.3816 190.088L33.6125 265.511L26.7246 264.61Z" fill="#B0173E"/>
<path d="M26.2429 268.286L26.7236 264.61L33.6113 265.511L33.1308 269.187C32.9613 270.484 31.7726 271.398 30.4756 271.229L28.2839 270.942C26.9869 270.772 26.0734 269.583 26.2429 268.286Z" fill="#E62552"/>
<path d="M33.5819 265.692L34.0117 262.405L27.1162 261.503L26.6864 264.79L33.5819 265.692Z" fill="#F3C8B9"/>
<path d="M26.5643 264.571L26.5835 264.425C26.5981 264.312 26.7015 264.233 26.8141 264.248L33.654 265.143C33.7666 265.157 33.846 265.26 33.8312 265.373L33.8121 265.519C33.7973 265.632 33.6942 265.711 33.5816 265.697L26.7416 264.802C26.6289 264.787 26.5495 264.683 26.5643 264.571Z" fill="#F3AE9C"/>
<path d="M26.7518 262.986L26.7707 262.84C26.7855 262.728 26.8888 262.648 27.0014 262.663L33.8414 263.558C33.9539 263.572 34.0333 263.676 34.0186 263.789L33.9994 263.935C33.9849 264.047 33.8815 264.126 33.7689 264.112L26.9288 263.217C26.8164 263.203 26.737 263.099 26.7518 262.986Z" fill="#F3AE9C"/>
<path d="M26.9842 261.334L27.0033 261.189C27.0179 261.076 27.1212 260.996 27.2338 261.011L34.0738 261.906C34.1863 261.921 34.2657 262.024 34.251 262.137L34.2319 262.283C34.2171 262.396 34.1139 262.475 34.0013 262.46L27.1614 261.565C27.0488 261.551 26.9694 261.447 26.9842 261.334Z" fill="#F3AE9C"/>
<path d="M39.815 190.571C41.717 190.82 43.3129 190.606 43.38 190.095C43.3801 190.093 43.38 190.09 43.3801 190.088L43.3807 190.088L43.3803 190.085C43.385 190.035 43.3742 189.983 43.3496 189.93L42.2012 184.103L41.3826 179.95C41.3548 179.809 41.1651 179.784 41.1014 179.912L39.2275 183.683L36.5654 189.041C36.528 189.085 36.5039 189.132 36.4948 189.182L36.4929 189.187H36.494C36.4936 189.189 36.4928 189.191 36.4924 189.194C36.4255 189.706 37.9132 190.322 39.815 190.571Z" fill="#F3C8B9"/>
<path d="M40.7328 184.105C40.1434 184.028 39.6164 183.874 39.2266 183.683L41.1004 179.912C41.1642 179.784 41.3539 179.809 41.3815 179.95L42.2002 184.103C41.7897 184.17 41.2785 184.177 40.7328 184.105Z" fill="#E62552"/>
<path d="M28.9168 198.836L33.6677 258.514L26.745 259.092L21.9941 199.414L28.9168 198.836Z" fill="#3F964F"/>
<path d="M28.6087 195.141L28.9169 198.836L21.9944 199.414L21.6861 195.719C21.5773 194.416 22.5456 193.27 23.849 193.162L26.0518 192.978C27.3552 192.869 28.4998 193.838 28.6087 195.141Z" fill="#E62552"/>
<path d="M21.9606 199.22L22.2363 202.524L29.1661 201.945L28.8903 198.641L21.9606 199.22Z" fill="#F3C8B9"/>
<path d="M29.0762 198.84L29.0884 198.987C29.0979 199.1 29.0139 199.2 28.9006 199.209L22.0262 199.783C21.9132 199.793 21.8134 199.709 21.8041 199.595L21.7917 199.449C21.7823 199.335 21.8666 199.236 21.9797 199.226L28.8541 198.652C28.9675 198.643 29.0669 198.727 29.0762 198.84Z" fill="#F3AE9C"/>
<path d="M29.2343 200.428L29.2466 200.575C29.256 200.688 29.1719 200.788 29.0587 200.798L22.1843 201.372C22.071 201.381 21.9717 201.297 21.9621 201.184L21.95 201.037C21.9404 200.924 22.0247 200.824 22.1377 200.815L29.0121 200.241C29.1254 200.231 29.2247 200.315 29.2343 200.428Z" fill="#F3AE9C"/>
<path d="M29.3532 202.092L29.3654 202.239C29.3748 202.352 29.2907 202.452 29.1776 202.461L22.3032 203.035C22.19 203.045 22.0906 202.961 22.0812 202.848L22.0691 202.701C22.0597 202.588 22.1438 202.488 22.257 202.479L29.1314 201.904C29.2443 201.895 29.3438 201.979 29.3532 202.092Z" fill="#F3AE9C"/>
<path d="M30.1283 257.865C28.2169 258.024 26.702 258.571 26.745 259.085C26.7452 259.087 26.7459 259.09 26.7463 259.092H26.7456L26.7466 259.094C26.7527 259.145 26.7742 259.194 26.8093 259.24L29.165 264.692L30.844 268.577C30.9008 268.709 31.0915 268.693 31.1266 268.554L32.1599 264.472L33.6277 258.672C33.655 258.621 33.6686 258.57 33.6665 258.519L33.6679 258.514L33.6667 258.514C33.6667 258.512 33.667 258.51 33.6668 258.507C33.6241 257.993 32.0396 257.705 30.1283 257.865Z" fill="#F3C8B9"/>
<path d="M30.5954 264.379C31.1881 264.329 31.7357 264.368 32.1569 264.472L31.1237 268.554C31.0886 268.693 30.8977 268.708 30.8411 268.577L29.1621 264.692C29.5488 264.538 30.047 264.424 30.5954 264.379Z" fill="#E62552"/>
<path d="M29.8047 265.051L11.1133 201.158L17.7222 199.21L36.4136 263.103L29.8047 265.051Z" fill="#0E6A41"/>
<path d="M30.8433 268.578L29.8047 265.051L36.4136 263.103L37.4524 266.63C37.819 267.875 37.1076 269.181 35.8633 269.548L33.7603 270.168C32.5158 270.534 31.2099 269.822 30.8433 268.578Z" fill="#E62552"/>
<path d="M36.4855 263.281L35.5566 260.127L28.9408 262.077L29.8696 265.231L36.4855 263.281Z" fill="#F3C8B9"/>
<path d="M29.6472 265.079L29.606 264.938C29.5742 264.83 29.6359 264.717 29.7439 264.685L36.3068 262.75C36.4151 262.718 36.5283 262.781 36.5601 262.889L36.6015 263.029C36.6334 263.137 36.5714 263.25 36.4635 263.282L29.9005 265.216C29.7924 265.248 29.6791 265.187 29.6472 265.079Z" fill="#F3AE9C"/>
<path d="M29.1786 263.567L29.1372 263.426C29.1055 263.319 29.1673 263.205 29.2753 263.173L35.8384 261.239C35.9465 261.207 36.0597 261.269 36.0917 261.377L36.1329 261.517C36.1647 261.625 36.103 261.739 35.9949 261.771L29.432 263.705C29.324 263.737 29.2106 263.675 29.1786 263.567Z" fill="#F3AE9C"/>
<path d="M28.7255 261.975L28.6841 261.835C28.6523 261.726 28.714 261.613 28.8222 261.581L35.3851 259.647C35.4932 259.615 35.6066 259.677 35.6384 259.785L35.6798 259.925C35.7117 260.033 35.6499 260.147 35.5418 260.179L28.9788 262.113C28.8705 262.145 28.7573 262.083 28.7255 261.975Z" fill="#F3AE9C"/>
<path d="M14.6814 201.08C16.5062 200.542 17.8683 199.708 17.7238 199.217C17.7231 199.215 17.7219 199.213 17.7212 199.211L17.7217 199.21L17.7203 199.208C17.7041 199.16 17.6736 199.117 17.6301 199.08L14.2507 194.255L11.8422 190.817C11.7609 190.701 11.5785 190.754 11.5721 190.896L11.3853 195.069L11.1199 200.997C11.1037 201.052 11.1008 201.104 11.1129 201.153L11.1128 201.158L11.1136 201.158C11.1143 201.16 11.1145 201.162 11.1152 201.164C11.2599 201.656 12.8567 201.618 14.6814 201.08Z" fill="#F3C8B9"/>
<path d="M12.9222 194.847C12.3564 195.013 11.8168 195.085 11.3867 195.069L11.5735 190.896C11.5799 190.754 11.7623 190.701 11.8436 190.817L14.2521 194.255C13.907 194.481 13.4457 194.692 12.9222 194.847Z" fill="#3F964F"/>
<path d="M50.5375 205.327L40.1326 257.101L33.3887 255.69L43.7936 203.915L50.5375 205.327Z" fill="#0E6A41"/>
<path d="M51.2894 201.728L50.5369 205.327L43.793 203.916L44.5457 200.316C44.8113 199.046 46.0558 198.232 47.3256 198.498L49.4715 198.947C50.7408 199.212 51.5548 200.458 51.2894 201.728Z" fill="#E62552"/>
<path d="M43.8236 203.742L43.1504 206.961L49.9015 208.374L50.5747 205.155L43.8236 203.742Z" fill="#F3C8B9"/>
<path d="M50.691 205.377L50.6611 205.52C50.6382 205.631 50.5301 205.701 50.4197 205.678L43.7227 204.277C43.6124 204.254 43.5418 204.146 43.5649 204.035L43.5948 203.892C43.6177 203.782 43.726 203.711 43.8363 203.734L50.5331 205.136C50.6434 205.159 50.7141 205.267 50.691 205.377Z" fill="#F3AE9C"/>
<path d="M50.3884 206.929L50.3586 207.072C50.3355 207.183 50.2274 207.254 50.1171 207.23L43.4201 205.829C43.3098 205.806 43.2391 205.697 43.2622 205.587L43.2921 205.444C43.3152 205.334 43.4232 205.263 43.5335 205.286L50.2305 206.688C50.3407 206.711 50.4115 206.819 50.3884 206.929Z" fill="#F3AE9C"/>
<path d="M50.033 208.546L50.0031 208.689C49.98 208.8 49.8719 208.871 49.7615 208.847L43.0646 207.446C42.9543 207.423 42.8836 207.315 42.9067 207.204L42.9366 207.061C42.9597 206.951 43.0678 206.88 43.1781 206.903L49.8751 208.305C49.9854 208.328 50.0559 208.436 50.033 208.546Z" fill="#F3AE9C"/>
<path d="M36.9509 255.482C35.0888 255.092 33.4943 255.183 33.3896 255.684C33.3891 255.686 33.3891 255.688 33.3887 255.691L33.3882 255.69L33.3884 255.693C33.3798 255.743 33.3866 255.795 33.4069 255.849L34.103 261.698L34.5993 265.867C34.616 266.008 34.8019 266.048 34.8745 265.926L37.0122 262.338L40.0491 257.241C40.0894 257.2 40.1168 257.155 40.1293 257.106L40.1317 257.102L40.1307 257.102C40.1312 257.099 40.1323 257.098 40.1328 257.095C40.2377 256.594 38.8129 255.872 36.9509 255.482Z" fill="#F3C8B9"/>
<path d="M35.5547 261.807C36.1318 261.927 36.6415 262.12 37.0127 262.337L34.875 265.925C34.8024 266.047 34.6165 266.008 34.5998 265.867L34.1035 261.698C34.5145 261.662 35.0204 261.695 35.5547 261.807Z" fill="#3F964F"/>
<path d="M50.0432 225.364L48.9954 234.155L48.5295 238.067V238.068L45.6054 262.624L45.1534 266.413L44.3836 272.879H18.2154L17.5541 266.36L17.1709 262.583L14.6934 238.153L14.3027 234.297L13.3945 225.346C13.6801 226.902 21.7752 228.148 31.7208 228.148C41.6271 228.148 49.6984 226.911 50.0432 225.364Z" fill="#F5A3B7"/>
<path d="M13.3867 225.26L13.3955 225.346C13.389 225.317 13.3867 225.289 13.3867 225.26Z" fill="#DE6280"/>
<path d="M50.0569 225.26C50.0569 225.295 50.0525 225.33 50.0449 225.365L50.0569 225.26Z" fill="#DE6280"/>
<path d="M45.6062 262.624L45.1542 266.413C41.7973 267.004 36.9228 267.374 31.4996 267.374C25.9175 267.374 20.9171 266.981 17.5551 266.36L17.1719 262.583C20.5308 263.244 25.7007 263.668 31.4973 263.668C37.1719 263.668 42.2439 263.262 45.6062 262.624Z" fill="#F57191"/>
<path d="M48.9952 234.155L48.5293 238.066V238.067C45.8284 239.132 39.2212 239.884 31.4986 239.884C23.9833 239.884 17.5241 239.172 14.6934 238.152L14.3027 234.296C16.8942 235.395 23.614 236.178 31.4965 236.178C39.7108 236.178 46.6626 235.327 48.9952 234.155Z" fill="#F57191"/>
<path d="M397.687 206.124H390.778C389.676 206.124 388.783 205.23 388.783 204.128C388.783 203.026 389.676 202.133 390.778 202.133H395.692V189.152H390.778C389.676 189.152 388.783 188.258 388.783 187.156C388.783 186.054 389.676 185.161 390.778 185.161H397.687C398.788 185.161 399.681 186.055 399.681 187.156V204.128C399.681 205.231 398.788 206.124 397.687 206.124Z" fill="#607FDB"/>
<path d="M390.776 179.252V212.032C390.776 213.109 389.904 213.982 388.827 213.982H366.791C365.716 213.982 364.842 213.109 364.842 212.032V179.252C364.842 178.176 365.716 177.302 366.791 177.302H388.827C389.904 177.302 390.776 178.176 390.776 179.252Z" fill="#768FDB"/>
<path d="M376.318 173.811C376.318 173.811 366.55 169.659 369.572 162.142C372.595 154.625 383.587 155.616 377.335 144.728C384.874 149.083 386.008 158.783 380.152 161.158C374.295 163.534 373.996 169.547 376.318 173.811Z" fill="white"/>
<path d="M385.495 173.811C385.495 173.811 378.549 170.858 380.698 165.513C382.847 160.168 390.663 160.872 386.218 153.13C391.579 156.227 392.385 163.125 388.22 164.814C384.056 166.503 383.843 170.779 385.495 173.811Z" fill="white"/>
<path d="M377.706 192.549C381.339 188.338 384.682 192.299 383.898 195.262C383.273 198.569 377.7 202.979 377.599 202.548C365.69 193.755 374.446 187.569 377.706 192.549Z" fill="#607FDB"/>
<path d="M390.776 211.047V212.032C390.776 213.109 389.904 213.982 388.827 213.982H366.791C365.716 213.982 364.842 213.11 364.842 212.032V211.047H390.776Z" fill="#607FDB"/>
<path d="M341.596 89.1649C338.214 89.1649 335.463 86.4127 335.463 83.0296C335.463 79.6464 338.214 76.894 341.596 76.894C344.978 76.894 347.729 79.6462 347.729 83.0296C347.729 86.4127 344.978 89.1649 341.596 89.1649ZM341.596 78.5841C339.146 78.5841 337.152 80.5784 337.152 83.0297C337.152 85.4807 339.146 87.4752 341.596 87.4752C344.046 87.4752 346.04 85.4809 346.04 83.0297C346.04 80.5784 344.046 78.5841 341.596 78.5841Z" fill="white"/>
<path d="M82.932 98.089C79.5501 98.089 76.7988 95.3367 76.7988 91.9535C76.7988 88.5705 79.5501 85.8182 82.932 85.8182C86.3136 85.8182 89.0649 88.5705 89.0649 91.9535C89.0651 95.3367 86.3138 98.089 82.932 98.089ZM82.932 87.5078C80.4815 87.5078 78.4882 89.5023 78.4882 91.9535C78.4882 94.4047 80.4817 96.399 82.932 96.399C85.3822 96.399 87.3757 94.4045 87.3757 91.9535C87.3757 89.5023 85.3824 87.5078 82.932 87.5078Z" fill="white"/>
<path d="M163.246 124.371C159.865 124.371 157.113 121.618 157.113 118.235C157.113 114.852 159.865 112.099 163.246 112.099C166.628 112.099 169.379 114.852 169.379 118.235C169.379 121.618 166.628 124.371 163.246 124.371ZM163.246 113.79C160.796 113.79 158.802 115.784 158.802 118.235C158.802 120.687 160.796 122.68 163.246 122.68C165.697 122.68 167.69 120.686 167.69 118.235C167.69 115.784 165.697 113.79 163.246 113.79Z" fill="#E3EAFF"/>
<path d="M17.869 134.686C15.5956 134.686 13.7461 132.835 13.7461 130.561C13.7461 128.287 15.5954 126.437 17.869 126.437C20.1422 126.437 21.9919 128.287 21.9919 130.561C21.9919 132.835 20.1424 134.686 17.869 134.686ZM17.869 127.573C16.2217 127.573 14.8817 128.913 14.8817 130.561C14.8817 132.209 16.2217 133.55 17.869 133.55C19.5162 133.55 20.8564 132.209 20.8564 130.561C20.8564 128.913 19.5162 127.573 17.869 127.573Z" fill="white"/>
<path d="M195.527 27.2087C192.164 26.8506 189.72 23.8224 190.078 20.4584C190.436 17.0942 193.463 14.6487 196.826 15.0069C200.188 15.365 202.633 18.3932 202.275 21.7574C201.917 25.1214 198.89 27.5671 195.527 27.2087ZM196.647 16.6873C194.21 16.4277 192.017 18.1997 191.757 20.6372C191.498 23.0747 193.269 25.2688 195.706 25.5284C198.142 25.7881 200.336 24.0158 200.595 21.5784C200.854 19.1409 199.083 16.9468 196.647 16.6873Z" fill="white"/>
<path d="M356.728 73.1821C356.728 75.0894 355.183 76.6353 353.276 76.6353C351.37 76.6353 349.824 75.0894 349.824 73.1821C349.824 71.2749 351.37 69.7288 353.276 69.7288C355.183 69.7288 356.728 71.2749 356.728 73.1821Z" fill="white"/>
<path d="M188.106 33.163C187.904 35.0595 186.203 36.4332 184.308 36.2313C182.412 36.0293 181.039 34.3282 181.24 32.4317C181.442 30.5353 183.143 29.1615 185.039 29.3634C186.935 29.5654 188.308 31.2664 188.106 33.163Z" fill="white"/>
<path d="M184.324 83.0299C184.324 84.9369 182.778 86.4832 180.872 86.4832C178.965 86.4832 177.42 84.9369 177.42 83.0299C177.42 81.1226 178.965 79.5765 180.872 79.5765C182.778 79.5765 184.324 81.1228 184.324 83.0299Z" fill="white"/>
<path d="M166.699 132.572C166.699 134.479 165.153 136.025 163.247 136.025C161.34 136.025 159.795 134.479 159.795 132.572C159.795 130.664 161.34 129.118 163.247 129.118C165.153 129.118 166.699 130.664 166.699 132.572Z" fill="#E3EAFF"/>
<path d="M419.885 180.977C419.885 182.884 418.339 184.431 416.433 184.431C414.526 184.431 412.98 182.884 412.98 180.977C412.98 179.07 414.526 177.524 416.433 177.524C418.339 177.524 419.885 179.07 419.885 180.977Z" fill="white"/>
<path d="M82.9335 216.869C82.9335 218.777 81.388 220.323 79.4815 220.323C77.575 220.323 76.0293 218.777 76.0293 216.869C76.0293 214.962 77.575 213.416 79.4815 213.416C81.388 213.416 82.9335 214.962 82.9335 216.869Z" fill="white"/>
<path d="M28.885 118.393C33.6171 117.81 36.9808 113.5 36.3982 108.766C35.8156 104.032 31.5072 100.667 26.7752 101.25C22.0431 101.833 18.6793 106.143 19.262 110.877C19.8446 115.611 24.153 118.976 28.885 118.393Z" fill="white"/>
</svg>
