<svg width="415" height="275" viewBox="0 0 415 275" fill="none" xmlns="http://www.w3.org/2000/svg">
<path opacity="0.45" d="M400.013 175.314C389.969 159.356 376.21 146.643 361.925 135.2C349.956 125.603 336.751 115.722 331.814 100.411C329.115 92.063 329.193 82.8351 326.16 74.6293C322.116 63.6899 309.592 50.4364 298.93 45.6591C282.608 38.347 262.883 49.4348 245.929 43.7361C238.928 41.3823 237.078 36.8854 232.254 32.1628C227.089 27.1066 220.88 22.7099 214.916 18.6574C203.214 10.7064 190.262 4.32134 176.309 1.54372C151.739 -3.3471 125.528 3.63776 105.249 18.8923C93.0598 28.0635 82.9803 40.0954 75.4437 53.6179C68.241 66.5512 65.0587 80.8901 58.3887 93.9512C45.887 118.427 19.9387 131.992 7.66426 156.609C-1.364 174.731 -1.73337 196.879 3.01872 216.861C7.77081 236.836 17.2253 255.057 27.1556 272.612C27.2018 272.693 27.2466 272.763 27.2899 272.83H43.6849C106.249 272.618 375.816 271.778 382.219 273.045H394.678C403.763 265.137 412.053 243.295 413.708 230.106C416.123 210.912 410.05 191.271 400.013 175.314Z" fill="#D6C6AE"/>
<path d="M269.22 155.328C266.946 158.891 261.01 163.045 256.795 162.985C242.446 162.72 237.726 152.953 236.176 149.395C236.468 149.323 236.958 149.265 237.305 149.223C239.951 148.842 242.648 146.23 243.439 143.28C244.457 139.449 245.704 131.954 245.557 127.188L263.705 137.226C263.676 138.602 263.585 140.107 263.453 141.625C263.359 142.55 263.268 143.455 263.162 144.337C263.062 145.181 262.948 145.982 262.844 146.725C262.51 149.21 263.622 151.676 265.716 153.044L269.22 155.328Z" fill="#FE8E68"/>
<path d="M270.785 116.286C269.806 118.855 270.22 121.771 271.214 124.333C271.918 126.145 273.48 124.546 275.424 124.579C278.433 124.629 280.785 121.5 282.608 113.199C283.764 107.109 284.057 104.018 283.826 103.433C282.996 101.329 280.256 100.197 277.997 99.9991" fill="#3D302A"/>
<path d="M275.368 98.0364C280.111 103.75 281.839 119.83 277.83 131.027C274.981 138.989 271.674 144.13 267.804 143.965C261.939 143.715 250.567 138.9 246.861 134.87C240.193 127.621 242.133 113.414 243.51 104.465C244.762 96.3342 248.566 85.7838 258.79 87.7919C265.513 89.1129 271.109 92.907 275.368 98.0364Z" fill="#FE8E68"/>
<path d="M248.417 103.18C249.471 104.438 251.324 104.716 252.851 104.963C254.903 105.295 255.923 105.995 256.983 107.858C257.66 109.05 258.334 110.355 259.543 111.002C260.113 111.307 260.976 111.349 261.257 110.769C260.716 110.41 260.534 109.667 260.671 109.033C260.807 108.398 261.199 107.851 261.611 107.348C261.959 107.82 261.996 108.444 262.187 108.998C262.441 109.733 262.989 110.361 263.684 110.711C263.794 110.767 263.915 110.817 264.038 110.8C264.204 110.777 264.327 110.64 264.435 110.511C265.183 109.618 265.914 107.912 266.951 107.368C267.157 108.343 267.531 109.111 268.133 109.917C268.658 110.618 269.286 111.341 270.145 111.509C270.423 111.562 270.767 111.522 270.899 111.271C271.059 110.967 270.809 110.658 270.847 110.349C270.883 110.058 271.02 109.93 271.17 109.683C271.552 109.051 271.898 108.439 272.398 107.887C273.413 109.04 274.522 110.112 275.71 111.087C275.972 111.302 276.358 111.516 276.62 111.301C276.76 111.186 276.797 110.992 276.826 110.814C276.972 109.912 277.118 109.011 277.263 108.108C277.345 107.602 277.643 106.942 278.14 107.071C278.381 107.133 278.526 107.369 278.657 107.581C278.824 107.852 281.736 110.926 281.798 110.688C282.252 108.943 283.185 107.352 283.638 105.606C286.558 94.3601 273.514 85.3224 263.547 85.2748C261.328 85.2641 259.254 85.7291 257.105 86.2047C254.813 86.7129 252.439 87.0906 250.355 88.2327C247.438 89.8306 245.223 92.731 245.793 96.1972" fill="#3D302A"/>
<path d="M253.22 100.203C254.665 101.842 255.053 104.147 255.186 106.327C255.386 109.611 255.117 113.027 253.595 115.944C253.162 116.774 252.844 120.885 252.175 120.658C251.963 120.586 251.998 117.401 251.439 115.682C250.573 113.02 246.578 112.009 244.783 113.686C241.916 116.366 243.599 119.616 244.546 121.638C245.118 122.857 246.019 124.23 246.171 125.523C246.366 127.179 246.419 133.201 245.34 134.612C244.437 135.792 243.477 130.096 242.665 128.974C236.619 120.619 230.82 99.3425 241.147 94.7342C242.716 94.0343 247.564 93.6687 249.031 94.5624" fill="#3D302A"/>
<path d="M291.432 269.317C292.032 269.42 292.636 269.501 293.254 269.521C296.577 269.63 299.786 268.898 303.037 268.339C305.894 267.848 306.669 267.577 306.607 264.135C306.113 236.868 302.096 209.679 294.881 183.378C293.778 179.361 292.582 175.317 290.472 171.725C286.873 165.601 278.599 160.309 272.261 157.34C271.364 156.921 267.655 159.277 266.754 158.87C265.962 158.512 265.267 157.964 264.471 157.616C262.143 156.597 260.581 158.726 258.632 159.61C257.627 160.065 256.502 160.352 255.392 160.306C254.49 160.268 253.673 159.725 252.846 160.152C249.137 162.066 239.929 147.84 239.929 147.84L235.942 152.004L224.275 164.219L195.107 204.374C195.107 204.374 189.815 237.284 186.176 258.854C185.547 262.577 183.041 270.614 182.547 273.436C182.653 272.829 207.441 272.659 208.781 272.659C226.016 272.659 242.069 272.659 259.306 272.659C262.14 272.659 269.761 273.862 271.752 271.781C274.2 269.222 277.038 257.497 277.184 254.211C277.673 243.16 276.916 232.193 276.768 221.072C276.828 225.593 278.129 229.683 278.685 234.112C279.399 239.812 280.425 245.508 281.346 251.179C282.086 255.739 282.795 260.305 283.362 264.89C283.618 266.953 283.289 268.182 285.038 268.99C286.509 269.669 289.715 269.025 291.432 269.317Z" fill="#D27648"/>
<path d="M282.068 259.875C280.717 259.319 272.386 257.254 268.629 256.477C266.658 256.07 257.741 253.758 255.674 253.758C253.607 253.758 250.795 256.71 250.795 256.71L251.54 266.866C253.528 266.668 256.191 267.7 257.622 267.899C259.052 268.098 263.903 268.123 266.883 266.629C267.054 266.543 267.207 266.448 267.368 266.357C268.569 267.419 270.076 268.457 271.74 268.54C271.74 268.54 273.044 268.409 272.92 267.881C272.86 267.625 271.999 266.304 271.131 265.016C272.407 266.316 274.496 268.421 276.905 268.54C276.905 268.54 278.209 268.409 278.085 267.881C278.012 267.571 276.766 265.702 275.754 264.217C275.767 264.228 275.786 264.241 275.798 264.251C276.854 265.182 279.369 268.393 282.349 268.54C282.349 268.54 283.653 268.409 283.529 267.881C283.484 267.69 282.991 266.905 282.385 265.984C283.146 266.563 284.078 267.184 285.207 267.741C288.427 269.33 290.256 268.124 290.256 267.741C290.256 267.358 283.42 260.431 282.068 259.875Z" fill="#FE8E68"/>
<path d="M253.096 248.08C253.096 248.08 258.285 251.019 257.824 257.265C257.363 263.511 255.485 270.754 247.655 269.995C239.827 269.237 253.096 248.08 253.096 248.08Z" fill="#874C2E"/>
<path d="M245.968 269.375C227.203 275.885 202.09 269.667 186.173 258.854C176.2 252.094 169.839 243.516 170.908 235.132C173.686 213.354 190.812 163.441 205.632 156.153C215.703 151.198 227.925 149.144 234.731 148.325C237.926 147.936 239.925 147.84 239.925 147.84L237.453 154.808L225.077 189.674C224.619 210.37 209.798 222.654 212.743 227.47C215.687 232.273 238.966 237.464 251.189 245.695C254.579 247.985 258.871 264.517 245.968 269.375Z" fill="#D27648"/>
<path d="M170.911 235.669L170.872 237.12C170.874 237.362 170.84 237.603 170.872 237.843L170.955 238.562C171.024 239.038 171.023 239.525 171.146 239.991L171.49 241.392C172.061 243.223 172.85 244.991 173.925 246.583C175.987 249.821 178.715 252.601 181.723 254.987C187.754 259.77 194.698 263.346 201.943 265.949C209.172 268.608 216.756 270.362 224.443 270.999C228.284 271.329 232.155 271.368 236.002 271.038C239.851 270.743 243.675 270.035 247.381 268.884C243.751 270.265 239.917 271.084 236.055 271.558C232.184 271.996 228.273 272.05 224.383 271.816C220.489 271.595 216.62 271.01 212.812 270.179C209.003 269.347 205.247 268.27 201.578 266.947C197.92 265.593 194.343 264.011 190.918 262.137C187.501 260.258 184.195 258.141 181.206 255.617C178.212 253.114 175.496 250.218 173.482 246.854C172.454 245.187 171.721 243.346 171.219 241.464C170.722 239.567 170.683 237.59 170.911 235.669Z" fill="#874C2E"/>
<path d="M225.079 189.679C225.094 193.603 224.546 197.536 223.527 201.344C222.495 205.15 220.993 208.821 219.243 212.35C218.372 214.117 217.437 215.851 216.48 217.562C215.532 219.278 214.561 220.982 213.767 222.733C213.375 223.607 213.037 224.506 212.9 225.392C212.862 225.827 212.827 226.271 212.952 226.65C212.979 226.855 213.101 227.014 213.172 227.196C213.307 227.359 213.4 227.538 213.568 227.691C214.836 228.961 216.656 229.823 218.386 230.649C225.476 233.875 233.003 236.267 240.181 239.494C243.768 241.106 247.321 242.844 250.621 245.017L251.234 245.433C251.438 245.574 251.632 245.76 251.829 245.922C252.196 246.28 252.52 246.679 252.776 247.113C253.303 247.973 253.658 248.91 253.933 249.86C254.455 251.769 254.678 253.738 254.695 255.699C254.563 253.744 254.243 251.798 253.663 249.942C253.055 248.106 252.11 246.319 250.338 245.457C247.023 243.4 243.461 241.759 239.855 240.248C236.239 238.756 232.584 237.346 228.908 235.977C225.238 234.588 221.542 233.257 217.935 231.615C216.16 230.735 214.336 229.907 212.819 228.381C212.626 228.199 212.474 227.944 212.307 227.722C212.187 227.455 212.026 227.197 211.98 226.91C211.812 226.344 211.863 225.784 211.917 225.251C212.09 224.197 212.469 223.249 212.882 222.339C213.725 220.524 214.715 218.825 215.676 217.116C216.636 215.406 217.604 213.709 218.514 211.982C222.171 205.101 224.711 197.542 225.079 189.679Z" fill="#874C2E"/>
<path d="M273.717 158.02C271.924 159.797 263.957 165.468 256.358 165.468C255.095 165.468 253.761 165.357 252.344 165.093C245.969 163.927 240.593 159.68 237.454 154.808C236.871 153.892 236.357 152.948 235.941 152.004C235.371 150.782 234.968 149.533 234.732 148.325C237.927 147.936 240.983 147.131 241.483 146.563C242.025 150.282 246.622 157.001 253.58 158.264C254.455 158.431 255.274 158.499 256.066 158.514H256.081C259.345 158.569 261.858 157.528 263.567 156.474C263.582 156.474 266.902 153.859 266.915 153.845L273.717 158.02Z" fill="#D27648"/>
<path d="M262.931 123.599C263.643 123.599 264.22 122.462 264.22 121.059C264.22 119.656 263.643 118.518 262.931 118.518C262.219 118.518 261.643 119.656 261.643 121.059C261.643 122.462 262.219 123.599 262.931 123.599Z" fill="#56211A"/>
<path d="M263.482 122.838C263.791 122.838 264.04 122.491 264.04 122.062C264.04 121.633 263.791 121.285 263.482 121.285C263.174 121.285 262.924 121.633 262.924 122.062C262.924 122.491 263.174 122.838 263.482 122.838Z" fill="white"/>
<path d="M276.792 124.764C277.504 124.764 278.081 123.627 278.081 122.224C278.081 120.82 277.504 119.683 276.792 119.683C276.081 119.683 275.504 120.82 275.504 122.224C275.504 123.627 276.081 124.764 276.792 124.764Z" fill="#56211A"/>
<path d="M272.379 133.14C272.363 133.676 270.119 136.939 267.937 136.68C266.107 136.463 264.503 133.035 265.467 131.472C265.982 130.927 272.394 132.604 272.379 133.14Z" fill="white"/>
<path d="M259.099 114.818C260.694 113.412 264.533 113.957 266.165 115C266.485 115.205 266.831 114.743 266.566 114.481C265.462 113.383 263.618 113.318 262.151 113.372C261.037 113.412 259.211 113.364 258.829 114.662C258.782 114.823 258.983 114.92 259.099 114.818Z" fill="#3D302A"/>
<path d="M274.688 115.77C275.663 115.696 276.569 115.517 277.542 115.759C278.517 116.002 279.235 116.597 280.101 117.052C280.289 117.151 280.456 116.957 280.375 116.778C279.524 114.899 276.217 114.211 274.571 115.341C274.4 115.459 274.441 115.789 274.688 115.77Z" fill="#3D302A"/>
<path d="M270.774 121.125C270.709 122.587 270.765 124.085 271.006 125.53C271.093 126.051 271.762 127.437 271.653 127.882C271.535 128.369 270.686 128.971 270.397 129.45C270.251 129.692 270.536 129.942 270.769 129.821C271.635 129.372 272.629 128.708 272.449 127.663C272.282 126.693 271.838 125.762 271.688 124.763C271.507 123.554 271.493 122.341 271.386 121.125C271.352 120.738 270.792 120.727 270.774 121.125Z" fill="#CC6144"/>
<path d="M277.179 124.053C277.488 124.053 277.738 123.683 277.738 123.227C277.738 122.771 277.488 122.402 277.179 122.402C276.871 122.402 276.621 122.771 276.621 123.227C276.621 123.683 276.871 124.053 277.179 124.053Z" fill="white"/>
<path d="M255.471 139.26C257.471 141.607 260.897 143.188 263.974 143.275C264.281 143.283 264.36 142.787 264.048 142.729C260.79 142.125 258.38 141.007 255.775 138.955C255.559 138.785 255.287 139.045 255.471 139.26Z" fill="#CC6144"/>
<path d="M239.916 146.68C235.298 144.493 232.826 151.428 232.36 154.827C231.462 161.362 234.366 167.451 237.003 173.233C239.773 179.306 242.941 185.177 245.773 191.218C247.24 194.346 248.534 197.55 249.511 200.865C250.533 204.331 250.65 208.194 251.905 211.534C252.076 211.99 252.664 211.889 252.723 211.423C253.334 206.582 251.189 200.628 249.518 196.098C247.919 191.762 245.852 187.617 243.79 183.487C241.099 178.098 238.37 172.658 236.158 167.05C235.049 164.237 234.134 161.297 233.938 158.262C233.781 155.837 234.672 145.962 239.395 147.912C240.098 148.202 240.605 147.006 239.916 146.68Z" fill="#874C2E"/>
<path d="M266.9 154.144C272.71 156.352 270.679 166.964 269.885 171.566C268.918 177.166 267.106 182.596 264.837 187.797C260.409 197.941 254.445 207.35 249.105 217.022C248.664 217.819 249.875 218.529 250.327 217.736C256.967 206.09 264.535 194.787 268.919 182.027C270.954 176.106 272.251 169.875 272.342 163.602C272.401 159.43 271.787 154.353 267.263 152.828C266.42 152.544 266.091 153.837 266.9 154.144Z" fill="#874C2E"/>
<path d="M259.148 212.088C254.66 211.955 250.172 211.822 245.683 211.689C244.959 211.667 244.534 212.274 244.453 212.918C243.607 219.654 243.314 226.522 242.301 233.228C242.181 234.017 242.614 234.765 243.487 234.784C247.914 234.876 252.342 235.008 256.769 235.056C257.002 235.059 257.196 235.004 257.36 234.915C257.367 234.911 257.374 234.906 257.381 234.903C257.424 234.878 257.468 234.855 257.507 234.825C257.711 234.683 257.875 234.466 257.956 234.154C259.664 227.53 259.667 220.114 260.379 213.317C260.449 212.641 259.757 212.105 259.148 212.088Z" fill="#874C2E"/>
<path d="M276.961 239.411C277.157 235.757 276.794 232.058 276.767 228.396C276.74 224.602 276.854 220.813 277.056 217.025C277.251 213.353 277.548 209.688 277.968 206.035C278.4 202.272 279.188 198.545 279.587 194.785C279.64 194.28 278.834 194.188 278.711 194.666C277.828 198.127 277.486 201.805 277.068 205.35C276.611 209.228 276.276 213.124 276.089 217.025C275.907 220.81 275.884 224.607 275.97 228.395C276.052 232.056 276.054 235.839 276.806 239.432C276.825 239.523 276.956 239.496 276.961 239.411Z" fill="#874C2E"/>
<path d="M239.627 153.501C240.827 158.42 246.338 162.592 251.185 163.318C251.595 163.379 251.774 162.815 251.36 162.684C248.859 161.892 246.498 160.859 244.481 159.15C242.53 157.499 241.337 155.463 239.963 153.36C239.85 153.188 239.577 153.295 239.627 153.501Z" fill="#874C2E"/>
<path d="M255.769 163.342C256.614 163.151 257.452 162.952 258.286 162.715C259.03 162.504 259.812 162.359 260.462 161.925C260.656 161.796 260.585 161.489 260.342 161.483C258.812 161.443 257.04 162.284 255.616 162.788C255.271 162.911 255.405 163.424 255.769 163.342Z" fill="#874C2E"/>
<path d="M247.538 117.25C248.006 116.531 248.728 118.76 248.758 118.948C248.894 119.814 248.716 120.587 248.494 121.416C248.411 121.727 249.373 121.482 249.488 121.261C250.113 120.052 250.16 117.95 249.073 116.959C248.393 116.339 247.073 116.509 246.576 117.286C246.355 117.632 247.382 117.489 247.538 117.25Z" fill="#CC6144"/>
<path d="M249.067 118.956C249.062 118.862 249.071 118.771 249.095 118.68C249.105 118.652 249.099 118.629 249.077 118.61C248.69 118.139 248.092 117.921 247.51 118.143C247.474 118.156 247.351 118.212 247.403 118.268C247.542 118.415 247.814 118.41 247.992 118.498C248.14 118.571 248.251 118.671 248.372 118.778C248.5 118.892 248.653 118.938 248.787 119.048C248.845 119.095 249.067 119.045 249.067 118.956Z" fill="#CC6144"/>
<path d="M265.315 137.181C265.853 137.93 267.017 138.319 267.851 137.817C267.913 137.779 267.909 137.732 267.828 137.736C267.083 137.771 266.404 137.559 265.955 136.934C265.847 136.783 265.187 137.003 265.315 137.181Z" fill="#CC6144"/>
<path d="M260.044 122.313C259.961 122.889 259.978 123.352 260.306 123.854C260.586 124.284 260.946 124.6 261.457 124.698C261.515 124.709 261.813 124.648 261.741 124.548C261.466 124.165 261.047 123.948 260.805 123.518C260.589 123.134 260.393 122.685 260.364 122.246C260.359 122.163 260.055 122.236 260.044 122.313Z" fill="#CC6144"/>
<path d="M277.082 125.824C277.135 125.824 277.264 125.744 277.152 125.744C277.098 125.744 276.969 125.824 277.082 125.824Z" fill="#CC6144"/>
<path d="M277.869 125.674C278.335 125.434 279.001 124.728 278.557 124.197C278.522 124.156 278.389 124.205 278.371 124.247C278.149 124.749 278.104 125.288 277.558 125.569C277.248 125.728 277.725 125.749 277.869 125.674Z" fill="#CC6144"/>
<path d="M277.165 211.027C277.367 208.012 278.747 205.654 280.597 203.32C282.032 201.51 283.822 200.338 285.467 198.779C285.646 198.609 285.463 198.288 285.225 198.361C282.824 199.11 280.88 201.55 279.443 203.496C277.938 205.536 275.849 208.411 276.772 211.08C276.847 211.294 277.15 211.254 277.165 211.027Z" fill="#874C2E"/>
<path d="M276.808 212.819C277.569 211.893 278.05 210.759 278.719 209.763C279.511 208.583 280.431 207.486 281.447 206.492C281.644 206.3 283.527 204.378 283.709 205.92C283.825 206.895 281.875 207.261 281.302 207.609C280.658 208 280.223 208.307 280.222 209.099C280.221 209.356 280.603 209.483 280.726 209.236C281.492 207.697 284.255 207.748 284.546 205.686C284.663 204.857 283.996 204.328 283.187 204.413C281.733 204.566 280.217 206.686 279.401 207.701C278.261 209.121 276.919 210.886 276.647 212.725C276.636 212.808 276.74 212.903 276.808 212.819Z" fill="#874C2E"/>
<path d="M248.611 250.251C248.617 252.706 248.573 255.082 247.712 257.419C246.856 259.746 245.3 261.521 243.859 263.488C243.749 263.637 243.957 263.806 244.098 263.727C248.304 261.399 250.433 254.652 248.995 250.199C248.929 249.994 248.61 250.024 248.611 250.251Z" fill="#874C2E"/>
<path d="M267.341 227.66C266.738 231.446 266.037 234.89 264.082 238.257C262.138 241.602 259.365 244.506 256.115 246.607C255.855 246.775 256.087 247.178 256.359 247.023C262.871 243.314 268.354 235.513 267.905 227.736C267.888 227.434 267.394 227.322 267.341 227.66Z" fill="#874C2E"/>
<path d="M288.673 131.351C289.491 131.017 290.542 130.699 291.062 129.939C291.141 129.822 291.034 129.673 290.907 129.67C290.014 129.644 289.144 130.299 288.419 130.75C288.119 130.938 288.313 131.498 288.673 131.351Z" fill="#874C2E"/>
<path d="M288.791 133.474C289.284 133.813 290.092 134.126 290.658 133.779C290.822 133.679 290.828 133.432 290.658 133.333C290.425 133.199 290.146 133.165 289.888 133.102C289.606 133.034 289.329 132.945 289.061 132.834C288.673 132.676 288.485 133.264 288.791 133.474Z" fill="#874C2E"/>
<path d="M288.035 137.506C288.516 137.793 289.159 138.252 289.747 138.213C289.889 138.204 289.998 138.052 289.916 137.918C289.605 137.414 288.884 137.164 288.368 136.938C287.989 136.772 287.663 137.284 288.035 137.506Z" fill="#874C2E"/>
<path d="M32.9082 273.045H52.1581H84.5419H98.031H132.063H382.219H394.678H405.24" stroke="black" stroke-width="2.1886" stroke-miterlimit="10" stroke-linecap="round"/>
<path d="M28.2011 273.048H7.33594" stroke="black" stroke-width="2.1886" stroke-miterlimit="10" stroke-linecap="round"/>
<path d="M411.748 273.048H408.25" stroke="black" stroke-width="2.1886" stroke-miterlimit="10" stroke-linecap="round"/>
<path d="M363.39 268.756H245.478C244.339 268.756 243.412 269.682 243.412 270.821V270.971C243.412 272.11 244.339 273.036 245.478 273.036H363.39C364.529 273.036 365.456 272.11 365.456 270.971V270.821C365.456 269.682 364.529 268.756 363.39 268.756Z" fill="#2D2442"/>
<path d="M386.413 216.264C361.879 216.016 337.343 215.768 312.809 215.521C309.324 215.485 305.84 215.45 302.356 215.415C301.815 215.409 301.117 215.73 300.889 216.256C294.148 231.81 287.406 247.363 280.665 262.918C279.703 265.137 278.741 267.357 277.779 269.577C277.747 269.65 277.73 269.724 277.708 269.797C277.707 269.798 277.706 269.8 277.706 269.8C277.685 269.872 277.664 269.944 277.652 270.015C277.459 270.915 277.917 271.972 279.026 272.108C279.284 272.183 279.548 272.199 279.797 272.136C305.014 272.332 330.231 272.53 355.448 272.726C359.048 272.755 362.648 272.782 366.248 272.811C367.052 272.817 367.62 272.268 367.887 271.564C374.608 253.847 381.33 236.13 388.051 218.413C388.454 217.355 387.431 216.274 386.413 216.264Z" fill="#2D2442"/>
<path d="M386.413 215.099C363.766 214.87 341.118 214.641 318.47 214.412C315.712 214.385 312.954 214.357 310.195 214.329C307.7 214.304 304.816 213.867 302.356 214.249C298.7 214.818 297.761 220.559 296.511 223.445C292.017 233.814 287.523 244.183 283.028 254.552C281.103 258.994 279.173 263.434 277.253 267.878C276.528 269.555 275.821 271.583 277.729 272.856C278.692 273.498 280.153 273.298 281.199 273.312C284 273.35 286.802 273.356 289.605 273.377C295.208 273.421 300.812 273.464 306.416 273.508C317.624 273.596 328.831 273.684 340.039 273.771C345.625 273.814 351.212 273.858 356.799 273.902C359.048 273.919 361.299 273.936 363.548 273.954C365.284 273.968 367.003 274.3 368.347 273.025C369.801 271.644 370.293 268.495 370.978 266.688C371.962 264.094 372.946 261.502 373.929 258.909C376.224 252.859 378.519 246.81 380.814 240.76C382.945 235.142 385.077 229.524 387.208 223.907C388.275 221.094 391.245 216.306 386.722 215.139C385.268 214.765 384.648 217.011 386.102 217.387C387.59 217.771 382.515 229.731 382.008 231.067C380.369 235.388 378.729 239.709 377.09 244.031C375.451 248.352 373.811 252.673 372.172 256.995C371.434 258.939 370.696 260.884 369.958 262.828C369.154 264.948 368.573 268.086 367.253 269.958C365.553 272.369 362.012 271.612 359.497 271.593C357.214 271.575 354.929 271.557 352.645 271.539C347.976 271.503 343.306 271.466 338.636 271.43C329.296 271.357 319.956 271.284 310.617 271.211C301.277 271.138 291.937 271.066 282.598 270.993C281.632 270.985 279.996 271.399 279.313 270.541C278.442 269.447 278.933 271.026 279.265 269.055C279.541 267.414 280.769 265.586 281.43 264.06C283.382 259.555 285.335 255.05 287.288 250.544C291.032 241.903 294.778 233.262 298.523 224.621C299.354 222.704 300.024 219.699 301.331 218.141C303.08 216.056 305.848 216.616 308.233 216.64C313.06 216.689 317.887 216.737 322.714 216.786C343.947 217.001 365.179 217.215 386.411 217.429C387.915 217.444 387.915 215.114 386.413 215.099Z" fill="#2D2442"/>
<path d="M329.92 250.003C333.061 250.003 335.608 248.149 335.608 245.861C335.608 243.573 333.061 241.718 329.92 241.718C326.779 241.718 324.232 243.573 324.232 245.861C324.232 248.149 326.779 250.003 329.92 250.003Z" fill="#5A4F72"/>
<path d="M340.854 248.443C342.492 248.443 343.821 247.475 343.821 246.282C343.821 245.088 342.492 244.12 340.854 244.12C339.215 244.12 337.887 245.088 337.887 246.282C337.887 247.475 339.215 248.443 340.854 248.443Z" fill="#5A4F72"/>
<path d="M201.797 257.885C205.427 257.45 211.855 256.476 212.017 254.243C209.668 252.726 207.077 251.192 204.283 251.055C202.055 250.947 199.893 251.767 197.854 252.673C196.12 253.443 194.417 254.285 192.752 255.196C192.069 255.569 190.281 256.905 190.252 257.836C190.217 258.992 192.342 258.309 193.185 258.368C196.063 258.573 198.945 258.228 201.797 257.885Z" fill="#C1ADA4"/>
<path d="M193.221 255.993C193.221 255.993 198.048 271.788 200.603 272.167C203.159 272.545 228.146 272.734 228.809 272.451C229.472 272.167 229.566 271.694 229.566 271.694C229.566 271.694 245.467 272.735 245.751 272.356C246.034 271.978 245.751 270.086 244.994 269.802C244.236 269.518 220.195 264.127 218.113 263.37C216.031 262.614 209.5 262.803 209.5 262.803L208.175 253.629L193.221 255.993Z" fill="#FE8E68"/>
<path d="M199.053 57.801C200.618 59.4769 201.468 61.8003 201.352 64.0902C201.283 65.4552 200.889 66.7812 200.478 68.0852C199.688 70.5952 198.751 73.1954 196.797 74.9601C196.48 75.2461 196.082 75.5223 195.662 75.4463C194.879 73.0357 194.095 70.6243 193.313 68.2137C192.936 67.0552 192.558 65.8918 192.347 64.6922C191.988 62.6641 192.118 60.541 192.804 58.5996C193.116 57.7179 193.564 56.8463 194.309 56.2798C196.123 54.8991 197.82 56.4814 199.053 57.801Z" fill="#433735"/>
<path d="M152.751 191.421C152.498 193.891 152.878 196.5 153.016 198.969C153.094 200.372 153.172 201.78 153.169 203.186C153.167 204.001 152.925 204.994 153.205 205.761C153.235 205.842 153.352 205.898 153.418 205.817C154.51 204.487 153.891 201.315 153.841 199.713C153.754 196.95 153.623 194.184 153.516 191.421C153.497 190.922 152.801 190.939 152.751 191.421Z" fill="#9B8580"/>
<path d="M159.793 186.549C157.165 192.513 155.706 198.582 152.104 204.157C151.9 204.473 152.406 204.766 152.608 204.451C155.792 199.451 159.257 192.59 160.093 186.675C160.115 186.511 159.875 186.362 159.793 186.549Z" fill="#9B8580"/>
<path d="M102.029 273.048L103.646 218.479L115.516 273.048H149.554C147.292 254.894 137.257 179.019 126.771 172.587L85.5738 146.953C85.5738 146.953 61.7338 153.167 62.2545 187.602C64.1589 220.77 68.2163 259.803 69.6469 273.047H102.029V273.048Z" fill="#2D2442"/>
<path d="M211.923 254.299C211.038 255.637 206.54 254.632 205.209 254.761C204.02 254.876 202.892 255.326 201.735 255.627C198.053 256.587 193.94 256.083 190.629 257.959C190.526 258.017 190.409 258.079 190.295 258.045C190.17 258.007 190.11 257.869 190.065 257.746C187.951 251.895 186.298 245.789 184.447 239.826C181.666 230.866 178.883 221.906 176.102 212.945C174.665 208.317 173.228 203.688 171.791 199.06L161.686 152.259L166.178 119.269L167.243 111.486L167.321 110.895C167.321 110.895 167.538 110.973 167.942 111.112C169.349 111.609 172.963 112.961 176.967 114.911C183.38 118.041 190.795 122.733 191.806 128.046C191.808 128.065 191.811 128.083 191.813 128.102C192.348 131.826 192.947 135.541 193.532 139.257C194.571 145.849 195.623 152.44 196.678 159.03C197.99 167.229 199.308 175.428 200.629 183.627C202.004 192.17 203.383 200.712 204.764 209.254C205.996 216.876 207.23 224.499 208.464 232.12C209.345 237.558 210.226 242.995 211.109 248.432C211.353 249.937 211.597 251.441 211.841 252.945C211.884 253.21 212.11 253.825 212.026 254.083C212.001 254.161 211.967 254.233 211.923 254.299Z" fill="#EED9CE"/>
<path d="M167.326 110.896L167.248 111.487L166.183 119.27L161.691 152.26L139.701 165.799C138.552 166.506 137.564 171.367 137.096 172.584C135.578 176.539 134.253 180.647 132.517 184.511C132.162 185.303 131.843 187.46 131.054 187.942C129.469 188.911 123.023 187.582 121.033 187.454C113.663 186.981 106.215 185.899 99.4744 182.725C94.1455 180.216 89.4261 176.665 84.4105 173.618C81.3454 171.757 77.928 170.594 74.684 169.097C72.5175 168.098 67.835 166.181 67.0004 163.634C66.7596 162.899 67.1325 162.118 67.4877 161.431C69.0362 158.433 70.0661 154.822 71.8952 152.039C73.5816 149.473 75.6585 147.159 77.303 144.53C80.6124 139.241 83.5332 133.654 87.6666 128.935C94.7024 120.902 100.614 111.723 107.863 103.712C111.08 100.155 121.108 96.7679 125.904 96.5734C130.264 96.3945 134.493 97.1093 138.193 98.1422C141.17 98.9812 143.813 100.022 145.896 100.962C148.951 102.344 150.808 103.517 150.808 103.517L167.326 110.896Z" fill="#EED9CE"/>
<path d="M175.451 154.783C177.767 153.36 188.587 146.459 189.555 143.965C190.005 142.808 192.461 139.245 194.58 135.902C195.835 133.924 199.014 130.042 199.817 129.211C201.193 127.785 203.18 124.252 204.38 125.414C205.875 126.862 203.54 130.484 202.224 132.706C201.741 133.521 201.222 134.34 201.013 135.263C200.804 136.188 200.851 136.876 201.393 137.653C201.689 138.077 203.711 138.278 204.389 138.249C209.499 138.025 211.716 138.325 215.528 136.907C219.339 135.488 222.9 133.486 226.495 131.586C227.112 131.26 227.485 130.592 228.876 130.463C229.57 130.4 231.039 130.494 230.961 131.186C230.9 131.725 226.607 135.076 226.164 135.39C223.785 137.079 224.052 136.889 221.673 138.579C221.303 138.842 220.905 139.146 220.814 139.59C220.738 139.963 220.9 140.34 220.908 140.721C220.921 141.401 220.45 141.985 219.987 142.484C219.173 143.359 218.307 144.176 217.403 144.951C216.138 146.033 217.171 146.957 215.793 147.907C214.273 148.955 210.335 150.02 208.778 151.005C207.532 151.794 206.278 152.586 204.91 153.133C203.27 153.788 201.512 154.074 199.783 154.431C195.043 155.408 186.749 163.99 182.739 166.825" fill="#FE8E68"/>
<path d="M202.664 153.802C202.664 153.802 208.621 153.049 213.359 150.847C218.099 148.645 229.811 141.423 229.811 141.423C229.811 141.423 229.973 141.012 229.848 140.726C229.724 140.44 227.945 140.044 226.511 140.666C225.078 141.289 215.901 145.269 215.901 145.269" fill="#FE8E68"/>
<path d="M201.48 151.804C201.48 151.804 209.028 150.231 213.768 148.029C218.507 145.827 230.219 138.605 230.219 138.605C230.219 138.605 230.381 138.194 230.257 137.907C230.132 137.62 228.354 137.224 226.919 137.847C225.485 138.468 216.309 142.45 216.309 142.45" fill="#FE8E68"/>
<path d="M203.867 147.466C203.867 147.466 211.414 145.892 216.154 143.69C220.894 141.488 228.253 137.724 232.422 134.881C232.697 134.693 232.768 133.855 232.644 133.569C232.52 133.282 230.74 132.887 229.307 133.509C227.873 134.131 218.697 138.111 218.697 138.111" fill="#FE8E68"/>
<path d="M175.872 102.287C175.872 102.287 194.138 113.421 198.413 90.8939C199.449 81.573 200.745 66.4256 192.972 60.5027C185.199 54.5797 167.321 53.9004 166.932 71.4747C167.612 76.5238 167.418 76.9121 167.418 76.9121C167.418 76.9121 160.714 75.0672 162.171 83.4178C162.949 87.2049 163.953 88.5642 163.953 88.5642C163.953 88.5642 150.235 99.2985 150.221 99.3098C148.959 100.298 147.901 101.943 146.151 101.15C145.96 101.063 145.774 100.953 145.567 100.919C145.359 100.885 145.117 100.948 145.016 101.132C144.952 101.248 144.957 101.389 144.953 101.522C144.935 102.193 144.67 102.829 144.491 103.474C143.8 105.955 144.516 108.276 145.823 110.414C146.934 112.233 148.505 113.776 150.369 114.816C152.152 115.81 154.153 116.351 156.162 116.715C158.689 117.172 161.371 117.348 163.872 116.653C165.405 116.227 166.448 115.75 167.519 114.507C167.719 114.274 167.909 114.029 168.044 113.754C168.351 113.132 168.362 112.41 168.356 111.717C168.356 111.62 168.351 111.515 168.287 111.443C168.221 111.367 168.111 111.351 168.012 111.335C166.898 111.146 167.632 110.564 168.099 110.076C168.562 109.593 169.028 109.114 169.496 108.637C170.479 107.635 171.47 106.641 172.464 105.65C173.596 104.524 174.73 103.401 175.872 102.287Z" fill="#FE8E68"/>
<path d="M189.472 83.6926C190.184 83.6926 190.761 82.5551 190.761 81.152C190.761 79.7489 190.184 78.6115 189.472 78.6115C188.76 78.6115 188.184 79.7489 188.184 81.152C188.184 82.5551 188.76 83.6926 189.472 83.6926Z" fill="#56211A"/>
<path d="M192.261 72.4096C189.474 71.386 184.671 72.4848 182.907 74.9679C182.787 75.1375 182.989 75.4122 183.188 75.3334C184.588 74.779 185.762 73.8868 187.246 73.4658C188.907 72.9945 190.489 73.1272 192.175 73.047C192.55 73.0293 192.603 72.5352 192.261 72.4096Z" fill="#433735"/>
<path d="M199.092 78.8294C198.672 80.1795 199.095 81.7192 199.643 83.0225C200.19 84.3257 201.032 85.4814 201.867 86.6235C202.242 87.1374 202.617 87.6514 202.993 88.1653C201.817 88.5557 200.672 89.0377 199.572 89.6056C198.91 89.947 198.198 90.4098 198.066 91.1424" fill="#FE8E68"/>
<path d="M190.684 92.5053C191.47 92.7743 192.318 92.8673 193.143 92.7651C193.226 92.7551 193.322 92.748 193.378 92.8098C193.414 92.8496 193.421 92.9063 193.425 92.9596C193.479 93.7738 193.13 94.5546 192.788 95.2957C192.559 95.7933 192.324 96.2987 191.963 96.7118C191.206 97.5778 189.506 98.1272 188.426 97.5991C187.941 97.362 187.584 96.9226 187.305 96.4598C186.547 95.202 186.013 93.0739 186.657 91.6549C187.086 90.7065 187.199 91.0572 188.033 91.4405C188.805 91.7947 189.609 92.0772 190.392 92.3953C190.488 92.435 190.585 92.4712 190.684 92.5053Z" fill="#FFFBF9"/>
<path d="M176.52 150.835C163.193 157.019 142.448 168.183 142.448 168.183L139.468 146.693L108.117 146.952C108.117 146.952 117.186 196.924 124.181 201.585C124.181 201.585 132.472 207.799 145.946 198.478C154.837 192.327 175.524 176.151 185.686 167.31L176.52 150.835Z" fill="#EED9CE"/>
<path d="M117.62 187.057C117.417 183.622 115.788 179.896 114.913 176.576C113.671 171.86 112.425 167.147 111.264 162.411C109.166 153.854 107.378 145.246 105.507 136.641C105.452 136.391 105.032 136.441 105.054 136.702C105.75 145.281 108.019 153.866 110.084 162.195C111.223 166.788 112.394 171.377 113.681 175.93C114.675 179.447 115.378 184.001 117.28 187.148C117.37 187.296 117.631 187.243 117.62 187.057Z" fill="#DBC4BD"/>
<path d="M184.927 166.18C178.418 170.471 172.619 176.098 167.283 181.742C166.816 182.236 167.561 182.983 168.03 182.489C173.458 176.771 179.454 171.939 185.479 166.895C185.874 166.564 185.358 165.896 184.927 166.18Z" fill="#DBC4BD"/>
<path d="M163.172 157.74C165.322 157.417 167.481 156.315 169.423 155.363C171.115 154.533 173.344 153.744 174.459 152.177C174.658 151.897 174.33 151.62 174.061 151.66C172.221 151.938 170.441 153.433 168.78 154.263C166.851 155.226 164.714 155.935 162.896 157.086C162.535 157.315 162.784 157.798 163.172 157.74Z" fill="#DBC4BD"/>
<path d="M145.331 100.609C142.923 98.135 140.563 102.542 139.84 104.551C137.906 109.927 139.061 116.333 140.627 121.639C142.533 128.098 145.721 134.009 147.423 140.552C149.362 148.003 150.791 155.468 150.499 163.198C150.481 163.675 151.206 163.668 151.237 163.198C151.9 153.12 149.473 141.85 145.711 132.527C143.811 127.818 141.68 123.292 140.556 118.308C139.924 115.507 139.524 112.58 139.656 109.703C139.707 108.577 141.639 97.8447 144.828 101.111C145.148 101.439 145.65 100.937 145.331 100.609Z" fill="#9B8580"/>
<path d="M169.328 109.889C169.936 110.902 170.544 111.915 171.152 112.929C171.273 113.607 171.395 114.284 171.516 114.962C171.578 115.705 171.546 116.466 171.497 117.209C171.362 119.233 170.861 121.221 170.533 123.218C169.9 127.073 169.409 130.948 168.751 134.8C167.483 142.227 165.785 149.558 163.384 156.705C163.251 157.1 163.868 157.264 164.005 156.876C167.357 147.32 169.184 137.395 170.68 127.404C171.372 122.778 175.321 111.74 169.084 109.339C168.833 109.242 168.593 109.528 168.66 109.762C168.68 109.832 168.7 109.901 168.719 109.971C168.816 110.312 169.312 110.235 169.328 109.889Z" fill="#9B8580"/>
<path d="M160.681 201.293C160.686 200.661 160.112 200.02 159.45 200.064C154.97 200.364 150.49 200.664 146.01 200.964C145.332 201.01 144.8 201.491 144.78 202.194C144.585 209.089 144.953 216.062 144.585 222.946C144.552 223.574 145.177 224.224 145.816 224.176C150.231 223.841 154.651 223.545 159.062 223.167C159.098 223.164 159.129 223.154 159.163 223.149C159.666 223.18 160.146 222.921 160.249 222.265C161.311 215.494 160.629 208.138 160.681 201.293Z" fill="#D6CED7"/>
<path d="M161.533 80.5906C159.52 80.8631 157.99 81.3444 156.525 79.4995C155.939 78.7606 155.466 77.9854 154.553 77.6419C154.436 77.5978 154.343 77.7689 154.431 77.8498C155.569 78.8876 156.386 80.67 157.883 81.2415C159.068 81.6936 160.534 81.3678 161.631 80.8234C161.773 80.7531 161.663 80.5728 161.533 80.5906Z" fill="#594C4A"/>
<path d="M189.15 87.5924C192.584 87.5924 195.368 84.8103 195.368 81.3785C195.368 77.9466 192.584 75.1645 189.15 75.1645C185.716 75.1645 182.932 77.9466 182.932 81.3785C182.932 84.8103 185.716 87.5924 189.15 87.5924Z" stroke="#F9F9F9" stroke-width="1.0943" stroke-miterlimit="10"/>
<path d="M195.556 79.7472C195.785 79.6138 195.883 79.4001 196.086 79.2291C196.382 78.9778 196.773 78.8365 197.151 78.7677C197.502 78.7031 197.873 78.7023 198.208 78.833C198.522 78.9558 198.596 79.2489 198.882 79.3739C198.961 79.4087 199.034 79.3916 199.086 79.3206C199.108 79.2894 199.131 79.2582 199.154 79.2269C199.214 79.1439 199.194 79.0324 199.154 78.9473C198.789 78.1678 197.75 78.099 197.01 78.2559C196.378 78.3893 195.243 78.8727 195.36 79.667C195.373 79.7551 195.489 79.7863 195.556 79.7472Z" fill="#F9F9F9"/>
<path d="M161.444 70.2431C164.619 72.5288 184.475 69.725 190.884 66.7898C203.912 60.8228 205.187 50.3072 202.144 48.3324C201.776 48.0939 201.368 47.9036 200.933 47.8511C199.912 47.7276 198.971 48.3615 198.138 48.9649C198.466 47.7759 199.648 42.5947 196.487 40.5397C192.242 37.7806 186.896 42.4464 186.026 43.0277C179.969 47.0788 176.696 47.7709 176.696 47.7709C176.696 47.7709 177.764 37.5555 169.392 45.4036C166.755 47.8752 161.862 50.1801 159.235 52.6624C156.48 55.2647 154.912 59.5195 156.501 63.1539" fill="#433735"/>
<path d="M170.752 64.0533C172.567 65.5305 173.381 67.8964 173.905 70.1764C174.695 73.6092 175.01 77.2635 173.916 80.6118C173.605 81.5637 173.991 85.9612 173.246 85.8391C173.009 85.8008 172.487 82.4312 171.594 80.7141C170.212 78.0543 165.816 77.6873 164.214 79.7749C162.23 82.3609 163.505 84.1809 164.386 86.7591C165.041 88.6742 164.395 91.0813 162.051 91.7457C159.867 92.364 160.494 90.7108 159.623 89.1605C157.75 85.8278 155.787 82.9103 154.528 79.1971C152.544 73.3416 150.91 64.4551 157.042 60.3983C158.576 59.3832 163.633 58.146 165.339 58.8331" fill="#433735"/>
<path d="M189.929 83.0132C190.238 83.0132 190.488 82.6872 190.488 82.2849C190.488 81.8827 190.238 81.5566 189.929 81.5566C189.621 81.5566 189.371 81.8827 189.371 82.2849C189.371 82.6872 189.621 83.0132 189.929 83.0132Z" fill="white"/>
<path d="M169.26 77.118C170.174 78.9196 172.3 79.2752 174.104 79.7274C176.707 80.379 179.486 80.8936 182.178 80.8837C182.648 80.8823 182.618 80.2292 182.178 80.1739C179.87 79.8842 177.578 79.6819 175.298 79.1865C173.426 78.7797 170.876 78.4205 169.602 76.8532C169.439 76.6523 169.153 76.9086 169.26 77.118Z" fill="#F9F9F9"/>
<path d="M172.14 97.8149C173.106 99.6626 174.625 101.481 176.514 102.435C176.601 102.478 176.692 102.371 176.62 102.298C175.128 100.786 173.646 99.3964 172.377 97.6765C172.274 97.5359 172.056 97.6545 172.14 97.8149Z" fill="#CC6144"/>
<path d="M209.386 75.9049C210.274 75.3249 211.228 74.779 211.934 73.9741C211.984 73.9166 211.937 73.7987 211.851 73.8321C210.858 74.2161 210.022 74.9125 209.175 75.5435C208.964 75.7004 209.156 76.0553 209.386 75.9049Z" fill="#433735"/>
<path d="M210.673 78.3737C211.338 78.2317 212.181 78.077 212.746 77.6844C212.895 77.5808 212.84 77.3558 212.655 77.3451C211.966 77.3061 211.167 77.6149 210.526 77.8413C210.191 77.9599 210.323 78.4489 210.673 78.3737Z" fill="#433735"/>
<path d="M210.913 81.4189C211.328 81.3075 211.74 81.2117 212.168 81.1641C212.516 81.1251 212.873 81.1279 213.214 81.0498C213.314 81.0271 213.341 80.8688 213.244 80.8227C212.507 80.4663 211.51 80.6395 210.78 80.9334C210.486 81.0512 210.592 81.5055 210.913 81.4189Z" fill="#433735"/>
<path d="M79.5141 172.293C77.7042 172.236 77.7774 175.059 77.6111 176.269C77.3853 177.907 76.925 180.023 78.335 181.263C78.5786 181.477 78.9054 181.319 78.938 181.013C78.9466 180.936 78.9544 180.86 78.9629 180.783C78.9814 180.608 78.7761 180.548 78.6496 180.603C78.5687 180.638 78.4877 180.673 78.4067 180.708C78.568 180.75 78.7292 180.793 78.8904 180.835C78.0615 179.573 78.1517 178.348 78.3321 176.923C78.5133 175.488 78.4103 173.583 79.6427 172.601C79.772 172.498 79.6562 172.297 79.5141 172.293Z" fill="black"/>
<path d="M81.5788 173.673C80.4508 175.535 80.1787 178.988 81.0979 180.97C81.2065 181.205 81.5468 181.07 81.556 180.845C81.605 179.651 81.3152 178.482 81.3863 177.275C81.4566 176.083 81.8046 174.945 81.9091 173.763C81.9254 173.58 81.664 173.533 81.5788 173.673Z" fill="black"/>
<path d="M116.56 188.691C116.321 189.43 116.093 190.176 115.766 190.883C115.465 191.53 115.011 192.096 114.727 192.746C114.594 193.051 114.933 193.352 115.201 193.112C116.307 192.121 116.917 190.194 117.024 188.754C117.044 188.478 116.639 188.449 116.56 188.691Z" fill="black"/>
<path d="M118.138 191.223C117.913 192.037 117.541 192.713 117.165 193.461C117.005 193.779 117.445 194.186 117.693 193.867C118.257 193.142 118.52 192.189 118.584 191.283C118.603 191.024 118.205 190.981 118.138 191.223Z" fill="black"/>
<path d="M64.3382 172.193C66.5793 173.542 68.9284 174.681 71.1581 176.083C73.1051 177.308 75.1494 178.455 77.463 178.762C77.8032 178.807 77.8771 178.236 77.5439 178.164C74.8568 177.577 72.659 176.286 70.3668 174.819C68.6073 173.692 66.5474 172.146 64.3915 171.996C64.2835 171.989 64.253 172.141 64.3382 172.193Z" fill="black"/>
<path d="M81.3121 179.216C86.9812 182.152 92.3321 185.785 98.1398 188.436C100.8 189.65 103.591 190.497 106.454 191.081C109.167 191.635 112.378 192.389 115.138 192.092C115.418 192.062 115.524 191.646 115.209 191.567C112.252 190.823 109.047 190.888 106.039 190.232C103.019 189.574 100.128 188.598 97.3513 187.239C91.9833 184.613 87.0984 180.909 81.506 178.756C81.2397 178.653 81.0606 179.086 81.3121 179.216Z" fill="black"/>
<path d="M107.014 219.585C107.915 218.544 108.836 217.512 109.878 216.61C110.468 216.1 113.483 213.422 114.407 214.318C114.495 214.403 114.661 214.319 114.62 214.194C114.159 212.771 112.141 214.24 111.469 214.683C109.596 215.917 107.948 217.485 106.794 219.415C106.715 219.549 106.908 219.708 107.014 219.585Z" fill="black"/>
<path d="M100.26 218.757C97.4923 216.019 93.8042 214.109 89.8669 213.948C89.7554 213.944 89.7305 214.119 89.8406 214.143C93.6472 215.011 97.0121 216.439 99.9514 219.064C100.16 219.25 100.461 218.955 100.26 218.757Z" fill="black"/>
<path d="M106.736 221.398C110.124 222.592 112.783 224.702 113.56 228.37C113.73 228.24 113.9 228.109 114.07 227.978C113.193 227.416 112.439 226.721 111.796 225.903C111.339 225.322 111.012 224.545 110.482 224.029C109.902 223.467 108.983 223.278 108.294 223.725C108.255 223.75 108.279 223.822 108.327 223.804C109.864 223.237 110.737 225.615 111.459 226.505C112.116 227.315 112.887 227.961 113.72 228.578C113.986 228.775 114.283 228.451 114.23 228.186C113.529 224.701 110.52 221.233 106.789 221.014C106.556 221 106.538 221.328 106.736 221.398Z" fill="black"/>
<path d="M63.9334 195.255C67.4012 193.113 70.565 190.482 72.463 186.809C72.6981 186.354 72.0113 185.951 71.7754 186.407C69.9364 189.965 66.8905 192.493 63.5314 194.568C63.0966 194.837 63.4958 195.526 63.9334 195.255Z" fill="black"/>
<path d="M105.385 191.225C105.624 194.809 106.155 198.31 106.08 201.919C106.002 205.703 105.521 209.461 104.695 213.153C104.617 213.503 105.156 213.653 105.235 213.302C106.054 209.666 106.547 205.982 106.642 202.255C106.733 198.624 106.665 194.707 105.684 191.185C105.639 191.024 105.373 191.049 105.385 191.225Z" fill="black"/>
<path d="M104.735 214.707C104.396 215.275 104.337 216.018 104.213 216.661C104.104 217.23 103.88 217.879 104.065 218.442C104.1 218.551 104.235 218.564 104.298 218.473C104.646 217.969 104.63 217.253 104.739 216.659C104.85 216.05 105.083 215.408 105.036 214.789C105.024 214.634 104.821 214.562 104.735 214.707Z" fill="black"/>
<path d="M110.433 191.614C110.336 194.445 110.445 197.292 110.472 200.125C110.498 202.77 110.745 205.515 110.478 208.15C110.038 212.491 105.809 214.701 104.227 218.515C104.121 218.769 104.562 218.957 104.676 218.704C106.34 215.029 110.423 212.969 111.085 208.777C111.491 206.202 111.173 203.433 111.129 200.836C111.078 197.767 111.117 194.679 110.931 191.615C110.911 191.296 110.444 191.291 110.433 191.614Z" fill="black"/>
<path d="M142.59 109.888C142.531 115.183 148.112 118.525 152.879 118.992C153.258 119.029 153.276 118.483 152.963 118.368C150.726 117.542 148.458 117.121 146.48 115.683C144.588 114.308 143.195 112.243 142.93 109.888C142.906 109.676 142.593 109.664 142.59 109.888Z" fill="#C1ADA4"/>
<path d="M155.857 118.957C156.606 119.122 157.359 119.112 158.122 119.123C158.896 119.134 159.634 119.163 160.373 118.905C160.547 118.844 160.547 118.613 160.373 118.552C159.634 118.293 158.896 118.322 158.122 118.334C157.359 118.345 156.605 118.334 155.857 118.5C155.631 118.549 155.631 118.907 155.857 118.957Z" fill="#C1ADA4"/>
<path d="M105.056 138.145C104.926 136.825 104.521 135.687 103.636 134.682C102.957 133.91 101.535 132.764 100.437 133.044C100.246 133.093 100.154 133.371 100.315 133.508C100.689 133.827 101.13 133.884 101.572 134.092C102.11 134.346 102.595 134.695 103.029 135.1C103.897 135.911 104.568 137.01 104.767 138.184C104.794 138.346 105.073 138.31 105.056 138.145Z" fill="#C1ADA4"/>
<path d="M170.338 85.5268C170.918 83.6244 168.984 79.7849 166.653 80.5976C165.97 80.8354 166.407 81.1669 166.94 81.0214C167.508 80.8667 168.609 82.7563 168.781 83.0821C169.214 83.9069 169.287 84.8468 169.701 85.6617C169.788 85.8313 170.292 85.6823 170.338 85.5268Z" fill="#CC6144"/>
<path d="M168.959 82.779C168.941 82.1451 168.37 81.8179 167.78 81.8803C167.468 81.9137 167.126 82.0188 166.875 82.2125C166.724 82.329 166.518 82.5824 166.681 82.7499C166.77 82.8422 167.015 82.74 167.095 82.6832C167.326 82.522 167.45 82.2523 167.719 82.3687C167.972 82.478 168.154 82.7151 168.236 82.9721C168.3 83.1772 168.966 82.9877 168.959 82.779Z" fill="#CC6144"/>
<path d="M187.706 82.7939C187.806 83.5073 188.297 83.9744 189.033 83.9502C189.062 83.9495 189.275 83.8942 189.212 83.8395C189.031 83.6805 188.807 83.5832 188.623 83.42C188.407 83.2283 188.179 82.9643 188.067 82.6974C188.027 82.5994 187.691 82.6888 187.706 82.7939Z" fill="#CC6144"/>
<path d="M138.076 131.031C138.338 138.507 139.253 145.949 140.211 153.364C140.702 157.169 140.911 161.528 141.966 165.105C142.078 165.486 142.595 165.317 142.544 164.946C142.544 164.941 142.543 164.937 142.542 164.932C142.49 164.552 141.912 164.713 141.964 165.091C141.965 165.096 141.965 165.1 141.966 165.105C142.159 165.052 142.352 164.999 142.544 164.946C142.595 165.12 142.558 164.318 142.542 164.131C142.478 163.368 142.329 162.606 142.221 161.848C141.806 158.947 141.412 156.043 141.036 153.137C140.086 145.785 139.241 138.412 138.552 131.03C138.523 130.733 138.066 130.721 138.076 131.031Z" fill="#C1ADA4"/>
<path d="M150.948 163.669C148.026 164.307 145.319 165.638 142.611 166.912C139.813 168.227 136.922 169.471 134.372 171.234C134.189 171.36 134.295 171.681 134.53 171.61C140.312 169.87 145.583 166.406 151.09 164.004C151.288 163.918 151.141 163.627 150.948 163.669Z" fill="#C1ADA4"/>
<path d="M201.239 195.059C200.463 197.829 200.291 200.549 199.132 203.247C197.91 206.095 196.106 208.304 194.195 210.704C193.962 210.996 194.314 211.354 194.606 211.115C196.943 209.197 198.669 206.291 199.848 203.548C200.921 201.053 202.021 197.811 201.584 195.059C201.555 194.877 201.283 194.9 201.239 195.059Z" fill="#C1ADA4"/>
<path d="M77.3345 169.822C76.6775 167.583 76.1582 165.258 76.1128 162.918C76.0666 160.511 76.6903 158.311 77.0568 155.967C77.1023 155.675 76.7038 155.444 76.5418 155.75C74.3384 159.888 74.9287 165.923 76.8927 170.009C77.0128 170.257 77.4105 170.082 77.3345 169.822Z" fill="#C1ADA4"/>
<path d="M83.71 172.916C83.1624 171.497 82.5479 170.093 82.1423 168.624C81.9903 168.073 81.3489 166.319 81.6813 165.902C82.9876 165.298 83.6972 165.589 83.8102 166.776C83.8961 167.282 83.9309 167.793 83.9146 168.305C83.9153 168.542 84.2818 168.603 84.3365 168.362C84.6249 167.089 83.5047 162.815 81.4966 164.398C80.6236 165.085 81.0761 166.817 81.2651 167.698C81.6671 169.575 82.5628 171.329 83.3172 173.081C83.4131 173.303 83.7981 173.144 83.71 172.916Z" fill="#C1ADA4"/>
<path d="M97.273 181.322C95.7593 178.884 95.0788 176.439 94.3046 173.72C94.2584 173.557 94.0211 173.594 94.0147 173.759C93.8982 176.557 95.2656 179.416 96.9924 181.539C97.121 181.698 97.3789 181.493 97.273 181.322Z" fill="#C1ADA4"/>
<path d="M109.416 186.056C111.53 185.865 114.336 184.287 114.681 181.966C114.711 181.766 114.466 181.551 114.3 181.743C113.64 182.509 113.177 183.381 112.388 184.047C111.525 184.776 110.441 185.299 109.355 185.598C109.11 185.666 109.148 186.08 109.416 186.056Z" fill="#C1ADA4"/>
<path d="M109.47 183.688C110.849 183.215 112.551 181.991 112.797 180.439C112.827 180.253 112.592 180.048 112.438 180.231C111.977 180.779 111.645 181.406 111.127 181.915C110.589 182.445 109.937 182.858 109.25 183.164C108.954 183.296 109.164 183.793 109.47 183.688Z" fill="#C1ADA4"/>
<path d="M187.234 100.809C187.871 100.545 188.315 100.966 188.906 101.129C188.969 101.147 189.145 101.126 189.166 101.045C189.294 100.568 188.644 100.404 188.279 100.37C187.815 100.325 187.31 100.414 186.938 100.708C186.729 100.874 187.153 100.843 187.234 100.809Z" fill="#CC6144"/>
<path d="M392.95 68.986H317.3C310.87 68.986 305.378 73.6199 304.3 79.9545L297.766 118.367C296.397 126.412 302.6 133.752 310.766 133.752H311.149L308.203 149.499L322.753 133.752H386.416C392.846 133.752 398.338 129.118 399.415 122.784L405.95 84.3712C407.318 76.3265 401.115 68.986 392.95 68.986Z" fill="#EED9CE"/>
<g opacity="0.16">
<path d="M349.54 83.4675C357.6 83.9012 365.685 84.0042 373.754 84.1824C377.731 84.2704 381.708 84.3577 385.685 84.4457C389.728 84.5351 393.941 84.9646 397.968 84.5919C398.383 84.5536 398.565 83.8615 398.076 83.7941C394.251 83.2681 390.245 83.4789 386.387 83.3909C382.293 83.2979 378.199 83.2042 374.105 83.1112C365.921 82.9252 357.725 82.659 349.54 82.7321C349.064 82.7364 349.07 83.442 349.54 83.4675Z" fill="black"/>
</g>
<g opacity="0.16">
<path d="M347.36 93.2662C355.234 93.7205 363.12 93.9413 371.008 93.9065C374.895 93.8895 378.783 93.8121 382.668 93.6737C386.454 93.5395 390.356 93.5722 394.102 92.9894C394.635 92.9063 394.483 92.0907 393.979 92.078C390.109 91.9765 386.185 92.4279 382.315 92.5599C378.429 92.6927 374.541 92.7651 370.654 92.7772C362.884 92.8013 355.116 92.5763 347.36 92.1255C346.626 92.0822 346.628 93.2236 347.36 93.2662Z" fill="black"/>
</g>
<g opacity="0.16">
<path d="M347.415 101.084C354.531 101.728 361.688 102.43 368.832 102.704C375.963 102.976 383.15 102.548 390.275 102.303C391.216 102.27 391.219 100.801 390.275 100.837C383.142 101.114 375.973 101.648 368.832 101.411C361.685 101.174 354.564 100.409 347.415 100.15C346.805 100.127 346.824 101.03 347.415 101.084Z" fill="black"/>
</g>
<g opacity="0.16">
<path d="M311.164 108.34C331.45 110.024 351.916 110.131 372.261 110.307C377.104 110.349 381.981 110.448 386.822 110.237C387.616 110.202 387.622 109.018 386.822 108.999C377.427 108.781 368.012 108.977 358.615 108.886C347.643 108.778 336.67 108.59 325.702 108.225C320.854 108.063 316.007 107.942 311.164 107.658C310.723 107.631 310.731 108.304 311.164 108.34Z" fill="black"/>
</g>
<g opacity="0.16">
<path d="M310.302 115.239C330.362 116.908 350.578 117.204 370.696 117.458C375.485 117.519 380.311 117.633 385.097 117.424C385.891 117.389 385.897 116.205 385.097 116.186C375.705 115.963 366.295 116.112 356.9 115.972C346.157 115.812 335.415 115.56 324.679 115.158C319.885 114.978 315.091 114.838 310.302 114.557C309.861 114.53 309.87 115.203 310.302 115.239Z" fill="black"/>
</g>
<g opacity="0.16">
<path d="M314.109 79.5684C313.161 83.0182 313.081 86.5802 313.067 90.1358C313.06 91.9402 313.062 93.7482 312.927 95.5491C312.786 97.4394 312.11 99.2559 312.015 101.119C311.98 101.779 312.908 101.979 313.226 101.446C313.977 100.186 314.079 98.5616 314.25 97.1192C314.475 95.2261 314.505 93.318 314.508 91.4142C314.514 87.5498 314.423 83.7032 315.521 79.9573C315.788 79.0516 314.359 78.659 314.109 79.5684Z" fill="black"/>
</g>
<g opacity="0.16">
<path d="M315.534 80.0546C324.659 80.2335 333.737 80.5266 342.815 81.5417C342.537 81.1776 342.26 80.8134 341.982 80.4493C341.007 87.4121 340.385 94.3572 340.4 101.393C340.402 102.772 342.555 102.775 342.545 101.393C342.499 94.4815 342.792 87.5357 343.678 80.6793C343.742 80.1845 343.229 79.858 342.815 79.8161C333.776 78.9032 324.61 78.417 315.534 78.9622C314.836 79.004 314.824 80.0411 315.534 80.0546Z" fill="black"/>
</g>
<g opacity="0.16">
<path d="M313.59 102.433C318.083 101.923 322.603 101.74 327.122 101.935C329.27 102.028 331.415 102.201 333.549 102.457C334.794 102.606 336.033 102.792 337.273 102.977C338.335 103.135 339.13 103.408 340.14 103.017C340.66 102.816 340.99 102.111 340.495 101.673C339.04 100.387 336.434 100.488 334.561 100.294C332.202 100.05 329.833 99.9075 327.462 99.8621C322.741 99.7712 318.036 100.096 313.362 100.752C312.417 100.885 312.629 102.542 313.59 102.433Z" fill="black"/>
</g>
<g opacity="0.16">
<path d="M317.805 83.8878C317.461 87.5506 317.192 91.2268 317.04 94.9031C317.003 95.8032 318.46 95.8089 318.443 94.9031C318.373 91.2205 318.455 87.5612 318.734 83.8878C318.779 83.2894 317.86 83.3 317.805 83.8878Z" fill="black"/>
</g>
<g opacity="0.16">
<path d="M317.894 95.6073C325.079 96.0588 332.347 96.4336 339.546 96.4456C340.469 96.447 340.455 95.0763 339.546 95.0231C332.362 94.6022 325.089 94.5376 317.894 94.556C317.212 94.5574 317.223 95.5654 317.894 95.6073Z" fill="black"/>
</g>
<g opacity="0.16">
<path d="M321.125 92.5429C321.413 91.6819 321.7 90.8215 321.988 89.9605C322.229 89.2386 322.44 87.7926 322.966 87.2389C324.428 85.7007 326.503 90.4162 326.95 91.0792C327.8 92.3441 329.321 93.3003 330.448 91.7166C331.198 90.6625 331.233 89.2237 331.798 88.0822C331.837 87.4817 332.163 87.119 332.776 86.9933C333.037 87.3241 333.299 87.6542 333.561 87.985C333.99 88.528 334.397 89.1882 334.957 89.6105C335.514 90.0307 336.148 90.1876 336.812 89.9072C337.921 89.4395 337.944 87.8835 338.973 87.4164C341.219 86.3985 337.079 84.0184 337.327 86.473C337.411 87.3021 336.594 88.7658 335.663 88.2831C335.088 87.985 334.552 87.0196 334.116 86.5419C333.572 85.9463 332.868 85.0334 331.923 85.404C331.241 85.6709 331.095 86.4993 330.869 87.0998C330.539 87.9786 330.183 88.8496 329.833 89.7206C329.784 90.4993 329.377 90.8918 328.612 90.8975C328.326 90.5511 328.066 90.1869 327.832 89.8043C326.889 88.4279 325.632 85.3429 323.449 85.7113C322.557 85.8618 322.144 86.5121 321.789 87.2787C321.066 88.8396 320.655 90.6306 320.11 92.2625C319.895 92.9063 320.911 93.1825 321.125 92.5429Z" fill="black"/>
</g>
<path d="M282.287 5.96534H232.458C228.223 5.96534 224.605 9.01767 223.896 13.1901L219.592 38.4918C218.69 43.7908 222.776 48.6255 228.154 48.6255H228.406L223.417 55.878L236.05 48.6255H277.984C282.219 48.6255 285.836 45.5732 286.546 41.4008L290.851 16.0991C291.751 10.8001 287.666 5.96534 282.287 5.96534Z" fill="#D6CED7"/>
<g opacity="0.16">
<path d="M231.18 14.8072C240.24 15.2721 249.318 15.4524 258.387 15.698C262.862 15.8194 267.337 15.9401 271.813 16.0615C276.367 16.185 281.046 16.6251 285.593 16.3262C286.051 16.2964 286.033 15.6803 285.593 15.6277C281.181 15.0975 276.607 15.2721 272.166 15.15C267.573 15.0237 262.979 14.8966 258.387 14.7702C249.321 14.5204 240.249 14.2052 231.18 14.1754C230.771 14.174 230.775 14.7866 231.18 14.8072Z" fill="black"/>
</g>
<g opacity="0.16">
<path d="M228.885 21.2731C237.604 21.6919 246.331 21.9603 255.059 22.0653C259.306 22.1164 263.553 22.1299 267.799 22.1058C272.262 22.0802 276.798 22.2115 281.245 21.8211C281.752 21.7764 281.766 21.0438 281.245 21.0225C276.897 20.8465 272.507 21.1099 268.153 21.1347C263.789 21.1603 259.424 21.1461 255.06 21.0921C246.331 20.9842 237.605 20.7131 228.886 20.2914C228.254 20.2609 228.255 21.2433 228.885 21.2731Z" fill="black"/>
</g>
<g opacity="0.16">
<path d="M227.501 27.1073C244.433 28.4191 261.505 28.5533 278.474 27.957C279.093 27.935 279.096 26.9689 278.474 26.9923C261.463 27.617 244.499 27.299 227.501 26.4919C227.103 26.4727 227.11 27.0768 227.501 27.1073Z" fill="black"/>
</g>
<g opacity="0.16">
<path d="M226.144 33.4015C237.785 34.4251 249.64 35.0782 261.328 34.6594C261.851 34.6409 261.855 33.853 261.328 33.8445C249.583 33.6507 237.88 33.5832 226.144 32.9522C225.852 32.9366 225.859 33.3767 226.144 33.4015Z" fill="black"/>
</g>
<path d="M104.971 20.1253H36.7635C30.9665 20.1253 26.0148 24.3035 25.0431 30.0149L19.1517 64.6481C17.9178 71.9013 23.5102 78.5199 30.8721 78.5199H88.5244L98.5805 91.1842L98.9875 78.5199H99.0791C104.876 78.5199 109.828 74.3418 110.8 68.6304L116.691 33.9971C117.925 26.7439 112.332 20.1253 104.971 20.1253Z" fill="#D6CED7"/>
<g opacity="0.29">
<path d="M60.967 32.9167C69.0491 33.2681 77.1426 33.4093 85.2297 33.5982C89.2146 33.6911 93.2002 33.7848 97.1852 33.8778C101.266 33.9729 105.415 34.2867 109.492 34.0865C109.828 34.0702 109.819 33.6031 109.492 33.5719C105.542 33.1914 101.504 33.3021 97.5368 33.2077C93.4346 33.1098 89.3318 33.0125 85.2297 32.9146C77.144 32.7222 69.0548 32.4816 60.967 32.451C60.6658 32.4503 60.6687 32.9039 60.967 32.9167Z" fill="black"/>
</g>
<g opacity="0.29">
<path d="M58.8191 41.6904C66.5922 42.1212 74.3753 42.3477 82.1605 42.3505C89.8924 42.3534 97.8374 42.5046 105.528 41.6449C105.895 41.6038 105.917 41.0579 105.528 41.0565C97.7451 41.0345 89.9528 41.6386 82.1605 41.6336C74.3753 41.6286 66.5922 41.4001 58.8191 40.967C58.3539 40.9415 58.3553 41.6648 58.8191 41.6904Z" fill="black"/>
</g>
<g opacity="0.29">
<path d="M29.9774 48.9244C53.1689 50.6089 76.5152 50.8466 99.7486 50.0083C100.314 49.9877 100.317 49.1075 99.7486 49.1281C76.4719 49.9686 53.2328 49.5881 29.9774 48.3629C29.6144 48.3437 29.6194 48.8981 29.9774 48.9244Z" fill="black"/>
</g>
<g opacity="0.29">
<path d="M28.1209 57.5774C44.0721 58.8927 60.2725 59.7389 76.2811 59.2157C76.7592 59.2001 76.762 58.4782 76.2811 58.4718C60.2 58.2638 44.1843 58.1261 28.1209 57.1671C27.856 57.1522 27.8603 57.5561 28.1209 57.5774Z" fill="black"/>
</g>
<g opacity="0.29">
<path d="M32.3921 29.3817C31.9091 32.7215 31.1994 36.1571 30.9735 39.5218C30.8379 41.5392 31.7989 42.5081 33.7573 42.8396C37.1371 43.4117 40.6581 43.5289 44.0706 43.8348C46.1156 44.018 49.8427 44.8549 51.5396 43.1697C52.3665 42.3484 52.1562 41.0884 52.1001 40.0364C52.0198 38.5401 51.8508 37.0473 51.8479 35.5474C51.8451 33.6656 52.3942 32.1238 52.814 30.3385C53.0065 29.5201 53.0455 28.7038 52.4922 28.0046C51.1561 26.3144 47.8126 26.9313 45.97 26.9377C42.2294 26.9512 38.4853 27.052 34.7454 27.1215C33.5797 27.1435 33.6316 29.0282 34.7454 28.8983C39.5976 28.3318 44.5912 27.9769 49.4804 28.2097C50.5558 28.2608 51.6561 28.1927 51.6341 30.0134C51.6292 30.433 51.3173 30.9398 51.2001 31.338C50.9181 32.2956 50.7846 33.2851 50.7398 34.2803C50.6922 35.3422 50.7697 36.4084 50.8599 37.4661C50.9536 38.5649 51.3131 39.903 51.1646 40.9954C50.9018 42.9376 49.3369 43.1527 47.6826 43.1065C46.4764 43.0731 45.271 42.9205 44.0691 42.8204C41.6135 42.6153 39.1558 42.4293 36.6988 42.2334C35.6979 42.1539 33.7886 42.3718 32.8957 41.8572C32.2394 41.4788 31.6938 40.2295 31.6526 39.5211C31.6121 38.8269 31.8927 37.777 31.9922 37.0579C32.3367 34.56 32.7622 32.077 33.123 29.5826C33.1947 29.1048 32.4624 28.8983 32.3921 29.3817Z" fill="black"/>
</g>
<g opacity="0.29">
<path d="M39.4838 37.2957C39.7864 35.6624 39.9278 34.0013 40.126 32.3531C40.0393 32.5036 39.9534 32.6541 39.8667 32.8045C40.1629 32.6079 43.0596 36.0833 43.3864 36.4539C43.473 36.1266 43.559 35.8001 43.6457 35.4728C42.3891 35.9832 41.1247 36.4751 39.8731 36.9976C39.1741 37.2893 39.4682 38.4443 40.1928 38.1553C41.4536 37.6528 42.7023 37.1197 43.9582 36.6043C44.3723 36.4347 44.5336 35.9797 44.2175 35.6233C43.4176 34.724 42.6015 33.8416 41.7455 32.9955C41.2661 32.5213 40.528 31.5311 39.7204 31.7057C38.9348 31.8754 39.0442 32.7321 38.9824 33.3589C38.8573 34.6331 38.706 35.9044 38.6663 37.1843C38.6506 37.645 39.3972 37.7642 39.4838 37.2957Z" fill="black"/>
</g>
<path d="M332.724 171.676C333.639 171.676 334.381 170.935 334.381 170.02C334.381 169.106 333.639 168.364 332.724 168.364C331.808 168.364 331.066 169.106 331.066 170.02C331.066 170.935 331.808 171.676 332.724 171.676Z" fill="#2D2442"/>
<path d="M337.966 171.676C338.881 171.676 339.623 170.935 339.623 170.02C339.623 169.106 338.881 168.364 337.966 168.364C337.051 168.364 336.309 169.106 336.309 170.02C336.309 170.935 337.051 171.676 337.966 171.676Z" fill="#2D2442"/>
<path d="M343.202 171.676C344.117 171.676 344.859 170.935 344.859 170.02C344.859 169.106 344.117 168.364 343.202 168.364C342.287 168.364 341.545 169.106 341.545 170.02C341.545 170.935 342.287 171.676 343.202 171.676Z" fill="#2D2442"/>
<path d="M339.116 47.2172C340.031 47.2172 340.773 46.4758 340.773 45.5612C340.773 44.6465 340.031 43.9051 339.116 43.9051C338.201 43.9051 337.459 44.6465 337.459 45.5612C337.459 46.4758 338.201 47.2172 339.116 47.2172Z" fill="#2D2442"/>
<path d="M344.354 47.2172C345.27 47.2172 346.012 46.4758 346.012 45.5612C346.012 44.6465 345.27 43.9051 344.354 43.9051C343.439 43.9051 342.697 44.6465 342.697 45.5612C342.697 46.4758 343.439 47.2172 344.354 47.2172Z" fill="#2D2442"/>
<path d="M349.593 47.2172C350.508 47.2172 351.25 46.4758 351.25 45.5612C351.25 44.6465 350.508 43.9051 349.593 43.9051C348.678 43.9051 347.936 44.6465 347.936 45.5612C347.936 46.4758 348.678 47.2172 349.593 47.2172Z" fill="#2D2442"/>
<path d="M41.7549 110.63C42.6701 110.63 43.412 109.888 43.412 108.974C43.412 108.059 42.6701 107.318 41.7549 107.318C40.8396 107.318 40.0977 108.059 40.0977 108.974C40.0977 109.888 40.8396 110.63 41.7549 110.63Z" fill="#2D2442"/>
<path d="M46.9951 110.63C47.9103 110.63 48.6523 109.888 48.6523 108.974C48.6523 108.059 47.9103 107.318 46.9951 107.318C46.0798 107.318 45.3379 108.059 45.3379 108.974C45.3379 109.888 46.0798 110.63 46.9951 110.63Z" fill="#2D2442"/>
<path d="M52.2334 110.63C53.1486 110.63 53.8906 109.888 53.8906 108.974C53.8906 108.059 53.1486 107.318 52.2334 107.318C51.3181 107.318 50.5762 108.059 50.5762 108.974C50.5762 109.888 51.3181 110.63 52.2334 110.63Z" fill="#2D2442"/>
</svg>
