<svg width="513" height="342" viewBox="0 0 513 342" fill="none" xmlns="http://www.w3.org/2000/svg">
<g filter="url(#filter0_d_172_40)">
<path fill-rule="evenodd" clip-rule="evenodd" d="M334.41 128.123C356.486 128.733 375.214 141.698 383.745 159.992C384.204 160.979 388.905 162.23 393.302 161.262C399.509 159.904 405.914 155.914 405.914 155.914C405.914 155.914 401.485 161.884 396.583 166.855C392.655 170.838 388.026 173.876 388.185 175.039C388.581 177.916 388.739 180.821 388.656 183.724C387.828 213.58 362.194 237.096 331.407 236.243C300.619 235.391 276.332 210.5 277.16 180.653C277.989 150.807 303.62 127.272 334.41 128.123Z" fill="#F4EDE2"/>
<path fill-rule="evenodd" clip-rule="evenodd" d="M184.274 236.657C160.856 247.104 131.64 232.777 119.015 204.652C117.766 201.872 116.708 199.011 115.848 196.088C115.597 195.237 108.794 191.797 102.413 187.195C94.4503 181.446 86.5963 174.397 86.5963 174.397C86.5963 174.397 96.179 179.931 103.971 182.651C108.998 184.405 113.513 184.173 113.444 183.252C111.711 162.137 121.023 142.634 138.56 134.809C161.977 124.362 191.193 138.687 203.817 166.812C216.442 194.937 207.69 226.209 184.274 236.657Z" fill="#566B89"/>
<path fill-rule="evenodd" clip-rule="evenodd" d="M244.165 94.1516C253.428 109.76 246.122 131.154 227.845 141.936C209.569 152.719 187.247 148.809 177.982 133.201C168.718 117.593 176.025 96.198 194.3 85.4158C196.941 83.8544 199.736 82.5686 202.641 81.5786C203.432 81.31 205.331 78.7506 204.725 76.5196C203.666 72.6022 199.299 68.196 199.299 68.196C199.299 68.196 204.495 70.8599 208.875 73.9901C212.115 76.3051 214.674 79.3382 215.567 79.327C227.428 79.1834 238.352 84.373 244.165 94.1516Z" fill="#8E734E"/>
<path fill-rule="evenodd" clip-rule="evenodd" d="M331.493 98.7217C331.493 116.367 309.229 130.669 281.782 130.669C254.334 130.669 232.07 116.367 232.07 98.7217C232.07 81.0766 254.326 66.7818 281.782 66.7818C290.115 66.7818 297.969 68.0988 304.867 70.4269C305.95 70.8 308.068 68.3021 307.536 63.8158C306.788 57.4734 302.998 48.398 302.998 48.398C302.998 48.398 309.171 57.1656 313.213 65.0824C316.116 70.772 317.061 76.2116 317.776 76.6928C326.275 82.4197 331.493 90.178 331.493 98.7217Z" fill="#FED286"/>
<path fill-rule="evenodd" clip-rule="evenodd" d="M228.3 151.187C238.777 143.084 256.21 146.843 267.226 159.582C278.242 172.321 278.672 189.216 268.189 197.317C261.181 202.727 251.071 202.85 241.847 198.528C241.232 198.239 238.553 198.916 235.471 199.041C232.743 199.118 230.012 199.056 227.29 198.854C227.29 198.854 230.596 197.823 232.597 196.392C234.018 195.377 234.481 193.943 233.973 193.521C232.276 192.122 230.7 190.583 229.264 188.919C218.248 176.184 217.817 159.289 228.3 151.187Z" fill="#C6C3B4"/>
<path fill-rule="evenodd" clip-rule="evenodd" d="M299.246 247.542C299.246 263.521 291.271 277.575 279.207 285.701C278.431 286.222 277.907 291.085 276.35 295.332C274.545 300.255 271.744 304.613 271.744 304.613C271.744 304.613 272.992 298.703 271.84 294.829C271.078 292.264 268.113 291.077 267.177 291.35C263.273 292.488 259.225 293.065 255.157 293.062C230.807 293.062 211.067 272.682 211.067 247.546C211.067 222.409 230.807 202.029 255.157 202.029C279.506 202.029 299.246 222.403 299.246 247.542Z" fill="#CF822A"/>
<path fill-rule="evenodd" clip-rule="evenodd" d="M384.346 106.33L387.377 100.323L382.868 105.347L384.346 106.33Z" fill="#707070"/>
<path fill-rule="evenodd" clip-rule="evenodd" d="M384.183 106.809L379.693 114.577L375.598 116.31L375.743 112.879L382.292 105.399L384.183 106.809Z" fill="#E7BB92"/>
<path fill-rule="evenodd" clip-rule="evenodd" d="M379.51 115.046L374.726 122.236L368.277 123.501L375.452 113.274L375.813 116.382L379.51 115.046ZM351.203 154.519L343.424 165.338L342.251 163.165L339.965 162.583L345.555 154.719L351.203 154.519Z" fill="#E0945E"/>
<path fill-rule="evenodd" clip-rule="evenodd" d="M343.796 165.074L341.95 167.2L340.69 165.245L338.458 164.326L339.824 162.152L342.139 163.272L343.796 165.074Z" fill="#DEDEDE"/>
<path fill-rule="evenodd" clip-rule="evenodd" d="M342.06 167.101L339.381 171.116L337.937 171.731L335.712 170.25L335.417 168.476L338.706 164.158L340.556 165.214L342.06 167.101Z" fill="#DD7E70"/>
<path d="M382.567 104.518C382.767 104.518 382.962 104.577 383.128 104.688L384.69 105.807C385.439 106.35 385.515 106.796 381.947 112.536C380.277 115.222 378.425 118.027 378.157 118.397L375.362 122.269C375.229 122.453 375.029 122.577 374.805 122.613C374.582 122.649 374.352 122.596 374.168 122.463C373.984 122.331 373.86 122.132 373.824 121.909C373.787 121.685 373.841 121.457 373.974 121.273L376.78 117.401C377.409 116.529 382.367 108.9 383.253 106.872L382.585 106.391C380.937 107.883 375.257 114.987 374.629 115.858L369.457 123.021C369.392 123.112 369.309 123.189 369.213 123.248C369.118 123.307 369.012 123.347 368.901 123.365C368.79 123.383 368.677 123.379 368.567 123.353C368.458 123.327 368.355 123.281 368.264 123.215C368.173 123.15 368.095 123.067 368.036 122.972C367.977 122.877 367.937 122.771 367.919 122.66C367.901 122.55 367.905 122.437 367.931 122.328C367.957 122.219 368.004 122.116 368.069 122.025L373.244 114.862C373.315 114.763 380.982 104.766 382.443 104.529C382.484 104.522 382.525 104.518 382.567 104.518ZM345.181 154.327C345.36 154.327 345.534 154.384 345.678 154.489C345.769 154.555 345.846 154.638 345.904 154.733C345.963 154.828 346.002 154.934 346.019 155.044C346.037 155.155 346.032 155.268 346.006 155.376C345.979 155.485 345.932 155.587 345.865 155.677L336.43 168.75C336.291 168.928 336.224 169.152 336.243 169.377C336.249 169.434 336.275 169.488 336.316 169.528L337.877 170.647C337.981 170.72 338.328 170.647 338.582 170.293L349.828 154.711C349.894 154.62 349.976 154.543 350.072 154.484C350.167 154.425 350.274 154.386 350.384 154.368C350.495 154.35 350.609 154.353 350.718 154.379C350.827 154.405 350.93 154.452 351.022 154.517C351.113 154.582 351.19 154.665 351.249 154.76C351.308 154.856 351.348 154.961 351.366 155.072C351.384 155.182 351.38 155.295 351.354 155.404C351.329 155.513 351.282 155.616 351.216 155.707L339.97 171.289C339.194 172.364 337.807 172.697 336.879 172.035L335.317 170.916C335.113 170.766 334.941 170.578 334.81 170.361C334.679 170.145 334.593 169.905 334.556 169.655C334.462 168.983 334.637 168.302 335.042 167.758L344.477 154.687C344.557 154.575 344.662 154.484 344.785 154.421C344.907 154.358 345.043 154.326 345.181 154.327Z" fill="#571519"/>
<path d="M387.373 99.5542C387.522 99.5544 387.667 99.5931 387.796 99.6665C387.925 99.74 388.033 99.8456 388.108 99.9731C388.184 100.1 388.225 100.245 388.227 100.393C388.229 100.541 388.193 100.687 388.121 100.817L384.997 106.499C384.205 106.222 383.391 106.008 382.565 105.859C382.481 105.785 382.412 105.696 382.362 105.595C382.313 105.495 382.284 105.385 382.277 105.274C382.269 105.162 382.285 105.05 382.321 104.944C382.357 104.838 382.414 104.74 382.488 104.656L386.728 99.8433C386.808 99.752 386.908 99.6789 387.019 99.6291C387.13 99.5792 387.251 99.5537 387.373 99.5542ZM339.068 163.557C340.35 163.557 341.226 164.557 341.875 165.299C342.051 165.501 342.219 165.695 342.384 165.859C342.47 165.934 342.541 166.026 342.591 166.129C342.642 166.232 342.671 166.344 342.677 166.458C342.683 166.573 342.665 166.687 342.626 166.795C342.587 166.903 342.526 167.001 342.447 167.085C342.369 167.169 342.274 167.236 342.169 167.282C342.064 167.328 341.951 167.353 341.836 167.355C341.721 167.357 341.607 167.335 341.5 167.292C341.394 167.249 341.297 167.184 341.216 167.103C341.014 166.917 340.805 166.678 340.586 166.428C339.968 165.723 339.486 165.234 338.99 165.275C338.77 165.287 338.554 165.213 338.387 165.069C338.22 164.926 338.115 164.724 338.094 164.505C338.073 164.286 338.137 164.068 338.274 163.895C338.411 163.723 338.609 163.61 338.827 163.579C338.907 163.567 338.988 163.56 339.068 163.557ZM340.604 161.546C340.65 161.546 340.696 161.55 340.741 161.557C342.004 161.761 343.68 163.05 344.036 164.486C344.065 164.595 344.072 164.709 344.056 164.821C344.041 164.933 344.003 165.041 343.945 165.139C343.887 165.236 343.811 165.321 343.72 165.389C343.629 165.456 343.525 165.505 343.415 165.532C343.305 165.559 343.191 165.565 343.078 165.547C342.966 165.53 342.859 165.491 342.762 165.431C342.665 165.372 342.581 165.294 342.515 165.203C342.449 165.111 342.402 165.007 342.376 164.896C342.213 164.24 341.197 163.357 340.47 163.242C340.255 163.21 340.061 163.098 339.926 162.929C339.792 162.76 339.726 162.547 339.743 162.331C339.76 162.116 339.859 161.915 340.019 161.769C340.178 161.624 340.388 161.544 340.604 161.546ZM375.798 112.26H375.85C376.076 112.273 376.288 112.376 376.439 112.544C376.589 112.713 376.666 112.935 376.653 113.161L376.552 114.873L378.997 113.909C379.102 113.868 379.213 113.847 379.325 113.849C379.438 113.851 379.548 113.875 379.651 113.919C379.754 113.964 379.848 114.028 379.926 114.109C380.004 114.189 380.065 114.284 380.107 114.388C380.148 114.492 380.168 114.603 380.166 114.715C380.164 114.827 380.141 114.938 380.096 115.04C380.051 115.143 379.987 115.236 379.906 115.314C379.825 115.392 379.73 115.453 379.626 115.494L375.934 116.949C375.801 117.002 375.656 117.021 375.513 117.003C375.371 116.985 375.235 116.932 375.118 116.848C375.002 116.765 374.908 116.653 374.847 116.523C374.785 116.394 374.757 116.251 374.765 116.108L374.952 113.06C374.965 112.844 375.06 112.642 375.217 112.493C375.374 112.345 375.581 112.261 375.798 112.26Z" fill="#571519"/>
<path d="M347.474 154.448C347.631 154.448 347.785 154.492 347.919 154.573C348.053 154.655 348.162 154.772 348.234 154.911C348.306 155.051 348.337 155.207 348.326 155.363C348.314 155.52 348.26 155.67 348.168 155.797L342.956 163.085C342.891 163.176 342.808 163.254 342.713 163.313C342.618 163.372 342.512 163.412 342.401 163.431C342.29 163.449 342.177 163.446 342.068 163.42C341.958 163.395 341.855 163.349 341.763 163.284C341.672 163.219 341.594 163.136 341.535 163.041C341.475 162.946 341.435 162.841 341.417 162.73C341.398 162.62 341.402 162.507 341.427 162.398C341.452 162.289 341.499 162.186 341.564 162.095L346.776 154.806C346.856 154.695 346.96 154.605 347.082 154.543C347.203 154.48 347.338 154.448 347.474 154.448ZM375.568 115.162C375.725 115.162 375.879 115.206 376.012 115.287C376.146 115.369 376.255 115.485 376.327 115.624C376.399 115.763 376.431 115.92 376.42 116.076C376.409 116.232 376.355 116.382 376.264 116.509L371.788 122.768C371.657 122.952 371.457 123.077 371.234 123.114C371.01 123.152 370.781 123.099 370.596 122.968C370.411 122.837 370.286 122.638 370.248 122.415C370.211 122.192 370.263 121.963 370.395 121.779L374.87 115.52C374.949 115.41 375.054 115.32 375.175 115.257C375.297 115.195 375.431 115.162 375.568 115.162Z" fill="#571519"/>
<path fill-rule="evenodd" clip-rule="evenodd" d="M263.736 259.973L253.839 223.442L258.981 227.293L255.488 223.45C255.488 223.45 253.523 221.51 252.896 219.693C252.27 217.876 251.759 216.654 252.477 215.205C253.196 213.755 253.671 212.761 254.535 213.399C255.4 214.037 256.661 216.067 257.342 216.777C258.566 217.964 259.905 219.026 261.34 219.949C262.919 220.941 264.223 221.618 265.819 222.696C267.415 223.775 268.674 224.317 269.229 225.955C269.785 227.593 270.025 228.339 268.954 230.775C267.884 233.212 266.958 234.967 266.234 236.575C265.51 238.183 265.65 238.702 265.86 240.604C266.075 242.57 266.151 244.549 266.086 246.525C266.013 248.553 265.525 249.743 265.899 251.489C266.273 253.235 266.765 254.194 266.382 255.593C265.75 257.914 263.736 259.973 263.736 259.973Z" fill="#F6BFA2"/>
<path fill-rule="evenodd" clip-rule="evenodd" d="M138.648 132.458C138.648 132.458 141.155 131.307 142.589 131.268C144.022 131.229 145.255 131.705 146.052 132.061C146.849 132.417 146.647 133.249 148.319 133.607C149.992 133.966 152.501 134.167 154.371 134.84C156.242 135.514 157.552 136.348 158.908 136.825C160.265 137.303 160.302 137.571 162.089 137.221C163.811 136.852 165.552 136.574 167.303 136.389C169.773 136.111 170.484 135.911 171.722 136.948C172.961 137.986 173.674 139.053 174.469 140.323C175.264 141.593 176.141 144.371 176.42 146.117C176.699 147.863 176.819 149.45 177.73 151.079C178.641 152.707 179.561 153.778 180.078 154.651C180.594 155.524 180.596 156.595 179.402 156.754C178.209 156.912 176.695 156.951 175.421 156.239C174.147 155.526 173.271 155.008 172.834 154.174C172.396 153.34 171.481 151.713 170.764 150.245C170.048 148.777 167.38 144.41 167.698 145.324C168.016 146.238 169.848 153.142 169.848 153.142L138.648 132.458Z" fill="#C77C68"/>
<path fill-rule="evenodd" clip-rule="evenodd" d="M143.995 13.084C143.995 13.084 148.179 22.066 149.275 24.1963C150.371 26.3267 156.175 38.4258 157.462 40.6643C158.749 42.9028 163.449 50.8402 165.133 53.8622C166.411 56.2123 168.038 58.3568 169.958 60.2233C171.432 61.6765 175.069 64.1407 177.92 66.4296C180.772 68.7185 183.6 70.9216 186.339 73.3988C189.078 75.8761 191.61 77.6016 192.824 79.8588C194.038 82.116 194.929 83.2483 195.851 85.9158C196.773 88.5834 197.123 90.1075 198.147 91.1204C199.17 92.1333 200.16 92.1781 201.555 94.2226C202.951 96.2671 203.189 97.0935 204.003 99.3842C204.816 101.675 206.139 102.602 207.484 103.604C208.829 104.606 210.09 104.738 210.002 106.145C209.915 107.551 209.028 107.883 207.669 108.267C206.311 108.652 203.619 108.355 203.619 108.355C203.619 108.355 203.222 111.558 202.841 113.951C202.459 116.345 202.296 117.195 200.925 117.826C199.554 118.456 198.618 118.316 197.359 117.615C196.1 116.914 193.355 115.003 193.355 115.003C193.355 115.003 192.072 115.377 190.671 115.6C189.269 115.824 188.266 115.468 186.783 114.832C185.299 114.196 184.003 113.664 184.003 113.664C184.003 113.664 182.751 114.994 181.092 114.893C179.432 114.793 178.903 114.944 176.437 114.015C173.971 113.086 173.443 112.664 172.001 112.179C170.558 111.694 169.793 111.582 167.758 111.019C165.722 110.456 163.625 108.529 162.366 107.258C161.107 105.988 159.359 102.408 158.188 100.309C157.017 98.2109 154.369 92.0382 153.384 89.7139C152.398 87.3896 150.13 82.5842 148.951 79.5827C147.773 76.5813 147.66 73.6134 145.352 69.7874C143.043 65.9614 137.96 58.7049 135.79 55.6586C133.619 52.6124 126.179 43.0894 124.083 40.5934C121.988 38.0975 110.604 23.5863 110.604 23.5863C110.604 23.5863 117.683 18.2512 126.029 15.6284C134.375 13.0057 143.995 13.084 143.995 13.084Z" fill="#F6C7A2"/>
<path fill-rule="evenodd" clip-rule="evenodd" d="M271.574 73.4401C271.574 75.2775 280.928 95.5454 281.955 101.634C282.131 102.824 282.511 103.975 283.078 105.037C283.882 106.503 284.681 108.618 285.527 110.12C287.398 113.457 291.828 118.887 292.137 120.723C292.408 122.333 288.346 123.245 284.881 121.645C282.326 120.466 280.114 116.794 280.114 116.794C280.114 116.794 276.015 129.408 275.65 131.77C274.797 137.31 273.044 145.502 270.958 145.502C270.616 145.502 269.626 145.114 269.063 143.343C268.476 141.496 268.326 138.217 268.599 135.868C269.237 130.403 270.994 125.023 271.714 120.773C272.013 119.001 272.507 116.683 272.068 115.824C271.881 115.451 270.704 117.604 269.42 121.135C268.208 124.471 266.925 129.065 265.559 133.21C264.004 137.928 263.063 141.791 261.793 144.703C260.816 146.942 258.895 146.755 258.706 146.496C258.064 145.595 257.226 144.196 257.594 140.733C258.107 135.947 260.178 128.487 261.548 124.351C262.008 122.963 259.254 130.558 256.507 135.876C255.48 137.864 254.419 138.833 253.578 139.911C252.455 141.343 251.589 137.656 251.536 137.004C251.439 135.396 251.602 133.782 252.021 132.225C253.159 128.377 255.576 123.577 257.05 118.624C257.985 115.453 258.696 112.073 258.629 110.135C258.599 109.29 255.75 115.761 253.37 121.501C251.888 125.079 250.99 127.897 249.843 129.935C248.979 131.47 247.821 129.649 247.75 129.326C247.325 127.379 247.362 123.32 248.246 120.262C249.514 115.865 251.961 112.054 252.487 107.018C253.278 99.4273 250.04 92.0832 250.04 91.0367C250.04 89.6935 247.666 84.0525 246.983 79.6109C246.421 75.9472 247.357 73.5166 248.571 71.3471C249.059 70.4647 250.255 63.5123 250.754 54.3419C251.787 35.4152 252.014 7.53455 252.014 7.53455C252.014 7.53455 260.672 5.14868 268.178 5.21024C275.684 5.27179 282.04 7.77892 282.04 7.77892C282.04 7.77892 279.02 19.9713 276.651 32.5257C274.554 43.6417 273.097 55.2018 272.865 56.5039C272.083 61.0854 271.574 65.9933 271.574 73.4401Z" fill="#FFE4CE"/>
<path fill-rule="evenodd" clip-rule="evenodd" d="M401.682 140.42C398.147 142.593 391.642 147.755 385.493 151.403C380.931 154.11 376.423 155.632 374.219 156.339C372.284 156.96 368.793 158.055 365.315 159.014C362.829 159.701 360.789 160.32 357.328 160.635C355.366 160.822 351.528 159.969 349.499 158.956C348.509 158.468 349.394 157.436 348.339 157.44C332.384 157.473 317.143 157.524 317.143 152.687C317.143 151.896 319.13 150.499 321.211 150.172C325.055 149.568 330.939 150.448 337.325 150.245C343.147 150.058 349.203 149.439 351.764 148.837C353.972 148.318 344.404 147.904 341.444 145.341C340.279 144.332 340.355 142.225 341.615 140.746C342.363 139.877 344.215 139.345 344.561 139.045C345.137 138.545 344.531 138.002 344.348 137.258C344.107 136.273 344.215 135.038 344.937 134.12C345.519 133.374 346.597 132.613 348.221 132.085C349.454 131.686 351.263 131.503 351.897 131.107C352.784 130.548 352.183 130.231 352.513 129.113C352.904 127.783 354.196 125.649 355.132 125.071C357.906 123.359 360.144 122.765 362.643 122.234C365.691 121.586 368.799 121.206 369.599 121.206C371.384 121.206 384.786 119.363 390.097 118.271C391.257 118.033 405.405 110.776 420.406 101.684C436.523 91.9167 453.532 80.2783 453.532 80.2783C453.532 80.2783 457.679 90.5811 459.243 100.492C460.808 110.403 459.788 119.924 459.788 119.924C459.788 119.924 442.729 125.334 427.401 130.656C414.428 135.18 402.909 139.67 401.682 140.42Z" fill="#BA796F"/>
<path fill-rule="evenodd" clip-rule="evenodd" d="M246.876 202.671C246.876 202.671 248.577 207.264 249.458 209.446C250.339 211.629 251.254 214.779 252.371 218.706C253.488 222.633 254.487 227.392 255.83 232.036C257.174 236.681 260.133 246.852 260.998 250.985C261.862 255.119 266.461 271.479 266.461 271.479L265.694 272.496L263.155 273.089L261.961 271.746L245.666 210.606L244.543 203.393L246.876 202.671Z" fill="#CF574B"/>
<path fill-rule="evenodd" clip-rule="evenodd" d="M246.435 202.607L244.517 198.615L244.891 203.128L246.435 202.607Z" fill="#D0D0D0"/>
<path fill-rule="evenodd" clip-rule="evenodd" d="M219.093 329.671C219.093 329.671 219.198 324.788 219.655 318.807C220.111 312.826 220.465 307.012 220.751 301.733C221.037 296.454 221.567 291.995 221.746 288.272C221.926 284.548 221.988 280.385 222.56 276.055C223.133 271.725 223.378 268.373 224.281 263.848C225.185 259.322 225.591 256.599 226.822 253.09C228.053 249.581 227.799 249.732 229.931 245.923C232.064 242.114 232.388 241.138 233.09 239.247C233.791 237.355 233.75 236.379 235.183 233.624C236.616 230.869 236.249 230.876 238.412 228.53C240.575 226.183 241.804 226.478 243.024 224.784C244.244 223.09 244.539 222.706 245.443 221.083C246.347 219.46 246.485 218.938 247.486 219.143C248.487 219.348 248.983 219.24 249.407 220.934C249.832 222.627 250.328 222.519 249.782 224.616C249.235 226.713 248.126 227.922 247.368 229.505C246.61 231.089 245.136 232.635 244.266 234.786C243.396 236.937 242.074 238.821 241.885 241.2C241.696 243.578 241.467 244.141 241.77 245.725C242.005 246.832 242.333 247.918 242.753 248.969L253.778 241.308L252.326 240.179C251.397 239.807 250.529 239.298 249.752 238.67C248.579 237.691 246.99 236.219 246.725 234.939C246.459 233.66 246.801 233.354 247.331 232.751C247.86 232.149 248.051 232.261 247.705 231.016C247.359 229.772 247.782 229.544 248.386 228.903C248.99 228.261 249.525 225.302 249.866 226.586C250.206 227.869 260.012 263.771 260.012 263.771C260.012 263.771 253.965 268.099 252.653 269.271C251.342 270.442 248.494 272.832 247.003 274.634C245.512 276.436 243.705 278.551 243.613 280.267C243.522 281.983 243.162 288.559 243.207 291.848C243.252 295.137 244.743 311.948 245.151 314.201C245.559 316.455 248.081 330.022 248.081 330.022C248.081 330.022 240.287 332.555 233.037 332.468C225.787 332.38 219.093 329.671 219.093 329.671Z" fill="#F6BFA2"/>
<path fill-rule="evenodd" clip-rule="evenodd" d="M127.713 127.084L129.328 126.853L182.439 161.301L191.419 168.366L190.124 170.528L180.186 165.491L127.034 131.158L126.355 129.432L127.713 127.084Z" fill="#6D87CB"/>
<path fill-rule="evenodd" clip-rule="evenodd" d="M67.1334 126.054C67.1334 126.054 77.9378 131.986 80.3026 133.126C82.6674 134.266 95.064 139.282 96.8676 140.202C98.6711 141.121 106.877 143.932 109.077 144.492C111.277 145.052 112.983 145.846 115.287 145.115C117.59 144.384 120.484 144.087 122.721 142.464C124.959 140.841 128.779 139.198 130.66 137.706C132.54 136.213 133.977 136.213 136.007 137.633C138.037 139.052 165.732 156.599 165.732 156.599C165.732 156.599 163.947 157.25 162.847 156.972C161.747 156.694 160.895 155.09 159.82 155.933C158.744 156.776 157.2 156.563 156.66 155.517C156.119 154.47 154.345 152.263 154.139 150.941C154.009 150.13 153.71 149.356 153.26 148.669C152.477 148.981 151.728 149.374 151.026 149.84C150.076 150.514 143.197 155.787 143.197 155.787C143.197 155.787 143.067 157.388 146.05 158.13C149.032 158.873 151.947 159.179 153.812 159.04C155.677 158.902 156.805 158.882 159.067 158.382C161.329 157.882 163.619 157.076 165.241 156.828C166.863 156.58 167.417 156.268 169.067 156.688C170.717 157.108 171.125 157.276 171.853 158.593C172.581 159.91 174.025 160.44 172.325 161.152C170.624 161.865 169.35 161.913 167.7 162.458C166.05 163.003 165.382 163.577 163.022 164.836C160.663 166.096 159.182 167.308 156.959 167.577C154.736 167.845 151.773 167.698 150.265 167.705C147.864 167.74 145.472 168.008 143.124 168.504C139.904 169.151 134.847 169.623 131.979 169.623C129.111 169.623 121.217 168.349 118.269 167.825C115.32 167.301 106.587 165.411 102.525 164.53C98.4634 163.65 85.6871 160.507 81.9135 159.583C78.1399 158.66 58.8135 153.664 58.8135 153.664C58.8135 153.664 57.7976 145.287 59.8781 138.383C61.9585 131.479 67.1334 126.054 67.1334 126.054Z" fill="#C77C68"/>
<path fill-rule="evenodd" clip-rule="evenodd" d="M191.393 168.97L194.697 171.935L190.581 170.215L191.393 168.97Z" fill="#CFCFCF"/>
<path d="M251.691 82.7038C251.803 82.7038 251.915 82.7259 252.018 82.7689C252.122 82.8119 252.216 82.8749 252.296 82.9543C252.375 83.0337 252.438 83.1279 252.48 83.2315C252.523 83.3351 252.545 83.4462 252.544 83.5582C252.516 94.2191 256.176 101.977 263.423 106.615C264.46 107.242 265.535 107.803 266.643 108.294C268.827 109.325 271.085 110.392 272.707 112.398C273.76 113.703 274.66 115.211 275.612 116.809C277.45 119.895 279.354 123.085 282.329 124.443C283.191 124.836 285.872 125.325 287.053 124.654C287.191 124.587 287.308 124.484 287.393 124.358C287.479 124.231 287.529 124.084 287.539 123.932C287.588 123.484 286.881 122.587 286.458 122.051C286.261 121.801 286.084 121.57 285.943 121.37C285.592 120.852 285.24 120.344 284.888 119.839C283.392 117.671 281.966 115.625 280.834 113.187C280.518 112.508 280.232 111.857 279.955 111.226C278.974 108.988 278.127 107.07 276.494 105.05C272.329 99.8974 270.239 95.3794 267.596 89.66L266.974 88.3187C266.879 88.1134 266.87 87.8788 266.948 87.6664C267.026 87.4541 267.186 87.2814 267.392 87.1864C267.598 87.0914 267.833 87.0819 268.046 87.1599C268.259 87.2379 268.432 87.3971 268.527 87.6024L269.148 88.9455C271.743 94.5586 273.792 98.9927 277.826 103.979C279.601 106.176 280.533 108.297 281.521 110.542C281.794 111.163 282.082 111.803 282.385 112.47C283.455 114.776 284.834 116.761 286.295 118.869C286.649 119.378 287.004 119.891 287.36 120.413C287.476 120.585 287.633 120.786 287.801 120.997C288.497 121.878 289.362 122.973 289.24 124.114C289.2 124.535 289.057 124.94 288.823 125.292C288.589 125.645 288.272 125.934 287.898 126.135C286.005 127.209 282.684 126.478 281.618 125.993C278.153 124.413 276.114 120.99 274.134 117.681C273.214 116.136 272.346 114.675 271.367 113.468C269.99 111.765 268 110.825 265.902 109.833C264.729 109.307 263.59 108.707 262.492 108.038C257.15 104.619 250.789 97.5918 250.827 83.5414C250.831 83.3163 250.924 83.1018 251.086 82.9449C251.248 82.788 251.465 82.7013 251.691 82.7038Z" fill="#571519"/>
<path d="M268.509 117.808C268.734 117.808 268.95 117.897 269.109 118.055C269.269 118.214 269.36 118.428 269.362 118.653C269.362 122.788 268.426 126.861 267.536 130.802C266.86 133.772 266.161 136.842 265.884 139.866C265.483 144.256 266.015 147.47 267.208 147.867C267.261 147.886 267.318 147.891 267.373 147.883C267.428 147.874 267.48 147.851 267.525 147.817C268.187 147.418 269.481 145.578 270.726 137.723L270.791 137.311C271.481 133.182 272.776 128.899 274.028 124.756C274.447 123.374 274.866 121.986 275.266 120.595C275.295 120.485 275.346 120.381 275.415 120.291C275.485 120.201 275.572 120.126 275.671 120.069C275.77 120.013 275.879 119.977 275.993 119.964C276.106 119.951 276.221 119.96 276.33 119.991C276.44 120.023 276.542 120.076 276.631 120.147C276.719 120.219 276.793 120.307 276.847 120.407C276.901 120.508 276.934 120.617 276.945 120.731C276.955 120.844 276.943 120.958 276.909 121.067C276.507 122.464 276.086 123.865 275.665 125.249C274.372 129.528 273.15 133.571 272.484 137.591L272.421 137.988C271.36 144.675 270.088 148.263 268.419 149.274C268.163 149.438 267.872 149.542 267.57 149.578C267.268 149.614 266.961 149.582 266.673 149.483C263.962 148.582 263.824 143.672 264.187 139.711C264.473 136.576 265.186 133.447 265.871 130.424C266.748 126.577 267.654 122.589 267.654 118.653C267.656 118.428 267.747 118.213 267.907 118.055C268.067 117.897 268.283 117.808 268.509 117.808ZM267.974 76.121C268.17 76.1216 268.36 76.1896 268.513 76.3136C268.665 76.4375 268.77 76.6099 268.81 76.8018C269.558 80.3462 271.687 85.2261 273.755 89.9382C276.363 95.8777 279.057 102.021 279.388 106.339C279.396 106.451 279.383 106.563 279.348 106.67C279.313 106.776 279.257 106.875 279.184 106.96C279.111 107.045 279.022 107.115 278.922 107.165C278.822 107.216 278.712 107.246 278.6 107.255C278.488 107.264 278.376 107.25 278.269 107.215C278.162 107.18 278.063 107.125 277.978 107.052C277.892 106.979 277.822 106.89 277.772 106.79C277.721 106.69 277.69 106.581 277.682 106.47C277.375 102.438 274.739 96.4317 272.189 90.6134C269.988 85.6029 267.912 80.8685 267.137 77.1395C267.091 76.9184 267.135 76.6881 267.259 76.4992C267.384 76.3104 267.578 76.1784 267.8 76.1322C267.857 76.1231 267.915 76.1194 267.974 76.121Z" fill="#571519"/>
<path d="M261.298 114.691C261.361 114.69 261.424 114.697 261.485 114.709C261.706 114.758 261.899 114.892 262.022 115.082C262.144 115.272 262.186 115.503 262.138 115.724C261.721 117.619 261.33 118.963 260.95 120.261C260.789 120.807 260.632 121.348 260.477 121.917C260.058 123.447 259.582 125.146 259.083 126.933C257.573 132.323 255.865 138.43 254.836 143.045C254.608 144.069 254.699 148.535 255.612 149.16C255.734 149.24 256.016 149.071 256.132 148.994C257.691 147.959 258.359 145.511 258.939 143.351C259.126 142.639 259.313 141.965 259.526 141.368C260.275 139.201 261.062 136.643 261.891 133.934C263.575 128.42 265.483 122.169 267.651 117.847C267.753 117.645 267.931 117.491 268.146 117.419C268.361 117.348 268.596 117.364 268.799 117.466C269.002 117.567 269.157 117.744 269.228 117.959C269.3 118.173 269.283 118.408 269.182 118.61C267.077 122.805 265.191 128.982 263.526 134.431C262.694 137.156 261.908 139.728 261.141 141.928C260.954 142.471 260.776 143.116 260.589 143.793C259.953 146.119 259.163 149.016 257.072 150.408C255.899 151.188 255.042 150.837 254.639 150.561C252.54 149.126 253.051 143.153 253.16 142.67C254.198 138.007 255.913 131.879 257.427 126.469C257.927 124.686 258.402 122.988 258.819 121.464C258.978 120.884 259.137 120.345 259.3 119.785C259.674 118.515 260.048 117.2 260.46 115.362C260.501 115.171 260.606 115 260.759 114.878C260.912 114.755 261.102 114.689 261.298 114.691Z" fill="#571519"/>
<path d="M255.044 112.092C255.27 112.092 255.488 112.182 255.648 112.342C255.809 112.501 255.899 112.718 255.899 112.944C255.899 118.587 253.934 123.471 252.035 128.194C250.872 131.088 249.67 134.076 248.926 137.221C248.619 138.516 248.643 139.646 249.014 141.252C249.201 142.032 249.388 142.308 249.459 142.392C249.77 142.28 250.956 141.433 253.596 135.201L253.736 134.871C254.015 134.223 254.297 133.565 254.572 132.899C255.42 130.888 256.295 128.812 257.233 126.943C257.28 126.838 257.348 126.743 257.432 126.665C257.517 126.587 257.617 126.527 257.725 126.489C257.834 126.45 257.949 126.434 258.064 126.44C258.179 126.447 258.292 126.477 258.395 126.529C258.498 126.58 258.589 126.652 258.664 126.739C258.739 126.827 258.795 126.929 258.829 127.038C258.863 127.148 258.875 127.264 258.863 127.378C258.852 127.492 258.817 127.603 258.761 127.704C257.85 129.524 256.986 131.574 256.142 133.559C255.859 134.227 255.581 134.891 255.3 135.542L255.163 135.863C252.632 141.859 250.918 144.257 249.276 144.104C247.882 143.985 247.474 142.215 247.339 141.633C246.911 139.767 246.886 138.381 247.253 136.829C248.028 133.561 249.253 130.509 250.434 127.56C252.357 122.777 254.175 118.259 254.175 112.944C254.175 112.831 254.198 112.719 254.241 112.615C254.285 112.51 254.349 112.416 254.43 112.336C254.511 112.257 254.607 112.194 254.712 112.152C254.817 112.111 254.93 112.09 255.044 112.092Z" fill="#571519"/>
<path d="M244.705 74.1509C244.856 74.1509 245.005 74.1909 245.136 74.2669C245.266 74.3428 245.375 74.452 245.449 74.5833C245.524 74.7145 245.562 74.8631 245.56 75.014C245.558 75.1648 245.516 75.3125 245.439 75.4418C242.948 79.5775 244.494 84.6011 245.856 89.0333L246.043 89.6545C247.629 94.8535 249.598 101.326 249.901 107.27C250.101 111.275 248.688 114.884 247.321 118.375C246.228 121.162 245.1 124.046 244.86 127.043C244.602 130.293 245.109 132.414 245.497 132.815C245.589 132.758 245.674 132.689 245.749 132.61C246.477 131.886 247.104 129.795 247.562 128.267C247.773 127.564 247.972 126.9 248.164 126.402C248.445 125.682 248.729 124.96 249.016 124.236C249.459 123.117 249.903 121.997 250.325 120.863C251.044 118.985 251.914 117.022 252.758 115.123C253.149 114.241 253.536 113.368 253.903 112.512C253.946 112.407 254.009 112.312 254.089 112.232C254.17 112.152 254.265 112.089 254.37 112.046C254.475 112.004 254.587 111.982 254.701 111.983C254.814 111.984 254.926 112.007 255.03 112.052C255.134 112.096 255.229 112.161 255.308 112.242C255.386 112.323 255.448 112.42 255.49 112.525C255.531 112.63 255.551 112.743 255.548 112.856C255.546 112.969 255.52 113.08 255.474 113.183C255.1 114.039 254.726 114.92 254.322 115.81C253.489 117.688 252.628 119.628 251.927 121.468C251.493 122.6 251.048 123.728 250.6 124.857C250.318 125.577 250.039 126.297 249.751 127.017C249.584 127.446 249.396 128.077 249.19 128.746C248.628 130.636 247.979 132.778 246.945 133.807C246.009 134.74 245.205 134.574 244.81 134.393C242.731 133.436 243.057 127.983 243.143 126.9C243.401 123.65 244.578 120.649 245.715 117.744C247.076 114.269 248.363 110.986 248.179 107.346C247.893 101.612 245.953 95.2527 244.395 90.1414L244.208 89.5239C242.741 84.7503 241.077 79.3424 243.959 74.5557C244.037 74.4292 244.147 74.3254 244.278 74.2543C244.409 74.1833 244.556 74.1477 244.705 74.1509ZM278.565 10.6649C278.641 10.6657 278.717 10.6758 278.791 10.6947C279.01 10.7549 279.195 10.899 279.308 11.0956C279.42 11.2921 279.449 11.5249 279.39 11.7431C277.302 19.3503 268.847 54.8344 268.746 76.7663C268.745 76.9917 268.655 77.2076 268.494 77.3667C268.334 77.5258 268.117 77.6151 267.891 77.6151C267.665 77.6136 267.448 77.5226 267.288 77.3622C267.129 77.2017 267.039 76.9848 267.04 76.7588C267.141 54.6386 275.646 18.9436 277.743 11.2935C277.793 11.1139 277.9 10.9554 278.048 10.8419C278.197 10.7285 278.378 10.6663 278.565 10.6649Z" fill="#571519"/>
<path d="M248.559 10.4914C248.671 10.4912 248.782 10.5129 248.886 10.5555C248.989 10.598 249.084 10.6604 249.163 10.7392C249.242 10.8181 249.305 10.9117 249.349 11.0148C249.392 11.1179 249.414 11.2285 249.414 11.3402C249.468 23.4319 248.679 62.5555 245.792 74.9195C245.769 75.0308 245.724 75.1362 245.659 75.2297C245.594 75.3232 245.511 75.4029 245.415 75.4641C245.319 75.5253 245.212 75.5667 245.1 75.5859C244.987 75.6051 244.872 75.6017 244.761 75.576C244.65 75.5503 244.546 75.5027 244.453 75.436C244.361 75.3694 244.283 75.285 244.224 75.1878C244.165 75.0907 244.126 74.9828 244.109 74.8704C244.093 74.758 244.099 74.6434 244.127 74.5334C246.98 62.3148 247.757 23.3871 247.704 11.3458C247.704 11.2339 247.725 11.123 247.768 11.0195C247.81 10.916 247.873 10.8219 247.952 10.7425C248.031 10.6632 248.125 10.6001 248.229 10.5571C248.332 10.514 248.443 10.4917 248.555 10.4914H248.559ZM140.481 15.9086C140.649 15.9084 140.812 15.9573 140.952 16.0491C141.092 16.141 141.201 16.2719 141.267 16.4253C146.436 28.4424 159.802 54.2562 164.909 60.5184C167.793 64.0627 171.886 67.1388 176.219 70.4052C181.431 74.3356 186.821 78.4004 190.12 83.4333C191.596 85.683 192.657 88.1902 193.675 90.6152C194.659 92.9395 195.676 95.3441 197.042 97.452C199.182 100.754 200.896 103.265 203.495 105.531C203.631 105.651 203.998 105.893 204.352 106.126C206.073 107.264 207.3 108.148 207.392 109.184C207.438 109.606 207.383 110.034 207.233 110.432C207.082 110.829 206.839 111.186 206.524 111.473C204.853 113.03 201.285 112.875 200.163 112.698C196.679 112.152 193.293 109.853 189.809 105.673C189.683 105.498 189.628 105.282 189.655 105.068C189.683 104.854 189.79 104.659 189.956 104.521C190.122 104.383 190.334 104.313 190.55 104.324C190.765 104.336 190.969 104.428 191.119 104.584C194.324 108.432 197.368 110.534 200.423 111.016C201.85 111.241 204.427 111.088 205.355 110.226C205.48 110.117 205.575 109.978 205.633 109.822C205.691 109.667 205.709 109.499 205.686 109.335C205.532 108.962 204.041 107.967 203.403 107.548C203.043 107.323 202.697 107.078 202.365 106.815C199.6 104.403 197.819 101.797 195.603 98.3791C194.155 96.1406 193.108 93.6708 192.095 91.2775C191.098 88.9233 190.067 86.487 188.675 84.3642C185.538 79.5812 180.27 75.6079 175.173 71.7651C170.951 68.5808 166.584 65.2865 163.574 61.5929C158.217 55.0247 144.896 29.2128 139.686 17.095C139.642 16.992 139.619 16.8813 139.617 16.7693C139.616 16.6573 139.637 16.5462 139.679 16.4422C139.721 16.3383 139.783 16.2436 139.861 16.1636C139.94 16.0835 140.034 16.0197 140.137 15.9758C140.246 15.9296 140.363 15.9068 140.481 15.9086Z" fill="#571519"/>
<path d="M183.996 89.1937C184.131 89.1931 184.264 89.2245 184.385 89.2851C184.505 89.3457 184.609 89.4339 184.689 89.5425C186.5 92.0235 187.368 95.0268 188.208 97.9369C188.84 100.118 189.435 102.177 190.397 104.035C191.332 105.826 192.567 107.301 193.884 108.863C195.448 110.728 197.065 112.638 198.064 115.099C198.143 115.307 198.138 115.539 198.049 115.743C197.959 115.948 197.793 116.109 197.586 116.193C197.378 116.277 197.146 116.276 196.939 116.191C196.732 116.106 196.567 115.944 196.479 115.739C195.583 113.528 194.122 111.795 192.574 109.956C191.265 108.393 189.892 106.773 188.878 104.813C187.839 102.806 187.194 100.569 186.565 98.4051C185.729 95.5175 184.939 92.7883 183.306 90.5517C183.213 90.4246 183.157 90.2744 183.145 90.1176C183.132 89.9609 183.164 89.8038 183.235 89.6636C183.306 89.5235 183.415 89.4057 183.55 89.3235C183.684 89.2412 183.839 89.1975 183.996 89.1974V89.1937Z" fill="#571519"/>
<path d="M173.718 103.804C173.854 103.805 173.989 103.838 174.11 103.901C175.486 104.61 176.371 105.847 177.227 107.042C177.789 107.833 178.327 108.579 178.958 109.106C182.223 111.831 186.53 115.056 191.089 118.194C191.276 118.321 191.463 118.461 191.676 118.608C193.921 120.205 195.888 121.406 197.169 119.875C198.378 118.435 198.565 116.37 198.743 114.372C198.806 113.672 198.87 112.95 198.978 112.267C198.988 112.15 199.021 112.036 199.076 111.932C199.132 111.828 199.208 111.737 199.301 111.664C199.394 111.591 199.5 111.538 199.614 111.509C199.729 111.479 199.848 111.473 199.964 111.491C200.081 111.51 200.192 111.552 200.292 111.615C200.391 111.678 200.476 111.762 200.542 111.859C200.607 111.957 200.652 112.068 200.673 112.183C200.693 112.299 200.69 112.418 200.662 112.532C200.563 113.159 200.503 113.821 200.441 114.523C200.254 116.677 200.028 119.121 198.475 120.97C196.075 123.828 192.696 121.43 190.679 119.996C190.479 119.854 190.29 119.72 190.118 119.597C185.517 116.426 181.166 113.17 177.863 110.413C177.065 109.747 176.44 108.876 175.837 108.033C175.065 106.955 174.341 105.934 173.325 105.421C173.154 105.334 173.018 105.191 172.939 105.017C172.86 104.843 172.841 104.647 172.887 104.461C172.932 104.276 173.039 104.111 173.19 103.993C173.341 103.875 173.528 103.811 173.719 103.811L173.718 103.804ZM195.515 94.0833C195.716 94.0827 195.91 94.1527 196.064 94.281C199.732 97.3403 200.615 99.7243 201.981 104.015C202.049 104.23 202.028 104.463 201.923 104.663C201.819 104.862 201.639 105.013 201.424 105.081C201.209 105.149 200.975 105.13 200.774 105.027C200.573 104.924 200.421 104.746 200.352 104.532C199.042 100.439 198.277 98.3495 194.967 95.5887C194.832 95.4768 194.735 95.3259 194.689 95.1568C194.642 94.9876 194.65 94.8084 194.71 94.6436C194.77 94.4788 194.88 94.3366 195.024 94.2363C195.168 94.136 195.34 94.0826 195.515 94.0833Z" fill="#571519"/>
<path d="M166.135 107.255C166.308 107.254 166.477 107.307 166.619 107.406C167.682 108.133 168.593 109.021 169.474 109.877C170.462 110.838 171.396 111.743 172.498 112.416C174.4 113.573 176.642 114.442 178.808 115.283C179.804 115.668 180.791 116.052 181.74 116.457C182.198 116.655 182.662 116.875 183.13 117.099C185.205 118.089 187.164 119.027 189.057 117.985C189.255 117.884 189.484 117.865 189.696 117.929C189.908 117.994 190.086 118.139 190.194 118.333C190.301 118.527 190.328 118.754 190.27 118.968C190.212 119.181 190.073 119.364 189.882 119.477C187.224 120.939 184.657 119.714 182.399 118.634C181.953 118.421 181.51 118.21 181.072 118.022C180.137 117.625 179.173 117.248 178.196 116.871C175.951 116.003 173.646 115.106 171.615 113.869C170.348 113.101 169.3 112.082 168.288 111.097C167.42 110.252 166.604 109.454 165.656 108.807C165.506 108.703 165.393 108.555 165.334 108.383C165.274 108.211 165.271 108.025 165.326 107.851C165.38 107.678 165.489 107.526 165.635 107.418C165.782 107.311 165.96 107.253 166.142 107.253L166.135 107.255Z" fill="#571519"/>
<path d="M158.653 103.543C158.814 103.543 158.971 103.588 159.107 103.673C159.244 103.757 159.353 103.878 159.424 104.022C161.966 109.229 167.095 113.941 172.805 116.317C175.197 117.313 178.114 118.211 179.452 116.272C179.581 116.088 179.778 115.963 180 115.923C180.222 115.883 180.451 115.932 180.637 116.059C180.822 116.187 180.95 116.382 180.992 116.603C181.034 116.824 180.987 117.052 180.861 117.239C178.563 120.565 173.901 118.621 172.144 117.89C166.067 115.36 160.604 110.333 157.884 104.768C157.821 104.638 157.792 104.495 157.8 104.35C157.808 104.206 157.853 104.066 157.93 103.944C158.006 103.822 158.113 103.721 158.239 103.65C158.366 103.58 158.508 103.543 158.653 103.543Z" fill="#571519"/>
<path d="M107.333 26.2563C107.461 26.2559 107.588 26.2846 107.704 26.3402C107.82 26.3957 107.922 26.4767 108.002 26.5771L110.794 30.0449C121.271 43.0731 140.76 67.3218 143.099 74.1698C145.471 81.1129 150.814 93.6877 154.006 100.286C154.38 101.054 154.73 101.806 155.072 102.539C157.942 108.669 160.015 113.097 167.431 114.342C167.547 114.354 167.659 114.391 167.76 114.448C167.861 114.505 167.949 114.583 168.019 114.675C168.089 114.768 168.14 114.873 168.168 114.986C168.195 115.099 168.2 115.216 168.18 115.33C168.161 115.444 168.119 115.554 168.056 115.651C167.993 115.749 167.91 115.832 167.814 115.897C167.717 115.961 167.608 116.006 167.494 116.027C167.38 116.048 167.262 116.046 167.149 116.021C158.846 114.629 156.498 109.611 153.523 103.257C153.183 102.532 152.833 101.786 152.466 101.019C149.252 94.3686 143.871 81.7023 141.48 74.7051C139.235 68.1388 119.866 44.0431 109.46 31.097L106.667 27.6199C106.566 27.4944 106.504 27.3434 106.486 27.1841C106.468 27.0248 106.495 26.8636 106.565 26.7191C106.634 26.5745 106.743 26.4523 106.879 26.3665C107.014 26.2807 107.172 26.2347 107.333 26.2339V26.2563Z" fill="#571519"/>
<path fill-rule="evenodd" clip-rule="evenodd" d="M93.8977 263.471C93.8977 263.471 103.886 255.586 107.43 252.405C110.973 249.225 116.35 245.155 119.939 241.847C123.527 238.54 124.762 237.478 127.235 234.253C129.709 231.028 133.688 225.638 136.215 222.54C138.743 219.442 139.632 218.554 143.942 215.798C148.253 213.043 149.49 212.409 153.11 210.502C156.73 208.596 156.352 208.894 159.549 208.518C162.747 208.141 162.234 208.566 165.561 207.551C168.887 206.537 168.887 206.792 171.018 206.031C173.149 205.27 174.047 204.55 174.642 205.315C175.237 206.079 175.235 207.951 175.235 207.951C175.235 207.951 179.147 206.576 183.046 205.525C186.945 204.475 188.659 203.847 192.505 202.759C196.352 201.671 197.631 201.364 199.918 201.589C202.204 201.815 202.705 201.311 203.416 202.757C204.127 204.203 204.61 204.457 202.707 205.788C200.804 207.12 199.229 207.798 195.82 209.174C192.412 210.551 192.041 210.624 186.705 212.532C181.37 214.44 171.867 218.179 171.867 218.179C171.867 218.179 174.112 217.992 175.744 218.354C177.375 218.716 178.831 218.638 179.88 220.137C180.93 221.637 182.002 221.382 181.394 223.107C180.786 224.833 178.2 226.515 178.2 226.515C178.2 226.515 178.589 227.151 178.745 228.979C178.9 230.808 178.861 231.313 177.663 232.544C176.466 233.775 173.235 235.242 173.235 235.242C173.235 235.242 173.774 236.158 173.678 238.008C173.583 239.859 173.046 241.409 171.459 243.007C169.873 244.606 167.633 245.882 164.876 247.498C162.118 249.113 160.76 249.895 157.373 251.061C153.987 252.226 149.544 253.269 146.857 254.25C144.171 255.232 142.096 255.489 140.683 256.696C139.271 257.903 132.01 265.484 130.109 267.773C128.208 270.062 118.852 280.881 117.052 283.489C115.252 286.097 109.381 294.297 109.381 294.297C109.381 294.297 101.821 287.768 97.9482 280.072C94.0754 272.375 93.8977 263.471 93.8977 263.471Z" fill="#FFE9D3"/>
<path d="M174.256 204.391C174.318 204.391 174.378 204.391 174.443 204.391C174.635 204.409 174.82 204.468 174.986 204.565C175.152 204.661 175.294 204.793 175.403 204.951C175.837 205.603 176.026 206.386 175.938 207.163C175.894 207.386 175.762 207.582 175.573 207.708C175.383 207.834 175.151 207.88 174.928 207.835C174.705 207.791 174.508 207.659 174.382 207.47C174.256 207.282 174.21 207.05 174.255 206.828C174.245 206.578 174.192 206.332 174.099 206.1C173.472 206.167 172.415 206.637 171.607 206.99C170.984 207.287 170.339 207.537 169.678 207.736C166.183 208.617 162.556 209.018 159.048 209.415L158.412 209.484C156.318 209.717 154.236 210.915 152.223 212.073C151.504 212.487 150.76 212.915 150.041 213.282C145.71 215.487 141.332 217.946 138.629 221.037C137.033 222.857 135.022 225.53 132.891 228.362C129.66 232.653 126.32 237.089 123.632 239.67C117.478 245.58 102.792 257.472 97.2633 261.947C95.993 262.975 95.1586 263.652 94.949 263.831C94.8639 263.905 94.7651 263.961 94.6582 263.996C94.5514 264.032 94.4386 264.046 94.3262 264.038C94.2139 264.03 94.1043 264 94.0036 263.949C93.903 263.899 93.8132 263.83 93.7395 263.745C93.6658 263.66 93.6096 263.561 93.5741 263.455C93.5385 263.348 93.5244 263.236 93.5325 263.124C93.5406 263.012 93.5707 262.902 93.6211 262.802C93.6716 262.702 93.7414 262.612 93.8265 262.539C94.0379 262.352 94.8873 261.669 96.1782 260.625C101.69 256.161 116.337 244.302 122.44 238.441C125.027 235.955 128.326 231.574 131.516 227.338C133.665 224.482 135.697 221.783 137.334 219.916C140.225 216.614 144.771 214.047 149.254 211.764C149.935 211.417 150.625 211.017 151.358 210.598C153.525 209.352 155.764 208.063 158.213 207.79L158.85 207.719C162.301 207.346 165.869 206.945 169.25 206.093C169.817 205.915 170.37 205.698 170.906 205.442C172.075 204.921 173.285 204.391 174.256 204.391Z" fill="#571519"/>
<path d="M199.081 200.834C199.775 200.825 200.466 200.903 201.139 201.067C201.285 201.106 201.448 201.14 201.62 201.175C202.662 201.392 204.599 201.796 204.614 203.787C204.638 206.663 200.387 208.264 197.573 209.314C197.199 209.454 196.87 209.579 196.604 209.687C192.225 211.478 187.68 213.105 183.287 214.677C179.712 215.957 176.017 217.289 172.436 218.682C172.332 218.723 172.22 218.743 172.108 218.741C171.995 218.739 171.885 218.715 171.782 218.67C171.679 218.625 171.586 218.561 171.508 218.48C171.43 218.399 171.369 218.304 171.328 218.2C171.287 218.096 171.267 217.985 171.269 217.873C171.271 217.761 171.295 217.65 171.34 217.548C171.385 217.445 171.449 217.352 171.53 217.274C171.611 217.197 171.707 217.136 171.811 217.095C175.415 215.685 179.121 214.356 182.707 213.073C187.083 211.506 191.609 209.887 195.953 208.109C196.232 207.995 196.578 207.865 196.969 207.719C198.9 206.994 202.917 205.481 202.902 203.802C202.902 203.306 202.561 203.106 201.265 202.835C201.065 202.794 200.874 202.753 200.703 202.71C198.354 202.102 194.395 203.192 191.776 203.914L191.007 204.124C187.474 205.08 183.841 206.229 180.326 207.34C174.481 209.191 168.436 211.103 162.474 212.258C158.322 213.062 154.865 214.022 152.199 215.112C151.991 215.189 151.761 215.182 151.558 215.094C151.355 215.005 151.194 214.841 151.11 214.637C151.026 214.432 151.024 214.203 151.106 213.997C151.188 213.792 151.347 213.626 151.549 213.536C154.32 212.401 157.884 211.409 162.146 210.584C168.013 209.447 174.01 207.549 179.809 205.716C183.342 204.596 186.992 203.444 190.559 202.479L191.321 202.27C193.624 201.645 196.573 200.834 199.081 200.834Z" fill="#571519"/>
<path d="M174.034 217.334C175.693 217.334 177.197 217.505 178.193 217.919C179.69 218.548 181.622 219.921 182.096 221.73C182.371 222.777 182.125 223.829 181.386 224.773C179.59 227.069 176.769 227.769 174.039 228.446C171.877 228.983 169.836 229.491 168.391 230.729C168.306 230.803 168.207 230.859 168.101 230.894C167.994 230.93 167.881 230.944 167.769 230.936C167.657 230.928 167.547 230.898 167.447 230.848C167.346 230.798 167.256 230.728 167.183 230.643C167.109 230.559 167.053 230.46 167.017 230.354C166.982 230.247 166.967 230.135 166.975 230.023C166.983 229.911 167.013 229.802 167.064 229.702C167.114 229.601 167.184 229.512 167.269 229.438C169.02 227.933 171.358 227.353 173.618 226.791C176.18 226.157 178.597 225.556 180.032 223.724C180.44 223.2 180.573 222.689 180.434 222.161C180.139 221.042 178.72 219.992 177.525 219.492C175.269 218.559 168.707 219.162 165.963 220.285C165.753 220.37 165.517 220.37 165.308 220.282C165.099 220.195 164.933 220.028 164.847 219.819C164.761 219.61 164.761 219.375 164.849 219.166C164.937 218.958 165.104 218.792 165.314 218.706C167.16 217.964 170.878 217.334 174.034 217.334Z" fill="#571519"/>
<path d="M178.264 225.771C178.434 225.771 178.6 225.821 178.741 225.915C178.882 226.01 178.991 226.144 179.055 226.301C181.529 232.309 176.524 234.716 172.507 236.648C170.533 237.598 168.492 238.579 167.366 239.864C167.294 239.955 167.205 240.03 167.103 240.085C167.001 240.141 166.889 240.175 166.774 240.185C166.659 240.196 166.542 240.183 166.432 240.148C166.322 240.112 166.22 240.055 166.133 239.979C166.045 239.903 165.974 239.81 165.924 239.706C165.874 239.602 165.845 239.489 165.84 239.373C165.835 239.258 165.854 239.143 165.895 239.035C165.936 238.927 165.998 238.828 166.079 238.745C167.433 237.197 169.634 236.133 171.763 235.115C176.46 232.856 179.246 231.253 177.478 226.948C177.425 226.819 177.404 226.678 177.418 226.539C177.432 226.4 177.48 226.266 177.558 226.15C177.636 226.034 177.742 225.939 177.865 225.873C177.989 225.807 178.127 225.773 178.268 225.773L178.264 225.771Z" fill="#571519"/>
<path d="M173.431 235.365C173.601 235.365 173.767 235.415 173.908 235.51C174.049 235.604 174.158 235.738 174.223 235.895C176.705 241.931 168.283 246.528 163.746 248.994C163.031 249.384 162.401 249.727 161.908 250.021C160.666 250.768 157.718 251.678 153.983 252.833C148.943 254.388 142.67 256.327 140.55 258.039C134.539 262.889 116.835 284.955 110.356 294.527C110.229 294.714 110.033 294.844 109.81 294.887C109.588 294.93 109.357 294.884 109.169 294.757C108.981 294.631 108.851 294.435 108.807 294.213C108.764 293.991 108.811 293.761 108.938 293.574C115.467 283.926 133.364 261.645 139.475 256.713C141.849 254.795 148.026 252.887 153.476 251.202C156.812 250.173 159.963 249.199 161.027 248.561C161.534 248.257 162.187 247.901 162.926 247.498C167.267 245.13 174.526 241.166 172.631 236.542C172.587 236.438 172.565 236.326 172.565 236.214C172.564 236.101 172.587 235.99 172.63 235.886C172.673 235.782 172.737 235.687 172.817 235.608C172.897 235.528 172.992 235.465 173.096 235.423C173.203 235.382 173.317 235.362 173.431 235.365ZM243.962 221.833C244.012 221.833 244.061 221.833 244.108 221.833C244.568 221.865 245.231 222.07 245.833 222.861C249.064 227.151 245.97 231.492 243.71 234.66C243.191 235.387 242.701 236.074 242.327 236.697C239.742 240.987 237.596 247.751 240.056 252.657C240.157 252.86 240.174 253.094 240.102 253.308C240.03 253.523 239.875 253.7 239.672 253.801C239.469 253.902 239.235 253.918 239.019 253.846C238.804 253.775 238.627 253.621 238.525 253.418C235.758 247.902 237.919 240.711 240.86 235.82C241.27 235.141 241.779 234.427 242.318 233.671C244.488 230.63 246.946 227.181 244.466 223.883C244.358 223.709 244.186 223.583 243.987 223.534C243.725 223.57 243.486 223.704 243.319 223.907C242.9 224.327 242.589 224.969 242.26 225.65C241.91 226.372 241.549 227.12 240.995 227.741C239.988 228.823 238.912 229.84 237.773 230.785C236.196 232.151 234.707 233.442 233.611 235.076C232.576 236.624 231.897 238.691 231.24 240.691C230.848 241.96 230.392 243.209 229.874 244.433C229.163 246.028 228.331 247.567 227.525 249.055C226.215 251.458 224.995 253.719 224.202 256.254C221.97 263.372 220.915 270.703 220.105 277.566C219.824 279.963 219.169 290.298 218.496 301.239C217.727 313.58 216.855 327.569 216.337 332.764C216.329 332.879 216.299 332.99 216.247 333.092C216.196 333.195 216.124 333.286 216.037 333.36C215.949 333.434 215.848 333.49 215.738 333.524C215.629 333.558 215.513 333.57 215.399 333.558C215.285 333.547 215.174 333.513 215.073 333.458C214.973 333.403 214.884 333.329 214.813 333.239C214.742 333.149 214.689 333.046 214.659 332.936C214.628 332.825 214.621 332.71 214.636 332.596C215.15 327.427 216.02 313.457 216.789 301.129C217.504 289.688 218.12 279.807 218.408 277.363C219.225 270.42 220.297 262.999 222.57 255.741C223.412 253.057 224.737 250.609 226.018 248.242C226.81 246.781 227.629 245.27 228.312 243.737C228.795 242.653 229.193 241.441 229.622 240.155C230.312 238.047 231.029 235.865 232.192 234.126C233.418 232.294 235.064 230.867 236.658 229.487C237.741 228.59 238.764 227.625 239.723 226.597C240.118 226.153 240.413 225.543 240.724 224.898C241.098 224.12 241.491 223.314 242.116 222.691C242.812 221.997 243.483 221.833 243.962 221.833ZM259.919 229.72C260.095 229.72 260.266 229.774 260.41 229.874C260.553 229.974 260.663 230.116 260.723 230.281C260.783 230.445 260.791 230.624 260.745 230.793C260.7 230.962 260.604 231.113 260.469 231.225C257.973 233.288 255.94 235.85 254.501 238.747C254.453 238.85 254.385 238.943 254.3 239.019C254.215 239.096 254.116 239.155 254.008 239.193C253.901 239.23 253.786 239.246 253.672 239.239C253.558 239.232 253.447 239.202 253.345 239.151C253.242 239.101 253.151 239.03 253.077 238.944C253.002 238.857 252.946 238.757 252.911 238.648C252.876 238.54 252.864 238.425 252.874 238.312C252.884 238.198 252.917 238.088 252.971 237.988C254.512 234.881 256.692 232.133 259.369 229.922C259.523 229.792 259.718 229.72 259.919 229.72Z" fill="#571519"/>
<path d="M249.624 244.009C249.8 244.009 249.972 244.062 250.117 244.163C250.262 244.264 250.371 244.407 250.431 244.573C250.491 244.738 250.498 244.918 250.451 245.088C250.405 245.258 250.306 245.409 250.17 245.52C248.144 247.186 245.369 249.089 242.922 250.768C241.743 251.576 240.617 252.35 239.641 253.047C239.456 253.171 239.231 253.219 239.012 253.18C238.793 253.14 238.598 253.018 238.468 252.838C238.338 252.658 238.284 252.434 238.317 252.215C238.35 251.996 238.467 251.798 238.643 251.663C239.627 250.958 240.765 250.171 241.953 249.363C244.37 247.705 247.113 245.819 249.081 244.203C249.234 244.078 249.426 244.009 249.624 244.009ZM250.608 215.944H250.664C251.73 215.985 252.462 217.017 253.311 218.211C253.908 219.052 254.583 220.003 255.403 220.665C256.681 221.697 258.162 222.531 259.596 223.357C262.668 225.107 265.842 226.918 266.991 230.604C267.64 232.694 265.869 235.981 263.998 239.169C263.758 239.579 263.545 239.939 263.384 240.232C261.652 243.381 260.681 246.627 259.743 249.764C259.42 250.848 259.103 251.906 258.765 252.924C258.73 253.031 258.674 253.129 258.6 253.214C258.527 253.298 258.437 253.368 258.337 253.418C258.237 253.469 258.128 253.499 258.016 253.507C257.904 253.515 257.791 253.501 257.684 253.466C257.578 253.431 257.479 253.375 257.394 253.302C257.309 253.229 257.239 253.14 257.189 253.04C257.138 252.94 257.108 252.831 257.1 252.719C257.092 252.607 257.106 252.495 257.141 252.389C257.474 251.385 257.784 250.337 258.104 249.277C259.072 246.061 260.067 242.72 261.878 239.413C262.044 239.109 262.265 238.736 262.514 238.311C263.59 236.475 265.829 232.658 265.349 231.112C264.4 228.067 261.65 226.499 258.737 224.84C257.24 223.99 255.702 223.109 254.318 221.992C253.315 221.182 252.567 220.126 251.906 219.194C251.513 218.634 250.935 217.824 250.634 217.666C250.151 218.102 249.625 220.429 249.723 221.104C250.097 223.434 252.166 225.379 254.168 227.26C255.68 228.683 257.244 230.155 258.123 231.834C258.178 231.933 258.212 232.043 258.224 232.155C258.236 232.268 258.225 232.382 258.192 232.491C258.159 232.599 258.105 232.7 258.032 232.788C257.96 232.875 257.87 232.947 257.769 233C257.669 233.052 257.558 233.084 257.445 233.094C257.331 233.103 257.217 233.09 257.109 233.055C257.001 233.02 256.901 232.963 256.815 232.889C256.729 232.815 256.658 232.724 256.608 232.623C255.859 231.198 254.469 229.888 252.993 228.5C250.785 226.424 248.503 224.277 248.035 221.374C247.899 220.529 248.323 217.703 249.345 216.556C249.497 216.368 249.689 216.215 249.908 216.109C250.126 216.003 250.365 215.947 250.608 215.944Z" fill="#571519"/>
<path d="M262.065 241.185C262.27 241.186 262.468 241.26 262.623 241.394C262.779 241.527 262.88 241.712 262.911 241.914C264.119 250.137 263.409 256.129 260.797 259.727C260.733 259.823 260.651 259.906 260.555 259.969C260.458 260.033 260.35 260.076 260.237 260.097C260.123 260.118 260.007 260.115 259.894 260.09C259.782 260.064 259.675 260.017 259.582 259.949C259.488 259.882 259.409 259.796 259.35 259.698C259.291 259.599 259.252 259.489 259.236 259.375C259.22 259.261 259.228 259.145 259.258 259.034C259.288 258.923 259.341 258.82 259.412 258.729C261.753 255.502 262.361 249.928 261.218 242.163C261.186 241.939 261.243 241.711 261.379 241.53C261.514 241.349 261.716 241.228 261.94 241.194C261.981 241.189 262.023 241.185 262.065 241.185Z" fill="#571519"/>
<path d="M262.278 253.92C262.453 253.921 262.624 253.975 262.767 254.075C262.91 254.175 263.019 254.316 263.079 254.48C264.248 257.606 263.762 260.449 261.594 263.171C261.452 263.348 261.246 263.462 261.021 263.488C260.796 263.513 260.569 263.449 260.392 263.308C260.214 263.167 260.1 262.962 260.074 262.737C260.048 262.512 260.113 262.287 260.254 262.11C262.067 259.834 262.445 257.666 261.478 255.075C261.398 254.863 261.406 254.629 261.5 254.423C261.595 254.217 261.767 254.057 261.979 253.978C262.075 253.942 262.176 253.922 262.278 253.92ZM254.669 267.411C254.846 267.411 255.019 267.466 255.164 267.567C255.308 267.669 255.418 267.813 255.476 267.98C255.535 268.146 255.541 268.327 255.493 268.497C255.444 268.666 255.344 268.817 255.206 268.928L253.71 270.127C251.038 272.256 248.284 274.459 245.773 276.768C244.898 277.578 242.003 281.355 241.027 283.351C239.562 286.347 240.793 313.482 245.124 332.835C245.149 332.945 245.151 333.058 245.132 333.168C245.113 333.278 245.072 333.384 245.012 333.478C244.891 333.669 244.698 333.804 244.477 333.854C244.255 333.903 244.023 333.863 243.832 333.742C243.64 333.621 243.505 333.429 243.455 333.208C239.478 315.431 237.573 286.528 239.491 282.605C240.531 280.477 243.528 276.52 244.611 275.516C247.158 273.164 249.945 270.942 252.641 268.801L254.138 267.603C254.288 267.481 254.476 267.414 254.669 267.411ZM250.84 227.135C250.955 227.134 251.068 227.157 251.174 227.202C251.28 227.247 251.376 227.313 251.455 227.396C252.204 228.172 253.597 229.103 254.823 229.925C255.975 230.696 256.971 231.364 257.537 231.936C257.616 232.016 257.679 232.11 257.721 232.214C257.763 232.318 257.785 232.429 257.784 232.541C257.783 232.653 257.76 232.764 257.716 232.867C257.673 232.97 257.609 233.064 257.529 233.142C257.449 233.221 257.354 233.283 257.25 233.325C257.146 233.367 257.035 233.389 256.923 233.388C256.81 233.387 256.699 233.364 256.596 233.321C256.492 233.277 256.398 233.214 256.32 233.134C255.874 232.682 254.901 232.031 253.871 231.341C252.508 230.429 251.1 229.487 250.222 228.58C250.105 228.46 250.027 228.308 249.996 228.143C249.965 227.978 249.984 227.808 250.049 227.654C250.115 227.5 250.225 227.368 250.365 227.276C250.505 227.183 250.67 227.134 250.838 227.135H250.84ZM244.2 232.569C244.369 232.569 244.535 232.619 244.676 232.713C244.816 232.807 244.926 232.941 244.99 233.097C245.055 233.254 245.071 233.426 245.037 233.591C245.003 233.757 244.921 233.909 244.8 234.027C244.681 234.294 245.362 235.816 247.708 237.215C247.894 237.335 248.026 237.522 248.077 237.737C248.127 237.952 248.092 238.178 247.979 238.368C247.866 238.558 247.683 238.696 247.47 238.754C247.256 238.812 247.028 238.786 246.834 238.68C244.735 237.434 243.268 235.736 243.102 234.358C243.058 234.079 243.081 233.795 243.167 233.527C243.253 233.258 243.401 233.014 243.599 232.813C243.759 232.656 243.975 232.568 244.2 232.569Z" fill="#571519"/>
<path d="M244.215 235.396C244.413 235.396 244.606 235.464 244.76 235.589C244.913 235.714 245.018 235.889 245.057 236.083C245.096 236.277 245.066 236.478 244.972 236.652C244.878 236.827 244.726 236.963 244.542 237.038C244.233 237.165 244.2 237.307 244.19 237.452C244.106 238.73 246.746 241.92 249.833 243.684C250.03 243.797 250.174 243.983 250.233 244.202C250.292 244.42 250.261 244.653 250.148 244.849C250.035 245.046 249.849 245.189 249.629 245.248C249.41 245.307 249.177 245.277 248.98 245.164C246.22 243.586 242.318 239.89 242.484 237.342C242.507 236.926 242.652 236.525 242.902 236.191C243.152 235.856 243.496 235.603 243.889 235.462C243.992 235.418 244.103 235.396 244.215 235.396Z" fill="#571519"/>
<path fill-rule="evenodd" clip-rule="evenodd" d="M348.196 211.538C348.325 212.034 363.133 220.533 378.364 228.995C392.932 237.087 417.308 249.817 417.308 249.817C417.308 249.817 415.55 257.739 411.121 265.193C406.693 272.648 399.589 279.639 399.589 279.639C399.589 279.639 367.862 252.788 352.891 240.682C345.198 234.46 338.486 229.552 337.696 229.442C335.661 229.164 328.903 229.946 326.864 229.976C325.395 229.996 320.948 230.019 319.517 229.819C316.312 229.37 314.925 227.221 312.781 226.045C309.021 223.993 305.571 222.453 304.849 220.608C304.434 219.548 304.154 218.441 304.016 217.312C303.808 215.741 292.903 206.723 285.681 200.319C284.185 198.986 282.43 197.786 281.431 196.674C280.582 195.766 279.918 194.702 279.477 193.54C279.09 192.733 282.557 191.55 287.571 194.583C291.143 196.743 295.532 200.198 298.347 202.64C300.299 204.33 301.393 205.653 301.359 205.237C301.273 204.231 303.109 204.599 303.193 203.573C303.238 203 302.175 202.493 301.597 201.672C300.967 200.778 300.826 199.571 301.107 199.008C301.668 197.889 305.49 197.956 305.857 196.876C305.975 196.521 305.416 195.62 305.423 195.001C305.408 194.531 305.571 194.073 305.88 193.718C306.189 193.364 306.621 193.138 307.09 193.087C308.187 192.955 309.298 193.006 310.377 193.238C312.194 193.686 313.558 194.475 313.225 193.77C312.785 192.815 313.492 191.231 315.096 190.821C318.463 189.955 321.769 192.559 326.396 195.068C331.808 198.002 337.453 200.023 341.763 203.418C345.217 206.154 347.922 210.478 348.196 211.538Z" fill="#E5A495"/>
<path fill-rule="evenodd" clip-rule="evenodd" d="M353.589 240.767C353.329 238.126 355.754 238.689 357.647 239.551C360.785 240.978 366.356 243.429 368.254 246.343C368.791 247.169 370.293 249.792 369.449 250.846C368.701 251.79 366.607 250.671 365.866 250.186C362.692 248.112 359.718 245.747 356.983 243.123C356.641 242.789 353.634 241.211 353.589 240.767ZM348.617 212.961C342.673 218.99 349.178 223.292 352.574 227.724C354.738 230.548 356.459 233.925 359.733 235.745C362.038 237.025 365.962 236.566 368.557 236.883C374.465 237.602 381.529 241.547 386.918 236.721C389.137 234.731 382.188 231.498 380.899 230.705C373.327 226.013 364.953 222.814 357.546 217.74C355.468 216.319 353.144 215.213 351.011 213.912C350.372 213.517 349.165 212.403 348.617 212.961ZM329.157 228.526C332.089 224.266 323.055 223.906 319.803 222.941C317.764 222.34 316.046 221.007 314.093 220.216C312.652 219.63 308.293 219.419 308.188 222.035C308.134 223.284 311.255 224.92 312.136 225.562C316.546 228.789 325.863 233.319 329.157 228.526ZM330.77 197.995C329.926 201.645 327.749 203.362 330.246 206.729C332.342 209.553 342.521 213.107 343.954 207.99C345.004 204.242 337.33 200.239 334.729 199.185C333.799 198.808 331.011 196.95 330.77 197.995ZM317.07 191.654C315.371 195.825 321.747 197.402 322.153 194.967C322.435 193.27 317.661 190.19 317.07 191.654Z" fill="#FFE4CE"/>
<path d="M303.998 203.003C304.538 203.006 305.074 203.1 305.582 203.283C308.907 204.455 311.195 209.103 312.029 211.666C312.142 212.057 312.23 212.454 312.295 212.855C312.523 214.078 312.774 215.177 313.354 215.183C314.985 215.183 316.845 214.33 318.641 213.491C319.616 213.008 320.62 212.585 321.648 212.226C327.135 210.458 333.247 210.974 339.322 213.718C339.529 213.812 339.69 213.983 339.77 214.195C339.85 214.406 339.842 214.641 339.749 214.847C339.655 215.053 339.483 215.214 339.271 215.293C339.059 215.373 338.823 215.366 338.617 215.272C334.656 213.483 328.587 211.784 322.173 213.851C321.215 214.189 320.278 214.585 319.367 215.035C317.397 215.957 315.332 216.888 313.339 216.89C311.302 216.871 310.871 214.552 310.615 213.159C310.561 212.831 310.49 212.506 310.402 212.185C309.449 209.249 307.358 205.712 305.012 204.886C304.059 204.55 303.124 204.686 302.153 205.303C301.927 205.96 303.062 208.594 303.44 209.469C303.676 209.971 303.878 210.488 304.044 211.017C304.318 212.236 304.521 213.469 304.652 214.711C304.931 216.901 305.214 219.167 305.994 220.54C306.725 221.846 307.979 222.469 309.431 223.191C309.975 223.461 310.54 223.751 311.098 224.071C311.709 224.433 312.441 224.924 313.214 225.443C315.272 226.823 317.84 228.541 319.575 228.8C322.235 229.205 325.749 228.959 329.163 228.722C332.142 228.513 335.223 228.3 337.709 228.535C341.427 228.879 393.698 273.813 399.645 278.936C399.73 279.009 399.8 279.098 399.85 279.199C399.9 279.299 399.93 279.408 399.938 279.52C399.946 279.632 399.932 279.744 399.896 279.85C399.86 279.957 399.804 280.055 399.731 280.14C399.657 280.224 399.567 280.294 399.467 280.344C399.366 280.394 399.256 280.424 399.144 280.431C399.032 280.439 398.92 280.425 398.813 280.39C398.706 280.354 398.608 280.298 398.523 280.225C366.156 252.349 339.921 230.854 337.502 230.231C335.197 230.02 332.188 230.231 329.27 230.433C325.769 230.675 322.16 230.927 319.303 230.496C317.197 230.175 314.456 228.338 312.254 226.862C311.506 226.358 310.789 225.881 310.216 225.543C309.713 225.245 309.178 224.984 308.66 224.722C307.098 223.946 305.479 223.142 304.493 221.378C303.558 219.716 303.249 217.285 302.948 214.933C302.825 213.758 302.638 212.591 302.387 211.437C302.333 211.226 302.097 210.678 301.869 210.148C300.813 207.7 299.623 204.925 301.169 203.914C302.001 203.339 302.985 203.022 303.998 203.003ZM316.548 189.947C319.491 189.947 322.679 191.938 324.692 193.193L324.879 193.305C327.04 194.652 329.47 195.823 331.822 196.957C336.892 199.403 342.134 201.931 345.666 206.538C345.853 206.785 346.063 207.044 346.276 207.311C347.371 208.68 348.733 210.383 349.083 212.17C349.104 212.28 349.103 212.394 349.08 212.503C349.057 212.613 349.013 212.718 348.95 212.811C348.886 212.903 348.805 212.983 348.711 213.045C348.617 213.106 348.512 213.149 348.402 213.17C348.291 213.191 348.177 213.19 348.067 213.167C347.957 213.145 347.852 213.101 347.759 213.037C347.666 212.974 347.586 212.894 347.524 212.8C347.463 212.706 347.42 212.601 347.399 212.491C347.135 211.118 345.969 209.659 344.94 208.374C344.72 208.096 344.506 207.829 344.312 207.575C341.017 203.289 335.966 200.851 331.068 198.493C328.675 197.34 326.203 196.146 323.958 194.751L323.782 194.639C321.036 192.926 316.443 190.057 313.867 192.792C313.827 192.835 313.549 193.268 315.816 195.562C315.964 195.711 316.087 195.838 316.177 195.935C318.263 198.194 321.328 199.597 324.289 200.839C324.512 200.933 324.763 201.056 325.038 201.186C325.803 201.559 326.959 202.119 327.498 201.843C327.582 201.8 327.721 201.714 327.726 201.638C327.741 201.39 327.504 200.375 323.736 197.689L323.423 197.463C322.886 197.041 322.382 196.579 321.915 196.081C321.287 195.446 320.639 194.79 320.013 194.486C319.907 194.44 319.812 194.373 319.733 194.289C319.654 194.206 319.593 194.107 319.553 193.999C319.513 193.891 319.496 193.777 319.502 193.662C319.508 193.547 319.537 193.435 319.587 193.332C319.638 193.228 319.708 193.136 319.795 193.061C319.882 192.986 319.984 192.929 320.093 192.894C320.203 192.858 320.319 192.846 320.433 192.856C320.548 192.866 320.659 192.9 320.761 192.954C321.65 193.385 322.404 194.148 323.131 194.883C323.537 195.319 323.975 195.724 324.441 196.096L324.74 196.303C327.131 198.008 329.558 199.987 329.442 201.75C329.41 202.224 329.187 202.886 328.31 203.35C327 204.042 325.436 203.278 324.293 202.718C324.057 202.6 323.837 202.492 323.642 202.41C320.506 201.104 317.253 199.601 314.935 197.09C314.854 197.002 314.748 196.89 314.613 196.758C313.395 195.525 311.129 193.23 312.634 191.628C313.128 191.086 313.733 190.655 314.408 190.365C315.083 190.076 315.813 189.933 316.548 189.947Z" fill="#571519"/>
<path d="M308.276 192.41C310.419 192.41 312.766 193.143 313.367 193.436C313.473 193.482 313.568 193.549 313.647 193.632C313.725 193.716 313.787 193.815 313.826 193.922C313.866 194.03 313.884 194.145 313.878 194.26C313.872 194.374 313.843 194.487 313.792 194.59C313.742 194.693 313.671 194.785 313.584 194.86C313.497 194.936 313.396 194.993 313.286 195.028C313.177 195.063 313.061 195.076 312.946 195.065C312.832 195.055 312.72 195.022 312.619 194.967C311.421 194.385 307.498 193.626 306.402 194.536C306.297 194.622 306.028 194.852 306.252 195.67C306.439 196.366 307.156 197.079 307.781 197.706C307.951 197.875 308.115 198.041 308.265 198.2C311.52 201.666 315.672 203.837 321.328 205.033C323.434 205.477 325.238 205.264 325.537 204.792C325.661 204.606 325.537 204.031 324.809 203.076C324.672 202.897 324.611 202.67 324.641 202.446C324.67 202.221 324.788 202.018 324.968 201.88C325.149 201.743 325.376 201.682 325.601 201.712C325.826 201.742 326.03 201.859 326.168 202.039C327.307 203.531 327.582 204.757 326.983 205.703C325.777 207.606 321.764 206.869 320.974 206.701C314.959 205.429 310.523 203.099 307.017 199.366C306.879 199.219 306.725 199.066 306.566 198.907C305.833 198.161 304.92 197.254 304.604 196.129C304.168 194.575 304.746 193.693 305.307 193.227C306.031 192.621 307.12 192.41 308.276 192.41Z" fill="#571519"/>
<path d="M305.339 196.5C305.518 196.5 305.692 196.556 305.838 196.66C305.983 196.764 306.092 196.91 306.149 197.079C306.207 197.248 306.21 197.431 306.158 197.601C306.105 197.772 306.001 197.922 305.859 198.03C305.257 198.491 304.462 198.625 303.691 198.754C303.238 198.809 302.794 198.919 302.368 199.082C302.223 199.135 302.1 199.234 302.016 199.362C301.932 199.491 301.892 199.643 301.902 199.797C301.902 200.892 303.223 202.563 304.018 202.949C304.222 203.048 304.378 203.224 304.452 203.438C304.526 203.651 304.512 203.886 304.413 204.089C304.314 204.292 304.137 204.448 303.923 204.522C303.709 204.596 303.474 204.582 303.27 204.483C302.048 203.888 300.196 201.714 300.194 199.799C300.185 199.327 300.315 198.864 300.568 198.466C300.821 198.068 301.186 197.753 301.618 197.56C302.188 197.317 302.79 197.156 303.406 197.081C303.945 196.989 304.555 196.894 304.821 196.683C304.969 196.567 305.151 196.503 305.339 196.5ZM322.42 205.986C322.608 205.986 322.79 206.048 322.939 206.161C323.088 206.274 323.195 206.433 323.245 206.613C323.375 207.051 323.402 207.513 323.323 207.963C323.244 208.412 323.062 208.838 322.791 209.206C322.188 210.001 321.208 210.445 320.031 210.456C315.876 210.499 311.715 210.286 309.453 208.49C309.362 208.421 309.286 208.335 309.23 208.236C309.173 208.138 309.136 208.029 309.122 207.917C309.108 207.804 309.117 207.69 309.147 207.58C309.178 207.471 309.231 207.369 309.301 207.28C309.372 207.191 309.46 207.117 309.56 207.063C309.66 207.008 309.77 206.974 309.883 206.963C309.997 206.951 310.111 206.962 310.22 206.996C310.329 207.029 310.43 207.083 310.518 207.156C312.617 208.823 317.803 208.771 320.016 208.751C320.649 208.751 321.15 208.542 321.425 208.178C321.539 208.018 321.614 207.833 321.644 207.639C321.674 207.444 321.657 207.246 321.595 207.059C321.56 206.932 321.555 206.799 321.58 206.67C321.604 206.541 321.659 206.42 321.739 206.315C321.819 206.211 321.922 206.126 322.04 206.068C322.158 206.01 322.288 205.98 322.42 205.981V205.986ZM348.126 210.784C348.252 210.784 348.376 210.811 348.49 210.865C348.604 210.918 348.705 210.995 348.785 211.092C351.064 213.23 406.873 244.436 417.292 248.958C417.395 249.003 417.488 249.067 417.566 249.148C417.644 249.228 417.705 249.324 417.746 249.428C417.829 249.638 417.825 249.873 417.734 250.08C417.643 250.287 417.474 250.45 417.263 250.533C417.052 250.616 416.817 250.612 416.609 250.521C407.047 246.371 348.875 214.086 347.443 212.14C347.377 212.05 347.329 211.947 347.303 211.838C347.276 211.729 347.272 211.616 347.289 211.506C347.307 211.395 347.346 211.289 347.404 211.193C347.463 211.097 347.54 211.014 347.631 210.948C347.774 210.843 347.948 210.785 348.126 210.784ZM280.935 191.747C283.116 191.747 286.173 193.109 286.218 193.128C290.179 195.126 293.638 197.9 296.982 200.589C298.499 201.806 300.067 203.063 301.659 204.227C301.842 204.361 301.964 204.562 301.998 204.785C302.033 205.009 301.976 205.237 301.842 205.419C301.708 205.601 301.507 205.723 301.282 205.757C301.058 205.792 300.83 205.736 300.647 205.602C299.027 204.415 297.444 203.145 295.912 201.918C292.637 199.289 289.249 196.573 285.449 194.657C284.486 194.172 281.3 193.214 280.48 193.484C280.843 195.497 283.275 197.37 285.232 198.877C285.932 199.416 286.591 199.924 287.124 200.407C288.825 201.944 290.632 203.473 292.381 204.955C296.477 208.422 300.712 212.01 304.155 216.147C304.278 216.322 304.331 216.537 304.303 216.75C304.275 216.962 304.168 217.156 304.003 217.293C303.838 217.43 303.627 217.5 303.412 217.489C303.198 217.478 302.995 217.388 302.845 217.235C299.498 213.211 295.32 209.674 291.279 206.253C289.521 204.761 287.702 203.223 285.981 201.668C285.498 201.231 284.858 200.735 284.194 200.226C281.966 198.51 279.195 196.375 278.787 193.712C278.725 193.419 278.749 193.115 278.857 192.837C278.964 192.558 279.151 192.316 279.393 192.141C279.771 191.856 280.319 191.747 280.935 191.747ZM456.049 122.559C456.254 122.558 456.453 122.631 456.608 122.764C456.764 122.897 456.866 123.082 456.897 123.284C456.928 123.486 456.884 123.692 456.775 123.865C456.666 124.038 456.498 124.167 456.302 124.226C440.212 129.17 401.604 142.34 398.106 144.709C396.891 145.531 395.26 146.69 393.533 147.915C389.438 150.82 384.343 154.444 381.264 156.107C376.433 158.731 370.828 160.811 363.627 162.677C362.929 162.863 362.201 163.066 361.46 163.279C358.746 164.057 355.67 164.932 352.878 164.747C351.097 164.626 349.35 164.139 347.661 163.669C346.736 163.412 345.863 163.167 344.991 162.982C344.88 162.96 344.775 162.916 344.682 162.853C344.588 162.79 344.508 162.709 344.446 162.614C344.384 162.52 344.342 162.415 344.321 162.304C344.3 162.194 344.302 162.08 344.325 161.97C344.349 161.86 344.394 161.755 344.458 161.663C344.522 161.57 344.604 161.491 344.699 161.43C344.794 161.369 344.9 161.328 345.011 161.308C345.122 161.288 345.236 161.29 345.346 161.315C346.27 161.513 347.217 161.774 348.121 162.026C349.728 162.473 351.389 162.938 352.985 163.046C355.481 163.218 358.274 162.415 360.978 161.641C361.726 161.423 362.474 161.21 363.187 161.028C370.25 159.201 375.731 157.16 380.437 154.607C383.43 152.984 388.482 149.4 392.532 146.522C394.266 145.291 395.9 144.129 397.135 143.295C400.876 140.763 439.727 127.528 455.789 122.589C455.874 122.566 455.961 122.556 456.049 122.559Z" fill="#571519"/>
<path d="M351.249 150.596C351.458 150.595 351.66 150.67 351.817 150.807C351.974 150.944 352.076 151.134 352.102 151.341C352.129 151.547 352.078 151.756 351.961 151.929C351.843 152.101 351.667 152.224 351.464 152.275C342.484 154.594 332.673 154.558 324.179 154.342C323.663 154.329 323.088 154.292 322.478 154.253C319.649 154.066 316.128 153.838 314.609 155.864C314.58 155.898 314.559 155.938 314.548 155.981C314.538 156.024 314.537 156.069 314.548 156.112C314.632 156.597 315.41 157.308 315.911 157.635C317.876 158.787 320.557 159.127 322.922 159.427C329.206 160.227 335.932 160.106 342.431 159.987C344.098 159.957 345.754 159.927 347.387 159.912C348.091 159.912 348.961 159.912 349.932 159.912C353.518 159.938 358.936 159.985 361.5 159.323C361.716 159.275 361.942 159.312 362.131 159.427C362.32 159.543 362.457 159.726 362.513 159.94C362.569 160.154 362.539 160.381 362.43 160.573C362.322 160.766 362.142 160.909 361.93 160.972C359.148 161.692 353.814 161.651 349.917 161.617C348.957 161.617 348.096 161.602 347.402 161.617C345.773 161.632 344.125 161.66 342.463 161.692C335.9 161.809 329.112 161.931 322.705 161.115C320.177 160.795 317.311 160.429 315.01 159.08C314.787 158.937 313.114 157.816 312.864 156.409C312.812 156.136 312.819 155.855 312.883 155.585C312.948 155.315 313.069 155.061 313.238 154.84C315.313 152.074 319.517 152.348 322.592 152.548C323.178 152.587 323.73 152.622 324.226 152.633C332.605 152.85 342.28 152.885 351.039 150.621C351.108 150.604 351.178 150.596 351.249 150.596Z" fill="#571519"/>
<path d="M352.82 139.877C353.029 139.876 353.231 139.951 353.389 140.088C353.546 140.225 353.647 140.415 353.674 140.622C353.7 140.828 353.65 141.037 353.532 141.21C353.415 141.382 353.238 141.505 353.036 141.556C351.322 142 349.385 142.175 347.513 142.345C344.66 142.605 341.713 142.871 339.5 144.073C338.675 144.52 338.063 145.63 338.044 146.714C338.035 147.259 338.175 147.999 338.897 148.421C340.394 149.301 342.3 149.624 344.136 149.938C344.8 150.051 345.458 150.163 346.096 150.299C346.27 150.335 346.521 150.359 346.8 150.387C347.816 150.49 348.97 150.607 349.552 151.273C349.697 151.443 349.77 151.663 349.754 151.886C349.739 152.109 349.636 152.316 349.468 152.464C349.301 152.612 349.082 152.689 348.858 152.678C348.634 152.666 348.424 152.568 348.272 152.404C348.042 152.217 347.051 152.126 346.626 152.083C346.276 152.047 345.962 152.014 345.739 151.967C345.125 151.835 344.489 151.728 343.85 151.618C341.857 151.281 339.797 150.928 338.027 149.893C336.925 149.245 336.308 148.078 336.33 146.686C336.358 145.007 337.324 143.31 338.678 142.582C341.2 141.213 344.328 140.929 347.354 140.655C349.241 140.484 351.024 140.321 352.602 139.909C352.673 139.888 352.746 139.877 352.82 139.877Z" fill="#571519"/>
<path d="M357.09 132.438C357.284 132.437 357.473 132.502 357.625 132.622C357.777 132.742 357.884 132.911 357.927 133.099C357.971 133.288 357.949 133.486 357.864 133.66C357.78 133.835 357.639 133.975 357.464 134.059C356.029 134.751 353.788 134.971 351.415 135.203C347.81 135.555 343.724 135.949 342.27 138.031C341.627 138.948 341.522 140.172 341.934 141.776C341.967 141.886 341.978 142.002 341.966 142.116C341.953 142.231 341.918 142.341 341.862 142.442C341.805 142.542 341.729 142.63 341.638 142.7C341.546 142.77 341.442 142.821 341.33 142.85C341.219 142.879 341.102 142.885 340.988 142.868C340.874 142.851 340.765 142.811 340.667 142.75C340.568 142.69 340.484 142.61 340.417 142.516C340.351 142.422 340.304 142.316 340.28 142.204C339.737 140.118 339.935 138.387 340.867 137.055C342.774 134.335 347.275 133.895 351.249 133.511C353.466 133.292 355.552 133.087 356.717 132.528C356.833 132.47 356.96 132.44 357.09 132.438Z" fill="#571519"/>
<path d="M449.643 83.1367C449.821 83.137 449.994 83.1924 450.138 83.2953C450.283 83.3982 450.392 83.5434 450.45 83.7107C450.508 83.8781 450.512 84.0593 450.462 84.2292C450.412 84.3991 450.31 84.5493 450.171 84.6589C438.133 94.0662 390.893 121.908 386.934 122.493L385.497 122.706C379.324 123.618 367.819 125.318 362.517 125.913C356.774 126.556 350.731 128.043 349.41 134.199C349.387 134.309 349.343 134.414 349.28 134.507C349.216 134.6 349.135 134.68 349.041 134.742C348.946 134.804 348.841 134.846 348.73 134.867C348.619 134.887 348.505 134.886 348.394 134.863C348.284 134.839 348.179 134.794 348.086 134.73C347.993 134.666 347.914 134.585 347.853 134.49C347.792 134.395 347.75 134.29 347.73 134.179C347.71 134.068 347.713 133.954 347.737 133.845C349.288 126.586 356.343 124.891 362.33 124.217C367.602 123.628 379.082 121.93 385.251 121.02L386.687 120.807C389.95 120.324 436.665 93.057 449.127 83.312C449.275 83.1984 449.456 83.1368 449.643 83.1367ZM243.081 205.225C243.753 205.225 244.305 206.096 246.074 211.066C247.027 213.745 247.957 216.619 248.076 217.063L263.532 273.946C263.685 274.492 263.636 275.074 263.393 275.587C263.271 275.847 263.095 276.077 262.875 276.262C262.656 276.447 262.4 276.584 262.123 276.662L260.271 277.162C259.993 277.234 259.702 277.246 259.419 277.197C259.136 277.147 258.867 277.037 258.63 276.874C258.161 276.554 257.823 276.075 257.68 275.526L245.268 229.45C245.239 229.341 245.232 229.229 245.246 229.118C245.261 229.007 245.297 228.899 245.353 228.802C245.409 228.705 245.484 228.62 245.573 228.552C245.662 228.484 245.764 228.434 245.872 228.405C245.981 228.376 246.094 228.368 246.205 228.383C246.317 228.398 246.424 228.434 246.521 228.49C246.619 228.546 246.704 228.62 246.772 228.709C246.841 228.798 246.891 228.899 246.92 229.007L259.33 275.074C259.369 275.225 259.46 275.357 259.586 275.447C259.62 275.472 259.658 275.49 259.699 275.5C259.74 275.51 259.782 275.511 259.824 275.503L261.676 275.001C261.715 274.988 261.751 274.966 261.782 274.937C261.812 274.908 261.836 274.874 261.852 274.835C261.915 274.691 261.925 274.53 261.882 274.378L246.426 217.496C246.179 216.589 243.62 208.866 242.658 207.049L241.841 207.27C241.929 209.275 243.551 216.987 243.874 218.177L244.879 221.876C244.911 221.985 244.921 222.099 244.908 222.212C244.895 222.324 244.86 222.433 244.804 222.532C244.749 222.631 244.674 222.718 244.584 222.788C244.495 222.858 244.392 222.909 244.282 222.939C244.172 222.968 244.058 222.976 243.945 222.961C243.832 222.946 243.724 222.908 243.626 222.851C243.527 222.793 243.442 222.717 243.374 222.626C243.306 222.535 243.256 222.432 243.229 222.322L242.224 218.623C242.121 218.25 241.476 215.371 240.915 212.439C239.756 206.391 240 206.001 240.873 205.764L242.727 205.262C242.843 205.235 242.962 205.223 243.081 205.225Z" fill="#571519"/>
<path d="M240.945 201.219C241.108 201.219 241.268 201.266 241.406 201.354C241.544 201.442 241.653 201.568 241.721 201.717L243.44 205.447C242.738 205.943 242.042 206.45 241.354 206.966C241.242 206.976 241.129 206.964 241.022 206.93C240.915 206.896 240.815 206.841 240.73 206.768C240.644 206.696 240.573 206.607 240.522 206.507C240.471 206.407 240.44 206.298 240.432 206.186L240.093 202.136C240.076 201.936 240.13 201.736 240.246 201.572C240.362 201.408 240.533 201.29 240.728 201.239C240.799 201.223 240.872 201.216 240.945 201.219ZM249.579 247.097C249.766 247.097 249.949 247.159 250.098 247.273C250.246 247.387 250.353 247.547 250.402 247.727C251.076 250.203 251.712 252.779 252.395 255.504C253.429 259.662 254.499 263.96 255.727 268.042C255.824 268.37 255.914 268.762 256.026 269.187C256.417 270.771 257.006 273.164 258.271 273.416C258.382 273.438 258.487 273.482 258.58 273.545C258.674 273.607 258.754 273.688 258.817 273.781C258.943 273.97 258.988 274.202 258.944 274.424C258.899 274.647 258.767 274.843 258.577 274.969C258.388 275.094 258.156 275.14 257.932 275.095C255.612 274.629 254.898 271.722 254.378 269.601C254.28 269.206 254.191 268.842 254.099 268.54C252.86 264.419 251.785 260.099 250.746 255.922C250.069 253.206 249.437 250.639 248.763 248.181C248.734 248.072 248.726 247.96 248.74 247.848C248.755 247.737 248.791 247.63 248.847 247.533C248.903 247.436 248.977 247.35 249.066 247.282C249.155 247.214 249.257 247.163 249.366 247.134C249.435 247.113 249.506 247.1 249.579 247.097ZM55.3311 156.189C55.3939 156.188 55.4567 156.195 55.5182 156.208C60.6313 157.31 74.2271 160.769 86.2196 163.819C96.9005 166.535 106.987 169.101 109.366 169.568C116.161 170.907 123.482 172.153 130.97 172.22C133.623 172.22 136.165 171.773 138.854 171.277C140.524 170.969 142.251 170.648 143.993 170.463C145.32 170.348 146.652 170.298 147.983 170.316C150.094 170.307 152.275 170.297 154.07 169.79C155.974 169.253 157.664 168.236 159.452 167.158C160.703 166.367 162.003 165.658 163.345 165.035C164.109 164.699 164.932 164.585 165.729 164.475C166.477 164.371 167.188 164.274 167.718 164.003C168.026 163.847 168.228 163.656 168.27 163.483C168.284 163.279 168.217 163.078 168.083 162.923C165.695 159.565 161.647 160.836 158.077 161.961C157.192 162.239 156.356 162.503 155.581 162.683C150.01 163.977 142.485 163.817 138.064 159.498C137.902 159.34 137.81 159.124 137.807 158.898C137.805 158.672 137.893 158.454 138.052 158.292C138.211 158.131 138.427 158.039 138.654 158.036C138.881 158.034 139.099 158.122 139.261 158.28C143.19 162.121 150.3 162.155 155.194 161.022C155.903 160.858 156.708 160.604 157.561 160.334C161.276 159.161 166.367 157.554 169.478 161.94C170.051 162.746 170.04 163.447 169.929 163.893C169.819 164.339 169.471 165.027 168.496 165.524C167.708 165.927 166.812 166.05 165.961 166.167C165.25 166.266 164.576 166.354 164.032 166.596C162.757 167.191 161.522 167.866 160.333 168.618C158.528 169.708 156.659 170.833 154.534 171.431C152.517 172.004 150.215 172.013 147.985 172.023C146.712 172.005 145.438 172.051 144.169 172.161C142.485 172.338 140.801 172.653 139.16 172.955C136.509 173.446 133.761 173.939 130.947 173.927C123.321 173.86 115.907 172.597 109.03 171.245C106.607 170.767 96.4946 168.195 85.793 165.473C73.8193 162.425 60.2328 158.972 55.1496 157.875C54.9492 157.825 54.7739 157.704 54.6561 157.535C54.5383 157.365 54.4859 157.159 54.5087 156.955C54.5316 156.75 54.628 156.56 54.7802 156.421C54.9324 156.281 55.1301 156.202 55.3367 156.196L55.3311 156.189ZM166.434 145.353C166.62 145.352 166.801 145.412 166.95 145.523C167.099 145.635 167.207 145.791 167.259 145.97C167.31 146.148 167.302 146.338 167.235 146.511C167.168 146.684 167.047 146.831 166.889 146.929C163.787 148.865 159.465 150.124 156.706 150.613C156.482 150.653 156.252 150.602 156.066 150.473C155.881 150.343 155.754 150.146 155.714 149.923C155.674 149.7 155.725 149.471 155.855 149.286C155.985 149.1 156.183 148.974 156.406 148.934C159.213 148.434 163.272 147.175 165.982 145.483C166.117 145.398 166.274 145.353 166.434 145.353Z" fill="#571519"/>
<path d="M148.676 151.458C148.861 151.458 149.041 151.518 149.189 151.628C149.337 151.739 149.446 151.895 149.497 152.072C149.549 152.25 149.541 152.439 149.476 152.612C149.41 152.785 149.29 152.932 149.134 153.03C146.982 154.39 144.885 156.015 142.857 157.586C141.826 158.384 140.799 159.175 139.781 159.927C139.691 159.999 139.588 160.052 139.477 160.083C139.366 160.114 139.25 160.122 139.136 160.108C139.021 160.093 138.911 160.055 138.812 159.997C138.713 159.938 138.626 159.861 138.558 159.768C138.49 159.676 138.441 159.57 138.414 159.459C138.388 159.347 138.384 159.231 138.403 159.117C138.423 159.004 138.465 158.896 138.528 158.8C138.59 158.703 138.672 158.62 138.767 158.556C139.776 157.81 140.788 157.028 141.809 156.237C143.867 154.644 145.998 152.993 148.219 151.59C148.355 151.504 148.514 151.458 148.676 151.458ZM165.628 138.786C166.829 138.786 167.852 138.973 168.573 139.486C171.712 141.685 172.457 145.218 173.179 148.626C173.525 150.266 173.882 151.963 174.501 153.515C174.975 154.7 175.697 155.646 176.333 156.48C177.143 157.541 177.843 158.459 177.558 159.464C177.486 159.704 177.359 159.924 177.187 160.107C177.016 160.29 176.804 160.432 176.569 160.52C175.162 161.134 172.333 160.673 171.568 160.285C168.949 158.949 167.59 156.123 166.284 153.383C165.414 151.559 164.601 149.839 163.459 148.691C163.374 148.613 163.306 148.518 163.259 148.413C163.212 148.307 163.187 148.193 163.185 148.078C163.183 147.962 163.205 147.848 163.249 147.741C163.293 147.634 163.358 147.537 163.44 147.456C163.523 147.375 163.621 147.311 163.729 147.269C163.837 147.227 163.952 147.207 164.068 147.211C164.184 147.214 164.298 147.241 164.403 147.29C164.508 147.338 164.602 147.408 164.679 147.494C166.011 148.843 166.936 150.779 167.83 152.65C169.01 155.125 170.234 157.687 172.342 158.757C172.96 159.056 175.351 159.272 175.908 158.944C175.862 158.668 175.33 157.972 174.973 157.5C174.305 156.625 173.476 155.536 172.915 154.142C172.241 152.463 171.869 150.686 171.506 148.973C170.823 145.738 170.178 142.683 167.59 140.87C166.264 139.937 161.931 140.89 159.849 141.349C159.368 141.455 158.943 141.549 158.604 141.614C153.755 142.547 147.836 142.664 143.802 142.674C143.575 142.674 143.358 142.584 143.197 142.424C143.037 142.264 142.947 142.047 142.947 141.821C142.947 141.595 143.037 141.378 143.197 141.218C143.358 141.058 143.575 140.969 143.802 140.969C147.763 140.969 153.575 140.842 158.283 139.939C158.61 139.877 159.018 139.788 159.482 139.685C161.645 139.219 163.834 138.786 165.628 138.786Z" fill="#571519"/>
<path d="M142.195 136.22C148.21 136.22 153.826 138.572 156.326 139.788C156.431 139.834 156.526 139.901 156.605 139.985C156.684 140.068 156.745 140.167 156.785 140.275C156.825 140.383 156.842 140.497 156.836 140.612C156.83 140.727 156.801 140.839 156.751 140.942C156.701 141.046 156.63 141.138 156.543 141.213C156.456 141.288 156.354 141.345 156.245 141.38C156.135 141.415 156.02 141.428 155.905 141.418C155.79 141.407 155.679 141.374 155.577 141.32C153.226 140.176 144.982 136.587 137.66 138.467C137.441 138.52 137.211 138.485 137.019 138.37C136.826 138.254 136.687 138.068 136.631 137.851C136.575 137.635 136.607 137.405 136.719 137.211C136.832 137.017 137.017 136.876 137.233 136.816C138.855 136.41 140.522 136.209 142.195 136.22Z" fill="#571519"/>
<path d="M139.461 134.117C141.322 134.094 143.133 134.715 144.588 135.872C144.766 136.013 144.881 136.218 144.907 136.442C144.934 136.667 144.87 136.893 144.729 137.071C144.588 137.248 144.383 137.363 144.157 137.389C143.932 137.416 143.705 137.352 143.527 137.212C141.437 135.564 138.82 135.38 135.527 136.652C135.421 136.697 135.308 136.721 135.192 136.722C135.077 136.722 134.963 136.7 134.857 136.655C134.751 136.611 134.655 136.546 134.575 136.463C134.495 136.381 134.432 136.283 134.391 136.176C134.349 136.069 134.33 135.955 134.334 135.84C134.338 135.726 134.365 135.613 134.413 135.509C134.462 135.405 134.531 135.312 134.617 135.235C134.702 135.159 134.803 135.1 134.911 135.063C136.535 134.432 138.052 134.117 139.461 134.117ZM63.8454 128.758C63.9974 128.757 64.1468 128.798 64.2776 128.875C81.4243 138.922 106.973 148.425 110.257 147.945C112.461 147.632 116.955 146.044 117.997 145.462C120.969 143.797 123.92 141.849 126.775 139.967L128.616 138.754C128.71 138.687 128.816 138.639 128.929 138.614C129.041 138.589 129.158 138.587 129.272 138.608C129.385 138.629 129.493 138.672 129.59 138.736C129.686 138.8 129.768 138.883 129.831 138.979C129.895 139.075 129.938 139.184 129.958 139.297C129.978 139.41 129.975 139.527 129.949 139.639C129.922 139.751 129.874 139.857 129.805 139.95C129.737 140.043 129.651 140.121 129.551 140.18L127.716 141.388C124.837 143.289 121.86 145.253 118.831 146.949C117.544 147.669 112.844 149.3 110.496 149.635C106.139 150.24 79.1568 139.573 63.4094 130.345C63.2476 130.25 63.1216 130.105 63.0508 129.932C62.98 129.758 62.9684 129.566 63.0178 129.386C63.0671 129.205 63.1747 129.046 63.324 128.932C63.4732 128.819 63.6558 128.757 63.8435 128.758H63.8454ZM163.646 147.58C163.803 147.579 163.957 147.622 164.091 147.703C164.225 147.784 164.334 147.9 164.406 148.039C164.857 148.904 165.093 149.852 165.321 150.77C165.467 151.436 165.662 152.09 165.907 152.726C165.982 152.884 166.066 153.037 166.157 153.185C166.644 154.036 166.982 154.678 166.881 155.293C166.87 155.409 166.835 155.522 166.778 155.624C166.721 155.726 166.644 155.815 166.551 155.886C166.458 155.957 166.352 156.008 166.239 156.036C166.125 156.065 166.007 156.07 165.892 156.051C165.776 156.032 165.666 155.99 165.568 155.926C165.469 155.863 165.385 155.781 165.32 155.684C165.255 155.587 165.21 155.478 165.189 155.363C165.168 155.248 165.171 155.131 165.197 155.017C165.045 154.678 164.871 154.349 164.677 154.032C164.55 153.822 164.436 153.606 164.333 153.383C164.054 152.666 163.831 151.929 163.663 151.178C163.452 150.32 163.25 149.51 162.893 148.826C162.826 148.697 162.793 148.552 162.798 148.407C162.802 148.262 162.844 148.12 162.919 147.995C162.994 147.87 163.099 147.767 163.226 147.694C163.352 147.621 163.495 147.582 163.641 147.58H163.646ZM154.417 154.456C154.562 154.455 154.704 154.491 154.83 154.56C154.957 154.63 155.064 154.73 155.141 154.851C155.177 154.907 155.229 154.997 155.297 155.11C157.678 159.136 159.136 159.418 159.787 159.233C159.895 159.202 160.008 159.193 160.119 159.205C160.231 159.218 160.339 159.253 160.437 159.307C160.536 159.361 160.622 159.434 160.692 159.522C160.762 159.61 160.814 159.71 160.845 159.818C160.876 159.925 160.885 160.038 160.872 160.149C160.86 160.261 160.825 160.368 160.771 160.466C160.716 160.564 160.643 160.651 160.555 160.72C160.467 160.79 160.366 160.842 160.258 160.873C157.226 161.74 154.664 157.401 153.822 155.978L153.693 155.763C153.612 155.635 153.566 155.486 153.561 155.334C153.557 155.182 153.593 155.031 153.667 154.897C153.741 154.764 153.849 154.653 153.981 154.575C154.113 154.498 154.263 154.457 154.416 154.458L154.417 154.456Z" fill="#571519"/>
<path d="M150.227 151.943C150.41 151.943 150.589 152.002 150.736 152.111C150.884 152.221 150.992 152.374 151.044 152.549C152.146 156.2 153.976 158.879 154.992 159.09C155.087 159.11 155.265 159.146 155.553 158.815C155.626 158.73 155.715 158.659 155.815 158.608C155.915 158.556 156.024 158.525 156.136 158.515C156.248 158.506 156.361 158.518 156.468 158.553C156.575 158.587 156.675 158.641 156.761 158.714C156.847 158.786 156.918 158.875 156.969 158.974C157.021 159.074 157.052 159.183 157.062 159.295C157.071 159.407 157.059 159.519 157.024 159.626C156.99 159.733 156.935 159.832 156.863 159.918C156.257 160.632 155.473 160.927 154.657 160.759C152.208 160.252 150.214 155.668 149.418 153.04C149.386 152.933 149.375 152.82 149.386 152.709C149.397 152.598 149.43 152.489 149.484 152.391C149.537 152.292 149.609 152.205 149.696 152.134C149.783 152.064 149.883 152.011 149.991 151.979C150.068 151.956 150.147 151.944 150.227 151.943Z" fill="#571519"/>
<path d="M125.102 129.463C125.579 129.465 126.044 129.605 126.442 129.866L178.348 163.509C178.692 163.733 181.211 165.527 183.699 167.426C188.81 171.321 188.896 171.786 188.395 172.556L187.298 174.235C186.797 175.005 186.337 175.115 180.69 172.038C177.948 170.545 175.278 168.976 174.932 168.752L169.244 165.066C169.15 165.005 169.069 164.926 169.005 164.833C168.942 164.741 168.897 164.637 168.874 164.527C168.851 164.417 168.849 164.304 168.87 164.194C168.891 164.084 168.933 163.979 168.995 163.885C169.056 163.791 169.135 163.71 169.228 163.646C169.321 163.583 169.425 163.539 169.535 163.515C169.645 163.492 169.759 163.491 169.87 163.512C169.98 163.532 170.085 163.574 170.18 163.636L175.867 167.322C176.715 167.881 184.172 172.148 186.157 172.864L186.677 172.067C185.242 170.575 178.516 165.65 177.42 164.94L125.516 131.298C125.211 131.099 124.878 131.147 124.767 131.313L123.671 132.992C123.563 133.158 123.656 133.481 123.961 133.679L162.372 158.573C162.467 158.634 162.548 158.713 162.611 158.806C162.675 158.898 162.719 159.002 162.742 159.112C162.765 159.222 162.766 159.335 162.746 159.445C162.725 159.555 162.683 159.66 162.621 159.754C162.56 159.848 162.481 159.928 162.388 159.992C162.295 160.055 162.191 160.099 162.081 160.122C161.971 160.145 161.857 160.147 161.747 160.126C161.636 160.105 161.531 160.063 161.437 160.002L123.024 135.106C121.948 134.408 121.593 133.043 122.232 132.06L123.329 130.381C123.524 130.092 123.788 129.856 124.098 129.696C124.408 129.536 124.753 129.455 125.102 129.463Z" fill="#571519"/>
<path d="M187.884 171.616C188.097 171.616 188.303 171.696 188.46 171.84L191.641 174.748C191.79 174.883 191.886 175.067 191.912 175.266C191.939 175.465 191.894 175.668 191.785 175.837C191.677 176.006 191.512 176.132 191.319 176.192C191.127 176.252 190.919 176.242 190.733 176.164L186.793 174.524C186.689 174.481 186.594 174.418 186.515 174.338C186.435 174.259 186.372 174.164 186.33 174.06C186.287 173.956 186.265 173.845 186.266 173.732C186.266 173.62 186.289 173.508 186.333 173.405C186.4 173.249 186.512 173.116 186.654 173.023C186.796 172.93 186.962 172.88 187.132 172.881C187.06 172.751 187.023 172.604 187.025 172.456C187.026 172.307 187.067 172.161 187.143 172.033C187.218 171.905 187.326 171.799 187.455 171.725C187.585 171.651 187.731 171.612 187.88 171.612L187.884 171.616ZM124.412 134.285H124.507C124.732 134.311 124.937 134.425 125.077 134.602C125.217 134.778 125.282 135.003 125.256 135.227C125.102 136.581 127.314 137.945 128.784 138.848C129.177 139.088 129.533 139.31 129.832 139.514C133.516 142.041 137.465 144.483 141.286 146.847C143.798 148.399 146.17 149.867 148.434 151.324C148.617 151.451 148.743 151.644 148.786 151.862C148.828 152.08 148.784 152.306 148.663 152.492C148.541 152.678 148.351 152.809 148.134 152.858C147.917 152.907 147.689 152.87 147.499 152.755C145.254 151.296 142.887 149.835 140.389 148.278C136.552 145.905 132.584 143.45 128.868 140.898C128.593 140.711 128.257 140.504 127.892 140.279C125.95 139.083 123.288 137.445 123.563 135.018C123.591 134.814 123.693 134.628 123.85 134.493C124.006 134.358 124.205 134.284 124.412 134.285ZM262.626 63.66C262.713 63.6602 262.8 63.6734 262.883 63.6992C265.087 64.3912 267.077 66.1727 268.348 68.5866C269.618 71.0004 269.953 73.6437 269.261 75.8319C269.231 75.9432 269.179 76.0473 269.108 76.138C269.037 76.2287 268.948 76.3041 268.846 76.3597C268.745 76.4152 268.634 76.4497 268.519 76.4611C268.404 76.4725 268.288 76.4605 268.178 76.426C268.067 76.3914 267.965 76.335 267.878 76.26C267.79 76.185 267.719 76.0932 267.667 75.9899C267.616 75.8866 267.587 75.774 267.581 75.659C267.574 75.544 267.591 75.429 267.631 75.3207C268.192 73.5617 267.895 71.4034 266.834 69.3794C265.773 67.3554 264.146 65.8836 262.37 65.3258C262.175 65.2648 262.009 65.1361 261.901 64.9632C261.792 64.7903 261.75 64.5846 261.781 64.3832C261.812 64.1818 261.914 63.9982 262.069 63.8655C262.224 63.7329 262.422 63.6599 262.626 63.66Z" fill="#571519"/>
<path d="M261.118 61.6488C261.544 61.657 261.958 61.795 262.303 62.0442C262.821 62.4024 263.077 63.0329 263.006 63.7735C262.935 64.5141 262.486 65.499 261.674 65.8572C261.424 65.97 261.148 66.0123 260.876 65.9794C260.604 65.9465 260.346 65.8397 260.131 65.6706C259.04 64.8536 259.008 63.3276 259.676 62.4155C259.836 62.181 260.051 61.9888 260.303 61.8553C260.554 61.7218 260.834 61.6509 261.118 61.6488ZM261.305 63.4246C261.249 63.3866 261.185 63.3611 261.118 63.35C261.015 63.4473 260.954 63.5813 260.948 63.7231C260.922 63.8986 260.964 64.0774 261.066 64.223C261.223 64.0253 261.356 63.5981 261.298 63.4246H261.305Z" fill="#571519"/>
<path d="M256.606 62.1189C257.274 62.1376 257.938 62.2195 258.591 62.3633C258.881 62.4192 259.171 62.4752 259.463 62.5162C259.668 62.5674 259.847 62.6927 259.965 62.8678C260.083 63.0429 260.132 63.2554 260.102 63.4643C260.072 63.6731 259.965 63.8634 259.802 63.9984C259.64 64.1335 259.433 64.2035 259.221 64.1951C258.903 64.1504 258.587 64.0888 258.269 64.0291C257.722 63.9066 257.166 63.8348 256.606 63.8146C256.379 63.8146 256.162 63.7248 256.001 63.5649C255.841 63.405 255.751 63.1882 255.751 62.9621C255.751 62.736 255.841 62.5192 256.001 62.3593C256.162 62.1994 256.379 62.1096 256.606 62.1096V62.1189Z" fill="#571519"/>
<path d="M254.815 60.5521C255.311 60.5621 255.781 60.7673 256.125 61.1229C256.946 61.9139 256.814 63.2252 256.273 64.0591C255.732 64.8929 254.815 65.2138 253.945 64.8668C253.58 64.7235 253.267 64.4721 253.048 64.1463C252.83 63.8206 252.717 63.4361 252.724 63.0443C252.709 62.0426 253.3 61.0558 254.129 60.6976C254.345 60.603 254.579 60.5535 254.815 60.5521ZM254.937 62.3504C254.901 62.3106 254.857 62.2793 254.808 62.259C254.72 62.2795 254.467 62.5649 254.434 62.9398C254.409 63.2159 254.52 63.2607 254.578 63.2831C254.636 63.3055 254.705 63.3334 254.836 63.132C255.034 62.8261 255.023 62.4306 254.937 62.3504Z" fill="#571519"/>
<path d="M251.51 61.6003C252.054 61.5913 252.594 61.7088 253.085 61.9435C253.288 62.0444 253.442 62.2216 253.514 62.4361C253.586 62.6505 253.57 62.8847 253.468 63.087C253.367 63.2894 253.19 63.4433 252.974 63.5151C252.759 63.5868 252.525 63.5704 252.322 63.4694C251.884 63.2512 251.25 63.2437 250.628 63.4489C250.522 63.4843 250.41 63.4985 250.298 63.4906C250.186 63.4827 250.077 63.4529 249.976 63.4029C249.876 63.353 249.787 63.2838 249.713 63.1993C249.64 63.1149 249.583 63.0168 249.548 62.9108C249.512 62.8047 249.498 62.6927 249.506 62.5811C249.514 62.4696 249.544 62.3607 249.594 62.2606C249.644 62.1606 249.714 62.0714 249.798 61.9981C249.883 61.9248 249.981 61.8689 250.088 61.8335C250.546 61.6799 251.026 61.6012 251.51 61.6003Z" fill="#571519"/>
<path d="M248.793 60.9903C249.001 60.9911 249.208 61.0238 249.407 61.0873C250.378 61.3951 250.888 62.4042 250.596 63.4358C250.305 64.4674 249.377 65.0214 248.387 64.7715C248.068 64.6939 247.777 64.5314 247.544 64.3014C247.311 64.0714 247.145 63.7825 247.064 63.4657C246.972 63.114 246.973 62.7443 247.068 62.3932C247.163 62.0421 247.348 61.7219 247.605 61.4641C247.924 61.1581 248.35 60.9882 248.793 60.9903ZM248.832 63.1224C248.868 63.1224 248.915 63.0982 248.95 62.9695C248.961 62.934 249.006 62.7494 248.888 62.712C248.855 62.6979 248.818 62.6921 248.782 62.6953C248.749 62.7377 248.726 62.7867 248.714 62.8389C248.702 62.891 248.702 62.9451 248.712 62.9975C248.729 63.1001 248.763 63.1075 248.8 63.1187L248.832 63.1224Z" fill="#571519"/>
<path d="M247.225 62.2495C247.409 62.2494 247.587 62.3082 247.735 62.4171C247.882 62.5261 247.99 62.6794 248.043 62.8544C248.097 63.0295 248.092 63.2169 248.03 63.3892C247.969 63.5614 247.853 63.7092 247.7 63.8108C244.894 65.6763 244.37 67.8401 245.972 71.0319C246.073 71.2342 246.09 71.4685 246.018 71.6831C245.946 71.8978 245.792 72.0752 245.589 72.1763C245.386 72.2775 245.151 72.2942 244.936 72.2226C244.721 72.1511 244.543 71.9972 244.441 71.7949C242.451 67.8234 243.206 64.7491 246.752 62.3931C246.892 62.2996 247.057 62.2496 247.225 62.2495ZM169.624 110.956C169.739 110.954 169.854 110.977 169.96 111.021C170.066 111.066 170.162 111.132 170.241 111.215C170.394 111.368 170.481 111.574 170.483 111.789C170.485 112.005 170.402 112.212 170.253 112.368C169.648 112.985 166.936 114.011 165.652 113.398C165.448 113.299 165.291 113.123 165.217 112.909C165.142 112.695 165.156 112.46 165.255 112.256C165.355 112.052 165.531 111.896 165.746 111.822C165.961 111.748 166.196 111.762 166.4 111.86C166.855 112.047 168.677 111.487 169.048 111.167C169.209 111.032 169.413 110.957 169.624 110.956ZM167.791 109.034C167.992 109.035 168.187 109.107 168.34 109.237C168.494 109.367 168.596 109.547 168.63 109.745C168.664 109.943 168.626 110.146 168.524 110.32C168.421 110.493 168.261 110.624 168.071 110.691C165.903 111.437 164.341 111.569 163.295 111.064C163.194 111.015 163.103 110.947 163.029 110.863C162.954 110.779 162.897 110.681 162.86 110.575C162.823 110.469 162.808 110.357 162.814 110.245C162.821 110.134 162.85 110.024 162.899 109.923C162.948 109.822 163.017 109.732 163.101 109.658C163.185 109.583 163.283 109.526 163.389 109.49C163.495 109.453 163.608 109.438 163.72 109.444C163.832 109.451 163.942 109.48 164.043 109.529C164.316 109.661 165.205 109.883 167.512 109.079C167.602 109.049 167.696 109.034 167.791 109.034Z" fill="#571519"/>
</g>
<defs>
<filter id="filter0_d_172_40" x="-4" y="0" width="521" height="349" filterUnits="userSpaceOnUse" color-interpolation-filters="sRGB">
<feFlood flood-opacity="0" result="BackgroundImageFix"/>
<feColorMatrix in="SourceAlpha" type="matrix" values="0 0 0 0 0 0 0 0 0 0 0 0 0 0 0 0 0 0 127 0" result="hardAlpha"/>
<feOffset dy="4"/>
<feGaussianBlur stdDeviation="2"/>
<feComposite in2="hardAlpha" operator="out"/>
<feColorMatrix type="matrix" values="0 0 0 0 0 0 0 0 0 0 0 0 0 0 0 0 0 0 0.25 0"/>
<feBlend mode="normal" in2="BackgroundImageFix" result="effect1_dropShadow_172_40"/>
<feBlend mode="normal" in="SourceGraphic" in2="effect1_dropShadow_172_40" result="shape"/>
</filter>
</defs>
</svg>
