<svg width="373" height="31" viewBox="0 0 373 31" fill="none" xmlns="http://www.w3.org/2000/svg">
<g filter="url(#filter0_d_172_114)">
<path d="M10.7856 1.00098H14.6556C15.5556 1.00098 16.4356 1.10098 17.2956 1.30097C18.1556 1.50098 18.9156 1.82098 19.5756 2.26098C20.2556 2.70098 20.7956 3.28098 21.1956 4.00098C21.5956 4.72098 21.7956 5.61098 21.7956 6.67098C21.7956 7.51098 21.6156 8.35098 21.2556 9.19098C20.9156 10.011 20.3856 10.721 19.6656 11.321C18.9456 11.901 18.0156 12.251 16.8756 12.371C17.5156 12.571 18.0956 12.931 18.6156 13.451C19.1556 13.971 19.5956 14.491 19.9356 15.011C19.9556 15.051 20.0656 15.231 20.2656 15.551C20.4856 15.871 20.7456 16.271 21.0456 16.751C21.3656 17.211 21.6956 17.681 22.0356 18.161C22.3756 18.641 22.6856 19.061 22.9656 19.421C23.4056 19.961 23.8056 20.401 24.1656 20.741C24.5256 21.061 24.9056 21.301 25.3056 21.461C25.7056 21.601 26.1656 21.681 26.6856 21.701V22.001H23.7456C22.6656 22.001 21.6856 21.911 20.8056 21.731C19.9256 21.531 19.1456 21.201 18.4656 20.741C17.7856 20.281 17.1956 19.661 16.6956 18.881C16.5356 18.641 16.3556 18.341 16.1556 17.981C15.9756 17.601 15.7856 17.201 15.5856 16.781C15.3856 16.361 15.1856 15.961 14.9856 15.581C14.8056 15.181 14.6456 14.821 14.5056 14.501C14.3656 14.181 14.2656 13.931 14.2056 13.751C13.9456 13.111 13.6356 12.631 13.2756 12.311C12.9356 11.991 12.5656 11.801 12.1656 11.741V11.441C12.2256 11.441 12.3456 11.441 12.5256 11.441C12.7056 11.441 12.8956 11.441 13.0956 11.441C13.6356 11.441 14.1556 11.331 14.6556 11.111C15.1756 10.891 15.6356 10.531 16.0356 10.031C16.4356 9.53098 16.7156 8.84098 16.8756 7.96098C16.9156 7.78098 16.9456 7.57098 16.9656 7.33098C17.0056 7.09098 17.0156 6.82098 16.9956 6.52098C16.9356 5.08098 16.5756 4.03098 15.9156 3.37098C15.2556 2.69098 14.4356 2.34098 13.4556 2.32098C13.1756 2.30098 12.8656 2.30098 12.5256 2.32098C12.2056 2.32098 11.9056 2.32098 11.6256 2.32098C11.3656 2.32098 11.1856 2.32098 11.0856 2.32098C11.0856 2.30098 11.0556 2.19098 10.9956 1.99097C10.9556 1.77098 10.9056 1.55098 10.8456 1.33098C10.8056 1.11098 10.7856 1.00098 10.7856 1.00098ZM11.1756 1.00098V22.001H6.67563V1.00098H11.1756ZM6.76562 19.811V22.001H4.36563V21.701C4.38563 21.701 4.44563 21.701 4.54563 21.701C4.66563 21.701 4.73563 21.701 4.75563 21.701C5.27563 21.701 5.71563 21.521 6.07563 21.161C6.45563 20.781 6.65563 20.331 6.67563 19.811H6.76562ZM6.76562 3.19098H6.67563C6.65563 2.67098 6.45563 2.23098 6.07563 1.87098C5.71563 1.49098 5.27563 1.30097 4.75563 1.30097C4.73563 1.30097 4.66563 1.30097 4.54563 1.30097C4.44563 1.30097 4.38563 1.30097 4.36563 1.30097V1.00098H6.76562V3.19098ZM11.0856 19.811H11.1756C11.1756 20.331 11.3656 20.781 11.7456 21.161C12.1256 21.521 12.5756 21.701 13.0956 21.701C13.1356 21.701 13.2056 21.701 13.3056 21.701C13.4056 21.701 13.4556 21.701 13.4556 21.701V22.001H11.0856V19.811ZM33.0262 4.00098V22.001H28.7062V4.00098H33.0262ZM40.0462 20.801L40.7362 22.001H32.9662V20.801H40.0462ZM39.0262 12.491V13.691H32.9662V12.491H39.0262ZM40.3762 4.00098V5.20098H32.9662V4.00098H40.3762ZM41.9662 16.481L40.8262 22.001H35.6362L36.5662 20.801C37.4262 20.801 38.1862 20.631 38.8462 20.291C39.5262 19.931 40.1062 19.431 40.5862 18.791C41.0662 18.131 41.4362 17.361 41.6962 16.481H41.9662ZM39.0262 13.631V16.271H38.7262V16.031C38.7262 15.371 38.5162 14.821 38.0962 14.381C37.6962 13.941 37.1462 13.711 36.4462 13.691V13.631H39.0262ZM39.0262 9.91098V12.551H36.4462V12.491C37.1462 12.471 37.6962 12.241 38.0962 11.801C38.5162 11.341 38.7262 10.781 38.7262 10.121V9.91098H39.0262ZM40.3762 5.14098V8.32098H40.0762V8.05098C40.0762 7.17098 39.8362 6.48098 39.3562 5.98098C38.8962 5.48098 38.2262 5.22098 37.3462 5.20098V5.14098H40.3762ZM40.3762 3.55098V4.27098L37.2262 4.00098C37.8062 4.00098 38.4162 3.95098 39.0562 3.85098C39.6962 3.73098 40.1362 3.63098 40.3762 3.55098ZM28.7662 20.111L28.9162 22.001H26.6962V21.701C26.6962 21.701 26.7562 21.701 26.8762 21.701C26.9962 21.701 27.0662 21.701 27.0862 21.701C27.5262 21.701 27.8962 21.551 28.1962 21.251C28.5162 20.931 28.6862 20.551 28.7062 20.111H28.7662ZM28.7662 5.89098H28.7062C28.6862 5.43098 28.5162 5.05098 28.1962 4.75098C27.8962 4.45098 27.5262 4.30098 27.0862 4.30098C27.0662 4.30098 26.9962 4.30098 26.8762 4.30098C26.7562 4.30098 26.6962 4.30098 26.6962 4.30098V4.00098H28.9162L28.7662 5.89098ZM52.7798 3.19098L61.6598 21.851H56.5898L51.0098 8.68098L52.7798 3.19098ZM47.1398 20.021C46.9198 20.561 46.9498 20.981 47.2298 21.281C47.5098 21.561 47.8198 21.701 48.1598 21.701H48.3998V22.001H42.3998V21.701C42.3998 21.701 42.4398 21.701 42.5198 21.701C42.5998 21.701 42.6398 21.701 42.6398 21.701C43.0398 21.701 43.4598 21.581 43.8998 21.341C44.3398 21.081 44.6998 20.641 44.9798 20.021H47.1398ZM52.7798 3.19098L52.8398 6.79098L46.3298 21.911H44.1098L51.1298 6.82098C51.1698 6.70098 51.2598 6.49098 51.3998 6.19098C51.5398 5.87098 51.6898 5.52098 51.8498 5.14098C52.0098 4.74098 52.1598 4.37098 52.2998 4.03098C52.4398 3.67098 52.5198 3.39098 52.5398 3.19098H52.7798ZM55.3898 16.121V17.291H47.7398V16.121H55.3898ZM55.8398 20.021H60.7898C61.0898 20.641 61.4598 21.081 61.8998 21.341C62.3398 21.581 62.7598 21.701 63.1598 21.701C63.1598 21.701 63.1998 21.701 63.2798 21.701C63.3598 21.701 63.3998 21.701 63.3998 21.701V22.001H54.5798V21.701H54.8198C55.1598 21.701 55.4698 21.561 55.7498 21.281C56.0298 20.981 56.0598 20.561 55.8398 20.021ZM74.2464 4.00098C76.3864 4.00098 78.2264 4.36098 79.7664 5.08098C81.3064 5.78098 82.4864 6.81098 83.3064 8.17098C84.1264 9.51098 84.5364 11.121 84.5364 13.001C84.5364 14.881 84.1264 16.491 83.3064 17.831C82.4864 19.171 81.3064 20.201 79.7664 20.921C78.2264 21.641 76.3864 22.001 74.2464 22.001H67.5864L67.5264 20.801C69.0464 20.801 70.2664 20.801 71.1864 20.801C72.1264 20.801 72.8064 20.801 73.2264 20.801C73.6664 20.801 73.8864 20.801 73.8864 20.801C75.7664 20.801 77.2464 20.111 78.3264 18.731C79.4064 17.351 79.9464 15.441 79.9464 13.001C79.9464 10.561 79.4064 8.65098 78.3264 7.27098C77.2464 5.87098 75.7664 5.17098 73.8864 5.17098C73.8864 5.17098 73.6664 5.17098 73.2264 5.17098C72.7864 5.17098 72.0764 5.17098 71.0964 5.17098C70.1164 5.17098 68.8264 5.17098 67.2264 5.17098V4.00098H74.2464ZM70.4964 4.00098V22.001H66.1764V4.00098H70.4964ZM66.2664 20.081V22.001H64.1064V21.701C64.1064 21.701 64.1664 21.701 64.2864 21.701C64.4064 21.701 64.4764 21.701 64.4964 21.701C64.9564 21.701 65.3464 21.541 65.6664 21.221C66.0064 20.901 66.1764 20.521 66.1764 20.081H66.2664ZM66.2364 5.89098H66.1764C66.1564 5.43098 65.9764 5.05098 65.6364 4.75098C65.3164 4.45098 64.9264 4.30098 64.4664 4.30098C64.4664 4.30098 64.4064 4.30098 64.2864 4.30098C64.1664 4.30098 64.1064 4.30098 64.1064 4.30098V4.00098H66.2364V5.89098ZM105.898 3.61098C107.498 3.61098 108.948 3.83098 110.248 4.27098C111.548 4.69098 112.668 5.31098 113.608 6.13098C114.548 6.95098 115.268 7.94098 115.768 9.10098C116.288 10.261 116.548 11.571 116.548 13.031C116.548 14.471 116.288 15.771 115.768 16.931C115.268 18.071 114.548 19.051 113.608 19.871C112.668 20.691 111.548 21.321 110.248 21.761C108.948 22.181 107.498 22.391 105.898 22.391C104.318 22.391 102.878 22.181 101.578 21.761C100.278 21.321 99.1578 20.691 98.2178 19.871C97.2778 19.051 96.5578 18.071 96.0578 16.931C95.5578 15.771 95.3078 14.471 95.3078 13.031C95.3078 11.571 95.5578 10.261 96.0578 9.10098C96.5578 7.94098 97.2778 6.95098 98.2178 6.13098C99.1578 5.31098 100.278 4.69098 101.578 4.27098C102.878 3.83098 104.318 3.61098 105.898 3.61098ZM105.898 21.221C107.118 21.221 108.178 20.891 109.078 20.231C109.998 19.551 110.698 18.601 111.178 17.381C111.678 16.161 111.928 14.711 111.928 13.031C111.928 11.331 111.678 9.87098 111.178 8.65098C110.698 7.41098 109.998 6.46098 109.078 5.80098C108.178 5.12098 107.118 4.78098 105.898 4.78098C104.698 4.78098 103.648 5.12098 102.748 5.80098C101.848 6.46098 101.148 7.41098 100.648 8.65098C100.148 9.87098 99.8978 11.331 99.8978 13.031C99.8978 14.711 100.148 16.161 100.648 17.381C101.148 18.601 101.848 19.551 102.748 20.231C103.648 20.891 104.698 21.221 105.898 21.221ZM124.991 4.00098V15.311C124.991 17.151 125.411 18.591 126.251 19.631C127.111 20.671 128.301 21.191 129.821 21.191C131.401 21.191 132.621 20.701 133.481 19.721C134.361 18.741 134.811 17.381 134.831 15.641V4.00098H136.811V15.461C136.811 17.601 136.151 19.291 134.831 20.531C133.531 21.771 131.681 22.391 129.281 22.391C126.381 22.391 124.221 21.781 122.801 20.561C121.381 19.321 120.671 17.631 120.671 15.491V4.00098H124.991ZM120.731 4.00098V5.56098H120.671C120.651 5.18098 120.511 4.87098 120.251 4.63097C119.991 4.39098 119.671 4.27098 119.291 4.27098C119.291 4.27098 119.221 4.27098 119.081 4.27098C118.941 4.27098 118.871 4.27098 118.871 4.27098V4.00098H120.731ZM126.761 4.00098V4.27098C126.761 4.27098 126.691 4.27098 126.551 4.27098C126.411 4.27098 126.341 4.27098 126.341 4.27098C125.961 4.27098 125.641 4.39098 125.381 4.63097C125.121 4.87098 124.991 5.18098 124.991 5.56098H124.931V4.00098H126.761ZM134.891 4.00098V5.56098H134.831C134.811 5.18098 134.671 4.87098 134.411 4.63097C134.151 4.39098 133.841 4.27098 133.481 4.27098C133.481 4.27098 133.411 4.27098 133.271 4.27098C133.131 4.27098 133.061 4.27098 133.061 4.27098V4.00098H134.891ZM138.581 4.00098V4.27098C138.581 4.27098 138.511 4.27098 138.371 4.27098C138.251 4.27098 138.191 4.27098 138.191 4.27098C137.811 4.27098 137.481 4.39098 137.201 4.63097C136.941 4.87098 136.811 5.18098 136.811 5.56098H136.751V4.00098H138.581ZM147.043 4.00098H150.283C151.103 4.00098 151.903 4.09098 152.683 4.27098C153.463 4.43098 154.163 4.70098 154.783 5.08098C155.403 5.44098 155.893 5.94098 156.253 6.58098C156.633 7.20098 156.823 7.98098 156.823 8.92098C156.823 9.62098 156.673 10.321 156.373 11.021C156.093 11.701 155.643 12.291 155.023 12.791C154.423 13.291 153.633 13.621 152.653 13.781C153.233 13.961 153.783 14.311 154.303 14.831C154.843 15.351 155.263 15.841 155.563 16.301C155.643 16.461 155.783 16.721 155.983 17.081C156.183 17.421 156.433 17.821 156.733 18.281C157.053 18.721 157.383 19.181 157.723 19.661C158.123 20.201 158.473 20.621 158.773 20.921C159.073 21.201 159.383 21.401 159.703 21.521C160.023 21.641 160.393 21.701 160.813 21.701V22.001H158.293C157.213 22.001 156.293 21.921 155.533 21.761C154.793 21.601 154.143 21.311 153.583 20.891C153.043 20.451 152.543 19.861 152.083 19.121C151.903 18.861 151.713 18.551 151.513 18.191C151.313 17.811 151.113 17.431 150.913 17.051C150.713 16.671 150.533 16.301 150.373 15.941C150.233 15.581 150.133 15.281 150.073 15.041C149.813 14.401 149.513 13.941 149.173 13.661C148.853 13.361 148.553 13.211 148.273 13.211V12.941C148.273 12.941 148.343 12.941 148.483 12.941C148.623 12.941 148.803 12.941 149.023 12.941C149.443 12.941 149.853 12.871 150.253 12.731C150.673 12.571 151.053 12.281 151.393 11.861C151.733 11.421 151.983 10.781 152.143 9.94098C152.183 9.82098 152.213 9.65098 152.233 9.43098C152.273 9.21098 152.283 8.96098 152.263 8.68098C152.223 7.94098 152.083 7.35098 151.843 6.91098C151.623 6.45098 151.343 6.11098 151.003 5.89098C150.663 5.65098 150.313 5.49098 149.953 5.41098C149.613 5.31098 149.313 5.26098 149.053 5.26098C148.673 5.24098 148.323 5.24098 148.003 5.26098C147.703 5.26098 147.473 5.25098 147.313 5.23098C147.293 5.23098 147.263 5.13098 147.223 4.93098C147.183 4.71098 147.143 4.50098 147.103 4.30098C147.063 4.10098 147.043 4.00098 147.043 4.00098ZM147.343 4.00098V22.001H142.993V4.00098H147.343ZM143.083 20.111L143.203 22.001H141.043V21.701C141.063 21.701 141.113 21.701 141.193 21.701C141.293 21.701 141.363 21.701 141.403 21.701C141.843 21.701 142.213 21.551 142.513 21.251C142.833 20.931 143.003 20.551 143.023 20.111H143.083ZM143.083 5.86098H143.023C143.003 5.40098 142.833 5.03098 142.513 4.75098C142.213 4.45098 141.853 4.30098 141.433 4.30098C141.373 4.30098 141.293 4.30098 141.193 4.30098C141.113 4.30098 141.063 4.30098 141.043 4.30098V4.00098H143.203L143.083 5.86098ZM147.283 20.111H147.343C147.343 20.611 147.513 21.001 147.853 21.281C148.213 21.561 148.593 21.701 148.993 21.701C148.993 21.701 149.033 21.701 149.113 21.701C149.193 21.701 149.253 21.701 149.293 21.701V22.001H147.133L147.283 20.111ZM170.989 3.58098L188.599 19.061L188.899 22.391L171.319 6.91098L170.989 3.58098ZM171.109 20.171V22.001H168.889V21.701C168.889 21.701 168.969 21.701 169.129 21.701C169.289 21.701 169.369 21.701 169.369 21.701C169.829 21.701 170.219 21.561 170.539 21.281C170.859 20.981 171.019 20.611 171.019 20.171H171.109ZM175.129 20.171C175.149 20.611 175.319 20.981 175.639 21.281C175.959 21.561 176.339 21.701 176.779 21.701C176.779 21.701 176.859 21.701 177.019 21.701C177.199 21.701 177.289 21.701 177.289 21.701V22.001H175.069V20.171H175.129ZM170.989 3.58098L175.129 8.08098V22.001H171.019V7.00098C171.019 5.98098 170.969 5.16098 170.869 4.54098C170.769 3.90098 170.719 3.58098 170.719 3.58098H170.989ZM188.869 4.00098V18.881C188.869 19.581 188.889 20.201 188.929 20.741C188.989 21.261 189.039 21.671 189.079 21.971C189.139 22.251 189.169 22.391 189.169 22.391H188.899L184.759 17.621V4.00098H188.869ZM188.779 5.83098V4.00098H191.029V4.30098C191.029 4.30098 190.939 4.30098 190.759 4.30098C190.599 4.30098 190.519 4.30098 190.519 4.30098C190.079 4.30098 189.689 4.45098 189.349 4.75098C189.029 5.03098 188.869 5.39098 188.869 5.83098H188.779ZM184.759 5.83098C184.739 5.39098 184.569 5.03098 184.249 4.75098C183.949 4.45098 183.569 4.30098 183.109 4.30098C183.109 4.30098 183.019 4.30098 182.839 4.30098C182.679 4.30098 182.599 4.30098 182.599 4.30098V4.00098H184.819V5.83098H184.759ZM199.588 4.00098V22.001H195.268V4.00098H199.588ZM206.608 20.801L207.298 22.001H199.528V20.801H206.608ZM205.588 12.491V13.691H199.528V12.491H205.588ZM206.938 4.00098V5.20098H199.528V4.00098H206.938ZM208.528 16.481L207.388 22.001H202.198L203.128 20.801C203.988 20.801 204.748 20.631 205.408 20.291C206.088 19.931 206.668 19.431 207.148 18.791C207.628 18.131 207.998 17.361 208.258 16.481H208.528ZM205.588 13.631V16.271H205.288V16.031C205.288 15.371 205.078 14.821 204.658 14.381C204.258 13.941 203.708 13.711 203.008 13.691V13.631H205.588ZM205.588 9.91098V12.551H203.008V12.491C203.708 12.471 204.258 12.241 204.658 11.801C205.078 11.341 205.288 10.781 205.288 10.121V9.91098H205.588ZM206.938 5.14098V8.32098H206.638V8.05098C206.638 7.17098 206.398 6.48098 205.918 5.98098C205.458 5.48098 204.788 5.22098 203.908 5.20098V5.14098H206.938ZM206.938 3.55098V4.27098L203.788 4.00098C204.368 4.00098 204.978 3.95098 205.618 3.85098C206.258 3.73098 206.698 3.63098 206.938 3.55098ZM195.328 20.111L195.478 22.001H193.258V21.701C193.258 21.701 193.318 21.701 193.438 21.701C193.558 21.701 193.628 21.701 193.648 21.701C194.088 21.701 194.458 21.551 194.758 21.251C195.078 20.931 195.248 20.551 195.268 20.111H195.328ZM195.328 5.89098H195.268C195.248 5.43098 195.078 5.05098 194.758 4.75098C194.458 4.45098 194.088 4.30098 193.648 4.30098C193.628 4.30098 193.558 4.30098 193.438 4.30098C193.318 4.30098 193.258 4.30098 193.258 4.30098V4.00098H195.478L195.328 5.89098ZM210.972 4.18098H215.622L219.672 14.861L217.992 22.331L210.972 4.18098ZM224.382 3.58098L224.922 6.34098L218.952 19.301C218.952 19.301 218.892 19.451 218.772 19.751C218.672 20.051 218.562 20.431 218.442 20.891C218.322 21.351 218.262 21.831 218.262 22.331H217.992L217.182 19.001L224.142 3.58098H224.382ZM224.382 3.58098L230.262 15.401L228.852 22.331L222.402 9.34098L224.382 3.58098ZM234.522 4.18098L229.602 19.301C229.602 19.301 229.552 19.461 229.452 19.781C229.372 20.101 229.292 20.501 229.212 20.981C229.132 21.441 229.102 21.891 229.122 22.331H228.852L228.042 19.631L232.602 4.18098H234.522ZM232.062 5.95098C232.222 5.37098 232.182 4.95098 231.942 4.69098C231.722 4.43098 231.442 4.30098 231.102 4.30098H230.862V4.00098H236.502V4.30098C236.502 4.30098 236.462 4.30098 236.382 4.30098C236.322 4.30098 236.292 4.30098 236.292 4.30098C235.832 4.30098 235.372 4.44098 234.912 4.72098C234.452 4.98098 234.132 5.39098 233.952 5.95098H232.062ZM216.312 5.95098H211.662C211.442 5.39098 211.122 4.98098 210.702 4.72098C210.282 4.44098 209.822 4.30098 209.322 4.30098C209.322 4.30098 209.282 4.30098 209.202 4.30098C209.122 4.30098 209.082 4.30098 209.082 4.30098V4.00098H217.512V4.30098H217.272C216.952 4.30098 216.662 4.43098 216.402 4.69098C216.142 4.95098 216.112 5.37098 216.312 5.95098ZM243.615 3.61098C244.015 3.61098 244.495 3.63098 245.055 3.67098C245.635 3.71098 246.205 3.76098 246.765 3.82098C247.325 3.86098 247.815 3.92098 248.235 4.00098C248.675 4.06098 248.975 4.12098 249.135 4.18098L248.745 7.84098H248.475C248.475 6.92098 248.155 6.19098 247.515 5.65098C246.875 5.11098 245.955 4.84098 244.755 4.84098C243.795 4.84098 243.015 5.05098 242.415 5.47098C241.835 5.89098 241.525 6.45098 241.485 7.15098C241.445 7.51098 241.505 7.84098 241.665 8.14098C241.845 8.42098 242.085 8.67098 242.385 8.89098C242.705 9.11098 243.055 9.33098 243.435 9.55098L248.145 12.461C248.945 12.861 249.575 13.441 250.035 14.201C250.495 14.961 250.695 15.881 250.635 16.961C250.575 18.081 250.245 19.051 249.645 19.871C249.065 20.691 248.255 21.321 247.215 21.761C246.195 22.181 244.985 22.391 243.585 22.391C242.725 22.391 241.925 22.321 241.185 22.181C240.445 22.041 239.805 21.851 239.265 21.611C238.745 21.371 238.345 21.101 238.065 20.801C237.905 20.401 237.835 19.921 237.855 19.361C237.875 18.781 237.965 18.211 238.125 17.651C238.285 17.071 238.485 16.591 238.725 16.211H238.965C238.905 17.111 239.065 17.941 239.445 18.701C239.845 19.461 240.425 20.071 241.185 20.531C241.945 20.971 242.855 21.191 243.915 21.191C245.075 21.191 245.945 20.921 246.525 20.381C247.105 19.841 247.395 19.211 247.395 18.491C247.395 17.951 247.215 17.471 246.855 17.051C246.515 16.611 245.945 16.181 245.145 15.761L240.885 13.061C239.885 12.541 239.155 11.851 238.695 10.991C238.255 10.131 238.095 9.19098 238.215 8.17098C238.315 7.21098 238.595 6.39098 239.055 5.71098C239.535 5.03098 240.165 4.51098 240.945 4.15098C241.725 3.79098 242.615 3.61098 243.615 3.61098ZM249.135 3.88098L249.105 4.42098H245.895V3.88098H249.135ZM259.689 4.00098V22.001H255.369V4.00098H259.689ZM266.679 20.801L267.399 22.001H259.629V20.801H266.679ZM268.659 16.481L267.489 22.001H262.299L263.229 20.801C264.089 20.801 264.849 20.631 265.509 20.291C266.189 19.931 266.769 19.431 267.249 18.791C267.729 18.131 268.099 17.361 268.359 16.481H268.659ZM255.429 20.111L255.579 22.001H253.359V21.701C253.359 21.701 253.419 21.701 253.539 21.701C253.659 21.701 253.729 21.701 253.749 21.701C254.189 21.701 254.559 21.551 254.859 21.251C255.179 20.931 255.349 20.551 255.369 20.111H255.429ZM259.629 5.89098V4.00098H261.699V4.30098C261.679 4.30098 261.609 4.30098 261.489 4.30098C261.389 4.30098 261.339 4.30098 261.339 4.30098C260.899 4.30098 260.519 4.45098 260.199 4.75098C259.879 5.05098 259.709 5.43098 259.689 5.89098H259.629ZM255.429 5.89098H255.369C255.349 5.43098 255.179 5.05098 254.859 4.75098C254.539 4.45098 254.159 4.30098 253.719 4.30098C253.699 4.30098 253.629 4.30098 253.509 4.30098C253.409 4.30098 253.359 4.30098 253.359 4.30098V4.00098H255.429V5.89098ZM276.461 4.00098V22.001H272.141V4.00098H276.461ZM283.481 20.801L284.171 22.001H276.401V20.801H283.481ZM282.461 12.491V13.691H276.401V12.491H282.461ZM283.811 4.00098V5.20098H276.401V4.00098H283.811ZM285.401 16.481L284.261 22.001H279.071L280.001 20.801C280.861 20.801 281.621 20.631 282.281 20.291C282.961 19.931 283.541 19.431 284.021 18.791C284.501 18.131 284.871 17.361 285.131 16.481H285.401ZM282.461 13.631V16.271H282.161V16.031C282.161 15.371 281.951 14.821 281.531 14.381C281.131 13.941 280.581 13.711 279.881 13.691V13.631H282.461ZM282.461 9.91098V12.551H279.881V12.491C280.581 12.471 281.131 12.241 281.531 11.801C281.951 11.341 282.161 10.781 282.161 10.121V9.91098H282.461ZM283.811 5.14098V8.32098H283.511V8.05098C283.511 7.17098 283.271 6.48098 282.791 5.98098C282.331 5.48098 281.661 5.22098 280.781 5.20098V5.14098H283.811ZM283.811 3.55098V4.27098L280.661 4.00098C281.241 4.00098 281.851 3.95098 282.491 3.85098C283.131 3.73098 283.571 3.63098 283.811 3.55098ZM272.201 20.111L272.351 22.001H270.131V21.701C270.131 21.701 270.191 21.701 270.311 21.701C270.431 21.701 270.501 21.701 270.521 21.701C270.961 21.701 271.331 21.551 271.631 21.251C271.951 20.931 272.121 20.551 272.141 20.111H272.201ZM272.201 5.89098H272.141C272.121 5.43098 271.951 5.05098 271.631 4.75098C271.331 4.45098 270.961 4.30098 270.521 4.30098C270.501 4.30098 270.431 4.30098 270.311 4.30098C270.191 4.30098 270.131 4.30098 270.131 4.30098V4.00098H272.351L272.201 5.89098ZM297.892 4.09098V22.001H293.542V4.09098H297.892ZM304.432 3.97098V5.17098H287.032V3.97098H304.432ZM304.432 5.08098V8.26098H304.102V7.99098C304.122 7.13098 303.882 6.45098 303.382 5.95098C302.902 5.45098 302.232 5.19098 301.372 5.17098V5.08098H304.432ZM304.432 3.52097V4.27098L301.252 3.97098C301.632 3.97098 302.042 3.95098 302.482 3.91098C302.922 3.85098 303.322 3.79098 303.682 3.73098C304.042 3.65098 304.292 3.58098 304.432 3.52097ZM293.602 20.111V22.001H291.592V21.701C291.592 21.701 291.642 21.701 291.742 21.701C291.862 21.701 291.922 21.701 291.922 21.701C292.362 21.701 292.732 21.551 293.032 21.251C293.352 20.931 293.522 20.551 293.542 20.111H293.602ZM297.802 20.111H297.892C297.892 20.551 298.052 20.931 298.372 21.251C298.692 21.551 299.082 21.701 299.542 21.701C299.542 21.701 299.592 21.701 299.692 21.701C299.812 21.701 299.872 21.701 299.872 21.701V22.001H297.802V20.111ZM290.092 5.08098V5.17098C289.212 5.19098 288.532 5.45098 288.052 5.95098C287.592 6.45098 287.362 7.13098 287.362 7.99098V8.26098H287.032V5.08098H290.092ZM287.032 3.52097C287.212 3.56098 287.472 3.62098 287.812 3.70098C288.172 3.78098 288.562 3.85098 288.982 3.91098C289.422 3.95098 289.822 3.97098 290.182 3.97098L287.032 4.27098V3.52097ZM316.979 4.09098V22.001H312.629V4.09098H316.979ZM323.519 3.97098V5.17098H306.119V3.97098H323.519ZM323.519 5.08098V8.26098H323.189V7.99098C323.209 7.13098 322.969 6.45098 322.469 5.95098C321.989 5.45098 321.319 5.19098 320.459 5.17098V5.08098H323.519ZM323.519 3.52097V4.27098L320.339 3.97098C320.719 3.97098 321.129 3.95098 321.569 3.91098C322.009 3.85098 322.409 3.79098 322.769 3.73098C323.129 3.65098 323.379 3.58098 323.519 3.52097ZM312.689 20.111V22.001H310.679V21.701C310.679 21.701 310.729 21.701 310.829 21.701C310.949 21.701 311.009 21.701 311.009 21.701C311.449 21.701 311.819 21.551 312.119 21.251C312.439 20.931 312.609 20.551 312.629 20.111H312.689ZM316.889 20.111H316.979C316.979 20.551 317.139 20.931 317.459 21.251C317.779 21.551 318.169 21.701 318.629 21.701C318.629 21.701 318.679 21.701 318.779 21.701C318.899 21.701 318.959 21.701 318.959 21.701V22.001H316.889V20.111ZM309.179 5.08098V5.17098C308.299 5.19098 307.619 5.45098 307.139 5.95098C306.679 6.45098 306.449 7.13098 306.449 7.99098V8.26098H306.119V5.08098H309.179ZM306.119 3.52097C306.299 3.56098 306.559 3.62098 306.899 3.70098C307.259 3.78098 307.649 3.85098 308.069 3.91098C308.509 3.95098 308.909 3.97098 309.269 3.97098L306.119 4.27098V3.52097ZM331.991 4.00098V22.001H327.671V4.00098H331.991ZM339.011 20.801L339.701 22.001H331.931V20.801H339.011ZM337.991 12.491V13.691H331.931V12.491H337.991ZM339.341 4.00098V5.20098H331.931V4.00098H339.341ZM340.931 16.481L339.791 22.001H334.601L335.531 20.801C336.391 20.801 337.151 20.631 337.811 20.291C338.491 19.931 339.071 19.431 339.551 18.791C340.031 18.131 340.401 17.361 340.661 16.481H340.931ZM337.991 13.631V16.271H337.691V16.031C337.691 15.371 337.481 14.821 337.061 14.381C336.661 13.941 336.111 13.711 335.411 13.691V13.631H337.991ZM337.991 9.91098V12.551H335.411V12.491C336.111 12.471 336.661 12.241 337.061 11.801C337.481 11.341 337.691 10.781 337.691 10.121V9.91098H337.991ZM339.341 5.14098V8.32098H339.041V8.05098C339.041 7.17098 338.801 6.48098 338.321 5.98098C337.861 5.48098 337.191 5.22098 336.311 5.20098V5.14098H339.341ZM339.341 3.55098V4.27098L336.191 4.00098C336.771 4.00098 337.381 3.95098 338.021 3.85098C338.661 3.73098 339.101 3.63098 339.341 3.55098ZM327.731 20.111L327.881 22.001H325.661V21.701C325.661 21.701 325.721 21.701 325.841 21.701C325.961 21.701 326.031 21.701 326.051 21.701C326.491 21.701 326.861 21.551 327.161 21.251C327.481 20.931 327.651 20.551 327.671 20.111H327.731ZM327.731 5.89098H327.671C327.651 5.43098 327.481 5.05098 327.161 4.75098C326.861 4.45098 326.491 4.30098 326.051 4.30098C326.031 4.30098 325.961 4.30098 325.841 4.30098C325.721 4.30098 325.661 4.30098 325.661 4.30098V4.00098H327.881L327.731 5.89098ZM349.288 4.00098H352.528C353.348 4.00098 354.148 4.09098 354.928 4.27098C355.708 4.43098 356.408 4.70098 357.028 5.08098C357.648 5.44098 358.138 5.94098 358.498 6.58098C358.878 7.20098 359.068 7.98098 359.068 8.92098C359.068 9.62098 358.918 10.321 358.618 11.021C358.338 11.701 357.888 12.291 357.268 12.791C356.668 13.291 355.878 13.621 354.898 13.781C355.478 13.961 356.028 14.311 356.548 14.831C357.088 15.351 357.508 15.841 357.808 16.301C357.888 16.461 358.028 16.721 358.228 17.081C358.428 17.421 358.678 17.821 358.978 18.281C359.298 18.721 359.628 19.181 359.968 19.661C360.368 20.201 360.718 20.621 361.018 20.921C361.318 21.201 361.628 21.401 361.948 21.521C362.268 21.641 362.638 21.701 363.058 21.701V22.001H360.538C359.458 22.001 358.538 21.921 357.778 21.761C357.038 21.601 356.388 21.311 355.828 20.891C355.288 20.451 354.788 19.861 354.328 19.121C354.148 18.861 353.958 18.551 353.758 18.191C353.558 17.811 353.358 17.431 353.158 17.051C352.958 16.671 352.778 16.301 352.618 15.941C352.478 15.581 352.378 15.281 352.318 15.041C352.058 14.401 351.758 13.941 351.418 13.661C351.098 13.361 350.798 13.211 350.518 13.211V12.941C350.518 12.941 350.588 12.941 350.728 12.941C350.868 12.941 351.048 12.941 351.268 12.941C351.688 12.941 352.098 12.871 352.498 12.731C352.918 12.571 353.298 12.281 353.638 11.861C353.978 11.421 354.228 10.781 354.388 9.94098C354.428 9.82098 354.458 9.65098 354.478 9.43098C354.518 9.21098 354.528 8.96098 354.508 8.68098C354.468 7.94098 354.328 7.35098 354.088 6.91098C353.868 6.45098 353.588 6.11098 353.248 5.89098C352.908 5.65098 352.558 5.49098 352.198 5.41098C351.858 5.31098 351.558 5.26098 351.298 5.26098C350.918 5.24098 350.568 5.24098 350.248 5.26098C349.948 5.26098 349.718 5.25098 349.558 5.23098C349.538 5.23098 349.508 5.13098 349.468 4.93098C349.428 4.71098 349.388 4.50098 349.348 4.30098C349.308 4.10098 349.288 4.00098 349.288 4.00098ZM349.588 4.00098V22.001H345.238V4.00098H349.588ZM345.328 20.111L345.448 22.001H343.288V21.701C343.308 21.701 343.358 21.701 343.438 21.701C343.538 21.701 343.608 21.701 343.648 21.701C344.088 21.701 344.458 21.551 344.758 21.251C345.078 20.931 345.248 20.551 345.268 20.111H345.328ZM345.328 5.86098H345.268C345.248 5.40098 345.078 5.03098 344.758 4.75098C344.458 4.45098 344.098 4.30098 343.678 4.30098C343.618 4.30098 343.538 4.30098 343.438 4.30098C343.358 4.30098 343.308 4.30098 343.288 4.30098V4.00098H345.448L345.328 5.86098ZM349.528 20.111H349.588C349.588 20.611 349.758 21.001 350.098 21.281C350.458 21.561 350.838 21.701 351.238 21.701C351.238 21.701 351.278 21.701 351.358 21.701C351.438 21.701 351.498 21.701 351.538 21.701V22.001H349.378L349.528 20.111ZM366.394 22.301C365.794 22.301 365.284 22.091 364.864 21.671C364.444 21.251 364.234 20.741 364.234 20.141C364.234 19.521 364.444 19.001 364.864 18.581C365.284 18.161 365.794 17.951 366.394 17.951C367.014 17.951 367.534 18.161 367.954 18.581C368.374 19.001 368.584 19.521 368.584 20.141C368.584 20.741 368.374 21.251 367.954 21.671C367.534 22.091 367.014 22.301 366.394 22.301ZM367.114 15.821H365.734L364.684 10.631L364.144 0.940976H368.764L368.194 10.631L367.114 15.821Z" fill="#413320"/>
</g>
<defs>
<filter id="filter0_d_172_114" x="0.365723" y="0.940918" width="372.398" height="29.4502" filterUnits="userSpaceOnUse" color-interpolation-filters="sRGB">
<feFlood flood-opacity="0" result="BackgroundImageFix"/>
<feColorMatrix in="SourceAlpha" type="matrix" values="0 0 0 0 0 0 0 0 0 0 0 0 0 0 0 0 0 0 127 0" result="hardAlpha"/>
<feOffset dy="4"/>
<feGaussianBlur stdDeviation="2"/>
<feComposite in2="hardAlpha" operator="out"/>
<feColorMatrix type="matrix" values="0 0 0 0 0 0 0 0 0 0 0 0 0 0 0 0 0 0 0.25 0"/>
<feBlend mode="normal" in2="BackgroundImageFix" result="effect1_dropShadow_172_114"/>
<feBlend mode="normal" in="SourceGraphic" in2="effect1_dropShadow_172_114" result="shape"/>
</filter>
</defs>
</svg>
