<svg width="271" height="99" viewBox="0 0 271 99" fill="none" xmlns="http://www.w3.org/2000/svg">
<path d="M100.453 40.0501L139.811 42.9254L153.174 74.297L250.227 3.84478L100.453 40.0501Z" fill="#CF822A"/>
<path d="M168.543 48.2772L230.53 56.445L250.227 3.84486L168.543 48.2772Z" fill="#CF822A" fill-opacity="0.78"/>
<path d="M139.811 42.9255L152.307 72.2536L153.174 74.2971L168.543 48.2772L250.227 3.84491L139.811 42.9255Z" fill="#BF7828"/>
<path d="M19.3189 95.5133C20.7834 96.5258 21.7621 97.0974 21.8047 97.1204L23.226 96.5395C23.2167 96.5342 22.2376 95.9618 20.8045 94.9723L19.3189 95.5133ZM11.6279 69.6948L13.0622 70.0107C13.8758 69.3758 14.8091 68.7505 15.834 68.152L14.5766 67.7198C13.4876 68.3543 12.4967 69.0195 11.6279 69.6948ZM26.0741 62.9688L26.7971 63.6283C28.1171 63.2275 29.5231 62.8365 30.9812 62.4648L30.3994 61.7657C28.8955 62.1501 27.4416 62.554 26.0741 62.9688ZM18.0548 65.9325L19.122 66.4625C20.26 65.9447 21.5026 65.4384 22.8133 64.9563L21.9227 64.3522C20.5532 64.8574 19.2483 65.3894 18.0548 65.9325ZM16.4645 91.6396L14.9161 92.1293C15.6411 92.7505 16.3559 93.3265 17.0356 93.8482L18.5543 93.334C17.8842 92.8186 17.1805 92.2514 16.4645 91.6396ZM12.8244 88.0954L11.213 88.5239C11.7757 89.1596 12.3673 89.7708 12.9687 90.3551L14.5486 89.8935C13.9595 89.3208 13.3793 88.7195 12.8244 88.0954ZM35.3023 61.4466C36.7082 61.1407 38.1793 60.8436 39.718 60.5558L39.3605 59.8066C37.7871 60.1019 36.2808 60.4057 34.8442 60.7183L35.3023 61.4466ZM8.45693 80.3514L6.73761 80.5821C6.88216 81.2632 7.09912 81.9637 7.38182 82.6649L9.07963 82.3702C8.80287 81.6909 8.59391 81.0119 8.45693 80.3514ZM10.9021 72.0027L9.33028 71.8146C8.69395 72.5233 8.15656 73.2643 7.73301 74.0171L9.39738 74.0778C9.79825 73.3673 10.3042 72.6691 10.9021 72.0027ZM10.0538 84.3361L8.37887 84.6835C8.74482 85.318 9.17948 85.9737 9.67128 86.6356L11.3135 86.2433C10.8333 85.5962 10.4077 84.9549 10.0538 84.3361ZM8.53438 76.1834L6.8237 76.2384C6.63389 76.9563 6.53275 77.6945 6.52274 78.4346L8.24694 78.2851C8.25604 77.5761 8.35212 76.8699 8.53438 76.1834ZM108.403 53.9853C110.038 53.7764 111.575 53.56 113.019 53.3389L112.783 52.5699C111.37 52.7861 109.865 52.9976 108.262 53.2025L108.403 53.9853ZM117.259 51.8157L117.606 52.5659C119.189 52.2727 120.713 51.9586 122.139 51.633L121.645 50.9135C120.268 51.2289 118.791 51.5322 117.259 51.8157ZM125.857 49.8246L126.551 50.4928C128.099 50.0401 129.503 49.5614 130.721 49.0728L129.756 48.4976C128.622 48.9535 127.313 49.3994 125.857 49.8246ZM99.1433 54.9831C100.687 54.8443 102.231 54.6923 103.773 54.5272L103.707 53.7354C102.256 53.8906 100.733 54.0415 99.1415 54.1852L99.1433 54.9831ZM44.1954 59.7753C45.6484 59.5396 47.1544 59.3109 48.7143 59.0912L48.5221 58.315C46.9332 58.5402 45.404 58.7722 43.9257 59.0117L44.1954 59.7753ZM134.029 46.012C134.028 46.0152 133.803 46.3466 132.995 46.8803L134.336 47.2617C135.303 46.6212 135.617 46.1921 135.669 46.1123L134.029 46.012ZM62.3972 57.5021C63.8845 57.362 65.4086 57.228 66.9735 57.0993L67.0025 56.2996C65.4242 56.4288 63.8832 56.565 62.3809 56.7069L62.3972 57.5021ZM53.2576 58.4914C54.7335 58.3084 56.2619 58.1316 57.8223 57.9647L57.7557 57.173C56.1706 57.3445 54.6247 57.5226 53.1334 57.7065L53.2576 58.4914ZM71.552 56.748C73.0459 56.6407 74.57 56.5396 76.1279 56.4433L76.2328 55.6373C74.6616 55.7342 73.1252 55.8375 71.6221 55.9446L71.552 56.748ZM80.8412 55.3725L80.7051 56.1793C81.6555 56.129 82.616 56.0807 83.5881 56.0333L85.2889 55.9481L85.425 55.1413L83.7421 55.2261C82.7654 55.2734 81.7962 55.3223 80.8412 55.3725ZM89.8982 55.6851C91.4926 55.5849 93.0298 55.4784 94.517 55.3663L94.5721 54.5647C93.0978 54.6754 91.5738 54.7814 89.9969 54.8803L89.8982 55.6851Z" fill="#1E1E1E"/>
</svg>
