<svg width="67" height="68" viewBox="0 0 67 68" fill="none" xmlns="http://www.w3.org/2000/svg">
    <g clip-path="url(#clip0_1_28)">
        <path d="M49.1129 1.00385H17.406C8.04657 1.00385 0.459229 8.57592 0.459229 17.9166V49.5597C0.459229 58.9003 8.04657 66.4724 17.406 66.4724H49.1129C58.4724 66.4724 66.0598 58.9003 66.0598 49.5597V17.9166C66.0598 8.57592 58.4724 1.00385 49.1129 1.00385Z" fill="white" fill-opacity="0.74"/>
        <path d="M49.1128 67.9345L49.244 68L49.5501 67.7599L49.1128 67.9345Z" fill="#252020"/>
        <path d="M51.1029 67.3235V67.1926L49.9658 67.9127C50.425 68.2182 50.7312 67.1053 51.1029 67.3235ZM51.4309 67.3235C51.5727 67.3544 51.7208 67.3341 51.849 67.2662C51.9772 67.1982 52.077 67.0871 52.1306 66.9525C52.0213 67.2144 51.2997 67.018 51.4309 67.3235ZM66.9345 36.3132C66.9306 36.3568 66.9306 36.4006 66.9345 36.4442C66.9515 36.4022 66.9515 36.3552 66.9345 36.3132Z" fill="#252020"/>
        <path d="M65.9066 26.5148H65.6661C65.8475 28.4514 65.9059 30.3975 65.841 32.3415V32.2105C65.841 37.1207 66.1472 41.6598 66.344 46.5263L66.2128 46.3517C66.3376 46.5886 66.412 46.8486 66.4314 47.1155C66.4314 47.1155 66.3221 47.1155 66.3002 46.9628C65.8848 47.9884 66.5845 49.9961 66.3002 50.629C66.3002 50.9127 66.497 51.0655 66.6282 50.9127C66.4282 55.0064 64.8923 58.9225 62.2549 62.0642H61.9269C60.7721 63.4924 59.2963 64.6288 57.6191 65.3813C55.9995 66.212 54.2574 66.7793 52.4585 67.0616C52.4585 67.258 52.8521 67.1926 52.4585 67.4108C53.6612 67.4108 54.4265 66.516 55.5199 66.4287V66.6252C56.2852 66.4506 55.5199 66.2105 56.329 66.0796C56.6788 66.0796 56.329 66.2978 56.482 66.2542C58.0569 65.6444 59.4654 64.6724 60.593 63.4172C61.0959 63.4172 61.9269 62.2824 62.561 62.0424C62.7359 61.6277 63.0639 61.344 62.9765 61.0603C64.8848 58.8825 66.1823 56.24 66.7376 53.4005C66.8688 52.7022 66.9562 51.9602 67.0437 51.2182C67.1312 50.4762 67.0437 49.7561 67.0437 49.0359V44.9114C66.344 42.3363 67.1749 39.2593 67.0437 36.1823C66.8233 35.0173 66.728 33.8321 66.7594 32.647L66.4752 31.6431C66.7813 28.0642 66.825 24.4634 66.825 20.7317C66.8851 18.8812 66.812 17.0288 66.6064 15.1887C66.3319 13.3484 65.7789 11.5603 64.9664 9.88575C63.1559 6.08665 60.0577 3.0488 56.2196 1.30937C54.3239 0.461917 52.2821 -0.0123152 50.2062 -0.0872955C48.2104 -0.0726145 46.2171 0.0585465 44.2366 0.305516L44.3897 0.174579C42.0718 0.305516 40.0163 0.0654644 37.8296 0.174579C32.341 0.807441 26.4589 0.152756 21.2327 0.785618C17.8732 0.468927 14.4845 0.85543 11.2833 1.92041C8.02301 3.22191 5.2543 5.51181 3.36747 8.46726C1.92883 10.6872 0.906347 13.1495 0.349848 15.7343C0.0263924 18.391 -0.0687107 21.0704 0.0655795 23.7433C-0.240556 29.2644 0.852786 35.0911 0.437316 40.6778C0.175085 42.5601 0.175085 44.4695 0.437316 46.3517C0.667578 48.1826 0.748022 50.0291 0.677851 51.8729C0.662994 55.2819 1.98092 58.5622 4.35148 61.0167C6.68255 63.459 9.75804 65.0627 13.0982 65.5777C16.0589 66.298 19.125 66.4828 22.1511 66.1232C25.1703 65.9615 28.1976 66.0418 31.204 66.3633C34.0248 65.8832 37.1299 66.9743 40.2787 66.8216L40.1694 66.647C41.3064 67.1707 42.684 65.9268 43.3838 66.647H43.2745C43.8649 67.0398 44.6521 65.7304 45.0238 66.1887V65.9923C45.7454 65.9923 45.0238 66.2105 45.6579 66.2978C45.8766 66.2978 45.6579 65.9486 46.1827 66.0578C46.1827 66.8434 47.954 65.8832 47.9977 66.7779C47.6041 66.7779 48.61 67.1271 47.7353 67.3017C47.9977 67.3017 49.2004 67.3017 49.091 66.9743C48.9817 66.647 49.6596 66.2323 48.938 65.9268L48.7849 66.2105C48.5444 65.9268 48.5881 66.0578 48.5006 65.8395C47.5385 65.8395 47.4073 65.3813 46.7294 65.2067C46.2483 65.5558 45.6142 65.3376 45.2425 65.2067L45.0894 65.0539C44.8707 64.7266 43.9961 65.7086 44.2803 65.0539C42.3342 65.2067 40.0819 65.1849 37.8952 65.2067C37.5891 65.4249 36.2333 65.2067 36.6925 65.6213C35.8173 65.3078 34.8758 65.2251 33.9592 65.3813C33.9796 65.3613 34.0071 65.3501 34.0357 65.3501C34.0643 65.3501 34.0918 65.3613 34.1122 65.3813C32.9314 64.7484 32.7346 65.9705 31.6194 65.1849C31.4445 65.7304 29.6295 65.0103 29.0173 65.6431C28.8861 65.5122 28.8423 65.4031 28.8861 65.3158C26.9181 65.3158 24.7314 65.0976 23.0695 65.0757C21.6481 65.5558 19.6145 64.8575 18.39 65.5122C17.1251 65.2893 15.8467 65.1508 14.5633 65.0976H14.6945C13.2294 64.8793 11.4801 64.3338 10.3211 64.2028C10.1899 63.4608 9.59952 63.2644 9.16218 62.7407C7.78096 62.0536 6.53623 61.1219 5.48856 59.991C5.48856 59.6637 4.59202 59.0963 4.89815 58.7689C3.15247 57.1629 1.9781 55.0333 1.55252 52.7022C1.29729 50.2141 1.38558 47.7029 1.81493 45.2388C1.57439 44.6059 1.07145 43.8857 0.765318 43.2311C0.765318 42.3363 1.09332 41.5071 1.02772 40.6123L1.15892 40.7651C0.96212 39.9358 1.48692 39.0411 1.15892 38.059H1.26826L1.11519 37.4262C1.24639 37.4262 1.46506 37.4262 1.42132 37.7972C1.42132 33.9782 1.42132 30.0937 1.18079 26.1874L1.24639 20.4262C1.1195 18.515 1.22228 16.5954 1.55252 14.7086V15.0141C1.52694 14.5271 1.52694 14.039 1.55252 13.552V13.7266C2.17468 11.9335 3.01949 10.2253 4.06721 8.64184C4.06721 8.64184 4.06721 8.99101 4.28588 8.81643C4.74508 7.48523 5.92589 7.50706 5.92589 6.45956C5.95073 6.49052 5.96427 6.52901 5.96427 6.56867C5.96427 6.60834 5.95073 6.64682 5.92589 6.67779C7.1832 5.25443 8.71309 4.09642 10.4255 3.27191C12.1379 2.4474 13.9983 1.97305 15.8972 1.87676C19.046 1.02567 22.7852 1.76765 26.1527 1.17843V1.30937C30.5261 0.807441 35.2056 1.30937 39.7758 1.30937C41.6782 1.30937 42.9464 1.20025 44.8489 1.20025V1.37484C46.4924 1.10531 48.1691 1.10531 49.8126 1.37484C51.4964 1.57124 53.0708 2.02952 54.7327 2.24775L54.4484 2.40051C54.8442 2.38339 55.2372 2.47391 55.5855 2.66238C55.9572 2.83697 56.2634 2.94608 56.3071 2.66238L56.7444 3.09884C57.8501 3.27993 58.8566 3.84396 59.5871 4.69191C60.4118 5.55954 61.2959 6.36893 62.233 7.11424H61.9925C62.5616 7.56356 63.0183 8.13884 63.3263 8.79461L63.1295 8.66367C64.2259 10.8141 65.112 13.065 65.7754 15.3851L65.4256 15.1887C65.8135 16.7578 65.961 18.3765 65.8629 19.9897H65.7317L65.9285 20.7754H65.6661C65.6442 22.6521 65.8629 24.5289 65.9066 26.5148Z" fill="#252020"/>
        <path d="M49.1128 67.9345L49.244 68L49.5501 67.7599L49.1128 67.9345Z" fill="#252020"/>
        <path d="M51.1029 67.3235V67.1926L49.9658 67.9127C50.425 68.2182 50.7312 67.1053 51.1029 67.3235ZM51.4309 67.3235C51.5727 67.3544 51.7208 67.3341 51.849 67.2662C51.9772 67.1982 52.077 67.0871 52.1306 66.9525C52.0213 67.2144 51.2997 67.018 51.4309 67.3235ZM66.9345 36.3132C66.9306 36.3568 66.9306 36.4006 66.9345 36.4442C66.9515 36.4022 66.9515 36.3552 66.9345 36.3132Z" fill="#252020"/>
        <path d="M65.9066 26.5148H65.6661C65.8475 28.4514 65.9059 30.3975 65.841 32.3415V32.2105C65.841 37.1207 66.1472 41.6598 66.344 46.5263L66.2128 46.3517C66.3376 46.5886 66.412 46.8486 66.4314 47.1155C66.4314 47.1155 66.3221 47.1155 66.3002 46.9628C65.8848 47.9884 66.5845 49.9961 66.3002 50.629C66.3002 50.9127 66.497 51.0655 66.6282 50.9127C66.4282 55.0064 64.8923 58.9225 62.2549 62.0642H61.9269C60.7721 63.4924 59.2963 64.6288 57.6191 65.3813C55.9995 66.212 54.2574 66.7793 52.4585 67.0616C52.4585 67.258 52.8521 67.1926 52.4585 67.4108C53.6612 67.4108 54.4265 66.516 55.5199 66.4287V66.6252C56.2852 66.4506 55.5199 66.2105 56.329 66.0796C56.6788 66.0796 56.329 66.2978 56.482 66.2542C58.0569 65.6444 59.4654 64.6724 60.593 63.4172C61.0959 63.4172 61.9269 62.2824 62.561 62.0424C62.7359 61.6277 63.0639 61.344 62.9765 61.0603C64.8848 58.8825 66.1823 56.24 66.7376 53.4005C66.8688 52.7022 66.9562 51.9602 67.0437 51.2182C67.1312 50.4762 67.0437 49.7561 67.0437 49.0359V44.9114C66.344 42.3363 67.1749 39.2593 67.0437 36.1823C66.8233 35.0173 66.728 33.8321 66.7594 32.647L66.4752 31.6431C66.7813 28.0642 66.825 24.4634 66.825 20.7317C66.8851 18.8812 66.812 17.0288 66.6064 15.1887C66.3319 13.3484 65.7789 11.5603 64.9664 9.88575C63.1559 6.08665 60.0577 3.0488 56.2196 1.30937C54.3239 0.461917 52.2821 -0.0123152 50.2062 -0.0872955C48.2104 -0.0726145 46.2171 0.0585465 44.2366 0.305516L44.3897 0.174579C42.0718 0.305516 40.0163 0.0654644 37.8296 0.174579C32.341 0.807441 26.4589 0.152756 21.2327 0.785618C17.8732 0.468927 14.4845 0.85543 11.2833 1.92041C8.02301 3.22191 5.2543 5.51181 3.36747 8.46726C1.92883 10.6872 0.906347 13.1495 0.349848 15.7343C0.0263924 18.391 -0.0687107 21.0704 0.0655795 23.7433C-0.240556 29.2644 0.852786 35.0911 0.437316 40.6778C0.175085 42.5601 0.175085 44.4695 0.437316 46.3517C0.667578 48.1826 0.748022 50.0291 0.677851 51.8729C0.662994 55.2819 1.98092 58.5622 4.35148 61.0167C6.68255 63.459 9.75804 65.0627 13.0982 65.5777C16.0589 66.298 19.125 66.4828 22.1511 66.1232C25.1703 65.9615 28.1976 66.0418 31.204 66.3633C34.0248 65.8832 37.1299 66.9743 40.2787 66.8216L40.1694 66.647C41.3064 67.1707 42.684 65.9268 43.3838 66.647H43.2745C43.8649 67.0398 44.6521 65.7304 45.0238 66.1887V65.9923C45.7454 65.9923 45.0238 66.2105 45.6579 66.2978C45.8766 66.2978 45.6579 65.9486 46.1827 66.0578C46.1827 66.8434 47.954 65.8832 47.9977 66.7779C47.6041 66.7779 48.61 67.1271 47.7353 67.3017C47.9977 67.3017 49.2004 67.3017 49.091 66.9743C48.9817 66.647 49.6596 66.2323 48.938 65.9268L48.7849 66.2105C48.5444 65.9268 48.5881 66.0578 48.5006 65.8395C47.5385 65.8395 47.4073 65.3813 46.7294 65.2067C46.2483 65.5558 45.6142 65.3376 45.2425 65.2067L45.0894 65.0539C44.8707 64.7266 43.9961 65.7086 44.2803 65.0539C42.3342 65.2067 40.0819 65.1849 37.8952 65.2067C37.5891 65.4249 36.2333 65.2067 36.6925 65.6213C35.8173 65.3078 34.8758 65.2251 33.9592 65.3813C33.9796 65.3613 34.0071 65.3501 34.0357 65.3501C34.0643 65.3501 34.0918 65.3613 34.1122 65.3813C32.9314 64.7484 32.7346 65.9705 31.6194 65.1849C31.4445 65.7304 29.6295 65.0103 29.0173 65.6431C28.8861 65.5122 28.8423 65.4031 28.8861 65.3158C26.9181 65.3158 24.7314 65.0976 23.0695 65.0757C21.6481 65.5558 19.6145 64.8575 18.39 65.5122C17.1251 65.2893 15.8467 65.1508 14.5633 65.0976H14.6945C13.2294 64.8793 11.4801 64.3338 10.3211 64.2028C10.1899 63.4608 9.59952 63.2644 9.16218 62.7407C7.78096 62.0536 6.53623 61.1219 5.48856 59.991C5.48856 59.6637 4.59202 59.0963 4.89815 58.7689C3.15247 57.1629 1.9781 55.0333 1.55252 52.7022C1.29729 50.2141 1.38558 47.7029 1.81493 45.2388C1.57439 44.6059 1.07145 43.8857 0.765318 43.2311C0.765318 42.3363 1.09332 41.5071 1.02772 40.6123L1.15892 40.7651C0.96212 39.9358 1.48692 39.0411 1.15892 38.059H1.26826L1.11519 37.4262C1.24639 37.4262 1.46506 37.4262 1.42132 37.7972C1.42132 33.9782 1.42132 30.0937 1.18079 26.1874L1.24639 20.4262C1.1195 18.515 1.22228 16.5954 1.55252 14.7086V15.0141C1.52694 14.5271 1.52694 14.039 1.55252 13.552V13.7266C2.17468 11.9335 3.01949 10.2253 4.06721 8.64184C4.06721 8.64184 4.06721 8.99101 4.28588 8.81643C4.74508 7.48523 5.92589 7.50706 5.92589 6.45956C5.95073 6.49052 5.96427 6.52901 5.96427 6.56867C5.96427 6.60834 5.95073 6.64682 5.92589 6.67779C7.1832 5.25443 8.71309 4.09642 10.4255 3.27191C12.1379 2.4474 13.9983 1.97305 15.8972 1.87676C19.046 1.02567 22.7852 1.76765 26.1527 1.17843V1.30937C30.5261 0.807441 35.2056 1.30937 39.7758 1.30937C41.6782 1.30937 42.9464 1.20025 44.8489 1.20025V1.37484C46.4924 1.10531 48.1691 1.10531 49.8126 1.37484C51.4964 1.57124 53.0708 2.02952 54.7327 2.24775L54.4484 2.40051C54.8442 2.38339 55.2372 2.47391 55.5855 2.66238C55.9572 2.83697 56.2634 2.94608 56.3071 2.66238L56.7444 3.09884C57.8501 3.27993 58.8566 3.84396 59.5871 4.69191C60.4118 5.55954 61.2959 6.36893 62.233 7.11424H61.9925C62.5616 7.56356 63.0183 8.13884 63.3263 8.79461L63.1295 8.66367C64.2259 10.8141 65.112 13.065 65.7754 15.3851L65.4256 15.1887C65.8135 16.7578 65.961 18.3765 65.8629 19.9897H65.7317L65.9285 20.7754H65.6661C65.6442 22.6521 65.8629 24.5289 65.9066 26.5148Z" fill="#252020"/>
        <path d="M33.2157 32.5379C38.8314 32.5379 43.3838 27.9165 43.3838 22.2157C43.3838 16.5149 38.8314 11.8934 33.2157 11.8934C27.6 11.8934 23.0476 16.5149 23.0476 22.2157C23.0476 27.9165 27.6 32.5379 33.2157 32.5379Z" fill="#403727"/>
        <path d="M46.3139 22.2157L46.467 22.172L46.0078 22.0847L46.3139 22.2157Z" fill="#202020"/>
        <path d="M45.2862 21.6264H44.9801L46.2921 21.9538C46.9918 21.7355 44.7833 21.7355 45.2862 21.6264ZM45.2862 21.5173C45.5923 21.3646 44.9801 21.3427 44.7614 21.3209C45.2862 21.3209 44.7395 21.5828 45.2862 21.5173Z" fill="#202020"/>
        <path d="M35.4898 12.5263L35.3586 13.0064C36.0584 12.2644 36.3208 13.2901 36.9112 13.1155V13.2683C37.9826 13.923 39.404 13.8793 40.6941 14.5995L40.4755 14.7522C40.6504 14.7522 40.9128 14.5122 40.9347 14.5995C40.8777 14.67 40.8019 14.7229 40.716 14.7522C40.3224 15.516 41.6781 15.0578 41.3283 15.6033C41.5196 15.5144 41.6797 15.3699 41.7875 15.1887C42.6621 15.9525 43.4056 16.9563 44.4334 17.8947C44.2741 18.0234 44.0869 18.1131 43.8867 18.1566C45.5048 18.7022 45.2643 20.0988 45.1331 21.1682C45.483 21.1682 45.483 21.0154 45.8547 21.1682C46.2702 20.7317 44.9363 20.6008 45.5048 20.1861H45.8328C46.0078 19.9024 45.0019 20.1861 45.3955 19.9461C45.7891 19.706 45.811 19.9461 45.8328 19.9461C45.6142 19.466 45.8328 18.8331 44.8488 18.5931C45.483 18.2657 44.6958 18.0693 45.2643 17.6547C44.9582 17.6547 44.98 17.4801 44.5208 17.6547C44.1709 15.8216 42.5091 14.6431 41.2627 13.4429C39.7976 13.923 40.0163 12.0899 38.8792 11.9589V11.828C38.683 11.9135 38.4657 11.9384 38.2553 11.8995C38.0448 11.8606 37.8508 11.7597 37.6984 11.6097L37.1954 12.0462C36.8079 11.6096 36.3338 11.2581 35.803 11.0139C35.2723 10.7697 34.6965 10.6382 34.1122 10.6277C32.9533 10.5186 31.9255 10.6277 30.6354 10.6277C29.309 10.6768 28.0068 10.9961 26.8087 11.5661C26.1958 11.8644 25.6716 12.3173 25.288 12.88C24.9045 13.4427 24.6749 14.0956 24.622 14.7741C24.622 14.7741 24.4471 14.6431 24.4471 14.5558C24.1847 15.276 23.3975 15.516 23.2881 16.2798H23.1788C23.1653 17.1655 22.9562 18.0373 22.5665 18.8331C22.3673 19.2137 22.2632 19.6367 22.2632 20.0661C22.2632 20.4955 22.3673 20.9185 22.5665 21.2991C22.2581 23.2439 22.7209 25.2321 23.8567 26.8421L23.6161 26.9512C24.1167 27.5471 24.4755 28.2485 24.6657 29.0026C24.8634 29.7947 25.3663 30.4769 26.0652 30.9011C26.3205 31.2332 26.6531 31.4982 27.0341 31.6731C27.4151 31.848 27.8331 31.9276 28.2519 31.905C29.0747 31.808 29.9051 32.0094 30.5916 32.4724C30.8978 33.2798 31.5975 32.9525 32.1661 32.647C32.7346 32.3415 33.2157 31.9486 33.6967 32.647C34.0457 33.0819 34.5482 33.3672 35.1011 33.4443C35.654 33.5214 36.2156 33.3844 36.6706 33.0616C37.5382 32.4163 38.1684 31.5036 38.4637 30.4647C38.8581 30.3385 39.2166 30.1203 39.5095 29.828C39.8023 29.5357 40.021 29.1779 40.1475 28.7843C40.2875 28.3886 40.5157 28.0297 40.815 27.7349C41.1142 27.44 41.4766 27.2168 41.8749 27.0821C41.5907 26.5148 42.0499 26.3402 42.5528 26.0565C43.0557 25.7728 43.668 25.4891 43.6243 25.009H43.2744C44.3896 24.8999 42.0061 24.0488 43.5368 24.1142C44.3459 24.1142 41.7656 23.4814 42.7059 23.525H42.3341C42.3341 23.3286 42.7715 23.525 42.9464 23.4159C43.1213 23.3068 42.2467 23.4159 42.4653 23.2413C44.0397 23.2413 42.1373 22.7612 43.9086 22.8049C43.9086 22.9358 44.6083 22.6303 44.9582 22.914C45.1331 22.914 45.0675 22.4339 44.324 22.4775C43.6003 22.3554 42.8611 22.3554 42.1373 22.4775H42.7059H41.9843C41.9843 22.7176 41.044 22.7176 40.6941 22.8485C41.3939 23.0013 40.9565 23.1322 40.8691 23.1977H40.9128C40.2349 23.1977 42.1811 23.5905 41.044 23.3941C41.219 23.8508 41.219 24.3559 41.044 24.8126C41.4376 25.009 40.8691 25.1617 41.7219 25.3145C40.7597 25.1399 40.4099 25.3145 40.4099 25.4891C40.4099 25.6637 40.2349 25.4891 40.2787 25.4891C39.0322 25.1836 41.1971 26.2311 39.7101 25.7946C40.6723 26.3402 39.229 25.991 40.2568 26.7112C40.0586 26.6263 39.8684 26.524 39.6882 26.4056C39.4696 26.7548 38.8792 26.8639 38.6386 27.104C39.1416 27.9332 37.8952 27.3004 38.6386 28.3915C38.2888 28.3915 37.6984 28.1296 37.7858 28.7189V28.5661C37.6065 28.7408 37.4821 28.9639 37.4277 29.208C37.3733 29.4522 37.3914 29.7069 37.4797 29.9409C37.2367 29.5067 36.8819 29.1451 36.452 28.8934C36.452 29.5263 36.0584 29.5481 35.9053 30.1374C35.6647 29.6136 35.7085 30.4865 35.4461 29.6791C35.0306 31.5558 33.2594 31.1412 32.4722 29.6791C32.2973 30.1155 31.9911 31.0976 31.7287 31.6649V31.4685C31.7287 31.4904 31.4444 30.7484 31.2258 30.8357C31.2115 30.749 31.2115 30.6605 31.2258 30.5738C30.9415 30.8793 31.0508 29.8318 30.6572 30.3992V30.181L30.4386 30.421C30.4386 30.1592 30.6791 29.7664 30.701 29.8755C29.9153 29.552 29.1032 29.2965 28.2738 29.1117C27.3699 28.8873 26.587 28.3248 26.0871 27.5404H26.3495H25.7372L25.9777 27.4313C26.1527 26.7985 25.2124 26.7985 25.1468 26.3183C25.3255 26.2743 25.4956 26.2005 25.6497 26.1001C24.7969 26.1001 26.3713 25.2709 24.8407 25.6855C25.0075 25.6054 25.1838 25.5467 25.3655 25.5109C24.998 25.1997 24.7298 24.788 24.5938 24.3266C24.4579 23.8652 24.46 23.3742 24.6001 22.914C24.3475 22.8247 24.1356 22.6477 24.0031 22.4152C23.8706 22.1828 23.8264 21.9106 23.8785 21.6483C23.9485 21.4064 23.9592 21.1513 23.9097 20.9044C23.8602 20.6576 23.752 20.4262 23.5943 20.2298H23.8785C23.1788 18.8113 24.6876 18.0475 25.1687 16.9345C25.5623 16.6072 25.4748 16.1271 25.8028 15.7343L26.0871 15.9525C25.8465 15.1669 26.4369 15.0578 26.9399 14.9705C27.4428 14.8832 27.9458 14.9705 27.902 14.0321L28.1207 14.4685C27.8364 13.7702 28.6892 14.4685 27.9895 13.3556L28.3175 13.6175C28.1863 12.7227 28.5799 12.7664 28.9516 12.8755C29.3234 12.9846 29.7388 13.2246 29.9356 12.57V12.8755C29.9356 12.57 30.2418 12.3517 30.4604 12.57C30.6791 12.7882 30.4604 12.7009 30.4604 12.7882C31.3351 13.792 31.6631 12.3735 32.3847 12.3735V12.9409C32.6471 12.2644 33.2594 12.9409 33.653 12.57V12.8318L33.8935 12.4608V13.0064C34.3527 12.8318 34.965 12.439 35.4898 12.5263Z" fill="#252020"/>
        <path d="M40.9128 22.783H41.0222C41.0222 22.783 40.9128 22.7612 40.9128 22.783Z" fill="#202020"/>
        <path d="M16.8594 55.561C16.8594 42.8164 24.2066 32.4942 33.2595 32.4942C42.3124 32.4942 49.6596 42.8164 49.6596 55.561" fill="#413320"/>
        <path d="M51.1247 55.561L51.2122 55.5173L50.9717 55.4519L51.1247 55.561Z" fill="#202020"/>
        <path d="M50.6 55.0372H50.4469L51.1029 55.3427C51.4746 55.2336 50.3594 55.1463 50.6 55.0372ZM50.6656 54.9499C50.8186 54.819 50.5125 54.7972 50.4032 54.7535C50.6437 54.7972 50.3376 54.9936 50.6656 54.9499ZM46.7077 42.751H46.4671C47.0575 43.0128 46.8607 43.6893 47.2543 44.104C47.6479 45.3479 48.4351 46.2863 48.9162 47.5738H48.785C48.785 47.5738 49.0474 47.5738 49.0474 47.7266C49.0241 47.74 48.9977 47.747 48.9709 47.747C48.944 47.747 48.9176 47.74 48.8943 47.7266C48.5663 48.0976 49.3536 48.4467 49.0912 48.6868C49.1425 48.7224 49.2035 48.7416 49.2661 48.7416C49.3286 48.7416 49.3897 48.7224 49.441 48.6868C49.7253 49.6906 50.0314 50.7599 50.425 51.7856C50.3267 51.8245 50.2172 51.8245 50.1189 51.7856C50.4033 52.1815 50.5943 52.6364 50.6776 53.1164C50.7609 53.5963 50.7344 54.0889 50.6 54.5571H50.9498C51.1466 54.2516 50.5125 54.0115 50.8186 53.7278H50.9936C50.9936 53.5314 50.5781 53.7278 50.7749 53.4878C50.9717 53.2477 50.9936 53.4878 50.9936 53.4878C50.9936 53.0732 50.9936 52.6149 50.5781 52.2439C50.928 52.113 50.5781 51.7856 50.8624 51.5892C50.7093 51.5892 50.7312 51.371 50.4906 51.371C50.3515 49.88 50.0208 48.4131 49.5066 47.0064C48.6975 46.5045 49.1786 45.4788 48.6975 44.8241C48.4385 44.5961 48.2618 44.2894 48.1946 43.9512L47.8229 43.7985C47.3765 41.8336 46.5113 39.9878 45.2863 38.3864C44.8365 37.3475 44.1653 36.4189 43.3194 35.6651C42.4735 34.9114 41.4732 34.3506 40.3881 34.0218C39.8654 33.6882 39.317 33.3963 38.7481 33.1489C37.9999 33.0326 37.2666 32.8351 36.5615 32.5597C35.8483 32.3462 35.088 32.3462 34.3748 32.5597C32.5277 32.3153 30.65 32.6429 28.9955 33.4981V33.3671C27.771 34.1091 26.1747 34.24 25.1032 35.3312C23.7037 36.095 23.3539 37.9499 22.1731 38.8665C21.0141 39.1938 21.6045 41.0488 20.5768 41.3979C19.8332 41.957 19.2639 42.7152 18.9349 43.5844C18.6058 44.4535 18.5307 45.398 18.7181 46.3081C17.8434 47.7702 18.4557 49.5597 17.428 50.9782C17.8216 51.7856 16.6408 52.4839 16.6845 53.3569H16.8594C16.3346 53.6187 17.5592 54.077 16.8594 54.208C16.4658 54.3607 17.756 54.6226 17.2968 54.6881H17.4936C17.4936 54.8845 17.2749 54.6881 17.1874 54.8408C17.1 54.9936 17.5373 54.8408 17.428 54.9936C16.6408 54.9936 17.581 55.4737 16.7064 55.4737C16.7064 55.4737 16.3565 55.6483 16.1816 55.4737C16.0066 55.2991 16.1816 55.8665 16.4877 55.8447C16.7938 55.8228 17.2312 55.9974 17.5373 55.8447H17.253H17.6248C17.6248 55.5828 18.1058 55.561 18.2808 55.3864C17.9309 55.2555 18.1496 55.1027 18.2808 54.9936H18.4338C18.7837 54.9936 17.7778 54.6881 18.4338 54.7753C18.3347 54.2269 18.3347 53.6652 18.4338 53.1168C18.2152 53.1168 18.4338 52.6804 18.0621 52.7676C18.2282 52.7453 18.3823 52.6691 18.5008 52.5508C18.6193 52.4325 18.6957 52.2787 18.7181 52.113C19.3741 51.8947 18.1714 51.6765 18.9805 51.5019C18.4557 51.371 19.2429 51.0218 18.6525 50.7599C18.7607 50.7376 18.8723 50.7376 18.9805 50.7599C18.9805 50.258 19.3741 49.7561 19.4834 49.3415C19.1117 48.8832 19.9208 48.5558 19.3522 48.0757C19.5709 47.8575 19.8989 47.5302 19.7677 47.1155C19.8631 46.9143 19.9126 46.6944 19.9126 46.4718C19.9126 46.2491 19.8631 46.0292 19.7677 45.828C20.4019 45.828 20.3363 45.7189 20.5768 45.6098C20.38 45.2388 20.708 44.7805 20.5768 44.3004C20.8611 44.3004 20.5768 43.9294 20.9923 44.0822C20.9258 43.4037 21.0762 42.7216 21.4218 42.1336C21.7675 41.5456 22.2907 41.0819 22.9165 40.8087C22.9165 40.5468 22.4792 40.1104 22.348 39.7831C22.2168 39.4557 22.8947 39.6303 22.9821 39.4121C22.9925 39.4477 22.9925 39.4855 22.9821 39.5212C22.9821 39.2375 23.5288 39.3902 23.4195 38.9756V38.7574C23.4195 38.7574 23.6819 38.9974 23.5944 39.0193C24.9064 37.6662 25.9123 35.7676 27.771 34.8729V34.8293L28.0115 34.4365C28.0226 34.4794 28.0226 34.5244 28.0115 34.5674C28.5363 34.5674 28.8206 33.9564 29.3235 33.8691V34.1309C29.5203 33.6508 30.0014 34.4146 29.9139 33.6072C29.9372 33.6929 29.9372 33.7833 29.9139 33.8691C30.7789 33.3663 31.7848 33.1594 32.7785 33.2798C32.9538 33.1225 33.165 33.0104 33.3937 32.9533C33.6224 32.8962 33.8617 32.896 34.0905 32.9525C34.5455 33.0397 35.0131 33.0397 35.4681 32.9525V33.0834C36.0691 32.9696 36.691 33.0782 37.2175 33.389C37.786 33.629 38.2889 33.9782 38.8356 34.2182C39.3823 34.4583 39.6228 34.5019 40.0601 34.7856V34.9384C41.1972 34.9384 41.0879 36.4442 42.2468 36.466L42.0282 36.5969C42.3999 36.4005 42.3124 37.0552 42.7279 36.5969V36.8588C43.7556 36.7279 43.2308 37.8845 44.0836 38.1245H43.9306C44.1492 38.1245 44.3679 38.3209 44.346 38.5391C44.3242 38.7574 44.346 38.5391 44.2148 38.5391C44.2148 39.3684 45.0458 39.5212 45.3738 40.1104H45.0895C45.5269 40.1104 45.6143 40.8305 45.9205 41.1142H45.7893H46.0517L45.8111 41.2452C46.0079 41.9653 46.4453 42.2927 46.7077 42.751Z" fill="#202020"/>
    </g>
    <defs>
        <clipPath id="clip0_1_28">
            <rect width="67" height="68" fill="white"/>
        </clipPath>
    </defs>
</svg>
