<svg width="598" height="405" viewBox="0 0 598 405" fill="none" xmlns="http://www.w3.org/2000/svg">
<path d="M121.316 127.28H6.89099C4.44899 127.28 2.46899 125.3 2.46899 122.858C2.46899 120.416 4.44899 118.436 6.89099 118.436H121.317C123.759 118.436 125.739 120.416 125.739 122.858C125.738 125.3 123.759 127.28 121.316 127.28Z" fill="#BF8C45" fill-opacity="0.8"/>
<path d="M332.168 9.054H257.62C255.12 9.054 253.094 7.027 253.094 4.527C253.094 2.027 255.121 0 257.62 0H332.168C334.668 0 336.694 2.027 336.694 4.527C336.695 7.028 334.668 9.054 332.168 9.054Z" fill="#BF8C45" fill-opacity="0.8"/>
<path d="M57.845 185.635H44.69C41.233 185.635 38.431 182.833 38.431 179.376V167.028C38.431 163.572 41.233 160.769 44.69 160.769H57.845C61.301 160.769 64.103 163.571 64.103 167.028V179.376C64.103 182.833 61.301 185.635 57.845 185.635Z" fill="#D6C6AE"/>
<path d="M440.482 404.898H433.305C431.419 404.898 429.89 403.369 429.89 401.483V394.746C429.89 392.86 431.419 391.331 433.305 391.331H440.482C442.368 391.331 443.897 392.86 443.897 394.746V401.483C443.896 403.369 442.368 404.898 440.482 404.898Z" fill="#BF8C45" fill-opacity="0.8"/>
<path d="M569.199 117.202H562.022C560.136 117.202 558.607 115.673 558.607 113.788V107.051C558.607 105.165 560.136 103.636 562.022 103.636H569.199C571.085 103.636 572.614 105.165 572.614 107.051V113.788C572.614 115.674 571.085 117.202 569.199 117.202Z" fill="#D6C6AE"/>
<path d="M67.3709 325.364L31.1319 344.138L41.5729 349.194L28.6069 364.693L38.7239 372.976L51.2469 356.332L59.6419 365.332L67.3709 325.364Z" fill="#FEFEF4"/>
<path d="M193.557 403.469H151.215C148.08 403.469 145.538 400.927 145.538 397.792C145.538 394.657 148.08 392.115 151.215 392.115H193.557C196.692 392.115 199.234 394.657 199.234 397.792C199.234 400.927 196.692 403.469 193.557 403.469Z" fill="#BF8C45" fill-opacity="0.8"/>
<path d="M465.3 363.245H124.293C120.344 363.245 117.142 360.043 117.142 356.094V72.069C117.142 68.119 120.344 64.918 124.293 64.918H465.3C469.249 64.918 472.451 68.12 472.451 72.069V356.093C472.451 360.043 469.249 363.245 465.3 363.245Z" fill="#D6C6AE" fill-opacity="0.6"/>
<path d="M117.142 100.815H472.451" stroke="#FEFEF4" stroke-width="1.9411" stroke-miterlimit="10"/>
<path d="M465.3 363.245H124.293C120.344 363.245 117.142 360.043 117.142 356.094V72.069C117.142 68.119 120.344 64.918 124.293 64.918H465.3C469.249 64.918 472.451 68.12 472.451 72.069V356.093C472.451 360.043 469.249 363.245 465.3 363.245Z" fill="#D6C6AE" fill-opacity="0.1" stroke="#FEFEF4" stroke-width="1.9411" stroke-miterlimit="10"/>
<path d="M147.179 88.2416C149.945 88.2416 152.188 85.999 152.188 83.2326C152.188 80.4662 149.945 78.2236 147.179 78.2236C144.413 78.2236 142.17 80.4662 142.17 83.2326C142.17 85.999 144.413 88.2416 147.179 88.2416Z" fill="#D6C6AE" fill-opacity="0.6" stroke="#FEFEF4" stroke-width="1.9411" stroke-miterlimit="10"/>
<path d="M166.646 88.2416C169.412 88.2416 171.655 85.999 171.655 83.2326C171.655 80.4662 169.412 78.2236 166.646 78.2236C163.88 78.2236 161.637 80.4662 161.637 83.2326C161.637 85.999 163.88 88.2416 166.646 88.2416Z" fill="#D6C6AE" fill-opacity="0.6" stroke="#FEFEF4" stroke-width="1.9411" stroke-miterlimit="10"/>
<path d="M186.114 88.2416C188.88 88.2416 191.123 85.999 191.123 83.2326C191.123 80.4662 188.88 78.2236 186.114 78.2236C183.348 78.2236 181.105 80.4662 181.105 83.2326C181.105 85.999 183.348 88.2416 186.114 88.2416Z" fill="#D6C6AE" fill-opacity="0.6" stroke="#FEFEF4" stroke-width="1.9411" stroke-miterlimit="10"/>
<path d="M190.907 309.479H10.354C4.636 309.479 0 304.844 0 299.125V232.193C0 226.475 4.636 221.839 10.354 221.839H190.907C196.625 221.839 201.261 226.474 201.261 232.193V299.125C201.26 304.844 196.625 309.479 190.907 309.479Z" fill="#D6C6AE"/>
<path d="M24.408 238.112C24.408 240.217 22.702 241.923 20.597 241.923C18.492 241.923 16.786 240.217 16.786 238.112C16.786 236.007 18.492 234.301 20.597 234.301C22.702 234.301 24.408 236.007 24.408 238.112Z" fill="#D6C6AE" stroke="#FEFEF4" stroke-width="1.4768" stroke-miterlimit="10"/>
<path d="M35.408 241.923C37.5128 241.923 39.219 240.217 39.219 238.112C39.219 236.007 37.5128 234.301 35.408 234.301C33.3033 234.301 31.597 236.007 31.597 238.112C31.597 240.217 33.3033 241.923 35.408 241.923Z" fill="#D6C6AE" stroke="#FEFEF4" stroke-width="1.4768" stroke-miterlimit="10"/>
<path d="M50.218 241.923C52.3227 241.923 54.029 240.217 54.029 238.112C54.029 236.007 52.3227 234.301 50.218 234.301C48.1132 234.301 46.407 236.007 46.407 238.112C46.407 240.217 48.1132 241.923 50.218 241.923Z" fill="#D6C6AE" stroke="#FEFEF4" stroke-width="1.4768" stroke-miterlimit="10"/>
<path d="M0 252.538H201.26" stroke="#FEFEF4" stroke-width="1.4768" stroke-miterlimit="10"/>
<path d="M515.392 110.596H434.394C427.634 110.596 422.154 105.116 422.154 98.3563V33.0193C422.154 26.2593 427.634 20.7793 434.394 20.7793H515.392C522.152 20.7793 527.632 26.2593 527.632 33.0193V98.3563C527.632 105.116 522.152 110.596 515.392 110.596Z" fill="#D6C6AE"/>
<path d="M468.236 75.9042C458.186 75.9042 450.009 67.7272 450.009 57.6772C450.009 47.6272 458.186 39.4502 468.236 39.4502C478.286 39.4502 486.463 47.6272 486.463 57.6772C486.463 67.7282 478.287 75.9042 468.236 75.9042ZM468.236 43.5802C460.463 43.5802 454.139 49.9042 454.139 57.6772C454.139 65.4502 460.463 71.7742 468.236 71.7742C476.009 71.7742 482.333 65.4502 482.333 57.6772C482.333 49.9042 476.01 43.5802 468.236 43.5802Z" fill="#FEFEF4"/>
<path d="M481.1 67.6676L478.179 70.5879L483.56 75.9689L486.481 73.0486L481.1 67.6676Z" fill="#FEFEF4"/>
<path d="M489.253 72.2755L499.902 82.9245C501.031 84.0535 501.031 85.8845 499.902 87.0145L497.533 89.3835C496.404 90.5125 494.573 90.5125 493.443 89.3835L482.794 78.7345C481.665 77.6055 481.665 75.7745 482.794 74.6445L485.163 72.2755C486.293 71.1465 488.124 71.1465 489.253 72.2755Z" fill="#FEFEF4"/>
<path d="M86.225 82.4373H39.674C31.869 82.4373 25.542 76.1103 25.542 68.3053V28.8283C25.542 21.0233 31.869 14.6963 39.674 14.6963H86.225C94.03 14.6963 100.357 21.0233 100.357 28.8283V68.3053C100.357 76.1103 94.03 82.4373 86.225 82.4373Z" fill="#BF8C45"/>
<path d="M62.949 63.1599C54.21 63.1599 47.1 56.0499 47.1 47.3109C47.1 38.5719 54.21 31.4619 62.949 31.4619C71.688 31.4619 78.798 38.5719 78.798 47.3109C78.799 56.0509 71.689 63.1599 62.949 63.1599ZM62.949 36.2249C56.836 36.2249 51.863 41.1979 51.863 47.3109C51.863 53.4239 56.836 58.3969 62.949 58.3969C69.062 58.3969 74.035 53.4239 74.035 47.3109C74.035 41.1979 69.062 36.2249 62.949 36.2249Z" fill="#FEFEF4"/>
<path d="M72.2919 36.2246L54.1169 58.3966" stroke="#FEFEF4" stroke-width="4.522" stroke-miterlimit="10"/>
<path d="M584.083 320.756H415.441C408.236 320.756 402.395 314.915 402.395 307.71V181.87C402.395 174.665 408.236 168.824 415.441 168.824H584.083C591.288 168.824 597.129 174.665 597.129 181.87V307.71C597.129 314.915 591.288 320.756 584.083 320.756Z" fill="#BF8C45"/>
<path d="M430.669 261.536V256.512L452.836 221.438H456.481V229.221H454.018L437.269 255.723V256.118H467.121V261.536H430.669ZM454.412 271.881V260.009V257.669V221.438H460.225V271.881H454.412ZM492.804 272.571C489.093 272.571 485.933 271.561 483.322 269.541C480.711 267.505 478.716 264.557 477.337 260.699C475.957 256.824 475.268 252.144 475.268 246.66C475.268 241.208 475.957 236.553 477.337 232.694C478.732 228.819 480.736 225.863 483.346 223.827C485.974 221.775 489.126 220.749 492.804 220.749C496.483 220.749 499.627 221.775 502.238 223.827C504.865 225.863 506.868 228.819 508.248 232.694C509.643 236.553 510.341 241.208 510.341 246.66C510.341 252.144 509.651 256.824 508.272 260.699C506.893 264.557 504.898 267.505 502.287 269.541C499.676 271.561 496.515 272.571 492.804 272.571ZM492.804 267.152C496.483 267.152 499.34 265.378 501.376 261.832C503.412 258.285 504.43 253.228 504.43 246.66C504.43 242.292 503.962 238.573 503.026 235.502C502.106 232.431 500.776 230.092 499.036 228.482C497.312 226.873 495.235 226.069 492.804 226.069C489.159 226.069 486.31 227.867 484.258 231.463C482.205 235.042 481.179 240.108 481.179 246.66C481.179 251.027 481.639 254.738 482.558 257.792C483.478 260.847 484.8 263.17 486.524 264.763C488.264 266.355 490.358 267.152 492.804 267.152ZM518.518 261.536V256.512L540.686 221.438H544.331V229.221H541.868L525.119 255.723V256.118H554.971V261.536H518.518ZM542.262 271.881V260.009V257.669V221.438H548.075V271.881H542.262Z" fill="#FEFEF4"/>
<path d="M422.547 186.859C424.585 186.859 426.238 185.206 426.238 183.168C426.238 181.129 424.585 179.477 422.547 179.477C420.508 179.477 418.856 181.129 418.856 183.168C418.856 185.206 420.508 186.859 422.547 186.859Z" stroke="#FEFEF4" stroke-width="1.4304" stroke-miterlimit="10"/>
<path d="M436.893 186.859C438.931 186.859 440.584 185.206 440.584 183.168C440.584 181.129 438.931 179.477 436.893 179.477C434.854 179.477 433.202 181.129 433.202 183.168C433.202 185.206 434.854 186.859 436.893 186.859Z" stroke="#FEFEF4" stroke-width="1.4304" stroke-miterlimit="10"/>
<path d="M451.239 186.859C453.277 186.859 454.93 185.206 454.93 183.168C454.93 181.129 453.277 179.477 451.239 179.477C449.2 179.477 447.548 181.129 447.548 183.168C447.548 185.206 449.2 186.859 451.239 186.859Z" stroke="#FEFEF4" stroke-width="1.4304" stroke-miterlimit="10"/>
<path d="M402.395 198.562H597.129" stroke="#FEFEF4" stroke-width="1.4304" stroke-miterlimit="10"/>
<path d="M313.363 257.166L312.621 247.133L250.075 250.208V259.89C250.075 259.89 236.007 273.274 230.456 362.316H343.041C343.041 362.316 355.393 283.511 313.363 257.166Z" fill="#FBC48D"/>
<path d="M250.075 259.89L313.363 257.166" stroke="black" stroke-width="1.5516" stroke-miterlimit="10"/>
<path d="M263.007 300.945L275.971 306.224L282.911 362.316" fill="#FBC48D"/>
<path d="M263.007 300.945L275.971 306.224L282.911 362.316" stroke="black" stroke-width="1.5516" stroke-miterlimit="10"/>
<path d="M181.698 237.77L198.977 180.729L236.984 194.977L218.749 249.603C215.013 260.886 202.119 266.21 191.512 260.848C183.055 256.573 178.91 246.827 181.698 237.77Z" fill="#F89660"/>
<path d="M208.353 150.268C211.775 139.149 223.713 133.062 234.723 136.822C245.428 140.478 251.188 152.076 247.633 162.815L236.984 194.979L198.977 180.731L208.353 150.268Z" fill="#FEFEF4"/>
<path d="M211.043 233.49L167.634 151.182C167.634 151.182 168.625 136.31 143.92 135.422L143.926 135.444C143.59 135.428 143.255 135.397 142.918 135.397H134.66C133.125 135.397 131.73 136.477 131.519 137.997C131.275 139.754 132.507 141.268 134.161 141.475L142.491 142.652L131.16 145.676L129.045 146.457L113.615 136.262C112.386 135.386 110.666 135.789 109.956 137.121C109.398 138.166 109.649 139.459 110.559 140.217C111.511 141.011 113.044 142.326 114.714 143.77L111.308 141.73C110.013 140.955 108.331 141.494 107.729 142.879C107.257 143.965 107.61 145.234 108.577 145.918C109.409 146.506 110.48 147.26 111.618 148.06L110.434 147.598C109.137 147.092 107.599 147.458 106.808 148.604C105.732 150.163 106.377 152.279 108.088 152.995L124.949 160.052C127.86 161.271 130.642 162.031 134.065 161.219L149.096 157.676L182.727 251.812L211.043 233.49Z" fill="#F89660"/>
<path d="M193.227 199.711L201.26 214.943" stroke="#DB5749" stroke-width="1.5" stroke-miterlimit="10"/>
<path d="M242.145 135.913L226.009 137.119C226.009 137.119 202.645 168.812 250.075 250.206L312.621 247.131L317.334 159.436L309.613 134.539H281.589L242.145 135.913Z" fill="#FEFEF4"/>
<path d="M223.829 190.046C223.829 190.046 219.175 180.257 222.165 158.571" stroke="#FCE7E4" stroke-width="1.5516" stroke-miterlimit="10"/>
<path d="M369.017 226.319L343.042 172.677L307.727 192.686L334.27 243.794C339.722 254.356 353.289 257.599 362.929 250.646C370.613 245.103 373.184 234.829 369.017 226.319Z" fill="#F89660"/>
<path d="M329.023 144.053C323.906 133.605 311.164 129.457 300.877 134.89C290.874 140.173 286.996 152.528 292.185 162.58L307.727 192.686L343.042 172.677L329.023 144.053Z" fill="#FEFEF4"/>
<path d="M307.726 192.685L294.894 167.828" stroke="#FCE7E4" stroke-width="1.5516" stroke-miterlimit="10"/>
<path d="M423.237 134.548C422.446 133.402 420.909 133.036 419.611 133.542L412.066 136.487L419.153 130.491C420.327 129.498 420.657 127.744 419.769 126.488C418.752 125.05 416.803 124.83 415.506 125.874L408.912 131.184L414.532 123.835C415.466 122.613 415.413 120.829 414.277 119.793C412.976 118.606 411.024 118.808 409.981 120.106L398.884 131.622L387.553 128.598L395.883 127.421C397.536 127.214 398.769 125.7 398.525 123.943C398.314 122.423 396.919 121.343 395.384 121.343H387.126C382.249 121.343 377.487 123.047 373.877 126.286C373.816 126.332 373.761 126.364 373.699 126.413C368.631 130.409 370.475 138.599 370.475 138.599L339.364 226.677L370.197 240.353L387.972 145.768L399.324 145.789C400.028 145.855 400.735 145.851 401.439 145.793H401.525L401.52 145.788C402.74 145.679 403.947 145.391 405.097 144.909L421.958 138.941C423.668 138.223 424.313 136.106 423.237 134.548Z" fill="#F89660"/>
<path d="M351.453 190.046L344.734 213.501" stroke="#DB5749" stroke-width="1.5" stroke-miterlimit="10"/>
<path d="M240.89 63.258C238.946 64.591 225.906 67.981 225.648 70.346C225.648 70.346 229.937 87.116 225.544 90.246C213.665 98.707 209.862 115.295 209.862 115.295C209.862 115.295 241.199 138.76 324.502 114.122C324.502 114.122 325.5 104.143 310.349 96.898C306.024 94.83 302.181 91.714 299.751 87.482C297.869 84.204 297.583 82.813 297.084 79.871C295.689 71.646 272.995 41.233 240.89 63.258Z" fill="black"/>
<path d="M242.121 88.3912C242.504 93.8952 238.353 98.6672 232.849 99.0502C227.345 99.4332 222.573 95.2822 222.19 89.7782C221.807 84.2742 225.958 79.5022 231.462 79.1192C236.966 78.7362 241.738 82.8882 242.121 88.3912Z" fill="#F37A50"/>
<path d="M246.635 112.862L248.016 134.589C248.485 142.219 251.605 147.418 259.112 146.895C265.52 146.449 273.144 141.315 273.496 134.901L269.677 100.815L246.635 112.862Z" fill="#F58858"/>
<path d="M242.145 135.914L281.589 134.541C281.589 134.541 280.63 153.934 257.186 152.118C240.89 150.856 242.145 135.914 242.145 135.914Z" fill="#F58858"/>
<path d="M247.773 130.759L272.984 106.112L246.448 110.637L247.773 130.759Z" fill="#F37A50"/>
<path d="M253.246 116.374C240.41 116.412 229.81 106.304 229.427 95.8228L228.671 71.0878C228.19 57.9508 238.216 46.8008 251.33 45.8878C264.755 44.9538 278.748 54.9158 279.682 68.3408L280.074 88.2408C280.377 103.633 268.603 115.305 253.246 116.374Z" fill="#F89660"/>
<path d="M242.889 87.1152L242.145 93.2572L245.319 93.3732" stroke="black" stroke-width="1.2385" stroke-miterlimit="10" stroke-linecap="round" stroke-linejoin="round"/>
<path d="M255.569 72.1223C255.569 72.1223 248.478 71.5403 248.407 74.4273C248.407 74.4273 248.413 76.3813 254.599 76.7693C260.786 77.1573 262.395 76.7043 262.96 74.8683C263.525 73.0323 258.895 72.1403 255.569 72.1223Z" fill="black"/>
<path d="M235.009 76.3385C235.009 76.3385 240.38 75.9065 240.886 78.5015C240.886 78.5015 241.187 80.2575 236.482 80.5275C231.777 80.7975 230.321 80.2135 230.232 78.7275C230.128 76.9565 232.451 76.3125 235.009 76.3385Z" fill="black"/>
<path d="M238.127 84.7714C238.168 86.0244 237.186 87.0734 235.933 87.1144C234.68 87.1554 233.631 86.1734 233.59 84.9204C233.549 83.6674 234.531 82.6184 235.784 82.5774C237.038 82.5364 238.087 83.5184 238.127 84.7714Z" fill="black"/>
<path d="M257.184 84.1474C257.225 85.4004 256.242 86.4494 254.99 86.4904C253.737 86.5314 252.688 85.5484 252.647 84.2964C252.606 83.0434 253.589 81.9944 254.842 81.9534C256.095 81.9124 257.143 82.8944 257.184 84.1474Z" fill="black"/>
<path d="M250.547 97.6416C250.547 97.6416 247.192 96.1126 243.141 99.6076" stroke="black" stroke-width="1.2385" stroke-miterlimit="10" stroke-linecap="round" stroke-linejoin="round"/>
<path d="M259.275 41.6356C256.074 41.4656 252.848 41.8166 249.75 42.6416C242.062 44.6886 228.256 50.3826 225.89 65.1486C225.102 69.0406 225.648 70.3446 225.648 70.3446C225.648 70.3446 251.432 71.3566 266.676 64.1596C268.871 73.4486 270.898 79.1946 280.074 88.2406L288.219 75.9966L297.389 84.2216C297.449 84.5346 297.438 43.6636 259.275 41.6356Z" fill="black"/>
<path d="M293.451 88.4919C293.834 93.9959 289.683 98.7679 284.179 99.1509C278.675 99.5339 273.903 95.3829 273.52 89.8789C273.137 84.3749 277.288 79.6029 282.792 79.2209C288.296 78.8369 293.068 82.9879 293.451 88.4919Z" fill="#F89660"/>
<path d="M279.672 92.0399C279.672 92.0399 279.169 84.8149 286.157 85.4719Z" fill="#F37A50"/>
<path d="M279.672 92.0399C279.672 92.0399 279.169 84.8149 286.157 85.4719" stroke="black" stroke-width="1.2385" stroke-miterlimit="10" stroke-linecap="round" stroke-linejoin="round"/>
</svg>
