<svg width="303" height="99" viewBox="0 0 303 99" fill="none" xmlns="http://www.w3.org/2000/svg">
<path d="M100.453 40.0501L139.811 42.9254L153.174 74.297L250.227 3.84478L100.453 40.0501Z" fill="#CF822A"/>
<path d="M168.543 48.2772L230.53 56.445L250.227 3.84486L168.543 48.2772Z" fill="#CF822A" fill-opacity="0.78"/>
<path d="M139.811 42.9255L152.307 72.2536L153.174 74.2971L168.543 48.2772L250.227 3.84491L139.811 42.9255Z" fill="#BF7828"/>
<path d="M19.3189 95.5133C20.7834 96.5258 21.7621 97.0974 21.8047 97.1204L23.226 96.5395C23.2167 96.5342 22.2376 95.9618 20.8045 94.9723L19.3189 95.5133ZM11.6279 69.6948L13.0622 70.0107C13.8758 69.3758 14.8091 68.7505 15.834 68.152L14.5766 67.7198C13.4876 68.3543 12.4967 69.0195 11.6279 69.6948ZM26.0741 62.9688L26.7971 63.6283C28.1171 63.2275 29.5231 62.8365 30.9812 62.4648L30.3994 61.7657C28.8955 62.1501 27.4416 62.554 26.0741 62.9688ZM18.0548 65.9325L19.122 66.4625C20.26 65.9447 21.5026 65.4384 22.8133 64.9563L21.9227 64.3522C20.5532 64.8574 19.2483 65.3894 18.0548 65.9325ZM16.4645 91.6396L14.9161 92.1293C15.6411 92.7505 16.3559 93.3265 17.0356 93.8482L18.5543 93.334C17.8842 92.8186 17.1805 92.2514 16.4645 91.6396ZM12.8244 88.0954L11.213 88.5239C11.7757 89.1596 12.3673 89.7708 12.9687 90.3551L14.5486 89.8935C13.9595 89.3208 13.3793 88.7195 12.8244 88.0954ZM35.3023 61.4466C36.7082 61.1407 38.1793 60.8436 39.718 60.5558L39.3605 59.8066C37.7871 60.1019 36.2808 60.4057 34.8442 60.7183L35.3023 61.4466ZM8.45693 80.3514L6.73761 80.5821C6.88216 81.2632 7.09912 81.9637 7.38182 82.6649L9.07963 82.3702C8.80287 81.6909 8.59391 81.0119 8.45693 80.3514ZM10.9021 72.0027L9.33028 71.8146C8.69395 72.5233 8.15656 73.2643 7.73301 74.0171L9.39738 74.0778C9.79825 73.3673 10.3042 72.6691 10.9021 72.0027ZM10.0538 84.3361L8.37887 84.6835C8.74482 85.318 9.17948 85.9737 9.67128 86.6356L11.3135 86.2433C10.8333 85.5962 10.4077 84.9549 10.0538 84.3361ZM8.53438 76.1834L6.8237 76.2384C6.63389 76.9563 6.53275 77.6945 6.52274 78.4346L8.24694 78.2851C8.25604 77.5761 8.35212 76.8699 8.53438 76.1834ZM108.403 53.9853C110.038 53.7764 111.575 53.56 113.019 53.3389L112.783 52.5699C111.37 52.7861 109.865 52.9976 108.262 53.2025L108.403 53.9853ZM117.259 51.8157L117.606 52.5659C119.189 52.2727 120.713 51.9586 122.139 51.633L121.645 50.9135C120.268 51.2289 118.791 51.5322 117.259 51.8157ZM125.857 49.8246L126.551 50.4928C128.099 50.0401 129.503 49.5614 130.721 49.0728L129.756 48.4976C128.622 48.9535 127.313 49.3994 125.857 49.8246ZM99.1433 54.9831C100.687 54.8443 102.231 54.6923 103.773 54.5272L103.707 53.7354C102.256 53.8906 100.733 54.0415 99.1415 54.1852L99.1433 54.9831ZM44.1954 59.7753C45.6484 59.5396 47.1544 59.3109 48.7143 59.0912L48.5221 58.315C46.9332 58.5402 45.404 58.7722 43.9257 59.0117L44.1954 59.7753ZM134.029 46.012C134.028 46.0152 133.803 46.3466 132.995 46.8803L134.336 47.2617C135.303 46.6212 135.617 46.1921 135.669 46.1123L134.029 46.012ZM62.3972 57.5021C63.8845 57.362 65.4086 57.228 66.9735 57.0993L67.0025 56.2996C65.4242 56.4288 63.8832 56.565 62.3809 56.7069L62.3972 57.5021ZM53.2576 58.4914C54.7335 58.3084 56.2619 58.1316 57.8223 57.9647L57.7557 57.173C56.1706 57.3445 54.6247 57.5226 53.1334 57.7065L53.2576 58.4914ZM71.552 56.748C73.0459 56.6407 74.57 56.5396 76.1279 56.4433L76.2328 55.6373C74.6616 55.7342 73.1252 55.8375 71.6221 55.9446L71.552 56.748ZM80.8412 55.3725L80.7051 56.1793C81.6555 56.129 82.616 56.0807 83.5881 56.0333L85.2889 55.9481L85.425 55.1413L83.7421 55.2261C82.7654 55.2734 81.7962 55.3223 80.8412 55.3725ZM89.8982 55.6851C91.4926 55.5849 93.0298 55.4784 94.517 55.3663L94.5721 54.5647C93.0978 54.6754 91.5738 54.7814 89.9969 54.8803L89.8982 55.6851Z" fill="#1E1E1E"/>
<g filter="url(#filter0_d_172_115)">
<path d="M169.094 26.292C169.387 26.292 169.747 26.3067 170.172 26.336C170.612 26.3653 171.059 26.4093 171.514 26.468C171.983 26.512 172.387 26.5633 172.724 26.622C173.076 26.666 173.318 26.7173 173.45 26.776L173.186 29.746H172.966C172.966 28.9833 172.68 28.3747 172.108 27.92C171.551 27.4507 170.803 27.216 169.864 27.216C169.013 27.216 168.324 27.4213 167.796 27.832C167.283 28.2427 167.011 28.7413 166.982 29.328C166.967 29.768 167.107 30.1493 167.4 30.472C167.693 30.7947 168.067 31.0953 168.522 31.374L172.724 34.102C173.399 34.4833 173.905 34.982 174.242 35.598C174.594 36.214 174.748 36.9327 174.704 37.754C174.631 39.1913 174.081 40.3133 173.054 41.12C172.027 41.912 170.634 42.308 168.874 42.308C168.229 42.308 167.598 42.2493 166.982 42.132C166.381 42.0293 165.845 41.8827 165.376 41.692C164.907 41.4867 164.533 41.2447 164.254 40.966C164.137 40.6433 164.085 40.2547 164.1 39.8C164.115 39.3453 164.181 38.8833 164.298 38.414C164.43 37.9447 164.591 37.556 164.782 37.248H164.98C164.921 37.996 165.053 38.6927 165.376 39.338C165.713 39.9687 166.197 40.4747 166.828 40.856C167.473 41.2227 168.236 41.3987 169.116 41.384C170.084 41.3693 170.832 41.1273 171.36 40.658C171.888 40.174 172.152 39.5947 172.152 38.92C172.152 38.4653 172.013 38.0547 171.734 37.688C171.47 37.3213 171.03 36.9693 170.414 36.632L166.564 34.08C165.787 33.64 165.222 33.0753 164.87 32.386C164.518 31.6967 164.379 30.9487 164.452 30.142C164.525 29.3793 164.753 28.712 165.134 28.14C165.515 27.5533 166.036 27.0987 166.696 26.776C167.371 26.4533 168.17 26.292 169.094 26.292ZM173.472 26.512L173.428 26.974H170.832V26.512H173.472ZM181.484 28.8V42H178.316V28.8H181.484ZM186.632 41.12L187.138 42H181.44V41.12H186.632ZM185.884 35.026V35.906H181.44V35.026H185.884ZM186.874 28.8V29.68H181.44V28.8H186.874ZM188.04 37.952L187.204 42H183.398L184.08 41.12C184.711 41.12 185.268 40.9953 185.752 40.746C186.251 40.482 186.676 40.1153 187.028 39.646C187.38 39.162 187.652 38.5973 187.842 37.952H188.04ZM185.884 35.862V37.798H185.664V37.622C185.664 37.138 185.51 36.7347 185.202 36.412C184.909 36.0893 184.506 35.9207 183.992 35.906V35.862H185.884ZM185.884 33.134V35.07H183.992V35.026C184.506 35.0113 184.909 34.8427 185.202 34.52C185.51 34.1827 185.664 33.772 185.664 33.288V33.134H185.884ZM186.874 29.636V31.968H186.654V31.77C186.654 31.1247 186.478 30.6187 186.126 30.252C185.789 29.8853 185.298 29.6947 184.652 29.68V29.636H186.874ZM186.874 28.47V28.998L184.564 28.8C184.99 28.8 185.437 28.7633 185.906 28.69C186.376 28.602 186.698 28.5287 186.874 28.47ZM178.36 40.614L178.47 42H176.842V41.78C176.842 41.78 176.886 41.78 176.974 41.78C177.062 41.78 177.114 41.78 177.128 41.78C177.451 41.78 177.722 41.67 177.942 41.45C178.177 41.2153 178.302 40.9367 178.316 40.614H178.36ZM178.36 30.186H178.316C178.302 29.8487 178.177 29.57 177.942 29.35C177.722 29.13 177.451 29.02 177.128 29.02C177.114 29.02 177.062 29.02 176.974 29.02C176.886 29.02 176.842 29.02 176.842 29.02V28.8H178.47L178.36 30.186ZM190.954 28.492L203.868 39.844L204.088 42.286L191.196 30.934L190.954 28.492ZM191.042 40.658V42H189.414V41.78C189.414 41.78 189.473 41.78 189.59 41.78C189.708 41.78 189.766 41.78 189.766 41.78C190.104 41.78 190.39 41.6773 190.624 41.472C190.859 41.252 190.976 40.9807 190.976 40.658H191.042ZM193.99 40.658C194.005 40.9807 194.13 41.252 194.364 41.472C194.599 41.6773 194.878 41.78 195.2 41.78C195.2 41.78 195.259 41.78 195.376 41.78C195.508 41.78 195.574 41.78 195.574 41.78V42H193.946V40.658H193.99ZM190.954 28.492L193.99 31.792V42H190.976V31C190.976 30.252 190.94 29.6507 190.866 29.196C190.793 28.7267 190.756 28.492 190.756 28.492H190.954ZM204.066 28.8V39.712C204.066 40.2253 204.081 40.68 204.11 41.076C204.154 41.4573 204.191 41.758 204.22 41.978C204.264 42.1833 204.286 42.286 204.286 42.286H204.088L201.052 38.788V28.8H204.066ZM204 30.142V28.8H205.65V29.02C205.65 29.02 205.584 29.02 205.452 29.02C205.335 29.02 205.276 29.02 205.276 29.02C204.954 29.02 204.668 29.13 204.418 29.35C204.184 29.5553 204.066 29.8193 204.066 30.142H204ZM201.052 30.142C201.038 29.8193 200.913 29.5553 200.678 29.35C200.458 29.13 200.18 29.02 199.842 29.02C199.842 29.02 199.776 29.02 199.644 29.02C199.527 29.02 199.468 29.02 199.468 29.02V28.8H201.096V30.142H201.052ZM214.699 28.8C216.268 28.8 217.617 29.064 218.747 29.592C219.876 30.1053 220.741 30.8607 221.343 31.858C221.944 32.8407 222.245 34.0213 222.245 35.4C222.245 36.7787 221.944 37.9593 221.343 38.942C220.741 39.9247 219.876 40.68 218.747 41.208C217.617 41.736 216.268 42 214.699 42H209.815L209.771 41.12C210.885 41.12 211.78 41.12 212.455 41.12C213.144 41.12 213.643 41.12 213.951 41.12C214.273 41.12 214.435 41.12 214.435 41.12C215.813 41.12 216.899 40.614 217.691 39.602C218.483 38.59 218.879 37.1893 218.879 35.4C218.879 33.6107 218.483 32.21 217.691 31.198C216.899 30.1713 215.813 29.658 214.435 29.658C214.435 29.658 214.273 29.658 213.951 29.658C213.628 29.658 213.107 29.658 212.389 29.658C211.67 29.658 210.724 29.658 209.551 29.658V28.8H214.699ZM211.949 28.8V42H208.781V28.8H211.949ZM208.847 40.592V42H207.263V41.78C207.263 41.78 207.307 41.78 207.395 41.78C207.483 41.78 207.534 41.78 207.549 41.78C207.886 41.78 208.172 41.6627 208.407 41.428C208.656 41.1933 208.781 40.9147 208.781 40.592H208.847ZM208.825 30.186H208.781C208.766 29.8487 208.634 29.57 208.385 29.35C208.15 29.13 207.864 29.02 207.527 29.02C207.527 29.02 207.483 29.02 207.395 29.02C207.307 29.02 207.263 29.02 207.263 29.02V28.8H208.825V30.186ZM226.36 42.22C225.92 42.22 225.546 42.066 225.238 41.758C224.93 41.45 224.776 41.076 224.776 40.636C224.776 40.1813 224.93 39.8 225.238 39.492C225.546 39.184 225.92 39.03 226.36 39.03C226.814 39.03 227.196 39.184 227.504 39.492C227.812 39.8 227.966 40.1813 227.966 40.636C227.966 41.076 227.812 41.45 227.504 41.758C227.196 42.066 226.814 42.22 226.36 42.22ZM226.888 37.468H225.876L225.106 33.662L224.71 26.556H228.098L227.68 33.662L226.888 37.468Z" fill="white"/>
</g>
<defs>
<filter id="filter0_d_172_115" x="160.078" y="26.292" width="72.02" height="24.0161" filterUnits="userSpaceOnUse" color-interpolation-filters="sRGB">
<feFlood flood-opacity="0" result="BackgroundImageFix"/>
<feColorMatrix in="SourceAlpha" type="matrix" values="0 0 0 0 0 0 0 0 0 0 0 0 0 0 0 0 0 0 127 0" result="hardAlpha"/>
<feOffset dy="4"/>
<feGaussianBlur stdDeviation="2"/>
<feComposite in2="hardAlpha" operator="out"/>
<feColorMatrix type="matrix" values="0 0 0 0 0 0 0 0 0 0 0 0 0 0 0 0 0 0 0.25 0"/>
<feBlend mode="normal" in2="BackgroundImageFix" result="effect1_dropShadow_172_115"/>
<feBlend mode="normal" in="SourceGraphic" in2="effect1_dropShadow_172_115" result="shape"/>
</filter>
</defs>
</svg>
