<svg width="20" height="44" viewBox="0 0 20 44" fill="none" xmlns="http://www.w3.org/2000/svg">
<g clip-path="url(#clip0_489_189)">
<path d="M9.8486 23.498C9.61527 23.0074 9.45694 22.4596 9.38527 21.8876C9.39125 21.3303 9.55678 20.7966 9.8486 20.3938L19.0436 7.78342C19.6551 6.92428 19.9969 5.79089 20 4.61206C20.0031 3.43323 19.6672 2.29675 19.0603 1.43202L19.0136 1.36382C18.7091 0.934372 18.3412 0.59174 17.9327 0.357024C17.5241 0.122309 17.0834 0.000479073 16.6378 -0.000963598C16.1922 -0.00240627 15.7511 0.116569 15.3416 0.348636C14.9322 0.580703 14.563 0.920949 14.2569 1.34842L0.478603 20.297C0.17527 20.7304 0.00360489 21.298 0.000270844 21.8876C0.0736065 22.4918 0.236126 23.0711 0.478603 23.5926L14.2569 42.6556C14.5636 43.0824 14.9332 43.4218 15.3429 43.6529C15.7527 43.884 16.194 44.002 16.6396 43.9995C17.0852 43.9971 17.5257 43.8742 17.934 43.6385C18.3423 43.4029 18.7097 43.0594 19.0136 42.6292L19.0603 42.55C19.6673 41.6796 20.0028 40.5387 19.9997 39.3557C19.9966 38.1727 19.6551 37.0349 19.0436 36.17L9.8486 23.498Z" fill="#BF7828"/>
</g>
<defs>
<clipPath id="clip0_489_189">
<rect width="20" height="44" fill="white" transform="matrix(-1 0 0 1 20 0)"/>
</clipPath>
</defs>
</svg>
