<svg width="20" height="44" viewBox="0 0 20 44" fill="none" xmlns="http://www.w3.org/2000/svg">
<g clip-path="url(#clip0_489_186)">
<path d="M10.1514 23.498C10.3847 23.0074 10.5431 22.4596 10.6147 21.8876C10.6088 21.3303 10.4432 20.7966 10.1514 20.3938L0.956397 7.78342C0.344905 6.92428 0.00311455 5.79089 2.11811e-05 4.61206C-0.00307218 3.43323 0.332761 2.29675 0.93973 1.43202L0.986397 1.36382C1.29089 0.934372 1.65876 0.59174 2.06735 0.357024C2.47594 0.122309 2.9166 0.000479073 3.36221 -0.000963598C3.80781 -0.00240627 4.24892 0.116569 4.65838 0.348636C5.06784 0.580703 5.43698 0.920949 5.74306 1.34842L19.5214 20.297C19.8247 20.7304 19.9964 21.298 19.9997 21.8876C19.9264 22.4918 19.7639 23.0711 19.5214 23.5926L5.74306 42.6556C5.43641 43.0824 5.06682 43.4218 4.65705 43.6529C4.24728 43.884 3.80601 44.002 3.36041 43.9995C2.9148 43.9971 2.4743 43.8742 2.06602 43.6385C1.65773 43.4029 1.29032 43.0594 0.986397 42.6292L0.93973 42.55C0.332746 41.6796 -0.00278565 40.5387 0.000304772 39.3557C0.0033952 38.1727 0.34488 37.0349 0.956397 36.17L10.1514 23.498Z" fill="#BF7828"/>
</g>
<defs>
<clipPath id="clip0_489_186">
<rect width="20" height="44" fill="white"/>
</clipPath>
</defs>
</svg>
