<svg width="192" height="192" viewBox="0 0 192 192" fill="none" xmlns="http://www.w3.org/2000/svg">
<path d="M96.0005 191.145C148.548 191.145 191.145 148.547 191.145 96C191.145 43.4529 148.548 0.85498 96.0005 0.85498C43.4533 0.85498 0.855469 43.4529 0.855469 96C0.855469 148.547 43.4533 191.145 96.0005 191.145Z" fill="#FDEDE1"/>
<mask id="mask0_489_314" style="mask-type:luminance" maskUnits="userSpaceOnUse" x="0" y="0" width="192" height="192">
<path d="M96.0005 191.145C148.548 191.145 191.145 148.547 191.145 96C191.145 43.4529 148.548 0.85498 96.0005 0.85498C43.4533 0.85498 0.855469 43.4529 0.855469 96C0.855469 148.547 43.4533 191.145 96.0005 191.145Z" fill="white"/>
</mask>
<g mask="url(#mask0_489_314)">
<path d="M28.0984 76.506C85.8894 85.251 202.799 76.7625 202.799 76.7625L187.307 196.786L-14.1406 188.029C-14.1406 188.029 -5.59012 104.714 -3.34012 74.589C4.34288 75.7915 20.5949 75.3705 28.0984 76.506Z" fill="#A9B2CD"/>
<path d="M-10.126 124.84C53.125 146.886 121.115 149.772 185.911 165.381L198.849 168.733L185.851 165.64C120.871 151.028 52.7565 148.124 -10.126 124.84Z" fill="#20211E"/>
<path d="M-68.626 141.34C-28.3605 155.004 13.847 161.566 55.661 168.598C97.0245 175.53 140.366 181.471 180.849 192.233C129.228 179.66 76.2945 173.808 24.0915 164.207C-7.22148 158.5 -38.6425 152.231 -68.626 141.34Z" fill="#20211E"/>
<path d="M88.7888 146.839C80.3878 152.069 70.1433 152.355 60.7403 154.469C48.3633 157.265 40.3748 162.792 37.6413 175.71C36.6283 180.467 36.3403 185.326 36.0753 190.18C36.0433 186.929 36.0888 183.678 36.3638 180.434C38.0383 159.163 51.3363 154.331 70.1698 151.964C76.5598 151.038 83.0498 149.943 88.7888 146.839Z" fill="#20211E"/>
<path d="M205.889 111.838C186.541 111.625 167.171 113.499 147.95 117.587C146.862 117.818 145.82 118.229 144.865 118.801C137.221 123.373 126.472 132.328 122.01 136.575C111.723 146.365 106.662 149.138 100.57 159.552C99.2026 161.889 96.6131 164.583 96.8591 169.521C107.114 170.904 117.685 172.394 126.579 177.683C130.903 180.254 134.992 183.771 139.999 184.245C144.107 184.634 148.079 182.879 151.832 181.164C156.731 178.925 161.685 176.653 165.903 173.302C170.653 169.528 174.27 164.545 178.466 160.164C182.621 155.826 187.355 152.068 191.45 147.673C198.809 139.777 203.886 130.077 208.874 120.505C209.624 119.067 210.395 117.515 210.197 115.906C209.998 114.296 208.524 111.868 205.889 111.838Z" fill="#F4D1BF"/>
<path d="M209.138 113.536C194.478 127.781 178.351 141.22 164.422 156.169C156.099 165.286 148.929 175.525 139.689 183.788C141.148 182.33 142.577 180.847 143.962 179.323C150.886 171.675 156.829 163.219 163.748 155.558C172.026 146.335 181.348 138.118 190.562 129.874C195.96 125.086 203.726 118.183 209.138 113.536Z" fill="#20211E"/>
<path d="M157.943 163.279C150.74 160.213 143.283 157.984 135.583 156.576C143.446 156.594 151.365 158.974 157.943 163.279Z" fill="#20211E"/>
<path d="M175.882 142.765C169.311 138.464 161.953 135.611 154.204 134.34C162.116 134.201 170.138 137.324 175.882 142.765Z" fill="#20211E"/>
<path d="M196.304 124.642C192.844 121.137 188.149 119.161 183.225 119.122C188.096 117.668 193.945 120.142 196.304 124.642Z" fill="#20211E"/>
<path d="M188.768 132.156C191.112 133.472 193.101 135.388 194.49 137.691C192.142 136.379 190.161 134.455 188.768 132.156Z" fill="#20211E"/>
<path d="M171.301 147.864C174.874 148.704 178.122 151.113 179.95 154.297C177.091 152.063 174.266 149.956 171.301 147.864Z" fill="#20211E"/>
<path d="M154.528 167.275C156.165 167.642 157.599 168.703 158.418 170.169C156.778 169.806 155.351 168.737 154.528 167.275Z" fill="#20211E"/>
<path d="M132.504 91.6574C141.125 92.9889 149.901 93.1099 158.512 91.7434C165.026 90.8959 171.19 88.3454 177.747 87.7274C179.942 87.5514 182.176 87.6544 184.299 88.1994C182.133 87.8779 179.945 87.8789 177.8 88.2149C171.319 89.2049 165.191 91.8644 158.666 92.7309C149.984 94.0744 141.032 93.7769 132.504 91.6574Z" fill="#20211E"/>
<path d="M-34.2118 100.954C-19.1503 102.666 -4.08829 104.379 10.9732 106.091C18.1737 106.909 25.8172 107.66 32.4387 104.688C34.0067 107.147 34.5377 110.14 34.5612 113.055C34.5847 115.971 34.1367 118.868 33.9027 121.774C33.3927 128.1 33.9032 134.506 35.4077 140.671C36.6062 145.58 38.4282 150.76 37.1392 155.389C12.9422 150.114 -12.5908 158.91 -36.8838 154.093C-35.6868 154.019 -34.6863 153.07 -34.1953 151.976C-33.7043 150.882 -33.6258 149.654 -33.5548 148.457C-33.2613 143.525 -32.9683 138.591 -32.6748 133.659C-32.0283 122.79 -31.4498 111.488 -35.5983 101.422C-35.2803 101.323 -35.0063 100.863 -34.2118 100.954Z" fill="#F4D1BF"/>
<path d="M33.3831 121.83C30.9211 117.127 27.4736 113.119 23.2021 109.969C28.2321 111.9 32.2316 116.568 33.3831 121.83Z" fill="#20211E"/>
<path d="M36.0883 145.004C33.0333 142.795 30.0213 140.692 26.9043 138.573C30.6153 139.426 34.0128 141.812 36.0883 145.004Z" fill="#20211E"/>
</g>
<mask id="mask1_489_314" style="mask-type:luminance" maskUnits="userSpaceOnUse" x="0" y="0" width="192" height="192">
<path d="M96.0005 191.145C148.548 191.145 191.145 148.547 191.145 96C191.145 43.4529 148.548 0.85498 96.0005 0.85498C43.4533 0.85498 0.855469 43.4529 0.855469 96C0.855469 148.547 43.4533 191.145 96.0005 191.145Z" fill="white"/>
</mask>
<g mask="url(#mask1_489_314)">
<path d="M7.41886 152.265C3.44836 152.191 0.220858 148.219 -3.72664 148.645C-5.89664 148.879 -7.66314 150.408 -9.69564 151.186C-10.8101 151.612 -12.0001 151.809 -13.1526 152.124C-14.3056 152.438 -15.4601 152.893 -16.2991 153.726C-17.1386 154.558 -17.5961 155.84 -17.1676 156.931C-16.7386 158.021 -15.2591 158.679 -14.2461 158.057C-14.6051 158.218 -14.5056 158.799 -14.1636 158.992C-13.8211 159.184 -13.3931 159.11 -13.0076 159.027C-6.36364 157.604 0.110355 155.427 7.41886 152.265Z" fill="#AA4B30"/>
<path d="M2.37484 154.028C-11.9442 160.024 -28.3797 158.877 -42.9467 164.242C-43.6967 164.518 -44.4747 164.835 -44.9842 165.451C-45.4937 166.067 -45.6212 167.074 -45.3522 167.525C-46.7677 167.977 -48.0957 168.701 -49.2432 169.644C-49.2927 170.327 -48.8137 171.011 -48.1557 171.198C-48.7217 171.3 -49.2982 171.427 -49.7847 171.734C-50.2712 172.041 -50.6577 172.565 -50.6497 173.141C-50.6417 173.716 -50.1347 174.282 -49.5627 174.223C-50.7032 174.242 -51.6757 175.427 -51.4717 176.549C-51.2677 177.671 -49.9407 178.438 -48.9772 178.647C-50.0592 178.578 -51.1592 179.139 -51.7377 180.056C-52.3167 180.972 -52.3502 182.207 -51.8227 183.154C-50.8202 184.952 -48.3737 185.258 -46.3212 185.1C-42.9167 184.837 -39.6027 183.893 -36.3652 182.808C-30.8497 180.961 -25.4837 178.698 -20.1247 176.438C-16.3142 174.83 -12.5032 173.223 -8.69266 171.616C-6.42666 170.66 -4.16066 169.704 -1.89716 168.742C1.26934 167.396 4.61934 166.008 8.03434 166.432C6.65384 162.236 4.85934 158.176 2.37484 154.028Z" fill="#AA4B30"/>
<path d="M-15.3779 159.046C-9.25193 157.4 -3.20593 155.686 2.87707 153.886C-2.68743 156.973 -9.02143 158.758 -15.3779 159.046Z" fill="#20211E"/>
<path d="M67.5472 122.447C77.8147 126.73 88.0827 131.012 98.4927 135.672C99.5987 135.423 100.414 136.359 100.414 136.359C100.414 136.359 99.8177 140.123 99.4802 141.205C98.5907 144.057 98.7107 146.573 98.2437 149.609C105.26 153.523 110.138 157.315 111.699 161.086C113.638 165.77 113.27 171.3 111.4 176.036C110.713 177.777 109.176 179.046 107.342 179.416C78.6932 185.201 53.1507 180.675 26.4262 167.36C21.3237 167.185 11.1512 167.852 5.86321 169.192C3.40871 164.714 1.77721 159.788 1.95571 153.956C12.3107 150.109 23.6752 144.243 34.5302 140.154C35.5472 135.44 35.6542 132.537 38.7822 128.863C41.7222 125.409 45.9127 123.23 50.4247 122.765C55.2952 122.264 60.8172 119.641 67.5472 122.447Z" fill="#BFE3D6"/>
<path d="M21.6943 167.532C30.7698 167.257 39.8218 166.436 48.8068 165.163C60.0013 163.537 71.1938 161.387 81.7443 157.275C88.8448 154.547 92.6083 149.579 90.1263 141.912C87.2428 134.084 78.0803 127.379 70.6503 124.055C79.7483 127.602 93.4773 137.417 91.5288 148.569C90.1823 156.024 81.8828 158.399 75.6548 160.461C58.1888 165.599 39.8623 167.615 21.6943 167.532Z" fill="#20211E"/>
<path d="M69.2036 139.211C66.3411 136.799 63.2111 134.948 59.7256 133.585C63.5511 133.556 67.3941 135.843 69.2036 139.211Z" fill="#20211E"/>
<path d="M72.1749 136.701C67.5244 134.953 62.7614 133.864 57.8154 133.401C62.7474 132.451 68.1504 133.698 72.1749 136.701Z" fill="#20211E"/>
<path d="M74.5362 133.831C69.3447 133.263 64.2127 132.929 58.9922 132.803C64.0917 131.54 69.6467 131.913 74.5362 133.831Z" fill="#20211E"/>
<path d="M73.0949 130.397C68.7174 130.882 64.4004 131.77 60.1304 132.827C51.8949 133.8 43.8404 136.07 36.2224 139.337C35.7179 139.566 35.2034 139.778 34.6934 140C35.1749 139.723 35.6519 139.435 36.1389 139.165L37.6139 138.382C44.5639 134.808 52.2439 132.65 60.0209 131.938C64.0209 131.041 68.7699 130.35 73.0949 130.397Z" fill="#20211E"/>
<path d="M98.245 149.792C96.4795 150.086 94.3435 150.149 92.5625 150.269C91.931 150.302 91.297 150.332 90.624 150.317C91.735 149.57 93.061 149.263 94.374 149.163C95.6905 149.087 97.0315 149.238 98.245 149.792Z" fill="#20211E"/>
<path d="M99.4441 140.519C85.6846 130.811 70.2136 123.655 53.7656 119.947C70.5196 122.286 86.4966 129.68 99.4441 140.519Z" fill="#20211E"/>
<path d="M98.3577 148.407C95.5592 146.559 94.1377 143.229 93.4942 140.042C93.2727 138.962 93.1407 137.871 93.0547 136.779C93.0427 136.644 93.0892 136.514 93.1722 136.42C93.6572 135.867 94.0642 135.277 94.1227 134.669C94.1837 134.121 93.7707 133.442 93.2732 133.423L93.6347 132.933C93.8287 133.62 93.6982 134.339 93.3747 134.915C93.0577 135.497 92.5227 135.959 91.8967 136.143L91.9617 135.865C92.3282 136.32 92.8257 136.691 93.4007 136.917C92.7892 136.822 92.1922 136.537 91.7132 136.1C91.6187 136.016 91.6602 135.858 91.7782 135.822C92.7847 135.353 93.2607 134.08 92.9167 133.159C92.8212 132.919 93.0232 132.653 93.2782 132.669C94.9527 132.7 95.4267 134.831 94.6432 136.031C94.4317 136.416 94.1742 136.75 93.9107 137.059L94.0282 136.699C94.4382 140.876 95.3167 145.3 98.3577 148.407Z" fill="#20211E"/>
<path d="M115.499 47.2925C117.674 47.257 119.08 44.2265 117.696 42.5575C119.361 41.851 120.036 39.494 118.995 38.022C120.269 37.9085 121.392 36.836 121.559 35.574C121.725 34.312 120.918 32.989 119.716 32.554C120.8 32.0315 121.494 30.799 121.373 29.606C121.252 28.4135 120.326 27.344 119.158 27.0485C119.608 25.006 117.964 22.763 115.872 22.5645C115.223 20.35 112.777 18.8175 110.489 19.192C109.66 17.1115 106.818 16.1275 104.868 17.246C103.299 15.7585 100.527 15.7935 98.9944 17.3195C97.7679 16.618 96.3424 15.9165 94.9969 16.352C93.6514 16.788 93.0839 19.011 94.3939 19.5425C92.6984 17.719 89.2049 18.1855 88.0514 20.39C87.1459 19.6865 85.6889 19.8395 84.9504 20.716C84.2119 21.5925 84.3144 23.0465 85.1684 23.8105C84.1874 23.175 82.6994 23.535 82.1204 24.548C81.5414 25.561 81.9914 27.0165 83.0424 27.53C82.2769 27.0515 81.1899 27.161 80.5354 27.7825C79.8814 28.4045 79.7218 29.48 80.1679 30.2625C79.1153 29.886 77.8124 30.502 77.4404 31.552C77.0684 32.602 77.6959 33.8935 78.7539 34.256C77.4189 34.062 76.0094 34.968 75.6379 36.2585C75.2664 37.549 75.9799 39.0585 77.2159 39.5965C75.9699 39.446 74.6764 40.2875 74.3154 41.4835C73.9544 42.6795 74.5684 44.09 75.6919 44.646C74.5249 45.1975 73.7659 46.5055 73.8699 47.7865C73.9739 49.0675 74.9339 50.236 76.1749 50.593C75.1844 50.675 74.7684 52.043 75.2339 52.917C75.6989 53.791 76.6679 54.2555 77.5734 54.663C78.9654 55.2895 80.3844 55.924 81.9014 56.11C83.4179 56.2965 85.0759 55.9695 86.1599 54.897C87.2864 57.3685 91.3184 57.744 92.8894 55.5235C94.5074 57.615 98.3263 57.285 99.5608 54.9475C99.8128 56.2685 101.397 57.157 102.664 56.688C103.931 56.2185 104.547 54.5155 103.871 53.3515C105.061 54.286 106.364 55.264 107.88 55.3175C109.396 55.371 111.027 53.9825 110.593 52.5365C111.78 52.903 113.173 52.478 113.95 51.5125C114.728 50.5475 114.841 49.1025 115.499 47.2925Z" fill="#20211E"/>
<path d="M104.395 58.9465C102.634 65.3535 100.712 68.1055 102.696 69.779C105.238 71.2355 110.359 74.57 110.359 74.57L106.579 78.172C96.9396 87.356 81.0251 83.8035 76.2741 71.366C75.1401 68.3965 74.3731 65.9565 74.3066 64.652C77.2201 65.329 83.6821 53.838 83.3641 53.1555C87.8441 56.557 98.2996 58.9445 104.395 58.9465Z" fill="#AA4B30"/>
<path d="M75.0217 64.5835C78.4782 68.247 83.4172 70.4695 88.4517 70.6275C93.4862 70.785 98.5547 68.876 102.349 64.933C104.53 65.143 106.69 65.5825 109.18 66.2525C112.075 68.759 115.007 71.3065 117.141 74.486C119.276 77.666 120.554 81.61 120.327 86.378C114.767 103.357 108.29 120.037 100.41 136.933C85.3902 129.683 69.7112 123.798 53.6377 119.292C54.0317 116.548 55.5062 113.973 57.6732 112.244C58.1502 111.863 58.6717 111.508 58.9947 110.99C59.5647 110.076 59.3817 108.907 59.4737 107.833C59.6557 105.713 61.0837 103.747 63.1167 102.575C63.5047 102.158 63.4332 101.474 63.1507 100.978C62.8682 100.483 62.4207 100.107 62.0602 99.665C61.2227 98.638 60.8822 97.274 60.8862 95.949C60.8907 94.624 61.2132 93.3215 61.5797 92.048C62.8892 87.4935 64.7797 83.11 65.8672 78.4975C66.5117 75.7645 63.4307 66.821 63.4307 66.821C63.4307 66.821 71.0737 65.3695 75.0217 64.5835Z" fill="#F7C86A"/>
<path d="M106.073 65.6124C102.666 75.6614 86.7378 78.1139 78.3898 73.1809C75.3093 71.4404 72.7153 68.6994 71.4473 65.3884C73.0668 68.5074 75.7318 70.9229 78.7618 72.4944C86.9683 76.8214 101.895 74.7259 106.073 65.6124Z" fill="#20211E"/>
<path d="M61.6865 99.3959C64.549 102.107 67.6935 104.308 71.2135 106.084C67.2215 105.654 63.451 103.001 61.6865 99.3959Z" fill="#20211E"/>
<path d="M64.3711 106.886C78.3601 106.851 92.3726 114.402 106.206 109.376C92.7011 115.792 78.1511 108.236 64.3711 106.886Z" fill="#20211E"/>
<path d="M75.708 117.588C86.1405 118.471 97.8705 119.831 106.342 112.325C98.821 121.009 85.8665 119.931 75.708 117.588Z" fill="#20211E"/>
<path d="M154.957 92.9045C157.444 91.1885 159.931 89.473 162.591 87.3675C163.365 84.578 161.906 81.338 159.304 80.0685C156.703 78.799 153.251 79.6425 151.367 82.245C150.346 84.6885 149.326 87.1325 148.139 89.956C149.869 91.42 152.054 92.3395 154.957 92.9045Z" fill="#AA4B30"/>
<path d="M106.319 65.546C118.714 67.5545 131.278 69.464 143.834 69.351C148.552 69.3085 153.274 68.9655 157.983 69.264C162.691 69.5625 167.453 70.541 171.511 72.947C172.615 73.6015 173.737 74.469 174.021 75.7205C174.367 77.25 173.346 78.729 172.326 79.92C169.084 83.7045 165.245 86.9775 161.121 89.4995C161.31 87.5265 161.492 85.4895 160.894 83.6C160.295 81.7105 158.705 79.9885 156.726 79.8745C155.067 79.779 153.569 80.7835 152.102 81.861C150.992 80.891 149.364 80.8825 147.89 80.9255C139.835 81.1615 131.702 81.408 123.895 83.408C121.444 84.036 118.909 84.8405 116.434 84.3165C113.344 83.662 111.062 81.095 109.192 78.551C107.891 76.782 106.66 74.9235 105.955 72.844C105.249 70.765 105.013 68.527 106.319 65.546Z" fill="#F7C86A"/>
<path d="M151.811 81.9016C153.827 77.6261 154.248 70.5846 159.996 69.7371C154.981 71.9031 155.148 78.2366 151.811 81.9016Z" fill="#20211E"/>
<path d="M152.456 80.665C152.326 78.829 152.498 77.022 152.746 75.214C153.003 73.5475 153.293 70.979 155.326 70.541C153.787 71.7325 154.052 73.627 153.735 75.358C153.456 77.162 153.105 78.943 152.456 80.665Z" fill="#20211E"/>
<path d="M154.992 74.537C158.024 73.6325 161.487 73.9865 164.214 75.684C166.905 77.3725 168.854 80.644 168.324 83.843C167.538 77.15 161.148 74.1925 154.992 74.537Z" fill="#20211E"/>
<path d="M161.396 87.4546C163.251 85.3736 165.616 83.768 168.241 82.826C166.389 84.911 164.018 86.5081 161.396 87.4546Z" fill="#20211E"/>
<path d="M161.371 85.5116C163.201 83.5976 165.525 82.1781 168.068 81.4381C166.241 83.3571 163.913 84.7671 161.371 85.5116Z" fill="#20211E"/>
<path d="M161.192 84.0351C162.975 82.2961 165.068 80.9426 167.392 80.0446C165.893 82.0541 163.64 83.4986 161.192 84.0351Z" fill="#20211E"/>
<path d="M160.657 82.9486C162.422 81.1536 164.371 79.6436 166.558 78.3961C165.345 80.6346 163.128 82.3391 160.657 82.9486Z" fill="#20211E"/>
<path d="M160.081 81.874C161.503 79.983 163.327 78.4485 165.442 77.385C164.273 79.458 162.325 81.0825 160.081 81.874Z" fill="#20211E"/>
<path d="M159.5 81.1545C160.578 79.2195 162.262 77.6495 164.274 76.7225C163.201 78.6605 161.51 80.2235 159.5 81.1545Z" fill="#20211E"/>
<path d="M163.013 75.8756C162.002 77.7526 160.527 79.3246 158.71 80.4401C159.472 78.4336 161.058 76.7581 163.013 75.8756Z" fill="#20211E"/>
<path d="M161.484 75.4375C160.855 77.261 159.703 78.849 158.155 80.0015C158.547 78.097 159.794 76.3955 161.484 75.4375Z" fill="#20211E"/>
<path d="M160.303 74.7445C159.745 76.669 158.764 78.399 157.387 79.8555C157.503 77.83 158.622 75.878 160.303 74.7445Z" fill="#20211E"/>
<path d="M159.069 74.4611C158.568 76.4861 157.529 78.3291 156.044 79.7956C156.294 77.7106 157.412 75.7491 159.069 74.4611Z" fill="#20211E"/>
<path d="M157.523 74.2981C157.169 76.4301 156.263 78.4251 154.878 80.0846C154.981 77.9131 155.952 75.7991 157.523 74.2981Z" fill="#20211E"/>
<path d="M155.877 74.41C155.699 76.7165 154.819 78.948 153.362 80.747C153.535 78.4385 154.425 76.211 155.877 74.41Z" fill="#20211E"/>
<path d="M112.118 72.1121C116.581 75.3116 119.749 80.4186 120.619 85.8416C118.412 80.8696 115.59 76.3011 112.118 72.1121Z" fill="#20211E"/>
<path d="M117.726 70.2001C120.794 75.3066 121.664 81.8021 120.032 87.5336C120.257 81.6376 119.49 75.8316 117.726 70.2001Z" fill="#20211E"/>
<path d="M107.378 85.016C108.076 84.1745 109.158 83.726 110.241 83.577C111.324 83.428 112.424 83.549 113.511 83.6695C121.371 84.543 129.498 85.5015 136.309 89.2015C142.25 85.5 148.754 82.7035 155.645 80.834C156.563 81.2035 157.349 81.8935 157.833 82.7565L136.062 92.8195L107.378 85.016Z" fill="#FDEDE1"/>
<path d="M135.639 91.8695C127.12 86.94 116.552 87.5315 107.183 84.5165C107.183 84.5165 89.5695 105.467 89.1855 105.916C96.9685 107.749 104.83 109.251 113.022 110.774C120.475 104.836 127.806 98.7455 135.639 91.8695Z" fill="#016B51"/>
<path d="M139.683 90.3805C139.378 91.801 138.201 93.012 137.09 93.9485C130.725 99.315 124.359 104.682 117.994 110.048C117.276 110.654 116.529 111.275 115.625 111.534C114.722 111.792 113.614 111.585 113.097 110.801C113.097 110.801 135.249 91.658 135.138 91.5915C135.52 91.795 136.121 91.9835 136.489 91.9725C136.857 91.961 137.034 91.883 137.356 91.705C138.151 91.2655 138.897 90.7465 139.683 90.3805Z" fill="#016B51"/>
<path d="M158.969 81.9355L138.849 100.111L119.328 108.73C119.328 108.73 139.108 90.8265 139.145 90.657C145.21 87.417 152.042 84.2495 158.969 81.9355Z" fill="#016B51"/>
<path d="M139.02 91.0709C132.716 96.6479 126.212 103.114 119.796 108.542C125.435 101.965 131.676 95.7349 139.02 91.0709Z" fill="#20211E"/>
<path d="M134.001 91.496C127.271 97.977 120.663 105.181 113.137 110.728C119.84 104.058 126.286 97.026 134.001 91.496Z" fill="#20211E"/>
<path d="M138.678 90.5759C138.823 91.5254 137.93 92.3834 136.994 92.4579C136.059 92.5574 135.023 91.8739 134.996 90.9129C136.223 91.7489 137.625 91.6249 138.678 90.5759Z" fill="#20211E"/>
<path d="M137.271 91.567C136.31 91.3455 135.911 90.085 136.58 89.3555C137.272 89.939 137.503 90.6945 137.271 91.567Z" fill="#20211E"/>
<path d="M155.851 81.4089C150.175 83.9714 144.378 86.1314 138.864 89.0424C141.19 86.9194 144.029 85.4439 146.89 84.1814C149.777 82.9639 152.758 81.9539 155.851 81.4089Z" fill="#20211E"/>
<path d="M157.129 81.7854C151.411 84.8154 145.148 87.3094 139.178 89.8224C141.828 87.8469 144.836 86.4329 147.835 85.0854C150.861 83.7904 153.932 82.6054 157.129 81.7854Z" fill="#20211E"/>
<path d="M134.328 89.6855C126.795 87.679 118.915 85.9505 111.207 84.8845C119.129 84.587 127.151 86.3495 134.328 89.6855Z" fill="#20211E"/>
<path d="M133.6 88.8169C130.201 87.6759 126.723 86.9304 123.236 86.1469C119.74 85.4109 116.269 84.6354 112.701 84.2784C118.583 83.5889 128.511 85.7769 133.6 88.8169Z" fill="#20211E"/>
<path d="M155.443 92.1915C154.655 93.108 154.833 94.4775 155.032 95.669C155.232 96.8605 155.346 98.256 154.488 99.1065C154.1 99.491 153.571 99.693 153.056 99.873C151.48 100.424 149.869 100.869 148.099 101.276C145.487 101.303 143.208 100.916 140.725 100.05C138.976 99.6615 136.823 99.0875 137.633 97.78C136.505 96.6745 138.639 95.255 140.158 95.1905C139.091 94.8735 138.618 94.302 138.988 93.9735C139.358 93.645 141.045 93.2325 141.535 93.1575C144.37 92.723 145.955 92.132 148.221 91.175C149.34 90.4855 151.05 89.3795 152.345 89.604C153.64 89.8285 154.845 90.54 155.443 92.1915Z" fill="#AA4B30"/>
<path d="M152.542 97.8905C150.787 98.8945 149.002 99.8 147.055 100.357C144.82 100.723 142.469 100.747 140.298 100.043C141.366 99.9775 142.401 99.902 143.435 99.806C144.596 99.6935 145.747 99.5575 146.893 99.382C148.762 98.8715 150.598 98.176 152.542 97.8905Z" fill="#20211E"/>
<path d="M152.083 94.996C150.563 96.0505 149.044 97.1435 147.332 97.85C144.128 98.592 140.766 98.397 137.576 97.7035C138.847 97.592 140.101 97.5315 141.352 97.4685C143.282 97.3475 145.219 97.31 147.108 96.9505C148.782 96.351 150.353 95.5105 152.083 94.996Z" fill="#20211E"/>
<path d="M151.738 92.952C150.453 93.8495 149.172 94.7645 147.698 95.3005C145.117 95.663 142.574 95.715 140.008 95.257C142.028 94.867 144.026 94.6355 146.046 94.4885C146.444 94.4545 147.123 94.4445 147.487 94.38C148.916 93.9585 150.256 93.275 151.738 92.952Z" fill="#20211E"/>
<path d="M155.24 96.873C155.333 96.517 155.258 96.121 155.041 95.824C154.825 95.527 154.471 95.334 154.045 95.197C154.126 94.9635 154.208 94.711 154.137 94.474C154.067 94.237 153.772 94.0545 153.31 93.9915C153.474 93.607 153.423 93.1395 153.182 92.799C152.94 92.4585 152.515 92.256 151.987 92.206C152.177 91.845 152.151 91.3805 151.922 91.0425C151.693 90.705 151.271 90.5085 150.865 90.551" stroke="#20211E" stroke-miterlimit="10" stroke-linecap="round" stroke-linejoin="round"/>
<path d="M151.967 89.1315C151.716 89.9985 150.824 90.4425 149.983 90.108C150.23 89.2375 151.127 88.801 151.967 89.1315Z" fill="#20211E"/>
<path d="M64.6829 122.663C69.4164 122.585 73.7864 119.765 78.5204 119.714C80.6439 119.691 82.7634 120.231 84.8754 120.008C87.3529 119.746 89.6009 118.457 91.6339 117.016C93.6669 115.576 95.9594 113.984 97.2274 112.558C100.152 110.742 103.002 109.716 106.222 108.499C106.683 108.325 107.16 108.148 107.517 107.809C107.874 107.469 108.08 106.917 107.869 106.471C107.567 105.834 106.688 105.791 105.988 105.872C103.496 106.16 102.227 106.656 100.086 107.33C102.482 106.46 103.869 105.757 106.265 104.887C106.845 104.676 107.888 103.907 107.732 103.31C107.634 102.937 107.063 102.91 106.696 102.792C105.555 102.426 103.565 102.435 102.388 102.658C102.948 102.01 103.672 100.761 102.156 100.439C101.318 100.261 98.2979 100.31 97.4479 100.416C94.6414 100.767 95.2004 100.949 92.5629 100.942C93.0094 100.837 92.9734 100.106 92.5829 99.8651C92.1924 99.6241 91.6899 99.7261 91.2464 99.8451C85.4839 101.391 80.1684 104.571 76.3279 108.719C72.6979 110.132 68.7194 110.637 64.6834 110.104C63.3674 110.145 62.2389 111.171 61.7074 112.376C61.1759 113.58 61.1324 114.938 61.1564 116.255C61.1794 117.508 61.2614 118.788 61.7449 119.945C62.2284 121.101 63.0904 122.689 64.6829 122.663Z" fill="#AA4B30"/>
<path d="M97.6786 112.406C95.8176 113.633 93.7111 114.397 91.4941 114.634C93.1606 113.129 95.4361 112.315 97.6786 112.406Z" fill="#20211E"/>
<path d="M102.154 106.603C98.6584 108.461 94.9914 109.921 91.1709 110.96C94.4109 108.665 98.2234 107.159 102.154 106.603Z" fill="#20211E"/>
<path d="M103.478 102.484C99.3802 103.793 93.4172 105.79 89.3252 106.936C91.4077 105.533 93.7502 104.601 96.1182 103.812C98.5022 103.083 100.965 102.461 103.478 102.484Z" fill="#20211E"/>
<path d="M92.6336 100.842C89.5351 102.22 86.3286 103.234 82.9941 103.854C85.8146 101.949 89.2301 100.88 92.6336 100.842Z" fill="#20211E"/>
<path d="M76.203 120.021C75.222 120.611 73.809 119.745 73.8975 118.601C74.88 118.827 75.557 119.249 76.203 120.021Z" fill="#20211E"/>
<path d="M65.2245 109.916C63.3025 111.374 62.568 114.005 62.8105 116.405C63.053 118.805 64.123 121.034 65.3225 123.27C55.5315 124.501 45.6865 125.301 35.825 125.666C34.793 125.704 33.687 125.718 32.8225 125.154C31.454 124.26 31.2715 122.34 31.42 120.712C32.089 113.366 36.4665 106.973 40.4105 100.74C45.7545 92.2935 50.5385 83.493 54.721 74.4155C55.526 72.668 56.3245 70.886 57.559 69.41C58.7935 67.9345 60.55 66.7785 62.4735 66.7245C65.5085 66.639 68.0065 69.2905 69.0575 72.139C70.729 76.669 69.749 81.826 67.593 86.1465C65.437 90.467 62.2025 94.136 59.1215 97.854C56.0405 101.572 53.028 105.482 51.301 110.264C55.856 110.663 60.453 110.58 65.2245 109.916Z" fill="#F7C86A"/>
<path d="M71.7406 84.524C68.1536 87.4835 64.4886 90.9335 61.3096 94.327C63.4786 89.994 67.2846 86.424 71.7406 84.524Z" fill="#20211E"/>
<path d="M70.7808 71.9651C70.1688 79.4631 67.2318 86.8381 62.5088 92.6951C66.0448 86.0956 68.8068 79.1881 70.7808 71.9651Z" fill="#20211E"/>
<path d="M64.1055 68.1805C66.518 70.7335 67.5075 74.665 66.577 78.054C66.33 76.5765 65.9895 74.473 65.613 73.0495C65.2795 71.6225 64.5815 69.59 64.1055 68.1805Z" fill="#20211E"/>
<path d="M62.6647 73.28C65.9617 79.3375 65.5057 87.3855 61.5332 93.0255C64.1752 86.7765 64.5807 79.789 62.6647 73.28Z" fill="#20211E"/>
<path d="M35.9326 110.137C40.6116 106.791 47.0671 108.093 51.8331 110.601C46.5971 109.466 41.1341 108.145 35.9326 110.137Z" fill="#20211E"/>
<path d="M36.4023 112.631C39.7993 109.734 44.7643 108.62 49.0708 109.801C44.6823 110.043 40.4753 110.977 36.4023 112.631Z" fill="#20211E"/>
<path d="M54.5218 110.476C52.4313 114.873 52.0168 119.835 53.3333 124.52C50.6133 120.313 51.1383 114.168 54.5218 110.476Z" fill="#20211E"/>
<path d="M65.46 109.787C63.5935 110.88 61.2525 111.155 59.1865 110.51C61.2005 109.772 63.3305 109.532 65.46 109.787Z" fill="#20211E"/>
<path d="M63.7559 111.53C60.5224 112.136 57.2214 112.215 53.9639 111.749C57.1339 110.835 60.5479 110.765 63.7559 111.53Z" fill="#20211E"/>
<path d="M63.1116 112.588C59.9106 113.413 56.5476 113.565 53.2871 113.015C56.4871 112.185 59.8511 112.044 63.1116 112.588Z" fill="#20211E"/>
<path d="M62.7994 113.762C59.4519 114.515 55.9624 114.59 52.5879 113.967C55.9349 113.209 59.4244 113.145 62.7994 113.762Z" fill="#20211E"/>
<path d="M62.4373 114.884C59.0393 115.577 55.5128 115.591 52.1123 114.908C55.5098 114.209 59.0358 114.206 62.4373 114.884Z" fill="#20211E"/>
<path d="M62.2894 116.03C59.0229 116.921 55.5839 117.143 52.2314 116.661C55.4974 115.764 58.9369 115.554 62.2894 116.03Z" fill="#20211E"/>
<path d="M63.0595 117.024C59.601 118.15 55.8535 118.423 52.2705 117.794C55.8195 117.04 59.439 116.788 63.0595 117.024Z" fill="#20211E"/>
<path d="M62.6382 118.216C59.2747 119.61 55.4457 119.957 51.8887 119.174C55.4587 118.57 59.0177 118.258 62.6382 118.216Z" fill="#20211E"/>
<path d="M63.0084 119.46C59.9909 120.56 56.7474 121.003 53.5459 120.74C56.5619 119.635 59.8074 119.201 63.0084 119.46Z" fill="#20211E"/>
<path d="M63.501 120.516C60.117 121.902 56.395 122.485 52.749 122.187C56.237 121.112 59.852 120.556 63.501 120.516Z" fill="#20211E"/>
<path d="M64.0883 121.764C60.5763 122.941 56.8533 123.461 53.1533 123.274C56.6643 122.092 60.3888 121.583 64.0883 121.764Z" fill="#20211E"/>
<path d="M103.354 26.7035C98.4398 25.86 89.4658 27.197 86.7348 33.369C84.0038 39.541 81.7588 47.668 83.6373 53.9475C84.8773 58.092 88.9753 63.71 95.9173 65.419C100.107 66.4505 102.784 67.358 107.252 64.511C110.891 62.1925 112.642 53.4835 113.507 49.2565C114.526 44.2715 114.196 38.139 112.138 33.4855C110.08 28.832 107.657 27.4425 103.354 26.7035Z" fill="#AA4B30"/>
<path d="M104.461 56.5085C103.145 59.7345 99.4263 59.7525 97.6468 56.9075C97.1513 56.1355 96.7963 55.1915 96.9673 54.286C97.4873 55.856 98.7233 57.171 100.171 57.822C101.753 58.525 103.237 57.601 104.461 56.5085Z" fill="black"/>
<path d="M103.174 42.762C103.382 45.0165 103.981 47.0045 104.784 49.098C105.05 49.9125 105.388 50.7905 105.316 51.7035C105.284 52.71 104.236 53.6475 103.217 53.441C102.595 53.3175 102.113 52.992 101.682 52.63C102.215 52.8015 102.756 52.9825 103.25 52.951C103.745 52.932 104.083 52.646 104.314 52.2475C104.685 51.4125 104.123 50.307 103.841 49.43C103.071 47.3465 102.565 44.9565 103.174 42.762Z" fill="black"/>
<mask id="mask2_489_314" style="mask-type:luminance" maskUnits="userSpaceOnUse" x="82" y="26" width="33" height="39">
<path d="M103.354 26.7035C98.4398 25.86 89.4658 27.197 86.7348 33.369C84.0038 39.541 81.7588 47.668 83.6373 53.9475C84.8773 58.092 88.9753 62.209 95.9173 63.918C100.107 64.9495 103.284 65.857 107.753 63.01C111.392 60.6915 112.642 53.4835 113.507 49.2565C114.526 44.2715 114.196 38.139 112.138 33.4855C110.08 28.832 107.657 27.4425 103.354 26.7035Z" fill="white"/>
</mask>
<g mask="url(#mask2_489_314)">
<g opacity="0.2118">
<path d="M89.3288 50.6945C89.6118 49.2615 91.2203 48.373 92.9218 48.7095C94.6233 49.0465 95.7733 50.481 95.4903 51.914C95.2073 53.347 93.5988 54.2355 91.8973 53.899C90.1958 53.562 89.0463 52.1275 89.3288 50.6945Z" fill="#73171A"/>
<path d="M116.144 53.0754C116.352 51.6296 115.129 50.2574 113.412 50.0105C111.695 49.7637 110.135 50.7358 109.927 52.1817C109.719 53.6276 110.942 54.9998 112.659 55.2466C114.376 55.4934 115.936 54.5213 116.144 53.0754Z" fill="#73171A"/>
</g>
</g>
<path d="M100.782 66.398C95.8896 67.348 91.7126 65.6735 89.0276 61.4415C88.2026 60.193 87.5311 58.8645 86.9941 57.483C91.1516 63.189 93.3131 65.9545 100.782 66.398Z" fill="black"/>
<path d="M113.305 42.1735C112.901 39.5485 110.439 37.897 107.502 38.281C107.154 38.3265 106.684 38.501 106.597 38.845C106.509 39.193 106.907 39.314 107.233 39.3555C109.552 39.6515 111.548 40.693 113.305 42.1735Z" fill="#20211E"/>
<path d="M91.3145 40.2069C92.209 37.7064 94.9405 36.5519 97.7505 37.4864C98.084 37.5974 98.512 37.8574 98.532 38.2119C98.5525 38.5704 98.1384 38.6134 97.8104 38.5924C95.4779 38.4424 93.3205 39.0869 91.3145 40.2069Z" fill="#20211E"/>
<path d="M83.9025 42.334C83.085 41.6955 81.8695 41.68 80.965 42.1605C80.0605 42.641 79.4535 43.5455 79.179 44.514C78.9045 45.4825 78.9325 46.5145 79.066 47.518C79.2045 48.557 79.4625 49.605 80.035 50.501C80.6075 51.3965 81.5335 52.1265 82.6005 52.281C82.977 52.3355 83.4005 52.303 83.668 52.0465C83.9515 51.774 83.9745 51.341 83.9805 50.95C84.0205 48.1805 84.061 45.411 83.9025 42.334Z" fill="#AA4B30"/>
<path d="M80.0381 45.2535C80.3081 43.7715 82.4686 43.043 83.5421 44.1295C82.4861 44.4465 81.0961 44.928 80.0381 45.2535Z" fill="black"/>
<path d="M81.148 44.6069C82.433 46.1514 81.587 48.3399 82.8 49.9189C82.2625 49.8809 81.7935 49.4664 81.5125 49.0119C80.6985 47.7094 81.05 46.0314 81.148 44.6069Z" fill="black"/>
<path d="M82.3005 52.7085C82.9509 52.7085 83.478 52.1813 83.478 51.531C83.478 50.8807 82.9509 50.3535 82.3005 50.3535C81.6502 50.3535 81.123 50.8807 81.123 51.531C81.123 52.1813 81.6502 52.7085 82.3005 52.7085Z" fill="#FDEDE1"/>
<path d="M95.0703 46.0695C95.0703 45.225 95.5283 44.54 96.0933 44.54C96.6583 44.54 97.1163 45.2245 97.1163 46.0695C97.1163 46.914 96.6583 47.599 96.0933 47.599C95.5283 47.599 95.0703 46.9145 95.0703 46.0695Z" fill="black"/>
<path d="M108.839 46.4596C108.839 45.6151 109.297 44.9301 109.862 44.9301C110.427 44.9301 110.885 45.6151 110.885 46.4596C110.885 47.3041 110.427 47.9891 109.862 47.9891C109.297 47.9891 108.839 47.3046 108.839 46.4596Z" fill="black"/>
<path d="M82.5454 40.9345C82.9849 41.8595 84.2139 42.3125 85.1484 41.895C86.0834 41.4775 86.5654 40.26 86.1699 39.315C86.9709 39.6625 87.9709 39.4885 88.6069 38.891C89.2429 38.2935 89.4799 37.3065 89.1839 36.4855C89.7554 36.902 90.5784 36.938 91.1839 36.5735C91.7899 36.209 92.1429 35.465 92.0424 34.765C93.7879 35.6375 96.2119 34.291 96.3934 32.348C97.1414 33.119 98.4114 33.321 99.3614 32.82C100.312 32.3185 100.862 31.1565 100.648 30.104C101.658 30.5755 102.956 30.335 103.73 29.5325C104.504 28.73 104.698 27.425 104.19 26.432C104.756 25.602 103.987 24.495 103.146 23.946C100.629 22.304 97.0189 22.5885 94.7904 24.604C93.9129 23.386 92.0609 23.006 90.7749 23.7805C89.4889 24.555 88.9584 26.37 89.6249 27.715C88.4784 27.2255 87.0669 27.427 86.1034 28.218C85.1399 29.009 84.6669 30.3535 84.9229 31.574C83.4569 31.795 82.1174 32.7345 81.4104 34.038C80.7039 35.341 80.6469 36.9765 81.2609 38.3255C80.6199 38.519 80.1989 39.2575 80.3594 39.9075C80.5214 40.5575 81.2374 41.0155 82.5454 40.9345Z" fill="#20211E"/>
<path d="M103.43 25.59C103.027 26.9825 103.385 28.5705 104.346 29.656C105.307 30.7415 106.84 31.289 108.271 31.0575C108.005 32.1225 108.317 33.3135 109.07 34.112C109.824 34.9105 110.994 35.291 112.073 35.088C111.557 35.735 111.456 36.685 111.824 37.4265C112.193 38.1675 113.011 38.6605 113.839 38.6395C112.999 39.844 113.947 41.814 115.413 41.9085C115.348 42.314 115.871 42.6155 116.262 42.489C116.653 42.3625 116.898 41.9795 117.068 41.605C117.805 39.976 117.662 37.9795 116.702 36.472C117.744 35.8425 118.439 34.673 118.493 33.4565C118.547 32.24 117.959 31.013 116.976 30.294C116.668 30.068 116.211 29.9005 115.93 30.16C115.649 30.4195 116.176 30.9935 116.343 30.6495C116.778 29.148 116.317 27.4235 115.192 26.3385C114.066 25.254 112.326 24.8565 110.841 25.3455C110.744 25.816 111.465 26.13 111.834 25.823C112.203 25.5155 112.173 24.908 111.9 24.5125C111.627 24.117 111.182 23.8835 110.754 23.6645C109.856 23.2055 108.905 22.734 107.897 22.7825C106.89 22.831 105.842 23.611 105.883 24.619C106.27 24.4275 106.205 23.776 105.828 23.5635C105.452 23.3515 104.953 23.511 104.649 23.8175C104.344 24.124 103.788 24.349 103.43 25.59Z" fill="#20211E"/>
</g>
<path d="M60.3485 50.5145L58.3835 46.407L57.4415 50.918L53.125 51.534L56.9005 53.6095L55.6835 56.907L58.97 53.7225L62.9895 56.342L61.0665 52.9405L64.125 50.386L60.3485 50.5145Z" fill="#F7C86A"/>
<path d="M129.276 47.5115L127.724 44.7255L127.467 47.993L124.781 48.719L127.326 49.941L126.804 52.3645L128.644 49.8825L131.385 51.475L129.913 49.187L131.656 47.168L129.276 47.5115Z" fill="#F7C86A"/>
<path d="M41.9561 75.094C42.6464 75.094 43.2061 74.5344 43.2061 73.844C43.2061 73.1536 42.6464 72.594 41.9561 72.594C41.2657 72.594 40.7061 73.1536 40.7061 73.844C40.7061 74.5344 41.2657 75.094 41.9561 75.094Z" fill="#F7C86A"/>
<path d="M134.956 33.094C135.646 33.094 136.206 32.5344 136.206 31.844C136.206 31.1536 135.646 30.594 134.956 30.594C134.266 30.594 133.706 31.1536 133.706 31.844C133.706 32.5344 134.266 33.094 134.956 33.094Z" fill="#F7C86A"/>
<path d="M65.4561 32.594C66.1464 32.594 66.7061 32.0344 66.7061 31.344C66.7061 30.6536 66.1464 30.094 65.4561 30.094C64.7657 30.094 64.2061 30.6536 64.2061 31.344C64.2061 32.0344 64.7657 32.594 65.4561 32.594Z" fill="#F7C86A"/>
<path d="M50.9561 67.594C51.3703 67.594 51.7061 67.2582 51.7061 66.844C51.7061 66.4298 51.3703 66.094 50.9561 66.094C50.5418 66.094 50.2061 66.4298 50.2061 66.844C50.2061 67.2582 50.5418 67.594 50.9561 67.594Z" fill="#F7C86A"/>
<path d="M161.456 65.594C161.87 65.594 162.206 65.2582 162.206 64.844C162.206 64.4298 161.87 64.094 161.456 64.094C161.042 64.094 160.706 64.4298 160.706 64.844C160.706 65.2582 161.042 65.594 161.456 65.594Z" fill="#F7C86A"/>
<path d="M120.956 63.094C121.37 63.094 121.706 62.7582 121.706 62.344C121.706 61.9298 121.37 61.594 120.956 61.594C120.542 61.594 120.206 61.9298 120.206 62.344C120.206 62.7582 120.542 63.094 120.956 63.094Z" fill="#F7C86A"/>
<path d="M127.355 21.5585C127.977 21.5585 128.48 21.0548 128.48 20.4335C128.48 19.8122 127.977 19.3085 127.355 19.3085C126.734 19.3085 126.23 19.8122 126.23 20.4335C126.23 21.0548 126.734 21.5585 127.355 21.5585Z" stroke="#F7C86A" stroke-miterlimit="10"/>
<path d="M32.8555 67.0585C33.4768 67.0585 33.9805 66.5548 33.9805 65.9335C33.9805 65.3122 33.4768 64.8085 32.8555 64.8085C32.2341 64.8085 31.7305 65.3122 31.7305 65.9335C31.7305 66.5548 32.2341 67.0585 32.8555 67.0585Z" stroke="#F7C86A" stroke-miterlimit="10"/>
<path d="M139.355 63.0585C139.977 63.0585 140.48 62.5548 140.48 61.9335C140.48 61.3122 139.977 60.8085 139.355 60.8085C138.734 60.8085 138.23 61.3122 138.23 61.9335C138.23 62.5548 138.734 63.0585 139.355 63.0585Z" stroke="#F7C86A" stroke-miterlimit="10"/>
</svg>
