<svg width="38" height="34" viewBox="0 0 38 34" fill="none" xmlns="http://www.w3.org/2000/svg">
<path d="M3.22078 10.5716C3.22078 9.39059 3.36987 8.34805 3.66805 7.44404C3.96622 6.54002 4.34761 5.82191 4.81221 5.2897C5.27681 4.7575 5.84196 4.32372 6.50765 3.98835C7.17335 3.65299 7.82517 3.42699 8.46313 3.31034C9.10109 3.19369 9.78065 3.13537 10.5018 3.13537C11.223 3.13537 11.9996 3.32128 12.8318 3.69309C13.6639 4.0649 14.4301 4.53149 15.1305 5.09286C15.8308 5.65423 16.4307 6.17914 16.9299 6.6676C17.4292 7.15606 17.8453 7.60443 18.1781 8.01269C18.4277 8.33347 18.7675 8.49386 19.1975 8.49386C19.6274 8.49386 19.9672 8.33347 20.2168 8.01269C20.5497 7.60443 20.9657 7.15606 21.465 6.6676C21.9643 6.17914 22.5641 5.65423 23.2644 5.09286C23.9648 4.53149 24.731 4.0649 25.5632 3.69309C26.3953 3.32128 27.1719 3.13537 27.8931 3.13537C28.6143 3.13537 29.2938 3.19369 29.9318 3.31034C30.5697 3.42699 31.2216 3.65299 31.8873 3.98835C32.553 4.32372 33.1181 4.7575 33.5827 5.2897C34.0473 5.82191 34.4287 6.54002 34.7269 7.44404C35.025 8.34805 35.1741 9.39059 35.1741 10.5716C35.1741 13.0212 33.8774 15.6094 31.284 18.336L19.1975 30.584L7.13174 18.3579C4.52444 15.6166 3.22078 13.0212 3.22078 10.5716ZM0.558002 10.5716C0.558002 13.794 2.14596 17.0747 5.32188 20.4138L18.2821 33.5366C18.5318 33.7991 18.8369 33.9303 19.1975 33.9303C19.558 33.9303 19.8632 33.7991 20.1128 33.5366L33.0938 20.37C33.2325 20.2534 33.4232 20.0638 33.6659 19.8014C33.9086 19.5389 34.2935 19.0614 34.8205 18.3688C35.3475 17.6762 35.819 16.9654 36.2351 16.2363C36.6511 15.5073 37.0221 14.6251 37.348 13.5899C37.674 12.5547 37.8369 11.5486 37.8369 10.5716C37.8369 7.36384 36.9563 4.85592 35.1949 3.04788C33.4336 1.23985 30.9997 0.335831 27.8931 0.335831C27.0332 0.335831 26.156 0.492576 25.2615 0.806066C24.367 1.11956 23.5349 1.5424 22.7652 2.07461C21.9955 2.60681 21.3332 3.10621 20.7785 3.5728C20.2237 4.03939 19.6967 4.53514 19.1975 5.06005C18.6982 4.53514 18.1712 4.03939 17.6164 3.5728C17.0617 3.10621 16.3995 2.60681 15.6298 2.07461C14.86 1.5424 14.0279 1.11956 13.1334 0.806066C12.2389 0.492576 11.3617 0.335831 10.5018 0.335831C7.39524 0.335831 4.9613 1.23985 3.19998 3.04788C1.43866 4.85592 0.558002 7.36384 0.558002 10.5716Z" fill="#694D28"/>
</svg>
