<svg width="224" height="223" viewBox="0 0 224 223" fill="none" xmlns="http://www.w3.org/2000/svg">
<path opacity="0.6" d="M104.069 1.1225C104.069 1.1225 218.239 -7.466 216.922 96.4565C215.605 200.379 100.996 205.103 57.5234 188.355C-17.0996 159.606 -20.6391 1.9815 104.069 1.1225Z" fill="#FDDEC0"/>
<path opacity="0.6" d="M111.854 222.376C173.515 222.376 223.5 219.332 223.5 215.578C223.5 211.824 173.515 208.78 111.854 208.78C50.1944 208.78 0.208984 211.824 0.208984 215.578C0.208984 219.332 50.1944 222.376 111.854 222.376Z" fill="#FDDEC0"/>
<path d="M79.6417 17.1565C73.0542 15.1065 71.9652 19.2454 71.7932 20.3629C71.0392 21.0909 70.4212 21.9939 69.9167 22.9699C71.2627 18.8459 66.4302 16.4909 65.2917 16.0009C67.2407 14.8474 68.5282 12.7759 68.5282 12.7759C62.5902 10.8394 61.0897 14.0354 60.7197 15.4859C60.5322 13.9319 60.5472 12.3219 60.9712 10.9109C65.7522 10.8349 66.1152 4.14795 66.1152 4.14795C59.3362 5.42895 60.3167 9.59445 60.6887 10.6619C60.3647 11.6589 60.2427 12.7469 60.2552 13.8464C59.4122 9.01095 52.6442 9.88545 52.6442 9.88545C55.4382 17.1069 60.0322 14.0574 60.2547 13.9044C60.2822 15.6744 60.6507 17.4654 61.0647 18.9404C59.5862 19.8329 58.1602 21.3039 58.5422 23.5779C58.2022 22.6334 57.7517 21.7409 57.1577 20.9894C57.1342 19.9129 56.6222 16.0399 50.3652 17.0839C50.3652 17.0839 52.8097 22.7654 56.9792 21.3214C57.7912 22.4014 58.3152 23.7819 58.6492 25.1799C57.8437 24.0279 55.5207 21.8049 51.0222 25.3494C51.0222 25.3494 55.8457 29.1124 58.8107 25.9349C59.3667 28.8179 59.1967 31.5479 59.1937 31.5924L59.5357 31.6159C59.5517 31.3839 59.8132 27.2104 58.5852 23.6939C58.8332 23.7544 60.9477 24.2094 62.4347 22.5904C62.8472 23.2219 63.9067 24.9399 64.7457 27.1004C64.6437 27.4184 64.5967 27.7684 64.6222 28.1524C64.4697 27.8844 64.3002 27.6304 64.1102 27.3959C64.0677 26.5174 63.5782 23.8984 59.1697 24.6339C59.1697 24.6339 60.9307 28.7269 63.9372 27.7339C65.8562 30.2684 65.5527 35.1389 65.5487 35.1899L65.8907 35.2134C65.8927 35.181 65.9017 35.0389 65.9082 34.8174L65.9382 34.8254C66.4812 32.8074 66.2052 30.618 65.6272 28.6355C66.7582 28.559 68.4982 27.8554 68.5597 24.2559C68.5597 24.2559 65.8742 24.8674 64.9342 26.6529C64.0557 24.4879 62.9982 22.8209 62.6632 22.3179C63.3522 21.4199 63.8612 20.0014 63.8992 17.7699C63.8992 17.7699 62.6692 18.0504 61.3807 18.7579C61.1707 17.9934 60.9747 17.1444 60.8317 16.2629C62.3717 17.0479 63.8172 16.7919 65.0307 16.1469C64.2582 23.5664 69.6147 23.0544 69.8887 23.0229C68.0552 26.6054 67.7222 31.1154 67.7047 31.3659L68.0467 31.3894C68.0502 31.3409 68.2697 28.3859 69.2917 25.3764C71.9947 29.2354 77.7247 25.9079 77.7247 25.9079C73.3907 21.4124 70.5662 23.5289 69.5582 24.6364C70.1222 23.1764 70.8902 21.7614 71.9262 20.7149C76.1837 22.8914 79.6417 17.1565 79.6417 17.1565ZM65.8712 33.0339C65.7827 31.7104 65.5267 30.0129 64.8547 28.5999C64.9592 28.6174 65.1027 28.6354 65.2747 28.6414C65.6922 30.0474 65.9547 31.5584 65.8712 33.0339Z" fill="#5D8584"/>
<path d="M57.316 29.729C56.6005 31.045 56.1875 32.593 56.1875 34.25C56.1875 39.033 59.6245 42.9105 63.864 42.9105C68.1035 42.9105 71.5405 39.033 71.5405 34.25C71.5405 32.593 71.1275 31.045 70.412 29.729H57.316Z" fill="#6F96BD"/>
<path d="M37.9778 15.6974H20.3418V41.5014H37.9778V15.6974Z" fill="#352C38"/>
<path d="M25.5895 15.6809H17.165V41.5979H25.5895V15.6809Z" fill="#765E69"/>
<path d="M24.1033 17.7339H18.6523V34.4134H24.1033V17.7339Z" fill="#FFF5EE"/>
<path d="M19.5625 37.4664C19.5625 38.5049 20.375 39.3464 21.378 39.3464C22.3805 39.3464 23.1935 38.5049 23.1935 37.4664C23.1935 36.4279 22.381 35.5864 21.378 35.5864C20.3755 35.5864 19.5625 36.4279 19.5625 37.4664Z" fill="#352C38" stroke="#B792A5" stroke-width="1.1423" stroke-miterlimit="10"/>
<path d="M34.5163 15.6809H26.0918V41.5979H34.5163V15.6809Z" fill="#765E69"/>
<path d="M33.0296 17.7339H27.5781V34.4134H33.0296V17.7339Z" fill="#FFF5EE"/>
<path d="M28.4893 37.4664C28.4893 38.5049 29.3023 39.3464 30.3048 39.3464C31.3073 39.3464 32.1203 38.5049 32.1203 37.4664C32.1203 36.4279 31.3078 35.5864 30.3048 35.5864C29.3018 35.5864 28.4893 36.4279 28.4893 37.4664Z" fill="#352C38" stroke="#B792A5" stroke-width="1.1423" stroke-miterlimit="10"/>
<path d="M43.3718 15.6809H34.9473V41.5979H43.3718V15.6809Z" fill="#765E69"/>
<path d="M41.8851 17.7339H36.4336V34.4134H41.8851V17.7339Z" fill="#FFF5EE"/>
<path d="M37.3438 37.4664C37.3438 38.5049 38.1568 39.3464 39.1593 39.3464C40.1618 39.3464 40.9748 38.5049 40.9748 37.4664C40.9748 36.4279 40.1618 35.5864 39.1593 35.5864C38.1568 35.5864 37.3438 36.4279 37.3438 37.4664Z" fill="#352C38" stroke="#B792A5" stroke-width="1.1423" stroke-miterlimit="10"/>
<path d="M75.984 41.7839H5.16797V47.4759H75.984V41.7839Z" fill="#FFA65B"/>
<path d="M113.167 39.1665C113.167 39.1665 122.5 39.966 123.5 47.961C124.5 55.956 119.167 68.7475 122.167 74.8235C125.167 80.8995 117.833 92.892 107.167 89.854C96.5004 86.816 101.5 48.7605 113.167 39.1665Z" fill="#6D3535"/>
<path d="M102.763 163.848C102.763 163.848 93.2412 167.657 112.845 211.351C112.845 211.351 137.132 211.514 117.373 208.968C117.373 208.968 117.573 165.092 111.278 163.677C104.982 162.261 102.763 163.848 102.763 163.848Z" fill="#FFAC9D"/>
<path d="M117.129 195.655C116.656 182.618 115.278 164.576 111.278 163.677C104.983 162.261 102.764 163.848 102.764 163.848C102.764 163.848 95.072 166.933 107.763 199.304C110.977 198.431 114.09 197.183 117.129 195.655Z" fill="#F28B8B"/>
<path d="M120.437 209.32C120.437 209.32 125.747 209.735 125.56 210.709C125.328 211.918 112.845 211.351 112.845 211.351L112.014 209.98C112.014 209.98 121.049 210.633 120.437 209.32Z" fill="#1F1A21"/>
<path d="M72.8808 167.013C72.8808 167.013 63.0068 170.635 81.1668 213.579C81.1668 213.579 105.441 212.754 85.5948 211.013C85.5948 211.013 87.7293 167.653 81.3818 166.496C75.0338 165.338 72.8808 167.013 72.8808 167.013Z" fill="#FFAC9D"/>
<path d="M85.9188 199.217C86.0623 186.287 85.5578 167.258 81.3813 166.496C75.0338 165.338 72.8808 167.013 72.8808 167.013C72.8808 167.013 64.8518 169.965 76.6003 202.05C79.7123 201.123 82.7873 200.058 85.9188 199.217Z" fill="#F28B8B"/>
<path d="M88.67 211.24C88.67 211.24 94.4875 211.666 94.2605 212.632C94.0335 213.597 81.1665 213.579 81.1665 213.579L80.4365 212.071C80.4365 212.071 89.334 212.527 88.67 211.24Z" fill="#1F1A21"/>
<path d="M83.174 122.812L81.2695 131.151L104.123 194.904C104.123 194.904 115.277 195.98 123.439 191.676C123.439 191.676 112.013 127.923 97.865 111.514C83.718 95.1045 83.174 122.812 83.174 122.812Z" fill="#588AAF"/>
<path d="M71.8155 102.906C71.8155 102.906 58.9605 108.824 58.1445 126.309C57.3285 143.794 69.571 197.863 69.571 197.863C69.571 197.863 80.1815 200.015 93.2405 196.249L85.895 130.344C85.895 130.344 95.9615 126.847 99.226 115.28C100.678 110.137 96.5055 106.941 96.5055 106.941L71.8155 102.906Z" fill="#6F96BD"/>
<path d="M99.5035 113.763C99.8645 109.517 96.506 106.941 96.506 106.941L71.8165 102.906C71.8165 102.906 70.8705 103.344 69.4805 104.324C77.7475 110.573 88.943 113.004 99.5035 113.763Z" fill="#588AAF"/>
<path d="M134.445 127.549C142.069 126.495 134.175 127.025 130.439 126.814C129.081 122.804 117.585 88.7979 115.312 80.3419C112.895 71.3524 103.271 84.4364 103.271 84.4364C103.271 84.4364 121.51 128.827 126.798 129.749C127.609 129.891 130.226 129.836 130.593 129.802C143.953 128.591 135.511 128.74 134.539 128.8C134.551 128.794 134.563 128.788 134.575 128.781C142.479 127.348 135.645 127.944 135.18 127.985L135.18 127.985C143.348 127.076 134.445 127.549 134.445 127.549Z" fill="#FFAC9D"/>
<path d="M118.929 92.1204C117.288 87.0164 115.944 82.6919 115.312 80.3419C112.895 71.3524 103.271 84.4364 103.271 84.4364C103.271 84.4364 105.622 90.1569 108.879 97.5329C112.861 96.7339 116.597 95.2539 118.929 92.1204Z" fill="#F28B8B"/>
<path d="M105.544 94.04C105.544 94.04 98.5978 79.255 105.945 76.3865C113.293 73.518 117.028 79.3855 119.209 90.1985C119.209 90.1985 111.536 96.0995 105.544 94.04Z" fill="#241E26"/>
<path d="M114.189 82.0155C113.436 73.6985 105.557 78.7805 103.297 77.104C102.368 76.415 102.282 74.714 102.503 72.95C102.564 72.9825 102.624 73.0165 102.686 73.0485C102.652 72.4215 102.718 71.7475 102.829 71.096C103.229 69.272 103.766 67.7645 103.766 67.7645L94.5138 62.481C94.5138 62.481 94.6733 74.494 89.6503 73.3545C84.6273 72.215 82.1633 77.505 82.2523 82.6085C82.3418 87.713 114.942 90.332 114.189 82.0155Z" fill="#F28B8B"/>
<path d="M71.8158 102.905C71.8158 102.905 71.2038 73.931 89.9758 72.5025L91.8123 68.6255L104.463 70.87C104.463 70.87 102.423 75.155 104.463 75.155C106.504 75.155 113.441 74.747 115.278 80.052C117.114 85.357 111.401 89.438 111.401 89.438C111.401 89.438 112.217 98.416 105.075 102.905C97.9338 107.394 91.4043 108.618 91.4043 108.618L71.8158 102.905Z" fill="#352C38"/>
<path d="M96.8702 88.925C91.5612 86.146 85.6777 80.1315 84.7067 73.7915C71.3277 79.673 71.8157 102.906 71.8157 102.906C71.8157 102.906 80.0457 108.619 91.4042 108.619C91.4042 108.619 97.9337 107.395 105.075 102.906C109.775 99.9515 111.028 95.0535 111.336 92.0495C106.366 92.097 101.463 91.3285 96.8702 88.925Z" fill="#241E26"/>
<path d="M111.129 128.176C118.949 127.232 110.862 127.635 107.042 127.353C105.724 123.226 94.5636 88.2235 92.3876 79.5305C90.0741 70.2885 79.9941 83.5065 79.9941 83.5065C79.9941 83.5065 97.8696 129.255 103.265 130.292C104.092 130.451 106.77 130.44 107.147 130.413C120.84 129.41 112.198 129.413 111.203 129.458C111.215 129.451 111.228 129.445 111.241 129.439C119.354 128.113 112.35 128.601 111.874 128.635V128.634C120.248 127.849 111.129 128.176 111.129 128.176Z" fill="#FFAC9D"/>
<path d="M95.8796 91.647C94.2911 86.395 92.9921 81.946 92.3876 79.53C90.0741 70.288 79.9941 83.506 79.9941 83.506C79.9941 83.506 82.2976 89.401 85.5001 97.007C89.5891 96.2605 93.4381 94.8125 95.8796 91.647Z" fill="#F28B8B"/>
<path d="M82.1487 93.374C82.1487 93.374 75.6027 77.554 83.1722 74.7495C90.7412 71.945 94.1597 78.5825 96.2002 89.686C96.2002 89.686 88.2437 95.5875 82.1487 93.374Z" fill="#352C38"/>
<path d="M106.936 40.9735C106.936 40.9735 120.531 42.792 118.061 60.551C115.592 78.31 92.8219 74.1255 93.7109 58.602C94.6004 43.079 101.768 40.808 106.936 40.9735Z" fill="#FFAC9D"/>
<path d="M92.5825 51.383C94.2 51.3 95.0555 52.013 95.5255 53.1495C94.97 55.1115 94.205 58.283 93.8505 60.8595C89.362 60.785 89.1635 51.5585 92.5825 51.383Z" fill="#FFAC9D"/>
<path d="M113.834 44.6665C113.834 44.6665 112.334 50.6665 97.8339 50.5C97.8339 50.5 97.8339 55 94.8339 56.6665C94.8339 56.6665 96.6659 51.4325 92.5834 51.3825C88.5009 51.333 89.7019 60.885 93.8514 60.859C93.8514 60.859 96.1674 71.6665 92.1674 73.6665C88.1674 75.6665 83.8339 70.5 76.0004 82.5C76.0004 82.5 68.8339 78.1665 72.6669 69.8335C76.5004 61.5 82.9934 66.047 85.0004 51.8335C87.0004 37.667 94.8339 33.5 103.834 34.667C112.834 35.8335 116 38.8335 113.834 44.6665Z" fill="#965450"/>
<path d="M109.519 58.2004C109.506 58.4264 109.522 58.6394 109.542 58.8554C109.55 59.0684 109.613 59.2804 109.636 59.4879C109.647 59.5924 109.692 59.6934 109.713 59.7964L109.793 60.1019C109.838 60.3059 109.936 60.4989 110.001 60.6969C110.072 60.8944 110.143 61.0909 110.245 61.2769C110.337 61.4664 110.436 61.6524 110.521 61.8449C110.559 61.9439 110.626 62.0284 110.679 62.1194L110.848 62.3889C110.959 62.5699 111.063 62.7559 111.171 62.9404L111.377 63.2909L111.02 63.3579C110.637 63.4299 110.252 63.4954 109.864 63.5454C109.477 63.5974 109.086 63.6399 108.689 63.6539C109.048 63.4829 109.413 63.3404 109.781 63.2074C110.149 63.0724 110.52 62.9529 110.893 62.8394L110.742 63.2569C110.612 63.0734 110.478 62.8919 110.351 62.7049L110.163 62.4229C110.103 62.3269 110.031 62.2394 109.986 62.1339C109.883 61.9309 109.794 61.7209 109.698 61.5149C109.653 61.4104 109.598 61.3104 109.562 61.2024L109.47 60.8714C109.42 60.6479 109.328 60.4374 109.317 60.2054L109.28 59.8644C109.272 59.7504 109.249 59.6394 109.261 59.5239C109.277 59.2944 109.265 59.0684 109.32 58.8444C109.359 58.6229 109.421 58.3989 109.519 58.2004Z" fill="#FC6A5A"/>
<path d="M92.2121 59.3924C92.1446 59.2174 92.0961 59.0309 92.0821 58.8369C92.0671 58.6439 92.0816 58.4369 92.1766 58.2404C92.2246 58.1414 92.2951 58.0549 92.3791 57.9759C92.4701 57.9094 92.5686 57.8484 92.6751 57.8199C92.8871 57.7464 93.0976 57.7504 93.3026 57.7584L93.0776 57.8999C93.2536 57.1589 93.4116 56.4039 93.5181 55.6569C93.5736 55.2844 93.6126 54.9099 93.6111 54.5489C93.6101 54.3694 93.6021 54.1924 93.5711 54.0339C93.5416 53.8769 93.4831 53.7369 93.4196 53.6844C93.4111 53.6789 93.4036 53.6729 93.3966 53.6659C93.4291 53.6789 93.3686 53.6504 93.3591 53.6444L93.2311 53.5764C93.1566 53.5514 93.1056 53.5199 93.0236 53.5034C92.8706 53.4549 92.7106 53.4569 92.5536 53.4664C92.4016 53.4984 92.2431 53.5299 92.1081 53.6189C91.9656 53.6944 91.8471 53.8134 91.7371 53.9429C91.6316 54.0779 91.5406 54.2294 91.4686 54.3959C91.4046 54.5639 91.3356 54.7374 91.2991 54.9214C91.2051 55.2859 91.1791 55.6709 91.1486 56.0609C91.1186 55.8699 91.0721 55.6764 91.0596 55.4799C91.0451 55.2834 91.0311 55.0844 91.0506 54.8844C91.0536 54.6834 91.0951 54.4824 91.1446 54.2824C91.2006 54.0829 91.2801 53.8859 91.3916 53.6999C91.5131 53.5209 91.6566 53.3459 91.8446 53.2174C92.0236 53.0759 92.2456 52.9949 92.4686 52.9429C92.6946 52.9099 92.9281 52.8994 93.1511 52.9524C93.2606 52.9679 93.3876 53.0194 93.4951 53.0564L93.6256 53.1194C93.6581 53.1379 93.6451 53.1239 93.7146 53.1684L93.8076 53.2374C94.0391 53.4439 94.1096 53.6939 94.1616 53.9094C94.2081 54.1299 94.2231 54.3414 94.2236 54.5484C94.2171 54.9614 94.1656 55.3579 94.1001 55.7494C93.9546 56.5304 93.7406 57.2809 93.4701 58.0214L93.4081 58.1914L93.2451 58.1629C93.0811 58.1344 92.9126 58.1084 92.7636 58.1404C92.6846 58.1484 92.6221 58.1819 92.5521 58.2104C92.4921 58.2514 92.4331 58.2979 92.3866 58.3619C92.2036 58.6274 92.1746 59.0254 92.2121 59.3924Z" fill="#FC6A5A"/>
<path d="M108.559 66.2794C108.559 66.2794 108.089 66.5579 107.291 66.7244C106.895 66.8139 106.418 66.8644 105.904 66.8574C105.648 66.8429 105.379 66.8334 105.112 66.7839C104.845 66.7274 104.571 66.6834 104.309 66.5864C104.178 66.5399 104.046 66.4974 103.918 66.4454L103.546 66.2634C103.292 66.1584 103.083 65.9799 102.868 65.8364C102.644 65.7014 102.484 65.5009 102.309 65.3434C102.13 65.1889 102.004 65.0024 101.882 64.8379C101.765 64.6704 101.641 64.5309 101.572 64.3789C101.498 64.2319 101.434 64.1034 101.381 63.9979C101.279 63.7859 101.228 63.6639 101.228 63.6639C101.228 63.6639 101.32 63.7609 101.482 63.9304C101.559 64.0159 101.652 64.1194 101.759 64.2379C101.856 64.3624 102.008 64.4669 102.144 64.6029C102.286 64.7329 102.432 64.8809 102.614 65.0029C102.795 65.1254 102.962 65.2839 103.173 65.3919C103.377 65.5089 103.58 65.6414 103.808 65.7339L104.145 65.8884C104.261 65.9324 104.382 65.9654 104.5 66.0054C104.731 66.1004 104.979 66.1449 105.219 66.2039C105.461 66.2509 105.703 66.2924 105.939 66.3214C106.176 66.3354 106.405 66.3719 106.626 66.3709C106.846 66.3814 107.055 66.3799 107.25 66.3774C108.027 66.3604 108.559 66.2794 108.559 66.2794Z" fill="#FC6A5A"/>
<path d="M110.645 55.3169C110.645 55.3169 110.729 55.1949 110.913 55.0179C111.094 54.8359 111.378 54.6049 111.758 54.3774C111.953 54.2769 112.16 54.1449 112.405 54.0619C112.643 53.9614 112.908 53.8854 113.192 53.8299C113.331 53.7904 113.48 53.7829 113.631 53.7709C113.782 53.7634 113.934 53.7364 114.091 53.7534C114.404 53.7764 114.725 53.8024 115.035 53.9119C115.353 53.9884 115.638 54.1514 115.914 54.3114C116.06 54.3799 116.17 54.4939 116.288 54.5934C116.404 54.6949 116.518 54.7949 116.624 54.8974C116.815 55.1194 116.97 55.3559 117.119 55.5704C117.257 55.7919 117.332 56.0284 117.421 56.2319C117.462 56.3354 117.504 56.4319 117.537 56.5264C117.565 56.6229 117.578 56.7194 117.597 56.8064C117.635 56.9809 117.655 57.1359 117.673 57.2614C117.708 57.5129 117.713 57.6569 117.713 57.6569C117.713 57.6569 117.607 57.5479 117.448 57.3559C117.37 57.2594 117.272 57.1459 117.175 57.0114C117.082 56.8734 116.952 56.7374 116.815 56.5924C116.675 56.4514 116.547 56.2814 116.387 56.1339C116.228 55.9944 116.059 55.8479 115.885 55.6959C115.688 55.5869 115.517 55.4314 115.312 55.3374C115.103 55.2494 114.909 55.1284 114.682 55.0859C114.47 54.9989 114.236 54.9834 114.01 54.9389C113.78 54.9224 113.547 54.8984 113.315 54.9079C113.084 54.9139 112.855 54.9219 112.636 54.9529C112.414 54.9664 112.205 55.0124 112.005 55.0344C111.812 55.0794 111.624 55.1014 111.461 55.1394C111.295 55.1749 111.151 55.2064 111.032 55.2319C110.785 55.2849 110.645 55.3169 110.645 55.3169Z" fill="#6D3535"/>
<path d="M99.2227 52.9414C99.2227 52.9414 99.3022 52.8069 99.4802 52.6034C99.6542 52.3959 99.9292 52.1249 100.301 51.8439C100.491 51.7124 100.696 51.5579 100.935 51.4334C101.173 51.3054 101.43 51.1754 101.717 51.0819C101.995 50.9654 102.31 50.9109 102.625 50.8464C102.785 50.8204 102.952 50.8164 103.118 50.8079C103.284 50.8004 103.45 50.7899 103.62 50.8174L104.123 50.8869C104.289 50.9174 104.447 50.9879 104.607 51.0389C104.934 51.1269 105.206 51.3204 105.473 51.4869C105.61 51.5664 105.729 51.6619 105.83 51.7734C105.934 51.8784 106.037 51.9809 106.136 52.0809C106.347 52.2684 106.454 52.5164 106.586 52.7124C106.711 52.9144 106.826 53.0949 106.878 53.2819C106.946 53.4594 106.993 53.6189 107.032 53.7474C107.11 54.0054 107.139 54.1544 107.139 54.1544C107.139 54.1544 107.014 54.0529 106.823 53.8724C106.728 53.7819 106.611 53.6749 106.491 53.5474C106.378 53.4129 106.206 53.3039 106.049 53.1679C105.878 53.0454 105.73 52.8734 105.522 52.7704C105.426 52.7104 105.327 52.6494 105.226 52.5864L105.079 52.4889C105.026 52.4624 104.969 52.4434 104.914 52.4199C104.693 52.3314 104.482 52.2114 104.239 52.1694C104.12 52.1419 104.006 52.0994 103.884 52.0784L103.514 52.0379C103.393 52.0104 103.265 52.0184 103.139 52.0214C103.012 52.0289 102.886 52.0119 102.759 52.0254C102.506 52.0624 102.251 52.0664 102.004 52.1264C101.755 52.1644 101.515 52.2259 101.283 52.2839C101.051 52.3394 100.831 52.4099 100.623 52.4654C100.424 52.5404 100.226 52.5869 100.06 52.6499C99.8897 52.7089 99.7406 52.7599 99.6181 52.8019C99.3661 52.8914 99.2227 52.9414 99.2227 52.9414Z" fill="#6D3535"/>
<path d="M103.7 56.2849C103.7 56.2849 103.71 56.4099 103.7 56.6299C103.683 56.8479 103.664 57.1644 103.573 57.5364C103.482 57.9064 103.336 58.3419 103.03 58.7564C102.873 58.9579 102.673 59.1594 102.406 59.2904C102.148 59.4244 101.804 59.4574 101.548 59.4234C101.262 59.3989 100.988 59.3089 100.735 59.1569C100.483 59.0039 100.291 58.7684 100.176 58.5279C99.9414 58.0409 99.9439 57.5669 99.9629 57.1894C99.9819 56.8074 100.057 56.5009 100.094 56.2864C100.137 56.0724 100.172 55.9509 100.172 55.9509C100.172 55.9509 100.19 56.0759 100.206 56.2929C100.218 56.5094 100.253 56.8199 100.293 57.1784C100.342 57.5334 100.417 57.9509 100.617 58.2899C100.718 58.4579 100.855 58.5919 101.02 58.6919C101.185 58.7894 101.395 58.8434 101.599 58.8689C101.832 58.9014 101.998 58.8829 102.18 58.8029C102.357 58.7309 102.519 58.6004 102.657 58.4479C102.936 58.1404 103.129 57.7629 103.278 57.4364C103.425 57.1064 103.534 56.8174 103.597 56.6109C103.662 56.4034 103.7 56.2849 103.7 56.2849Z" fill="#252028"/>
<path d="M114.875 58.9705C114.875 58.9705 114.871 59.096 114.842 59.3145C114.805 59.5305 114.761 59.8445 114.643 60.2095C114.523 60.572 114.348 60.999 114.001 61.3885C113.824 61.5765 113.596 61.7575 113.312 61.8535C113.031 61.951 112.702 61.94 112.439 61.873C112.171 61.817 111.9 61.696 111.669 61.5225C111.435 61.3495 111.261 61.1025 111.162 60.8525C110.964 60.3455 111.008 59.868 111.064 59.493C111.12 59.1125 111.228 58.8145 111.286 58.6045C111.352 58.3955 111.398 58.278 111.398 58.278C111.398 58.278 111.404 58.4045 111.398 58.623C111.388 58.8405 111.391 59.154 111.396 59.515C111.409 59.8735 111.448 60.295 111.621 60.648C111.711 60.822 111.836 60.969 111.995 61.0855C112.157 61.2035 112.353 61.2755 112.566 61.332C112.781 61.391 112.966 61.396 113.151 61.341C113.335 61.295 113.508 61.1845 113.658 61.047C113.964 60.7695 114.183 60.404 114.357 60.0885C114.528 59.769 114.659 59.4875 114.74 59.2865C114.826 59.0855 114.875 58.9705 114.875 58.9705Z" fill="#252028"/>
<path d="M175.851 59.3455C175.851 59.3455 167.946 61.463 166.326 56.098C164.707 50.733 169.713 50.558 169.713 50.558C169.713 50.558 165.292 52.861 164.02 51.5755C162.747 50.29 167.82 49.09 167.82 49.09C167.82 49.09 162.945 50.079 161.918 47.046C160.891 44.013 162.944 41.2815 166.921 40.938C170.899 40.5945 163.585 42.0775 162.591 39.964C161.596 37.8505 165.934 39.0285 165.934 39.0285C165.934 39.0285 161.114 38.6855 161.815 32.421C162.517 26.1565 169.586 29.3875 169.586 29.3875C169.586 29.3875 165.647 27.8885 166.608 26.116C167.569 24.3435 172.069 27.255 172.069 27.255C172.069 27.255 167.85 23.6175 170.742 21.4705C173.633 19.3235 175.87 24.7695 175.87 24.7695C175.87 24.7695 174.028 18.9005 178.575 17.3095C183.123 15.7185 185.314 22.8025 185.314 22.8025C185.314 22.8025 184.431 18.0255 185.453 17.9895C186.474 17.9535 187.643 22.107 187.643 22.107C187.643 22.107 188.405 17.5795 189.325 17.547C190.244 17.515 189.398 22.557 189.398 22.557C189.398 22.557 189.75 15.077 195.229 16.727C200.709 18.3765 196.949 24.953 196.949 24.953C196.949 24.953 198.375 21.8345 200.119 21.978C201.863 22.1215 200.695 26.766 200.695 26.766C200.695 26.766 204.304 21.7295 208.977 23.7145C213.649 25.6995 207.216 31.8575 207.216 31.8575C207.216 31.8575 210.184 28.9915 211.584 30.9885C212.984 32.9855 208.976 35.376 208.976 35.376C208.976 35.376 214.027 33.5625 214.684 37.734C215.342 41.905 208.736 43.159 208.736 43.159C208.736 43.159 212.907 42.5015 213.056 43.8265C213.205 45.151 208.272 44.505 208.272 44.505C208.272 44.505 213.497 44.7315 212.952 46.694C212.407 48.6565 208.129 46.249 208.129 46.249C208.129 46.249 213.823 48.198 210.612 52.9135C207.401 57.629 203.901 54.069 203.901 54.069C203.901 54.069 209.296 56.233 206.412 58.5845C203.527 60.936 201.337 56.8185 201.337 56.8185C201.337 56.8185 204.792 62.017 202.633 61.6835C200.473 61.35 198.439 58.7615 198.439 58.7615C198.439 58.7615 200.759 63.693 197.191 64.022C193.622 64.3515 192.056 60.519 192.056 60.519L175.851 59.3455Z" fill="#352C38"/>
<path d="M182.61 59.6884C182.61 59.6884 183.877 67.7959 181.322 69.0329C178.767 70.2704 171.913 63.7539 169.605 71.8559C167.297 79.9574 200.099 83.4814 201.145 78.4399C202.191 73.3979 200.742 67.6929 195.55 67.8794C190.358 68.0659 193.872 53.8929 193.872 53.8929L182.61 59.6884Z" fill="#6D3535"/>
<path d="M185.411 33.7665C185.411 33.7665 174.637 32.751 172.85 49.9165C171.064 67.082 191.934 66.75 196.72 50.076C201.507 33.4025 185.411 33.7665 185.411 33.7665Z" fill="#965450"/>
<path d="M194.584 51.543C194.584 51.543 198.341 45.2465 201.083 49.7245C203.825 54.203 190.91 60.223 194.584 51.543Z" fill="#965450"/>
<path d="M181.408 33.0115C181.408 33.0115 180.051 39.721 182.36 40.3365C184.668 40.952 185.102 39.147 185.102 39.147C185.102 39.147 185.159 43.6195 187.94 43.5225C190.721 43.425 190.507 40.1515 190.507 40.1515C190.507 40.1515 189.198 45.368 195.356 45.1525C195.356 45.1525 192.02 52.13 193.534 52.7735C195.048 53.4165 196.983 46.1895 199.947 48.4725C202.91 50.7555 208.395 39.8245 199.874 32.1675C191.352 24.51 183.206 27.5795 181.408 33.0115Z" fill="#352C38"/>
<path d="M195.986 54.676C196.256 54.575 196.521 54.462 196.77 54.331C196.895 54.267 197.016 54.1965 197.123 54.117C197.229 54.038 197.326 53.9455 197.371 53.858C197.416 53.767 197.395 53.7205 197.342 53.643C197.282 53.568 197.178 53.494 197.071 53.428C196.848 53.2975 196.588 53.1995 196.329 53.1075L196.114 53.0315L196.176 52.801C196.364 52.108 196.61 51.4485 196.961 50.8135C197.048 50.655 197.142 50.498 197.249 50.348C197.356 50.1975 197.472 50.051 197.606 49.9135C197.666 49.841 197.747 49.78 197.821 49.7155C197.892 49.6495 197.973 49.5895 198.066 49.54C198.234 49.4285 198.452 49.3545 198.669 49.3375C198.783 49.341 198.884 49.3155 199.008 49.3525C199.098 49.378 199.164 49.3775 199.273 49.4235C199.492 49.503 199.666 49.616 199.81 49.7565C200.1 50.04 200.277 50.402 200.348 50.771C200.422 51.1395 200.409 51.5215 200.291 51.872C200.238 52.0475 200.146 52.2135 200.027 52.352C199.915 52.4975 199.753 52.592 199.595 52.6605C199.736 52.5545 199.851 52.4305 199.927 52.2825C200.006 52.1385 200.055 51.9795 200.077 51.8185C200.105 51.659 200.103 51.4945 200.087 51.3345C200.073 51.1745 200.039 51.016 199.987 50.867C199.882 50.57 199.719 50.296 199.491 50.118C199.377 50.028 199.248 49.9645 199.141 49.927C199.093 49.8995 198.981 49.895 198.904 49.8775C198.86 49.86 198.784 49.8875 198.727 49.885C198.604 49.902 198.483 49.9505 198.366 50.03C198.305 50.0615 198.247 50.105 198.193 50.159C198.138 50.21 198.079 50.252 198.03 50.3155C197.924 50.428 197.827 50.554 197.736 50.688C197.647 50.823 197.555 50.9585 197.475 51.1025C197.152 51.677 196.882 52.3105 196.666 52.9405L196.513 52.634C196.785 52.754 197.054 52.8875 197.312 53.0705C197.438 53.168 197.568 53.2705 197.665 53.438C197.71 53.5235 197.753 53.624 197.747 53.738C197.747 53.85 197.703 53.9545 197.648 54.0305C197.536 54.185 197.396 54.269 197.26 54.34C197.123 54.4095 196.983 54.4615 196.843 54.5065C196.56 54.5915 196.274 54.647 195.986 54.676Z" fill="#512520"/>
<path d="M180.589 46.5635C180.568 47.0965 180.448 47.6225 180.282 48.132C180.195 48.3855 180.095 48.6355 179.983 48.881C179.867 49.1245 179.736 49.3625 179.595 49.5935C179.452 49.825 179.288 50.0425 179.118 50.256C179.039 50.367 178.939 50.4625 178.846 50.5625C178.752 50.6615 178.66 50.763 178.554 50.8505L178.245 51.1225L177.907 51.3575C177.689 51.5245 177.431 51.6315 177.192 51.76L177.273 51.4275C177.62 52.003 177.952 52.5895 178.237 53.2085C177.754 52.7275 177.318 52.2135 176.898 51.689L176.764 51.5215L176.979 51.356C177.18 51.2015 177.404 51.0885 177.591 50.9205C177.789 50.7675 177.974 50.6015 178.155 50.428C178.249 50.347 178.33 50.2505 178.414 50.158C178.495 50.062 178.589 49.979 178.665 49.8785C178.828 49.6875 178.981 49.488 179.124 49.28C179.273 49.0765 179.413 48.864 179.541 48.644C179.679 48.4295 179.8 48.2035 179.922 47.9775C180.164 47.5235 180.384 47.0535 180.589 46.5635Z" fill="#512520"/>
<path d="M176.387 54.3669L186.973 55.6874C186.973 55.6874 180.225 58.9059 176.387 54.3669Z" fill="white"/>
<path d="M184.013 44.9519C184.013 44.9519 184.079 44.7959 184.246 44.5529C184.407 44.3064 184.672 43.9759 185.052 43.6319C185.247 43.4669 185.457 43.2789 185.715 43.1264C185.96 42.9529 186.256 42.8264 186.562 42.6894C186.717 42.6274 186.887 42.5889 187.054 42.5399L187.31 42.4709L187.579 42.4429C187.759 42.4299 187.942 42.3979 188.126 42.4039L188.68 42.4589C188.868 42.4689 189.042 42.5334 189.218 42.5884C189.394 42.6439 189.569 42.7019 189.736 42.7684C190.044 42.9469 190.362 43.1089 190.62 43.3164C190.868 43.5364 191.103 43.7519 191.312 43.9629C191.492 44.1979 191.652 44.4264 191.796 44.6354C191.866 44.7414 191.943 44.8349 191.997 44.9369C192.046 45.0414 192.092 45.1409 192.136 45.2339C192.225 45.4179 192.292 45.5839 192.348 45.7184C192.459 45.9879 192.508 46.1459 192.508 46.1459C192.508 46.1459 192.37 46.0419 192.153 45.8529C192.045 45.7579 191.913 45.6459 191.773 45.5104C191.635 45.3739 191.473 45.2274 191.283 45.0884C191.097 44.9449 190.9 44.7909 190.702 44.6219C190.483 44.4834 190.252 44.3454 190.026 44.1914C189.792 44.0524 189.53 43.9674 189.287 43.8344C189.157 43.7979 189.025 43.7614 188.893 43.7249C188.762 43.6859 188.632 43.6364 188.495 43.6364L188.09 43.5849C187.955 43.5799 187.818 43.5924 187.682 43.5934L187.479 43.5969L187.277 43.6304C187.143 43.6554 187.008 43.6684 186.876 43.6959C186.617 43.7739 186.355 43.8244 186.117 43.9254C185.871 44.0049 185.645 44.1084 185.43 44.1984C185.223 44.3004 185.025 44.3919 184.853 44.4814C184.686 44.5764 184.528 44.6509 184.407 44.7244C184.156 44.8699 184.013 44.9519 184.013 44.9519Z" fill="#211C23"/>
<path d="M180.122 44.591C180.122 44.591 180.03 44.51 179.87 44.368C179.792 44.3 179.698 44.2175 179.59 44.1225C179.488 44.027 179.356 43.934 179.233 43.8225C179.095 43.7255 178.968 43.601 178.812 43.5025C178.667 43.39 178.508 43.2905 178.345 43.194C178.186 43.093 178.012 43.0195 177.844 42.941C177.67 42.8835 177.501 42.807 177.322 42.789C177.15 42.7275 176.968 42.7545 176.79 42.73C176.61 42.734 176.429 42.768 176.246 42.7755C176.068 42.828 175.889 42.8695 175.712 42.9065C175.537 42.9695 175.372 43.0295 175.219 43.0845C175.058 43.132 174.91 43.187 174.785 43.2505C174.658 43.3105 174.539 43.355 174.441 43.394C174.244 43.471 174.118 43.508 174.118 43.508C174.118 43.508 174.171 43.3965 174.286 43.214C174.344 43.1235 174.414 43.01 174.506 42.8895C174.551 42.8275 174.599 42.762 174.65 42.6925C174.708 42.631 174.775 42.571 174.843 42.505C174.982 42.378 175.134 42.2345 175.312 42.103C175.505 41.9905 175.716 41.874 175.941 41.763C176.184 41.6925 176.442 41.6035 176.715 41.576C176.993 41.5675 177.281 41.5445 177.558 41.621C177.843 41.667 178.1 41.78 178.346 41.9015C178.473 41.9555 178.574 42.044 178.683 42.116C178.791 42.1905 178.898 42.2635 178.982 42.3545C179.168 42.5215 179.325 42.698 179.452 42.8785C179.591 43.05 179.68 43.2385 179.775 43.4C179.937 43.7425 180.033 44.0365 180.074 44.252C180.122 44.464 180.122 44.591 180.122 44.591Z" fill="#211C23"/>
<path d="M189.033 48.1184C189.033 48.1184 189.043 48.2434 189.033 48.4634C189.016 48.6814 188.997 48.9979 188.906 49.3699C188.815 49.7399 188.669 50.1754 188.363 50.5899C188.207 50.7914 188.006 50.9929 187.739 51.1239C187.481 51.2579 187.137 51.2909 186.881 51.2569C186.595 51.2324 186.321 51.1424 186.068 50.9904C185.816 50.8374 185.624 50.6019 185.509 50.3614C185.274 49.8744 185.277 49.4004 185.296 49.0229C185.315 48.6409 185.39 48.3344 185.427 48.1199C185.47 47.9059 185.505 47.7844 185.505 47.7844C185.505 47.7844 185.523 47.9094 185.539 48.1264C185.551 48.3429 185.586 48.6534 185.626 49.0119C185.675 49.3669 185.75 49.7844 185.95 50.1234C186.051 50.2914 186.188 50.4254 186.353 50.5254C186.518 50.6229 186.728 50.6769 186.932 50.7024C187.165 50.7349 187.331 50.7164 187.513 50.6364C187.69 50.5644 187.852 50.4339 187.989 50.2814C188.269 49.9739 188.461 49.5964 188.611 49.2699C188.758 48.9399 188.867 48.6509 188.929 48.4444C188.995 48.2369 189.033 48.1184 189.033 48.1184Z" fill="#252028"/>
<path d="M178.536 47.119C178.536 47.119 178.543 47.223 178.536 47.4065C178.528 47.589 178.506 47.852 178.43 48.1615C178.353 48.47 178.232 48.8325 177.977 49.178C177.847 49.346 177.68 49.514 177.457 49.623C177.242 49.735 176.956 49.762 176.742 49.734C176.504 49.7135 176.275 49.6385 176.065 49.512C175.855 49.3845 175.695 49.1885 175.599 48.988C175.403 48.582 175.406 48.1875 175.421 47.8725C175.439 47.554 175.492 47.2985 175.529 47.12C175.571 46.9425 175.595 46.8405 175.595 46.8405C175.595 46.8405 175.636 47.2495 175.696 47.8635C175.737 48.159 175.799 48.507 175.966 48.7895C176.051 48.9295 176.164 49.041 176.301 49.1245C176.439 49.2055 176.614 49.251 176.784 49.272C176.978 49.299 177.117 49.2835 177.268 49.217C177.416 49.157 177.551 49.0485 177.665 48.921C177.898 48.6645 178.059 48.35 178.183 48.0785C178.306 47.8035 178.39 47.5615 178.448 47.3905C178.504 47.2175 178.536 47.119 178.536 47.119Z" fill="#252028"/>
<path d="M140.999 110.444C142.406 109.606 145.093 109.829 148.136 110.538C147.994 112.899 152.144 107.127 152.234 109.502C150.954 108.722 146.102 116.367 146.102 116.367C146.102 116.367 138.018 123.506 137.694 119.373C137.694 119.373 136.5 119.825 136.56 118.518C136.56 118.518 135.14 118.515 135.905 117.123C135.905 117.123 131.553 121.049 131.232 120.727C130.912 120.404 136.438 113.161 140.999 110.444Z" fill="#965450"/>
<path d="M135.886 117.119C136.307 116.683 136.743 116.261 137.204 115.865C137.436 115.668 137.672 115.475 137.928 115.306C138.056 115.221 138.189 115.142 138.333 115.077C138.477 115.023 138.634 114.936 138.833 115.014C138.88 115.031 138.923 115.074 138.95 115.113C138.964 115.14 138.972 115.143 138.99 115.19L139.002 115.246C139.025 115.315 139.03 115.397 139.019 115.491C139.004 115.667 138.95 115.811 138.89 115.957C138.766 116.245 138.605 116.509 138.434 116.764C138.081 117.266 137.689 117.733 137.269 118.179C137.226 118.225 137.154 118.227 137.108 118.184C137.063 118.142 137.061 118.07 137.102 118.025C137.491 117.592 137.893 117.176 138.322 116.781C138.538 116.586 138.757 116.392 138.999 116.221C139.119 116.135 139.244 116.053 139.382 115.984C139.522 115.922 139.664 115.841 139.871 115.871C139.972 115.888 140.082 115.956 140.12 116.065C140.133 116.1 140.152 116.125 140.161 116.169C140.167 116.218 140.171 116.27 140.172 116.32C140.163 116.505 140.104 116.641 140.044 116.784C139.914 117.057 139.748 117.3 139.576 117.537C139.225 118.005 138.843 118.441 138.43 118.852L138.3 118.7C138.653 118.454 139.012 118.222 139.385 118.006C139.571 117.899 139.761 117.795 139.959 117.706C140.058 117.662 140.16 117.621 140.268 117.59C140.374 117.568 140.495 117.517 140.637 117.606C140.671 117.638 140.686 117.661 140.701 117.716L140.705 117.796C140.707 117.85 140.689 117.917 140.678 117.974C140.645 118.081 140.602 118.182 140.554 118.28C140.455 118.473 140.34 118.655 140.221 118.833C139.979 119.186 139.717 119.525 139.441 119.851C139.7 119.511 139.944 119.161 140.166 118.798C140.275 118.615 140.379 118.43 140.465 118.238C140.507 118.142 140.542 118.044 140.568 117.946C140.572 117.898 140.588 117.861 140.584 117.808L140.576 117.728C140.573 117.733 140.565 117.708 140.556 117.705C140.513 117.673 140.399 117.69 140.307 117.721C140.21 117.751 140.115 117.793 140.021 117.839C139.832 117.93 139.649 118.036 139.469 118.147C139.109 118.369 138.758 118.612 138.418 118.863C138.373 118.896 138.31 118.886 138.278 118.842C138.248 118.802 138.253 118.748 138.285 118.714L138.288 118.711C138.678 118.296 139.061 117.865 139.396 117.406C139.56 117.175 139.718 116.938 139.833 116.689C139.886 116.567 139.933 116.429 139.937 116.326C139.936 116.304 139.938 116.283 139.942 116.261C139.94 116.235 139.916 116.197 139.904 116.166C139.899 116.133 139.865 116.114 139.828 116.109C139.745 116.091 139.608 116.144 139.493 116.203C139.374 116.265 139.257 116.342 139.144 116.424C138.917 116.589 138.699 116.773 138.486 116.963C138.063 117.345 137.658 117.756 137.273 118.177L137.107 118.022C137.521 117.591 137.914 117.13 138.263 116.645C138.437 116.402 138.599 116.151 138.722 115.886C138.782 115.756 138.835 115.61 138.849 115.486L138.861 115.393C138.858 115.357 138.848 115.319 138.842 115.282L138.831 115.226C138.833 115.239 138.82 115.21 138.817 115.204C138.803 115.184 138.789 115.165 138.765 115.157C138.677 115.109 138.518 115.159 138.391 115.211C138.257 115.267 138.126 115.339 138 115.418C137.747 115.578 137.501 115.752 137.262 115.937C136.785 116.306 136.328 116.705 135.886 117.119Z" fill="#512520"/>
<path d="M143.076 109.896C143.076 109.896 138.96 110.474 137.453 112.098C135.945 113.722 138.867 116.137 139.816 116.569C140.764 117.001 139.064 114.092 139.064 114.092C139.064 114.092 140.8 116.108 143.462 114.08" fill="#965450"/>
<path d="M137.453 112.099C137.359 112.253 137.222 112.387 137.177 112.564C137.097 112.726 137.09 112.908 137.069 113.083C137.087 113.26 137.096 113.437 137.16 113.605C137.199 113.777 137.29 113.935 137.36 114.096C137.454 114.248 137.536 114.407 137.648 114.547C137.75 114.694 137.867 114.83 137.985 114.964C138.226 115.229 138.484 115.479 138.759 115.71C139.032 115.942 139.322 116.158 139.627 116.336C139.702 116.384 139.781 116.417 139.857 116.459C139.936 116.499 140.006 116.49 139.976 116.496C139.978 116.505 139.99 116.41 139.97 116.335C139.956 116.256 139.931 116.172 139.903 116.09C139.665 115.426 139.318 114.777 138.967 114.149C138.937 114.095 138.956 114.026 139.011 113.996C139.057 113.97 139.115 113.981 139.149 114.019C139.273 114.154 139.429 114.283 139.588 114.393C139.75 114.502 139.921 114.597 140.1 114.675C140.191 114.709 140.279 114.756 140.374 114.778C140.468 114.801 140.56 114.841 140.658 114.851C140.85 114.892 141.046 114.901 141.243 114.905C141.439 114.888 141.638 114.882 141.83 114.828C141.925 114.801 142.027 114.795 142.119 114.756L142.402 114.658C142.591 114.591 142.765 114.487 142.948 114.404L143.461 114.081L142.971 114.441C142.793 114.539 142.624 114.656 142.437 114.738L142.154 114.86C142.062 114.906 141.959 114.922 141.86 114.953C141.663 115.017 141.455 115.032 141.25 115.059C141.042 115.063 140.833 115.062 140.627 115.026C140.522 115.019 140.423 114.982 140.321 114.96C140.217 114.94 140.122 114.896 140.023 114.862C139.826 114.789 139.642 114.687 139.467 114.573C139.292 114.454 139.131 114.327 138.98 114.166L139.162 114.036C139.347 114.353 139.523 114.672 139.691 114.998C139.855 115.326 140.021 115.654 140.138 116.013C140.167 116.103 140.194 116.194 140.211 116.294C140.217 116.393 140.264 116.501 140.152 116.659C140.082 116.733 139.978 116.741 139.918 116.725C139.835 116.71 139.823 116.697 139.76 116.673C139.677 116.628 139.588 116.587 139.511 116.537C139.19 116.343 138.897 116.118 138.619 115.876C138.338 115.638 138.081 115.371 137.845 115.086C137.729 114.943 137.614 114.798 137.515 114.641C137.405 114.492 137.325 114.323 137.234 114.162C137.168 113.988 137.077 113.823 137.048 113.636C136.994 113.456 136.998 113.266 136.992 113.081C137.026 112.897 137.048 112.711 137.144 112.547C137.203 112.368 137.348 112.247 137.453 112.099Z" fill="#512520"/>
<path d="M143.125 109.5L147.125 115.625C147.125 115.625 166 110.375 170.875 102.75C175.75 95.125 178.401 66.9465 175.388 65.598C172.375 64.25 166.75 66.75 166.5 70.625C166.25 74.5 163.75 93.75 163.75 93.75L143.125 109.5Z" fill="#FFA65B"/>
<path d="M171.108 79.3089C169.216 77.8309 167.647 76.0409 166.155 74.1804C165.403 81.0169 163.75 93.7499 163.75 93.7499L143.125 109.5L147.125 115.625C147.125 115.625 166 110.375 170.875 102.75C173.292 98.9694 175.161 90.1384 176.066 82.0284C174.325 81.2599 172.597 80.4719 171.108 79.3089Z" fill="#E58B48"/>
<path d="M171.622 156.747C171.622 156.747 182.106 169.252 180.268 211.467C180.268 211.467 153.278 213.733 175.028 209.206C175.028 209.206 155.263 159.402 162.141 157.287C169.019 155.173 171.622 156.747 171.622 156.747Z" fill="#965450"/>
<path d="M174.095 192.497C176.165 192.658 178.199 192.41 180.238 192.215C178.806 165.317 171.622 156.747 171.622 156.747C171.622 156.747 169.019 155.174 162.141 157.288C158.069 158.54 163.334 176.502 168.309 190.953C170.091 191.823 172.021 192.335 174.095 192.497Z" fill="#6D3535"/>
<path d="M171.653 209.86C171.653 209.86 165.699 210.805 166.077 211.845C166.455 212.884 180.268 211.467 180.268 211.467L180.347 210.049C180.347 210.049 171.086 211.372 171.653 209.86Z" fill="#1F1A21"/>
<path d="M189.15 173.137C189.15 173.137 187.76 190.974 203.267 211.647C203.267 211.647 222.102 218.1 206.453 209.398C206.453 209.398 206.19 176.125 198.313 169.184C190.435 162.244 189.15 173.137 189.15 173.137Z" fill="#965450"/>
<path d="M201.356 192.888C202.435 192.471 203.906 191.925 205.256 191.199C204.183 182.206 202.153 172.567 198.313 169.184C190.436 162.244 189.151 173.137 189.151 173.137C189.151 173.137 188.513 181.396 192.984 193.183C195.773 193.612 198.452 194.012 201.356 192.888Z" fill="#6D3535"/>
<path d="M202.314 210.427L203.266 211.647C203.266 211.647 212.143 215.152 213.088 214.018C214.033 212.884 208.079 210.333 208.079 210.333C208.079 210.333 211.198 212.885 202.314 210.427Z" fill="#1F1A21"/>
<path d="M171.599 97.3475C171.599 97.3475 161.35 106.107 157.138 124.285C152.926 142.463 160.387 189.157 160.387 189.157C160.387 189.157 191.96 193.853 210.167 187.833C210.167 187.833 214.847 120.604 193.419 101.137L171.599 97.3475Z" fill="#5D8584"/>
<path d="M172.884 101.366C175.902 102.071 178.961 102.629 182.075 102.5C185.511 102.358 188.868 101.72 192.196 100.924L171.599 97.3475C171.599 97.3475 170.45 98.333 168.766 100.318C170.091 100.794 171.534 101.051 172.884 101.366Z" fill="#4E7B7C"/>
<path d="M168.196 67.382C168.196 67.382 171.385 63.415 179.5 66.1145C179.5 66.1145 182.018 66.616 181.994 62.6605L194.633 62.6135C194.633 62.6135 194.186 67.824 196.601 68.1865C199.016 68.549 206.48 70.657 205.145 76.2605C203.81 81.864 197.547 95.6195 194.105 101.277C194.105 101.277 181.382 102.949 170.64 98.003C170.64 98.003 164.306 87.544 169.675 78.1L168.196 67.382Z" fill="#FFA65B"/>
<path d="M200.749 69.4375C200.226 73.5095 194.546 92.5965 172.717 94.1735C171.377 94.27 170.052 93.823 168.722 93.6155C169.602 96.286 170.641 98.003 170.641 98.003C181.383 102.949 194.106 101.277 194.106 101.277C197.548 95.619 203.811 81.864 205.146 76.2605C205.977 72.7715 203.397 70.6385 200.749 69.4375Z" fill="#E58B48"/>
<path d="M205.4 109.604C205.4 109.604 204.889 113.613 201.404 112.09C200.162 111.547 197.916 109.649 197.916 109.649C197.916 109.649 189.659 115.953 197.552 108.101C197.552 108.101 185.878 111.906 197.348 106.548C197.348 106.548 186.28 109.296 196.999 105.519C196.999 105.519 188.356 104.039 198.719 104.429C198.719 104.429 201.768 105.322 202.301 107.212L204.91 103.729L205.4 109.604Z" fill="#965450"/>
<path d="M194.611 68.0476C194.611 68.0476 201.317 66.6851 205.691 72.1206C210.044 77.5291 221.277 87.7591 220.034 91.7916C218.791 95.8241 212.125 105.792 204.781 111.707L201.069 105.747L209.832 90.3481L212.574 94.3106L194.262 76.7781L194.611 68.0476Z" fill="#FFA65B"/>
<path d="M61.8363 126.785C61.8363 127.617 61.1908 128.291 60.3938 128.291H21.4518C20.6553 128.291 20.0098 127.617 20.0098 126.785V101.42C20.0098 100.589 20.6553 99.9146 21.4518 99.9146H60.3938C61.1903 99.9146 61.8363 100.589 61.8363 101.42V126.785Z" fill="#352C38"/>
<path d="M11.9111 126.218V127.174C11.9111 128.055 12.6251 128.769 13.5056 128.769H66.3041C67.1846 128.769 67.8986 128.055 67.8986 127.174V126.218H11.9111Z" fill="#352C38"/>
<path d="M66.2181 127.538C66.2371 127.44 66.2471 127.34 66.2471 127.237V126.333H15.5996V127.237C15.5996 127.34 15.6096 127.441 15.6286 127.538H66.2181Z" fill="#443A49"/>
<path d="M59.8895 102.775H21.957V121.968H59.8895V102.775Z" fill="white"/>
<path d="M181.536 134.539H176.685V212.819H181.536V134.539Z" fill="#352C38"/>
<path d="M181.536 134.592H176.685V140.792H181.536V134.592Z" fill="#1F1A21"/>
<path d="M59.2778 136.091H54.4268V214.371H59.2778V136.091Z" fill="#352C38"/>
<path d="M17.5815 132.988H12.7305V214.37H17.5815V132.988Z" fill="#352C38"/>
<path d="M59.2778 133.781H54.4268V193.802H59.2778V133.781Z" fill="#1F1A21"/>
<path d="M17.5815 132.988H12.7305V193.802H17.5815V132.988Z" fill="#1F1A21"/>
<path d="M192.582 128.738H0.0810547V135.313H192.582V128.738Z" fill="#FFA65B"/>
<path d="M65.8323 142.125H6.1748V191.791H65.8323V142.125Z" fill="#FFA65B"/>
<path d="M63.3845 145.291H8.62402V188.273H63.3845V145.291Z" fill="#352C38"/>
<path d="M62.7339 162.612H9.27441V187.417H62.7339V162.612Z" fill="#FFA65B"/>
<path d="M62.7339 145.932H9.27441V161.757H62.7339V145.932Z" fill="#FFA65B"/>
<path d="M45.2698 152.789H26.7373V155.105H45.2698V152.789Z" fill="#352C38"/>
<path d="M45.2698 173.175H26.7373V175.491H45.2698V173.175Z" fill="#352C38"/>
</svg>
