<svg width="34" height="27" viewBox="0 0 34 27" fill="none" xmlns="http://www.w3.org/2000/svg">
<path d="M0.205997 24.981L10.1683 17.2635C8.33942 15.494 7.24031 13.2414 7.24031 10.7914C7.24031 5.06789 13.2283 0.433289 20.6055 0.433289C27.9915 0.433289 33.9707 5.07469 33.9707 10.7914C33.9707 16.5081 27.9827 21.1495 20.6055 21.1495C17.4225 21.1495 14.5032 20.2852 12.2083 18.8492L2.25474 26.5667L0.205997 24.981ZM29.0643 17.352C31.324 15.6029 32.5638 13.2754 32.5638 10.7982C32.5638 8.32096 31.3153 5.99345 29.0643 4.24441C26.8133 2.49538 23.7973 1.52218 20.6055 1.52218C17.4137 1.52218 14.4065 2.48857 12.1467 4.23761C9.88697 5.98664 8.64717 8.31415 8.64717 10.7914C8.64717 13.2686 9.89576 15.5961 12.1467 17.3452C14.4065 19.0942 17.4137 20.0606 20.6055 20.0606C23.7973 20.0674 26.8045 19.101 29.0643 17.352Z" fill="#403727"/>
</svg>
