<svg width="228" height="170" viewBox="0 0 228 170" fill="none" xmlns="http://www.w3.org/2000/svg">
<path d="M39.2688 163.852V161.079H23.5518V163.852" stroke="#78A494" stroke-width="4.6864" stroke-miterlimit="10"/>
<path d="M37.8643 165.12C37.8643 163.938 38.4926 162.98 39.2753 162.945V162.938H40.2539V163.462C40.5693 163.862 40.7736 164.452 40.7736 165.12C40.7736 165.788 40.5693 166.379 40.2539 166.779V167.302H39.2753V167.296C38.4926 167.26 37.8643 166.303 37.8643 165.12Z" fill="#78A494"/>
<path d="M38.7988 165.12C38.7988 166.325 39.4502 167.302 40.2535 167.302C41.0568 167.302 41.7082 166.325 41.7082 165.12C41.7082 163.915 41.0568 162.938 40.2535 162.938C39.4502 162.938 38.7988 163.915 38.7988 165.12Z" fill="#A3C6B9"/>
<path d="M21.3467 165.12C21.3467 163.938 21.975 162.98 22.7577 162.945V162.938H23.7363V163.462C24.0517 163.862 24.256 164.452 24.256 165.12C24.256 165.788 24.0517 166.379 23.7363 166.779V167.302H22.7577V167.296C21.9747 167.26 21.3467 166.303 21.3467 165.12Z" fill="#78A494"/>
<path d="M22.2812 165.12C22.2812 166.325 22.9326 167.302 23.7359 167.302C24.5392 167.302 25.1906 166.325 25.1906 165.12C25.1906 163.915 24.5392 162.938 23.7359 162.938C22.9326 162.938 22.2812 163.915 22.2812 165.12Z" fill="#A3C6B9"/>
<path d="M31.0928 140.135V160.102" stroke="#78A494" stroke-width="6.2485" stroke-miterlimit="10"/>
<path d="M22.8043 140.145H37.187C38.3373 140.145 39.2697 138.746 39.2697 137.021C39.2697 135.295 38.337 133.896 37.187 133.896H22.8043C21.654 133.896 20.7217 135.295 20.7217 137.021C20.7213 138.746 21.654 140.145 22.8043 140.145Z" fill="#F55B51"/>
<path d="M20.7217 137.02C20.7217 137.02 18.0044 109.496 18.4227 96.899C18.9097 82.23 31.9277 87.7065 31.9277 87.7065L29.7284 134.817" fill="#ED4E4A"/>
<path d="M26.6438 104.612C26.3834 108.547 38.5318 104.794 38.4644 101.493C38.4008 98.383 37.8008 92.8095 37.4008 90.705C36.2691 84.7515 33.7781 90.1015 30.8771 89.516C30.5794 93.9075 28.1061 94.8975 26.6438 104.612Z" fill="#F6B684"/>
<path d="M42.095 98.3605C42.095 98.3605 43.7197 106.269 44.005 107.365C44.2903 108.461 47.75 110.569 50.448 111.416C53.1457 112.263 54.296 112.362 55.1847 113.594C56.0897 114.85 56.354 116.666 55.4323 115.811C54.715 115.145 52.712 114.806 52.712 114.806C52.712 114.806 43.669 114.166 42.3357 113.289C40.3227 111.965 37.583 99.0345 37.583 99.0345L42.095 98.3605Z" fill="#F6B684"/>
<path d="M24.2872 125.415L23.4299 108.052C23.4299 108.052 22.3276 105.141 22.6469 100.826C22.7829 98.9884 22.7599 96.5794 24.2339 94.3684C26.7206 90.6384 30.5632 91.1219 30.5632 91.1219C30.5632 91.1219 32.3642 93.0174 34.4822 93.3504C36.2559 93.4024 37.5332 92.3479 37.5332 91.4189C39.0856 91.7549 41.2012 94.3199 42.4229 97.0329C42.7702 97.8044 44.6176 107.4 44.6422 107.948C44.6729 108.631 52.1336 109.975 52.2156 110.971C52.2682 111.609 52.3929 115.566 52.0472 115.645C49.4229 116.246 41.8702 115.286 41.8702 115.286L42.9512 124.949C42.9512 124.949 40.7636 126.235 36.0099 127.499C31.2566 128.764 24.2872 125.415 24.2872 125.415Z" fill="#6A8987"/>
<path opacity="0.07" d="M37.3307 90.3564L37.4474 90.9539C37.4474 90.9539 34.3077 91.9559 31.9287 90.1174C31.9287 90.1174 35.5027 91.0449 37.3307 90.3564Z" fill="#070707"/>
<path opacity="0.09" d="M24.0197 106.486L23.457 107.066L23.627 107.507L24.2834 107.062L24.0197 106.486Z" fill="#0E251F"/>
<path d="M40.2344 101.114L41.871 115.287L42.5294 115.591L40.2344 101.114Z" fill="#5E7C79"/>
<path d="M28.8288 98.958C28.8288 98.958 30.4658 109.329 31.9275 110.595C33.3895 111.861 40.4385 112.438 40.4385 112.438V117.206C40.4385 117.206 32.5782 119.517 29.9922 118.838C27.4062 118.159 25.0768 113.258 23.4292 108.052C21.7822 102.846 28.8288 98.958 28.8288 98.958Z" fill="#2B2751"/>
<path d="M28.0449 102.653C28.0449 102.653 30.5336 110.039 30.9379 111.047C31.3422 112.056 34.9209 112.662 37.6756 112.816C40.4302 112.97 42.2829 112.597 43.2972 113.588C44.3302 114.597 43.9996 114.937 42.9192 114.807C42.0756 114.706 41.2522 114.807 41.2522 114.807C41.2522 114.807 31.3696 117.837 29.9569 117.309C27.8239 116.512 24.7432 107.997 24.0186 106.457C25.0836 103.552 28.0449 102.653 28.0449 102.653Z" fill="#F6B684"/>
<path d="M28.8286 98.958C28.8286 98.958 31.0903 108.392 32.5519 109.658C34.0139 110.924 40.5359 112.116 40.5359 112.116L40.7259 117.74C40.7259 117.74 32.4246 120.014 29.8386 119.335C27.2526 118.656 25.0766 113.259 23.4293 108.052C21.7819 102.846 28.8286 98.958 28.8286 98.958Z" fill="#5E7C79"/>
<path d="M28.8288 98.958C28.8288 98.958 30.4658 109.329 31.9275 110.595C33.3895 111.861 40.4385 112.438 40.4385 112.438V117.206C40.4385 117.206 32.5782 119.517 29.9922 118.838C27.4062 118.159 25.0768 113.258 23.4292 108.052C21.7822 102.846 28.8288 98.958 28.8288 98.958Z" fill="#6A8987"/>
<path d="M30.5635 91.1219L38.6398 110.16L37.5335 91.419C37.5335 91.419 34.6878 94.0844 30.5635 91.1219Z" fill="#9E3038"/>
<path d="M33.952 61.0035C32.237 60.832 30.5227 61.2785 28.9587 62.3475C28.534 62.6375 28.0813 62.9805 27.6237 63.3815C25.6357 65.122 23.5533 67.9535 23.2733 72.283C23.112 74.776 23.2547 77.186 23.695 79.3935C24.7653 84.7595 27.595 88.9315 32.0937 90.2C35.2687 91.0955 38.7067 90.4395 41.263 87.622C43.8193 84.8045 45.35 78.827 44.715 73.8475C44.08 68.868 42.554 66.226 40.197 63.923C38.4467 62.2125 36.3177 61.2395 33.952 61.0035Z" fill="#F6B684"/>
<path d="M35.4839 80.3269C35.8775 81.3994 36.9262 81.9784 37.3385 80.5684C37.4762 80.0979 37.9752 80.3839 37.8365 80.8579C37.6035 81.6549 37.1055 82.2314 36.5092 82.2294C35.8275 82.2274 35.3089 81.5074 34.9979 80.6599C34.8319 80.2074 35.3189 79.8779 35.4839 80.3269Z" fill="#D78A49"/>
<path d="M36.4896 79.034C36.496 79.034 36.5023 79.0335 36.5086 79.0325C36.539 79.0285 36.8083 78.9915 36.982 78.917C37.402 78.7355 37.552 78.4015 37.6036 78.1535C37.6573 77.897 37.659 77.4765 37.363 76.931C37.1006 76.4475 37.055 75.4685 37.0593 75.132C37.0616 74.954 36.9676 74.8065 36.849 74.803C36.8473 74.803 36.8456 74.803 36.8443 74.803C36.7276 74.803 36.632 74.9425 36.6293 75.118C36.6286 75.177 36.6126 76.5705 37.0293 77.3385C37.164 77.587 37.2236 77.814 37.193 77.9605C37.1643 78.098 37.047 78.2175 36.8626 78.297C36.7493 78.346 36.5413 78.381 36.4706 78.3905C36.3523 78.406 36.2646 78.5625 36.2753 78.74C36.2856 78.9075 36.3793 79.034 36.4896 79.034Z" fill="#D78A49"/>
<path d="M41.0899 75.7454C41.1059 76.4039 40.8673 76.9514 40.5566 76.9684C40.2463 76.9854 39.9816 76.4654 39.9656 75.8069C39.9496 75.1484 40.1883 74.6009 40.4989 74.5839C40.8093 74.5669 41.0739 75.0869 41.0899 75.7454Z" fill="#142A35"/>
<path d="M32.4269 76.246C32.4429 76.9045 32.2042 77.452 31.8935 77.469C31.5832 77.486 31.3185 76.966 31.3025 76.3075C31.2865 75.649 31.5252 75.1015 31.8359 75.0845C32.1462 75.0675 32.4109 75.5875 32.4269 76.246Z" fill="#142A35"/>
<path opacity="0.32" d="M31.7571 80.624C31.7374 82.233 30.8521 83.514 29.7794 83.4845C28.7067 83.455 27.8527 82.127 27.8724 80.518C27.8921 78.909 28.7774 77.628 29.8501 77.6575C30.9227 77.6865 31.7767 79.0145 31.7571 80.624Z" fill="#E59A53"/>
<path opacity="0.32" d="M43.9741 82.135C43.8054 82.201 43.6284 82.234 43.4454 82.229C42.3727 82.1995 41.5188 80.8715 41.5384 79.2625C41.5581 77.6535 42.4434 76.3725 43.5161 76.402C43.7634 76.409 43.9994 76.4845 44.2154 76.617C44.2154 76.617 44.3257 78.542 44.2061 79.891C44.0867 81.2395 43.9741 82.135 43.9741 82.135Z" fill="#E59A53"/>
<path d="M26.7025 77.8324L29.1681 76.8764C29.1718 76.9239 29.1705 76.9719 29.1755 77.0189C29.3755 78.9934 30.5315 80.4819 31.8645 80.4819C33.3645 80.4819 34.5848 78.6514 34.5848 76.4014C34.5848 76.2699 34.5798 76.1399 34.5715 76.0119C36.0865 74.7669 37.5075 75.4974 37.8095 75.6804C37.8088 75.7124 37.8061 75.7439 37.8061 75.7759C37.8061 78.0259 39.0265 79.8564 40.5265 79.8564C42.0265 79.8564 43.2468 78.0259 43.2468 75.7759C43.2468 73.5259 42.0265 71.6954 40.5265 71.6954C39.2245 71.6954 38.1345 73.0754 37.8688 74.9109C37.3481 74.6324 35.9701 74.1094 34.4711 75.2434C34.1375 73.5564 33.0958 72.3209 31.8641 72.3209C30.4305 72.3209 29.2548 73.9944 29.1538 76.1074L26.5771 77.1069L26.7025 77.8324ZM38.3068 75.7759C38.3068 73.9394 39.3028 72.4454 40.5271 72.4454C41.7515 72.4454 42.7475 73.9394 42.7475 75.7759C42.7475 77.6124 41.7515 79.1064 40.5271 79.1064C39.3028 79.1064 38.3068 77.6124 38.3068 75.7759ZM29.6445 76.4014C29.6445 74.5649 30.6405 73.0709 31.8648 73.0709C33.0891 73.0709 34.0851 74.5649 34.0851 76.4014C34.0851 78.2379 33.0891 79.7319 31.8648 79.7319C30.7765 79.7319 29.8331 78.5169 29.6698 76.9059C29.6528 76.7394 29.6445 76.5694 29.6445 76.4014Z" fill="#9E3038"/>
<path d="M55.103 161.276C55.103 161.276 55.7727 162.025 56.653 162.085C57.0817 162.113 57.7417 161.734 58.2927 161.498C58.6223 161.357 58.6423 162.491 58.2207 162.947C57.2547 163.992 55.1453 165.511 54.2147 165.438C53.4387 165.349 53.3467 162.888 53.3467 162.888L55.103 161.276Z" fill="#755E68"/>
<path d="M40.2266 162.646C40.2266 162.646 40.5946 163.771 41.3603 164.426C41.7329 164.744 42.3356 164.902 42.8976 165.07C43.2339 165.17 43.2719 165.896 42.7899 166.189C40.8466 167.369 39.2229 166.202 38.4166 165.5C37.7529 164.891 38.1733 162.88 38.1733 162.88L40.2266 162.646Z" fill="#755E68"/>
<path d="M52.0335 129.554C46.8765 123.614 41.5658 123.745 39.2278 123.745C36.8898 123.745 24.4385 124.47 24.4385 124.47C24.4385 124.47 24.4735 133.865 30.1105 136.555C32.0005 137.457 37.8031 137.143 39.8385 137.906C41.4485 138.51 39.7145 146.018 39.7145 146.018C37.9825 155.417 37.8505 159.117 37.4048 162.858L41.2611 163.662C41.2611 163.662 46.3698 147.881 47.9291 141.808C48.4455 143.703 51.1918 158.422 52.5328 163.357L55.9431 161.01C55.9431 161.01 56.2578 134.421 52.0335 129.554Z" fill="#3F3238"/>
<path d="M42.6465 128.449C42.6465 128.449 46.5988 130.681 47.7525 132.096C49.6041 134.367 46.5245 146.731 46.5245 146.731L46.7448 146.175C46.7448 146.175 50.1495 135.455 48.4515 132.385C47.4025 130.488 42.6465 128.449 42.6465 128.449Z" fill="#352A30"/>
<path d="M24.7509 62.6665C30.5636 53.9475 37.8033 59.76 40.0296 59.76C42.2559 59.76 43.7139 58.671 44.2619 59.2735C45.9459 61.125 45.9129 66.244 44.6359 68.83C45.1473 70.5645 45.4556 72.7395 45.4123 75.378C45.3749 77.6475 44.9119 79.623 44.5023 80.946C44.2673 82.0265 43.9079 83.0825 43.3756 84.056C43.3756 84.056 45.1639 76.656 42.4889 71.3045C39.2256 64.7765 34.1006 71.992 28.6669 74.0445C26.6319 74.8135 27.4619 82.068 28.1353 83.0785C28.8086 84.0885 26.7529 84.3475 26.7529 84.3475C26.7529 84.3475 26.4786 79.519 25.1376 79.9515C25.0369 79.984 24.9583 80.042 24.8919 80.114C24.9436 81.514 25.2093 83.259 25.5556 84.158C26.1283 85.646 25.5256 85.451 24.6929 84.2905C24.0309 83.368 22.9846 81.2105 22.3266 78.5475C21.9703 77.284 21.7329 75.8975 21.7329 74.4445C21.7333 74.4405 21.0823 68.544 24.7509 62.6665Z" fill="#142A35"/>
<path d="M25.4576 79.961C25.3499 79.9185 25.2369 79.896 25.1203 79.896C24.3876 79.896 23.7939 80.787 23.7939 81.8855C23.7939 82.9845 24.3876 83.875 25.1203 83.875C25.2556 83.875 25.3863 83.8445 25.5093 83.788" fill="#F6B684"/>
<path d="M24.322 82.1199C24.3923 82.1199 24.4563 82.0479 24.4733 81.9404C24.646 80.8524 25.1613 80.9084 25.1673 80.9084C25.2516 80.9204 25.3286 80.8249 25.3363 80.6959C25.3436 80.5674 25.2803 80.4539 25.1946 80.4424C24.923 80.4069 24.3576 80.6509 24.1703 81.8319C24.1503 81.9574 24.2023 82.0839 24.2856 82.1134C24.2976 82.1174 24.31 82.1199 24.322 82.1199Z" fill="#D98D49"/>
<path d="M37.7323 94.842C37.7323 94.842 35.1249 97.0815 32.4399 95.5475L31.8643 94.1905C31.8643 94.1905 33.9173 95.5545 35.7499 94.7805C37.5826 94.0065 37.6823 93.806 37.6823 93.9495C37.6823 94.093 37.7323 94.842 37.7323 94.842Z" fill="#8E2B37"/>
<path d="M38.9546 89.4805C38.9546 89.4805 39.9283 89.607 39.2843 90.5735C38.64 91.54 39.2843 92.4795 39.2843 92.4795C39.2843 92.4795 37.7526 95.128 33.544 94.7415C30.5693 94.468 28.4316 91.3205 28.4316 91.3205C28.4316 91.3205 29.614 91.026 29.1673 90.3565C28.7206 89.687 28.816 88.5265 29.1673 88.5265C29.5186 88.5265 33.635 90.566 35.6116 90.3565C37.861 90.118 38.9546 89.4805 38.9546 89.4805Z" fill="#9E3038"/>
<path d="M78.7498 108.861L47.8188 109.465C46.8722 109.465 46.1045 108.313 46.1045 106.893V75.4494C46.1045 74.0289 46.8722 72.8779 47.8188 72.8779L78.7498 73.9549C79.6965 73.9549 80.4642 75.1064 80.4642 76.5264V106.289C80.4642 107.709 79.6968 108.861 78.7498 108.861Z" fill="#8F9AAA"/>
<path d="M80.4158 108.861L49.4848 109.465C48.5378 109.465 47.7705 108.313 47.7705 106.893V75.4494C47.7705 74.0289 48.5382 72.8779 49.4848 72.8779L80.4158 73.9549C81.3628 73.9549 82.1302 75.1064 82.1302 76.5264V106.289C82.1302 107.709 81.3628 108.861 80.4158 108.861Z" fill="#ABB5C9"/>
<path d="M61.7815 97.6439L64.4471 116.396H71.1221L67.0351 96.6714H62.3065C61.9651 96.6709 61.7105 97.1429 61.7815 97.6439Z" fill="#8F9AAA"/>
<path d="M62.395 97.7434L65.0464 116.395H73.7537L69.796 97.2949C69.719 96.9239 69.49 96.6709 69.231 96.6709H62.9737C62.5974 96.6709 62.3167 97.1914 62.395 97.7434Z" fill="#9FAABC"/>
<path d="M66.3689 90.7195C67.1524 90.7195 67.7875 89.6725 67.7875 88.381C67.7875 87.0895 67.1524 86.0425 66.3689 86.0425C65.5854 86.0425 64.9502 87.0895 64.9502 88.381C64.9502 89.6725 65.5854 90.7195 66.3689 90.7195Z" fill="#8F9AAA"/>
<path d="M60.9876 116.482H41.252V115.881C41.252 115.288 41.5726 114.807 41.968 114.807H60.272C60.6673 114.807 60.988 115.287 60.988 115.881L60.9876 116.482Z" fill="#8F9AAA"/>
<path d="M2.83133 111.274C2.99466 112.269 3.479 113.336 4.19166 113.475L4.52633 113.54L4.77666 116.481H10.0153L10.765 107.671C10.806 107.189 10.5557 106.762 10.2317 106.762H4.56033C4.23633 106.762 3.986 107.188 4.027 107.671L4.166 109.305C4.09233 109.259 4.015 109.223 3.93433 109.2C3.63366 109.114 3.34633 109.215 3.07666 109.499C2.78999 109.802 2.69833 110.465 2.83133 111.274ZM3.35633 110.096C3.51599 109.928 3.67199 109.869 3.84299 109.917C3.98999 109.959 4.12599 110.079 4.24333 110.216L4.46266 112.792L4.25433 112.752C3.79333 112.662 3.42699 111.853 3.30333 111.1C3.21733 110.575 3.26633 110.191 3.35633 110.096Z" fill="#9E3038"/>
<path d="M18.1949 118.275H12.5092L11.6952 108.713C11.6506 108.19 11.9226 107.727 12.2742 107.727H18.4296C18.7812 107.727 19.0532 108.19 19.0086 108.713L18.1949 118.275Z" fill="#FFC334"/>
<path d="M17.7108 115.227C17.5805 115.227 17.4671 115.081 17.4495 114.882C17.4308 114.665 17.5328 114.467 17.6771 114.438L18.7615 114.227C19.2618 114.13 19.6591 113.252 19.7938 112.434C19.8871 111.865 19.8341 111.448 19.7361 111.345C19.5628 111.163 19.3935 111.099 19.2078 111.15C18.7415 111.284 18.3641 112.12 18.3605 112.129C18.2801 112.312 18.1161 112.362 17.9951 112.242C17.8735 112.122 17.8395 111.877 17.9195 111.694C17.9395 111.649 18.4175 110.571 19.1091 110.372C19.4355 110.28 19.7471 110.389 20.0398 110.697C20.3511 111.025 20.4505 111.745 20.3061 112.623C20.1288 113.703 19.6031 114.861 18.8295 115.012L17.7451 115.223C17.7341 115.226 17.7221 115.227 17.7108 115.227Z" fill="#FFC334"/>
<path d="M90.6859 116.481H2.0459V124.464H90.6859V116.481Z" fill="#94504D"/>
<path d="M93.4954 116.481H23.582V124.464H93.4954V116.481Z" fill="#A05F5F"/>
<path d="M81.9465 166.497H85.3799V124.464H81.9465V166.497Z" fill="#A05F5F"/>
<path d="M8.24342 166.497H11.6768L11.6768 124.464H8.24342L8.24342 166.497Z" fill="#A05F5F"/>
<path d="M72.0374 166.497H75.4707V124.464H72.0374V166.497Z" fill="#A05F5F"/>
<path d="M18.2434 166.497H21.6768L21.6768 124.464H18.2434L18.2434 166.497Z" fill="#A05F5F"/>
<path d="M81.9465 126.197H85.3799V124.464H81.9465V126.197Z" fill="#94504D"/>
<path d="M72.0374 126.197H75.4707V124.464H72.0374V126.197Z" fill="#94504D"/>
<path d="M18.2434 126.197H21.6768V124.464H18.2434V126.197Z" fill="#94504D"/>
<path d="M8.24342 126.197H11.6768V124.464H8.24342V126.197Z" fill="#94504D"/>
<path d="M152.675 41.7095H95.3428V111.684H152.675V41.7095Z" fill="#ABB5C9"/>
<path d="M122.89 94.5389L123.337 166.073C123.352 166.73 122.988 167.28 122.525 167.302C122.06 167.324 121.672 166.808 121.657 166.152L121.285 97.8444" fill="#A05F5F"/>
<path d="M104.521 167.302C104.414 167.302 104.306 167.273 104.201 167.212C103.772 166.961 103.567 166.266 103.744 165.658L122.648 100.596C122.783 100.135 123.109 99.8459 123.457 99.8604C123.809 99.8794 124.115 100.207 124.224 100.681L139.275 165.743C139.418 166.368 139.177 167.04 138.736 167.243C138.294 167.447 137.82 167.105 137.677 166.481L123.333 104.488L105.299 166.566C105.165 167.025 104.851 167.302 104.521 167.302Z" fill="#A05F5F"/>
<path d="M154.185 41.7095H96.8525V111.684H154.185V41.7095Z" fill="white"/>
<path d="M108.283 67.7521V57.5965H111.834C112.541 57.5965 113.125 57.7188 113.584 57.9635C114.044 58.2048 114.386 58.5304 114.611 58.9403C114.836 59.347 114.948 59.7982 114.948 60.2941C114.948 60.7305 114.87 61.0908 114.715 61.3751C114.563 61.6594 114.361 61.8842 114.11 62.0495C113.862 62.2148 113.593 62.3371 113.302 62.4164V62.5156C113.613 62.5354 113.925 62.6445 114.239 62.8429C114.553 63.0412 114.816 63.3255 115.027 63.6958C115.239 64.0661 115.345 64.519 115.345 65.0545C115.345 65.5636 115.229 66.0215 114.998 66.4281C114.766 66.8347 114.401 67.157 113.902 67.395C113.403 67.6331 112.753 67.7521 111.953 67.7521H108.283ZM109.513 66.6611H111.953C112.756 66.6611 113.327 66.5058 113.664 66.195C114.004 65.881 114.175 65.5008 114.175 65.0545C114.175 64.7107 114.087 64.3933 113.912 64.1024C113.736 63.8082 113.487 63.5735 113.163 63.3983C112.839 63.2198 112.455 63.1305 112.012 63.1305H109.513V66.6611ZM109.513 62.0594H111.794C112.165 62.0594 112.498 61.9867 112.796 61.8412C113.097 61.6958 113.335 61.4908 113.51 61.2263C113.689 60.9619 113.778 60.6511 113.778 60.2941C113.778 59.8478 113.622 59.4693 113.312 59.1585C113.001 58.8445 112.508 58.6874 111.834 58.6874H109.513V62.0594ZM117.365 67.7521V57.5965H120.797C121.59 57.5965 122.242 57.7321 122.751 58.0031C123.26 58.2709 123.637 58.6395 123.881 59.1089C124.126 59.5784 124.248 60.1123 124.248 60.7106C124.248 61.309 124.126 61.8396 123.881 62.3024C123.637 62.7652 123.261 63.1288 122.756 63.3933C122.25 63.6545 121.604 63.7851 120.817 63.7851H118.04V62.6743H120.777C121.319 62.6743 121.756 62.595 122.086 62.4363C122.42 62.2776 122.661 62.0528 122.81 61.7619C122.962 61.4677 123.038 61.1172 123.038 60.7106C123.038 60.304 122.962 59.9486 122.81 59.6445C122.658 59.3403 122.415 59.1056 122.081 58.9403C121.747 58.7717 121.306 58.6874 120.757 58.6874H118.595V67.7521H117.365ZM122.146 63.19L124.645 67.7521H123.217L120.757 63.19H122.146ZM126.714 67.7521H125.425L129.154 57.5965H130.423L134.152 67.7521H132.863L129.828 59.2032H129.749L126.714 67.7521ZM127.19 63.7851H132.387V64.876H127.19V63.7851ZM109.513 74.5965V84.7521H108.283V74.5965H109.513ZM120.032 74.5965V84.7521H118.842L113.308 76.7784H113.209V84.7521H111.979V74.5965H113.169L118.723 82.5901H118.822V74.5965H120.032ZM128.047 77.1354C127.987 76.6329 127.746 76.2428 127.323 75.9651C126.9 75.6874 126.381 75.5486 125.766 75.5486C125.316 75.5486 124.923 75.6213 124.585 75.7668C124.252 75.9122 123.99 76.1122 123.802 76.3668C123.617 76.6213 123.524 76.9106 123.524 77.2346C123.524 77.5057 123.589 77.7387 123.718 77.9338C123.85 78.1255 124.018 78.2858 124.223 78.4148C124.428 78.5404 124.643 78.6445 124.868 78.7272C125.093 78.8065 125.3 78.871 125.488 78.9206L126.519 79.1983C126.784 79.2677 127.078 79.3635 127.402 79.4859C127.729 79.6082 128.042 79.7751 128.339 79.9867C128.64 80.195 128.888 80.4627 129.083 80.79C129.278 81.1173 129.376 81.519 129.376 81.995C129.376 82.5438 129.232 83.0396 128.944 83.4826C128.66 83.9256 128.243 84.2777 127.695 84.5388C127.149 84.8 126.486 84.9306 125.706 84.9306C124.979 84.9306 124.349 84.8132 123.817 84.5785C123.288 84.3438 122.871 84.0165 122.567 83.5967C122.266 83.1768 122.096 82.6892 122.056 82.1338H123.326C123.359 82.5173 123.488 82.8347 123.713 83.0859C123.941 83.3339 124.228 83.519 124.576 83.6413C124.926 83.7603 125.303 83.8198 125.706 83.8198C126.176 83.8198 126.597 83.7438 126.971 83.5917C127.344 83.4363 127.64 83.2215 127.858 82.9471C128.076 82.6694 128.186 82.3454 128.186 81.9752C128.186 81.638 128.091 81.3636 127.903 81.152C127.714 80.9404 127.466 80.7685 127.159 80.6363C126.852 80.5041 126.519 80.3884 126.162 80.2892L124.913 79.9321C124.119 79.704 123.491 79.3784 123.028 78.9553C122.566 78.5321 122.334 77.9784 122.334 77.2941C122.334 76.7255 122.488 76.2296 122.795 75.8065C123.106 75.38 123.523 75.0494 124.045 74.8147C124.571 74.5767 125.157 74.4577 125.805 74.4577C126.46 74.4577 127.042 74.575 127.551 74.8097C128.06 75.0411 128.463 75.3585 128.761 75.7618C129.062 76.1651 129.22 76.623 129.237 77.1354H128.047ZM107.728 92.6874V91.5965H115.345V92.6874H112.151V101.752H110.922V92.6874H107.728ZM125.389 96.6743C125.389 97.7454 125.195 98.671 124.809 99.4512C124.422 100.231 123.891 100.833 123.217 101.256C122.542 101.679 121.772 101.891 120.906 101.891C120.04 101.891 119.27 101.679 118.595 101.256C117.921 100.833 117.39 100.231 117.003 99.4512C116.617 98.671 116.423 97.7454 116.423 96.6743C116.423 95.6032 116.617 94.6776 117.003 93.8974C117.39 93.1172 117.921 92.5155 118.595 92.0924C119.27 91.6692 120.04 91.4577 120.906 91.4577C121.772 91.4577 122.542 91.6692 123.217 92.0924C123.891 92.5155 124.422 93.1172 124.809 93.8974C125.195 94.6776 125.389 95.6032 125.389 96.6743ZM124.199 96.6743C124.199 95.7949 124.052 95.0528 123.757 94.4478C123.466 93.8428 123.071 93.385 122.572 93.0742C122.076 92.7635 121.521 92.6081 120.906 92.6081C120.291 92.6081 119.734 92.7635 119.235 93.0742C118.739 93.385 118.344 93.8428 118.05 94.4478C117.759 95.0528 117.613 95.7949 117.613 96.6743C117.613 97.5536 117.759 98.2958 118.05 98.9008C118.344 99.5058 118.739 99.9636 119.235 100.274C119.734 100.585 120.291 100.74 120.906 100.74C121.521 100.74 122.076 100.585 122.572 100.274C123.071 99.9636 123.466 99.5058 123.757 98.9008C124.052 98.2958 124.199 97.5536 124.199 96.6743ZM127.457 101.752V91.5965H130.888C131.681 91.5965 132.333 91.7321 132.842 92.0031C133.351 92.2709 133.728 92.6395 133.972 93.1089C134.217 93.5784 134.339 94.1123 134.339 94.7106C134.339 95.309 134.217 95.8396 133.972 96.3024C133.728 96.7652 133.353 97.1288 132.847 97.3933C132.341 97.6545 131.695 97.7851 130.908 97.7851H128.131V96.6743H130.868C131.41 96.6743 131.847 96.595 132.177 96.4363C132.511 96.2776 132.753 96.0528 132.901 95.7619C133.053 95.4677 133.129 95.1172 133.129 94.7106C133.129 94.304 133.053 93.9486 132.901 93.6445C132.749 93.3403 132.506 93.1056 132.172 92.9403C131.838 92.7717 131.397 92.6874 130.848 92.6874H128.686V101.752H127.457ZM132.237 97.19L134.736 101.752H133.308L130.848 97.19H132.237ZM108.283 108.597H109.751L113.203 117.026H113.322L116.773 108.597H118.241V118.752H117.09V111.036H116.991L113.817 118.752H112.707L109.533 111.036H109.434V118.752H108.283V108.597Z" fill="#FC5C50"/>
<path d="M106.01 65.823C106.01 65.823 97.7473 79.1135 102.686 84.6815C108.037 90.7135 113.957 82.4235 113.957 82.4235" stroke="#97AAD3" stroke-width="1.5" stroke-miterlimit="10" stroke-linecap="round" stroke-linejoin="round"/>
<path d="M120.056 84.5727C121.945 81.7385 121.945 77.1433 120.056 74.3091C118.166 71.4749 115.103 71.4749 113.213 74.3091C111.324 77.1433 111.324 81.7385 113.213 84.5727C115.103 87.4069 118.166 87.4069 120.056 84.5727Z" stroke="#97AAD3" stroke-width="1.5" stroke-miterlimit="10" stroke-linecap="round" stroke-linejoin="round"/>
<path d="M120.052 79.6958V88.4231H118.995V80.8038H118.944L116.813 82.2185V81.1447L118.995 79.6958H120.052Z" fill="#FC5C50"/>
<path d="M145.432 73.0453C145.858 69.0884 144.065 65.3624 141.427 64.7231C138.789 64.0838 136.305 66.7733 135.879 70.7302C135.453 74.6871 137.246 78.413 139.884 79.0523C142.522 79.6917 145.006 77.0022 145.432 73.0453Z" stroke="#97AAD3" stroke-width="1.5" stroke-miterlimit="10" stroke-linecap="round" stroke-linejoin="round"/>
<path d="M140.22 80.4752V79.7082L143.1 76.5548C143.439 76.1854 143.717 75.8644 143.936 75.5917C144.154 75.3161 144.316 75.0576 144.422 74.8161C144.529 74.5718 144.583 74.3161 144.583 74.0491C144.583 73.7423 144.51 73.4766 144.362 73.2522C144.217 73.0278 144.018 72.8545 143.765 72.7323C143.512 72.6102 143.228 72.5491 142.913 72.5491C142.578 72.5491 142.285 72.6187 142.035 72.7579C141.788 72.8943 141.596 73.086 141.46 73.3332C141.326 73.5803 141.26 73.8701 141.26 74.2025H140.254C140.254 73.6911 140.372 73.2423 140.608 72.8559C140.843 72.4695 141.164 72.1684 141.571 71.9525C141.98 71.7366 142.439 71.6286 142.947 71.6286C143.458 71.6286 143.912 71.7366 144.306 71.9525C144.701 72.1684 145.011 72.4596 145.235 72.8261C145.46 73.1925 145.572 73.6002 145.572 74.0491C145.572 74.3701 145.514 74.684 145.397 74.9908C145.284 75.2948 145.085 75.6343 144.801 76.0093C144.52 76.3815 144.129 76.836 143.629 77.3729L141.669 79.4695V79.5377H145.725V80.4752H140.22Z" fill="#FC5C50"/>
<path d="M133.749 99.0592C134.196 95.1075 132.422 91.3611 129.787 90.6913C127.153 90.0216 124.655 92.6821 124.209 96.6338C123.762 100.585 125.536 104.332 128.17 105.002C130.805 105.671 133.303 103.011 133.749 99.0592Z" stroke="#97AAD3" stroke-width="1.5" stroke-miterlimit="10" stroke-linecap="round" stroke-linejoin="round"/>
<path d="M131.5 106.548C130.937 106.548 130.436 106.451 129.995 106.258C129.558 106.065 129.21 105.796 128.951 105.453C128.696 105.106 128.557 104.704 128.534 104.247H129.608C129.63 104.528 129.727 104.771 129.897 104.975C130.068 105.177 130.291 105.333 130.566 105.444C130.842 105.555 131.147 105.61 131.483 105.61C131.858 105.61 132.19 105.545 132.48 105.414C132.77 105.284 132.997 105.102 133.162 104.869C133.326 104.636 133.409 104.366 133.409 104.059C133.409 103.738 133.329 103.456 133.17 103.211C133.011 102.964 132.778 102.771 132.471 102.632C132.165 102.493 131.79 102.423 131.346 102.423H130.647V101.485H131.346C131.693 101.485 131.997 101.423 132.258 101.298C132.522 101.173 132.728 100.997 132.876 100.769C133.027 100.542 133.102 100.275 133.102 99.9684C133.102 99.6729 133.037 99.4158 132.906 99.1971C132.775 98.9783 132.591 98.8078 132.352 98.6857C132.116 98.5635 131.838 98.5025 131.517 98.5025C131.216 98.5025 130.932 98.5579 130.665 98.6686C130.4 98.7766 130.184 98.9343 130.017 99.1417C129.849 99.3462 129.758 99.5934 129.744 99.8831H128.721C128.738 99.4257 128.876 99.0252 129.135 98.6814C129.393 98.3348 129.731 98.065 130.149 97.8718C130.569 97.6786 131.031 97.582 131.534 97.582C132.074 97.582 132.537 97.6914 132.923 97.9101C133.309 98.126 133.606 98.4115 133.814 98.7667C134.021 99.1218 134.125 99.5053 134.125 99.9172C134.125 100.409 133.995 100.828 133.737 101.174C133.481 101.521 133.133 101.761 132.693 101.894V101.963C133.244 102.054 133.674 102.288 133.984 102.666C134.294 103.041 134.449 103.505 134.449 104.059C134.449 104.534 134.319 104.96 134.061 105.338C133.805 105.713 133.456 106.008 133.013 106.224C132.569 106.44 132.065 106.548 131.5 106.548Z" fill="#FC5C50"/>
<path d="M113.228 82.423H113.957V84.226" stroke="#97AAD3" stroke-width="1.5" stroke-miterlimit="10" stroke-linecap="round" stroke-linejoin="round"/>
<path d="M143.575 63.049L142.866 63.305L142.585 61.5525" stroke="#97AAD3" stroke-width="1.5" stroke-miterlimit="10" stroke-linecap="round" stroke-linejoin="round"/>
<path d="M117.77 74.566C117.77 74.566 126.436 66.1065 131.103 69.117C135.77 72.1275 135.02 77.9295 135.02 77.9295" stroke="#97AAD3" stroke-width="1.5" stroke-miterlimit="10" stroke-linecap="round" stroke-linejoin="round"/>
<path d="M134.228 77.4136L134.978 78.3511L135.811 77.4136" stroke="#97AAD3" stroke-width="1.5" stroke-miterlimit="10" stroke-linecap="round" stroke-linejoin="round"/>
<path d="M133.82 88.9136C133.82 88.9136 128.575 84.7261 130.575 81.7261C132.098 79.4411 133.615 82.6641 133.615 82.6641C133.615 82.6641 136.132 78.5526 137.311 80.8826C138.546 83.3246 133.82 88.9136 133.82 88.9136Z" stroke="#97AAD3" stroke-width="1.5" stroke-miterlimit="10" stroke-linecap="round" stroke-linejoin="round"/>
<path d="M141.77 82.423C141.77 82.423 143.305 92.166 138.853 96.9755C136.232 99.808 132.062 99.3805 132.062 99.3805" stroke="#97AAD3" stroke-width="1.5" stroke-miterlimit="10" stroke-linecap="round" stroke-linejoin="round"/>
<path d="M132.978 98.1636L132.062 99.3811L132.52 100.226" stroke="#97AAD3" stroke-width="1.5" stroke-miterlimit="10" stroke-linecap="round" stroke-linejoin="round"/>
<path d="M135.812 51.6425C135.812 51.6425 140.65 47.2815 143.469 52.5225C145.947 57.1295 143.02 62.8955 143.02 62.8955" stroke="#97AAD3" stroke-width="1.5" stroke-miterlimit="10" stroke-linecap="round" stroke-linejoin="round"/>
<path d="M215.609 137.125C215.609 137.125 219.102 109.511 219.102 96.8989C219.102 84.2864 204.804 84.1159 200.663 88.7339C194.813 95.2584 196.751 133.896 196.751 133.896" fill="#ED4E4A"/>
<path d="M214.72 140.145H193.665C192.514 140.145 191.582 138.746 191.582 137.021C191.582 135.295 192.515 133.896 193.665 133.896H214.72C215.87 133.896 216.803 135.295 216.803 137.021C216.803 138.746 215.87 140.145 214.72 140.145Z" fill="#FC5C50"/>
<path d="M198.256 163.852V161.079H213.973V163.852" stroke="#78A494" stroke-width="4.6864" stroke-miterlimit="10"/>
<path d="M199.66 165.12C199.66 163.938 199.032 162.98 198.249 162.945V162.938H197.271V163.462C196.956 163.862 196.751 164.452 196.751 165.12C196.751 165.788 196.955 166.379 197.271 166.779V167.302H198.249V167.296C199.032 167.26 199.66 166.303 199.66 165.12Z" fill="#78A494"/>
<path d="M198.726 165.12C198.726 166.325 198.074 167.302 197.271 167.302C196.468 167.302 195.816 166.325 195.816 165.12C195.816 163.915 196.468 162.938 197.271 162.938C198.074 162.938 198.726 163.915 198.726 165.12Z" fill="#A3C6B9"/>
<path d="M216.178 165.12C216.178 163.938 215.55 162.98 214.767 162.945V162.938H213.788V163.462C213.473 163.862 213.269 164.452 213.269 165.12C213.269 165.788 213.473 166.379 213.788 166.779V167.302H214.767V167.296C215.55 167.26 216.178 166.303 216.178 165.12Z" fill="#78A494"/>
<path d="M215.243 165.12C215.243 166.325 214.592 167.302 213.789 167.302C212.985 167.302 212.334 166.325 212.334 165.12C212.334 163.915 212.985 162.938 213.789 162.938C214.592 162.938 215.243 163.915 215.243 165.12Z" fill="#A3C6B9"/>
<path d="M206.432 140.135V160.101" stroke="#78A494" stroke-width="6.2485" stroke-miterlimit="10"/>
<path d="M225.953 114.865H142.676V122.809H225.953V114.865Z" fill="#94504D"/>
<path d="M204.523 114.865H139.881V122.809H204.523V114.865Z" fill="#A05F5F"/>
<path d="M151.373 122.808H147.956V167.277H151.373V122.808Z" fill="#A05F5F"/>
<path d="M219.786 122.808H216.369V167.277H219.786V122.808Z" fill="#A05F5F"/>
<path d="M161.778 122.808H158.361V167.277H161.778V122.808Z" fill="#A05F5F"/>
<path d="M209.835 122.808H206.418V167.277H209.835V122.808Z" fill="#A05F5F"/>
<path d="M151.373 122.808H147.956V124.532H151.373V122.808Z" fill="#94504D"/>
<path d="M161.778 122.808H158.361V124.532H161.778V122.808Z" fill="#94504D"/>
<path d="M209.835 122.808H206.418V124.532H209.835V122.808Z" fill="#94504D"/>
<path d="M219.786 122.808H216.369V124.532H219.786V122.808Z" fill="#94504D"/>
<path d="M192.622 113.932L188.853 93.2275C188.775 92.7985 188.515 92.5015 188.219 92.5015H167.535L172.402 113.932H192.622Z" fill="#8F9AAA"/>
<path d="M182.605 114.879H205.879V113.812C205.879 113.268 205.585 112.826 205.222 112.826H182.605V114.879Z" fill="#8F9AAA"/>
<path d="M191.389 114.864L187.434 93.227C187.356 92.7985 187.096 92.5015 186.8 92.5015H167.535L171.51 114.864H191.389Z" fill="#ABB5C9"/>
<path d="M177.497 103.566C177.653 104.535 178.212 105.163 178.747 104.97C179.282 104.777 179.589 103.836 179.434 102.867C179.279 101.899 178.719 101.27 178.184 101.463C177.65 101.657 177.342 102.598 177.497 103.566Z" fill="#8F9AAA"/>
<path d="M200.763 106.032H200.261V104.701C200.261 104.208 199.995 103.809 199.667 103.809H195.201C194.872 103.809 194.606 104.208 194.606 104.701V113.314C194.606 114.179 195.073 114.879 195.65 114.879H199.218C199.794 114.879 200.261 114.179 200.261 113.314V110.876L200.853 110.853C201.641 110.853 201.804 109.918 201.804 108.737V107.595C201.804 106.732 201.338 106.032 200.763 106.032ZM200.966 108.999C200.966 109.217 200.848 109.395 200.702 109.395H200.488C200.342 109.395 200.224 109.217 200.224 108.999V107.71C200.224 107.492 200.342 107.314 200.488 107.314H200.702C200.848 107.314 200.966 107.491 200.966 107.71V108.999Z" fill="#9E3038"/>
<path d="M212.032 85.3925C212.25 89.1665 213.323 89.2229 213.323 89.2229L213.329 88.383C213.345 87.632 213.401 86.6329 213.401 85.3444C213.401 80.2084 215.737 79.6784 216.64 81.8319C217.895 84.8229 217.358 91.3314 217.358 91.3314C217.358 91.3314 217.792 91.2899 218.279 90.5594C218.766 89.8294 219.742 86.4649 220.907 87.4739C222.072 88.4829 221.079 91.8925 219.659 94.0225C218.549 95.688 217.493 95.9069 217.493 95.9069L217.368 103.087H213.331L213.304 93.8399C213.113 93.6339 212.799 93.4479 212.502 93.3164C210.584 92.4669 210.232 87.6589 210.232 85.7649C210.233 83.8714 211.905 83.1875 212.032 85.3925Z" fill="#6A8987"/>
<path d="M212.226 114.895H218.478L219.465 103.297H211.239L212.226 114.895Z" fill="#FFC334"/>
<path d="M211.308 105.347H211.414H219.29H219.467L219.675 103.526C219.71 103.217 219.551 102.934 219.342 102.934H211.433C211.223 102.934 211.064 103.217 211.1 103.526L211.308 105.347Z" fill="#FFC334"/>
<path d="M211.454 105.813H219.251L219.29 105.347H211.414L211.454 105.813Z" fill="#EFAD2B"/>
<path d="M95.1477 85.9005L101.626 86.6245L113.586 73.095C113.586 73.095 113.994 72.755 114.125 73.095C114.256 73.435 113.152 74.9285 113.152 74.9285C113.152 74.9285 113.43 76.0035 113.43 76.445C113.43 76.8865 112.58 77.6475 112.208 77.97C111.835 78.2925 111.444 78.6315 111.444 78.6315C111.444 78.6315 103.923 91.172 102.555 92.5445C101.371 93.7315 98.1947 92.6725 96.861 91.6515C94.6387 89.9505 94.785 86.842 95.1477 85.9005Z" fill="#F6B684"/>
<path d="M101.048 66.3004C101.048 66.3004 105.162 67.1604 105.216 69.1629C105.3 72.3209 103.049 71.4084 103.049 71.4084C103.049 71.4084 104.39 71.6024 104.419 73.7819C104.442 75.4874 102.783 75.5319 102.783 75.5319C102.783 75.5319 104.238 76.6194 104.244 77.8164C104.254 79.8544 102.685 80.4319 102.685 80.4319C102.685 80.4319 104.142 81.7684 103.486 83.3939C102.83 85.0189 100.941 84.1959 100.941 84.1959C100.941 84.1959 102.106 86.1764 101.259 87.3954C100.411 88.6144 98.5284 86.6259 98.5284 86.6259C98.5284 86.6259 98.9268 88.8714 97.6454 88.7264C96.3641 88.5814 95.8768 85.6044 95.8768 85.6044C95.8768 85.6044 94.9154 87.1964 94.1598 85.7374C93.0708 83.6354 94.2424 81.6514 94.2424 81.6514C94.2424 81.6514 94.3061 81.0589 94.5798 79.6464C94.8534 78.2339 95.9001 78.0669 95.9001 78.0669C95.9001 78.0669 95.2297 75.3459 95.7081 74.3284C96.3567 72.9489 97.1937 71.9309 97.1937 71.9309L98.5711 69.0549L101.048 66.3004Z" fill="#FC5C50"/>
<path d="M94.9021 83.7925C94.7588 83.2225 94.4344 80.891 94.3634 80.262C91.6921 80.801 88.5918 75.09 88.5918 80.7905C88.5918 81.2845 88.5638 82.622 88.1484 83.1405C88.1484 83.1405 90.5194 85.065 92.4008 85.065C94.2821 85.065 94.8741 84.1785 94.8741 84.1785" fill="#F6B684"/>
<path opacity="0.32" d="M94.5022 81.3129C94.5022 81.3129 90.5272 82.0379 89.2959 81.1849C89.2959 81.1849 90.8422 83.1274 94.7309 82.4754L94.5022 81.3129Z" fill="#E59A53"/>
<path d="M90.8955 54.5465C90.8955 54.5465 89.1722 54.863 87.2968 56.108C85.3742 57.3845 83.2918 59.6365 82.7435 63.524C82.4278 65.762 82.3938 67.9715 82.6435 70.0425C83.2508 75.077 85.5362 79.296 89.5338 81.135C92.3548 82.4325 95.5202 82.3625 98.0322 80.1955C100.544 78.0285 102.339 72.8365 102.101 68.2195C101.862 63.6025 100.657 60.9715 98.6735 58.5205C96.6902 56.07 93.9922 54.728 90.8955 54.5465Z" fill="#F6B684"/>
<path d="M94.2828 71.6711C94.1828 71.6541 94.1061 71.5251 94.1085 71.3711C94.1111 71.2086 94.2011 71.0801 94.3098 71.0836C94.3745 71.0861 94.5655 71.0861 94.6718 71.0591C94.8445 71.0151 94.9591 70.9246 94.9945 70.8041C95.0325 70.6751 94.9935 70.4601 94.8881 70.2146C94.5621 69.4541 94.6711 68.1911 94.6758 68.1381C94.6901 67.9771 94.7918 67.8706 94.8965 67.8856C95.0041 67.9071 95.0795 68.0551 95.0651 68.2166C95.0381 68.5211 95.0135 69.4171 95.2188 69.8961C95.4505 70.4361 95.4201 70.8176 95.3541 71.0426C95.2901 71.2601 95.1315 71.5401 94.7378 71.6406C94.5751 71.6821 94.3278 71.6746 94.3001 71.6736C94.2945 71.6731 94.2885 71.6721 94.2828 71.6711Z" fill="#D78A49"/>
<path d="M90.8712 68.927C90.8852 69.5465 90.6598 70.061 90.3678 70.076C90.0758 70.091 89.8275 69.601 89.8131 68.9815C89.7988 68.362 90.0242 67.8475 90.3165 67.8325C90.6088 67.8175 90.8572 68.3075 90.8712 68.927Z" fill="#211F1E"/>
<path d="M98.6572 68.6985C98.6712 69.318 98.4459 69.8325 98.1539 69.8475C97.8619 69.8625 97.6136 69.3725 97.5993 68.753C97.5853 68.1335 97.8106 67.619 98.1026 67.604C98.3949 67.589 98.6432 68.079 98.6572 68.6985Z" fill="#211F1E"/>
<path d="M95.8101 73.646C94.7418 75.499 93.5945 74.397 93.1605 73.8535C93.0885 73.7635 93.1268 73.588 93.2205 73.578L95.6941 73.306C95.8155 73.2925 95.8898 73.508 95.8101 73.646Z" fill="#FDEEEB"/>
<path opacity="0.32" d="M89.8646 73.117C89.7399 74.783 88.7386 75.9825 87.6276 75.7955C86.5169 75.6085 85.7172 74.1065 85.8419 72.44C85.9666 70.7735 86.9679 69.5745 88.0789 69.7615C89.1896 69.9485 89.9889 71.451 89.8646 73.117Z" fill="#E59A53"/>
<path opacity="0.32" d="M100.965 75.503C100.65 75.637 100.308 75.6575 99.9655 75.541C98.8755 75.1685 98.1935 73.5415 98.4415 71.907C98.6899 70.272 99.7745 69.249 100.864 69.621C101.341 69.784 101.74 70.187 102.017 70.726C102.017 70.726 101.925 72.2745 101.556 73.5655C101.188 74.8555 100.965 75.503 100.965 75.503Z" fill="#E59A53"/>
<path d="M90.1043 73.528C88.7327 73.297 87.64 71.3505 87.6053 68.954C87.568 66.3705 88.7753 64.228 90.2957 64.1785C91.813 64.129 93.084 66.19 93.1217 68.7745C93.159 71.3585 91.952 73.5005 90.4313 73.55C90.321 73.5535 90.2117 73.546 90.1043 73.528ZM90.5687 64.9375C90.4827 64.923 90.3953 64.917 90.307 64.92C89.0587 64.9605 88.0687 66.763 88.1 68.938C88.104 69.2125 88.124 69.48 88.1587 69.738C88.3977 71.5235 89.3303 72.8455 90.421 72.809C91.6693 72.7685 92.6593 70.966 92.628 68.791C92.5983 66.77 91.6973 65.1275 90.5687 64.9375Z" fill="#546D6A"/>
<path d="M98.077 73.1105C96.7057 72.8795 95.6127 70.933 95.578 68.5365C95.56 67.294 95.826 66.1145 96.3267 65.2155C96.8357 64.302 97.5253 63.785 98.2683 63.761C99.789 63.7115 101.057 65.7735 101.094 68.357C101.132 70.9405 99.9247 73.083 98.404 73.1325C98.2937 73.136 98.1847 73.1285 98.077 73.1105ZM98.5413 64.52C98.4553 64.5055 98.368 64.4995 98.2797 64.5025C97.6813 64.522 97.1227 64.944 96.7067 65.691C96.2827 66.4525 96.0573 67.4575 96.073 68.52C96.1043 70.695 97.1473 72.432 98.394 72.3905C99.6423 72.35 100.632 70.5475 100.601 68.3725C100.571 66.352 99.6703 64.71 98.5413 64.52Z" fill="#546D6A"/>
<path d="M93.0294 69.0725L92.7207 68.493C92.7664 68.438 93.8637 67.163 95.9034 68.1765L95.7477 68.8805C93.9594 67.99 93.0387 69.0615 93.0294 69.0725Z" fill="#546D6A"/>
<path d="M85.25 70.0764L88.1587 69.7374" stroke="#546D6A" stroke-width="1.5" stroke-miterlimit="10"/>
<path d="M103.04 62.737C103.04 62.737 104.002 61.692 103.301 59.253C102.26 57.581 101.51 58.406 101.752 57.9075C102.138 57.11 102.1 55.4285 101.849 54.85C101.273 53.5265 100.214 53.607 99.4933 53.4855C99.5617 52.573 99.6267 51.703 98.7953 50.903C98.295 50.4215 97.021 50.975 96.437 51.6745C96.2414 51.183 96.0403 48.118 94.115 49.1025C93.6363 49.347 93.1943 50.611 92.981 50.615C92.7843 50.196 92.47 49.356 92.206 49.0375C91.6537 48.371 90.26 48.6285 89.6123 49.0605C88.9643 49.492 88.569 50.463 88.1623 51.334C87.5907 50.781 85.195 50.318 83.7847 52.2385C83.1837 53.057 83.0963 53.87 82.957 55.0695C81.523 54.828 79.6253 58.429 80.6013 60.9095C81.027 61.9915 79.6163 59.5335 78.743 61.334C78.1993 62.4545 78.8007 63.205 78.9333 63.7095C78.349 63.606 77.6543 64.418 77.3717 65.434C76.9527 66.941 78.0217 68.6105 78.0217 68.6105C78.0217 68.6105 76.483 68.2475 76.0883 70.3455C75.7797 71.987 77.0223 72.5815 77.0223 72.5815C77.0223 72.5815 75.4317 73.083 75.2247 74.2395C74.8727 76.208 76.2933 77.3605 76.2933 77.3605C76.2933 77.3605 74.6593 78.103 75.021 79.924C75.3827 81.745 77.3487 81.663 77.3487 81.663C77.3487 81.663 75.8877 83.1385 76.503 84.639C77.1183 86.1395 79.2743 84.9275 79.2743 84.9275C79.2743 84.9275 78.5113 86.95 79.7757 87.2945C80.8457 87.586 81.704 85.705 81.9433 85.1185C81.987 85.096 82.025 85.076 82.0577 85.058C82.071 85.09 82.087 85.1265 82.106 85.168C81.8963 85.7115 81.3577 87.3555 82.1397 88.2205C83.0847 89.2655 84.39 86.4975 84.39 86.4975C84.39 86.4975 84.7167 88.7055 85.9747 88.314C87.2327 87.9225 86.5327 85.4085 86.5327 85.4085C86.5327 85.4085 88.1067 86.805 88.6377 85.138C89.324 82.9825 88.398 81.745 88.398 81.745C88.398 81.745 89.1743 80.7095 88.782 79.3615C88.3893 78.014 86.981 77.2685 86.981 77.2685C86.981 77.2685 87.2847 74.875 86.746 73.6535C86.125 72.2455 84.8437 72.1005 84.8437 72.1005C85.244 71.936 85.534 71.376 85.636 70.7725C85.738 70.169 85.6787 69.529 85.5707 68.9275C85.5117 68.6 84.9533 68.128 85.9117 67.4805C86.3797 67.1645 86.534 66.185 86.4153 65.4355C86.3643 65.114 86.252 64.821 86.1033 64.5775C86.1547 64.5535 86.1943 64.534 86.2167 64.5205C86.398 64.4145 86.6003 64.4815 86.795 64.492C87.4953 64.529 88.17 63.697 88.2813 62.659C88.3113 62.3805 88.313 62.066 88.4457 61.866C88.5903 61.6475 88.833 61.591 89.0297 61.681C90.682 62.433 91.803 62.2665 92.67 60.1245C92.7793 61.2085 94.1093 62.1665 94.8403 62.1505C95.5713 62.1345 96.4993 60.7665 96.5877 59.678C96.8823 60.736 97.4127 63.619 99.4997 61.7865C100.869 65.2965 102.634 69.9305 100.673 76.1675C100.562 76.519 100.449 76.786 100.229 77.2135C101.439 75.9325 103.354 71.773 103.216 69.4675C106.409 64.7945 103.04 62.737 103.04 62.737Z" fill="#FC5C50"/>
<path d="M92.3121 163.134C92.1991 156.331 92.4715 145.937 92.4715 145.937C91.8341 143.993 91.7455 139.561 91.2441 137.949L96.6448 136.19C96.9895 140.558 97.4168 145.788 97.3111 147.009C97.0908 149.548 94.8541 163.269 94.8541 163.269H94.5565C94.7305 163.657 92.1208 163.865 92.3121 163.134Z" fill="#FFC334"/>
<path d="M87.106 163.308L87.0987 163.307C87.267 159.364 86.9667 156.155 88.7913 146.25C89.0293 144.959 89.262 142.442 88.822 140.03L94.042 138.529C94.3843 144.138 93.5443 146.467 93.208 147.71C92.581 150.025 89.8293 163.163 89.6583 163.79C89.854 164.144 90.1243 164.543 90.481 164.849C90.8737 165.184 91.095 165.351 91.687 165.527C92.0417 165.632 92.4953 166.398 91.9873 166.707C89.9393 167.95 88.2287 166.72 87.379 165.981C86.765 165.416 87.0317 163.715 87.106 163.308Z" fill="#FFC334"/>
<path d="M97.2594 110.718L98.1488 118.932L101.829 151.174C101.829 151.174 91.0674 155.922 84.1514 151.882C84.1514 151.882 83.4857 126.196 83.6627 118.962C83.7151 116.83 85.2448 109.465 85.2448 109.465L97.2594 110.718Z" fill="#6A8987"/>
<path opacity="0.32" d="M97.495 105.472C97.495 105.472 97.2597 109.959 97.2597 110.719C97.2597 110.719 94.24 110.27 91.4217 107.829C89.038 105.764 88.0693 103.13 88.0693 103.13L95.2197 103.286C95.2197 103.286 95.8623 104.944 97.495 105.472Z" fill="#FA8A3D"/>
<path d="M98.0372 92.2355C98.0372 92.2355 98.5932 93.411 98.7945 95.511C99.0475 98.153 97.0469 103.636 98.6169 115.645C98.7075 116.339 91.2445 118.948 83.8715 116.329C84.9649 106.177 85.8295 105.541 84.5755 94.654C84.5535 94.4615 82.1242 92.753 82.1309 92.563C82.2245 89.843 83.2115 86.687 83.6639 85.4105C85.3805 80.5655 88.3965 81.7455 88.3965 81.7455C88.3965 81.7455 90.7649 84.077 92.3362 83.96C94.6472 83.7875 94.7379 82.907 94.7379 82.907C94.7379 82.907 94.8625 83.616 94.8655 83.6225C95.3182 84.6715 98.0372 92.2355 98.0372 92.2355Z" fill="#FFC334"/>
<path d="M88.3563 90.473C88.3563 90.473 87.2496 95.425 86.935 95.425C86.6203 95.425 86.5186 95.0725 86.5186 95.0725L86.251 95.597C86.251 95.597 86.9363 96.321 87.3043 95.769C87.605 95.3185 88.3563 91.6815 88.3563 90.473Z" fill="#E5A628"/>
<path d="M82.5932 92.125C82.5932 92.125 80.2645 100.569 79.5399 102.452C78.8152 104.335 77.2639 114.21 77.2639 114.21C77.2639 114.21 75.0749 114.401 74.6465 114.772C73.9212 115.4 73.8115 116.482 73.8115 116.482C73.8115 116.482 76.3495 116.364 76.8082 117.256C76.9372 117.506 76.8892 117.874 76.7205 118.064C76.7205 118.064 76.2949 118.367 76.2012 118.648C76.1075 118.928 76.7012 119.335 77.7182 118.21C78.1682 117.712 78.1915 116.993 78.1915 116.993L82.9815 102.453L86.4995 95.016L82.5932 92.125Z" fill="#F6B684"/>
<path d="M99.9997 87.0625L98.1487 95.0155L92.4004 86.6055C92.4004 86.6055 94.4087 83.755 94.7371 82.907C95.5214 83.244 99.9997 87.0625 99.9997 87.0625Z" fill="#FFC334"/>
<path d="M96.6357 88.734L98.5994 92.767L98.4461 93.512L96.6357 88.734Z" fill="#E5A628"/>
<path d="M95.9182 157.298C95.9182 157.298 92.9798 157.668 91.7578 156.977L91.7825 165.329C91.7681 166.005 92.1135 166.575 92.5635 166.612C93.8398 166.717 96.2395 166.843 96.8135 166.379C97.3358 165.956 97.2365 165.337 97.1085 164.964C97.0421 164.771 96.9222 164.636 96.7802 164.594C96.3185 164.457 94.9801 164.005 95.1258 163.237C95.5391 161.052 95.9182 157.298 95.9182 157.298Z" fill="#2D2429"/>
<path d="M91.391 157.521C91.391 157.521 88.2863 157.838 87.0686 157.132L87.0446 165.484C87.0263 166.159 87.3683 166.733 87.8183 166.776C89.094 166.898 91.4927 167.056 92.0697 166.599C92.5943 166.183 92.4987 165.562 92.3727 165.188C92.3073 164.995 92.188 164.858 92.0467 164.814C91.5857 164.67 90.25 164.201 90.4 163.435C90.826 161.255 91.391 157.521 91.391 157.521Z" fill="#2D2429"/>
<path d="M151.179 59.2189C151.179 59.2189 152.116 70.7469 150.311 75.3389C149.608 77.1264 148.134 84.0794 153.118 86.5999C156.317 88.2174 157.991 84.0739 159.568 81.7084C161.145 79.3429 160.932 75.3164 159.223 65.7119C157.513 56.1074 154.946 52.4324 154.946 52.4324L151.179 59.2189Z" fill="#3F3238"/>
<path opacity="0.32" d="M156.077 96.7309C156.077 96.7309 156.312 101.218 156.312 101.978C156.312 101.978 159.332 101.529 162.15 99.0879C164.534 97.0234 165.503 94.3894 165.503 94.3894L158.352 94.5449C158.352 94.5449 157.709 96.2024 156.077 96.7309Z" fill="#FA8A3D"/>
<path d="M155.536 83.4944C155.536 83.4944 154.98 84.6699 154.778 86.7699C154.525 89.4119 156.526 94.8949 154.956 106.903C154.865 107.598 162.66 108.624 170.033 106.004C168.188 97.0849 169.167 91.1874 168.998 88.4999C168.85 86.1564 170.658 85.7349 170.678 85.5469C171.025 82.1544 169.743 79.5519 169.291 78.2754C167.574 73.4304 165.176 73.0044 165.176 73.0044C165.176 73.0044 162.808 75.3359 161.237 75.2189C158.926 75.0464 158.835 74.1659 158.835 74.1659C158.835 74.1659 158.178 74.1744 158.174 74.1804C153.527 81.3769 155.536 83.4944 155.536 83.4944Z" fill="#F69589"/>
<path d="M163.244 83.0449C163.244 83.0449 164.351 87.9969 164.665 87.9969C164.98 87.9969 165.256 87.5484 165.256 87.5484L165.438 88.2454C165.438 88.2454 164.664 88.8929 164.296 88.3409C163.995 87.8899 163.244 84.2529 163.244 83.0449Z" fill="#E28079"/>
<path d="M158.175 74.1805C158.321 73.6005 158.382 72.8205 158.455 72.1805C161.174 72.7315 164.331 66.9205 164.329 72.723C164.329 73.2255 164.143 73.7455 164.566 74.273C164.566 74.273 162.743 75.4475 160.828 75.446C158.913 75.4445 158.175 74.1805 158.175 74.1805Z" fill="#A5614C"/>
<path opacity="0.07" d="M158.278 73.2994C158.278 73.2994 162.357 73.9899 163.611 73.1229C163.611 73.1229 162.133 74.8469 158.175 74.1804L158.278 73.2994Z" fill="#070707"/>
<path d="M164.1 45.499C164.1 45.499 165.863 46.1295 167.711 47.7495C169.605 49.4105 171.589 52.111 171.855 56.2385C172.008 58.615 171.872 60.9125 171.451 63.0165C170.429 68.1315 167.73 72.1065 163.441 73.3125C160.414 74.164 157.137 73.5365 154.701 70.8485C152.264 68.161 150.807 62.4615 151.414 57.715C152.021 52.9685 153.476 50.451 155.724 48.257C157.972 46.063 160.875 45.1445 164.1 45.499Z" fill="#A5614C"/>
<path d="M160.311 64.4175C159.824 65.3275 158.775 65.612 158.543 64.1865C158.465 63.7105 157.965 63.856 158.043 64.3355C158.175 65.1415 158.579 65.8055 159.139 65.951C159.78 66.1175 160.346 65.569 160.731 64.85C160.936 64.466 160.515 64.0365 160.311 64.4175Z" fill="#824737"/>
<path d="M159.254 62.6655C159.248 62.6655 159.242 62.665 159.236 62.664C159.207 62.66 158.95 62.625 158.785 62.5535C158.385 62.3805 158.242 62.0615 158.192 61.825C158.141 61.5805 158.14 61.1795 158.422 60.66C158.672 60.199 158.716 59.266 158.712 58.945C158.71 58.7755 158.8 58.635 158.913 58.6315C158.914 58.6315 158.916 58.6315 158.917 58.6315C159.028 58.6315 159.119 58.7645 159.122 58.932C159.123 58.988 159.137 60.317 158.74 61.0485C158.611 61.285 158.555 61.5015 158.584 61.6415C158.611 61.7725 158.723 61.8865 158.899 61.9625C159.007 62.009 159.205 62.0425 159.272 62.0515C159.385 62.0665 159.469 62.2155 159.459 62.385C159.449 62.545 159.359 62.6655 159.254 62.6655Z" fill="#824737"/>
<path d="M163.7 59.715C163.686 60.39 163.416 60.925 163.098 60.91C162.78 60.895 162.533 60.336 162.547 59.661C162.561 58.986 162.831 58.4515 163.149 58.466C163.467 58.481 163.714 59.04 163.7 59.715Z" fill="#2D2429"/>
<path d="M155.166 59.272C155.152 59.947 154.882 60.4815 154.564 60.467C154.246 60.452 153.999 59.893 154.013 59.218C154.027 58.543 154.297 58.0085 154.615 58.023C154.933 58.0385 155.18 58.5975 155.166 59.272Z" fill="#2D2429"/>
<path opacity="0.07" d="M167.407 62.9199C167.407 64.4039 166.605 65.6074 165.615 65.6074C164.625 65.6074 163.823 64.4044 163.823 62.9199C163.823 61.4359 164.625 60.2324 165.615 60.2324C166.604 60.2324 167.407 61.4354 167.407 62.9199Z" fill="#070707"/>
<path opacity="0.07" d="M151.557 59.7375C151.762 59.6145 151.987 59.5465 152.221 59.5465C153.211 59.5465 154.013 60.7495 154.013 62.234C154.013 63.718 153.211 64.9215 152.221 64.9215C152.101 64.9215 151.983 64.9035 151.869 64.8695" fill="#070707"/>
<path d="M152.385 66.7234C150.416 62.5644 150.695 49.9124 154.403 44.3514C158.11 38.7899 165.79 40.7219 165.79 40.7219C172.834 42.9194 175.139 49.0524 175.139 58.6239C175.139 64.7609 173.893 66.6399 174.813 77.3429C175.213 82.0069 175.426 84.6269 173.51 87.0409C173.124 87.5269 171.5 88.7914 170.24 89.0854C170.141 88.1284 170.027 86.9619 169.928 86.0304C170.027 85.9849 170.365 85.8039 170.372 85.6099C170.486 82.4239 170.125 79.5114 168.249 76.6979C166.848 74.5974 161.989 76.0689 164.321 72.7194C166.809 69.1449 167.847 64.6764 167.339 61.2589C167.103 59.6719 166.831 57.8414 166.831 57.8414C160.232 57.3989 154.042 50.1974 154.042 50.1974C152.123 53.0104 151.727 62.5064 152.157 65.6589C152.212 66.0604 152.312 66.4669 152.385 66.7234Z" fill="#3F3238"/>
<path d="M151.906 60.0215C152.108 62.229 153.34 63.8525 154.775 63.9465C154.954 63.958 155.136 63.946 155.319 63.9085C156.655 63.634 157.669 62.0845 157.892 60.192C158.382 59.4675 158.865 59.1465 159.328 59.2385C160.089 59.3935 160.61 60.6095 160.703 60.8425C160.823 62.014 161.233 63.052 161.864 63.7705C162.36 64.336 162.947 64.652 163.557 64.692C163.739 64.704 163.923 64.6915 164.107 64.6535C165.443 64.379 166.456 62.8305 166.679 60.9385L169.81 61.7215C169.82 61.724 169.829 61.7255 169.838 61.726C169.95 61.7335 170.051 61.614 170.07 61.4435C170.09 61.259 170.007 61.085 169.885 61.054L166.722 60.263C166.726 60.0225 166.72 59.78 166.698 59.534C166.588 58.331 166.173 57.2645 165.528 56.5305C164.883 55.7965 164.087 55.4825 163.285 55.6475C162.483 55.812 161.772 56.4355 161.282 57.4025C160.941 58.0775 160.739 58.8645 160.684 59.687C160.388 59.206 159.95 58.6835 159.391 58.5685C158.904 58.469 158.416 58.6965 157.936 59.2395C157.932 59.09 157.924 58.94 157.91 58.7885C157.801 57.5855 157.385 56.519 156.74 55.7845C156.096 55.0505 155.299 54.7365 154.497 54.9015C152.842 55.242 151.68 57.5385 151.906 60.0215ZM161.141 60.675C161.047 59.651 161.225 58.634 161.642 57.811C162.058 56.988 162.663 56.4575 163.346 56.3175C163.503 56.2855 163.659 56.2745 163.814 56.285C164.333 56.319 164.833 56.588 165.255 57.069C165.804 57.694 166.158 58.602 166.251 59.6255C166.444 61.739 165.455 63.6935 164.046 63.983C163.363 64.123 162.685 63.8565 162.136 63.2315C161.588 62.6065 161.234 61.699 161.141 60.675ZM154.558 55.5725C154.715 55.54 154.872 55.5295 155.026 55.5395C155.546 55.5735 156.045 55.8425 156.468 56.3235C157.016 56.9485 157.37 57.8565 157.464 58.88C157.657 60.9935 156.667 62.948 155.258 63.2375C153.849 63.5265 152.546 62.043 152.353 59.9295C152.16 57.8165 153.15 55.8615 154.558 55.5725Z" fill="#FFC334"/>
<path d="M156.818 79.2589L155.439 82.6679L155.535 83.4944L156.818 79.2589Z" fill="#E28079"/>
<path d="M145.486 142.043C145.486 142.043 145.188 143.207 144.468 143.958C144.117 144.324 143.427 144.53 142.88 144.771C142.553 144.915 142.937 145.884 143.454 145.933C144.637 146.043 146.95 145.641 147.707 144.837C148.329 144.144 147.535 142 147.535 142L145.486 142.043Z" fill="#B26C52"/>
<path d="M153.178 142.539C153.178 142.539 152.812 143.658 152.05 144.31C151.679 144.627 151.079 144.784 150.52 144.95C150.185 145.05 150.147 145.773 150.627 146.064C152.561 147.238 154.177 146.077 154.979 145.379C155.64 144.772 155.221 142.772 155.221 142.772L153.178 142.539Z" fill="#B26C52"/>
<path d="M148.331 118.907C147.857 120.429 147.99 122.779 147.389 124.615C147.389 124.615 147.853 136.266 147.747 142.691L145.203 142.818C145.203 142.818 142.498 128.112 142.29 125.714C142.19 124.561 142.905 121.371 143.23 117.245L148.331 118.907Z" fill="#B26C52"/>
<path d="M153.617 120.872C153.201 123.149 153.047 124.56 153.271 125.78C154.995 135.134 155.085 139.131 155.244 142.854L152.835 143.339C152.835 143.339 148.203 128.73 147.597 126.489C147.279 125.316 148.364 124.752 148.687 119.454L153.617 120.872Z" fill="#B26C52"/>
<path d="M155.244 142.854C155.244 142.854 154.5 144.138 153.693 144.583C152.886 145.027 151.547 144.583 151.547 144.583C151.547 144.583 150.535 144.652 150.129 145.126C149.967 145.316 150.135 145.752 150.496 146.064C150.857 146.377 151.32 146.628 152.483 146.628C153.645 146.628 154.154 146.187 154.47 145.913C154.785 145.64 154.785 145.64 154.785 145.64L154.836 146.29L155.516 146.183C155.516 146.183 155.516 145.662 155.516 144.583C155.517 143.503 155.244 142.854 155.244 142.854Z" fill="#AB3336"/>
<path d="M147.742 142.532C147.742 142.532 146.998 143.816 146.191 144.261C145.384 144.705 144.045 144.261 144.045 144.261C144.045 144.261 143.033 144.33 142.627 144.804C142.465 144.994 142.633 145.43 142.994 145.742C143.355 146.055 143.818 146.305 144.981 146.305C146.143 146.305 146.652 145.865 146.968 145.591C147.284 145.318 147.284 145.318 147.284 145.318L147.334 145.968L148.014 145.861C148.014 145.861 148.014 145.34 148.014 144.261C148.014 143.182 147.742 142.532 147.742 142.532Z" fill="#AB3336"/>
<path d="M169.576 104.337C169.576 104.337 171.417 110.5 167.795 114.531C166.21 116.295 157.885 115.68 156.077 117.246C154.269 118.812 154.065 126.128 154.065 126.128H141.77C141.77 126.128 138.826 115.961 143.402 109.098C147.115 103.529 150.985 102.934 153.312 102.934C155.638 102.933 169.576 104.337 169.576 104.337Z" fill="#F69589"/>
<path d="M169.928 86.0299C169.928 86.0299 170.909 95.9489 171.347 98.2434C171.785 100.537 171.685 111.668 171.685 111.668C171.685 111.668 173.981 112.746 174.371 113.312C175.032 114.27 174.928 114.865 174.928 114.865C174.928 114.865 172.584 114.865 171.629 115.094C171.447 115.309 171.433 115.719 171.579 115.988C171.579 115.988 171.979 116.482 172.029 116.818C172.079 117.154 171.375 117.349 170.491 115.746C170.101 115.036 170.203 114.262 170.203 114.262L167.683 96.8709L165.257 87.5494L169.928 86.0299Z" fill="#A5614C"/>
<path d="M98.7601 31.579L97.6768 30.954" stroke="#FFC334" stroke-miterlimit="10" stroke-linecap="round"/>
<path d="M98.7601 24.204L97.6768 24.6415" stroke="#FFC334" stroke-miterlimit="10" stroke-linecap="round"/>
<path d="M95.9271 18.2665L95.0938 19.579" stroke="#FFC334" stroke-miterlimit="10" stroke-linecap="round"/>
<path d="M91.2793 15.7665V17.7665" stroke="#FFC334" stroke-miterlimit="10" stroke-linecap="round"/>
<path d="M86.7598 18.2665L87.2651 19.579" stroke="#FFC334" stroke-miterlimit="10" stroke-linecap="round"/>
<path d="M83.8018 24.4225L84.8018 24.6415" stroke="#FFC334" stroke-miterlimit="10" stroke-linecap="round"/>
<path d="M83.8018 31.579L84.9684 30.954" stroke="#FFC334" stroke-miterlimit="10" stroke-linecap="round"/>
<path d="M90.0808 37.9295C90.7148 38.096 91.5718 38.198 92.4908 37.955C93.1068 37.792 93.5505 36.973 93.5505 36.035V32.5785H89.0088V36.0065C89.0088 36.9535 89.4591 37.7665 90.0808 37.9295Z" fill="#FFC334"/>
<path d="M85.7236 28.183C85.7236 23.5805 88.211 19.8495 91.2793 19.8495C94.3476 19.8495 96.835 23.5805 96.835 28.183C96.835 32.3595 94.7846 35.808 92.1126 36.4125V29.183C92.1126 28.4925 91.7396 27.933 91.2793 27.933C90.819 27.933 90.446 28.4925 90.446 29.183V36.4125C87.774 35.808 85.7236 32.3595 85.7236 28.183Z" fill="#FFC334"/>
<path d="M91.2796 27.933C91.74 27.933 92.113 28.4925 92.113 29.183V36.4125C91.8403 36.474 91.5636 36.5165 91.2796 36.5165C90.9956 36.5165 90.719 36.4745 90.4463 36.4125V29.183C90.4463 28.4925 90.8193 27.933 91.2796 27.933Z" fill="#E5A629"/>
<path d="M91.2348 43.462C91.2645 43.463 91.2948 43.4635 91.3252 43.4635C92.0002 43.4635 92.5382 42.6105 92.5382 41.598V40.403H90.0205V41.5945C90.0205 42.6085 90.5592 43.4385 91.2348 43.462Z" fill="#525B5B"/>
<path d="M90.0808 41.7635C90.7148 41.93 91.5718 42.032 92.4908 41.789C93.1068 41.626 93.5505 40.807 93.5505 39.869V36.4125H89.0088V39.8405C89.0088 40.7875 89.4591 41.6 90.0808 41.7635Z" fill="#5E6869"/>
<path d="M120.491 9.55453C120.914 5.57734 119.108 1.83862 116.456 1.20388C113.805 0.569139 111.312 3.27874 110.889 7.25594C110.466 11.2331 112.272 14.9718 114.924 15.6066C117.575 16.2413 120.068 13.5317 120.491 9.55453Z" fill="#97AAD3"/>
<path d="M119.649 24.2039C122.334 24.2039 124.51 20.9389 124.51 16.9114C124.51 12.8839 122.334 9.6189 119.649 9.6189C116.964 9.6189 114.787 12.8839 114.787 16.9114C114.787 20.9389 116.964 24.2039 119.649 24.2039Z" fill="#FFC334"/>
<path d="M111.844 24.2039C114.529 24.2039 116.706 20.9389 116.706 16.9114C116.706 12.8839 114.529 9.6189 111.844 9.6189C109.159 9.6189 106.982 12.8839 106.982 16.9114C106.982 20.9389 109.159 24.2039 111.844 24.2039Z" fill="#ED4E4A"/>
<path d="M140.102 35.5645H132.614C131.618 35.5645 130.811 34.353 130.811 32.859V21.628C130.811 20.1335 131.618 18.9225 132.614 18.9225H140.102C141.098 18.9225 141.905 20.134 141.905 21.628V32.859C141.906 34.3535 141.098 35.5645 140.102 35.5645Z" fill="#869ABF"/>
<path d="M141.462 35.5645H133.975C132.978 35.5645 132.171 34.353 132.171 32.859V21.628C132.171 20.1335 132.979 18.9225 133.975 18.9225H141.462C142.458 18.9225 143.266 20.134 143.266 21.628V32.859C143.266 34.3535 142.458 35.5645 141.462 35.5645Z" fill="#97AAD3"/>
<path d="M135.829 37.5013V26.0208H140.798C141.826 26.0208 142.712 26.1903 143.455 26.5292C144.199 26.8572 144.773 27.3328 145.177 27.9561C145.582 28.5793 145.784 29.3228 145.784 30.1866C145.784 31.0394 145.582 31.7775 145.177 32.4007C144.773 33.0239 144.199 33.505 143.455 33.844C142.712 34.172 141.826 34.336 140.798 34.336H137.305L138.486 33.1387V37.5013H135.829ZM138.486 33.4339L137.305 32.1711H140.651C141.471 32.1711 142.083 31.9961 142.488 31.6463C142.892 31.2964 143.095 30.8098 143.095 30.1866C143.095 29.5524 142.892 29.0604 142.488 28.7105C142.083 28.3606 141.471 28.1857 140.651 28.1857H137.305L138.486 26.9228V33.4339ZM138.617 57.6325C137.863 57.6325 137.136 57.5451 136.436 57.3701C135.747 57.1843 135.2 56.9546 134.796 56.6813L135.649 54.8444C136.053 55.0959 136.529 55.3036 137.076 55.4676C137.633 55.6207 138.18 55.6973 138.716 55.6973C139.306 55.6973 139.721 55.6262 139.962 55.484C140.214 55.3419 140.339 55.1451 140.339 54.8936C140.339 54.6859 140.241 54.5328 140.044 54.4344C139.858 54.3251 139.607 54.2431 139.29 54.1884C138.973 54.1337 138.623 54.079 138.24 54.0244C137.868 53.9697 137.491 53.8986 137.108 53.8112C136.726 53.7128 136.376 53.5706 136.059 53.3847C135.742 53.1989 135.485 52.9474 135.288 52.6303C135.102 52.3132 135.009 51.9032 135.009 51.4002C135.009 50.8426 135.168 50.3506 135.485 49.9242C135.813 49.4978 136.283 49.1643 136.895 48.9237C137.507 48.6722 138.24 48.5465 139.093 48.5465C139.694 48.5465 140.306 48.6121 140.93 48.7433C141.553 48.8745 142.072 49.0659 142.488 49.3173L141.635 51.1378C141.209 50.8864 140.777 50.7169 140.339 50.6294C139.913 50.531 139.497 50.4818 139.093 50.4818C138.524 50.4818 138.109 50.5583 137.846 50.7114C137.584 50.8645 137.453 51.0613 137.453 51.3018C137.453 51.5205 137.546 51.6845 137.732 51.7939C137.928 51.9032 138.185 51.9907 138.502 52.0563C138.819 52.1219 139.164 52.182 139.536 52.2367C139.918 52.2804 140.301 52.3515 140.684 52.4499C141.066 52.5483 141.411 52.6904 141.717 52.8763C142.034 53.0513 142.291 53.2973 142.488 53.6144C142.685 53.9205 142.783 54.3251 142.783 54.828C142.783 55.3747 142.619 55.8613 142.291 56.2877C141.963 56.7032 141.487 57.0312 140.864 57.2717C140.252 57.5123 139.503 57.6325 138.617 57.6325Z" fill="white"/>
<path d="M2.0459 167.409H225.954" stroke="#EACCC7" stroke-width="4" stroke-miterlimit="10" stroke-linecap="round" stroke-linejoin="round"/>
</svg>
